<svg height="512pt" viewBox="0 0 512.00015 512" width="512pt" xmlns="http://www.w3.org/2000/svg"><path d="m187.734375 281.601562h136.53125v93.863282h-136.53125zm0 0" fill="#fec108"/><path d="m384 204.800781c14.136719 0 25.601562-11.460937 25.601562-25.601562l2.464844-79.65625c1.570313-23.566407-6.695312-46.726563-22.832031-63.976563-16.132813-17.246094-38.695313-27.03125-62.3125-27.03125h-141.84375c-23.617187 0-46.179687 9.785156-62.3125 27.03125-16.136719 17.25-24.402344 40.410156-22.832031 63.976563l2.464844 79.65625c0 14.140625 11.464843 25.601562 25.601562 25.601562zm0 0" fill="#783e22"/><path d="m360.851562 204.800781c12.792969-1.402343 22.113282-12.78125 20.96875-25.601562l2.023438-79.65625c2.6875-49.253907-29.3125-91.007813-69.746094-91.007813h-116.195312c-40.433594 0-72.433594 41.753906-69.746094 91.007813l2.023438 79.65625c-1.148438 12.820312 8.175781 24.199219 20.96875 25.601562zm0 0" fill="#a0522d"/><path d="m409.601562 503.464844h93.867188l-.003906-7.59375c.015625-10.925782-1.300782-21.816406-3.921875-32.425782l-7.9375-32.171874c-9.203125-33.554688-40.046875-56.558594-74.835938-55.808594h-321.539062c-34.789063-.75-65.632813 22.253906-74.835938 55.808594l-7.9375 32.171874c-2.621093 10.609376-3.9375 21.5-3.921875 32.425782v7.59375zm0 0" fill="#c81e1e"/><path d="m128 137.160156c-.0625-17.699218 13.457031-32.488281 31.089844-34.011718 5.667968-.464844 12.320312-.75 20.109375-.75 42.667969 0 42.667969 8.535156 76.800781 8.535156s34.132812-8.535156 76.800781-8.535156c7.789063 0 14.441407.285156 20.109375.75 17.632813 1.523437 31.152344 16.3125 31.089844 34.011718v110.304688c0 32.992187-26.742188 59.734375-59.734375 59.734375h-136.53125c-32.992187 0-59.734375-26.742188-59.734375-59.734375zm0 0" fill="#fec108"/><path d="m153.601562 137.160156c0-17.691406 10.761719-32.566406 24.871094-34.011718 5.34375-.523438 10.714844-.773438 16.085938-.75 34.136718 0 34.136718 8.535156 61.441406 8.535156 27.308594 0 27.308594-8.535156 61.441406-8.535156 5.371094-.023438 10.738282.226562 16.085938.75 14.109375 1.445312 24.871094 16.316406 24.871094 34.011718v110.304688c0 32.992187-21.394532 59.734375-47.785157 59.734375h-109.226562c-26.390625 0-47.785157-26.742188-47.785157-59.734375zm0 0" fill="#ffdc00"/><path d="m341.332031 349.867188h44.117188c9.285156-.816407 17.921875 4.824218 20.90625 13.652343l28.84375 139.945313h-358.398438l28.925781-139.945313c2.945313-8.820312 11.558594-14.46875 20.824219-13.652343zm0 0" fill="#f44335"/><path d="m341.332031 349.867188v17.066406c-.019531 28.265625-22.929687 51.175781-51.199219 51.199218h-68.265624c-28.269532-.023437-51.179688-22.933593-51.199219-51.199218v-17.066406zm0 0" fill="#ffdc00"/><path d="m247.464844 418.132812h17.070312v85.332032h-17.070312zm0 0" fill="#802f34"/><path d="m296.339844 247.464844c-6.894532 13.496094-28.414063 15.402344-40.167969 15.402344-11.78125 0-33.277344-1.90625-40.171875-15.402344 13.148438 3.242187 26.628906 4.929687 40.171875 5.035156 13.539063-.101562 27.023437-1.792969 40.167969-5.035156zm0 0"/><path d="m233.648438 158.625c-8.109376-2.980469-16.625-4.707031-25.257813-5.121094-11.601563-.875-23.214844 1.601563-33.449219 7.132813 1.167969-14.933594 35.789063-17.882813 52.710938-14.042969 2.683594.332031 5.019531 1.988281 6.226562 4.40625 1.207032 2.421875 1.121094 5.28125-.230468 7.625zm0 0"/><path d="m230.398438 185.011719c0-10.101563-7.640626-18.289063-17.066407-18.289063s-17.066406 8.1875-17.066406 18.289063c0 10.105469 7.640625 18.292969 17.066406 18.292969s17.066407-8.1875 17.066407-18.292969zm0 0"/><path d="m218.117188 169.140625c-4.40625-1.675781-9.332032.535156-11.007813 4.941406s.535156 9.335938 4.941406 11.011719c4.40625 1.671875 9.332031-.539062 11.007813-4.945312 1.675781-4.402344-.535156-9.332032-4.941406-11.007813zm0 0" fill="#fff"/><path d="m278.351562 158.625c8.109376-2.980469 16.625-4.707031 25.257813-5.121094 11.601563-.875 23.214844 1.601563 33.449219 7.132813-1.167969-14.933594-35.789063-17.882813-52.710938-14.042969-2.683594.332031-5.019531 1.988281-6.226562 4.40625-1.207032 2.421875-1.117188 5.28125.230468 7.625zm0 0"/><path d="m315.734375 185.011719c0-10.101563-7.640625-18.289063-17.066406-18.289063s-17.066407 8.1875-17.066407 18.289063c0 10.105469 7.640626 18.292969 17.066407 18.292969s17.066406-8.1875 17.066406-18.292969zm0 0"/><path d="m304.890625 174.082031c-1.675781-4.402343-6.601563-6.617187-11.007813-4.941406s-6.617187 6.605469-4.941406 11.007813c1.675782 4.40625 6.601563 6.621093 11.007813 4.945312s6.617187-6.605469 4.941406-11.011719zm0 0" fill="#fff"/><path d="m435.199219 512h-358.398438c-2.566406 0-4.996093-1.152344-6.617187-3.144531-1.621094-1.988281-2.261719-4.601563-1.742188-7.113281l28.910156-139.921876c3.722657-12.84375 15.882813-21.367187 29.226563-20.488281h258.894531c13.359375-.875 25.527344 7.667969 29.238282 20.535157l28.84375 139.875c.519531 2.511718-.121094 5.125-1.742188 7.113281-1.617188 1.988281-4.046875 3.144531-6.613281 3.144531zm-347.925781-17.066406h337.457031l-26.742188-129.664063c-2.261719-4.738281-7.300781-7.507812-12.515625-6.871093h-258.894531c-5.199219-.632813-10.226563 2.113281-12.503906 6.828124zm0 0"/><path d="m324.265625 358.398438h-136.53125c-4.714844 0-8.535156-3.820313-8.535156-8.53125v-42.667969c0-4.710938 3.820312-8.53125 8.535156-8.53125h136.53125c4.714844 0 8.535156 3.820312 8.535156 8.53125v42.667969c0 4.710937-3.820312 8.53125-8.535156 8.53125zm-128-17.066407h119.46875v-25.597656h-119.46875zm0 0"/><path d="m102.398438 512h-93.863282c-4.714844 0-8.535156-3.820312-8.535156-8.535156v-7.59375c-.0117188-11.617188 1.390625-23.195313 4.175781-34.480469l7.9375-32.160156c10.019531-37.453125 44.359375-63.191407 83.117188-62.296875h8.023437c4.710938 0 8.53125 3.820312 8.53125 8.53125 0 4.714844-3.820312 8.535156-8.53125 8.535156h-8.023437c-30.898438-.875-58.386719 19.496094-66.550781 49.308594l-7.9375 32.183594c-2.378907 9.636718-3.609376 19.519531-3.667969 29.441406h85.324219c4.714843 0 8.535156 3.820312 8.535156 8.53125 0 4.714844-3.820313 8.535156-8.535156 8.535156zm0 0"/><path d="m503.464844 512h-93.863282c-4.714843 0-8.535156-3.820312-8.535156-8.535156 0-4.710938 3.820313-8.53125 8.535156-8.53125h85.332032c-.058594-9.921875-1.289063-19.800782-3.667969-29.433594l-7.9375-32.179688c-8.160156-29.820312-35.65625-50.195312-66.558594-49.320312h-7.9375c-4.710937 0-8.535156-3.820312-8.535156-8.535156 0-4.710938 3.824219-8.53125 8.535156-8.53125h7.9375c38.761719-.894532 73.105469 24.851562 83.125 62.308594l7.933594 32.15625c2.785156 11.28125 4.183594 22.855468 4.171875 34.472656v7.59375c0 4.714844-3.820312 8.535156-8.535156 8.535156zm0 0"/><path d="m128 213.332031c-18.84375-.019531-34.113281-15.289062-34.132812-34.132812l-2.464844-79.394531c-1.640625-25.875 7.492187-51.277344 25.234375-70.179688 17.746093-18.902344 42.515625-29.625 68.441406-29.625h70.921875c4.714844 0 8.535156 3.820312 8.535156 8.535156 0 4.710938-3.820312 8.53125-8.535156 8.53125h-70.921875c-21.253906.003906-41.558594 8.8125-56.078125 24.335938-14.519531 15.519531-21.960938 36.363281-20.550781 57.574218l2.484375 79.960938c-.046875 4.566406 1.726562 8.960938 4.929687 12.210938 3.203125 3.253906 7.570313 5.097656 12.136719 5.117187 4.714844 0 8.535156 3.820313 8.535156 8.535156 0 4.710938-3.820312 8.53125-8.535156 8.53125zm0 0"/><path d="m384 213.332031c-4.710938 0-8.535156-3.820312-8.535156-8.53125 0-4.714843 3.824218-8.535156 8.535156-8.535156 9.421875-.007813 17.058594-7.644531 17.066406-17.066406l2.476563-79.917969c1.496093-21.257812-5.90625-42.183594-20.433594-57.769531-14.527344-15.589844-34.878906-24.445313-56.1875-24.445313h-70.921875c-4.710938 0-8.535156-3.820312-8.535156-8.53125 0-4.714844 3.824218-8.535156 8.535156-8.535156h70.921875c25.976563 0 50.792969 10.765625 68.542969 29.738281 17.75 18.96875 26.839844 44.449219 25.113281 70.371094l-2.445313 79.355469c-.132812 18.75-15.378906 33.882812-34.132812 33.867187zm0 0"/><path d="m324.265625 315.734375h-136.53125c-37.6875-.042969-68.222656-30.582031-68.269531-68.269531v-110.300782c.046875-22.101562 16.917968-40.53125 38.929687-42.519531 6.273438-.515625 13.273438-.777343 20.804688-.777343 15.164062-.3125 30.304687 1.3125 45.058593 4.828124 10.375 2.597657 21.046876 3.84375 31.742188 3.703126 10.695312.140624 21.367188-1.105469 31.742188-3.703126 14.753906-3.515624 29.894531-5.140624 45.058593-4.828124 7.53125 0 14.53125.261718 20.808594.777343 22.007813 1.988281 38.878906 20.417969 38.925781 42.519531v110.300782c-.046875 37.6875-30.582031 68.226562-68.269531 68.269531zm-145.066406-204.800781c-7.066407 0-13.59375.242187-19.40625.722656-13.179688 1.21875-23.257813 12.273438-23.257813 25.507812v110.300782c.027344 28.265625 22.933594 51.171875 51.199219 51.203125h136.53125c28.265625-.03125 51.171875-22.9375 51.199219-51.203125v-110.300782c0-13.234374-10.078125-24.289062-23.253906-25.507812-5.816407-.480469-12.34375-.722656-19.410157-.722656-13.910156-.3125-27.804687 1.171875-41.335937 4.417968-11.597656 2.863282-23.515625 4.246094-35.464844 4.113282-11.949219.132812-23.863281-1.25-35.464844-4.113282-13.53125-3.246093-27.425781-4.730468-41.335937-4.417968zm0 0"/><path d="m256 76.800781c-11.84375-.242187-23.433594-3.488281-33.683594-9.433593-7.882812-4.742188-16.855468-7.371094-26.050781-7.632813-13.339844-.214844-26.578125 2.386719-38.847656 7.632813-2.726563 1.363281-5.976563 1.167968-8.519531-.511719-2.542969-1.679688-4-4.589844-3.816407-7.632813.183594-3.042968 1.972657-5.757812 4.699219-7.121094 14.644531-6.433593 30.496094-9.648437 46.484375-9.433593 11.847656.242187 23.4375 3.488281 33.683594 9.433593 7.882812 4.738282 16.855469 7.367188 26.050781 7.632813 9.195312-.265625 18.167969-2.894531 26.050781-7.632813 10.246094-5.945312 21.835938-9.191406 33.683594-9.433593 15.988281-.214844 31.839844 3 46.484375 9.433593 4.136719 2.140626 5.792969 7.210938 3.714844 11.382813s-7.121094 5.90625-11.324219 3.890625c-12.292969-5.203125-25.527344-7.804688-38.875-7.640625-9.195313.261719-18.167969 2.890625-26.050781 7.632813-10.25 5.945312-21.839844 9.191406-33.683594 9.433593zm0 0"/><path d="m290.132812 426.667969h-68.265624c-32.976563-.039063-59.695313-26.761719-59.734376-59.734375v-17.066406c0-4.714844 3.820313-8.535157 8.535157-8.535157 4.710937 0 8.53125 3.820313 8.53125 8.535157v17.066406c.027343 23.550781 19.113281 42.640625 42.667969 42.667968h68.265624c23.554688-.027343 42.640626-19.117187 42.667969-42.667968v-17.066406c0-4.714844 3.820313-8.535157 8.53125-8.535157 4.714844 0 8.535157 3.820313 8.535157 8.535157v17.066406c-.039063 32.972656-26.757813 59.695312-59.734376 59.734375zm0 0"/><path d="m256 512c-4.710938 0-8.535156-3.820312-8.535156-8.535156v-85.332032c0-4.710937 3.824218-8.53125 8.535156-8.53125 4.714844 0 8.535156 3.820313 8.535156 8.53125v85.332032c0 4.714844-3.820312 8.535156-8.535156 8.535156zm0 0"/><path d="m298.667969 460.800781c0 4.710938-3.820313 8.53125-8.535157 8.53125-4.710937 0-8.53125-3.820312-8.53125-8.53125 0-4.714843 3.820313-8.535156 8.53125-8.535156 4.714844 0 8.535157 3.820313 8.535157 8.535156zm0 0"/></svg>