<svg height="512pt" viewBox="0 0 512.00015 512" width="512pt" xmlns="http://www.w3.org/2000/svg"><path d="m409.601562 503.464844h93.867188l-.003906-7.59375c.015625-10.925782-1.300782-21.816406-3.921875-32.425782l-7.9375-32.171874c-9.203125-33.554688-40.046875-56.558594-74.835938-55.808594h-321.539062c-34.789063-.75-65.632813 22.253906-74.835938 55.808594l-7.9375 32.171874c-2.621093 10.609376-3.9375 21.5-3.921875 32.425782v7.59375zm0 0" fill="#283593"/><path d="m187.734375 290.132812h136.53125v76.800782h-136.53125zm0 0" fill="#fec108"/><path d="m315.734375 349.867188-57.601563 83.625c-.851562.597656-1.707031 1.109374-2.558593 1.707031l-59.308594-85.332031zm0 0" fill="#ffdc00"/><path d="m435.199219 503.464844h-358.398438l5.289063-25.769532h.085937l3.414063-16.894531 3.582031-17.238281 3.5-16.894531 13.054687-63.148438c2.945313-8.820312 11.558594-14.46875 20.824219-13.652343h61.183594c-19.457031 8.980468-30.089844 30.246093-25.601563 51.199218 0 0 51.96875-14.847656 86.699219 3.925782 2.347657 1.261718 4.597657 2.6875 6.742188 4.265624.121093.140626.265625.253907.425781.34375l2.132812-2.136718c1.574219-1.019532 3.195313-1.957032 4.863282-2.8125 34.648437-18.261719 85.933594-3.585938 85.933594-3.585938 4.488281-20.953125-6.144532-42.21875-25.601563-51.199218h62.121094c9.285156-.816407 17.921875 4.824218 20.90625 13.652343l13.058593 63.148438 3.414063 16.894531 3.582031 17.238281 3.5 16.894531zm0 0" fill="#3f51b5"/><path d="m255.574219 409.171875v.085937c-34.21875-25.085937-93.441407-8.191406-93.441407-8.191406-4.488281-20.953125 6.144532-42.21875 25.601563-51.199218h8.53125zm0 0" fill="#02a9f4"/><path d="m348.929688 401.066406s-56.320313-16.128906-90.796876 6.398438l57.601563-57.597656h7.59375c19.457031 8.980468 30.089844 30.246093 25.601563 51.199218zm0 0" fill="#02a9f4"/><path d="m384 110.933594v136.53125c0 32.992187-26.742188 59.734375-59.734375 59.734375h-136.53125c-32.992187 0-59.734375-26.742188-59.734375-59.734375v-136.53125" fill="#fec108"/><path d="m358.398438 110.933594v136.53125c0 32.992187-21.394532 59.734375-47.785157 59.734375h-109.226562c-26.390625 0-47.785157-26.742188-47.785157-59.734375v-136.53125" fill="#ffdc00"/><path d="m170.667969 221.867188c0 4.710937-3.820313 8.53125-8.535157 8.53125-4.710937 0-8.53125-3.820313-8.53125-8.53125 0-4.714844 3.820313-8.535157 8.53125-8.535157 4.714844 0 8.535157 3.820313 8.535157 8.535157zm0 0"/><path d="m170.667969 247.464844c0 4.714844-3.820313 8.535156-8.535157 8.535156-4.710937 0-8.53125-3.820312-8.53125-8.535156 0-4.710938 3.820313-8.53125 8.53125-8.53125 4.714844 0 8.535157 3.820312 8.535157 8.53125zm0 0"/><path d="m196.265625 247.464844c0 4.714844-3.820313 8.535156-8.53125 8.535156-4.714844 0-8.535156-3.820312-8.535156-8.535156 0-4.710938 3.820312-8.53125 8.535156-8.53125 4.710937 0 8.53125 3.820312 8.53125 8.53125zm0 0"/><path d="m196.265625 273.066406c0 4.714844-3.820313 8.535156-8.53125 8.535156-4.714844 0-8.535156-3.820312-8.535156-8.535156 0-4.710937 3.820312-8.53125 8.535156-8.53125 4.710937 0 8.53125 3.820313 8.53125 8.53125zm0 0"/><path d="m221.867188 273.066406c0 4.714844-3.820313 8.535156-8.535157 8.535156-4.710937 0-8.53125-3.820312-8.53125-8.535156 0-4.710937 3.820313-8.53125 8.53125-8.53125 4.714844 0 8.535157 3.820313 8.535157 8.53125zm0 0"/><path d="m358.398438 221.867188c0 4.710937-3.820313 8.53125-8.53125 8.53125-4.714844 0-8.535157-3.820313-8.535157-8.53125 0-4.714844 3.820313-8.535157 8.535157-8.535157 4.710937 0 8.53125 3.820313 8.53125 8.535157zm0 0"/><path d="m358.398438 247.464844c0 4.714844-3.820313 8.535156-8.53125 8.535156-4.714844 0-8.535157-3.820312-8.535157-8.535156 0-4.710938 3.820313-8.53125 8.535157-8.53125 4.710937 0 8.53125 3.820312 8.53125 8.53125zm0 0"/><path d="m332.800781 247.464844c0 4.714844-3.820312 8.535156-8.535156 8.535156-4.710937 0-8.53125-3.820312-8.53125-8.535156 0-4.710938 3.820313-8.53125 8.53125-8.53125 4.714844 0 8.535156 3.820312 8.535156 8.53125zm0 0"/><path d="m332.800781 273.066406c0 4.714844-3.820312 8.535156-8.535156 8.535156-4.710937 0-8.53125-3.820312-8.53125-8.535156 0-4.710937 3.820313-8.53125 8.53125-8.53125 4.714844 0 8.535156 3.820313 8.535156 8.53125zm0 0"/><path d="m307.199219 273.066406c0 4.714844-3.820313 8.535156-8.53125 8.535156-4.714844 0-8.535157-3.820312-8.535157-8.535156 0-4.710937 3.820313-8.53125 8.535157-8.53125 4.710937 0 8.53125 3.820313 8.53125 8.53125zm0 0"/><path d="m119.464844 76.800781h273.070312c9.425782 0 17.066406 7.640625 17.066406 17.066407v17.066406c0 9.425781-7.640624 17.066406-17.066406 17.066406h-273.070312c-9.421875 0-17.066406-7.640625-17.066406-17.066406v-17.066406c0-9.425782 7.644531-17.066407 17.066406-17.066407zm0 0" fill="#283593"/><path d="m196.265625 8.535156h119.46875c37.703125 0 68.265625 30.5625 68.265625 68.265625h-256c0-37.703125 30.5625-68.265625 68.265625-68.265625zm0 0" fill="#283593"/><path d="m230.398438 8.535156h51.203124c37.699219 0 68.265626 30.5625 68.265626 68.265625h-187.734376c0-37.703125 30.566407-68.265625 68.265626-68.265625zm0 0" fill="#3f51b5"/><g fill="#7f8c8d"><path d="m145.066406 110.933594v17.066406h-17.066406v-17.066406c0-4.714844 3.820312-8.535156 8.535156-8.535156 4.710938 0 8.53125 3.820312 8.53125 8.535156zm0 0"/><path d="m179.199219 110.933594v17.066406h-17.066407v-17.066406c0-4.714844 3.820313-8.535156 8.535157-8.535156 4.710937 0 8.53125 3.820312 8.53125 8.535156zm0 0"/><path d="m213.332031 110.933594v17.066406h-17.066406v-17.066406c0-4.714844 3.820313-8.535156 8.535156-8.535156 4.710938 0 8.53125 3.820312 8.53125 8.535156zm0 0"/><path d="m247.464844 110.933594v17.066406h-17.066406v-17.066406c0-4.714844 3.820312-8.535156 8.535156-8.535156 4.710937 0 8.53125 3.820312 8.53125 8.535156zm0 0"/><path d="m281.601562 110.933594v17.066406h-17.066406v-17.066406c0-4.714844 3.820313-8.535156 8.53125-8.535156 4.714844 0 8.535156 3.820312 8.535156 8.535156zm0 0"/><path d="m315.734375 110.933594v17.066406h-17.066406v-17.066406c0-4.714844 3.820312-8.535156 8.53125-8.535156 4.714843 0 8.535156 3.820312 8.535156 8.535156zm0 0"/><path d="m349.867188 110.933594v17.066406h-17.066407v-17.066406c0-4.714844 3.820313-8.535156 8.53125-8.535156 4.714844 0 8.535157 3.820312 8.535157 8.535156zm0 0"/><path d="m384 110.933594v17.066406h-17.066406v-17.066406c0-4.714844 3.820312-8.535156 8.53125-8.535156 4.714844 0 8.535156 3.820312 8.535156 8.535156zm0 0"/><path d="m264.535156 409.601562v93.863282h-17.070312v-93.863282c.007812-1.636718.484375-3.234374 1.367187-4.609374 1.5625-2.449219 4.265625-3.929688 7.167969-3.925782 2.761719.042969 5.347656 1.367188 6.996094 3.585938 1.003906 1.453125 1.539062 3.179687 1.539062 4.949218zm0 0"/></g><path d="m299.734375 230.667969c-4.707031 14.523437-26.84375 21.660156-38.832031 23.757812-12.015625 2.105469-34.261719 4.0625-43.617188-8 13.980469.84375 28.011719.101563 41.828125-2.210937 14-3.003906 27.621094-7.546875 40.621094-13.546875zm0 0"/><path d="m232.042969 168.234375c-7.402344-4.460937-15.445313-7.765625-23.84375-9.796875-11.230469-3.050781-23.101563-2.8125-34.199219.691406 3.964844-14.445312 38.523438-10.808594 54.417969-3.839844 2.570312.832032 4.554687 2.894532 5.285156 5.5.726563 2.601563.105469 5.398438-1.660156 7.445313zm0 0"/><path d="m230.398438 185.011719c0-10.101563-7.640626-18.289063-17.066407-18.289063s-17.066406 8.1875-17.066406 18.289063c0 10.105469 7.640625 18.292969 17.066406 18.292969s17.066407-8.1875 17.066407-18.292969zm0 0"/><path d="m218.117188 169.140625c-4.40625-1.675781-9.332032.535156-11.007813 4.941406s.535156 9.335938 4.941406 11.011719c4.40625 1.671875 9.332031-.539062 11.007813-4.945312 1.675781-4.402344-.535156-9.332032-4.941406-11.007813zm0 0" fill="#fff"/><path d="m279.046875 170.023438c6.050781-7.96875 14.457031-13.828126 24.027344-16.742188 12.871093-3.433594 26.5625.914062 35.09375 11.140625-.132813-.128906.132812-2.847656.085937-3.273437-.140625-1.105469-.4375-2.183594-.886718-3.203126-1.003907-2.179687-2.480469-4.109374-4.320313-5.648437-4.582031-3.71875-10.035156-6.210937-15.84375-7.242187-7.722656-1.746094-15.773437-1.347657-23.28125 1.152343-4.523437 1.5625-8.683594 4.011719-12.238281 7.210938-3.136719 2.871093-7.777344 8.152343-5.761719 12.960937.933594 1.304688 1.976563 2.523438 3.125 3.644532zm0 0"/><path d="m315.734375 185.011719c0-10.101563-7.640625-18.289063-17.066406-18.289063s-17.066407 8.1875-17.066407 18.289063c0 10.105469 7.640626 18.292969 17.066407 18.292969s17.066406-8.1875 17.066406-18.292969zm0 0"/><path d="m304.890625 174.082031c-1.675781-4.402343-6.601563-6.617187-11.007813-4.941406s-6.617187 6.605469-4.941406 11.007813c1.675782 4.40625 6.601563 6.621093 11.007813 4.945312s6.617187-6.605469 4.941406-11.011719zm0 0" fill="#fff"/><path d="m392.535156 136.535156h-273.070312c-14.128906-.015625-25.582032-11.46875-25.597656-25.601562v-17.066406c.015624-14.132813 11.46875-25.585938 25.597656-25.601563h273.070312c14.128906.015625 25.582032 11.46875 25.597656 25.601563v17.066406c-.015624 14.132812-11.46875 25.585937-25.597656 25.601562zm-273.070312-51.203125c-4.707032.007813-8.523438 3.824219-8.53125 8.535157v17.066406c.007812 4.710937 3.824218 8.527344 8.53125 8.53125h273.070312c4.707032-.003906 8.527344-3.820313 8.53125-8.53125v-17.066406c-.003906-4.710938-3.824218-8.527344-8.53125-8.535157zm0 0"/><path d="m384 85.332031h-256c-4.710938 0-8.535156-3.820312-8.535156-8.53125.050781-42.398437 34.40625-76.753906 76.800781-76.800781h119.46875c42.394531.046875 76.753906 34.402344 76.800781 76.800781 0 2.261719-.902344 4.433594-2.5 6.035157-1.601562 1.597656-3.773437 2.496093-6.035156 2.496093zm-246.859375-17.066406h237.71875c-4.28125-29.367187-29.445313-51.160156-59.125-51.199219h-119.46875c-29.679687.039063-54.84375 21.832032-59.125 51.199219zm0 0"/><path d="m435.199219 512h-358.398438c-2.566406 0-4.996093-1.152344-6.617187-3.144531-1.621094-1.988281-2.261719-4.601563-1.742188-7.113281l28.910156-139.921876c3.722657-12.84375 15.882813-21.367187 29.226563-20.488281h258.894531c13.359375-.875 25.527344 7.667969 29.238282 20.535157l28.84375 139.875c.519531 2.511718-.121094 5.125-1.742188 7.113281-1.617188 1.988281-4.046875 3.144531-6.613281 3.144531zm-347.925781-17.066406h337.457031l-26.742188-129.664063c-2.261719-4.738281-7.300781-7.507812-12.515625-6.871093h-258.894531c-5.199219-.632813-10.226563 2.113281-12.503906 6.828124zm0 0"/><path d="m324.265625 358.398438h-136.53125c-4.714844 0-8.535156-3.820313-8.535156-8.53125v-42.667969c0-4.710938 3.820312-8.53125 8.535156-8.53125h136.53125c4.714844 0 8.535156 3.820312 8.535156 8.53125v42.667969c0 4.710937-3.820312 8.53125-8.535156 8.53125zm-128-17.066407h119.46875v-25.597656h-119.46875zm0 0"/><path d="m324.265625 315.734375h-136.53125c-37.6875-.042969-68.222656-30.582031-68.269531-68.269531v-119.464844c0-4.710938 3.824218-8.535156 8.535156-8.535156 4.714844 0 8.535156 3.824218 8.535156 8.535156v119.464844c.027344 28.265625 22.933594 51.171875 51.199219 51.203125h136.53125c28.265625-.03125 51.171875-22.9375 51.199219-51.203125v-119.464844c0-4.710938 3.824218-8.535156 8.535156-8.535156 4.714844 0 8.535156 3.824218 8.535156 8.535156v119.464844c-.046875 37.6875-30.582031 68.226562-68.269531 68.269531zm0 0"/><path d="m102.398438 512h-93.863282c-4.714844 0-8.535156-3.820312-8.535156-8.535156v-7.59375c-.0117188-11.617188 1.390625-23.195313 4.175781-34.480469l7.9375-32.160156c10.019531-37.453125 44.359375-63.191407 83.117188-62.296875h8.023437c4.710938 0 8.53125 3.820312 8.53125 8.53125 0 4.714844-3.820312 8.535156-8.53125 8.535156h-8.023437c-30.898438-.875-58.386719 19.496094-66.550781 49.308594l-7.9375 32.183594c-2.378907 9.636718-3.609376 19.519531-3.667969 29.441406h85.324219c4.714843 0 8.535156 3.820312 8.535156 8.53125 0 4.714844-3.820313 8.535156-8.535156 8.535156zm0 0"/><path d="m503.464844 512h-93.863282c-4.714843 0-8.535156-3.820312-8.535156-8.535156 0-4.710938 3.820313-8.53125 8.535156-8.53125h85.332032c-.058594-9.921875-1.289063-19.800782-3.667969-29.433594l-7.9375-32.179688c-8.160156-29.820312-35.65625-50.195312-66.558594-49.320312h-7.9375c-4.710937 0-8.535156-3.820312-8.535156-8.535156 0-4.710938 3.824219-8.53125 8.535156-8.53125h7.9375c38.761719-.894532 73.105469 24.851562 83.125 62.308594l7.933594 32.15625c2.785156 11.28125 4.183594 22.855468 4.171875 34.472656v7.59375c0 4.714844-3.820312 8.535156-8.535156 8.535156zm0 0"/><path d="m136.535156 136.535156c-4.714844 0-8.535156-3.820312-8.535156-8.535156v-17.066406c0-4.714844 3.820312-8.535156 8.535156-8.535156 4.710938 0 8.53125 3.820312 8.53125 8.535156v17.066406c0 4.714844-3.820312 8.535156-8.53125 8.535156zm0 0"/><path d="m170.667969 136.535156c-4.714844 0-8.535157-3.820312-8.535157-8.535156v-17.066406c0-4.714844 3.820313-8.535156 8.535157-8.535156 4.710937 0 8.53125 3.820312 8.53125 8.535156v17.066406c0 4.714844-3.820313 8.535156-8.53125 8.535156zm0 0"/><path d="m204.800781 136.535156c-4.714843 0-8.535156-3.820312-8.535156-8.535156v-17.066406c0-4.714844 3.820313-8.535156 8.535156-8.535156 4.710938 0 8.53125 3.820312 8.53125 8.535156v17.066406c0 4.714844-3.820312 8.535156-8.53125 8.535156zm0 0"/><path d="m238.933594 136.535156c-4.714844 0-8.535156-3.820312-8.535156-8.535156v-17.066406c0-4.714844 3.820312-8.535156 8.535156-8.535156 4.710937 0 8.53125 3.820312 8.53125 8.535156v17.066406c0 4.714844-3.820313 8.535156-8.53125 8.535156zm0 0"/><path d="m273.066406 136.535156c-4.710937 0-8.53125-3.820312-8.53125-8.535156v-17.066406c0-4.714844 3.820313-8.535156 8.53125-8.535156 4.714844 0 8.535156 3.820312 8.535156 8.535156v17.066406c0 4.714844-3.820312 8.535156-8.535156 8.535156zm0 0"/><path d="m307.199219 136.535156c-4.710938 0-8.53125-3.820312-8.53125-8.535156v-17.066406c0-4.714844 3.820312-8.535156 8.53125-8.535156 4.714843 0 8.535156 3.820312 8.535156 8.535156v17.066406c0 4.714844-3.820313 8.535156-8.535156 8.535156zm0 0"/><path d="m341.332031 136.535156c-4.710937 0-8.53125-3.820312-8.53125-8.535156v-17.066406c0-4.714844 3.820313-8.535156 8.53125-8.535156 4.714844 0 8.535157 3.820312 8.535157 8.535156v17.066406c0 4.714844-3.820313 8.535156-8.535157 8.535156zm0 0"/><path d="m375.464844 136.535156c-4.710938 0-8.53125-3.820312-8.53125-8.535156v-17.066406c0-4.714844 3.820312-8.535156 8.53125-8.535156 4.714844 0 8.535156 3.820312 8.535156 8.535156v17.066406c0 4.714844-3.820312 8.535156-8.535156 8.535156zm0 0"/><path d="m256 418.132812c-2.261719.003907-4.433594-.898437-6.03125-2.5l-59.734375-59.734374c-3.234375-3.347657-3.1875-8.667969.101563-11.960938 3.292968-3.292969 8.617187-3.335938 11.964843-.105469l53.699219 53.699219 53.699219-53.699219c3.347656-3.230469 8.671875-3.1875 11.964843.105469 3.289063 3.292969 3.335938 8.613281.101563 11.960938l-59.734375 59.734374c-1.597656 1.601563-3.765625 2.503907-6.03125 2.5zm0 0"/><path d="m255.992188 418.132812c-1.84375.003907-3.640626-.597656-5.113282-1.707031-30.277344-22.707031-85.84375-7.304687-86.410156-7.148437-2.222656.628906-4.605469.332031-6.605469-.824219s-3.445312-3.074219-4.007812-5.3125c-5.550781-24.847656 6.964843-50.199219 30.0625-60.90625 4.214843-2.105469 9.339843-.398437 11.449219 3.816406 2.105468 4.214844.398437 9.34375-3.816407 11.449219-13.191406 5.726562-21.785156 18.675781-21.929687 33.054688 19.355468-3.902344 62.777344-9.316407 91.5 12.21875 2.9375 2.203124 4.136718 6.042968 2.972656 9.527343-1.164062 3.488281-4.425781 5.835938-8.101562 5.832031zm0 0"/><path d="m255.0625 418.132812c-3.675781.003907-6.941406-2.34375-8.105469-5.832031-1.160156-3.484375.035157-7.324219 2.976563-9.527343 28.679687-21.503907 72.011718-16.128907 91.417968-12.234376-.203124-14.339843-8.738281-27.242187-21.851562-33.039062-2.726562-1.363281-4.519531-4.078125-4.703125-7.121094-.183594-3.042968 1.273437-5.953125 3.816406-7.632812 2.546875-1.679688 5.792969-1.875 8.519531-.511719 23.097657 10.703125 35.613282 36.058594 30.0625 60.902344-.5625 2.242187-2.011718 4.160156-4.011718 5.316406s-4.382813 1.453125-6.605469.820313c-.558594-.160157-56.117187-15.574219-86.40625 7.152343-1.472656 1.109375-3.265625 1.707031-5.109375 1.707031zm0 0"/><path d="m256 512c-4.710938 0-8.535156-3.820312-8.535156-8.535156v-93.863282c0-4.714843 3.824218-8.535156 8.535156-8.535156 4.714844 0 8.535156 3.820313 8.535156 8.535156v93.863282c0 4.714844-3.820312 8.535156-8.535156 8.535156zm0 0"/><path d="m298.667969 452.265625c0 4.714844-3.820313 8.535156-8.535157 8.535156-4.710937 0-8.53125-3.820312-8.53125-8.535156 0-4.710937 3.820313-8.53125 8.53125-8.53125 4.714844 0 8.535157 3.820313 8.535157 8.53125zm0 0"/><path d="m204.800781 443.734375h-113.921875c-4.710937 0-8.53125-3.820313-8.53125-8.535156 0-4.710938 3.820313-8.53125 8.53125-8.53125h113.921875c4.710938 0 8.53125 3.820312 8.53125 8.53125 0 4.714843-3.820312 8.535156-8.53125 8.535156zm0 0"/><path d="m196.265625 477.867188h-112.382813c-4.714843 0-8.535156-3.820313-8.535156-8.535157 0-4.710937 3.820313-8.53125 8.535156-8.53125h112.382813c4.714844 0 8.535156 3.820313 8.535156 8.53125 0 4.714844-3.820312 8.535157-8.535156 8.535157zm0 0"/><path d="m421.121094 443.734375h-105.386719c-4.714844 0-8.535156-3.820313-8.535156-8.535156 0-4.710938 3.820312-8.53125 8.535156-8.53125h105.386719c4.710937 0 8.53125 3.820312 8.53125 8.53125 0 4.714843-3.820313 8.535156-8.53125 8.535156zm0 0"/><path d="m428.203125 477.867188h-103.9375c-4.710937 0-8.53125-3.820313-8.53125-8.535157 0-4.710937 3.820313-8.53125 8.53125-8.53125h103.9375c4.710937 0 8.53125 3.820313 8.53125 8.53125 0 4.714844-3.820313 8.535157-8.53125 8.535157zm0 0"/></svg>