<svg height="512pt" viewBox="0 0 512 512.00336" width="512pt" xmlns="http://www.w3.org/2000/svg"><path d="m404.304688 503.46875h90.628906v-7.78125c.019531-11.1875-1.253906-22.34375-3.789063-33.238281l-7.660156-32.976563c-7.84375-33.558594-37.796875-57.269531-72.261719-57.203125h-310.441406c-34.460938-.066406-64.414062 23.644531-72.257812 57.203125l-7.664063 32.976563c-2.535156 10.894531-3.804687 22.046875-3.789063 33.238281v7.78125zm0 0" fill="#ffdc00"/><path d="m187.734375 298.671875h136.535156v59.730469h-136.535156zm0 0" fill="#fec108"/><path d="m412.332031 188.078125c44.886719 25.769531 91.136719-8.875 91.136719-8.875-34.132812-8.53125-34.132812-59.734375-34.132812-102.398437 0-28.5625-17.777344-54.101563-44.558594-64.019532-26.78125-9.917968-56.90625-2.113281-75.507813 19.558594h-186.535156c-18.601563-21.671875-48.726563-29.476562-75.507813-19.558594-26.78125 9.917969-44.558593 35.457032-44.558593 64.019532 0 42.664062 0 93.867187-34.132813 102.398437 0 0 46.25 34.644531 91.136719 8.875zm0 0" fill="#783e22"/><path d="m384.003906 221.871094c14.453125-.003906 26.484375-11.105469 27.640625-25.515625l2.492188-31.179688c3.230469-40.355469-10.550781-80.226562-38.011719-109.972656-27.464844-29.75-66.105469-46.667969-106.589844-46.667969h-27.066406c-40.484375 0-79.125 16.917969-106.585938 46.664063-27.460937 29.75-41.246093 69.617187-38.015624 109.972656l2.492187 31.179687c1.15625 14.410157 13.1875 25.515626 27.644531 25.519532" fill="#a0522d"/><path d="m424.621094 452.183594c-10.667969-.339844-33.964844-3.667969-49.152344-34.046875h-238.933594c-15.1875 30.378906-38.484375 33.707031-49.152344 34.046875l18.347657-88.660156c2.945312-8.820313 11.558593-14.46875 20.820312-13.652344h258.902344c9.28125-.816406 17.917969 4.824218 20.90625 13.652344zm0 0" fill="#e91e63"/><path d="m435.203125 503.46875h-358.402344l10.582031-51.285156c10.667969-.339844 33.964844-3.667969 49.152344-34.046875h238.933594c15.1875 30.378906 38.484375 33.707031 49.152344 34.046875zm0 0" fill="#0377bc"/><path d="m384.136719 179.582031v68.089844c0 32.988281-26.746094 59.730469-59.734375 59.730469h-136.53125c-32.992188 0-59.734375-26.742188-59.734375-59.730469v-44.203125c0-4.96875 8.53125-75.265625 59.734375-75.265625 39.855468 0 85.332031-8.53125 102.398437-51.199219 0 0 26.054688 52.109375 72.472657 70.964844 12.90625 5.199219 21.367187 17.703125 21.394531 31.613281zm0 0" fill="#fec108"/><path d="m358.402344 179.582031v68.089844c0 32.988281-21.367188 59.730469-47.726563 59.730469h-109.082031c-26.355469 0-47.722656-26.742188-47.722656-59.730469v-44.203125c0-4.96875 6.816406-75.265625 47.722656-75.265625 31.84375 0 68.183594-8.53125 81.8125-51.199219 0 0 20.816406 52.109375 57.902344 70.964844 11.085937 6.585938 17.652344 18.734375 17.09375 31.613281zm0 0" fill="#ffdc00"/><path d="m136.535156 349.871094h34.132813v68.265625h-34.132813zm0 0" fill="#0377bc"/><path d="m341.335938 349.871094h34.132812v68.265625h-34.132812zm0 0" fill="#0377bc"/><path d="m296.34375 256.003906c-6.894531 13.492188-28.417969 15.402344-40.171875 15.402344-11.78125 0-33.273437-1.910156-40.167969-15.402344 13.144532 3.238282 26.628906 4.929688 40.167969 5.035156 13.542969-.105468 27.023437-1.796874 40.171875-5.035156zm0 0"/><path d="m233.652344 162.894531c-8.109375-2.980469-16.628906-4.707031-25.257813-5.121093-11.605469-.875-23.214843 1.601562-33.453125 7.136718 1.167969-14.933594 35.789063-17.886718 52.714844-14.046875 2.683594.332031 5.019531 1.988281 6.222656 4.40625 1.207032 2.421875 1.121094 5.285157-.226562 7.625zm0 0"/><path d="m278.351562 162.894531c8.109376-2.980469 16.628907-4.707031 25.257813-5.121093 11.605469-.875 23.214844 1.601562 33.453125 7.136718-1.167969-14.933594-35.789062-17.886718-52.714844-14.046875-2.683594.332031-5.019531 1.988281-6.222656 4.40625-1.207031 2.421875-1.121094 5.285157.226562 7.625zm0 0"/><path d="m186.535156 176.96875s2.429688 10.902344 11.832032 8.777344c9.398437-2.125 11.191406 1.957031 19.292968 1.304687 2.769532-.191406 5.550782-.019531 8.28125.503907 1.933594.453124 3.945313.484374 5.894532.097656 2.699218-.722656 2.46875-3.855469 1.523437-5.894532-3.75-8.082031-14.292969-8.671874-22.011719-7.773437-3.273437.886719-6.597656 1.558594-9.960937 2.007813-3.519531-.976563-6.800781-2.664063-9.640625-4.957032.617187 2.191406.765625 4.488282.433594 6.738282-.976563 1.855468-5.644532-.804688-5.644532-.804688zm0 0"/><path d="m230.402344 193.550781c0-10.105469-7.640625-18.292969-17.066406-18.292969-9.425782 0-17.066407 8.1875-17.066407 18.292969 0 10.101563 7.640625 18.289063 17.066407 18.289063 9.425781 0 17.066406-8.1875 17.066406-18.289063zm0 0"/><path d="m218.121094 177.675781c-4.40625-1.675781-9.335938.539063-11.011719 4.945313-1.675781 4.402344.539063 9.332031 4.945313 11.007812 4.402343 1.675782 9.332031-.539062 11.007812-4.941406 1.675781-4.40625-.539062-9.335938-4.941406-11.011719zm0 0" fill="#fff"/><path d="m325.464844 176.96875s-2.429688 10.902344-11.832032 8.777344c-9.402343-2.125-11.191406 1.957031-19.292968 1.304687-2.769532-.191406-5.554688-.019531-8.28125.503907-1.9375.453124-3.945313.484374-5.898438.097656-2.699218-.722656-2.464844-3.855469-1.519531-5.894532 3.75-8.082031 14.292969-8.671874 22.011719-7.773437 3.269531.886719 6.597656 1.558594 9.957031 2.007813 3.519531-.976563 6.800781-2.664063 9.644531-4.957032-.617187 2.191406-.765625 4.488282-.433594 6.738282.976563 1.855468 5.644532-.804688 5.644532-.804688zm0 0"/><path d="m315.734375 193.550781c0-10.105469-7.644531-18.292969-17.066406-18.292969-9.425781 0-17.070313 8.1875-17.070313 18.292969 0 10.101563 7.644532 18.289063 17.070313 18.289063 9.421875 0 17.066406-8.1875 17.066406-18.289063zm0 0"/><path d="m304.898438 182.621094c-1.675782-4.402344-6.605469-6.617188-11.011719-4.941406-4.402344 1.675781-6.617188 6.605468-4.941407 11.011718 1.675782 4.402344 6.605469 6.617188 11.011719 4.941406 4.402344-1.675781 6.617188-6.605468 4.941407-11.011718zm0 0" fill="#fff"/><path d="m435.203125 512.003906h-358.402344c-2.566406 0-4.996093-1.15625-6.617187-3.144531-1.617188-1.988281-2.257813-4.601563-1.738282-7.113281l28.90625-139.921875c3.722657-12.84375 15.882813-21.367188 29.230469-20.488281h258.890625c13.363282-.878907 25.53125 7.667968 29.242188 20.535156l28.84375 139.875c.515625 2.511718-.121094 5.125-1.742188 7.113281s-4.050781 3.144531-6.613281 3.144531zm-347.925781-17.066406h337.453125l-26.742188-129.664062c-2.261719-4.742188-7.300781-7.507813-12.515625-6.871094h-258.890625c-5.199219-.632813-10.226562 2.109375-12.503906 6.828125zm0 0"/><path d="m324.269531 358.402344h-136.535156c-4.710937 0-8.53125-3.820313-8.53125-8.53125v-42.667969c0-4.710937 3.820313-8.53125 8.53125-8.53125h136.535156c4.710938 0 8.53125 3.820313 8.53125 8.53125v42.667969c0 4.710937-3.820312 8.53125-8.53125 8.53125zm-128-17.066406h119.464844v-25.597657h-119.464844zm0 0"/><path d="m324.269531 315.738281h-136.535156c-37.683594-.042969-68.222656-30.582031-68.265625-68.269531v-44.207031c0-13.019531 12.585938-83.792969 68.265625-83.792969 51.238281 0 82.144531-14.988281 94.476563-45.835938 1.25-3.117187 4.210937-5.210937 7.566406-5.351562 3.351562-.140625 6.480468 1.699219 7.988281 4.699219.246094.492187 25.265625 49.5 68.058594 66.878906 16.144531 6.476563 26.722656 22.128906 26.710937 39.523437v68.085938c-.042968 37.6875-30.582031 68.226562-68.265625 68.269531zm-33.667969-221.316406c-18.179687 27.960937-52.691406 42.113281-102.867187 42.113281-44.8125 0-51.183594 66.125-51.199219 66.796875v44.136719c.03125 28.265625 22.9375 51.171875 51.199219 51.203125h136.535156c28.261719-.03125 51.167969-22.9375 51.199219-51.203125v-68.085938c-.007812-10.445312-6.371094-19.835937-16.070312-23.710937-33.964844-13.792969-57.335938-43.609375-68.796876-61.25zm0 0"/><path d="m102.402344 512.003906h-93.867188c-4.710937 0-8.53124975-3.820312-8.53124975-8.535156v-7.59375c-.01171875-11.621094 1.39062475-23.199219 4.17187475-34.480469l7.9375-32.160156c10.019531-37.453125 44.359375-63.191406 83.121094-62.296875h8.019531c4.714844 0 8.535156 3.820312 8.535156 8.53125 0 4.714844-3.820312 8.535156-8.535156 8.535156h-8.019531c-30.898437-.875-58.390625 19.492188-66.550781 49.308594l-7.941406 32.183594c-2.375 9.636718-3.609376 19.515625-3.667969 29.441406h85.328125c4.710937 0 8.53125 3.820312 8.53125 8.53125 0 4.714844-3.820313 8.535156-8.53125 8.535156zm0 0"/><path d="m503.46875 512.003906h-93.867188c-4.710937 0-8.53125-3.820312-8.53125-8.535156 0-4.710938 3.820313-8.53125 8.53125-8.53125h85.332032c-.058594-9.921875-1.289063-19.800781-3.667969-29.433594l-7.9375-32.179687c-8.15625-29.820313-35.652344-50.195313-66.558594-49.320313h-7.9375c-4.710937 0-8.53125-3.820312-8.53125-8.535156 0-4.710938 3.820313-8.53125 8.53125-8.53125h7.9375c38.765625-.894531 73.109375 24.847656 83.125 62.308594l7.9375 32.15625c2.78125 11.28125 4.183594 22.855468 4.171875 34.472656v7.59375c0 4.714844-3.824218 8.535156-8.535156 8.535156zm0 0"/><path d="m384.003906 230.402344c-4.714844 0-8.535156-3.820313-8.535156-8.53125 0-4.714844 3.820312-8.535156 8.535156-8.535156 9.988282-.046876 18.289063-7.710938 19.136719-17.664063l2.496094-31.179687c3.039062-37.980469-9.933594-75.507813-35.78125-103.503907-25.847657-28-62.21875-43.921875-100.324219-43.917969h-27.058594c-38.105468-.003906-74.476562 15.917969-100.324218 43.914063-25.847657 28-38.820313 65.523437-35.78125 103.507813l2.496093 31.183593c.847657 9.953125 9.148438 17.613281 19.140625 17.660157 4.710938 0 8.53125 3.820312 8.53125 8.535156 0 4.710937-3.820312 8.53125-8.53125 8.53125-18.871094-.089844-34.550781-14.5625-36.148437-33.363282l-2.496094-31.1875c-3.417969-42.730468 11.175781-84.945312 40.253906-116.441406s69.992188-49.40624975 112.859375-49.40624975h27.058594c42.867188 0 83.78125 17.91015575 112.859375 49.40624975s43.671875 73.710938 40.253906 116.4375l-2.496093 31.183594c-1.59375 18.804688-17.277344 33.28125-36.144532 33.371094zm0 0"/><path d="m63.71875 206.234375c-21.648438-.671875-42.621094-7.699219-60.304688-20.203125-2.632812-1.976562-3.894531-5.289062-3.242187-8.515625.648437-3.226563 3.097656-5.789063 6.289063-6.589844 27.675781-6.917969 27.675781-55.273437 27.675781-94.121093-.003907-32.128907 19.992187-60.863282 50.121093-72.019532 30.128907-11.160156 64.019532-2.382812 84.945313 21.996094 3.023437 3.578125 2.59375 8.925781-.957031 11.980469-3.550782 3.054687-8.902344 2.671875-11.984375-.855469-16.273438-18.964844-42.632813-25.796875-66.070313-17.121094-23.4375 8.675782-38.992187 31.027344-38.988281 56.019532 0 37.988281 0 83.847656-24.765625 103.09375 21.40625 11.824218 47.316406 12.117187 68.984375.78125 4.085937-2.347657 9.304687-.9375 11.648437 3.148437 2.347657 4.085937.9375 9.304687-3.148437 11.648437-12.210937 7.085938-26.085937 10.796876-40.203125 10.757813zm0 0"/><path d="m448.285156 206.234375c-14.117187.042969-27.992187-3.667969-40.203125-10.753906-2.644531-1.519531-4.277343-4.332031-4.285156-7.378907-.003906-3.050781 1.613281-5.871093 4.25-7.402343 2.636719-1.527344 5.890625-1.535157 8.535156-.019531 26.226563 15.054687 53.425781 6.644531 68.910157-.835938-24.6875-19.285156-24.691407-65.09375-24.691407-103.039062.003907-24.992188-15.550781-47.34375-38.988281-56.019532-23.4375-8.675781-49.796875-1.84375-66.070312 17.121094-3.082032 3.527344-8.433594 3.910156-11.984376.855469-3.550781-3.054688-3.980468-8.402344-.957031-11.980469 20.925781-24.378906 54.816407-33.15625 84.945313-21.996094 30.128906 11.15625 50.125 39.890625 50.121094 72.019532 0 38.847656 0 87.203124 27.671874 94.121093 3.195313.800781 5.640626 3.363281 6.292969 6.589844.652344 3.226563-.609375 6.539063-3.242187 8.515625-17.6875 12.5-38.65625 19.527344-60.304688 20.203125zm0 0"/><path d="m424.621094 460.71875-.28125-.003906c-22.863282-.628906-43.5625-13.683594-53.980469-34.042969h-228.714844c-10.417969 20.363281-31.117187 33.421875-53.984375 34.046875-2.273437.117188-4.496094-.699219-6.15625-2.253906-1.664062-1.558594-2.617187-3.722656-2.648437-6-.074219-2.261719.757812-4.460938 2.304687-6.113282 1.546875-1.648437 3.6875-2.617187 5.949219-2.691406 18.492187-.699218 34.851563-12.183594 41.792969-29.335937 1.445312-2.894531 4.398437-4.722657 7.632812-4.722657h238.933594c3.230469 0 6.1875 1.828126 7.632812 4.71875 6.941407 17.152344 23.300782 28.636719 41.792969 29.335938 4.710938.074219 8.472657 3.957031 8.398438 8.667969-.074219 4.714843-3.957031 8.472656-8.667969 8.398437zm0 0"/><path d="m136.535156 426.671875c-4.710937 0-8.53125-3.824219-8.53125-8.535156v-68.265625c0-4.714844 3.820313-8.535156 8.53125-8.535156 4.714844 0 8.535156 3.820312 8.535156 8.535156v68.265625c0 4.710937-3.820312 8.535156-8.535156 8.535156zm0 0"/><path d="m170.667969 426.671875c-4.710938 0-8.53125-3.824219-8.53125-8.535156v-68.265625c0-4.714844 3.820312-8.535156 8.53125-8.535156 4.714843 0 8.535156 3.820312 8.535156 8.535156v68.265625c0 4.710937-3.820313 8.535156-8.535156 8.535156zm0 0"/><path d="m375.46875 426.671875c-4.714844 0-8.535156-3.824219-8.535156-8.535156v-68.265625c0-4.714844 3.820312-8.535156 8.535156-8.535156 4.710938 0 8.535156 3.820312 8.535156 8.535156v68.265625c0 4.710937-3.824218 8.535156-8.535156 8.535156zm0 0"/><path d="m341.335938 426.671875c-4.714844 0-8.535157-3.824219-8.535157-8.535156v-68.265625c0-4.714844 3.820313-8.535156 8.535157-8.535156 4.710937 0 8.53125 3.820312 8.53125 8.535156v68.265625c0 4.710937-3.820313 8.535156-8.53125 8.535156zm0 0"/><path d="m162.136719 477.871094c-4.714844 0-8.535157-3.820313-8.535157-8.535156v-17.066407c0-4.710937 3.820313-8.53125 8.535157-8.53125 4.710937 0 8.53125 3.820313 8.53125 8.53125v17.066407c0 4.714843-3.820313 8.535156-8.53125 8.535156zm0 0"/><path d="m170.667969 469.335938h-17.066407c-4.710937 0-8.53125-3.820313-8.53125-8.53125 0-4.714844 3.820313-8.535157 8.53125-8.535157h17.066407c4.714843 0 8.535156 3.820313 8.535156 8.535157 0 4.710937-3.820313 8.53125-8.535156 8.53125zm0 0"/><path d="m349.867188 477.871094c-4.710938 0-8.53125-3.820313-8.53125-8.535156v-17.066407c0-4.710937 3.820312-8.53125 8.53125-8.53125 4.714843 0 8.535156 3.820313 8.535156 8.53125v17.066407c0 4.714843-3.820313 8.535156-8.535156 8.535156zm0 0"/><path d="m358.402344 469.335938h-17.066406c-4.714844 0-8.535157-3.820313-8.535157-8.53125 0-4.714844 3.820313-8.535157 8.535157-8.535157h17.066406c4.710937 0 8.53125 3.820313 8.53125 8.535157 0 4.710937-3.820313 8.53125-8.53125 8.53125zm0 0"/></svg>