<svg height="512pt" viewBox="0 0 512.00011 512" width="512pt" xmlns="http://www.w3.org/2000/svg"><path d="m187.734375 290.132812h136.53125v76.800782h-136.53125zm0 0" fill="#c81e1e"/><path d="m238.933594 8.535156h34.132812c75.40625 0 136.535156 61.125 136.535156 136.53125v76.800782c0 22.632812-8.992187 44.335937-24.996093 60.339843-16.003907 16.003907-37.707031 24.992188-60.339844 24.992188h-136.53125c-47.128906 0-85.335937-38.203125-85.335937-85.332031v-76.800782c0-75.40625 61.128906-136.53125 136.535156-136.53125zm0 0" fill="#c81e1e"/><path d="m304 307.199219h-96c-44.183594 0-80-38.203125-80-85.332031v-76.800782c0-75.40625 57.308594-136.53125 128-136.53125s128 61.125 128 136.53125v76.800782c0 47.128906-35.816406 85.332031-80 85.332031zm0 0" fill="#f44335"/><path d="m187.734375 110.933594h136.53125c23.566406 0 42.667969 19.101562 42.667969 42.667968v68.265626c0 23.5625-19.101563 42.667968-42.667969 42.667968h-136.53125c-23.566406 0-42.667969-19.105468-42.667969-42.667968v-68.265626c0-23.566406 19.101563-42.667968 42.667969-42.667968zm0 0" fill="#fec108"/><path d="m213.332031 110.933594h85.335938c23.5625 0 42.664062 19.101562 42.664062 42.667968v68.265626c0 23.5625-19.101562 42.667968-42.664062 42.667968h-85.335938c-23.5625 0-42.664062-19.105468-42.664062-42.667968v-68.265626c0-23.566406 19.101562-42.667968 42.664062-42.667968zm0 0" fill="#ffdc00"/><path d="m409.601562 503.464844h93.867188l-.003906-7.59375c.015625-10.925782-1.300782-21.816406-3.921875-32.425782l-7.9375-32.171874c-9.203125-33.554688-40.046875-56.558594-74.835938-55.808594h-321.539062c-34.789063-.75-65.632813 22.253906-74.835938 55.808594l-7.9375 32.171874c-2.621093 10.609376-3.9375 21.5-3.921875 32.425782v7.59375zm0 0" fill="#c81e1e"/><path d="m435.199219 503.464844h-358.398438l28.910157-139.921875c2.957031-8.832031 11.585937-14.488281 20.871093-13.675781h258.890625c9.28125-.8125 17.914063 4.84375 20.871094 13.675781zm0 0" fill="#f44335"/><path d="m375.464844 443.734375c0 32.988281-26.742188 59.730469-59.730469 59.730469-32.992187 0-59.734375-26.742188-59.734375-59.730469 0-32.992187 26.742188-59.734375 59.734375-59.734375 32.988281 0 59.730469 26.742188 59.730469 59.734375zm0 0" fill="#02a9f4"/><path d="m296.339844 226.132812c-6.894532 13.492188-28.414063 15.402344-40.167969 15.402344-11.78125 0-33.277344-1.910156-40.171875-15.402344 13.148438 3.238282 26.628906 4.929688 40.171875 5.035157 13.539063-.105469 27.023437-1.792969 40.167969-5.035157zm0 0"/><path d="m233.648438 137.292969c-8.109376-2.984375-16.625-4.710938-25.257813-5.121094-11.601563-.875-23.214844 1.597656-33.449219 7.132813 1.167969-14.933594 35.789063-17.882813 52.710938-14.042969 2.683594.332031 5.019531 1.988281 6.226562 4.40625 1.207032 2.417969 1.121094 5.28125-.230468 7.625zm0 0"/><path d="m230.398438 163.679688c0-10.101563-7.640626-18.292969-17.066407-18.292969s-17.066406 8.191406-17.066406 18.292969c0 10.101562 7.640625 18.292968 17.066406 18.292968s17.066407-8.191406 17.066407-18.292968zm0 0"/><path d="m218.117188 147.808594c-4.40625-1.675782-9.332032.535156-11.007813 4.941406s.535156 9.332031 4.941406 11.007812c4.40625 1.675782 9.332031-.535156 11.007813-4.941406 1.675781-4.40625-.535156-9.332031-4.941406-11.007812zm0 0" fill="#fff"/><path d="m278.351562 137.292969c8.109376-2.984375 16.625-4.710938 25.257813-5.121094 11.601563-.875 23.214844 1.597656 33.449219 7.132813-1.167969-14.933594-35.789063-17.882813-52.710938-14.042969-2.683594.332031-5.019531 1.988281-6.226562 4.40625-1.207032 2.417969-1.117188 5.28125.230468 7.625zm0 0"/><path d="m315.734375 163.679688c0-10.101563-7.640625-18.292969-17.066406-18.292969s-17.066407 8.191406-17.066407 18.292969c0 10.101562 7.640626 18.292968 17.066407 18.292968s17.066406-8.191406 17.066406-18.292968zm0 0"/><path d="m304.890625 152.75c-1.675781-4.40625-6.605469-6.617188-11.007813-4.941406-4.40625 1.675781-6.617187 6.601562-4.941406 11.007812 1.671875 4.40625 6.601563 6.617188 11.007813 4.941406 4.40625-1.675781 6.617187-6.601562 4.941406-11.007812zm0 0" fill="#fff"/><path d="m435.199219 512h-358.398438c-2.566406 0-4.996093-1.152344-6.617187-3.144531-1.621094-1.988281-2.261719-4.601563-1.742188-7.113281l28.910156-139.921876c3.722657-12.84375 15.882813-21.367187 29.226563-20.488281h258.894531c13.363282-.882812 25.535156 7.667969 29.234375 20.542969l28.855469 139.867188c.519531 2.511718-.121094 5.128906-1.742188 7.117187-1.621093 1.988281-4.054687 3.140625-6.621093 3.140625zm-347.925781-17.066406h337.453124l-26.742187-129.664063c-2.257813-4.742187-7.296875-7.511719-12.511719-6.871093h-258.894531c-5.199219-.632813-10.226563 2.113281-12.503906 6.828124zm0 0"/><path d="m324.265625 358.398438h-136.53125c-4.714844 0-8.535156-3.820313-8.535156-8.53125v-42.667969c0-4.710938 3.820312-8.53125 8.535156-8.53125h136.53125c4.714844 0 8.535156 3.820312 8.535156 8.53125v42.667969c0 4.710937-3.820312 8.53125-8.535156 8.53125zm-128-17.066407h119.46875v-25.597656h-119.46875zm0 0"/><path d="m102.398438 512h-93.863282c-4.714844 0-8.535156-3.820312-8.535156-8.535156v-7.59375c-.0117188-11.617188 1.390625-23.199219 4.175781-34.480469l7.9375-32.160156c10.019531-37.453125 44.359375-63.191407 83.117188-62.296875h8.023437c4.710938 0 8.53125 3.820312 8.53125 8.53125 0 4.714844-3.820312 8.535156-8.53125 8.535156h-8.023437c-30.898438-.875-58.386719 19.496094-66.550781 49.308594l-7.9375 32.183594c-2.378907 9.636718-3.609376 19.519531-3.667969 29.441406h85.324219c4.714843 0 8.535156 3.820312 8.535156 8.53125 0 4.714844-3.820313 8.535156-8.535156 8.535156zm0 0"/><path d="m503.464844 512h-93.863282c-4.714843 0-8.535156-3.820312-8.535156-8.535156 0-4.710938 3.820313-8.53125 8.535156-8.53125h85.332032c-.066406-9.921875-1.296875-19.804688-3.675782-29.441406l-7.9375-32.179688c-8.164062-29.8125-35.652343-50.183594-66.550781-49.3125h-7.9375c-4.710937 0-8.535156-3.820312-8.535156-8.535156 0-4.710938 3.824219-8.53125 8.535156-8.53125h7.9375c38.761719-.890625 73.105469 24.851562 83.125 62.308594l7.933594 32.160156c2.78125 11.28125 4.179687 22.855468 4.171875 34.46875v7.59375c0 4.714844-3.820312 8.535156-8.535156 8.535156zm0 0"/><path d="m324.265625 315.734375h-136.53125c-51.816406-.058594-93.808594-42.050781-93.867187-93.867187v-76.800782c.089843-80.082031 64.984374-144.9765622 145.066406-145.066406h34.132812c80.082032.0898438 144.976563 64.984375 145.066406 145.066406v76.800782c-.058593 51.816406-42.050781 93.808593-93.867187 93.867187zm-85.332031-298.667969c-70.660156.082032-127.921875 57.339844-128 128v76.800782c.046875 42.394531 34.402344 76.753906 76.800781 76.800781h136.53125c42.398437-.046875 76.753906-34.40625 76.800781-76.800781v-76.800782c-.078125-70.660156-57.339844-127.917968-128-128zm0 0"/><path d="m324.265625 273.066406h-136.53125c-28.265625-.03125-51.171875-22.9375-51.199219-51.199218v-68.265626c.027344-28.265624 22.933594-51.171874 51.199219-51.203124h136.53125c28.265625.03125 51.171875 22.9375 51.199219 51.203124v68.265626c-.027344 28.261718-22.933594 51.167968-51.199219 51.199218zm-136.53125-153.601562c-18.84375.023437-34.113281 15.292968-34.132813 34.136718v68.265626c.019532 18.84375 15.289063 34.113281 34.132813 34.132812h136.53125c18.84375-.019531 34.113281-15.289062 34.132813-34.132812v-68.265626c-.019532-18.84375-15.289063-34.113281-34.132813-34.136718zm0 0"/><path d="m315.734375 512c-37.703125 0-68.269531-30.5625-68.269531-68.265625s30.566406-68.269531 68.269531-68.269531 68.265625 30.566406 68.265625 68.269531c-.042969 37.683594-30.582031 68.222656-68.265625 68.265625zm0-119.464844c-28.277344 0-51.199219 22.921875-51.199219 51.199219s22.921875 51.199219 51.199219 51.199219 51.199219-22.921875 51.199219-51.199219c-.03125-28.265625-22.9375-51.171875-51.199219-51.199219zm0 0"/><path d="m307.199219 426.667969c0 4.710937-3.820313 8.53125-8.53125 8.53125-4.714844 0-8.535157-3.820313-8.535157-8.53125 0-4.714844 3.820313-8.535157 8.535157-8.535157 4.710937 0 8.53125 3.820313 8.53125 8.535157zm0 0"/><path d="m315.734375 469.332031c0 4.714844-3.820313 8.535157-8.535156 8.535157-4.710938 0-8.53125-3.820313-8.53125-8.535157 0-4.710937 3.820312-8.53125 8.53125-8.53125 4.714843 0 8.535156 3.820313 8.535156 8.53125zm0 0"/><path d="m349.867188 443.734375c0 4.710937-3.820313 8.53125-8.535157 8.53125-4.710937 0-8.53125-3.820313-8.53125-8.53125 0-4.714844 3.820313-8.535156 8.53125-8.535156 4.714844 0 8.535157 3.820312 8.535157 8.535156zm0 0"/></svg>