<svg height="512pt" viewBox="0 0 512.00007 512" width="512pt" xmlns="http://www.w3.org/2000/svg"><path d="m187.734375 290.132812h136.53125v76.800782h-136.53125zm0 0" fill="#fec108"/><path d="m409.601562 503.464844h93.867188l-.003906-7.59375c.015625-10.925782-1.300782-21.816406-3.921875-32.425782l-7.9375-32.171874c-9.203125-33.554688-40.046875-56.558594-74.835938-55.808594h-321.539062c-34.789063-.75-65.632813 22.253906-74.835938 55.808594l-7.9375 32.171874c-2.621093 10.609376-3.9375 21.5-3.921875 32.425782v7.59375zm0 0" fill="#283593"/><path d="m384 136.535156v110.929688c0 32.992187-26.742188 59.734375-59.734375 59.734375h-136.53125c-32.992187 0-59.734375-26.742188-59.734375-59.734375v-110.929688zm0 0" fill="#fec108"/><path d="m358.398438 136.535156v110.929688c0 32.992187-21.394532 59.734375-47.785157 59.734375h-109.226562c-26.390625 0-47.785157-26.742188-47.785157-59.734375v-110.929688zm0 0" fill="#ffdc00"/><path d="m299.734375 246.933594c-4.707031 14.523437-26.84375 21.65625-38.832031 23.757812-12.015625 2.101563-34.261719 4.058594-43.617188-8 13.980469.839844 28.011719.097656 41.828125-2.214844 14-3.003906 27.621094-7.546874 40.621094-13.542968zm0 0"/><path d="m232.042969 181.035156c-7.402344-4.460937-15.445313-7.765625-23.84375-9.796875-11.230469-3.054687-23.101563-2.8125-34.199219.6875 3.964844-14.441406 38.523438-10.804687 54.417969-3.839843 2.570312.832031 4.554687 2.898437 5.285156 5.503906.726563 2.601562.105469 5.398437-1.660156 7.445312zm0 0"/><path d="m230.398438 197.8125c0-10.101562-7.640626-18.292969-17.066407-18.292969s-17.066406 8.191407-17.066406 18.292969 7.640625 18.292969 17.066406 18.292969 17.066407-8.191407 17.066407-18.292969zm0 0"/><path d="m218.117188 181.941406c-4.40625-1.675781-9.332032.535156-11.007813 4.941406s.535156 9.335938 4.941406 11.007813c4.40625 1.675781 9.332031-.535156 11.007813-4.941406 1.675781-4.402344-.535156-9.332031-4.941406-11.007813zm0 0" fill="#fff"/><path d="m279.046875 182.824219c6.050781-7.96875 14.457031-13.828125 24.027344-16.742188 12.871093-3.433593 26.5625.914063 35.09375 11.140625-.132813-.128906.132812-2.847656.085937-3.273437-.140625-1.105469-.4375-2.183594-.886718-3.203125-1.003907-2.179688-2.480469-4.109375-4.320313-5.648438-4.582031-3.71875-10.035156-6.214844-15.84375-7.246094-7.722656-1.746093-15.773437-1.347656-23.28125 1.15625-4.523437 1.558594-8.683594 4.011719-12.238281 7.210938-3.136719 2.871094-7.777344 8.152344-5.761719 12.960938.933594 1.304687 1.976563 2.523437 3.125 3.644531zm0 0"/><path d="m315.734375 197.8125c0-10.101562-7.640625-18.292969-17.066406-18.292969s-17.066407 8.191407-17.066407 18.292969 7.640626 18.292969 17.066407 18.292969 17.066406-8.191407 17.066406-18.292969zm0 0"/><path d="m304.890625 186.882812c-1.675781-4.40625-6.605469-6.617187-11.007813-4.941406-4.40625 1.675782-6.617187 6.605469-4.941406 11.007813 1.671875 4.40625 6.601563 6.617187 11.007813 4.941406 4.40625-1.671875 6.617187-6.601563 4.941406-11.007813zm0 0" fill="#fff"/><path d="m332.800781 349.867188s-5.460937 18.089843-11.265625 44.289062c-17.628906 9.246094-37.105468 14.433594-57 15.1875-2.734375.171875-5.632812.257812-8.535156.257812s-5.800781-.085937-8.535156-.257812c-19.894532-.753906-39.367188-5.941406-57-15.1875-5.804688-26.199219-11.265625-44.289062-11.265625-44.289062zm0 0" fill="#f5f5f5"/><path d="m321.535156 394.15625c-8.5625 35.839844-13.367187 72.472656-14.335937 109.308594h-102.398438c-.96875-36.835938-5.773437-73.46875-14.335937-109.308594 20.21875 10.523438 42.746094 15.832031 65.535156 15.445312 22.789062.386719 45.316406-4.921874 65.535156-15.445312zm0 0" fill="#ef314c"/><path d="m179.199219 349.867188s25.601562 85.332031 25.601562 153.597656h-128l28.925781-139.945313c2.945313-8.820312 11.558594-14.46875 20.824219-13.652343zm0 0" fill="#3f51b5"/><path d="m435.199219 503.464844h-128c0-68.265625 25.601562-153.597656 25.601562-153.597656h52.648438c9.285156-.816407 17.921875 4.824218 20.90625 13.652343zm0 0" fill="#3f51b5"/><path d="m256 8.535156c68.265625 0 110.933594 34.132813 128 85.332032 9.839844 28.503906 33.121094 50.308593 62.207031 58.265624 3.613281 1.070313 6.082031 4.398438 6.058594 8.164063v10.253906c.011719 2.296875-.902344 4.496094-2.539063 6.105469-1.636718 1.605469-3.855468 2.484375-6.148437 2.429688-34.71875-.734376-69.148437-6.441407-102.246094-16.953126-27.457031-9.824218-56.207031-15.574218-85.332031-17.066406-29.125 1.492188-57.875 7.242188-85.332031 17.066406-33.097657 10.511719-67.527344 16.222657-102.246094 16.957032-2.292969.054687-4.511719-.824219-6.148437-2.429688-1.636719-1.609375-2.550782-3.808594-2.539063-6.105468v-10.257813c-.023437-3.765625 2.445313-7.09375 6.058594-8.164063 29.085937-7.957031 52.367187-29.761718 62.207031-58.265624 17.066406-51.199219 59.734375-85.332032 128-85.332032zm0 0" fill="#283593"/><path d="m204.800781 503.464844h-25.601562c-10.28125-19.996094-24.847657-37.480469-42.664063-51.199219 0 0 25.597656-8.53125 34.132813-17.066406 0 0-34.132813-17.066407-42.667969-17.066407 0 0 8.535156-42.667968 34.132812-68.265624h17.066407s25.601562 85.332031 25.601562 153.597656zm0 0" fill="#0377bc"/><path d="m341.332031 435.199219c8.535157 8.535156 34.132813 17.066406 34.132813 17.066406-17.816406 13.71875-32.382813 31.203125-42.664063 51.199219h-25.601562c0-68.265625 25.601562-153.597656 25.601562-153.597656h17.066407c25.597656 25.597656 34.132812 68.265624 34.132812 68.265624-8.535156 0-42.667969 17.066407-42.667969 17.066407zm0 0" fill="#0377bc"/><path d="m285.867188 72.535156c0 16.492188-13.371094 29.863282-29.867188 29.863282s-29.867188-13.371094-29.867188-29.863282c0-16.496094 13.371094-29.867187 29.867188-29.867187s29.867188 13.371093 29.867188 29.867187zm0 0" fill="#fff"/><path d="m435.199219 512h-358.398438c-2.566406 0-4.996093-1.152344-6.617187-3.144531-1.621094-1.988281-2.261719-4.601563-1.742188-7.113281l28.910156-139.921876c3.722657-12.84375 15.886719-21.367187 29.230469-20.488281h258.894531c13.363282-.882812 25.535157 7.671875 29.230469 20.542969l28.855469 139.867188c.519531 2.511718-.121094 5.128906-1.742188 7.117187-1.621093 1.988281-4.054687 3.140625-6.621093 3.140625zm-347.925781-17.066406h337.453124l-26.742187-129.664063c-2.257813-4.742187-7.296875-7.511719-12.507813-6.871093h-258.894531c-5.199219-.632813-10.226562 2.109374-12.507812 6.828124zm0 0"/><path d="m324.265625 358.398438h-136.53125c-4.714844 0-8.535156-3.820313-8.535156-8.53125v-42.667969c0-4.710938 3.820312-8.53125 8.535156-8.53125h136.53125c4.714844 0 8.535156 3.820312 8.535156 8.53125v42.667969c0 4.710937-3.820312 8.53125-8.535156 8.53125zm-128-17.066407h119.46875v-25.597656h-119.46875zm0 0"/><path d="m324.265625 315.734375h-136.53125c-37.6875-.042969-68.222656-30.582031-68.269531-68.269531v-74.496094c0-4.710938 3.824218-8.53125 8.535156-8.53125s8.535156 3.820312 8.535156 8.53125v74.496094c.027344 28.265625 22.933594 51.171875 51.199219 51.203125h136.53125c28.265625-.03125 51.171875-22.9375 51.199219-51.203125v-74.496094c0-4.710938 3.824218-8.53125 8.535156-8.53125s8.535156 3.820312 8.535156 8.53125v74.496094c-.046875 37.6875-30.582031 68.226562-68.269531 68.269531zm0 0"/><path d="m102.398438 512h-93.863282c-4.714844 0-8.535156-3.820312-8.535156-8.535156v-7.59375c-.0078125-11.617188 1.394531-23.191406 4.175781-34.472656l7.9375-32.164063c10.019531-37.449219 44.359375-63.1875 83.117188-62.300781h8.023437c4.710938 0 8.53125 3.820312 8.53125 8.53125 0 4.714844-3.820312 8.535156-8.53125 8.535156h-8.023437c-30.898438-.871094-58.390625 19.496094-66.558594 49.308594l-7.9375 32.179687c-2.371094 9.636719-3.605469 19.519531-3.667969 29.445313h85.332032c4.714843 0 8.535156 3.820312 8.535156 8.53125 0 4.714844-3.820313 8.535156-8.535156 8.535156zm0 0"/><path d="m503.464844 512h-93.863282c-4.714843 0-8.535156-3.820312-8.535156-8.535156 0-4.710938 3.820313-8.53125 8.535156-8.53125h85.332032c-.066406-9.921875-1.300782-19.804688-3.675782-29.441406l-7.9375-32.179688c-8.164062-29.8125-35.652343-50.183594-66.550781-49.3125h-7.9375c-4.710937 0-8.535156-3.820312-8.535156-8.535156 0-4.710938 3.824219-8.53125 8.535156-8.53125h7.9375c38.761719-.890625 73.105469 24.851562 83.125 62.308594l7.933594 32.160156c2.78125 11.28125 4.179687 22.855468 4.171875 34.46875v7.59375c0 4.714844-3.820312 8.535156-8.535156 8.535156zm0 0"/><path d="m452.265625 187.734375c-38.554687.070313-76.886719-5.832031-113.632813-17.503906-26.597656-9.503907-54.429687-15.105469-82.632812-16.628907-28.199219 1.554688-56.027344 7.15625-82.632812 16.628907-36.746094 11.671875-75.078126 17.574219-113.632813 17.503906-4.714844 0-8.535156-3.820313-8.535156-8.535156v-25.597657c0-4.171874 3.019531-7.734374 7.132812-8.417968 28.59375-5.933594 51.96875-26.441406 61.578125-54.015625 19.589844-58.789063 67.921875-91.167969 136.089844-91.167969s116.5 32.378906 136.089844 91.167969c9.609375 27.582031 33 48.09375 61.601562 54.019531 4.097656.707031 7.09375 4.253906 7.109375 8.414062v25.597657c0 4.714843-3.820312 8.535156-8.535156 8.535156zm-196.265625-51.199219c30.046875 1.460938 59.710938 7.359375 88.035156 17.503906 32.261719 10.28125 65.84375 15.847657 99.699219 16.523438v-10.238281c-31.792969-8.671875-57.207031-32.5625-67.824219-63.757813-17.09375-51.265625-59.675781-79.5-119.910156-79.5s-102.816406 28.234375-119.910156 79.5c-10.617188 31.195313-36.03125 55.082032-67.824219 63.753906v10.242188c33.855469-.679688 67.4375-6.242188 99.699219-16.527344 28.324218-10.140625 57.988281-16.039062 88.035156-17.5zm0 0"/><path d="m162.132812 309.929688c-4.710937 0-8.53125-3.820313-8.53125-8.53125v-62.464844c0-4.714844 3.820313-8.535156 8.53125-8.535156 4.714844 0 8.535157 3.820312 8.535157 8.535156v62.464844c0 4.710937-3.820313 8.53125-8.535157 8.53125zm0 0"/><path d="m196.265625 315.734375c-4.710937 0-8.53125-3.820313-8.53125-8.535156v-25.597657c0-4.714843 3.820313-8.535156 8.53125-8.535156 4.714844 0 8.535156 3.820313 8.535156 8.535156v25.597657c0 4.714843-3.820312 8.535156-8.535156 8.535156zm0 0"/><path d="m230.398438 315.734375c-4.710938 0-8.53125-3.820313-8.53125-8.535156v-17.066407c0-4.710937 3.820312-8.53125 8.53125-8.53125 4.714843 0 8.535156 3.820313 8.535156 8.53125v17.066407c0 4.714843-3.820313 8.535156-8.535156 8.535156zm0 0"/><path d="m349.867188 309.929688c-4.714844 0-8.535157-3.820313-8.535157-8.53125v-62.464844c0-4.714844 3.820313-8.535156 8.535157-8.535156 4.710937 0 8.53125 3.820312 8.53125 8.535156v62.464844c0 4.710937-3.820313 8.53125-8.53125 8.53125zm0 0"/><path d="m315.734375 315.734375c-4.714844 0-8.535156-3.820313-8.535156-8.535156v-25.597657c0-4.714843 3.820312-8.535156 8.535156-8.535156 4.710937 0 8.53125 3.820313 8.53125 8.535156v25.597657c0 4.714843-3.820313 8.535156-8.53125 8.535156zm0 0"/><path d="m281.601562 315.734375c-4.714843 0-8.535156-3.820313-8.535156-8.535156v-17.066407c0-4.710937 3.820313-8.53125 8.535156-8.53125 4.710938 0 8.53125 3.820313 8.53125 8.53125v17.066407c0 4.714843-3.820312 8.535156-8.53125 8.535156zm0 0"/><path d="m204.800781 512c-4.714843 0-8.535156-3.820312-8.535156-8.535156 0-66.183594-24.992187-150.308594-25.242187-151.148438-.875-2.921875-.125-6.085937 1.96875-8.304687 2.089843-2.21875 5.207031-3.152344 8.171874-2.449219 2.96875.703125 5.335938 2.933594 6.210938 5.855469 1.058594 3.53125 25.957031 87.320312 25.957031 156.046875 0 4.714844-3.820312 8.535156-8.53125 8.535156zm0 0"/><path d="m179.207031 512c-3.230469 0-6.1875-1.820312-7.640625-4.710938-9.625-18.667968-23.195312-35.019531-39.765625-47.921874-2.710937-1.808594-4.15625-5.003907-3.722656-8.234376.429687-3.230468 2.664063-5.929687 5.757813-6.960937 6.597656-2.230469 13.050781-4.859375 19.332031-7.867187-8.050781-4.082032-16.503907-7.3125-25.226563-9.636719-2.53125-.132813-4.886718-1.332031-6.484375-3.296875-1.574219-1.933594-2.238281-4.453125-1.824219-6.910156.367188-1.847657 9.347657-45.515626 36.464844-72.625 3.347656-3.234376 8.671875-3.1875 11.964844.101562 3.289062 3.292969 3.335938 8.613281.101562 11.964844-14.226562 16.019531-24.4375 35.195312-29.789062 55.945312 12.351562 4.472656 24.414062 9.726563 36.105469 15.71875 2.453125 1.226563 4.167969 3.558594 4.609375 6.265625.4375 2.707031-.449219 5.460938-2.390625 7.402344-6.914063 5.816406-14.757813 10.4375-23.199219 13.667969 13.425781 13.042968 24.679688 28.152344 33.332031 44.75 1.316407 2.644531 1.175781 5.78125-.378906 8.292968-1.550781 2.511719-4.289063 4.046876-7.246094 4.054688zm0 0"/><path d="m307.199219 512c-4.710938 0-8.53125-3.820312-8.53125-8.535156 0-68.726563 24.898437-152.515625 25.957031-156.046875 1.351562-4.515625 6.109375-7.078125 10.625-5.726563 4.515625 1.351563 7.078125 6.109375 5.726562 10.625-.25.839844-25.242187 84.964844-25.242187 151.148438 0 4.714844-3.820313 8.535156-8.535156 8.535156zm0 0"/><path d="m332.792969 512c-2.957031-.003906-5.703125-1.535156-7.253907-4.050781-1.554687-2.515625-1.695312-5.65625-.371093-8.300781 8.65625-16.59375 19.90625-31.703126 33.332031-44.75-8.441406-3.226563-16.28125-7.847657-23.199219-13.664063-1.941406-1.941406-2.828125-4.695313-2.390625-7.402344.441406-2.707031 2.15625-5.039062 4.609375-6.265625 11.6875-5.992187 23.746094-11.242187 36.09375-15.714844-5.363281-20.742187-15.570312-39.917968-29.78125-55.953124-3.230469-3.347657-3.1875-8.667969.105469-11.960938s8.613281-3.335938 11.960938-.105469c27.117187 27.113281 36.097656 70.78125 36.46875 72.625.5 2.507813-.148438 5.109375-1.769532 7.085938-1.617187 1.976562-4.039062 3.125-6.597656 3.125-8.699219 2.335937-17.136719 5.5625-25.171875 9.636719 6.28125 3.007812 12.742187 5.636718 19.339844 7.867187 3.09375 1.03125 5.328125 3.730469 5.757812 6.960937.433594 3.230469-1.011719 6.425782-3.722656 8.234376-16.585937 12.886718-30.15625 29.242187-39.765625 47.917968-1.449219 2.894532-4.410156 4.71875-7.644531 4.714844zm0 0"/><path d="m256 418.132812c-24.261719.433594-48.238281-5.253906-69.71875-16.542968-2.710938-1.460938-4.425781-4.277344-4.476562-7.359375-.054688-3.085938 1.558593-5.957031 4.222656-7.515625 2.660156-1.554688 5.957031-1.554688 8.617187.003906 18.945313 9.796875 40.03125 14.726562 61.355469 14.347656 21.324219.378906 42.410156-4.550781 61.355469-14.347656 2.660156-1.558594 5.957031-1.558594 8.617187-.003906 2.664063 1.558594 4.277344 4.429687 4.222656 7.515625-.050781 3.082031-1.765624 5.898437-4.476562 7.359375-21.480469 11.289062-45.457031 16.976562-69.71875 16.542968zm0 0"/><path d="m256 418.132812c-4.710938 0-8.535156-3.820312-8.535156-8.53125v-25.601562c0-4.710938 3.824218-8.535156 8.535156-8.535156s8.535156 3.824218 8.535156 8.535156v25.601562c0 4.710938-3.824218 8.53125-8.535156 8.53125zm0 0"/><path d="m256 110.933594c-21.207031 0-38.398438-17.191406-38.398438-38.398438 0-21.210937 17.191407-38.402344 38.398438-38.402344s38.398438 17.191407 38.398438 38.402344c-.023438 21.195313-17.199219 38.375-38.398438 38.398438zm0-59.734375c-11.78125 0-21.332031 9.550781-21.332031 21.335937 0 11.78125 9.550781 21.332032 21.332031 21.332032s21.332031-9.550782 21.332031-21.332032c-.011719-11.777344-9.554687-21.324218-21.332031-21.335937zm0 0"/><path d="m213.332031 128.003906c-4.09375.007813-7.617187-2.898437-8.390625-6.921875-.773437-4.023437 1.417969-8.027343 5.226563-9.539062l85.332031-34.132813c2.832031-1.132812 6.050781-.667968 8.445312 1.21875 2.398438 1.886719 3.605469 4.90625 3.167969 7.925782-.4375 3.015624-2.449219 5.570312-5.28125 6.703124l-85.332031 34.132813c-1.007812.40625-2.082031.613281-3.167969.613281zm0 0"/><path d="m298.667969 128.003906c-1.085938 0-2.160157-.207031-3.167969-.613281l-85.332031-34.132813c-2.832031-1.132812-4.84375-3.6875-5.28125-6.703124-.4375-3.019532.769531-6.039063 3.167969-7.925782 2.394531-1.886718 5.613281-2.351562 8.445312-1.21875l85.332031 34.132813c3.808594 1.511719 6 5.515625 5.226563 9.539062-.773438 4.023438-4.296875 6.929688-8.390625 6.921875zm0 0"/></svg>