<svg height="504pt" viewBox="0 0 504.4459 504" width="504pt" xmlns="http://www.w3.org/2000/svg"><path d="m403.722656 495.4375h92.328125v-7.472656c0-30.992188-11.710937-65.398438-36.683593-85.058594-13.894532-10.792969-31-16.628906-48.59375-16.585938h-317.101563c-17.59375-.042968-34.699219 5.792969-48.59375 16.585938-24.972656 19.660156-36.683594 54.066406-36.683594 85.058594v7.472656zm0 0" fill="#3f51b5"/><path d="m411.277344 193.273438c-7.664063 12.28125-19.636719 21.257812-33.574219 25.179687h-251.800781c-13.9375-3.921875-25.910156-12.898437-33.574219-25.179687 0 0 62.027344-41.96875 159.476563-41.96875 97.445312 0 159.472656 41.96875 159.472656 41.96875zm0 0" fill="#283593"/><path d="m428.066406 495.4375h-352.527344l28.457032-120.867188c2.894531-8.675781 11.367187-14.230468 20.480468-13.429687h254.65625c9.128907-.800781 17.625 4.746094 20.5625 13.429687zm0 0" fill="#283593"/><path d="m184.65625 319.171875h134.292969v41.96875h-134.292969zm0 0" fill="#fec108"/><path d="m377.703125 151.304688v109.113281c.011719 15.585937-6.171875 30.539062-17.195313 41.558593-11.019531 11.023438-25.972656 17.207032-41.558593 17.195313h-134.292969c-15.585938.011719-30.539062-6.171875-41.558594-17.195313-11.019531-11.019531-17.207031-25.972656-17.195312-41.558593v-109.113281zm0 0" fill="#fec108"/><path d="m352.523438 151.304688v109.113281c0 32.484375-21.015626 58.753906-47.003907 58.753906h-107.433593c-25.988282 0-47.003907-26.269531-47.003907-58.753906v-109.113281zm0 0" fill="#ffdc00"/><path d="m251.804688 252.027344c0-9.273438-7.515626-16.789063-16.789063-16.789063h-33.574219c-9.269531 0-16.785156 7.515625-16.785156 16.789063v33.574218l4.382812-2.191406c8.15625-4.078125 17.152344-6.203125 26.273438-6.203125h36.492188" fill="#783e22"/><path d="m251.804688 277.207031h36.488281c9.121093 0 18.117187 2.125 26.277343 6.203125l4.378907 2.191406v-33.574218c0-9.273438-7.515625-16.789063-16.785157-16.789063h-33.574218c-9.269532 0-16.785156 7.515625-16.785156 16.789063zm0 0" fill="#783e22"/><path d="m268.589844 453.46875c0 4.636719-3.757813 8.394531-8.394532 8.394531-4.632812 0-8.390624-3.757812-8.390624-8.394531s3.757812-8.394531 8.390624-8.394531c4.636719 0 8.394532 3.757812 8.394532 8.394531zm0 0" fill="#bdc3c7"/><path d="m369.3125 495.4375c5.460938-13.324219 8.308594-27.570312 8.390625-41.96875-13.4375 1.058594-26.355469-5.402344-33.570313-16.785156-7.21875 11.382812-20.136718 17.84375-33.574218 16.785156.082031 14.398438 2.929687 28.644531 8.390625 41.96875zm0 0" fill="#ffdc00"/><path d="m377.703125 134.519531v13.597657c-23.75-19.894532-62.863281-38.78125-125.898437-38.78125-63.035157 0-102.148438 18.886718-125.902344 38.78125v-13.597657c.003906-6.40625.480468-12.804687 1.425781-19.136719 0-.085937.085937-.167968.085937-.253906 9.550782-61.304687 62.34375-106.507812 124.390626-106.507812 62.042968 0 114.835937 45.203125 124.390624 106.507812 0 .085938.082032.167969.082032.253906.945312 6.332032 1.421875 12.730469 1.425781 19.136719zm0 0" fill="#283593"/><path d="m344.132812 134.519531v13.597657c-17.421874-19.894532-46.105468-38.78125-92.328124-38.78125-46.226563 0-74.910157 18.886718-92.328126 38.78125v-13.597657c0-6.394531.351563-12.78125 1.042969-19.136719 0-.085937.0625-.167968.0625-.253906 2.492188-25.050781 11.445313-49.027344 25.976563-69.582031 14.5-22.132813 38.804687-35.886719 65.246094-36.929687 46.101562 0 84.386718 46.164062 91.21875 106.511718 0 .085938.0625.167969.0625.253906.695312 6.355469 1.042968 12.742188 1.046874 19.136719zm0 0" fill="#3f51b5"/><path d="m268.589844 58.976562c0 9.273438-7.515625 16.789063-16.785156 16.789063-9.273438 0-16.789063-7.515625-16.789063-16.789063 0-9.269531 7.515625-16.785156 16.789063-16.785156 9.269531 0 16.785156 7.515625 16.785156 16.785156zm0 0" fill="#bdc3c7"/><path d="m229.820312 173.035156c-7.976562-2.933594-16.355468-4.632812-24.847656-5.035156-11.410156-.863281-22.832031 1.570312-32.898437 7.015625 1.144531-14.6875 35.199219-17.59375 51.847656-13.816406 2.636719.328125 4.9375 1.957031 6.121094 4.335937 1.1875 2.378906 1.101562 5.195313-.222657 7.5zm0 0"/><path d="m226.621094 198.988281c0-9.933593-7.515625-17.992187-16.785156-17.992187-9.269532 0-16.785157 8.058594-16.785157 17.992187 0 9.9375 7.515625 17.992188 16.785157 17.992188 9.269531 0 16.785156-8.054688 16.785156-17.992188zm0 0"/><path d="m214.542969 183.378906c-4.332031-1.648437-9.183594.527344-10.828125 4.859375-1.648438 4.332031.527344 9.179688 4.859375 10.828125 4.332031 1.648438 9.179687-.527344 10.828125-4.859375 1.648437-4.332031-.527344-9.183593-4.859375-10.828125zm0 0" fill="#fff"/><path d="m273.789062 173.035156c7.976563-2.933594 16.351563-4.632812 24.84375-5.035156 11.414063-.863281 22.832032 1.570312 32.902344 7.015625-1.148437-14.6875-35.203125-17.59375-51.851562-13.816406-2.636719.328125-4.9375 1.957031-6.121094 4.335937-1.1875 2.378906-1.101562 5.195313.226562 7.5zm0 0"/><path d="m310.558594 198.988281c0-9.933593-7.515625-17.992187-16.789063-17.992187-9.269531 0-16.785156 8.058594-16.785156 17.992187 0 9.9375 7.515625 17.992188 16.785156 17.992188 9.273438 0 16.789063-8.054688 16.789063-17.992188zm0 0"/><path d="m299.894531 188.238281c-1.648437-4.332031-6.496093-6.507812-10.828125-4.859375-4.335937 1.644532-6.511718 6.496094-4.863281 10.828125s6.496094 6.507813 10.828125 4.859375c4.332031-1.648437 6.511719-6.496094 4.863281-10.828125zm0 0" fill="#fff"/><path d="m411.277344 193.273438s-62.027344-41.96875-159.472656-41.96875c-97.449219 0-159.476563 41.96875-159.476563 41.96875 7.070313-17.71875 18.644531-33.285157 33.574219-45.15625 23.753906-19.894532 62.867187-38.78125 125.902344-38.78125 63.035156 0 102.148437 18.886718 125.898437 38.78125 14.933594 11.871093 26.503906 27.4375 33.574219 45.15625zm0 0" fill="#283593"/><path d="m428.066406 503.828125h-352.527344c-2.5625 0-4.988281-1.171875-6.578124-3.179687-1.59375-2.011719-2.179688-4.636719-1.59375-7.132813l28.4375-120.84375c3.738281-12.53125 15.65625-20.804687 28.703124-19.925781h254.648438c13.144531-.867188 25.117188 7.542968 28.753906 20.207031l28.328125 120.566406c.585938 2.496094 0 5.121094-1.59375 7.132813-1.589843 2.007812-4.015625 3.179687-6.578125 3.175781zm-341.925781-16.785156h331.335937l-25.96875-110.53125c-2.136718-4.785157-7.148437-7.613281-12.351562-6.976563h-254.648438c-5.113281-.625-10.0625 2.074219-12.300781 6.714844zm0 0"/><path d="m318.949219 369.535156h-134.292969c-4.636719 0-8.394531-3.757812-8.394531-8.394531v-41.96875c0-4.632813 3.757812-8.390625 8.394531-8.390625h134.292969c4.636719 0 8.394531 3.757812 8.394531 8.390625v41.96875c0 4.636719-3.757812 8.394531-8.394531 8.394531zm-125.898438-16.789062h117.507813v-25.179688h-117.507813zm0 0"/><path d="m125.902344 146.101562c-4.636719 0-8.394532-3.757812-8.394532-8.394531v-3.1875c0-4.636719 3.757813-8.394531 8.394532-8.394531 4.636718 0 8.394531 3.757812 8.394531 8.394531v3.1875c0 4.636719-3.757813 8.394531-8.394531 8.394531zm0 0"/><path d="m376.277344 123.773438c-3.71875 0-6.996094-2.449219-8.046875-6.019532-.277344-.847656-.417969-1.734375-.429688-2.628906.003907-4.167969 3.070313-7.703125 7.195313-8.300781 4.128906-.59375 8.066406 1.929687 9.25 5.929687.273437.847656.417968 1.734375.425781 2.628906 0 4.632813-3.757813 8.390626-8.394531 8.390626zm0 0"/><path d="m318.949219 327.566406h-134.292969c-37.066406-.042968-67.105469-30.078125-67.148438-67.148437v-84.269531c0-4.632813 3.757813-8.390626 8.394532-8.390626 4.636718 0 8.394531 3.757813 8.394531 8.390626v84.269531c.027344 27.800781 22.558594 50.332031 50.359375 50.363281h134.292969c27.800781-.03125 50.332031-22.5625 50.363281-50.363281v-84.269531c0-4.632813 3.757812-8.390626 8.390625-8.390626 4.636719 0 8.394531 3.757813 8.394531 8.390626v84.269531c-.042968 37.070312-30.078125 67.105469-67.148437 67.148437zm0 0"/><path d="m377.703125 146.101562c-4.632813 0-8.390625-3.757812-8.390625-8.394531v-3.1875c0-4.636719 3.757812-8.394531 8.390625-8.394531 4.636719 0 8.394531 3.757812 8.394531 8.394531v3.1875c0 4.636719-3.757812 8.394531-8.394531 8.394531zm0 0"/><path d="m127.328125 123.773438c-4.636719 0-8.394531-3.757813-8.394531-8.390626.011718-.898437.152344-1.789062.429687-2.644531 1.179688-4.003906 5.125-6.527343 9.253907-5.929687 4.128906.601562 7.191406 4.144531 7.1875 8.316406-.007813.898438-.152344 1.789062-.425782 2.644531-1.0625 3.5625-4.335937 6.003907-8.050781 6.003907zm0 0"/><path d="m100.722656 503.828125h-92.328125c-4.636719 0-8.394531-3.757813-8.394531-8.390625v-7.472656c0-29.125 10.476562-68.5 39.894531-91.65625 15.367188-11.960938 34.300781-18.429688 53.777344-18.378906h7.890625c4.632812 0 8.390625 3.757812 8.390625 8.390624 0 4.636719-3.757813 8.394532-8.390625 8.394532h-7.890625c-15.710937-.054688-30.992187 5.148437-43.402344 14.78125-24.382812 19.207031-33.269531 52.460937-33.484375 77.546875h83.9375c4.632813 0 8.390625 3.757812 8.390625 8.394531 0 4.632812-3.757812 8.390625-8.390625 8.390625zm0 0"/><path d="m496.050781 503.828125h-92.328125c-4.632812 0-8.390625-3.757813-8.390625-8.390625 0-4.636719 3.757813-8.394531 8.390625-8.394531h83.9375c-.214844-25.089844-9.101562-58.34375-33.476562-77.546875-12.414063-9.636719-27.695313-14.839844-43.410156-14.78125h-7.886719c-4.636719 0-8.394531-3.757813-8.394531-8.394532 0-4.632812 3.757812-8.390624 8.394531-8.390624h7.886719c19.476562-.054688 38.410156 6.417968 53.78125 18.378906 29.414062 23.152344 39.890624 62.523437 39.890624 91.65625v7.472656c0 4.632812-3.757812 8.390625-8.394531 8.390625zm0 0"/><path d="m92.328125 201.664062c-2.675781.003907-5.191406-1.273437-6.773437-3.429687-1.582032-2.160156-2.035157-4.945313-1.226563-7.496094 1.15625-3.667969 30.015625-89.792969 167.476563-89.792969 137.457031 0 166.316406 86.125 167.472656 89.792969 1.082031 3.40625-.113282 7.121094-2.972656 9.261719-2.863282 2.140625-6.765626 2.230469-9.726563.230469-46.96875-27.273438-100.464844-41.28125-154.773437-40.53125-54.320313-.824219-107.832032 13.183593-154.777344 40.523437-1.386719.941406-3.023438 1.441406-4.699219 1.441406zm159.476563-58.753906c47.523437-.230468 94.542968 9.734375 137.882812 29.230469-17.949219-23.007813-57.226562-54.410156-137.882812-54.410156-79.648438 0-119.148438 31.234375-137.417969 54.191406 43.214843-19.347656 90.066406-29.238281 137.417969-29.011719zm0 0"/><path d="m377.703125 156.507812c-4.632813 0-8.390625-3.757812-8.390625-8.390624v-13.597657c-.003906-5.816406-.425781-11.625-1.261719-17.382812-.054687-.242188-.105469-.484375-.136719-.730469l-.007812.003906c-9.207031-57.054687-58.308594-99.09375-116.101562-99.398437-57.871094.101562-107.085938 42.242187-116.097657 99.402343h-.011719c-.03125.246094-.082031.488282-.144531.726563-.832031 5.753906-1.25 11.5625-1.253906 17.378906v13.597657c0 4.632812-3.757813 8.390624-8.394531 8.390624-4.636719 0-8.394532-3.757812-8.394532-8.390624v-13.597657c.003907-6.820312.511719-13.628906 1.515626-20.375h.007812c.042969-.277343.101562-.558593.167969-.832031 10.515625-65.097656 66.664062-112.980469 132.605469-113.089844 65.851562.359375 121.859374 48.128906 132.605468 113.097656.066406.269532.121094.550782.167969.824219h.007813c1.003906 6.746094 1.511718 13.554688 1.511718 20.375v13.597657c0 4.632812-3.757812 8.390624-8.394531 8.390624zm0 0"/><path d="m125.902344 226.851562c-.902344-.003906-1.800782-.148437-2.65625-.4375-16.046875-4.621093-29.761719-15.113281-38.425782-29.386718-2.089843-4.136719-.429687-9.1875 3.707032-11.277344 4.136718-2.089844 9.183594-.429688 11.277344 3.707031 6.695312 10.285157 16.921874 17.765625 28.753906 21.03125 3.910156 1.296875 6.304687 5.246094 5.644531 9.3125-.664063 4.070313-4.179687 7.054688-8.300781 7.050781zm0 0"/><path d="m377.703125 226.851562c-4.121094.003907-7.636719-2.980468-8.296875-7.050781-.660156-4.066406 1.730469-8.015625 5.644531-9.3125 11.835938-3.261719 22.066407-10.75 28.757813-21.042969 2.132812-4.0625 7.128906-5.660156 11.222656-3.589843 4.09375 2.074219 5.765625 7.046875 3.753906 11.171875-8.664062 14.273437-22.382812 24.765625-38.429687 29.386718-.851563.289063-1.75.433594-2.652344.4375zm0 0"/><path d="m251.804688 84.15625c-13.90625 0-25.183594-11.273438-25.183594-25.179688s11.277344-25.179687 25.183594-25.179687 25.179687 11.273437 25.179687 25.179687c-.015625 13.902344-11.28125 25.164063-25.179687 25.179688zm0-33.574219c-4.636719 0-8.394532 3.757813-8.394532 8.394531 0 4.636719 3.757813 8.394532 8.394532 8.394532 4.632812 0 8.390624-3.757813 8.390624-8.394532-.003906-4.632812-3.757812-8.390624-8.390624-8.394531zm0 0"/><path d="m184.65625 293.992188c-4.636719 0-8.390625-3.757813-8.394531-8.390626v-33.574218c.015625-13.902344 11.28125-25.167969 25.179687-25.179688h33.574219c13.902344.011719 25.164063 11.277344 25.179687 25.179688 0 4.632812-3.757812 8.390625-8.390624 8.390625-4.636719 0-8.394532-3.757813-8.394532-8.390625-.003906-4.636719-3.761718-8.390625-8.394531-8.394532h-33.574219c-4.632812.003907-8.386718 3.757813-8.390625 8.394532v20.589844c7.152344-2.507813 14.679688-3.792969 22.261719-3.804688h36.492188c4.632812 0 8.390624 3.757812 8.390624 8.394531s-3.757812 8.394531-8.390624 8.394531h-36.492188c-7.816406.007813-15.523438 1.824219-22.519531 5.3125l-4.382813 2.195313c-1.167968.582031-2.453125.882813-3.753906.882813zm0 0"/><path d="m318.949219 293.992188c-1.300781 0-2.585938-.300782-3.753907-.882813l-4.382812-2.195313c-6.996094-3.488281-14.703125-5.304687-22.515625-5.3125h-36.492187c-4.636719 0-8.394532-3.757812-8.394532-8.394531v-25.179687c.015625-13.902344 11.28125-25.167969 25.179688-25.179688h33.574218c13.898438.011719 25.164063 11.277344 25.179688 25.179688v33.574218c-.003906 4.632813-3.757812 8.390626-8.394531 8.390626zm-58.753907-25.179688h28.101563c7.578125.011719 15.105469 1.296875 22.261719 3.804688v-20.589844c-.003906-4.636719-3.761719-8.390625-8.394532-8.394532h-33.574218c-4.632813.003907-8.390625 3.757813-8.394532 8.394532zm0 0"/><path d="m276.984375 419.894531h-50.363281c-32.429688-.035156-58.714844-26.320312-58.753906-58.753906 0-4.636719 3.757812-8.394531 8.394531-8.394531s8.394531 3.757812 8.394531 8.394531c.027344 23.167969 18.800781 41.941406 41.964844 41.96875h50.363281c23.164063-.027344 41.9375-18.800781 41.964844-41.96875 0-4.636719 3.757812-8.394531 8.394531-8.394531s8.394531 3.757812 8.394531 8.394531c-.039062 32.433594-26.320312 58.71875-58.753906 58.753906zm0 0"/><path d="m226.621094 503.828125c-4.632813 0-8.390625-3.757813-8.390625-8.390625v-83.9375c0-4.632812 3.757812-8.390625 8.390625-8.390625 4.636718 0 8.394531 3.757813 8.394531 8.390625v83.9375c0 4.632812-3.757813 8.390625-8.394531 8.390625zm0 0"/><path d="m268.589844 453.46875c0 4.636719-3.757813 8.394531-8.394532 8.394531-4.632812 0-8.390624-3.757812-8.390624-8.394531s3.757812-8.394531 8.390624-8.394531c4.636719 0 8.394532 3.757812 8.394532 8.394531zm0 0"/><path d="m369.3125 503.828125h-50.363281c-3.175781 0-6.085938-1.792969-7.507813-4.636719-6.054687-14.488281-9.207031-30.023437-9.277344-45.722656 0-4.636719 3.757813-8.394531 8.394532-8.394531 10.285156.953125 20.28125-3.734375 26.121094-12.253907 1.546874-2.722656 4.417968-4.421874 7.550781-4.46875 3.128906.023438 5.988281 1.789063 7.410156 4.578126 5.863281 8.449218 15.820313 13.089843 26.0625 12.144531 4.636719 0 8.394531 3.757812 8.394531 8.394531-.070312 15.699219-3.222656 31.234375-9.277344 45.722656-1.421874 2.84375-4.328124 4.636719-7.507812 4.636719zm-44.855469-16.785156h39.347657c2.820312-8.34375 4.542968-17.019531 5.117187-25.808594-9.230469-1.207031-17.875-5.195313-24.789063-11.429687-6.917968 6.234374-15.5625 10.222656-24.796874 11.429687.578124 8.789063 2.300781 17.464844 5.121093 25.808594zm0 0"/></svg>