<svg height="512pt" viewBox="0 0 512 512.00273" width="512pt" xmlns="http://www.w3.org/2000/svg"><path d="m384 213.335938s11.070312-7.605469 25.601562-51.199219c8.53125-25.601563 8.53125-51.199219 0-68.265625-12.066406-24.136719-34.132812-34.136719-42.667968-59.734375-11 .613281-20.800782 7.148437-25.597656 17.066406 0 0 0-25.601563-34.132813-25.601563-18.597656.886719-36.855469-5.199218-51.203125-17.066406-19.390625 5.730469-39.511719 8.601563-59.730469 8.535156-34.136719 0-42.667969 25.597657-42.667969 25.597657-4.429687-4.867188-10.515624-7.910157-17.066406-8.53125 0 25.597656-22.066406 27.0625-34.132812 51.199219-8.535156 17.066406-17.066406 34.132812 0 76.800781 17.066406 42.664062 25.597656 51.199219 25.597656 51.199219zm0 0" fill="#783e22"/><path d="m358.332031 213.335938s8.875-7.605469 20.535157-51.199219c6.90625-22.234375 6.90625-46.035157 0-68.265625-9.679688-24.136719-27.378907-34.136719-34.222657-59.734375-9.671875 1-17.785156 7.738281-20.535156 17.066406 0-7.105469-2.949219-13.890625-8.136719-18.742187-5.1875-4.851563-12.15625-7.332032-19.242187-6.859376-15.503907.457032-30.457031-5.757812-41.070313-17.066406-15.335937 5.675782-31.5625 8.566406-47.914062 8.535156-15.824219-.003906-29.757813 10.417969-34.226563 25.597657-3.117187-4.683594-8.109375-7.796875-13.6875-8.53125 0 25.597656-17.699219 27.0625-27.378906 51.199219-6.847656 17.066406-13.691406 34.132812 0 76.800781 13.6875 42.664062 20.53125 51.199219 20.53125 51.199219zm0 0" fill="#a0522d"/><path d="m409.601562 503.46875h93.867188v-7.59375c.015625-10.929688-1.304688-21.816406-3.925781-32.425781l-7.9375-32.171875c-9.203125-33.558594-40.046875-56.558594-74.835938-55.808594h-321.535156c-34.789063-.75-65.632813 22.25-74.839844 55.808594l-7.933593 32.171875c-2.625 10.609375-3.941407 21.496093-3.925782 32.425781v7.59375zm0 0" fill="#ffdc00"/><path d="m187.734375 298.667969h136.535156v59.734375h-136.535156zm0 0" fill="#fec108"/><path d="m384 189.128906v58.339844c0 32.992188-26.742188 59.734375-59.730469 59.734375h-136.535156c-32.988281 0-59.734375-26.742187-59.734375-59.734375v-58.339844c-.113281-15.019531 3.191406-29.867187 9.664062-43.421875 8.113282-16.660156 21.617188-36.679687 41.539063-43.304687 25.597656-8.53125 42.664063 8.535156 76.796875 8.535156s51.203125-17.066406 76.800781-8.535156c19.917969 6.625 33.421875 26.644531 41.539063 43.304687 6.472656 13.554688 9.773437 28.402344 9.660156 43.421875zm0 0" fill="#fec108"/><path d="m358.402344 189.128906v58.339844c0 32.992188-21.394532 59.734375-47.789063 59.734375h-109.226562c-26.390625 0-47.785157-26.742187-47.785157-59.734375v-58.339844c-.125-14.828125 2.496094-29.550781 7.726563-43.421875 6.496094-16.660156 17.300781-36.679687 33.234375-43.304687 20.480469-8.53125 34.132812 8.535156 61.4375 8.535156 27.308594 0 40.960938-17.066406 61.441406-8.535156 15.933594 6.625 26.738282 26.644531 33.230469 43.304687 5.234375 13.871094 7.855469 28.59375 7.730469 43.421875zm0 0" fill="#ffdc00"/><path d="m332.800781 349.871094s0 68.265625-76.800781 68.265625c-76.796875 0-76.796875-68.265625-76.796875-68.265625zm0 0" fill="#fec108"/><path d="m435.203125 503.46875h-358.402344l7.765625-37.460938c60.5-29.523437 60.5-116.136718 60.5-116.136718h34.136719s0 68.265625 76.796875 68.265625c76.800781 0 76.800781-68.265625 76.800781-68.265625h34.132813s0 86.613281 60.503906 116.050781c0 .046875.035156.085937.082031.085937zm0 0" fill="#c81e1e"/><path d="m145.066406 349.871094s0 86.613281-60.5 116.136718l21.164063-102.484374c2.945312-8.820313 11.558593-14.46875 20.820312-13.652344zm0 0" fill="#fec108"/><path d="m427.4375 465.921875c-60.503906-29.4375-60.503906-116.050781-60.503906-116.050781h18.519531c9.28125-.816406 17.917969 4.824218 20.90625 13.652344zm0 0" fill="#fec108"/><path d="m355.328125 503.46875c10.675781-9.375 14.425781-24.386719 9.414063-37.679688-5.011719-13.296874-17.734376-22.097656-31.941407-22.097656s-26.929687 8.800782-31.941406 22.097656c-5.007813 13.292969-1.261719 28.304688 9.414063 37.679688zm0 0" fill="#f44335"/><path d="m296.34375 247.46875c-6.894531 13.492188-28.417969 15.402344-40.171875 15.402344-11.78125 0-33.273437-1.910156-40.171875-15.402344 13.148438 3.238281 26.632812 4.929688 40.171875 5.035156 13.542969-.105468 27.023437-1.792968 40.171875-5.035156zm0 0"/><path d="m233.652344 158.628906c-8.113282-2.984375-16.628906-4.710937-25.261719-5.121094-11.601563-.875-23.210937 1.597657-33.449219 7.132813 1.167969-14.933594 35.789063-17.882813 52.714844-14.042969 2.679688.332032 5.019531 1.988282 6.222656 4.40625 1.207032 2.417969 1.121094 5.28125-.226562 7.625zm0 0"/><path d="m230.402344 185.015625c0-10.101563-7.640625-18.292969-17.066406-18.292969-9.425782 0-17.066407 8.191406-17.066407 18.292969s7.640625 18.292969 17.066407 18.292969c9.425781 0 17.066406-8.191406 17.066406-18.292969zm0 0"/><path d="m218.117188 169.144531c-4.402344-1.675781-9.332032.535157-11.007813 4.941407-1.675781 4.402343.539063 9.332031 4.941406 11.007812 4.40625 1.675781 9.335938-.535156 11.011719-4.941406s-.539062-9.335938-4.945312-11.007813zm0 0" fill="#fff"/><path d="m278.351562 158.628906c8.109376-2.984375 16.628907-4.710937 25.257813-5.121094 11.605469-.875 23.214844 1.597657 33.453125 7.132813-1.167969-14.933594-35.789062-17.882813-52.714844-14.042969-2.683594.332032-5.019531 1.988282-6.226562 4.40625-1.203125 2.417969-1.117188 5.28125.230468 7.625zm0 0"/><path d="m315.734375 185.015625c0-10.101563-7.640625-18.292969-17.066406-18.292969s-17.066407 8.191406-17.066407 18.292969 7.640626 18.292969 17.066407 18.292969 17.066406-8.191406 17.066406-18.292969zm0 0"/><path d="m304.894531 174.085938c-1.675781-4.40625-6.605469-6.617188-11.011719-4.941407-4.402343 1.675781-6.617187 6.601563-4.941406 11.007813 1.675782 4.40625 6.605469 6.617187 11.007813 4.941406 4.40625-1.675781 6.621093-6.601562 4.945312-11.007812zm0 0" fill="#fff"/><path d="m435.203125 512.003906h-358.402344c-2.566406 0-4.996093-1.15625-6.617187-3.144531s-2.257813-4.601563-1.742188-7.113281l28.910156-139.921875c3.722657-12.84375 15.882813-21.367188 29.230469-20.488281h258.890625c13.359375-.878907 25.53125 7.667968 29.242188 20.53125l28.839844 139.878906c.519531 2.511718-.117188 5.125-1.738282 7.113281s-4.050781 3.144531-6.613281 3.144531zm-347.925781-17.066406h337.453125l-26.742188-129.664062c-2.261719-4.742188-7.300781-7.507813-12.515625-6.871094h-258.890625c-5.199219-.632813-10.226562 2.109375-12.503906 6.828125zm0 0"/><path d="m324.269531 358.402344h-136.535156c-4.710937 0-8.53125-3.820313-8.53125-8.53125v-42.667969c0-4.714844 3.820313-8.535156 8.53125-8.535156h136.535156c4.710938 0 8.53125 3.820312 8.53125 8.535156v42.667969c0 4.710937-3.820312 8.53125-8.53125 8.53125zm-128-17.066406h119.464844v-25.601563h-119.464844zm0 0"/><path d="m324.269531 315.734375h-136.535156c-37.683594-.042969-68.222656-30.582031-68.265625-68.265625v-58.339844c-.09375-16.3125 3.503906-32.433594 10.523438-47.160156 8.535156-17.523438 23.539062-40.019531 46.519531-47.660156 14.699219-4.167969 30.359375-3.40625 44.585937 2.164062 11.28125 3.671875 23.042969 5.667969 34.902344 5.929688 11.863281-.261719 23.621094-2.257813 34.902344-5.929688 14.230468-5.570312 29.894531-6.332031 44.597656-2.164062 22.96875 7.640625 37.972656 30.136718 46.503906 47.660156 7.023438 14.722656 10.625 30.847656 10.53125 47.160156v58.339844c-.042968 37.683594-30.582031 68.222656-68.265625 68.265625zm-130.476562-207.199219c-4.042969 0-8.0625.660156-11.890625 1.964844-17.355469 5.769531-29.464844 24.363281-36.566406 38.945312-5.890626 12.394532-8.898438 25.960938-8.800782 39.683594v58.339844c.03125 28.265625 22.933594 51.167969 51.199219 51.199219h136.535156c28.261719-.03125 51.167969-22.933594 51.199219-51.199219v-58.339844c.09375-13.722656-2.914062-27.285156-8.800781-39.679687-7.105469-14.585938-19.210938-33.175781-36.558594-38.949219-11.90625-3.957031-21.417969-1.292969-34.585937 2.410156-12.785157 4.105469-26.097657 6.3125-39.523438 6.558594-13.421875-.246094-26.738281-2.457031-39.519531-6.5625-7.328125-2.480469-14.960938-3.949219-22.6875-4.371094zm0 0"/><path d="m102.402344 512.003906h-93.867188c-4.714844 0-8.535156-3.820312-8.535156-8.535156v-7.59375c-.0078125-11.621094 1.394531-23.199219 4.175781-34.480469l7.9375-32.160156c10.019531-37.453125 44.359375-63.191406 83.121094-62.296875h8.019531c4.714844 0 8.535156 3.820312 8.535156 8.53125 0 4.714844-3.820312 8.535156-8.535156 8.535156h-8.019531c-30.898437-.875-58.390625 19.492188-66.550781 49.308594l-7.941406 32.183594c-2.375 9.632812-3.609376 19.515625-3.667969 29.441406h85.328125c4.710937 0 8.53125 3.820312 8.53125 8.53125 0 4.714844-3.820313 8.535156-8.53125 8.535156zm0 0"/><path d="m503.46875 512.003906h-93.867188c-4.714843 0-8.535156-3.820312-8.535156-8.535156 0-4.710938 3.820313-8.53125 8.535156-8.53125h85.332032c-.058594-9.921875-1.289063-19.800781-3.667969-29.433594l-7.9375-32.179687c-8.160156-29.820313-35.652344-50.195313-66.558594-49.320313h-7.9375c-4.710937 0-8.53125-3.820312-8.53125-8.535156 0-4.710938 3.820313-8.53125 8.53125-8.53125h7.9375c38.765625-.894531 73.109375 24.847656 83.125 62.308594l7.9375 32.15625c2.78125 11.28125 4.183594 22.855468 4.167969 34.472656v7.59375c0 4.714844-3.820312 8.535156-8.53125 8.535156zm0 0"/><path d="m84.574219 474.542969c-3.972657.003906-7.429688-2.738281-8.324219-6.609375-.894531-3.875 1-7.855469 4.578125-9.597656 55.070313-26.875 55.707031-107.652344 55.707031-108.464844 0-4.714844 3.820313-8.535156 8.53125-8.535156 4.714844 0 8.535156 3.820312 8.535156 8.535156 0 3.753906-.742187 92.300781-65.292968 123.808594-1.160156.566406-2.4375.863281-3.734375.863281zm0 0"/><path d="m427.519531 474.542969c-1.289062 0-2.5625-.292969-3.722656-.859375-64.652344-31.410156-65.394531-120.058594-65.394531-123.8125 0-4.710938 3.816406-8.527344 8.523437-8.53125h.007813c4.710937 0 8.527344 3.8125 8.535156 8.519531 0 .8125.804688 81.761719 55.78125 108.472656 3.582031 1.734375 5.492188 5.714844 4.597656 9.59375-.894531 3.878907-4.347656 6.625-8.328125 6.617188zm0 0"/><path d="m256 426.667969c-84.355469 0-85.332031-76.03125-85.332031-76.796875-.003907-4.714844 3.808593-8.539063 8.523437-8.546875 4.710938-.003907 8.539063 3.8125 8.542969 8.523437.019531 2.550782 1.253906 59.753906 68.265625 59.753906 67.492188 0 68.269531-57.296874 68.269531-59.730468 0-4.714844 3.820313-8.535156 8.53125-8.535156 4.714844 0 8.535157 3.820312 8.535157 8.535156 0 .765625-.976563 76.796875-85.335938 76.796875zm0 0"/><path d="m384.011719 221.871094c-3.671875.003906-6.933594-2.339844-8.101563-5.816406-1.167968-3.480469.019532-7.316407 2.945313-9.527344.648437-.585938 10.1875-9.703125 22.648437-47.089844 7.734375-23.199219 7.910156-46.859375.464844-61.75-5.042969-9.167969-11.421875-17.527344-18.933594-24.808594-8.734375-8.429687-15.988281-18.265625-21.457031-29.101562-5.539063 1.910156-10.078125 5.957031-12.609375 11.238281-1.769531 3.539063-5.742188 5.398437-9.59375 4.492187-3.851562-.910156-6.574219-4.347656-6.574219-8.304687-.085937-2.75-1.710937-17.066406-25.597656-17.066406-18.988281.488281-37.621094-5.167969-53.132813-16.128907-18.855468 5.035157-38.285156 7.589844-57.800781 7.59375-27.664062 0-34.507812 19.566407-34.574219 19.769532-.933593 2.804687-3.253906 4.921875-6.132812 5.601562-2.878906.679688-5.902344-.179687-7.992188-2.269531-1.195312-1.203125-2.511718-2.28125-3.925781-3.210937-3.203125 9.710937-9.300781 18.214843-17.476562 24.359374-6.605469 5.300782-12.089844 11.859376-16.132813 19.300782-8.238281 16.476562-15.355468 30.703125.292969 69.8125 15.644531 39.109375 23.550781 48.144531 23.878906 48.511718 3.109375 3.449219 2.929688 8.746094-.40625 11.976563-3.308593 3.199219-8.570312 3.160156-11.832031-.085937-1.632812-1.628907-10.625-11.90625-27.492188-54.0625-18.488281-46.222657-8.507812-66.179688.292969-83.789063 4.976563-9.355469 11.765625-17.632813 19.972657-24.339844 8.265624-7.453125 13.257812-11.953125 13.257812-23.039062 0-4.714844 3.820312-8.535157 8.535156-8.535157 5.074219.25 10.011719 1.738282 14.375 4.339844 10.53125-14.339844 27.59375-22.390625 45.359375-21.40625 19.300781.0625 38.507813-2.664062 57.03125-8.09375 3.066407-1.027344 6.449219-.226562 8.734375 2.0625 12.753906 10.238282 28.832032 15.421875 45.167969 14.566406 14.527344-1.339843 28.683594 5.070313 37.269531 16.867188 6.433594-5.054688 14.289063-7.972656 22.460938-8.335938 3.675781 0 6.933594 2.351563 8.097656 5.835938 4.503906 11.335938 11.5 21.511719 20.46875 29.78125 8.65625 8.460938 15.984375 18.183594 21.734375 28.835938 9.539063 19.078124 9.710937 47.035156.460937 74.785156-14.695312 44.074218-26.621093 53.992187-28.859374 55.53125-1.421876.976562-3.101563 1.5-4.824219 1.5zm0 0"/><path d="m355.335938 512.003906c-3.554688 0-6.734376-2.199218-7.988282-5.523437-1.253906-3.320313-.316406-7.074219 2.351563-9.417969 8.003906-7.035156 10.816406-18.289062 7.058593-28.261719-3.757812-9.972656-13.300781-16.574219-23.957031-16.574219s-20.195312 6.601563-23.953125 16.574219c-3.757812 9.972657-.949218 21.226563 7.058594 28.261719 3.425781 3.132812 3.714844 8.4375.648438 11.925781-3.066407 3.492188-8.363282 3.886719-11.914063.890625-13.339844-11.722656-18.023437-30.484375-11.761719-47.101562 6.265625-16.617188 22.164063-27.617188 39.925782-27.617188 17.757812 0 33.660156 11 39.925781 27.617188 6.261719 16.617187 1.578125 35.378906-11.765625 47.101562-1.554688 1.371094-3.554688 2.125-5.628906 2.125zm0 0"/></svg>