<svg height="512pt" viewBox="0 0 512 512.00427" width="512pt" xmlns="http://www.w3.org/2000/svg"><path d="m187.734375 264.535156h136.535156v76.796875h-136.535156zm0 0" fill="#00838f"/><path d="m221.867188 8.535156h68.269531c4.710937 0 8.53125 3.820313 8.53125 8.53125v42.667969h-85.332031v-42.667969c0-4.710937 3.820312-8.53125 8.53125-8.53125zm0 0" fill="#00838f"/><path d="m503.46875 495.871094v7.59375h-494.933594v-7.59375c-.015625-10.925782 1.304688-21.816406 3.925782-32.425782l.511718-3.5c26.539063-4.777343 46.761719-31.230468 46.761719-63.144531.085937-11.835937-2.851563-23.496093-8.53125-33.878906 13.078125-8.574219 28.390625-13.113281 44.03125-13.054687h321.535156c15.640625-.058594 30.953125 4.480468 44.03125 13.054687-5.679687 10.382813-8.617187 22.042969-8.53125 33.878906 0 31.914063 20.222657 58.367188 46.761719 63.144531l.511719 3.5c2.621093 10.609376 3.941406 21.5 3.925781 32.425782zm0 0" fill="#00bcd4"/><path d="m435.203125 503.464844h-358.402344l28.910157-165.519532c2.960937-8.835937 11.589843-14.492187 20.871093-13.679687h258.894531c9.28125-.8125 17.910157 4.84375 20.871094 13.679687zm0 0" fill="#00838f"/><path d="m401.070312 503.464844-23.296874-130.984375c-1.464844-8.140625-8.542969-14.066407-16.8125-14.082031h-209.917969c-8.253907.015624-15.304688 5.953124-16.726563 14.082031l-23.382812 130.984375h51.203125c-17.066407-17.066406-8.535157-59.730469-8.535157-59.730469s25.601563 17.066406 102.402344 17.066406c76.796875 0 102.398438-17.066406 102.398438-17.066406s8.53125 34.132813 0 59.730469zm-145.066406-76.796875c-93.867187 0-93.867187-34.132813-93.867187-34.132813h187.730469s0 34.132813-93.863282 34.132813zm0 0" fill="#00bcd4"/><path d="m187.734375 42.667969h136.535156c32.988281 0 59.734375 26.742187 59.734375 59.730469v119.46875c0 32.988281-26.746094 59.734374-59.734375 59.734374h-136.535156c-32.988281 0-59.730469-26.746093-59.730469-59.734374v-119.46875c0-32.988282 26.742188-59.730469 59.730469-59.730469zm0 0" fill="#00bcd4"/><path d="m187.734375 76.800781h136.535156c14.136719 0 25.597657 11.460938 25.597657 25.597657v119.46875c0 14.136718-11.460938 25.597656-25.597657 25.597656h-136.535156c-14.136719 0-25.597656-11.460938-25.597656-25.597656v-119.46875c0-14.136719 11.460937-25.597657 25.597656-25.597657zm0 0" fill="#cfd8dc"/><path d="m206.355469 247.464844c-10.269531 0-18.621094-11.480469-18.621094-25.597656v-119.46875c0-14.113282 8.351563-25.597657 18.621094-25.597657h99.296875c10.265625 0 18.617187 11.484375 18.617187 25.597657v119.46875c0 14.117187-8.351562 25.597656-18.617187 25.597656zm0 0" fill="#f5f5f5"/><path d="m238.933594 128c0 9.425781-7.640625 17.066406-17.066406 17.066406-9.425782 0-17.066407-7.640625-17.066407-17.066406s7.640625-17.066406 17.066407-17.066406c9.425781 0 17.066406 7.640625 17.066406 17.066406zm0 0" fill="#ffdc00"/><path d="m307.203125 128c0 9.425781-7.640625 17.066406-17.066406 17.066406s-17.066407-7.640625-17.066407-17.066406 7.640626-17.066406 17.066407-17.066406 17.066406 7.640625 17.066406 17.066406zm0 0" fill="#ffdc00"/><path d="m59.734375 396.800781c0 31.914063-20.222656 58.367188-46.761719 63.144531l7.425782-54.269531c4.441406-17.65625 15.460937-32.949219 30.804687-42.753906 5.679687 10.382813 8.617187 22.042969 8.53125 33.878906zm0 0" fill="#00838f"/><path d="m499.03125 459.945312c-26.539062-4.777343-46.761719-31.230468-46.761719-63.144531-.085937-11.835937 2.851563-23.496093 8.53125-33.878906 15.34375 9.804687 26.363281 25.097656 30.808594 42.753906zm0 0" fill="#00838f"/><path d="m435.203125 512h-358.402344c-2.519531 0-4.910156-1.113281-6.53125-3.042969-1.621093-1.925781-2.308593-4.472656-1.875-6.957031l28.90625-165.519531c3.640625-12.964844 15.847657-21.613281 29.285157-20.746094h258.890624c13.363282-.886719 25.535157 7.667969 29.234376 20.539063l28.898437 165.726562c.433594 2.484375-.25 5.03125-1.875 6.957031-1.621094 1.929688-4.011719 3.042969-6.53125 3.042969zm-348.246094-17.066406h338.097657l-27.121094-155.519532c-2.355469-4.597656-7.328125-7.238281-12.457032-6.613281h-258.890624c-5.199219-.636719-10.230469 2.109375-12.507813 6.824219zm0 0"/><path d="m401.070312 512h-290.136718c-2.523438 0-4.917969-1.117188-6.539063-3.054688-1.621093-1.933593-2.300781-4.488281-1.859375-6.972656l23.34375-130.996094c2.160156-12.222656 12.789063-21.121093 25.199219-21.109374h209.890625c12.417969-.015626 23.046875 8.894531 25.199219 21.125l23.296875 130.980468c.441406 2.484375-.238282 5.035156-1.859375 6.972656-1.617188 1.933594-4.011719 3.054688-6.535157 3.054688zm-279.945312-17.066406h269.761719l-21.515625-120.957032c-.71875-4.078124-4.261719-7.046874-8.402344-7.042968h-209.890625c-4.136719-.003906-7.679687 2.960937-8.402344 7.03125zm0 0"/><path d="m324.269531 332.800781h-136.535156c-4.710937 0-8.53125-3.820312-8.53125-8.535156v-42.664063c0-4.714843 3.820313-8.535156 8.53125-8.535156h136.535156c4.710938 0 8.53125 3.820313 8.53125 8.535156v42.664063c0 4.714844-3.820312 8.535156-8.53125 8.535156zm-128-17.066406h119.464844v-25.601563h-119.464844zm0 0"/><path d="m324.269531 290.132812h-136.535156c-37.683594-.042968-68.222656-30.582031-68.265625-68.265624v-119.46875c.042969-37.683594 30.582031-68.222657 68.265625-68.265626h136.535156c37.683594.042969 68.222657 30.582032 68.265625 68.265626v119.46875c-.042968 37.683593-30.582031 68.222656-68.265625 68.265624zm-136.535156-238.933593c-28.261719.03125-51.167969 22.9375-51.199219 51.199219v119.46875c.03125 28.261718 22.9375 51.167968 51.199219 51.199218h136.535156c28.261719-.03125 51.167969-22.9375 51.199219-51.199218v-119.46875c-.03125-28.261719-22.9375-51.167969-51.199219-51.199219zm0 0"/><path d="m324.269531 256h-136.535156c-18.84375-.019531-34.113281-15.289062-34.132813-34.132812v-119.46875c.019532-18.839844 15.289063-34.113282 34.132813-34.132813h136.535156c18.84375.019531 34.113281 15.292969 34.132813 34.132813v119.46875c-.019532 18.84375-15.289063 34.113281-34.132813 34.132812zm-136.535156-170.667969c-9.421875.011719-17.054687 7.648438-17.066406 17.066407v119.46875c.011719 9.421874 7.644531 17.054687 17.066406 17.066406h136.535156c9.421875-.011719 17.054688-7.644532 17.066407-17.066406v-119.46875c-.011719-9.417969-7.644532-17.054688-17.066407-17.066407zm0 0"/><path d="m298.667969 51.199219h-85.332031c-4.714844 0-8.535157-3.820313-8.535157-8.53125v-25.601563c.011719-9.421875 7.648438-17.0546872 17.066407-17.066406h68.269531c9.421875.0117188 17.054687 7.644531 17.066406 17.066406v25.601563c0 4.710937-3.820313 8.53125-8.535156 8.53125zm-76.800781-17.066407h68.269531v-17.066406h-68.269531zm0 0"/><path d="m102.402344 512h-93.867188c-4.710937 0-8.53124975-3.820312-8.53124975-8.535156v-7.59375c-.01171875-11.464844 1.35546875-22.886719 4.06640575-34.027344l7.875-57.332031c.035157-.292969.09375-.582031.167969-.867188 10.019531-37.457031 44.359375-63.199219 83.121094-62.3125h8.019531c4.714844 0 8.535156 3.820313 8.535156 8.535157 0 4.710937-3.820312 8.53125-8.535156 8.53125h-8.019531c-30.738281-.851563-58.121094 19.296874-66.449219 48.898437l-7.875 57.3125c-.039062.296875-.09375.59375-.171875.886719-2.375 9.632812-3.605469 19.515625-3.667969 29.4375h85.332032c4.710937 0 8.53125 3.820312 8.53125 8.53125 0 4.714844-3.820313 8.535156-8.53125 8.535156zm0 0"/><path d="m503.46875 512h-93.867188c-4.710937 0-8.53125-3.820312-8.53125-8.535156 0-4.710938 3.820313-8.53125 8.53125-8.53125h85.332032c-.0625-9.925782-1.296875-19.804688-3.671875-29.441406-.078125-.289063-.136719-.585938-.171875-.886719l-7.871094-57.308594c-8.328125-29.601563-35.710938-49.75-66.449219-48.898437h-7.933593c-4.714844 0-8.535157-3.820313-8.535157-8.53125 0-4.714844 3.820313-8.535157 8.535157-8.535157h7.933593c38.765625-.890625 73.109375 24.851563 83.125 62.308594.078125.289063.136719.578125.171875.871094l7.875 57.332031c2.707032 11.136719 4.070313 22.5625 4.0625 34.027344v7.59375c0 2.265625-.902344 4.433594-2.5 6.035156-1.601562 1.601562-3.773437 2.5-6.035156 2.5zm0 0"/><path d="m221.867188 153.601562c-14.136719 0-25.597657-11.464843-25.597657-25.601562s11.460938-25.601562 25.597657-25.601562c14.140624 0 25.601562 11.464843 25.601562 25.601562-.015625 14.132812-11.46875 25.585938-25.601562 25.601562zm0-34.136718c-4.710938 0-8.53125 3.824218-8.53125 8.535156s3.820312 8.535156 8.53125 8.535156c4.714843 0 8.535156-3.824218 8.535156-8.535156-.003906-4.710938-3.824219-8.527344-8.535156-8.535156zm0 0"/><path d="m290.136719 153.601562c-14.140625 0-25.601563-11.464843-25.601563-25.601562s11.460938-25.601562 25.601563-25.601562c14.136719 0 25.597656 11.464843 25.597656 25.601562-.015625 14.132812-11.46875 25.585938-25.597656 25.601562zm0-34.136718c-4.714844 0-8.535157 3.824218-8.535157 8.535156s3.820313 8.535156 8.535157 8.535156c4.710937 0 8.53125-3.824218 8.53125-8.535156-.003907-4.710938-3.820313-8.527344-8.53125-8.535156zm0 0"/><path d="m256.003906 170.667969c-4.714844 0-8.535156-3.820313-8.535156-8.535157v-8.53125c0-4.714843 3.820312-8.535156 8.535156-8.535156 4.710938 0 8.53125 3.820313 8.53125 8.535156v8.53125c0 4.714844-3.820312 8.535157-8.53125 8.535157zm0 0"/><path d="m286.367188 213.332031h-60.730469c-11.023438.011719-20.808594-7.042969-24.285157-17.503906l-2.699218-8.09375h-2.382813c-4.714843 0-8.535156-3.820313-8.535156-8.535156 0-4.710938 3.820313-8.53125 8.535156-8.53125h2.382813c7.351562-.007813 13.875 4.699219 16.191406 11.675781l2.691406 8.085938c1.160156 3.488281 4.425782 5.839843 8.101563 5.835937h60.730469c3.675781.003906 6.941406-2.347656 8.101562-5.835937l2.699219-8.097657c2.3125-6.972656 8.839843-11.675781 16.183593-11.664062h2.382813c4.714844 0 8.535156 3.820312 8.535156 8.53125 0 4.714843-3.820312 8.535156-8.535156 8.535156h-2.382813l-2.699218 8.09375c-3.476563 10.460937-13.261719 17.515625-24.285156 17.503906zm0 0"/><path d="m238.933594 221.867188c-4.710938 0-8.53125-3.820313-8.53125-8.535157v-25.597656c0-4.714844 3.820312-8.535156 8.53125-8.535156 4.714844 0 8.535156 3.820312 8.535156 8.535156v25.597656c0 4.714844-3.820312 8.535157-8.535156 8.535157zm0 0"/><path d="m273.070312 221.867188c-4.714843 0-8.535156-3.820313-8.535156-8.535157v-25.597656c0-4.714844 3.820313-8.535156 8.535156-8.535156 4.710938 0 8.53125 3.820312 8.53125 8.535156v25.597656c0 4.714844-3.820312 8.535157-8.53125 8.535157zm0 0"/><path d="m256.003906 435.199219c-99.527344 0-102.402344-38.300781-102.402344-42.664063 0-4.714844 3.820313-8.535156 8.535157-8.535156h187.730469c4.714843 0 8.535156 3.820312 8.535156 8.535156 0 4.363282-2.875 42.664063-102.398438 42.664063zm-79.242187-34.132813c9.546875 7.96875 32.03125 17.066406 79.242187 17.066406 47.207032 0 69.691406-9.097656 79.238282-17.066406zm0 0"/><path d="m358.402344 512.003906c-2.742188-.003906-5.316406-1.324218-6.917969-3.550781-1.605469-2.222656-2.039063-5.085937-1.171875-7.6875 3.828125-14.59375 4.421875-29.855469 1.730469-44.703125-14.398438 5.476562-44.023438 13.269531-96.039063 13.269531-51.359375 0-80.886718-7.59375-95.484375-13.0625-1.160156 13.394531-.757812 32.753907 7.648438 41.164063 3.234375 3.347656 3.1875 8.671875-.101563 11.960937-3.292968 3.292969-8.617187 3.339844-11.964844.105469-19.726562-19.726562-11.832031-62.617188-10.867187-67.441406.558594-2.792969 2.472656-5.121094 5.101563-6.207032 2.632812-1.089843 5.632812-.796874 8 .78125.167968.101563 25.449218 15.632813 97.667968 15.632813 72.214844 0 97.5-15.53125 97.738282-15.683594 2.316406-1.480469 5.203124-1.761719 7.761718-.757812 2.5625 1.003906 4.484375 3.175781 5.171875 5.839843.375 1.488282 9.035157 36.863282-.183593 64.503907-1.160157 3.484375-4.417969 5.835937-8.089844 5.835937zm0 0"/><path d="m12.960938 468.480469c-4.421876 0-8.109376-3.378907-8.5-7.78125-.390626-4.402344 2.648437-8.375 7-9.152344 22.65625-4.082031 39.742187-27.609375 39.742187-54.746094.074219-10.382812-2.492187-20.617187-7.460937-29.734375-1.511719-2.667968-1.476563-5.941406.09375-8.574218 1.566406-2.636719 4.429687-4.226563 7.492187-4.167969 3.066406.058593 5.867187 1.757812 7.332031 4.449219 6.375 11.65625 9.679688 24.742187 9.609375 38.027343 0 35.839844-22.625 65.933594-53.792969 71.546875-.5.085938-1.007812.132813-1.515624.132813zm0 0"/><path d="m499.042969 468.480469c-.507813 0-1.015625-.042969-1.515625-.132813-31.167969-5.613281-53.792969-35.707031-53.792969-71.546875-.070313-13.285156 3.234375-26.371093 9.609375-38.027343 1.46875-2.691407 4.265625-4.390626 7.332031-4.449219 3.066407-.058594 5.925781 1.53125 7.496094 4.167969 1.566406 2.632812 1.601563 5.90625.089844 8.574218-4.96875 9.117188-7.535157 19.351563-7.460938 29.734375 0 27.136719 17.085938 50.664063 39.742188 54.746094 4.355469.773437 7.394531 4.746094 7.003906 9.152344s-4.082031 7.78125-8.503906 7.78125zm0 0"/></svg>