<svg height="512pt" viewBox="0 0 512 512.00662" width="512pt" xmlns="http://www.w3.org/2000/svg"><path d="m187.738281 290.136719h136.53125v76.800781h-136.53125zm0 0" fill="#fec108"/><path d="m409.601562 503.46875h93.867188v-7.59375c.015625-10.929688-1.300781-21.816406-3.925781-32.425781l-7.933594-32.171875c-9.207031-33.558594-40.050781-56.558594-74.839844-55.808594h-321.535156c-34.789063-.75-65.632813 22.25-74.835937 55.808594l-7.9375 32.171875c-2.621094 10.609375-3.941407 21.496093-3.925782 32.425781v7.59375zm0 0" fill="#283593"/><path d="m384.003906 213.335938s11.066406-7.605469 25.597656-51.199219c8.535157-25.601563 8.535157-51.199219 0-68.269531-12.066406-24.132813-34.132812-34.132813-42.664062-59.730469-11 .613281-20.804688 7.148437-25.601562 17.066406 0 0 0-25.601563-34.132813-25.601563-18.597656.886719-36.855469-5.199218-51.199219-17.066406-19.390625 5.726563-39.515625 8.601563-59.734375 8.535156-34.132812 0-42.667969 25.597657-42.667969 25.597657-4.425781-4.871094-10.511718-7.914063-17.066406-8.53125 0 25.597656-22.0625 27.0625-34.132812 51.199219-8.53125 17.066406-17.066406 34.132812 0 76.800781 17.066406 42.664062 25.601562 51.199219 25.601562 51.199219zm0 0" fill="#37474f"/><path d="m358.335938 213.335938s8.875-7.605469 20.535156-51.199219c6.902344-22.234375 6.902344-46.035157 0-68.269531-9.679688-24.132813-27.378906-34.132813-34.226563-59.730469-9.671875 1-17.78125 7.738281-20.535156 17.066406 0-7.105469-2.945313-13.890625-8.132813-18.742187-5.191406-4.851563-12.15625-7.335938-19.246093-6.859376-15.5.457032-30.453125-5.757812-41.070313-17.066406-15.335937 5.675782-31.5625 8.5625-47.914062 8.535156-15.824219-.003906-29.757813 10.417969-34.222656 25.597657-3.117188-4.6875-8.109376-7.796875-13.691407-8.53125 0 25.597656-17.699219 27.0625-27.378906 51.199219-6.84375 17.066406-13.691406 34.132812 0 76.800781 13.691406 42.664062 20.535156 51.199219 20.535156 51.199219zm0 0" fill="#607d8b"/><path d="m196.269531 503.46875h-119.464843l28.925781-139.945312c2.945312-8.820313 11.558593-14.46875 20.820312-13.65625h35.585938s.9375 2.734374 2.558593 7.511718c.257813.683594.511719 1.449219.769532 2.21875 1.109375 3.15625 2.390625 6.996094 3.839844 11.433594.191406.84375.445312 1.671875.769531 2.476562.679687 2.300782 1.535156 4.863282 2.300781 7.507813.429688 1.28125.769531 2.558594 1.195312 3.839844 1.792969 5.972656 3.753907 12.542969 5.632813 19.457031.683594 2.558594 1.367187 5.121094 2.046875 7.765625 1.539062 5.714844 3.074219 11.605469 4.4375 17.578125.941406 3.925781 1.792969 7.765625 2.648438 11.691406.082031.425782.167968.9375.253906 1.363282.511718 2.644531 1.109375 5.292968 1.621094 7.851562.511718 2.644531 1.023437 5.289062 1.449218 7.9375.429688 2.644531.941406 5.203125 1.28125 7.847656.855469 5.207032 1.535156 10.328125 2.046875 15.445313.257813 2.476562.515625 4.949219.683594 7.425781.171875 2.472656.34375 4.863281.425781 7.253906.085938 1.363282.085938 2.730469.085938 4.007813.085937 1.027343.085937 2.050781.085937 2.988281zm0 0" fill="#283593"/><path d="m435.203125 503.46875h-119.464844c0-1.621094 0-3.328125.082031-5.035156-.011718-.65625.019532-1.308594.085938-1.960938.085938-2.390625.257812-4.78125.429688-7.253906.082031-1.28125.167968-2.558594.339843-3.839844.085938-1.195312.253907-2.390625.339844-3.585937.085937-1.023438.171875-2.046875.34375-3.070313.425781-4.097656 1.023437-8.191406 1.707031-12.375.339844-2.644531.851563-5.203125 1.277344-7.847656.425781-2.648438.941406-5.292969 1.453125-7.9375.511719-2.558594 1.109375-5.207031 1.621094-7.851562.085937-.425782.167969-.851563.253906-1.363282.855469-3.757812 1.707031-7.597656 2.5625-11.265625 0-.171875.082031-.253906.082031-.425781 1.367188-6.058594 2.902344-11.945312 4.4375-17.578125.683594-2.644531 1.367188-5.207031 2.050782-7.765625 1.875-7 3.839843-13.484375 5.628906-19.457031.429687-1.28125.769531-2.558594 1.195312-3.839844 1.792969-5.886719 3.414063-11.09375 4.949219-15.53125.34375-1.195313.769531-2.390625 1.109375-3.496094.34375-.855469.597656-1.625.855469-2.390625.253906-.769531.511719-1.535156.765625-2.21875.171875-.597656.34375-1.195312.511718-1.707031.171876-.511719.34375-1.023437.515626-1.449219.339843-.941406.59375-1.792968.851562-2.390625.128906-.496093.300781-.984375.511719-1.449219 0-.085937.085937-.171874.085937-.257812s0-.085938.085938-.171875v-.085937h35.582031c9.285156-.8125 17.921875 4.828124 20.90625 13.65625zm0 0" fill="#283593"/><path d="m384.003906 189.101562v58.367188c.011719 15.847656-6.277344 31.046875-17.484375 42.25-11.203125 11.207031-26.402343 17.496094-42.25 17.484375h-136.53125c-15.847656.011719-31.046875-6.277344-42.253906-17.484375-11.203125-11.203125-17.492187-26.402344-17.480469-42.25v-58.367188c-.113281-15.023437 3.183594-29.871093 9.640625-43.433593 8.109375-16.640625 21.675781-36.609375 41.558594-43.265625 25.601563-8.535156 42.667969 8.535156 76.800781 8.535156 34.132813 0 51.199219-17.070312 76.800782-8.535156 19.882812 6.65625 33.449218 26.625 41.554687 43.265625 6.457031 13.5625 9.753906 28.410156 9.644531 43.433593zm0 0" fill="#fec108"/><path d="m358.402344 189.101562v58.367188c0 33.023438-21.367188 59.734375-47.785156 59.734375h-109.226563c-26.417969 0-47.789063-26.710937-47.789063-59.734375v-58.367188c-.121093-14.832031 2.492188-29.554687 7.714844-43.433593 6.488282-16.640625 17.339844-36.609375 33.246094-43.265625 20.480469-8.535156 34.132812 8.535156 61.441406 8.535156 27.304688 0 40.960938-17.070312 61.4375-8.535156 15.90625 6.65625 26.761719 26.625 33.246094 43.265625 5.222656 13.878906 7.839844 28.601562 7.714844 43.433593zm0 0" fill="#ffdc00"/><path d="m162.144531 179.203125c-.699219 0-1.394531-.085937-2.074219-.257813l-30.804687-7.679687c-3.015625-.683594-5.425781-2.945313-6.300781-5.914063-.871094-2.964843-.070313-6.171874 2.09375-8.378906 2.164062-2.210937 5.355468-3.074218 8.339844-2.261718l30.804687 7.679687c4.175781 1.046875 6.917969 5.042969 6.394531 9.316406-.523437 4.273438-4.148437 7.488281-8.453125 7.496094zm0 0" fill="#2c2f38"/><path d="m349.863281 179.203125c-4.308593-.007813-7.933593-3.222656-8.457031-7.496094-.523438-4.273437 2.21875-8.269531 6.398438-9.316406l30.804687-7.679687c2.984375-.8125 6.171875.050781 8.335937 2.261718 2.167969 2.207032 2.96875 5.414063 2.09375 8.378906-.871093 2.96875-3.28125 5.230469-6.296874 5.914063l-30.804688 7.679687c-.679688.171876-1.375.257813-2.074219.257813zm0 0" fill="#2c2f38"/><path d="m358.402344 349.867188s-65.023438 40.023437-89.085938 58.027343c-7.035156 3.941407-11.921875 10.832031-13.3125 18.773438 0-7.167969-6.742187-14.421875-16.46875-20.992188-24.746094-16.980469-85.933594-55.808593-85.933594-55.808593zm0 0" fill="#f0c419"/><path d="m349.871094 388.300781c-2.042969 5.367188-4.277344 11.199219-6.414063 17.492188-.777343 2.304687-1.554687 4.601562-2.332031 6.980469-1.75 5.0625-3.5 10.355468-5.054688 15.804687-1.066406 3.449219-2.039062 6.980469-3.011718 10.507813-.097656.460937-.195313.84375-.289063 1.230468-.683593 2.375-1.265625 4.679688-1.847656 7.054688-.582031 2.378906-1.164063 4.757812-1.652344 7.136718-.582031 2.378907-1.066406 4.679688-1.457031 7.058594-.972656 4.679688-1.75 9.359375-2.332031 13.882813-.390625 2.226562-.582031 4.523437-.777344 6.675781-.292969 2.226562-.390625 4.449219-.484375 6.523438-.082031.582031-.113281 1.171874-.097656 1.761718-.097656 1.535156-.097656 3.074219-.097656 4.527344h-136.039063c0-32.835938-14.574219-77.175781-25.847656-106.636719 10.75 7.207031 22.847656 12.164063 35.5625 14.574219 9.71875-15.339844 38.871093-15.339844 38.871093-15.339844l.683594-3.53125c11.070313 5.90625 18.75 12.425782 18.75 18.871094 0-5.753906 6.023438-11.507812 15.15625-16.878906l4.277344 1.539062s1.070312 0 2.722656.074219c7.480469.460937 28.273438 2.839844 36.144532 15.265625 12.71875-2.410156 24.8125-7.371094 35.566406-14.574219zm0 0" fill="#bb193b"/><path d="m196.269531 503.46875h-17.066406c-8.53125-25.601562-42.667969-34.132812-42.667969-34.132812 3.28125-12.429688 9.089844-24.050782 17.066406-34.132813l-17.066406-8.535156c0-51.199219 17.066406-76.800781 17.066406-76.800781h8.535157s.9375 2.734374 2.558593 7.511718c.257813.683594.511719 1.449219.769532 2.21875 1.109375 3.15625 2.390625 6.996094 3.839844 11.433594.191406.84375.445312 1.671875.769531 2.476562.679687 2.300782 1.535156 4.863282 2.300781 7.507813.429688 1.28125.769531 2.558594 1.195312 3.839844 1.792969 5.972656 3.753907 12.542969 5.632813 19.457031.683594 2.558594 1.367187 5.121094 2.046875 7.765625 1.539062 5.714844 3.074219 11.605469 4.4375 17.578125.941406 3.925781 1.792969 7.765625 2.648438 11.691406.082031.425782.167968.9375.253906 1.363282.511718 2.644531 1.109375 5.292968 1.621094 7.851562.511718 2.644531 1.023437 5.289062 1.449218 7.9375.429688 2.644531.941406 5.203125 1.28125 7.847656.855469 5.207032 1.535156 10.328125 2.046875 15.445313.257813 2.476562.515625 4.949219.683594 7.425781.171875 2.472656.34375 4.863281.425781 7.253906.085938 1.363282.085938 2.730469.085938 4.007813.085937 1.027343.085937 2.050781.085937 2.988281zm0 0" fill="#3f51b5"/><path d="m358.402344 435.203125c7.976562 10.082031 13.789062 21.703125 17.066406 34.132813 0 0-34.132812 8.53125-42.664062 34.132812h-17.066407c0-1.621094 0-3.328125.082031-5.035156-.011718-.65625.019532-1.308594.085938-1.960938.085938-2.390625.257812-4.78125.429688-7.253906.082031-1.28125.167968-2.558594.339843-3.839844.085938-1.195312.253907-2.390625.339844-3.585937.085937-1.023438.171875-2.046875.34375-3.070313.425781-4.097656 1.023437-8.191406 1.707031-12.375.339844-2.644531.851563-5.203125 1.277344-7.847656.425781-2.648438.941406-5.292969 1.453125-7.9375.511719-2.558594 1.109375-5.207031 1.621094-7.851562.085937-.425782.167969-.851563.253906-1.363282.855469-3.757812 1.707031-7.597656 2.5625-11.265625 0-.171875.082031-.253906.082031-.425781 1.367188-6.058594 2.902344-11.945312 4.4375-17.578125.683594-2.644531 1.367188-5.207031 2.050782-7.765625 1.875-7 3.839843-13.484375 5.628906-19.457031.429687-1.28125.769531-2.558594 1.195312-3.839844 1.792969-5.886719 3.414063-11.09375 4.949219-15.53125.34375-1.195313.769531-2.390625 1.109375-3.496094.34375-.855469.597656-1.625.855469-2.390625.253906-.769531.511719-1.535156.765625-2.21875.171875-.597656.34375-1.195312.511718-1.707031.171876-.511719.34375-1.023437.515626-1.449219.339843-.941406.59375-1.792968.851562-2.390625.128906-.496093.300781-.984375.511719-1.449219 0-.085937.085937-.171874.085937-.257812s0-.085938.085938-.171875v-.085937h8.53125s17.066406 25.601562 17.066406 76.800781zm0 0" fill="#3f51b5"/><path d="m162.136719 162.136719h68.265625c4.714844 0 8.535156 3.820312 8.535156 8.53125v17.066406c0 18.851563-15.28125 34.132813-34.132812 34.132813h-8.535157c-18.851562 0-34.132812-15.28125-34.132812-34.132813zm0 0" fill="#673ab7"/><path d="m281.601562 162.136719h68.269532v25.597656c0 18.851563-15.28125 34.132813-34.132813 34.132813h-8.535156c-18.851563 0-34.132813-15.28125-34.132813-34.132813v-17.066406c0-4.710938 3.820313-8.53125 8.53125-8.53125zm0 0" fill="#673ab7"/><path d="m299.738281 242.667969c-4.707031 14.523437-26.84375 21.660156-38.832031 23.757812-12.015625 2.101563-34.261719 4.0625-43.621094-8 13.984375.84375 28.015625.101563 41.832032-2.210937 13.996093-3.003906 27.621093-7.546875 40.621093-13.546875zm0 0"/><path d="m238.9375 380.078125-.597656 3.925781s-25.601563 0-34.132813 17.066406c-11.554687-2.839843-22.265625-8.398437-31.234375-16.214843-6.3125-20.820313-11.433594-34.988281-11.433594-34.988281h8.535157c24.101562 7.222656 47.226562 17.367187 68.863281 30.210937zm0 0" fill="#ef314c"/><path d="m353.625 349.867188s-1.023438 2.734374-2.558594 7.511718c-.308594.71875-.566406 1.460938-.769531 2.21875-1.878906 5.375-4.265625 12.714844-6.914063 21.417969-.425781 1.195313-.765624 2.558594-1.191406 3.839844-8.96875 7.816406-19.679687 13.375-31.234375 16.214843-6.910156-13.824218-25.171875-16.46875-31.742187-16.984374-1.453125-.082032-2.390625-.082032-2.390625-.082032l-3.753907-1.707031c24.0625-18.007813 72.019532-32.429687 72.019532-32.429687zm0 0" fill="#ef314c"/><path d="m435.203125 512.003906h-358.398437c-2.566407 0-4.996094-1.15625-6.617188-3.144531s-2.261719-4.601563-1.742188-7.113281l28.90625-139.921875c3.726563-12.847657 15.890626-21.371094 29.234376-20.488281h258.894531c13.363281-.882813 25.535156 7.667968 29.230469 20.542968l28.855468 139.867188c.519532 2.511718-.121094 5.125-1.742187 7.113281-1.625 1.992187-4.054688 3.144531-6.621094 3.144531zm-347.925781-17.066406h337.453125l-26.742188-129.664062c-2.257812-4.742188-7.296875-7.511719-12.507812-6.871094h-258.894531c-5.199219-.636719-10.226563 2.109375-12.507813 6.828125zm0 0"/><path d="m324.269531 358.402344h-136.53125c-4.714843 0-8.535156-3.820313-8.535156-8.535156v-42.664063c0-4.714844 3.820313-8.535156 8.535156-8.535156h136.53125c4.714844 0 8.535157 3.820312 8.535157 8.535156v42.664063c0 4.714843-3.820313 8.535156-8.535157 8.535156zm-128-17.066406h119.46875v-25.601563h-119.46875zm0 0"/><path d="m324.269531 315.734375h-136.53125c-37.6875-.042969-68.226562-30.582031-68.269531-68.265625v-58.367188c-.125-16.3125 3.460938-32.4375 10.496094-47.152343 8.527344-17.496094 23.507812-39.9375 46.535156-47.636719 14.703125-4.171875 30.367188-3.414062 44.597656 2.160156 11.285156 3.671875 23.042969 5.667969 34.90625 5.929688 11.863282-.261719 23.625-2.257813 34.90625-5.929688 14.230469-5.574218 29.890625-6.332031 44.59375-2.164062 23.03125 7.707031 38.015625 30.148437 46.53125 47.613281 7.039063 14.726563 10.628906 30.859375 10.5 47.179687v58.367188c-.042968 37.683594-30.582031 68.222656-68.265625 68.265625zm-130.472656-207.199219c-4.046875-.003906-8.0625.660156-11.894531 1.964844-17.40625 5.824219-29.507813 24.371094-36.582032 38.902344-5.90625 12.394531-8.910156 25.96875-8.785156 39.699218v58.367188c.03125 28.265625 22.9375 51.167969 51.203125 51.199219h136.53125c28.265625-.03125 51.167969-22.933594 51.199219-51.199219v-58.367188c.128906-13.738281-2.878906-27.320312-8.789062-39.722656-7.066407-14.511718-19.164063-33.058594-36.582032-38.886718-11.890625-3.960938-21.398437-1.296876-34.574218 2.414062-12.78125 4.105469-26.097657 6.316406-39.519532 6.5625-13.421875-.246094-26.734375-2.457031-39.519531-6.5625-7.328125-2.480469-14.960937-3.949219-22.6875-4.371094zm0 0"/><path d="m102.402344 512.003906h-93.867188c-4.710937 0-8.53124975-3.820312-8.53124975-8.535156v-7.59375c-.0078125-11.617188 1.39453175-23.195312 4.17578175-34.476562l7.933593-32.160157c10.023438-37.453125 44.363281-63.191406 83.121094-62.300781h8.023437c4.710938 0 8.53125 3.820312 8.53125 8.53125 0 4.714844-3.820312 8.535156-8.53125 8.535156h-8.023437c-30.898437-.875-58.390625 19.492188-66.558594 49.304688l-7.9375 32.179687c-2.371093 9.640625-3.605469 19.523438-3.667969 29.449219h85.332032c4.714844 0 8.535156 3.820312 8.535156 8.53125 0 4.714844-3.820312 8.535156-8.535156 8.535156zm0 0"/><path d="m503.46875 512.003906h-93.867188c-4.710937 0-8.53125-3.820312-8.53125-8.535156 0-4.710938 3.820313-8.53125 8.53125-8.53125h85.335938c-.066406-9.925781-1.300781-19.808594-3.675781-29.441406l-7.9375-32.179688c-8.164063-29.816406-35.652344-50.183594-66.554688-49.3125h-7.933593c-4.714844 0-8.535157-3.820312-8.535157-8.535156 0-4.710938 3.820313-8.53125 8.535157-8.53125h7.933593c38.765625-.894531 73.109375 24.847656 83.128907 62.308594l7.933593 32.160156c2.78125 11.277344 4.179688 22.851562 4.171875 34.46875v7.59375c0 4.714844-3.820312 8.535156-8.535156 8.535156zm0 0"/><path d="m384.011719 221.867188c-3.671875.007812-6.933594-2.332032-8.101563-5.8125-1.171875-3.476563.015625-7.316407 2.941406-9.527344.652344-.585938 10.191407-9.703125 22.660157-47.089844 7.726562-23.199219 7.90625-46.859375.457031-61.75-5.039062-9.167969-11.421875-17.53125-18.933594-24.808594-8.730468-8.429687-15.984375-18.265625-21.457031-29.101562-5.535156 1.910156-10.078125 5.957031-12.609375 11.238281-1.769531 3.539063-5.738281 5.398437-9.589844 4.492187-3.851562-.910156-6.574218-4.347656-6.574218-8.304687-.085938-2.75-1.707032-17.066406-25.601563-17.066406-18.984375.488281-37.621094-5.167969-53.132813-16.128907-18.855468 5.035157-38.285156 7.589844-57.800781 7.59375-27.667969 0-34.507812 19.566407-34.574219 19.765626-.9375 2.804687-3.257812 4.925781-6.132812 5.601562-2.878906.679688-5.902344-.179688-7.992188-2.265625-1.195312-1.203125-2.511718-2.28125-3.925781-3.214844-3.203125 9.714844-9.300781 18.214844-17.472656 24.363281-6.605469 5.300782-12.089844 11.859376-16.136719 19.300782-8.242187 16.476562-15.347656 30.703125.292969 69.8125s23.550781 48.144531 23.875 48.511718c3.113281 3.449219 2.9375 8.742188-.398437 11.976563-3.308594 3.199219-8.570313 3.160156-11.835938-.085937-1.632812-1.628907-10.625-11.910157-27.492188-54.0625-18.488281-46.226563-8.507812-66.179688.292969-83.789063 4.980469-9.355469 11.769531-17.628906 19.976563-24.339844 8.265625-7.453125 13.257812-11.953125 13.257812-23.039062 0-4.714844 3.820313-8.535157 8.53125-8.535157 5.074219.25 10.011719 1.738282 14.375 4.339844 10.535156-14.339844 27.59375-22.390625 45.359375-21.40625 19.300781.0625 38.511719-2.664062 57.035157-8.09375 3.066406-1.027344 6.449218-.226562 8.730468 2.0625 12.757813 10.238282 28.835938 15.421875 45.167969 14.566406 14.527344-1.339843 28.6875 5.066407 37.265625 16.867188 6.4375-5.054688 14.292969-7.96875 22.46875-8.335938 3.671875 0 6.929688 2.351563 8.089844 5.835938 4.511718 11.332031 11.511718 21.511719 20.480468 29.78125 8.65625 8.460938 15.984376 18.183594 21.734376 28.835938 9.539062 19.078124 9.707031 47.035156.457031 74.785156-14.691407 44.074218-26.617188 53.992187-28.859375 55.53125-1.417969.976562-3.105469 1.5-4.828125 1.496094zm0 0"/><path d="m204.804688 230.402344h-8.535157c-23.550781-.027344-42.636719-19.113282-42.667969-42.667969v-17.066406c.011719-9.421875 7.648438-17.054688 17.070313-17.066407h59.730469c9.421875.011719 17.058594 7.644532 17.066406 17.066407v17.066406c-.027344 23.554687-19.113281 42.640625-42.664062 42.667969zm-34.132813-59.734375v17.066406c.011719 14.132813 11.464844 25.585937 25.597656 25.601563h8.535157c14.128906-.015626 25.582031-11.46875 25.597656-25.601563v-17.066406zm0 0"/><path d="m315.738281 230.402344h-8.535156c-23.550781-.027344-42.640625-19.113282-42.667969-42.667969v-17.066406c.011719-9.421875 7.648438-17.054688 17.066406-17.066407h59.734376c9.421874.011719 17.054687 7.644532 17.066406 17.066407v17.066406c-.027344 23.554687-19.113282 42.640625-42.664063 42.667969zm-34.136719-59.734375v17.066406c.015626 14.132813 11.46875 25.585937 25.601563 25.601563h8.535156c14.128907-.015626 25.582031-11.46875 25.597657-25.601563v-17.066406zm0 0"/><path d="m273.070312 179.203125h-34.132812c-4.714844 0-8.535156-3.820313-8.535156-8.535156 0-4.710938 3.820312-8.53125 8.535156-8.53125h34.132812c4.710938 0 8.53125 3.820312 8.53125 8.53125 0 4.714843-3.820312 8.535156-8.53125 8.535156zm0 0"/><path d="m162.144531 179.203125c-.699219 0-1.394531-.085937-2.074219-.257813l-30.804687-7.679687c-3.015625-.683594-5.425781-2.945313-6.300781-5.914063-.871094-2.964843-.070313-6.171874 2.09375-8.378906 2.164062-2.210937 5.355468-3.074218 8.339844-2.261718l30.804687 7.679687c4.175781 1.046875 6.917969 5.042969 6.394531 9.316406-.523437 4.273438-4.148437 7.488281-8.453125 7.496094zm0 0"/><path d="m349.863281 179.203125c-4.308593-.007813-7.933593-3.222656-8.457031-7.496094-.523438-4.273437 2.21875-8.269531 6.398438-9.316406l30.804687-7.679687c2.984375-.8125 6.171875.050781 8.335937 2.261718 2.167969 2.207032 2.96875 5.414063 2.09375 8.378906-.871093 2.96875-3.28125 5.230469-6.296874 5.914063l-30.804688 7.679687c-.679688.171876-1.375.257813-2.074219.257813zm0 0"/><path d="m256.003906 409.601562c-4.714844 0-8.535156-3.820312-8.535156-8.53125 0-11.332031-41.765625-31.769531-79.25-43.027343-2.917969-.875-5.152344-3.242188-5.851562-6.207031-.703126-2.96875.230468-6.085938 2.449218-8.175782 2.21875-2.09375 5.382813-2.839844 8.304688-1.964844 21.449218 6.433594 91.414062 29.726563 91.414062 59.375 0 4.710938-3.820312 8.53125-8.53125 8.53125zm0 0"/><path d="m204.804688 409.601562c-.5625 0-1.125-.058593-1.675782-.167968-13.027344-3.140625-25.109375-9.378906-35.210937-18.1875-3.53125-3.117188-3.863281-8.511719-.742188-12.042969 3.121094-3.535156 8.511719-3.867187 12.042969-.746094 6.445312 5.570313 13.886719 9.867188 21.933594 12.664063 12.742187-15.457032 36.660156-15.652344 37.785156-15.652344 4.710938-.007812 8.539062 3.808594 8.542969 8.519531.007812 4.714844-3.804688 8.539063-8.519531 8.546875-.390626.003906-20.617188.523438-26.523438 12.351563-1.449219 2.886719-4.402344 4.714843-7.632812 4.714843zm0 0"/><path d="m307.203125 409.601562c-3.234375 0-6.1875-1.828124-7.632813-4.71875-5-10-20.222656-11.933593-24.777343-12.289062-.90625-.050781-1.636719-.058594-1.738281-.058594-4.714844-.003906-8.53125-3.828125-8.527344-8.542968.003906-4.710938 3.828125-8.527344 8.542968-8.523438 0 0 1.125 0 2.882813.097656 13.203125.492188 25.707031 6.066406 34.902344 15.558594 8.042969-2.796875 15.488281-7.09375 21.929687-12.664062 3.53125-3.121094 8.925782-2.785157 12.046875.746093 3.121094 3.53125 2.785157 8.925781-.746093 12.046875-10.101563 8.804688-22.179688 15.042969-35.207032 18.183594-.550781.109375-1.113281.164062-1.675781.164062zm0 0"/><path d="m196.269531 512.003906c-4.710937 0-8.53125-3.820312-8.53125-8.535156 0-57.519531-33.28125-149.757812-33.617187-150.683594-1.125-2.882812-.597656-6.148437 1.371094-8.535156 1.972656-2.382812 5.082031-3.515625 8.125-2.953125 3.042968.558594 5.542968 2.722656 6.535156 5.65625 1.417968 3.890625 34.652344 95.972656 34.652344 156.515625 0 4.714844-3.820313 8.535156-8.535157 8.535156zm0 0"/><path d="m315.738281 512.003906c-4.714843 0-8.535156-3.820312-8.535156-8.535156 0-60.542969 33.234375-152.625 34.644531-156.515625.992188-2.933594 3.496094-5.097656 6.539063-5.65625 3.042969-.5625 6.152343.570313 8.121093 2.953125 1.972657 2.386719 2.5 5.652344 1.375 8.535156-.332031.925782-33.613281 93.164063-33.613281 150.683594 0 4.714844-3.820312 8.535156-8.53125 8.535156zm0 0"/><path d="m256.003906 426.667969c-4.714844 0-8.535156-3.820313-8.535156-8.53125v-17.066407c0-29.648437 69.96875-52.941406 91.417969-59.375 2.921875-.875 6.085937-.128906 8.304687 1.964844 2.21875 2.089844 3.152344 5.207032 2.449219 8.175782-.703125 2.964843-2.933594 5.332031-5.855469 6.207031-37.480468 11.257812-79.25 31.695312-79.25 43.027343v17.066407c0 4.710937-3.820312 8.53125-8.53125 8.53125zm0 0"/><path d="m179.203125 512.007812c-3.671875-.003906-6.929687-2.355468-8.089844-5.839843-6.929687-20.765625-36.367187-28.480469-36.667969-28.554688-2.300781-.585937-4.253906-2.097656-5.390624-4.179687-1.136719-2.082032-1.359376-4.542969-.609376-6.796875 3.117188-9.835938 7.292969-19.308594 12.441407-28.25l-8.164063-4.085938c-2.894531-1.445312-4.71875-4.398437-4.71875-7.632812 0-53.171875 17.742188-80.398438 18.5-81.53125 2.605469-3.929688 7.902344-5 11.828125-2.398438 3.929688 2.605469 5 7.902344 2.398438 11.832031-.171875.246094-14.519531 22.78125-15.59375 66.855469l12.285156 6.144531c2.453125 1.226563 4.167969 3.558594 4.605469 6.265626.441406 2.707031-.449219 5.460937-2.386719 7.402343-5.277344 6.867188-9.375 14.566407-12.125 22.78125 12.046875 4.742188 32.773437 15.703125 39.78125 36.746094.867187 2.605469.429687 5.464844-1.171875 7.691406-1.601562 2.226563-4.179688 3.546875-6.921875 3.550781zm0 0"/><path d="m332.804688 512.007812c-2.742188-.003906-5.316407-1.324218-6.921876-3.550781-1.601562-2.226562-2.035156-5.085937-1.171874-7.6875 7.007812-21.042969 27.734374-32 39.785156-36.746093-2.757813-8.257813-6.886719-15.992188-12.21875-22.875-1.863282-1.976563-2.691406-4.714844-2.230469-7.390626.449219-2.664062 2.132813-4.957031 4.539063-6.1875l12.285156-6.144531c-1.078125-44.089843-15.445313-66.628906-15.59375-66.863281-2.578125-3.925781-1.496094-9.199219 2.421875-11.792969 3.914062-2.597656 9.191406-1.539062 11.804687 2.363281.757813 1.136719 18.5 28.363282 18.5 81.535157 0 3.234375-1.824218 6.1875-4.71875 7.632812l-8.164062 4.085938c5.148437 8.941406 9.320312 18.410156 12.441406 28.25.753906 2.253906.535156 4.722656-.609375 6.808593-1.144531 2.085938-3.109375 3.597657-5.417969 4.167969-.273437.074219-29.714844 7.789063-36.640625 28.554688-1.160156 3.484375-4.417969 5.835937-8.089843 5.839843zm0 0"/></svg>