<svg height="512pt" viewBox="0 0 512 512.00427" width="512pt" xmlns="http://www.w3.org/2000/svg"><path d="m409.601562 503.464844h93.867188v-7.59375c.015625-10.925782-1.304688-21.816406-3.925781-32.425782l-7.933594-32.171874c-9.207031-33.554688-40.050781-56.558594-74.839844-55.808594h-321.535156c-34.789063-.75-65.632813 22.253906-74.835937 55.808594l-7.9375 32.171874c-2.621094 10.609376-3.941407 21.5-3.925782 32.425782v7.59375zm0 0" fill="#0377bc"/><path d="m187.734375 273.066406h136.535156v110.933594h-136.535156zm0 0" fill="#fec108"/><path d="m435.203125 503.464844h-358.402344l28.910157-139.921875c2.960937-8.835938 11.589843-14.488281 20.871093-13.675781h258.894531c9.28125-.8125 17.910157 4.839843 20.871094 13.675781zm0 0" fill="#02a9f4"/><path d="m384.003906 105.644531v141.820313c.011719 15.847656-6.28125 31.046875-17.484375 42.253906-11.203125 11.203125-26.40625 17.492188-42.25 17.480469h-136.535156c-15.84375.011719-31.042969-6.277344-42.25-17.480469-11.203125-11.207031-17.492187-26.40625-17.480469-42.253906v-136.53125zm0 0" fill="#fec108"/><path d="m358.402344 105.644531v141.820313c0 33.027344-21.367188 59.734375-47.785156 59.734375h-109.226563c-26.421875 0-47.789063-26.707031-47.789063-59.734375v-136.53125zm0 0" fill="#ffdc00"/><path d="m413.285156 150.917969c-.726562 2.574219-2.621094 4.65625-5.117187 5.625-2.492188.96875-5.296875.710937-7.570313-.695313-16.632812-10.363281-56.296875-29.894531-118.996094-29.894531-82.347656 0-156.84375 34.21875-215.636718 36.09375-3.808594-.03125-7.140625-2.566406-8.191406-6.226563l-4.183594-13.3125c-.78125-2.277343-.597656-4.777343.511718-6.914062 83.628907-25.597656 117.675782-84.5625 210.433594-101.460938 53.679688-10.566406 109.335938 1.777344 153.515625 34.046876l.339844-.082032c.457031 1.351563.742187 2.757813.855469 4.179688 2.5625 26.359375.546875 52.964844-5.960938 78.640625zm0 0" fill="#3f51b5"/><path d="m418.390625 68.097656-.339844.082032c-2.046875-1.621094-44.972656-33.621094-136.449219-16.980469-92.757812 16.898437-143.871093 58.796875-227.5 84.394531.6875-1.695312 1.960938-3.089844 3.585938-3.925781 13.398438-7.335938 44.203125-26.023438 61.78125-50.855469 25.601562-36.097656 51.199219-72.277344 136.535156-72.277344 50.6875 0 112.210938 24.148438 154.792969 49.664063 3.671875 2.242187 6.375 5.769531 7.59375 9.898437zm0 0" fill="#283593"/><path d="m290.136719 503.464844c17.066406-42.664063-8.535157-68.265625-8.535157-68.265625l-4.800781-20 38.933594 2.933593c21.34375 23.367188 33.472656 53.691407 34.132813 85.332032zm0 0" fill="#ad1457"/><path d="m204.800781 426.667969c-8.703125 6.226562-34.132812 29.011719-34.132812 76.796875h51.199219c.976562-26.617188 13.425781-51.511719 34.136718-68.265625l-2.402344-18.933594zm0 0" fill="#ad1457"/><path d="m183.46875 253.8125c-7.214844-.292969-14.003906-3.480469-18.832031-8.847656-3.234375-3.347656-3.1875-8.667969.101562-11.960938 3.292969-3.292968 8.617188-3.335937 11.964844-.105468 5.183594 5.183593 8.347656 5.183593 13.53125 0 10.925781-12.539063 28.675781-16.628907 43.984375-10.132813 4.175781 2.109375 5.875 7.1875 3.8125 11.386719-2.066406 4.195312-7.125 5.949218-11.34375 3.925781-8.765625-3.171875-18.578125-.398437-24.386719 6.890625-4.828125 5.363281-11.617187 8.554688-18.832031 8.84375zm0 0"/><path d="m328.535156 253.8125c-7.210937-.292969-14.003906-3.480469-18.832031-8.847656-5.765625-7.289063-15.539063-10.078125-24.285156-6.933594-2.726563 1.367188-5.972657 1.171875-8.519531-.507812-2.542969-1.679688-3.996094-4.589844-3.816407-7.632813.183594-3.046875 1.976563-5.761719 4.703125-7.125 15.308594-6.484375 33.054688-2.398437 43.984375 10.132813 5.183594 5.183593 8.347657 5.183593 13.53125 0 3.351563-3.230469 8.671875-3.1875 11.964844.105468 3.289063 3.292969 3.335937 8.613282.101563 11.960938-4.828126 5.367187-11.617188 8.554687-18.832032 8.847656zm0 0"/><path d="m418.136719 68.265625-.085938-.085937" fill="#2c3e50"/><g fill="#e91e63"><path d="m375.46875 349.867188c-1.011719 22.355468-10.109375 43.582031-25.601562 59.734374-15.894532 15.15625-38.226563 21.535157-59.730469 17.066407v-34.132813c25.597656-8.535156 34.132812-42.667968 34.132812-42.667968zm0 0"/><path d="m136.535156 349.867188c0 102.398437 110.933594 76.800781 110.933594 76.800781v-34.132813s-68.265625 0-68.265625-42.667968zm0 0"/><path d="m256.003906 384h25.597656c9.425782 0 17.066407 7.640625 17.066407 17.066406v17.066406c0 9.425782-7.640625 17.066407-17.066407 17.066407h-25.597656c-9.425781 0-17.070312-7.640625-17.070312-17.066407v-17.066406c0-9.425781 7.644531-17.066406 17.070312-17.066406zm0 0"/></g><path d="m296.34375 256c-6.894531 13.492188-28.417969 15.402344-40.171875 15.402344-11.78125 0-33.273437-1.910156-40.167969-15.402344 13.144532 3.238281 26.628906 4.929688 40.167969 5.035156 13.542969-.105468 27.023437-1.796875 40.171875-5.035156zm0 0"/><path d="m233.652344 167.160156c-8.109375-2.984375-16.628906-4.710937-25.257813-5.121094-11.605469-.878906-23.214843 1.597657-33.453125 7.132813 1.167969-14.933594 35.789063-17.886719 52.714844-14.046875 2.683594.335938 5.019531 1.992188 6.222656 4.410156 1.207032 2.417969 1.121094 5.28125-.226562 7.625zm0 0"/><path d="m230.402344 193.546875c0-10.101563-7.640625-18.292969-17.066406-18.292969-9.425782 0-17.066407 8.191406-17.066407 18.292969s7.640625 18.292969 17.066407 18.292969c9.425781 0 17.066406-8.191406 17.066406-18.292969zm0 0"/><path d="m218.121094 177.671875c-4.40625-1.671875-9.335938.539063-11.011719 4.945313-1.675781 4.402343.539063 9.332031 4.945313 11.007812 4.402343 1.675781 9.332031-.535156 11.007812-4.941406s-.539062-9.335938-4.941406-11.011719zm0 0" fill="#fff"/><path d="m278.351562 167.160156c8.109376-2.984375 16.628907-4.710937 25.261719-5.121094 11.601563-.878906 23.210938 1.597657 33.449219 7.132813-1.167969-14.933594-35.789062-17.886719-52.714844-14.046875-2.683594.335938-5.019531 1.992188-6.222656 4.410156-1.207031 2.417969-1.121094 5.28125.226562 7.625zm0 0"/><path d="m315.734375 193.546875c0-10.101563-7.640625-18.292969-17.066406-18.292969s-17.066407 8.191406-17.066407 18.292969 7.640626 18.292969 17.066407 18.292969 17.066406-8.191406 17.066406-18.292969zm0 0"/><path d="m304.894531 182.617188c-1.675781-4.40625-6.605469-6.617188-11.011719-4.945313-4.402343 1.675781-6.617187 6.605469-4.941406 11.011719 1.675782 4.40625 6.605469 6.617187 11.011719 4.941406 4.402344-1.675781 6.617187-6.605469 4.941406-11.007812zm0 0" fill="#fff"/><path d="m435.203125 512h-358.402344c-2.566406 0-4.996093-1.152344-6.613281-3.144531-1.621094-1.988281-2.261719-4.601563-1.742188-7.113281l28.90625-139.921876c3.726563-12.84375 15.886719-21.367187 29.234376-20.488281h258.890624c13.363282-.882812 25.535157 7.671875 29.234376 20.542969l28.855468 139.867188c.515625 2.511718-.125 5.128906-1.746094 7.117187-1.621093 1.988281-4.050781 3.140625-6.617187 3.140625zm-347.925781-17.066406h337.449218l-26.742187-129.664063c-2.253906-4.742187-7.292969-7.511719-12.507813-6.871093h-258.890624c-5.199219-.632813-10.230469 2.109374-12.507813 6.828124zm0 0"/><path d="m324.269531 358.398438h-136.535156c-4.710937 0-8.53125-3.820313-8.53125-8.53125v-42.667969c0-4.710938 3.820313-8.53125 8.53125-8.53125h136.535156c4.710938 0 8.53125 3.820312 8.53125 8.53125v42.667969c0 4.710937-3.820312 8.53125-8.53125 8.53125zm-128-17.066407h119.464844v-25.597656h-119.464844zm0 0"/><path d="m324.269531 315.734375h-136.535156c-37.683594-.042969-68.222656-30.582031-68.265625-68.269531v-95.230469c0-4.710937 3.820312-8.53125 8.535156-8.53125 4.710938 0 8.53125 3.820313 8.53125 8.53125v95.230469c.03125 28.265625 22.9375 51.171875 51.199219 51.203125h136.535156c28.261719-.03125 51.167969-22.9375 51.199219-51.203125v-100.519532c0-4.714843 3.820312-8.535156 8.535156-8.535156 4.710938 0 8.53125 3.820313 8.53125 8.535156v100.519532c-.042968 37.6875-30.582031 68.226562-68.265625 68.269531zm0 0"/><path d="m102.402344 512h-93.867188c-4.710937 0-8.53124975-3.820312-8.53124975-8.535156v-7.59375c-.0078125-11.617188 1.39453175-23.191406 4.17187475-34.472656l7.9375-32.164063c10.023438-37.449219 44.363281-63.1875 83.121094-62.300781h8.019531c4.714844 0 8.535156 3.820312 8.535156 8.53125 0 4.714844-3.820312 8.535156-8.535156 8.535156h-8.019531c-30.902344-.871094-58.390625 19.496094-66.558594 49.308594l-7.9375 32.179687c-2.375 9.636719-3.605469 19.519531-3.667969 29.445313h85.332032c4.710937 0 8.53125 3.820312 8.53125 8.53125 0 4.714844-3.820313 8.535156-8.53125 8.535156zm0 0"/><path d="m503.46875 512h-93.867188c-4.710937 0-8.53125-3.820312-8.53125-8.535156 0-4.710938 3.820313-8.53125 8.53125-8.53125h85.332032c-.0625-9.925782-1.296875-19.804688-3.671875-29.441406l-7.9375-32.179688c-8.164063-29.8125-35.652344-50.183594-66.554688-49.3125h-7.933593c-4.714844 0-8.535157-3.820312-8.535157-8.535156 0-4.710938 3.820313-8.53125 8.535157-8.53125h7.933593c38.765625-.890625 73.109375 24.851562 83.125 62.308594l7.9375 32.160156c2.777344 11.28125 4.179688 22.855468 4.171875 34.46875v7.59375c0 4.714844-3.820312 8.535156-8.535156 8.535156zm0 0"/><path d="m409.601562 170.667969c-2.011718 0-3.960937-.710938-5.5-2.011719-.648437-.535156-41.984374-34.132812-122.5-34.132812-45.074218 0-88.839843 10.734374-127.457031 20.207031-28.695312 8.183593-58.136719 13.492187-87.882812 15.851562-7.636719.054688-14.402344-4.90625-16.652344-12.203125l-4.199219-13.320312c-2.59375-8.03125.832032-16.773438 8.183594-20.90625 12.148438-6.664063 42.226562-24.710938 58.910156-48.269532 26.421875-37.304687 53.75-75.882812 143.5-75.882812 54.691406 0 118.097656 26.300781 159.199219 50.914062 7.207031 4.464844 11.863281 12.097657 12.53125 20.550782 3.34375 31.597656-.117187 63.539062-10.152344 93.683594-1.25 3.324218-4.429687 5.523437-7.980469 5.519531zm-153.597656-153.601563c-80.917968 0-104.550781 33.367188-129.570312 68.683594-18.738282 26.453125-51.449219 46.132812-64.640625 53.367188l4.101562 14.140624c28.503907-2.144531 56.710938-7.207031 84.183594-15.101562 39.558594-9.703125 84.394531-20.699219 131.523437-20.699219 64.726563 0 105.777344 20.054688 123.484376 31.109375 6.191406-24.675781 8.101562-50.234375 5.648437-75.558594-.171875-3.023437-1.765625-5.789062-4.300781-7.453124-37.347656-22.367188-99.15625-48.488282-150.429688-48.488282zm0 0"/><path d="m281.601562 443.734375h-25.597656c-14.132812-.015625-25.585937-11.46875-25.601562-25.601563v-17.066406c.015625-14.132812 11.46875-25.585937 25.601562-25.601562h25.597656c14.132813.015625 25.585938 11.46875 25.601563 25.601562v17.066406c-.015625 14.132813-11.46875 25.585938-25.601563 25.601563zm-25.597656-51.199219c-4.710937.003906-8.53125 3.820313-8.535156 8.53125v17.066406c.003906 4.710938 3.824219 8.53125 8.535156 8.535157h25.597656c4.710938-.003907 8.53125-3.824219 8.535157-8.535157v-17.066406c-.003907-4.710937-3.824219-8.527344-8.535157-8.53125zm0 0"/><path d="m298.667969 401.070312c-4.191407.007813-7.765625-3.027343-8.4375-7.164062s1.761719-8.148438 5.738281-9.46875c19.542969-6.511719 19.765625-34.292969 19.765625-34.570312 0-4.714844 3.820313-8.535157 8.535156-8.535157 4.710938 0 8.53125 3.820313 8.53125 8.535157 0 1.644531-.355469 40.402343-31.433593 50.761718-.867188.292969-1.78125.441406-2.699219.441406zm0 0"/><path d="m309.394531 436.558594c-4.539062.074218-9.066406-.527344-13.425781-1.792969-4.417969-1.511719-6.800781-6.296875-5.34375-10.734375s6.210938-6.878906 10.667969-5.476562c1.035156.308593 21.367187 6.191406 42.542969-14.984376 13.90625-14.539062 22.109374-33.605468 23.097656-53.703124 0-4.714844 3.824218-8.535157 8.535156-8.535157 4.714844 0 8.535156 3.820313 8.535156 8.535157-.988281 24.625-10.988281 48.03125-28.101562 65.765624-12.003906 13.019532-28.804688 20.578126-46.507813 20.925782zm0 0"/><path d="m238.933594 401.066406c-23.605469 0-68.265625-10.699218-68.265625-51.199218 0-4.714844 3.820312-8.535157 8.535156-8.535157 4.710937 0 8.53125 3.820313 8.53125 8.535157 0 33.585937 49.125 34.125 51.21875 34.132812 4.710937.003906 8.527344 3.828125 8.523437 8.542969-.003906 4.710937-3.828124 8.527343-8.542968 8.523437zm0 0"/><path d="m212.410156 438.066406c-19.839844.703125-39.351562-5.1875-55.492187-16.75-19.183594-14.984375-28.914063-39.023437-28.914063-71.449218 0-4.714844 3.820313-8.535157 8.53125-8.535157 4.714844 0 8.535156 3.820313 8.535156 8.535157 0 26.902343 7.523438 46.421874 22.355469 58 26.75 20.875 69 10.628906 69.441407 10.519531 4.527343-1.027344 9.046874 1.75 10.171874 6.253906s-1.558593 9.082031-6.039062 10.300781c-9.382812 2.113282-18.972656 3.160156-28.589844 3.125zm0 0"/><path d="m349.867188 512c-4.710938 0-8.53125-3.820312-8.53125-8.535156 0-46.648438-22.902344-70.558594-23.132813-70.792969-3.324219-3.34375-3.3125-8.746094.03125-12.070313 3.339844-3.324218 8.742187-3.308593 12.066406.03125 1.152344 1.144532 28.101563 28.722657 28.101563 82.832032 0 4.714844-3.820313 8.535156-8.535156 8.535156zm0 0"/><path d="m290.136719 512.003906c-2.832031-.003906-5.480469-1.410156-7.066407-3.753906-1.585937-2.34375-1.910156-5.324219-.859374-7.953125 14.632812-36.570313-5.808594-58.199219-6.683594-59.105469-3.222656-3.359375-3.160156-8.683594.144531-11.964844 3.300781-3.28125 8.625-3.308593 11.964844-.058593 1.207031 1.207031 29.359375 30.121093 10.421875 77.46875-1.296875 3.242187-4.433594 5.367187-7.921875 5.367187zm0 0"/><path d="m221.867188 512c-4.710938 0-8.53125-3.820312-8.53125-8.535156.914062-29.320313 14.636718-56.765625 37.546874-75.089844 3.769532-2.671875 8.976563-1.859375 11.753907 1.835938 2.773437 3.691406 2.109375 8.921874-1.503907 11.800781-18.507812 15.1875-29.683593 37.535156-30.730468 61.453125 0 4.714844-3.820313 8.535156-8.535156 8.535156zm0 0"/><path d="m170.667969 512c-4.710938 0-8.53125-3.820312-8.53125-8.535156 0-51.472656 23.855469-74.097656 34.113281-81.4375 3.835938-2.742188 9.167969-1.855469 11.910156 1.976562 2.742188 3.832032 1.859375 9.164063-1.976562 11.910156-8.113282 5.796876-26.980469 24-26.980469 67.550782 0 4.714844-3.820313 8.535156-8.535156 8.535156zm0 0"/><path d="m54.101562 144.132812c-4.226562.003907-7.820312-3.085937-8.449218-7.269531-.625-4.183593 1.90625-8.191406 5.953125-9.425781 31.296875-10.148438 61.851562-22.472656 91.429687-36.878906 40.144532-18.519532 81.660156-37.667969 137.046875-47.753906 96.234375-17.492188 141.398438 17.203124 143.273438 18.6875 1.910156 1.515624 3.085937 3.773437 3.234375 6.207031.148437 2.4375-.746094 4.820312-2.457032 6.554687-3.128906 3.179688-8.191406 3.386719-11.566406.472656-3.09375-2.261718-44.09375-30.664062-129.433594-15.132812-53.25 9.699219-91.960937 27.554688-132.949218 46.457031-30.273438 14.742188-61.539063 27.339844-93.574219 37.699219-.8125.25-1.65625.378906-2.507813.382812zm0 0"/></svg>