<svg height="512pt" viewBox="0 0 512 512.00028" width="512pt" xmlns="http://www.w3.org/2000/svg"><path d="m187.734375 292.90625h136.53125v71.253906h-136.53125zm0 0" fill="#fec108"/><path d="m409.601562 503.46875h93.867188v-7.597656c.011719-10.925782-1.304688-21.816406-3.925781-32.425782l-7.9375-32.171874c-9.203125-33.554688-40.046875-56.558594-74.835938-55.804688h-321.539062c-34.789063-.753906-65.628907 22.25-74.835938 55.804688l-7.9375 32.171874c-2.621093 10.609376-3.9375 21.5-3.921875 32.425782v7.597656zm0 0" fill="#009688"/><path d="m435.199219 503.46875h-358.398438l28.910157-139.921875c2.957031-8.835937 11.585937-14.492187 20.871093-13.679687h258.890625c9.28125-.8125 17.914063 4.84375 20.871094 13.679687zm0 0" fill="#00695c"/><path d="m392.535156 503.46875c-10.664062-21.902344-19.234375-44.757812-25.601562-68.269531v-85.332031h-34.132813v61.269531l-17.066406 24.0625h-119.46875l-17.066406-24.0625v-61.269531h-34.132813v85.332031c-6.367187 23.511719-14.9375 46.367187-25.597656 68.269531zm0 0" fill="#783e22"/><path d="m435.199219 179.199219s-8.53125 17.066406-51.199219 25.601562h-256c-42.667969-8.535156-51.199219-25.601562-51.199219-25.601562s51.199219-59.730469 179.199219-59.730469 179.199219 59.730469 179.199219 59.730469zm0 0" fill="#6d4122"/><path d="m384 123.988281v123.480469c.011719 15.84375-6.277344 31.042969-17.484375 42.25-11.203125 11.203125-26.402344 17.492188-42.25 17.480469h-136.53125c-15.847656.011719-31.046875-6.277344-42.25-17.480469-11.207031-11.207031-17.496094-26.40625-17.484375-42.25v-123.480469" fill="#fec108"/><g fill="#ffdc00"><path d="m358.398438 123.988281v123.480469c0 33.023438-21.367188 59.730469-47.785157 59.730469h-109.226562c-26.417969 0-47.785157-26.707031-47.785157-59.730469v-123.480469"/><path d="m196.265625 435.199219c0 14.140625-11.460937 25.601562-25.597656 25.601562-14.140625 0-25.601563-11.460937-25.601563-25.601562 0-14.136719 11.460938-25.597657 25.601563-25.597657 14.136719 0 25.597656 11.460938 25.597656 25.597657zm0 0"/><path d="m366.933594 435.199219c0 14.140625-11.460938 25.601562-25.601563 25.601562-14.136719 0-25.597656-11.460937-25.597656-25.601562 0-14.136719 11.460937-25.597657 25.597656-25.597657 14.140625 0 25.601563 11.460938 25.601563 25.597657zm0 0"/></g><path d="m384 111.785156-9.984375-60.402344c-4.085937-24.71875-25.460937-42.851562-50.515625-42.847656h-135c-25.054688-.003906-46.429688 18.128906-50.515625 42.847656l-9.984375 60.402344zm0 0" fill="#a0522d"/><path d="m435.199219 179.199219s-51.199219-51.199219-179.199219-51.199219-179.199219 51.199219-179.199219 51.199219 25.597657-102.398438 179.199219-102.398438 179.199219 102.398438 179.199219 102.398438zm0 0" fill="#91562d"/><path d="m296.339844 249.132812c-6.890625 13.492188-28.410156 15.402344-40.167969 15.402344-11.78125 0-33.277344-1.910156-40.171875-15.402344 13.148438 3.238282 26.628906 4.929688 40.171875 5.035157 13.539063-.105469 27.023437-1.796875 40.167969-5.035157zm0 0"/><path d="m233.648438 167.160156c-8.109376-2.984375-16.625-4.710937-25.257813-5.121094-11.601563-.875-23.214844 1.597657-33.449219 7.132813 1.167969-14.933594 35.789063-17.886719 52.710938-14.046875 2.683594.335938 5.019531 1.992188 6.226562 4.410156 1.207032 2.417969 1.121094 5.28125-.230468 7.625zm0 0"/><path d="m230.398438 193.546875c0-10.101563-7.640626-18.292969-17.066407-18.292969s-17.066406 8.191406-17.066406 18.292969 7.640625 18.292969 17.066406 18.292969 17.066407-8.191406 17.066407-18.292969zm0 0"/><path d="m218.117188 177.671875c-4.402344-1.671875-9.332032.539063-11.007813 4.945313-1.675781 4.402343.535156 9.332031 4.941406 11.007812s9.335938-.535156 11.011719-4.941406c1.671875-4.40625-.539062-9.335938-4.945312-11.011719zm0 0" fill="#fff"/><path d="m278.351562 167.160156c8.109376-2.984375 16.625-4.710937 25.257813-5.121094 11.601563-.875 23.214844 1.597657 33.449219 7.132813-1.164063-14.933594-35.789063-17.886719-52.710938-14.046875-2.683594.335938-5.019531 1.992188-6.226562 4.410156-1.203125 2.417969-1.117188 5.28125.230468 7.625zm0 0"/><path d="m315.734375 193.546875c0-10.101563-7.640625-18.292969-17.066406-18.292969s-17.066407 8.191406-17.066407 18.292969 7.640626 18.292969 17.066407 18.292969 17.066406-8.191406 17.066406-18.292969zm0 0"/><path d="m304.890625 182.617188c-1.675781-4.40625-6.601563-6.617188-11.007813-4.941407-4.40625 1.671875-6.617187 6.601563-4.941406 11.007813 1.675782 4.40625 6.601563 6.617187 11.007813 4.941406s6.617187-6.605469 4.941406-11.007812zm0 0" fill="#fff"/><path d="m435.199219 512h-358.398438c-2.566406 0-4.996093-1.152344-6.617187-3.144531-1.621094-1.988281-2.261719-4.601563-1.742188-7.113281l28.910156-139.921876c3.726563-12.84375 15.886719-21.367187 29.230469-20.488281h258.894531c13.363282-.882812 25.535157 7.671875 29.230469 20.542969l28.855469 139.867188c.519531 2.515624-.121094 5.128906-1.742188 7.117187-1.621093 1.988281-4.054687 3.140625-6.621093 3.140625zm-347.925781-17.066406h337.453124l-26.742187-129.664063c-2.257813-4.742187-7.296875-7.511719-12.507813-6.871093h-258.894531c-5.199219-.632813-10.226562 2.109374-12.507812 6.828124zm0 0"/><path d="m324.265625 358.398438h-136.53125c-4.714844 0-8.535156-3.820313-8.535156-8.53125v-42.667969c0-4.710938 3.820312-8.53125 8.535156-8.53125h136.53125c4.714844 0 8.535156 3.820312 8.535156 8.53125v42.667969c0 4.710937-3.820312 8.53125-8.535156 8.53125zm-128-17.066407h119.46875v-25.597656h-119.46875zm0 0"/><path d="m130.730469 118.484375c-2.257813.011719-4.429688-.878906-6.03125-2.472656-1.601563-1.59375-2.5-3.757813-2.5-6.015625v-.085938c.019531-4.707031 3.851562-8.507812 8.558593-8.492187 4.707032.015625 8.515626 3.839843 8.507813 8.546875-.007813 4.707031-3.828125 8.519531-8.535156 8.519531zm0 0"/><path d="m324.265625 315.734375h-136.53125c-37.6875-.042969-68.222656-30.582031-68.265625-68.265625v-97.878906c0-4.714844 3.820312-8.535156 8.53125-8.535156 4.714844 0 8.535156 3.820312 8.535156 8.535156v97.878906c.03125 28.261719 22.933594 51.167969 51.199219 51.199219h136.53125c28.265625-.03125 51.171875-22.9375 51.203125-51.199219v-97.878906c0-4.714844 3.820312-8.535156 8.53125-8.535156 4.714844 0 8.535156 3.820312 8.535156 8.535156v97.878906c-.042968 37.683594-30.582031 68.222656-68.269531 68.265625zm0 0"/><path d="m381.269531 118.484375c-2.257812.011719-4.429687-.878906-6.03125-2.472656-1.601562-1.59375-2.5-3.757813-2.503906-6.015625v-.085938c.023437-4.707031 3.855469-8.507812 8.5625-8.492187s8.511719 3.839843 8.503906 8.546875c-.003906 4.707031-3.824219 8.519531-8.53125 8.519531zm0 0"/><path d="m102.398438 512h-93.863282c-4.714844 0-8.535156-3.820312-8.535156-8.53125v-7.597656c-.0078125-11.617188 1.394531-23.191406 4.175781-34.472656l7.9375-32.164063c10.019531-37.449219 44.359375-63.1875 83.117188-62.300781h8.023437c4.710938 0 8.53125 3.820312 8.53125 8.535156 0 4.710938-3.820312 8.53125-8.53125 8.53125h-8.023437c-30.898438-.871094-58.390625 19.496094-66.558594 49.308594l-7.9375 32.179687c-2.371094 9.636719-3.605469 19.519531-3.667969 29.445313h85.332032c4.714843 0 8.535156 3.820312 8.535156 8.535156 0 4.710938-3.820313 8.53125-8.535156 8.53125zm0 0"/><path d="m503.46875 512h-93.867188c-4.714843 0-8.535156-3.820312-8.535156-8.53125 0-4.714844 3.820313-8.535156 8.535156-8.535156h85.332032c-.066406-9.921875-1.296875-19.804688-3.675782-29.441406l-7.9375-32.179688c-8.164062-29.8125-35.652343-50.183594-66.550781-49.3125h-7.9375c-4.710937 0-8.53125-3.820312-8.53125-8.53125 0-4.714844 3.820313-8.535156 8.53125-8.535156h7.9375c38.761719-.890625 73.105469 24.851562 83.125 62.308594l7.933594 32.164062c2.78125 11.277344 4.179687 22.851562 4.171875 34.464844v7.597656c0 4.710938-3.820312 8.53125-8.53125 8.53125zm0 0"/><path d="m435.199219 187.734375c-2.253907 0-4.417969-.890625-6.015625-2.480469-.765625-.75-51.234375-48.71875-173.183594-48.71875-123.042969 0-172.675781 48.210938-173.167969 48.699219-2.710937 2.707031-6.898437 3.273437-10.234375 1.382813-3.335937-1.886719-5-5.769532-4.070312-9.492188.265625-1.082031 29.039062-108.859375 187.472656-108.859375 82.265625 0 128.734375 29.203125 153.234375 53.703125 15.867187 15.21875 27.644531 34.1875 34.242187 55.160156.640626 2.550782.070313 5.253906-1.546874 7.324219-1.617188 2.070313-4.101563 3.28125-6.730469 3.28125zm-179.199219-68.265625c79.285156 0 129.925781 19.144531 157.882812 34.585938-18.75-28.40625-62.207031-68.722657-157.882812-68.722657-94.332031 0-138.125 40.054688-157.300781 68.402344 28.074219-15.382813 78.566406-34.265625 157.300781-34.265625zm0 0"/><path d="m383.992188 213.332031c-4.378907-.015625-8.03125-3.339843-8.460938-7.695312s2.503906-8.328125 6.792969-9.199219c36.859375-7.371094 45.292969-21.148438 45.367187-21.292969 2.332032-4 7.394532-5.460937 11.5-3.320312 4.058594 2.121093 5.675782 7.097656 3.640625 11.199219-1.066406 2.132812-11.714843 21.058593-57.15625 30.148437-.554687.109375-1.117187.164063-1.683593.160156zm0 0"/><path d="m383.992188 120.320312c-4.171876-.003906-7.726563-3.027343-8.410157-7.140624l-9.980469-60.40625c-3.351562-20.632813-21.199218-35.769532-42.101562-35.707032h-135c-20.902344-.0625-38.75 15.078125-42.097656 35.710938l-9.984375 60.402344c-.429688 3.070312-2.492188 5.664062-5.382813 6.777343-2.890625 1.117188-6.160156.574219-8.539062-1.410156-2.378906-1.988281-3.492188-5.105469-2.910156-8.152344l9.984374-60.402343c4.683594-28.886719 29.667969-50.0781255 58.929688-49.992188h135c29.261719-.0859375 54.246094 21.105469 58.933594 49.992188l9.980468 60.402343c.371094 2.234375-.160156 4.523438-1.476562 6.363281-1.320312 1.839844-3.3125 3.082032-5.546875 3.453126-.460937.070312-.929687.109374-1.398437.109374zm0 0"/><path d="m128.007812 213.332031c-.566406 0-1.128906-.058593-1.683593-.167969-45.441407-9.089843-56.089844-28.023437-57.15625-30.152343-2.058594-4.167969-.402344-9.214844 3.726562-11.351563 4.125-2.136718 9.203125-.582031 11.421875 3.503906.417969.65625 9.234375 14.039063 45.359375 21.265626 4.308594.851562 7.265625 4.835937 6.835938 9.207031-.429688 4.371093-4.109375 7.703125-8.503907 7.695312zm0 0"/><path d="m170.667969 221.867188c0 4.710937-3.820313 8.53125-8.535157 8.53125-4.710937 0-8.53125-3.820313-8.53125-8.53125 0-4.714844 3.820313-8.535157 8.53125-8.535157 4.714844 0 8.535157 3.820313 8.535157 8.535157zm0 0"/><path d="m170.667969 247.46875c0 4.710938-3.820313 8.53125-8.535157 8.53125-4.710937 0-8.53125-3.820312-8.53125-8.53125 0-4.714844 3.820313-8.535156 8.53125-8.535156 4.714844 0 8.535157 3.820312 8.535157 8.535156zm0 0"/><path d="m196.265625 247.46875c0 4.710938-3.820313 8.53125-8.53125 8.53125-4.714844 0-8.535156-3.820312-8.535156-8.53125 0-4.714844 3.820312-8.535156 8.535156-8.535156 4.710937 0 8.53125 3.820312 8.53125 8.535156zm0 0"/><path d="m196.265625 273.066406c0 4.714844-3.820313 8.535156-8.53125 8.535156-4.714844 0-8.535156-3.820312-8.535156-8.535156 0-4.710937 3.820312-8.53125 8.535156-8.53125 4.710937 0 8.53125 3.820313 8.53125 8.53125zm0 0"/><path d="m221.867188 273.066406c0 4.714844-3.820313 8.535156-8.535157 8.535156-4.710937 0-8.53125-3.820312-8.53125-8.535156 0-4.710937 3.820313-8.53125 8.53125-8.53125 4.714844 0 8.535157 3.820313 8.535157 8.53125zm0 0"/><path d="m358.398438 221.867188c0 4.710937-3.820313 8.53125-8.53125 8.53125-4.714844 0-8.535157-3.820313-8.535157-8.53125 0-4.714844 3.820313-8.535157 8.535157-8.535157 4.710937 0 8.53125 3.820313 8.53125 8.535157zm0 0"/><path d="m358.398438 247.46875c0 4.710938-3.820313 8.53125-8.53125 8.53125-4.714844 0-8.535157-3.820312-8.535157-8.53125 0-4.714844 3.820313-8.535156 8.535157-8.535156 4.710937 0 8.53125 3.820312 8.53125 8.535156zm0 0"/><path d="m332.800781 247.46875c0 4.710938-3.820312 8.53125-8.535156 8.53125-4.710937 0-8.53125-3.820312-8.53125-8.53125 0-4.714844 3.820313-8.535156 8.53125-8.535156 4.714844 0 8.535156 3.820312 8.535156 8.535156zm0 0"/><path d="m332.800781 273.066406c0 4.714844-3.820312 8.535156-8.535156 8.535156-4.710937 0-8.53125-3.820312-8.53125-8.535156 0-4.710937 3.820313-8.53125 8.53125-8.53125 4.714844 0 8.535156 3.820313 8.535156 8.53125zm0 0"/><path d="m307.199219 273.066406c0 4.714844-3.820313 8.535156-8.53125 8.535156-4.714844 0-8.535157-3.820312-8.535157-8.535156 0-4.710937 3.820313-8.53125 8.535157-8.53125 4.710937 0 8.53125 3.820313 8.53125 8.53125zm0 0"/><path d="m315.734375 443.734375h-119.46875c-4.710937 0-8.53125-3.820313-8.53125-8.535156 0-4.710938 3.820313-8.53125 8.53125-8.53125h119.46875c4.710937 0 8.53125 3.820312 8.53125 8.53125 0 4.714843-3.820313 8.535156-8.53125 8.535156zm0 0"/><path d="m119.457031 512c-2.953125-.003906-5.699219-1.535156-7.253906-4.050781-1.550781-2.515625-1.691406-5.65625-.371094-8.300781 10.371094-21.347657 18.726563-43.617188 24.957031-66.519532.671876-3.03125 2.933594-5.460937 5.910157-6.34375 2.980469-.878906 6.203125-.074218 8.414062 2.105469 2.210938 2.179687 3.0625 5.390625 2.226563 8.378906-6.496094 24.121094-15.28125 47.566407-26.242188 70.015625-1.445312 2.890625-4.40625 4.71875-7.640625 4.714844zm0 0"/><path d="m392.542969 512c-3.234375.003906-6.195313-1.824219-7.640625-4.714844-10.964844-22.449218-19.75-45.890625-26.246094-70.015625-.835938-2.988281.015625-6.199219 2.226562-8.378906 2.210938-2.179687 5.433594-2.984375 8.410157-2.105469 2.980469.882813 5.242187 3.3125 5.914062 6.34375 6.226563 22.902344 14.582031 45.175782 24.957031 66.519532 1.320313 2.644531 1.183594 5.785156-.371093 8.300781-1.550781 2.515625-4.296875 4.046875-7.25 4.050781zm0 0"/><path d="m170.667969 469.332031c-18.851563 0-34.132813-15.28125-34.132813-34.132812 0-18.851563 15.28125-34.132813 34.132813-34.132813 18.851562 0 34.132812 15.28125 34.132812 34.132813-.019531 18.84375-15.289062 34.113281-34.132812 34.132812zm0-51.199219c-9.425781 0-17.066407 7.640626-17.066407 17.066407s7.640626 17.066406 17.066407 17.066406 17.066406-7.640625 17.066406-17.066406c-.011719-9.421875-7.644531-17.054688-17.066406-17.066407zm0 0"/><path d="m341.332031 469.332031c-18.851562 0-34.132812-15.28125-34.132812-34.132812 0-18.851563 15.28125-34.132813 34.132812-34.132813 18.851563 0 34.136719 15.28125 34.136719 34.132813-.023438 18.84375-15.292969 34.113281-34.136719 34.132812zm0-51.199219c-9.425781 0-17.066406 7.640626-17.066406 17.066407s7.640625 17.066406 17.066406 17.066406 17.066407-7.640625 17.066407-17.066406c-.007813-9.421875-7.644532-17.054688-17.066407-17.066407zm0 0"/><path d="m145.066406 443.734375c-4.710937 0-8.53125-3.820313-8.53125-8.535156v-85.332031c0-4.714844 3.820313-8.535157 8.53125-8.535157h34.132813c4.714843 0 8.535156 3.820313 8.535156 8.535157v61.269531c0 4.710937-3.820313 8.53125-8.535156 8.53125-4.710938 0-8.53125-3.820313-8.53125-8.53125v-52.738281h-17.066407v76.800781c0 4.714843-3.820312 8.535156-8.535156 8.535156zm0 0"/><path d="m366.933594 443.734375c-4.714844 0-8.535156-3.820313-8.535156-8.535156v-76.800781h-17.066407v52.738281c0 4.710937-3.820312 8.53125-8.53125 8.53125-4.714843 0-8.535156-3.820313-8.535156-8.53125v-61.269531c0-4.714844 3.820313-8.535157 8.535156-8.535157h34.132813c4.710937 0 8.535156 3.820313 8.535156 8.535157v85.332031c0 4.714843-3.824219 8.535156-8.535156 8.535156zm0 0"/></svg>