<svg height="512pt" viewBox="0 0 512.00015 512" width="512pt" xmlns="http://www.w3.org/2000/svg"><path d="m409.601562 503.464844h93.867188l-.003906-7.59375c.015625-10.925782-1.300782-21.816406-3.921875-32.425782l-7.9375-32.171874c-9.203125-33.554688-40.046875-56.558594-74.835938-55.808594h-321.539062c-34.789063-.75-65.632813 22.253906-74.835938 55.808594l-7.9375 32.171874c-2.621093 10.609376-3.9375 21.5-3.921875 32.425782v7.59375zm0 0" fill="#0377bc"/><path d="m187.734375 295.828125h136.53125v65.410156h-136.53125zm0 0" fill="#fec108"/><path d="m332.800781 349.867188s-32.425781 19.457031-63.316406 41.386718c-4.609375 3.242188-9.132813 6.570313-13.484375 9.8125-4.351562-3.242187-8.875-6.570312-13.484375-9.8125-30.890625-21.929687-63.316406-41.386718-63.316406-41.386718zm0 0" fill="#ffdc00"/><path d="m435.199219 503.464844h-358.398438l28.925781-139.945313c2.945313-8.820312 11.558594-14.46875 20.824219-13.652343h52.648438s32.425781 19.457031 63.316406 41.386718c1.707031 1.195313 3.328125 2.390625 4.949219 3.5 2.902344 2.132813 5.71875 4.265625 8.535156 6.3125 2.816406-2.046875 5.632812-4.179687 8.535156-6.3125 1.621094-1.109375 3.242188-2.304687 4.949219-3.5 30.890625-21.929687 63.316406-41.386718 63.316406-41.386718h52.648438c9.285156-.816407 17.921875 4.824218 20.90625 13.652343zm0 0" fill="#02a9f4"/><path d="m384 118.699219v128.765625c.011719 15.847656-6.277344 31.046875-17.484375 42.253906-11.203125 11.203125-26.402344 17.492188-42.25 17.480469h-136.53125c-15.847656.011719-31.046875-6.277344-42.25-17.480469-11.207031-11.207031-17.496094-26.40625-17.484375-42.253906v-128.765625zm0 0" fill="#fec108"/><path d="m358.398438 118.699219v128.765625c0 33.027344-21.367188 59.734375-47.785157 59.734375h-109.226562c-26.417969 0-47.785157-26.707031-47.785157-59.734375v-128.765625zm0 0" fill="#ffdc00"/><path d="m401.066406 136.535156v-34.136718c0-51.839844-42.023437-93.863282-93.867187-93.863282h-102.398438c-51.84375 0-93.867187 42.023438-93.867187 93.863282v34.136718l147.734375-12.800781zm0 0" fill="#0377bc"/><path d="m256 85.332031c153.601562 0 162.132812 76.800781 162.132812 76.800781-8.53125 8.535157-42.667968 0-68.265624-17.066406-25.601563-17.066406-68.265626-17.066406-93.867188-17.066406s-68.265625 0-93.867188 17.066406c-25.597656 17.066406-59.734374 25.601563-68.265624 17.066406 0 0 8.53125-76.800781 162.132812-76.800781zm0 0" fill="#02a9f4"/><path d="m256 256c4.796875 9.917969 14.597656 16.453125 25.601562 17.066406v-17.066406c17.066407 17.066406 42.664063 8.535156 42.664063 8.535156-17.066406-42.667968-68.265625-42.667968-68.265625-42.667968s-51.199219 0-68.265625 42.667968c0 0 25.597656 8.53125 42.664063-8.535156v17.066406c11.003906-.613281 20.804687-7.148437 25.601562-17.066406zm0 0" fill="#783e22"/><path d="m242.515625 391.253906c-29.265625-5.292968-97.449219 9.8125-97.449219 9.8125-8.53125-25.601562 17.066406-51.199218 17.066406-51.199218h17.066407s32.425781 19.457031 63.316406 41.386718zm0 0" fill="#0377bc"/><path d="m366.933594 401.066406s-68.179688-15.105468-97.449219-9.8125c30.890625-21.929687 63.316406-41.386718 63.316406-41.386718h17.066407s25.597656 25.597656 17.066406 51.199218zm0 0" fill="#0377bc"/><path d="m375.464844 452.265625c0-9.425781-15.28125-17.066406-34.132813-17.066406-18.851562 0-34.132812 7.640625-34.132812 17.066406s15.28125 17.066406 34.132812 17.066406c18.851563 0 34.132813-7.640625 34.132813-17.066406zm0 0" fill="#e6e7e8"/><path d="m264.535156 394.753906v23.378906c0 4.714844-3.820312 8.535157-8.535156 8.535157-4.710938 0-8.535156-3.820313-8.535156-8.535157v-23.378906c2.902344 2.132813 5.71875 4.265625 8.535156 6.3125 2.816406-2.046875 5.632812-4.179687 8.535156-6.3125zm0 0" fill="#4482c3"/><path d="m233.648438 162.890625c-8.109376-2.980469-16.625-4.707031-25.257813-5.117187-11.601563-.878907-23.214844 1.597656-33.449219 7.132812 1.167969-14.933594 35.789063-17.886719 52.710938-14.046875 2.683594.335937 5.019531 1.988281 6.226562 4.410156 1.207032 2.417969 1.121094 5.28125-.230468 7.621094zm0 0"/><path d="m230.398438 189.28125c0-10.105469-7.640626-18.292969-17.066407-18.292969s-17.066406 8.1875-17.066406 18.292969c0 10.101562 7.640625 18.289062 17.066406 18.289062s17.066407-8.1875 17.066407-18.289062zm0 0"/><path d="m218.117188 173.40625c-4.402344-1.675781-9.332032.539062-11.007813 4.945312-1.675781 4.402344.535156 9.332032 4.941406 11.007813s9.335938-.539063 11.007813-4.941406c1.675781-4.40625-.535156-9.335938-4.941406-11.011719zm0 0" fill="#fff"/><path d="m278.351562 162.890625c8.109376-2.980469 16.625-4.707031 25.257813-5.117187 11.601563-.878907 23.214844 1.597656 33.449219 7.132812-1.167969-14.933594-35.789063-17.886719-52.710938-14.046875-2.683594.335937-5.019531 1.988281-6.226562 4.410156-1.207032 2.417969-1.117188 5.28125.230468 7.621094zm0 0"/><path d="m315.734375 189.28125c0-10.105469-7.640625-18.292969-17.066406-18.292969s-17.066407 8.1875-17.066407 18.292969c0 10.101562 7.640626 18.289062 17.066407 18.289062s17.066406-8.1875 17.066406-18.289062zm0 0"/><path d="m304.890625 178.347656c-1.675781-4.402344-6.605469-6.617187-11.007813-4.941406-4.40625 1.675781-6.617187 6.605469-4.941406 11.011719 1.671875 4.402343 6.601563 6.617187 11.007813 4.941406s6.617187-6.605469 4.941406-11.011719zm0 0" fill="#fff"/><path d="m435.199219 512h-358.398438c-2.566406 0-4.996093-1.152344-6.617187-3.144531-1.621094-1.988281-2.261719-4.601563-1.742188-7.113281l28.910156-139.921876c3.722657-12.84375 15.882813-21.367187 29.226563-20.488281h258.894531c13.359375-.875 25.527344 7.667969 29.238282 20.535157l28.84375 139.875c.519531 2.511718-.121094 5.125-1.742188 7.113281-1.617188 1.988281-4.046875 3.144531-6.613281 3.144531zm-347.925781-17.066406h337.457031l-26.742188-129.664063c-2.261719-4.738281-7.300781-7.507812-12.515625-6.871093h-258.894531c-5.199219-.632813-10.226563 2.113281-12.503906 6.828124zm0 0"/><path d="m324.265625 358.398438h-136.53125c-4.714844 0-8.535156-3.820313-8.535156-8.53125v-42.667969c0-4.710938 3.820312-8.53125 8.535156-8.53125h136.53125c4.714844 0 8.535156 3.820312 8.535156 8.53125v42.667969c0 4.710937-3.820312 8.53125-8.535156 8.53125zm-128-17.066407h119.46875v-25.597656h-119.46875zm0 0"/><path d="m324.265625 315.734375h-136.53125c-37.6875-.042969-68.222656-30.582031-68.269531-68.269531v-86.097656c0-4.714844 3.824218-8.535157 8.535156-8.535157 4.714844 0 8.535156 3.820313 8.535156 8.535157v86.097656c.027344 28.265625 22.933594 51.171875 51.199219 51.203125h136.53125c28.265625-.03125 51.171875-22.9375 51.199219-51.203125v-86.097656c0-4.714844 3.824218-8.535157 8.535156-8.535157 4.714844 0 8.535156 3.820313 8.535156 8.535157v86.097656c-.046875 37.6875-30.582031 68.226562-68.269531 68.269531zm0 0"/><path d="m102.398438 512h-93.863282c-4.714844 0-8.535156-3.820312-8.535156-8.535156v-7.59375c-.0117188-11.617188 1.390625-23.195313 4.175781-34.480469l7.9375-32.160156c10.019531-37.453125 44.359375-63.191407 83.117188-62.296875h8.023437c4.710938 0 8.53125 3.820312 8.53125 8.53125 0 4.714844-3.820312 8.535156-8.53125 8.535156h-8.023437c-30.898438-.875-58.386719 19.496094-66.550781 49.308594l-7.9375 32.183594c-2.378907 9.636718-3.609376 19.519531-3.667969 29.441406h85.324219c4.714843 0 8.535156 3.820312 8.535156 8.53125 0 4.714844-3.820313 8.535156-8.535156 8.535156zm0 0"/><path d="m503.464844 512h-93.863282c-4.714843 0-8.535156-3.820312-8.535156-8.535156 0-4.710938 3.820313-8.53125 8.535156-8.53125h85.332032c-.058594-9.921875-1.289063-19.800782-3.667969-29.433594l-7.9375-32.179688c-8.160156-29.820312-35.65625-50.195312-66.558594-49.320312h-7.9375c-4.710937 0-8.535156-3.820312-8.535156-8.535156 0-4.710938 3.824219-8.53125 8.535156-8.53125h7.9375c38.761719-.894532 73.105469 24.851562 83.125 62.308594l7.933594 32.15625c2.785156 11.28125 4.183594 22.855468 4.171875 34.472656v7.59375c0 4.714844-3.820312 8.535156-8.535156 8.535156zm0 0"/><path d="m401.066406 136.535156c-4.710937 0-8.53125-3.820312-8.53125-8.535156v-25.601562c-.054687-47.105469-38.226562-85.28125-85.335937-85.332032h-102.398438c-47.105469.050782-85.28125 38.226563-85.335937 85.332032v25.601562c0 4.714844-3.820313 8.535156-8.53125 8.535156-4.714844 0-8.535156-3.820312-8.535156-8.535156v-25.601562c.066406-56.527344 45.875-102.3320318 102.402343-102.398438h102.398438c56.527343.0664062 102.335937 45.871094 102.402343 102.398438v25.601562c0 4.714844-3.820312 8.535156-8.535156 8.535156zm0 0"/><path d="m406.140625 174.066406c-21.882813-1.914062-42.902344-9.460937-61.007813-21.898437-23.449218-15.632813-64.566406-15.632813-89.132812-15.632813s-65.683594 0-89.132812 15.632813c-23.90625 15.933593-64.675782 30.378906-79.035157 16-1.832031-1.832031-2.730469-4.402344-2.445312-6.976563.378906-3.445312 11.210937-84.390625 170.613281-84.390625s170.234375 80.945313 170.613281 84.394531c.285157 2.574219-.613281 5.140626-2.445312 6.972657-4.992188 4.273437-11.476563 6.394531-18.027344 5.898437zm-302.1875-16.988281c19.199219-1.507813 37.644531-8.109375 53.445313-19.113281 27.75-18.5 72.101562-18.5 98.601562-18.5s70.851562 0 98.601562 18.503906c15.824219 10.984375 34.28125 17.5625 53.488282 19.0625-5.882813-16.9375-32.855469-63.164062-152.089844-63.164062-118.726562 0-146.046875 46.386718-152.046875 63.210937zm0 0"/><path d="m281.601562 281.601562c-9.613281-.433593-18.726562-4.394531-25.601562-11.121093-6.875 6.726562-15.988281 10.6875-25.601562 11.121093-4.710938 0-8.53125-3.820312-8.53125-8.535156v-1.382812c-11.855469 4.285156-24.777344 4.613281-36.832032.945312-2.230468-.742187-4.054687-2.371094-5.042968-4.503906-.992188-2.132812-1.054688-4.578125-.183594-6.761719 18.996094-47.484375 73.867187-48.03125 76.191406-48.03125s57.195312.546875 76.191406 48.03125c.871094 2.179688.808594 4.625-.183594 6.757813-.988281 2.132812-2.8125 3.761718-5.042968 4.503906-12.054688 3.667969-24.976563 3.335938-36.832032-.941406v1.382812c0 4.714844-3.820312 8.535156-8.53125 8.535156zm-25.601562-34.136718c3.230469 0 6.1875 1.828125 7.632812 4.71875 2.019532 4.214844 5.320313 7.679687 9.433594 9.898437v-6.082031c0-3.449219 2.082032-6.5625 5.269532-7.882812 3.1875-1.320313 6.855468-.589844 9.296874 1.851562 6.414063 5.902344 15.007813 8.839844 23.691407 8.097656-17.976563-27.316406-54.910157-27.667968-55.324219-27.667968-1.664062.011718-37.613281.535156-55.34375 27.667968 8.691406.769532 17.304688-2.171875 23.710938-8.097656 2.441406-2.441406 6.109374-3.171875 9.296874-1.851562 3.191407 1.320312 5.269532 4.433593 5.269532 7.882812v6.039062c4.109375-2.207031 7.410156-5.65625 9.433594-9.855468 1.445312-2.890625 4.402343-4.71875 7.632812-4.71875zm0 0"/><path d="m145.066406 409.601562c-3.671875-.003906-6.925781-2.355468-8.089844-5.835937-10.085937-30.257813 17.925782-58.738281 19.128907-59.933594 3.347656-3.234375 8.667969-3.1875 11.960937.101563 3.292969 3.289062 3.339844 8.613281.109375 11.960937-.476562.488281-16.804687 17.363281-16.304687 35.039063 19.6875-3.925782 67.6875-12.515625 92.167968-8.074219 4.558594.910156 7.550782 5.308594 6.722657 9.882813-.824219 4.578124-5.164063 7.648437-9.757813 6.90625-22.625-4.066407-75.589844 5.652343-94.085937 9.753906-.609375.128906-1.230469.195312-1.851563.199218zm0 0"/><path d="m256 409.601562c-1.847656 0-3.644531-.601562-5.121094-1.707031-33.394531-25.046875-75.644531-50.457031-76.070312-50.710937-4-2.441406-5.285156-7.65625-2.871094-11.675782 2.414062-4.019531 7.617188-5.339843 11.65625-2.957031.40625.246094 39.285156 23.625 72.40625 47.898438 33.121094-24.273438 72-47.652344 72.410156-47.898438 4.035156-2.382812 9.242188-1.0625 11.65625 2.957031 2.410156 4.019532 1.128906 9.234376-2.875 11.675782-.425781.257812-42.699218 25.679687-76.070312 50.710937-1.476563 1.105469-3.273438 1.707031-5.121094 1.707031zm0 0"/><path d="m366.9375 409.601562c-.621094-.003906-1.242188-.070312-1.851562-.199218-.660157-.148438-66.8125-14.652344-94.085938-9.753906-4.589844.742187-8.929688-2.328126-9.757812-6.90625-.828126-4.574219 2.164062-8.972657 6.722656-9.882813 24.472656-4.417969 72.457031 4.140625 92.152344 8.070313.445312-17.722657-16.09375-34.835938-16.285157-35.03125-3.230469-3.347657-3.1875-8.667969.105469-11.960938s8.613281-3.335938 11.960938-.105469c1.203124 1.195313 29.214843 29.675781 19.128906 59.933594-1.160156 3.480469-4.417969 5.832031-8.089844 5.835937zm0 0"/><path d="m341.332031 477.867188c-24.324219 0-42.664062-11.007813-42.664062-25.601563 0-14.589844 18.339843-25.597656 42.664062-25.597656 24.328125 0 42.667969 11.007812 42.667969 25.597656 0 14.59375-18.339844 25.601563-42.667969 25.601563zm0-34.132813c-16.519531 0-25.597656 6.40625-25.597656 8.53125s9.078125 8.535156 25.597656 8.535156c16.523438 0 25.601563-6.410156 25.601563-8.535156s-9.078125-8.53125-25.601563-8.53125zm0 0"/><path d="m256 426.667969c-4.710938 0-8.535156-3.820313-8.535156-8.535157v-17.066406c0-4.710937 3.824218-8.53125 8.535156-8.53125 4.714844 0 8.535156 3.820313 8.535156 8.53125v17.066406c0 4.714844-3.820312 8.535157-8.535156 8.535157zm0 0"/></svg>