<svg height="512pt" viewBox="0 0 512.00015 512" width="512pt" xmlns="http://www.w3.org/2000/svg"><path d="m409.601562 503.464844h93.867188l-.003906-7.59375c.015625-10.925782-1.300782-21.816406-3.921875-32.425782l-7.9375-32.171874c-9.203125-33.554688-40.046875-56.558594-74.835938-55.808594h-321.539062c-34.789063-.75-65.632813 22.253906-74.835938 55.808594l-7.9375 32.171874c-2.621093 10.609376-3.9375 21.5-3.921875 32.425782v7.59375zm0 0" fill="#91562d"/><path d="m187.734375 295.945312h136.53125v65.175782h-136.53125zm0 0" fill="#fec108"/><path d="m315.734375 349.867188s-5.460937 32.851562-33.964844 45.910156c-6.472656-7.480469-15.878906-11.777344-25.769531-11.777344s-19.296875 4.296875-25.769531 11.777344c-28.503907-13.058594-33.964844-45.910156-33.964844-45.910156zm0 0" fill="#ffdc00"/><path d="m179.285156 503.464844h-102.484375l16.042969-77.652344zm0 0" fill="#6d4122"/><path d="m419.15625 425.726562-86.355469 77.738282h-153.515625l-86.441406-77.652344 11.519531-55.890625 59.050781-20.054687h32.851563s5.460937 32.851562 33.964844 45.910156c6.472656-7.480469 15.878906-11.777344 25.769531-11.777344s19.296875 4.296875 25.769531 11.777344c28.503907-13.058594 33.964844-45.910156 33.964844-45.910156h32.9375l58.964844 20.054687 1.195312 5.542969zm0 0" fill="#ffdc00"/><path d="m435.199219 503.464844h-102.398438l86.355469-77.738282zm0 0" fill="#6d4122"/><path d="m273.066406 477.867188c0 14.136718-17.066406 25.597656-17.066406 25.597656s-17.066406-11.460938-17.066406-25.597656c0-14.140626 17.066406-25.601563 17.066406-25.601563s17.066406 11.460937 17.066406 25.601563zm0 0" fill="#e91e63"/><path d="m210.308594 460.226562c-12.628906 6.351563-30.539063-3.742187-30.539063-3.742187s2.570313-20.394531 15.199219-26.75c12.628906-6.359375 30.539062 3.738281 30.539062 3.738281s-2.570312 20.398438-15.199218 26.753906zm0 0" fill="#e91e63"/><path d="m302.261719 460.226562c12.628906 6.351563 30.539062-3.742187 30.539062-3.742187s-2.570312-20.394531-15.199219-26.75c-12.628906-6.359375-30.539062 3.738281-30.539062 3.738281s2.566406 20.398438 15.199219 26.753906zm0 0" fill="#e91e63"/><path d="m290.132812 418.132812c.019532 16.535157-11.800781 30.710938-28.070312 33.664063-16.265625 2.953125-32.316406-6.164063-38.109375-21.652344-5.792969-15.484375.332031-32.898437 14.546875-41.347656 14.210938-8.445313 32.433594-5.507813 43.269531 6.980469 5.390625 6.203125 8.359375 14.140625 8.363281 22.355468zm0 0" fill="#ffdc00"/><path d="m384 106.667969c.011719.738281-.015625 1.480469-.085938 2.21875 0 .9375 0 142.589843-.171874 143.53125.03125.488281-.027344.980469-.167969 1.449219-.390625 4.515624-1.367188 8.960937-2.902344 13.226562-8.335937 24.019531-30.976563 40.121094-56.40625 40.105469h-136.53125c-25.425781.015625-48.070313-16.085938-56.40625-40.105469-1.535156-4.265625-2.511719-8.710938-2.902344-13.226562-.140625-.46875-.199219-.960938-.167969-1.449219-.171874-1.625-.257812-144.042969-.257812-145.75zm0 0" fill="#fec108"/><path d="m349.867188 106.667969c0 .679687 0 1.449219-.0625 2.21875 0 .9375 0 142.589843-.125 143.53125.019531.484375-.023438.972656-.125 1.449219-.277344 4.46875-.992188 8.898437-2.128907 13.226562-5.945312 23.382812-22.214843 40.105469-41.363281 40.105469h-100.125c-19.148438 0-35.417969-16.722657-41.363281-40.105469-1.136719-4.328125-1.851563-8.757812-2.128907-13.226562-.101562-.476563-.144531-.964844-.125-1.449219-.125-1.625-.1875-144.042969-.1875-145.75zm0 0" fill="#ffdc00"/><path d="m256 8.535156c145.066406 0 179.199219 85.332032 179.199219 179.199219 0 145.316406-9.519531 169.273437-34.132813 187.730469-20.179687 14.902344-35.117187 35.8125-42.667968 59.734375-42.664063-76.800781 25.601562-145.066407 25.601562-187.734375 0-42.664063 0-93.863282-34.132812-119.464844-34.132813-25.601562-51.199219-8.535156-93.867188-8.535156s-59.734375-17.066406-93.867188 8.535156c-34.132812 25.601562-34.132812 76.800781-34.132812 119.464844 0 42.667968 68.265625 110.933594 25.601562 187.734375-7.550781-23.921875-22.488281-44.832031-42.667968-59.734375-24.613282-18.457032-34.132813-42.414063-34.132813-187.730469 0-93.867187 34.132813-179.199219 179.199219-179.199219zm0 0" fill="#37474f"/><path d="m179.199219 238.933594h-17.066407c-4.710937 0-8.53125-3.820313-8.53125-8.535156 0-4.710938 3.820313-8.53125 8.53125-8.53125h17.066407c4.714843 0 8.535156 3.820312 8.535156 8.53125 0 4.714843-3.820313 8.535156-8.535156 8.535156zm0 0" fill="#f57c00"/><path d="m349.867188 238.933594h-17.066407c-4.714843 0-8.535156-3.820313-8.535156-8.535156 0-4.710938 3.820313-8.53125 8.535156-8.53125h17.066407c4.710937 0 8.53125 3.820312 8.53125 8.53125 0 4.714843-3.820313 8.535156-8.53125 8.535156zm0 0" fill="#f57c00"/><g fill="#805333"><path d="m256 512c-1.695312 0-3.351562-.503906-4.757812-1.449219-2.132813-1.433593-20.84375-14.523437-20.84375-32.683593 0-18.164063 18.710937-31.25 20.84375-32.683594 2.878906-1.933594 6.636718-1.933594 9.515624 0 2.132813 1.433594 20.84375 14.519531 20.84375 32.683594 0 18.160156-18.710937 31.25-20.84375 32.683593-1.40625.945313-3.0625 1.449219-4.757812 1.449219zm0-48.734375c-4.558594 3.640625-7.597656 8.84375-8.535156 14.601563.9375 5.757812 3.976562 10.960937 8.535156 14.597656 4.558594-3.636719 7.597656-8.839844 8.535156-14.597656-.9375-5.757813-3.976562-10.960938-8.535156-14.601563zm0 0"/><path d="m200.609375 470.871094c-8.773437-.335938-17.34375-2.714844-25.03125-6.953125-3.019531-1.703125-4.707031-5.058594-4.273437-8.5.320312-2.546875 3.605468-25.144531 19.832031-33.308594 16.207031-8.160156 36.316406 2.671875 38.5625 3.933594 3.019531 1.703125 4.707031 5.0625 4.277343 8.5-.324218 2.550781-3.609374 25.148437-19.835937 33.304687-4.210937 2.054688-8.847656 3.089844-13.53125 3.023438zm-11-19.328125c5.296875 2.429687 11.308594 2.808593 16.867187 1.0625 4.722657-3.425781 8-8.480469 9.207032-14.1875-5.300782-2.425781-11.3125-2.804688-16.875-1.0625-4.714844 3.425781-7.992188 8.480469-9.199219 14.1875zm0 0"/><path d="m311.960938 470.871094c-4.683594.066406-9.320313-.96875-13.53125-3.023438-16.230469-8.15625-19.511719-30.753906-19.835938-33.304687-.429688-3.4375 1.257812-6.796875 4.277344-8.5 2.246094-1.257813 22.355468-12.078125 38.5625-3.929688 16.230468 8.160157 19.511718 30.757813 19.832031 33.304688.433594 3.441406-1.253906 6.796875-4.273437 8.5-7.6875 4.238281-16.257813 6.617187-25.03125 6.953125zm-15.070313-32.449219c1.203125 5.703125 4.484375 10.757813 9.207031 14.179687v.007813c5.5625 1.746094 11.574219 1.367187 16.871094-1.066406-1.199219-5.707031-4.476562-10.761719-9.199219-14.183594-5.5625-1.753906-11.578125-1.375-16.878906 1.0625zm0 0"/><path d="m281.773438 404.308594c-4.015626.011718-7.5-2.785156-8.355469-6.710938-.859375-3.929687 1.140625-7.921875 4.796875-9.585937 23.890625-10.941407 29.054687-39.292969 29.105468-39.582031.839844-4.585938 5.210938-7.648438 9.808594-6.875 4.601563.773437 7.726563 5.097656 7.019532 9.707031-.253907 1.523437-6.570313 37.496093-38.824219 52.265625-1.113281.515625-2.324219.78125-3.550781.78125zm0 0"/><path d="m230.230469 404.308594c-1.226563 0-2.4375-.265625-3.550781-.777344-32.25-14.773438-38.570313-50.742188-38.828126-52.269531-.703124-4.609375 2.421876-8.929688 7.019532-9.703125 4.601562-.773438 8.96875 2.289062 9.808594 6.875.050781.289062 5.21875 28.636718 29.105468 39.578125 3.660156 1.667969 5.65625 5.660156 4.800782 9.585937-.859376 3.929688-4.339844 6.722656-8.359376 6.714844zm0 0"/></g><path d="m256 460.800781c-23.550781-.011719-42.636719-19.105469-42.632812-42.65625.003906-23.550781 19.09375-42.640625 42.644531-42.644531s42.644531 19.082031 42.65625 42.632812c-.027344 23.554688-19.117188 42.640626-42.667969 42.667969zm0-68.265625c-12.070312-.019531-22.515625 8.382813-25.085938 20.175782-2.570312 11.789062 3.429688 23.777343 14.410157 28.785156 10.980469 5.007812 23.96875 1.679687 31.1875-7.992188 7.214843-9.671875 6.710937-23.070312-1.214844-32.171875-4.839844-5.609375-11.890625-8.824219-19.296875-8.796875zm0 0" fill="#cb8252"/><path d="m296.339844 256c-6.894532 13.492188-28.414063 15.402344-40.167969 15.402344-11.78125 0-33.277344-1.910156-40.171875-15.402344 13.148438 3.238281 26.628906 4.929688 40.171875 5.035156 13.539063-.105468 27.023437-1.796875 40.167969-5.035156zm0 0"/><path d="m233.648438 162.890625c-8.109376-2.980469-16.625-4.707031-25.257813-5.117187-11.601563-.878907-23.214844 1.597656-33.449219 7.132812 1.167969-14.933594 35.789063-17.886719 52.710938-14.046875 2.683594.335937 5.019531 1.988281 6.226562 4.410156 1.207032 2.417969 1.121094 5.28125-.230468 7.621094zm0 0"/><path d="m278.351562 162.890625c8.109376-2.980469 16.625-4.707031 25.257813-5.117187 11.601563-.878907 23.214844 1.597656 33.449219 7.132812-1.167969-14.933594-35.789063-17.886719-52.710938-14.046875-2.683594.335937-5.019531 1.988281-6.226562 4.410156-1.207032 2.417969-1.117188 5.28125.230468 7.621094zm0 0"/><path d="m186.535156 176.964844s2.429688 10.902344 11.828125 8.777344c9.402344-2.125 11.191407 1.957031 19.292969 1.304687 2.769531-.1875 5.554688-.019531 8.28125.507813 1.9375.449218 3.949219.480468 5.898438.09375 2.699218-.722657 2.464843-3.855469 1.519531-5.894532-3.746094-8.082031-14.292969-8.671875-22.007813-7.773437-3.273437.886719-6.601562 1.558593-9.960937 2.007812-3.519531-.976562-6.800781-2.664062-9.644531-4.957031.617187 2.191406.765624 4.488281.4375 6.742188-.976563 1.851562-5.644532-.808594-5.644532-.808594zm0 0"/><path d="m230.398438 193.546875c0-10.101563-7.640626-18.292969-17.066407-18.292969s-17.066406 8.191406-17.066406 18.292969 7.640625 18.292969 17.066406 18.292969 17.066407-8.191406 17.066407-18.292969zm0 0"/><path d="m218.117188 177.671875c-4.402344-1.671875-9.332032.539063-11.007813 4.945313-1.675781 4.402343.535156 9.332031 4.941406 11.007812s9.335938-.535156 11.011719-4.941406c1.671875-4.40625-.539062-9.335938-4.945312-11.011719zm0 0" fill="#fff"/><path d="m325.460938 176.964844s-2.429688 10.902344-11.832032 8.777344c-9.398437-2.125-11.191406 1.957031-19.289062 1.304687-2.773438-.1875-5.554688-.019531-8.285156.507813-1.933594.449218-3.945313.480468-5.894532.09375-2.699218-.722657-2.46875-3.855469-1.523437-5.894532 3.75-8.082031 14.296875-8.671875 22.011719-7.773437 3.273437.886719 6.597656 1.558593 9.960937 2.007812 3.519531-.976562 6.800781-2.664062 9.640625-4.957031-.613281 2.191406-.761719 4.488281-.433594 6.742188.980469 1.851562 5.644532-.808594 5.644532-.808594zm0 0"/><path d="m315.730469 193.546875c0-10.101563-7.640625-18.292969-17.066407-18.292969-9.425781 0-17.066406 8.191406-17.066406 18.292969s7.640625 18.292969 17.066406 18.292969c9.425782 0 17.066407-8.191406 17.066407-18.292969zm0 0"/><path d="m304.894531 182.621094c-1.675781-4.40625-6.601562-6.621094-11.007812-4.945313s-6.617188 6.605469-4.941407 11.011719c1.675782 4.402344 6.601563 6.617188 11.007813 4.941406 4.40625-1.675781 6.617187-6.605468 4.941406-11.007812zm0 0" fill="#fff"/><path d="m435.199219 512h-358.398438c-2.566406 0-4.996093-1.152344-6.617187-3.144531-1.621094-1.988281-2.261719-4.601563-1.742188-7.113281l27.5625-133.546876c.953125-4.617187 5.46875-7.585937 10.082032-6.632812 4.617187.953125 7.585937 5.46875 6.636718 10.082031l-25.449218 123.289063h337.457031l-25.429688-123.214844c-.996093-4.605469 1.933594-9.144531 6.539063-10.140625 4.609375-.992187 9.148437 1.9375 10.144531 6.542969l1.191406 5.546875 26.386719 128.078125c.519531 2.511718-.121094 5.125-1.746094 7.113281-1.621094 1.988281-4.050781 3.140625-6.617187 3.140625zm0 0"/><path d="m348.671875 358.398438h-185.257813c-4.714843 0-8.535156-3.820313-8.535156-8.53125 0-4.714844 3.820313-8.535157 8.535156-8.535157h185.257813c4.714844 0 8.535156 3.820313 8.535156 8.535157 0 4.710937-3.820312 8.53125-8.535156 8.53125zm0 0"/><path d="m324.265625 358.398438h-136.53125c-4.714844 0-8.535156-3.820313-8.535156-8.53125v-42.667969c0-4.710938 3.820312-8.53125 8.535156-8.53125h136.53125c4.714844 0 8.535156 3.820312 8.535156 8.53125v42.667969c0 4.710937-3.820312 8.53125-8.535156 8.53125zm-128-17.066407h119.46875v-25.597656h-119.46875zm0 0"/><path d="m324.265625 315.734375h-136.53125c-29.058594-.003906-54.929687-18.402344-64.46875-45.847656-1.6875-4.691407-2.785156-9.578125-3.269531-14.542969-.175782-.8125-.265625-1.640625-.269532-2.472656-.175781-1.765625-.261718-3.542969-.261718-5.40625 0-4.710938 3.824218-8.53125 8.535156-8.53125 4.714844 0 8.535156 3.820312 8.535156 8.53125-.003906 1.355468.066406 2.710937.207032 4.054687.019531.210938.03125.417969.042968.625.0625.308594.105469.617188.136719.929688.324219 3.78125 1.136719 7.5 2.414063 11.070312 7.125 20.648438 26.554687 34.507813 48.398437 34.523438h136.53125c21.789063 0 41.1875-13.792969 48.34375-34.371094 1.304687-3.617187 2.136719-7.390625 2.472656-11.222656.03125-.335938.082031-.671875.15625-1.003907.015625-.394531.054688-.789062.113281-1.183593.046876-.398438.058594-.800781.03125-1.203125 0-.304688.015626-.613282.050782-.917969.035156-.433594.046875-.867187.03125-1.300781 0-4.710938 3.824218-8.53125 8.535156-8.53125 4.714844 0 8.535156 3.820312 8.535156 8.53125 0 .8125-.015625 1.714844-.085937 2.625.003906 1.015625-.058594 2.027344-.179688 3.03125-.023437.746094-.113281 1.492187-.265625 2.222656-.496094 5.019531-1.613281 9.953125-3.328125 14.695312-9.570312 27.375-35.40625 45.707032-64.410156 45.695313zm51.210937-64.566406-.003906.011719zm-238.957031 0 .003907.011719zm0 0"/><path d="m102.398438 512h-93.863282c-4.714844 0-8.535156-3.820312-8.535156-8.535156v-7.59375c-.0117188-11.617188 1.390625-23.195313 4.175781-34.480469l7.9375-32.160156c10.019531-37.453125 44.359375-63.191407 83.117188-62.296875h8.023437c4.710938 0 8.53125 3.820312 8.53125 8.53125 0 4.714844-3.820312 8.535156-8.53125 8.535156h-8.023437c-30.898438-.875-58.386719 19.496094-66.550781 49.308594l-7.9375 32.183594c-2.378907 9.636718-3.609376 19.519531-3.667969 29.441406h85.324219c4.714843 0 8.535156 3.820312 8.535156 8.53125 0 4.714844-3.820313 8.535156-8.535156 8.535156zm0 0"/><path d="m503.464844 512h-93.863282c-4.714843 0-8.535156-3.820312-8.535156-8.535156 0-4.710938 3.820313-8.53125 8.535156-8.53125h85.332032c-.058594-9.921875-1.289063-19.800782-3.667969-29.433594l-7.9375-32.179688c-8.160156-29.820312-35.65625-50.195312-66.558594-49.320312h-7.9375c-4.710937 0-8.535156-3.820312-8.535156-8.535156 0-4.710938 3.824219-8.53125 8.535156-8.53125h7.9375c38.761719-.894532 73.105469 24.851562 83.125 62.308594l7.933594 32.15625c2.785156 11.28125 4.183594 22.855468 4.171875 34.472656v7.59375c0 4.714844-3.820312 8.535156-8.535156 8.535156zm0 0"/><path d="m358.398438 443.734375c-3.09375-.003906-5.949219-1.683594-7.453126-4.390625-30.578124-55.039062-8.488281-104.945312 9.261719-145.046875 8.183594-18.5 15.257813-34.480469 15.257813-46.832031 0-42 0-89.597656-30.71875-112.636719-20.421875-15.3125-32.746094-13.378906-53.171875-10.175781-11.746094 2.09375-23.644531 3.214844-35.574219 3.347656-11.929688-.132812-23.828125-1.253906-35.574219-3.351562-20.414062-3.203126-32.753906-5.136719-53.171875 10.175781-30.71875 23.042969-30.71875 70.640625-30.71875 112.640625 0 12.351562 7.074219 28.332031 15.261719 46.832031 17.75 40.105469 39.839844 90.007813 9.261719 145.046875-1.703125 3.0625-5.101563 4.773438-8.574219 4.316406-3.472656-.457031-6.3125-2.992187-7.164063-6.390625-7.148437-21.976562-20.957031-41.191406-39.507812-54.976562-28.628906-21.476563-37.546875-51.113281-37.546875-194.558594 0-126.324219 61.410156-187.734375 187.734375-187.734375s187.734375 61.410156 187.734375 187.734375c0 143.445313-8.917969 173.082031-37.546875 194.558594-18.609375 13.730469-32.433594 32.964843-39.511719 54.980469-.847656 3.394531-3.6875 5.929687-7.160156 6.386718-.371094.050782-.742187.074219-1.117187.074219zm-46.402344-338.363281c15.726562.144531 30.914062 5.726562 42.992187 15.800781 37.546875 28.160156 37.546875 82.574219 37.546875 126.292969 0 15.960937-7.75 33.46875-16.726562 53.738281-14.941406 33.757813-31.625 71.460937-17.78125 112.28125 9.09375-17.617187 22.058594-32.949219 37.917968-44.84375 21.359376-16.023437 30.722657-37.972656 30.722657-180.90625 0-116.4375-54.230469-170.667969-170.667969-170.667969s-170.667969 54.230469-170.667969 170.667969c0 142.929687 9.363281 164.882813 30.722657 180.90625 15.859374 11.894531 28.824218 27.222656 37.917968 44.839844 13.84375-40.820313-2.839844-78.519531-17.78125-112.277344-8.976562-20.269531-16.726562-37.777344-16.726562-53.738281 0-43.71875 0-98.132813 37.546875-126.292969 26.175781-19.636719 44.648437-16.746094 66.058593-13.386719 10.871094 1.949219 21.886719 3 32.929688 3.148438 11.042969-.148438 22.058594-1.199219 32.929688-3.144532 7.613281-1.40625 15.328124-2.210937 23.066406-2.417968zm0 0"/><path d="m256 460.800781c-23.5625 0-42.667969-19.101562-42.667969-42.667969 0-23.5625 19.105469-42.667968 42.667969-42.667968s42.667969 19.105468 42.667969 42.667968c-.027344 23.554688-19.117188 42.640626-42.667969 42.667969zm0-68.265625c-14.136719 0-25.601562 11.460938-25.601562 25.597656 0 14.140626 11.464843 25.601563 25.601562 25.601563s25.601562-11.460937 25.601562-25.601563c-.015624-14.132812-11.46875-25.582031-25.601562-25.597656zm0 0"/><path d="m281.773438 404.308594c-4.015626.011718-7.5-2.785156-8.355469-6.710938-.859375-3.929687 1.140625-7.921875 4.796875-9.585937 23.890625-10.941407 29.054687-39.292969 29.105468-39.582031.839844-4.585938 5.210938-7.648438 9.808594-6.875 4.601563.773437 7.726563 5.097656 7.019532 9.707031-.253907 1.523437-6.570313 37.496093-38.824219 52.265625-1.113281.515625-2.324219.78125-3.550781.78125zm0 0"/><path d="m230.230469 404.308594c-1.226563 0-2.4375-.265625-3.550781-.777344-32.25-14.773438-38.570313-50.742188-38.828126-52.269531-.703124-4.609375 2.421876-8.929688 7.019532-9.703125 4.601562-.773438 8.96875 2.289062 9.808594 6.875.050781.289062 5.21875 28.636718 29.105468 39.578125 3.660156 1.667969 5.65625 5.660156 4.800782 9.585937-.859376 3.929688-4.339844 6.722656-8.359376 6.714844zm0 0"/><path d="m256 512c-1.695312 0-3.351562-.503906-4.757812-1.449219-2.132813-1.433593-20.84375-14.523437-20.84375-32.683593 0-18.164063 18.710937-31.25 20.84375-32.683594 2.878906-1.933594 6.636718-1.933594 9.515624 0 2.132813 1.433594 20.84375 14.519531 20.84375 32.683594 0 18.160156-18.710937 31.25-20.84375 32.683593-1.40625.945313-3.0625 1.449219-4.757812 1.449219zm0-48.734375c-4.558594 3.640625-7.597656 8.84375-8.535156 14.601563.9375 5.757812 3.976562 10.960937 8.535156 14.597656 4.558594-3.636719 7.597656-8.839844 8.535156-14.597656-.9375-5.757813-3.976562-10.960938-8.535156-14.601563zm0 0"/><path d="m200.609375 470.871094c-8.773437-.335938-17.34375-2.714844-25.03125-6.953125-3.019531-1.703125-4.707031-5.058594-4.273437-8.5.320312-2.546875 3.605468-25.144531 19.832031-33.308594 16.207031-8.160156 36.316406 2.671875 38.5625 3.933594 3.019531 1.703125 4.707031 5.0625 4.277343 8.5-.324218 2.550781-3.609374 25.148437-19.835937 33.304687-4.210937 2.054688-8.847656 3.089844-13.53125 3.023438zm-11-19.328125c5.296875 2.429687 11.308594 2.808593 16.867187 1.0625 4.722657-3.425781 8-8.480469 9.207032-14.1875-5.300782-2.425781-11.3125-2.804688-16.875-1.0625-4.714844 3.425781-7.992188 8.480469-9.199219 14.1875zm0 0"/><path d="m311.960938 470.871094c-4.683594.066406-9.320313-.96875-13.53125-3.023438-16.230469-8.15625-19.511719-30.753906-19.835938-33.304687-.429688-3.4375 1.257812-6.796875 4.277344-8.5 2.246094-1.257813 22.355468-12.078125 38.5625-3.929688 16.230468 8.160157 19.511718 30.757813 19.832031 33.304688.433594 3.441406-1.253906 6.796875-4.273437 8.5-7.6875 4.238281-16.257813 6.617187-25.03125 6.953125zm-15.070313-32.449219c1.203125 5.703125 4.484375 10.757813 9.207031 14.179687v.007813c5.5625 1.746094 11.574219 1.367187 16.871094-1.066406-1.199219-5.707031-4.476562-10.761719-9.199219-14.183594-5.5625-1.753906-11.578125-1.375-16.878906 1.0625zm0 0"/><path d="m179.199219 512c-2.105469.003906-4.140625-.777344-5.703125-2.191406l-85.332032-76.800782c-3.417968-3.171874-3.660156-8.496093-.539062-11.964843 3.117188-3.464844 8.441406-3.785157 11.953125-.71875l85.335937 76.800781c2.625 2.363281 3.523438 6.101562 2.253907 9.402344-1.265625 3.296875-4.433594 5.472656-7.96875 5.472656zm0 0"/><path d="m332.804688 512c-3.535157 0-6.703126-2.175781-7.96875-5.472656-1.265626-3.300782-.371094-7.039063 2.257812-9.402344l85.332031-76.800781c2.257813-2.09375 5.46875-2.808594 8.402344-1.871094s5.132813 3.382813 5.757813 6.398437c.625 3.015626-.425782 6.132813-2.746094 8.15625l-85.332032 76.800782c-1.5625 1.410156-3.597656 2.191406-5.703124 2.191406zm0 0"/></svg>