<svg height="512pt" viewBox="0 0 512.00011 512" width="512pt" xmlns="http://www.w3.org/2000/svg"><path d="m503.464844 495.851562.003906 7.597657h-494.933594v-7.597657c-.015625-10.925781 1.300782-21.816406 3.921875-32.425781l7.9375-32.167969c9.203125-33.558593 40.046875-56.558593 74.835938-55.808593h321.539062c34.789063-.75 65.632813 22.25 74.835938 55.808593l7.9375 32.167969c2.621093 10.609375 3.9375 21.5 3.921875 32.425781zm0 0" fill="#4527a0"/><path d="m435.199219 503.449219h-358.398438l26.453125-128 2.472656-11.949219c2.945313-8.820312 11.558594-14.46875 20.824219-13.652344h258.898438c9.285156-.816406 17.921875 4.824219 20.90625 13.652344l2.476562 11.949219zm0 0" fill="#673ab7"/><path d="m384 136.515625v110.933594c.003906 26.476562-17.4375 49.789062-42.835938 57.257812h-170.328124c-25.398438-7.46875-42.839844-30.78125-42.835938-57.257812v-110.933594zm0 0" fill="#fec108"/><path d="m358.398438 136.515625v110.933594c0 27.132812-14.472657 50.003906-34.269532 57.257812h-136.257812c-19.796875-7.253906-34.269532-30.125-34.269532-57.257812v-110.933594zm0 0" fill="#ffdc00"/><path d="m469.453125 136.515625h-426.90625c-3.914063 0-7.324219-2.660156-8.277344-6.457031s.796875-7.753906 4.25-9.601563l33.757813-18.074219 31.828125-17.066406 31.832031-17.070312 31.914062-17.066406 72.445313-38.824219c9.84375-5.121094 21.5625-5.121094 31.40625 0l72.445313 38.824219 31.914062 17.066406 31.832031 17.070312 31.828125 17.066406 33.757813 18.074219c3.453125 1.847657 5.203125 5.804688 4.25 9.601563s-4.363281 6.457031-8.277344 6.457031zm0 0" fill="#6d4122"/><path d="m411.890625 136.515625h-311.78125c-6.484375 0-8.65625-11.867187-2.941406-16.058594l24.652343-18.074219 23.246094-17.066406 23.246094-17.070312 23.308594-17.066406 52.90625-38.824219c6.785156-5.121094 16.144531-5.121094 22.933594 0l52.90625 38.824219 23.308593 17.066406 23.257813 17.070312 23.246094 17.066406 24.65625 18.074219c5.710937 4.191407 3.539062 16.058594-2.945313 16.058594zm0 0" fill="#91562d"/><path d="m358.398438 428.976562c-51.199219-8.277343-59.730469-66.199218-59.730469-66.199218s-8.535157 8.277344 0 57.921875c5.351562 28.753906-.777344 58.460937-17.066407 82.75 0-16.550781 0-16.550781-25.601562-49.648438-25.601562-33.101562-25.601562-91.023437-25.601562-91.023437-6.140626 35.292968-28.167969 65.804687-59.730469 82.746094 34.132812-33.097657 0-82.746094 0-132.394532 0-49.648437 17.066406-82.746094 42.664062-82.746094 25.601563 0 25.601563 8.277344 42.667969 8.277344s17.066406-8.277344 42.667969-8.277344c25.597656 0 42.664062 33.097657 42.664062 82.746094 0 49.648438-8.53125 82.746094 17.066407 115.847656zm0 0" fill="#f5f5f5"/><path d="m233.648438 167.140625c-8.109376-2.984375-16.625-4.707031-25.257813-5.121094-11.601563-.875-23.214844 1.597657-33.449219 7.132813 1.167969-14.933594 35.789063-17.882813 52.710938-14.042969 2.683594.332031 5.019531 1.988281 6.226562 4.40625 1.207032 2.417969 1.121094 5.28125-.230468 7.625zm0 0" fill="#f5f5f5"/><path d="m230.398438 193.527344c0-10.101563-7.640626-18.292969-17.066407-18.292969s-17.066406 8.191406-17.066406 18.292969c0 10.101562 7.640625 18.292968 17.066406 18.292968s17.066407-8.191406 17.066407-18.292968zm0 0"/><path d="m218.117188 177.65625c-4.402344-1.675781-9.332032.535156-11.007813 4.941406s.535156 9.332032 4.941406 11.007813 9.335938-.535157 11.011719-4.941407c1.671875-4.40625-.539062-9.332031-4.945312-11.007812zm0 0" fill="#fff"/><path d="m278.351562 167.140625c8.109376-2.984375 16.625-4.707031 25.257813-5.121094 11.601563-.875 23.214844 1.597657 33.449219 7.132813-1.167969-14.933594-35.789063-17.882813-52.710938-14.042969-2.683594.332031-5.019531 1.988281-6.226562 4.40625-1.207032 2.417969-1.117188 5.28125.230468 7.625zm0 0" fill="#f5f5f5"/><path d="m315.734375 193.527344c0-10.101563-7.640625-18.292969-17.066406-18.292969s-17.066407 8.191406-17.066407 18.292969c0 10.101562 7.640626 18.292968 17.066407 18.292968s17.066406-8.191406 17.066406-18.292968zm0 0"/><path d="m304.890625 182.597656c-1.675781-4.40625-6.601563-6.617187-11.007813-4.941406s-6.617187 6.601562-4.941406 11.007812c1.675782 4.40625 6.601563 6.617188 11.007813 4.941407s6.617187-6.601563 4.941406-11.007813zm0 0" fill="#fff"/><path d="m435.199219 511.980469h-358.398438c-2.566406 0-4.996093-1.15625-6.617187-3.144531-1.621094-1.992188-2.261719-4.605469-1.742188-7.117188l28.933594-139.945312c3.6875-12.84375 15.84375-21.371094 29.175781-20.457032h48.808594c4.714844 0 8.535156 3.820313 8.535156 8.53125 0 4.714844-3.820312 8.535156-8.535156 8.535156h-48.808594c-6.871093 0-11.8125 3.507813-12.445312 6.757813l-26.828125 129.773437h337.457031l-26.730469-129.683593c-2.300781-4.722657-7.335937-7.46875-12.554687-6.847657h-45.140625c-4.710938 0-8.53125-3.820312-8.53125-8.535156 0-4.710937 3.820312-8.53125 8.53125-8.53125h45.140625c13.339843-.855468 25.492187 7.636719 29.269531 20.457032l28.84375 139.953124c.519531 2.511719-.121094 5.125-1.746094 7.113282-1.621094 1.988281-4.050781 3.144531-6.617187 3.140625zm0 0"/><path d="m170.839844 313.238281c-.8125.003907-1.621094-.117187-2.402344-.347656-28.96875-8.628906-48.863281-35.21875-48.972656-65.441406v-110.933594c0-4.714844 3.824218-8.535156 8.535156-8.535156 4.714844 0 8.535156 3.820312 8.535156 8.535156v110.933594c.078125 22.660156 14.988282 42.59375 36.703125 49.070312 4.078125 1.1875 6.660157 5.195313 6.058594 9.402344-.605469 4.203125-4.207031 7.324219-8.457031 7.324219zm0 0"/><path d="m341.164062 313.238281c-4.25.003907-7.851562-3.117187-8.457031-7.320312-.601562-4.207031 1.980469-8.214844 6.058594-9.402344 21.714844-6.476563 36.621094-26.410156 36.699219-49.066406v-110.933594c0-4.714844 3.824218-8.535156 8.535156-8.535156 4.714844 0 8.535156 3.820312 8.535156 8.535156v110.933594c-.109375 30.226562-20.003906 56.8125-48.972656 65.445312-.777344.230469-1.585938.347657-2.398438.34375zm0 0"/><path d="m102.398438 511.980469h-93.863282c-4.714844 0-8.535156-3.820313-8.535156-8.53125v-7.597657c-.0117188-11.617187 1.390625-23.195312 4.175781-34.476562l7.9375-32.164062c10.019531-37.453126 44.359375-63.191407 83.117188-62.296876h8.023437c4.710938 0 8.53125 3.820313 8.53125 8.535157 0 4.710937-3.820312 8.53125-8.53125 8.53125h-8.023437c-30.898438-.871094-58.386719 19.496093-66.550781 49.308593l-7.9375 32.183594c-2.378907 9.636719-3.609376 19.519532-3.667969 29.441406h85.324219c4.714843 0 8.535156 3.820313 8.535156 8.535157 0 4.710937-3.820313 8.53125-8.535156 8.53125zm0 0"/><path d="m503.464844 511.980469h-93.863282c-4.714843 0-8.535156-3.820313-8.535156-8.53125 0-4.714844 3.820313-8.535157 8.535156-8.535157h85.332032c-.066406-9.921874-1.296875-19.804687-3.675782-29.441406l-7.9375-32.175781c-8.164062-29.816406-35.652343-50.183594-66.550781-49.316406h-7.9375c-4.710937 0-8.535156-3.820313-8.535156-8.53125 0-4.714844 3.824219-8.535157 8.535156-8.535157h7.9375c38.761719-.890624 73.105469 24.851563 83.125 62.308594l7.933594 32.164063c2.78125 11.277343 4.179687 22.851562 4.171875 34.464843v7.597657c0 4.710937-3.820312 8.53125-8.535156 8.53125zm0 0"/><path d="m503.464844 145.046875h-494.929688c-3.914062 0-7.324218-2.660156-8.273437-6.453125-.953125-3.796875.796875-7.75 4.242187-9.597656l231.785156-124.1875c12.320313-6.390625 26.976563-6.414063 39.316407-.054688l231.894531 124.242188c3.445312 1.851562 5.191406 5.804687 4.238281 9.597656s-4.363281 6.453125-8.273437 6.453125zm-460.933594-17.066406h426.933594l-201.8125-108.128907c-7.355469-3.757812-16.074219-3.734374-23.414063.058594zm0 0"/><path d="m213.332031 102.382812h-125.183593c-4.710938 0-8.53125-3.820312-8.53125-8.535156 0-4.710937 3.820312-8.53125 8.53125-8.53125h125.183593c4.714844 0 8.535157 3.820313 8.535157 8.53125 0 4.714844-3.820313 8.535156-8.535157 8.535156zm0 0"/><path d="m423.851562 102.382812h-167.851562c-4.710938 0-8.535156-3.820312-8.535156-8.535156 0-4.710937 3.824218-8.53125 8.535156-8.53125h167.851562c4.710938 0 8.53125 3.820313 8.53125 8.53125 0 4.714844-3.820312 8.535156-8.53125 8.535156zm0 0"/><path d="m360.105469 68.246094h-208.210938c-4.714843 0-8.535156-3.820313-8.535156-8.53125 0-4.714844 3.820313-8.535156 8.535156-8.535156h208.210938c4.714843 0 8.535156 3.820312 8.535156 8.535156 0 4.710937-3.820313 8.53125-8.535156 8.53125zm0 0"/><path d="m281.601562 511.980469c-4.714843 0-8.535156-3.820313-8.535156-8.53125 0-13.636719 0-13.636719-23.816406-44.429688-11.886719-16.914062-19.804688-36.292969-23.167969-56.691406-11.988281 21.570313-29.9375 39.230469-51.695312 50.875-3.769531 1.828125-8.308594.644531-10.710938-2.785156-2.402343-3.433594-1.957031-8.101563 1.050781-11.019531 18.8125-18.242188 12.726563-43.777344 5.679688-73.339844-4.820312-17.257813-7.597656-35.023438-8.273438-52.929688 0-55.453125 20.097657-91.28125 51.199219-91.28125 10.03125-.359375 20.015625 1.46875 29.265625 5.363282 8.511719 3.882812 18.292969 3.882812 26.804688 0 9.25-3.894532 19.238281-5.722657 29.265625-5.363282 31.101562 0 51.199219 35.828125 51.199219 91.28125 0 10.691406-.382813 20.421875-.75 29.835938-1.300782 33.183594-2.242188 57.164062 16.03125 80.792968 2.144531 2.769532 2.375 6.570313.585937 9.582032-1.792969 3.011718-5.242187 4.621094-8.699219 4.058594-21.949218-3.710938-41.15625-16.886719-52.519531-36.027344.570313 5.183594 1.394531 11.113281 2.558594 17.882812 5.8125 31.105469-.917969 63.25-18.726563 89.414063-1.613281 2.089843-4.105468 3.3125-6.746094 3.3125zm-51.210937-157.734375c.210937 0 .417969.007812.625.023437 4.460937.324219 7.914063 4.03125 7.917969 8.503907 0 .550781.339844 55.449218 23.816406 85.804687 7.9375 9.664063 15.316406 19.78125 22.09375 30.292969 6.871094-18.074219 8.742188-37.667969 5.414062-56.71875-8.089843-47.0625-1.921874-61.238282 2.46875-65.496094 2.296876-2.230469 5.652344-2.984375 8.683594-1.957031 3.03125 1.03125 5.234375 3.671875 5.699219 6.839843.261719 1.714844 5.726563 35.492188 32.101563 51.539063-9.074219-21.652344-8.195313-44.101563-7.148438-70.777344.363281-9.246093.738281-18.808593.738281-29.167969 0-43.703124-14.039062-74.21875-34.132812-74.21875-7.878907-.363281-15.734375 1.0625-22.984375 4.164063-12.550782 5.480469-26.816406 5.480469-39.367188 0-7.25-3.101563-15.105468-4.527344-22.984375-4.164063-20.09375 0-34.132812 30.515626-34.132812 74.214844.714843 16.566406 3.335937 33 7.808593 48.96875 5.453126 17.859375 7.734376 36.535156 6.742188 55.179688 15.070312-15.121094 24.949219-34.640625 28.207031-55.738282.613281-4.1875 4.203125-7.289062 8.433594-7.292968zm0 0"/><path d="m332.800781 511.980469h-153.601562c-4.710938 0-8.53125-3.820313-8.53125-8.53125v-62.976563c0-4.714844 3.820312-8.535156 8.53125-8.535156 4.714843 0 8.535156 3.820312 8.535156 8.535156v54.441406h136.53125v-75.945312c0-4.714844 3.820313-8.535156 8.535156-8.535156 4.710938 0 8.53125 3.820312 8.53125 8.535156v84.480469c0 4.710937-3.820312 8.53125-8.53125 8.53125zm0 0"/></svg>