<svg height="512pt" viewBox="0 0 512.00091 512" width="512pt" xmlns="http://www.w3.org/2000/svg"><path d="m409.601562 503.46875h93.867188v-7.597656c.015625-14.621094-1.296875-29.21875-3.925781-43.605469l-7.9375-29.523437c-9.203125-33.558594-40.046875-56.558594-74.835938-55.808594h-321.535156c-34.789063-.75-65.632813 22.25-74.839844 55.808594l-7.933593 29.523437c-2.632813 14.386719-3.945313 28.984375-3.925782 43.605469v7.597656zm0 0" fill="#9d27b0"/><path d="m162.132812 341.332031h-35.582031c-5.304687-.105469-10.496093 1.542969-14.761719 4.695313-3.09375 2.101562-5.261718 5.308594-6.0625 8.960937l-2.472656 11.945313-5.207031 30.121094-21.246094 106.414062h358.398438l-26.367188-136.535156-2.472656-11.945313c-2.988281-8.828125-11.625-14.46875-20.910156-13.65625h-35.582031" fill="#6a1b9a"/><path d="m424.023438 503.46875h-105.046876l-220.929687-106.414062 5.207031-30.121094 2.472656-11.945313c.800782-3.652343 2.96875-6.859375 6.0625-8.960937zm0 0" fill="#e91e63"/><path d="m392.535156 281.601562c0 31.058594-25.601562 62.035157-76.800781 69.800782-42.921875 6.484375-59.734375 15.53125-59.734375 15.53125s-16.808594-9.046875-59.734375-15.53125c-51.199219-7.765625-76.796875-38.742188-76.796875-69.800782.988281-26.027343 3.839844-51.949218 8.53125-77.570312v-127.230469c-.003906-18.105469 7.1875-35.472656 19.988281-48.277343 12.804688-12.804688 30.171875-19.996094 48.277344-19.988282h119.46875c18.105469-.007812 35.472656 7.183594 48.277344 19.988282 12.804687 12.804687 19.992187 30.171874 19.988281 48.277343v127.230469c4.691406 25.621094 7.542969 51.542969 8.535156 77.570312zm0 0" fill="#9d27b0"/><path d="m384 153.601562v50.429688s-17.066406 15.53125-59.734375 15.53125c-42.664063 0-59.730469-15.53125-68.265625-23.296875-8.53125 7.765625-25.597656 23.296875-68.265625 23.296875s-59.734375-15.53125-59.734375-15.53125v-50.429688c.023438-28.269531 22.933594-51.179687 51.199219-51.199218h153.601562c28.265625.019531 51.175781 22.929687 51.199219 51.199218zm0 0" fill="#fec108"/><path d="m358.402344 153.601562v50.429688s-13.65625 15.53125-47.789063 15.53125c-34.132812 0-47.785156-15.53125-54.613281-23.296875-6.828125 7.765625-20.480469 23.296875-54.613281 23.296875-34.132813 0-47.785157-15.53125-47.785157-15.53125v-50.429688c0-28.246093 18.363282-51.199218 40.957032-51.199218h122.882812c22.59375 0 40.960938 22.953125 40.960938 51.199218zm0 0" fill="#ffdc00"/><g fill="#c03a2b"><path d="m256 332.800781c-4.710938 0-8.53125-3.820312-8.53125-8.535156v-85.332031c0-4.710938 3.820312-8.53125 8.53125-8.53125 4.714844 0 8.535156 3.820312 8.535156 8.53125v85.332031c0 4.714844-3.820312 8.535156-8.535156 8.535156zm0 0"/><path d="m197.851562 282.367188c-16.570312.078124-32.960937-3.398438-48.066406-10.203126-4.21875-2.105468-5.933594-7.230468-3.828125-11.449218 2.109375-4.21875 7.234375-5.929688 11.453125-3.824219 30.597656 13.527344 65.984375 10.511719 93.855469-7.996094 3.921875-2.5625 9.171875-1.488281 11.769531 2.410157 2.597656 3.894531 1.570313 9.15625-2.300781 11.789062-18.554687 12.585938-40.464844 19.300781-62.882813 19.273438zm0 0"/><path d="m314.152344 282.367188c-22.421875.03125-44.332032-6.683594-62.886719-19.269532-2.566406-1.679687-4.035156-4.605468-3.847656-7.667968.1875-3.058594 2.003906-5.785157 4.757812-7.136719 2.753907-1.351563 6.023438-1.121094 8.558594.605469 27.933594 18.3125 63.21875 21.320312 93.847656 8 2.726563-1.363282 5.976563-1.167969 8.519531.511718 2.546876 1.679688 4 4.589844 3.816407 7.632813-.179688 3.042969-1.972657 5.757812-4.699219 7.121093-15.109375 6.804688-31.5 10.28125-48.066406 10.203126zm0 0"/><path d="m197.851562 315.820312c-16.570312.078126-32.960937-3.402343-48.066406-10.207031-4.21875-2.105469-5.933594-7.230469-3.828125-11.449219 2.109375-4.21875 7.234375-5.929687 11.453125-3.824218 30.597656 13.53125 65.984375 10.515625 93.855469-7.996094 3.921875-2.609375 9.214844-1.546875 11.828125 2.371094 2.613281 3.917968 1.558594 9.214844-2.359375 11.828125-18.554687 12.585937-40.464844 19.304687-62.882813 19.277343zm0 0"/><path d="m314.152344 315.820312c-22.421875.027344-44.332032-6.6875-62.886719-19.273437-3.914063-2.613281-4.972656-7.910156-2.359375-11.828125s7.90625-4.980469 11.828125-2.371094c27.9375 18.308594 63.214844 21.316406 93.847656 8 4.21875-2.109375 9.34375-.398437 11.453125 3.816406 2.105469 4.214844.398438 9.34375-3.816406 11.449219-15.109375 6.804688-31.5 10.285157-48.066406 10.207031zm0 0"/></g><path d="m384 76.800781v42.667969c.011719-15.847656-6.277344-31.046875-17.480469-42.253906-11.207031-11.203125-26.40625-17.492188-42.253906-17.480469h-136.53125c-15.847656-.011719-31.046875 6.277344-42.25 17.480469-11.207031 11.207031-17.496094 26.40625-17.484375 42.253906v-42.667969c-.003906-18.105469 7.1875-35.472656 19.988281-48.277343 12.804688-12.804688 30.171875-19.996094 48.277344-19.988282h119.46875c18.105469-.007812 35.472656 7.183594 48.277344 19.988282 12.804687 12.804687 19.992187 30.171874 19.988281 48.277343zm0 0" fill="#9d27b0"/><path d="m232.042969 151.167969c-7.402344-4.460938-15.441407-7.761719-23.84375-9.796875-11.230469-3.050782-23.101563-2.8125-34.199219.691406 3.964844-14.445312 38.523438-10.808594 54.417969-3.839844 2.570312.832032 4.554687 2.894532 5.285156 5.5.730469 2.601563.105469 5.398438-1.660156 7.445313zm0 0"/><path d="m230.402344 167.945312c0-10.101562-7.644532-18.289062-17.070313-18.289062s-17.066406 8.1875-17.066406 18.289062c0 10.105469 7.640625 18.292969 17.066406 18.292969s17.070313-8.1875 17.070313-18.292969zm0 0"/><path d="m218.117188 152.074219c-4.402344-1.675781-9.332032.539062-11.007813 4.941406-1.675781 4.40625.535156 9.335937 4.941406 11.011719 4.40625 1.675781 9.335938-.539063 11.011719-4.945313 1.671875-4.402343-.539062-9.332031-4.945312-11.007812zm0 0" fill="#fff"/><path d="m279.046875 152.957031c6.050781-7.96875 14.457031-13.828125 24.03125-16.742187 12.867187-3.433594 26.558594.914062 35.089844 11.140625-.128907-.125.136719-2.847657.085937-3.269531-.140625-1.109376-.4375-2.1875-.886718-3.207032-1.003907-2.179687-2.480469-4.109375-4.320313-5.648437-4.582031-3.71875-10.035156-6.210938-15.84375-7.242188-7.722656-1.746093-15.773437-1.347656-23.28125 1.152344-4.519531 1.5625-8.683594 4.011719-12.238281 7.210937-3.132813 2.871094-7.777344 8.152344-5.757813 12.960938.929688 1.304688 1.972657 2.523438 3.121094 3.644531zm0 0"/><path d="m315.734375 167.945312c0-10.101562-7.640625-18.289062-17.066406-18.289062s-17.066407 8.1875-17.066407 18.289062c0 10.105469 7.640626 18.292969 17.066407 18.292969s17.066406-8.1875 17.066406-18.292969zm0 0"/><path d="m304.890625 157.015625c-1.675781-4.40625-6.605469-6.617187-11.007813-4.941406-4.40625 1.675781-6.617187 6.605469-4.941406 11.007812 1.671875 4.40625 6.601563 6.617188 11.007813 4.945313 4.40625-1.675782 6.617187-6.605469 4.941406-11.011719zm0 0" fill="#fff"/><path d="m435.199219 512h-358.398438c-2.554687 0-4.976562-1.144531-6.597656-3.121094-1.621094-1.976562-2.269531-4.578125-1.765625-7.082031l21.25-106.410156 7.679688-42.125c1.203124-5.734375 4.554687-10.789063 9.375-14.121094 5.730468-4.226563 12.6875-6.453125 19.808593-6.339844h35.582031c4.714844 0 8.535157 3.820313 8.535157 8.53125 0 4.714844-3.820313 8.535157-8.535157 8.535157h-35.582031c-3.410156-.105469-6.761719.914062-9.535156 2.902343-1.40625.871094-2.445313 2.230469-2.90625 3.820313l-2.5 12.074218-5.152344 29.84375-19.246093 96.425782h337.648437l-26.859375-138.214844c-2.296875-4.722656-7.335938-7.472656-12.550781-6.851562h-35.582031c-4.710938 0-8.535157-3.820313-8.535157-8.535157 0-4.710937 3.824219-8.53125 8.535157-8.53125h35.582031c13.339843-.851562 25.488281 7.640625 29.269531 20.457031l2.476562 11.949219 26.382813 136.644531c.488281 2.5-.171875 5.085938-1.792969 7.050782s-4.039062 3.101562-6.585937 3.097656zm0 0"/><path d="m384 212.566406c-4.710938 0-8.53125-3.820312-8.53125-8.535156v-84.5625c-.03125-28.265625-22.9375-51.171875-51.203125-51.203125h-136.53125c-28.265625.03125-51.167969 22.9375-51.199219 51.203125v84.5625c0 4.714844-3.820312 8.535156-8.535156 8.535156-4.710938 0-8.53125-3.820312-8.53125-8.535156v-84.5625c.042969-37.6875 30.582031-68.226562 68.265625-68.269531h136.53125c37.6875.042969 68.226563 30.582031 68.269531 68.269531v84.5625c0 4.714844-3.820312 8.535156-8.535156 8.535156zm0 0"/><path d="m102.402344 512h-93.867188c-4.714844 0-8.535156-3.820312-8.535156-8.53125v-7.597656c-.0273438-15.3125 1.367188-30.597656 4.175781-45.652344l7.972657-29.6875c10.074218-37.378906 44.382812-63.035156 83.085937-62.128906h8.019531c4.710938 0 8.535156 3.820312 8.535156 8.53125 0 4.714844-3.824218 8.535156-8.535156 8.535156h-8.019531c-30.902344-.875-58.394531 19.492188-66.5625 49.304688l-7.976563 29.707031c-2.378906 13.351562-3.59375 26.890625-3.628906 40.453125h85.335938c4.710937 0 8.53125 3.820312 8.53125 8.535156 0 4.710938-3.820313 8.53125-8.53125 8.53125zm0 0"/><path d="m503.46875 512h-93.867188c-4.714843 0-8.535156-3.820312-8.535156-8.53125 0-4.714844 3.820313-8.535156 8.535156-8.535156h85.332032c-.035156-13.621094-1.265625-27.210938-3.675782-40.617188l-7.890624-29.363281c-8.117188-29.890625-35.636719-50.339844-66.597657-49.484375h-7.9375c-4.710937 0-8.53125-3.820312-8.53125-8.535156 0-4.710938 3.820313-8.53125 8.53125-8.53125h7.9375c38.761719-.894532 73.105469 24.847656 83.125 62.308594l7.890625 29.34375c2.832032 15.105468 4.246094 30.445312 4.214844 45.816406v7.597656c0 4.710938-3.820312 8.53125-8.53125 8.53125zm0 0"/><path d="m255.984375 375.453125c-1.386719.003906-2.75-.332031-3.976563-.976563-18.207031-7.578124-37.410156-12.503906-57.015624-14.625-58.066407-8.789062-84.058594-45.632812-84.058594-78.25.964844-26.546874 3.863281-52.988281 8.675781-79.113281.558594-3.050781 2.722656-5.554687 5.660156-6.546875 2.9375-.992187 6.179688-.316406 8.472657 1.769532.074218.066406 15.824218 13.296874 53.992187 13.296874 39.375 0 54.433594-13.699218 62.523437-21.050781 3.257813-2.960937 8.226563-2.960937 11.484376 0 8.089843 7.351563 23.148437 21.050781 62.523437 21.050781 38.167969 0 53.917969-13.230468 54.078125-13.363281 2.324219-2.007812 5.539062-2.628906 8.445312-1.628906 2.894532.996094 5.03125 3.464844 5.601563 6.472656 4.808594 26.125 7.710937 52.566407 8.675781 79.113281 0 32.617188-25.992187 69.460938-84.058594 78.25-19.605468 2.113282-38.808593 7.039063-57.015624 14.621094-1.238282.644532-2.613282.984375-4.007813.980469zm-121.632813-157.691406c-3.578124 21.109375-5.699218 42.4375-6.351562 63.839843 0 23.453126 18.21875 53.601563 69.542969 61.378907 19.996093 2.511719 39.621093 7.40625 58.457031 14.578125 18.835938-7.171875 38.460938-12.066406 58.457031-14.578125 51.328125-7.777344 69.542969-37.925781 69.542969-61.378907-.652344-21.402343-2.773438-42.730468-6.347656-63.839843-16.820313 7.320312-35.050782 10.839843-53.386719 10.308593-37.964844 0-57.488281-11.742187-68.265625-20.492187-10.773438 8.75-30.300781 20.492187-68.265625 20.492187-18.335937.53125-36.5625-2.988281-53.382813-10.308593zm0 0"/><path d="m384 162.132812c-4.710938 0-8.53125-3.820312-8.53125-8.53125-.03125-23.554687-19.117188-42.640624-42.667969-42.667968h-153.601562c-23.550781.027344-42.636719 19.113281-42.664063 42.667968 0 4.710938-3.820312 8.53125-8.535156 8.53125-4.710938 0-8.53125-3.820312-8.53125-8.53125.035156-32.976562 26.757812-59.695312 59.730469-59.734374h153.601562c32.972657.039062 59.695313 26.757812 59.734375 59.734374 0 4.710938-3.820312 8.53125-8.535156 8.53125zm0 0"/><path d="m256 332.800781c-4.710938 0-8.53125-3.820312-8.53125-8.535156v-85.332031c0-4.710938 3.820312-8.53125 8.53125-8.53125 4.714844 0 8.535156 3.820312 8.535156 8.53125v85.332031c0 4.714844-3.820312 8.535156-8.535156 8.535156zm0 0"/><path d="m197.851562 282.367188c-16.570312.078124-32.960937-3.398438-48.066406-10.203126-4.21875-2.105468-5.933594-7.230468-3.828125-11.449218 2.109375-4.21875 7.234375-5.929688 11.453125-3.824219 30.597656 13.527344 65.984375 10.511719 93.855469-7.996094 3.921875-2.5625 9.171875-1.488281 11.769531 2.410157 2.597656 3.894531 1.570313 9.15625-2.300781 11.789062-18.554687 12.585938-40.464844 19.300781-62.882813 19.273438zm0 0"/><path d="m314.152344 282.367188c-22.421875.03125-44.332032-6.683594-62.886719-19.269532-2.566406-1.679687-4.035156-4.605468-3.847656-7.667968.1875-3.058594 2.003906-5.785157 4.757812-7.136719 2.753907-1.351563 6.023438-1.121094 8.558594.605469 27.933594 18.3125 63.21875 21.320312 93.847656 8 2.726563-1.363282 5.976563-1.167969 8.519531.511718 2.546876 1.679688 4 4.589844 3.816407 7.632813-.179688 3.042969-1.972657 5.757812-4.699219 7.121093-15.109375 6.804688-31.5 10.28125-48.066406 10.203126zm0 0"/><path d="m197.851562 315.820312c-16.570312.078126-32.960937-3.402343-48.066406-10.207031-4.21875-2.105469-5.933594-7.230469-3.828125-11.449219 2.109375-4.21875 7.234375-5.929687 11.453125-3.824218 30.597656 13.53125 65.984375 10.515625 93.855469-7.996094 3.921875-2.609375 9.214844-1.546875 11.828125 2.371094 2.613281 3.917968 1.558594 9.214844-2.359375 11.828125-18.554687 12.585937-40.464844 19.304687-62.882813 19.277343zm0 0"/><path d="m314.152344 315.820312c-22.421875.027344-44.332032-6.6875-62.886719-19.273437-3.914063-2.613281-4.972656-7.910156-2.359375-11.828125s7.90625-4.980469 11.828125-2.371094c27.9375 18.308594 63.214844 21.316406 93.847656 8 4.21875-2.109375 9.34375-.398437 11.453125 3.816406 2.105469 4.214844.398438 9.34375-3.816406 11.449219-15.109375 6.804688-31.5 10.285157-48.066406 10.207031zm0 0"/><path d="m424.023438 512h-105.046876c-1.28125 0-2.546874-.289062-3.699218-.84375l-220.929688-106.414062c-3.433594-1.652344-5.355468-5.378907-4.707031-9.136719l7.726563-42.34375c1.203124-5.734375 4.554687-10.789063 9.375-14.121094 2.585937-1.898437 6.019531-2.179687 8.882812-.734375l312.238281 157.441406c3.53125 1.777344 5.378907 5.75 4.464844 9.59375-.914063 3.847656-4.351563 6.5625-8.304687 6.558594zm-103.101563-17.066406h67.226563l-274.074219-138.195313-2.464844 11.925781-4.058594 23.496094zm0 0"/><path d="m384 128c-4.710938 0-8.53125-3.820312-8.53125-8.53125v-42.667969c-.039062-32.972656-26.761719-59.695312-59.734375-59.734375h-119.46875c-32.972656.039063-59.695313 26.761719-59.730469 59.734375v42.667969c0 4.710938-3.820312 8.53125-8.535156 8.53125-4.710938 0-8.53125-3.820312-8.53125-8.53125v-42.667969c.046875-42.394531 34.402344-76.753906 76.796875-76.800781h119.46875c42.394531.046875 76.753906 34.40625 76.800781 76.800781v42.667969c0 2.261719-.902344 4.433594-2.5 6.03125-1.601562 1.601562-3.773437 2.5-6.035156 2.5zm0 0"/></svg>