<svg height="512pt" viewBox="0 0 512.00007 512" width="512pt" xmlns="http://www.w3.org/2000/svg"><path d="m409.601562 503.464844h93.867188l-.003906-7.59375c.015625-10.925782-1.300782-21.816406-3.921875-32.425782l-7.9375-32.171874c-9.203125-33.554688-40.046875-56.558594-74.835938-55.808594h-321.539062c-34.789063-.75-65.632813 22.253906-74.835938 55.808594l-7.9375 32.171874c-2.621093 10.609376-3.9375 21.5-3.921875 32.425782v7.59375zm0 0" fill="#6a1b9a"/><path d="m435.199219 503.464844h-358.398438l26.453125-128 2.472656-11.945313c2.050782-6.914062 7.960938-11.988281 15.105469-12.96875l34.902344-.683593h200.445313l34.988281.683593c7.203125.890625 13.179687 5.992188 15.1875 12.96875zm0 0" fill="#6a1b9a"/><path d="m401.066406 503.464844h-290.132812l21.417968-128 2.003907-11.945313c1.15625-6.359375 5.949219-11.441406 12.226562-12.96875l28.253907-.683593h162.261718l28.324219.683593c6.339844 1.449219 11.1875 6.5625 12.296875 12.96875zm0 0" fill="#9d27b0"/><path d="m307.199219 401.066406c0 28.277344-22.921875 51.199219-51.199219 51.199219s-51.199219-22.921875-51.199219-51.199219 22.921875-51.199218 51.199219-51.199218 51.199219 22.921874 51.199219 51.199218zm0 0" fill="#ffdc00"/><path d="m102.398438 221.867188c.019531 47.121093 38.214843 85.316406 85.335937 85.332031h136.53125c47.121094-.015625 85.316406-38.210938 85.335937-85.332031l-3.160156-106.15625c-13.792968-62.601563-69.269531-107.183594-133.375-107.175782h-34.132812c-64.105469-.007812-119.582032 44.574219-133.375 107.175782zm0 0" fill="#6a1b9a"/><path d="m136.535156 221.867188c0 47.101562 29.730469 85.332031 66.367188 85.332031h106.195312c36.636719 0 66.367188-38.230469 66.367188-85.332031l-2.453125-106.15625c-10.421875-61.269532-52.898438-107.175782-103.738281-107.175782h-26.546876c-50.839843 0-93.316406 45.90625-103.738281 107.175782zm0 0" fill="#9d27b0"/><path d="m136.535156 102.398438h238.929688c23.566406 0 42.667968 19.105468 42.667968 42.667968v51.199219c0 23.566406-19.101562 42.667969-42.667968 42.667969h-238.929688c-23.566406 0-42.667968-19.101563-42.667968-42.667969v-51.199219c0-23.5625 19.101562-42.667968 42.667968-42.667968zm0 0" fill="#00838f"/><path d="m170.667969 102.398438h170.664062c23.566407 0 42.667969 19.105468 42.667969 42.667968v51.199219c0 23.566406-19.101562 42.667969-42.667969 42.667969h-170.664062c-23.566407 0-42.667969-19.101563-42.667969-42.667969v-51.199219c0-23.5625 19.101562-42.667968 42.667969-42.667968zm0 0" fill="#00bcd4"/><path d="m187.734375 307.199219h136.53125v42.667969h-136.53125zm0 0" fill="#fec108"/><path d="m375.464844 247.464844h-238.929688c-28.265625-.027344-51.171875-22.933594-51.203125-51.199219v-51.199219c.03125-28.265625 22.9375-51.167968 51.203125-51.199218h238.929688c28.265625.03125 51.171875 22.933593 51.203125 51.199218v51.199219c-.03125 28.265625-22.9375 51.171875-51.203125 51.199219zm-238.929688-136.53125c-18.84375.019531-34.117187 15.289062-34.136718 34.132812v51.199219c.019531 18.84375 15.292968 34.113281 34.136718 34.132813h238.929688c18.84375-.019532 34.117187-15.289063 34.136718-34.132813v-51.199219c-.019531-18.84375-15.292968-34.113281-34.136718-34.132812zm0 0" fill="#41767f"/><path d="m207.871094 418.558594c-32.425782-1.277344-77.140625-16.382813-87.039063-68.007813-.511719-2.21875-.851562-4.609375-1.195312-7.085937-1.175781-9.328125 5.433593-17.847656 14.761719-19.027344 9.332031-1.179688 17.851562 5.429688 19.03125 14.761719.460937 3.617187 1.230468 7.183593 2.304687 10.667969 8.789063 27.902343 35.753906 33.621093 51.96875 34.304687" fill="#f5f5f5"/><path d="m304.296875 384.171875c16.214844-.683594 43.09375-6.488281 51.882813-34.304687 1.074218-3.484376 1.84375-7.050782 2.304687-10.667969 1.214844-9.320313 9.738281-15.90625 19.0625-14.730469 9.328125 1.175781 15.949219 9.667969 14.816406 18.996094-.34375 2.476562-.683593 4.867187-1.195312 7.085937-9.984375 51.625-54.699219 66.730469-87.039063 68.007813" fill="#f5f5f5"/><path d="m264.535156 452.265625v51.199219h-17.070312v-51.199219c0-4.710937 3.824218-8.53125 8.535156-8.53125s8.535156 3.820313 8.535156 8.53125zm0 0" fill="#2c3e50"/><path d="m256 460.800781c-32.988281 0-59.734375-26.746093-59.734375-59.734375 0-32.988281 26.746094-59.734375 59.734375-59.734375s59.734375 26.746094 59.734375 59.734375c-.039063 32.972656-26.761719 59.695313-59.734375 59.734375zm0-102.402343c-23.5625 0-42.667969 19.105468-42.667969 42.667968s19.105469 42.667969 42.667969 42.667969 42.667969-19.105469 42.667969-42.667969c-.027344-23.550781-19.117188-42.636718-42.667969-42.667968zm0 0" fill="#d25627"/><path d="m256 418.132812c-4.710938 0-8.535156-3.820312-8.535156-8.53125v-17.066406c0-4.714844 3.824218-8.535156 8.535156-8.535156s8.535156 3.820312 8.535156 8.535156v17.066406c0 4.710938-3.824218 8.53125-8.535156 8.53125zm0 0" fill="#d25627"/><path d="m356.179688 358.398438h-200.445313c-4.714844 0-8.535156-3.820313-8.535156-8.53125 0-4.714844 3.820312-8.535157 8.535156-8.535157h200.445313c4.714843 0 8.535156 3.820313 8.535156 8.535157 0 4.710937-3.820313 8.53125-8.535156 8.53125zm0 0"/><path d="m435.199219 512h-358.398438c-2.566406 0-4.996093-1.152344-6.617187-3.144531-1.621094-1.988281-2.261719-4.601563-1.742188-7.113281l28.929688-139.945313c2.710937-10.265625 11.234375-17.957031 21.722656-19.597656 4.613281-.960938 9.136719 2 10.097656 6.613281.960938 4.613281-2 9.132812-6.613281 10.09375-3.769531.394531-7.027344 2.816406-8.484375 6.316406l-26.820312 129.710938h337.453124l-26.726562-129.691406c-1.410156-3.527344-4.683594-5.96875-8.46875-6.316407-3.019531-.554687-5.507812-2.6875-6.515625-5.589843-1.011719-2.898438-.382813-6.117188 1.640625-8.425782 2.027344-2.3125 5.136719-3.355468 8.144531-2.734375 10.609375 1.523438 19.261719 9.285157 21.925781 19.667969l28.835938 139.902344c.519531 2.511718-.125 5.125-1.746094 7.113281s-4.050781 3.140625-6.617187 3.140625zm0 0"/><path d="m324.265625 358.398438h-136.53125c-4.714844 0-8.535156-3.820313-8.535156-8.53125v-42.667969c0-4.710938 3.820312-8.53125 8.535156-8.53125h136.53125c4.714844 0 8.535156 3.820312 8.535156 8.53125v42.667969c0 4.710937-3.820312 8.53125-8.535156 8.53125zm-128-17.066407h119.46875v-25.597656h-119.46875zm0 0"/><path d="m102.398438 512h-93.863282c-4.714844 0-8.535156-3.820312-8.535156-8.535156v-7.59375c-.0078125-11.617188 1.394531-23.191406 4.175781-34.472656l7.9375-32.164063c10.019531-37.449219 44.359375-63.1875 83.117188-62.300781h8.023437c4.710938 0 8.53125 3.820312 8.53125 8.53125 0 4.714844-3.820312 8.535156-8.53125 8.535156h-8.023437c-30.898438-.871094-58.390625 19.496094-66.558594 49.308594l-7.9375 32.179687c-2.371094 9.636719-3.605469 19.519531-3.667969 29.445313h85.332032c4.714843 0 8.535156 3.820312 8.535156 8.53125 0 4.714844-3.820313 8.535156-8.535156 8.535156zm0 0"/><path d="m503.464844 512h-93.863282c-4.714843 0-8.535156-3.820312-8.535156-8.535156 0-4.710938 3.820313-8.53125 8.535156-8.53125h85.332032c-.066406-9.921875-1.300782-19.804688-3.675782-29.441406l-7.9375-32.179688c-8.164062-29.8125-35.652343-50.183594-66.550781-49.3125h-7.9375c-4.710937 0-8.535156-3.820312-8.535156-8.535156 0-4.710938 3.824219-8.53125 8.535156-8.53125h7.9375c38.761719-.890625 73.105469 24.851562 83.125 62.308594l7.933594 32.160156c2.78125 11.28125 4.179687 22.855468 4.171875 34.46875v7.59375c0 4.714844-3.820312 8.535156-8.535156 8.535156zm0 0"/><path d="m406.433594 124.246094c-4.007813-.003906-7.472656-2.796875-8.324219-6.710938-13.152344-58.550781-65.035156-100.234375-125.042969-100.46875h-34.132812c-60.011719.234375-111.890625 41.917969-125.042969 100.472656-.585937 3.042969-2.777344 5.527344-5.722656 6.492188-2.945313.960938-6.183594.253906-8.457031-1.851562-2.273438-2.109376-3.222657-5.28125-2.484376-8.292969 14.894532-66.363281 73.691407-113.617188 141.707032-113.886719h34.132812c68.015625.269531 126.8125 47.523438 141.707032 113.886719 1.011718 4.605469-1.902344 9.152343-6.507813 10.164062-.601563.128907-1.214844.195313-1.832031.195313zm0 0"/><path d="m324.265625 315.734375h-136.53125c-51.816406-.058594-93.808594-42.050781-93.867187-93.867187 0-4.714844 3.820312-8.535157 8.53125-8.535157 4.714843 0 8.535156 3.820313 8.535156 8.535157.046875 42.394531 34.402344 76.753906 76.800781 76.800781h136.53125c42.398437-.046875 76.753906-34.40625 76.800781-76.800781 0-4.714844 3.820313-8.535157 8.535156-8.535157 4.710938 0 8.53125 3.820313 8.53125 8.535157-.058593 51.816406-42.050781 93.808593-93.867187 93.867187zm0 0"/><path d="m375.464844 247.464844h-238.929688c-28.265625-.027344-51.171875-22.933594-51.203125-51.199219v-51.199219c.03125-28.265625 22.9375-51.167968 51.203125-51.199218h238.929688c28.265625.03125 51.171875 22.933593 51.203125 51.199218v51.199219c-.03125 28.265625-22.9375 51.171875-51.203125 51.199219zm-238.929688-136.53125c-18.84375.019531-34.117187 15.289062-34.136718 34.132812v51.199219c.019531 18.84375 15.292968 34.113281 34.136718 34.132813h238.929688c18.84375-.019532 34.117187-15.289063 34.136718-34.132813v-51.199219c-.019531-18.84375-15.292968-34.113281-34.136718-34.132812zm0 0"/><path d="m128 213.332031c-4.710938 0-8.535156-3.820312-8.535156-8.53125v-68.265625c0-4.714844 3.824218-8.535156 8.535156-8.535156s8.535156 3.820312 8.535156 8.535156v68.265625c0 4.710938-3.824218 8.53125-8.535156 8.53125zm0 0"/><path d="m384 213.332031c-4.710938 0-8.535156-3.820312-8.535156-8.53125v-68.265625c0-4.714844 3.824218-8.535156 8.535156-8.535156s8.535156 3.820312 8.535156 8.535156v68.265625c0 4.710938-3.824218 8.53125-8.535156 8.53125zm0 0"/><path d="m179.199219 162.132812c-3.449219 0-6.5625-2.078124-7.882813-5.265624-1.320312-3.191407-.589844-6.859376 1.851563-9.300782l17.066406-17.066406c3.347656-3.234375 8.667969-3.1875 11.960937.105469 3.292969 3.289062 3.339844 8.613281.105469 11.960937l-17.066406 17.066406c-1.597656 1.601563-3.769531 2.503907-6.035156 2.5zm0 0"/><path d="m179.199219 204.800781c-3.449219 0-6.5625-2.082031-7.882813-5.269531-1.320312-3.1875-.589844-6.855469 1.851563-9.296875l59.730469-59.734375c3.351562-3.234375 8.671874-3.1875 11.964843.105469 3.289063 3.289062 3.335938 8.613281.101563 11.960937l-59.730469 59.734375c-1.597656 1.601563-3.769531 2.5-6.035156 2.5zm0 0"/><path d="m256 460.800781c-32.988281 0-59.734375-26.746093-59.734375-59.734375 0-32.988281 26.746094-59.734375 59.734375-59.734375s59.734375 26.746094 59.734375 59.734375c-.039063 32.972656-26.761719 59.695313-59.734375 59.734375zm0-102.402343c-23.5625 0-42.667969 19.105468-42.667969 42.667968s19.105469 42.667969 42.667969 42.667969 42.667969-19.105469 42.667969-42.667969c-.027344-23.550781-19.117188-42.636718-42.667969-42.667968zm0 0"/><path d="m207.882812 427.09375c-.117187 0-.234374 0-.339843-.007812-19.085938-.75-82.328125-8.378907-95.09375-74.921876-.5-2.140624-.890625-4.78125-1.265625-7.527343-.894532-6.753907.953125-13.582031 5.121094-18.96875 4.171874-5.386719 10.324218-8.878907 17.085937-9.703125 6.730469-.851563 13.523437 1.015625 18.875 5.183594 5.351563 4.171874 8.824219 10.300781 9.640625 17.035156.394531 3.089844 1.050781 6.136718 1.960938 9.113281 6.992187 22.1875 27.890624 27.664063 44.191406 28.351563 3.078125.082031 5.875 1.816406 7.316406 4.539062s1.300781 6.007812-.363281 8.601562c-1.664063 2.589844-4.59375 4.085938-7.667969 3.90625-30.308594-1.277343-52.09375-15.957031-59.753906-40.265624-1.21875-3.953126-2.09375-8.003907-2.613282-12.109376-.257812-2.277343-1.429687-4.355468-3.25-5.753906-3.71875-2.800781-8.992187-2.132812-11.894531 1.507813-1.40625 1.785156-2.027343 4.066406-1.730469 6.320312.289063 2.113281.582032 4.246094 1.039063 6.222657 10.46875 54.527343 63.167969 60.789062 79.066406 61.417968 4.625.203125 8.242188 4.058594 8.15625 8.6875-.089843 4.628906-3.851562 8.34375-8.480469 8.371094zm0 0"/><path d="m304.117188 427.09375c-4.628907-.027344-8.390626-3.742188-8.480469-8.371094-.085938-4.628906 3.53125-8.484375 8.15625-8.6875 15.871093-.628906 68.515625-6.890625 79-61.105468.523437-2.289063.816406-4.421876 1.125-6.628907.261719-2.226562-.367188-4.464843-1.757813-6.226562-1.386718-1.761719-3.417968-2.898438-5.644531-3.160157-2.210937-.335937-4.460937.25-6.222656 1.628907-1.84375 1.390625-3.046875 3.464843-3.34375 5.75-.523438 4.117187-1.402344 8.183593-2.632813 12.148437-7.679687 24.3125-29.425781 38.980469-59.660156 40.257813-3.074219.175781-6.003906-1.320313-7.667969-3.910157-1.664062-2.59375-1.804687-5.878906-.363281-8.601562s4.238281-4.457031 7.316406-4.539062c13.300782-.5625 36.726563-4.992188 44.109375-28.351563.917969-3.007813 1.578125-6.09375 1.976563-9.214844.867187-6.800781 4.4375-12.964843 9.90625-17.101562 11.164062-8.445313 27.035156-6.398438 35.691406 4.601562 4.210938 5.363281 6.085938 12.199219 5.207031 18.960938-.394531 2.839843-.785156 5.480469-1.359375 7.941406-12.800781 66.21875-75.960937 73.851563-95.019531 74.601563zm0 0"/><path d="m256 512c-4.710938 0-8.535156-3.820312-8.535156-8.535156v-51.199219c0-4.710937 3.824218-8.53125 8.535156-8.53125s8.535156 3.820313 8.535156 8.53125v51.199219c0 4.714844-3.824218 8.535156-8.535156 8.535156zm0 0"/><path d="m256 418.132812c-4.710938 0-8.535156-3.820312-8.535156-8.53125v-17.066406c0-4.714844 3.824218-8.535156 8.535156-8.535156s8.535156 3.820312 8.535156 8.535156v17.066406c0 4.710938-3.824218 8.53125-8.535156 8.53125zm0 0"/></svg>