<svg height="512pt" viewBox="0 0 512 512.00796" width="512pt" xmlns="http://www.w3.org/2000/svg"><path d="m187.738281 290.140625h136.53125v76.800781h-136.53125zm0 0" fill="#fec108"/><path d="m409.605469 503.476562h93.867187v-7.597656c.011719-10.925781-1.304687-21.816406-3.925781-32.425781l-7.9375-32.171875c-9.203125-33.554688-40.046875-56.558594-74.835937-55.804688h-321.539063c-34.789063-.753906-65.628906 22.25-74.835937 55.804688l-7.9375 32.171875c-2.621094 10.609375-3.9375 21.5-3.921876 32.425781v7.597656zm0 0" fill="#6a1b9a"/><path d="m435.203125 503.476562h-358.398437l28.925781-139.949218c2.945312-8.820313 11.558593-14.46875 20.824219-13.652344h258.898437c9.285156-.816406 17.921875 4.824219 20.910156 13.652344zm0 0" fill="#6a1b9a"/><path d="m401.070312 503.476562h-290.132812l23.417969-139.949218c1.515625-8.066406 8.652343-13.847656 16.859375-13.652344h209.585937c8.222657-.195312 15.378907 5.578125 16.925781 13.652344zm0 0" fill="#9d27b0"/><path d="m384.003906 247.476562c.011719 15.84375-6.277344 31.042969-17.484375 42.25-11.203125 11.203126-26.402343 17.492188-42.25 17.480469h-136.53125c-15.847656.011719-31.046875-6.277343-42.25-17.480469-11.207031-11.207031-17.496093-26.40625-17.484375-42.25v-51.203124h256zm0 0" fill="#fec108"/><path d="m349.871094 247.476562c0 33.023438-19.585938 59.730469-43.804688 59.730469h-100.125c-24.21875 0-43.804687-26.707031-43.804687-59.730469v-51.203124h187.734375zm0 0" fill="#ffdc00"/><path d="m412.25 100.1875c-.726562-2.164062-1.609375-4.277344-2.644531-6.3125-12.035157-24.148438-34.132813-34.132812-42.667969-59.734375-11 .613281-20.800781 7.148437-25.601562 17.066406 0 0 0-25.597656-34.132813-25.597656-18.59375.882813-36.851563-5.203125-51.199219-17.066406-19.390625 5.726562-39.511718 8.601562-59.734375 8.53125-34.132812 0-42.664062 25.601562-42.664062 25.601562-4.429688-4.871093-10.515625-7.914062-17.066407-8.535156 0 25.601563-22.101562 27.050781-34.136718 51.199219-3.371094 6.207031-6.058594 12.757812-8.019532 19.542968 0 0-.085937 0 0 .085938zm0 0" fill="#805333"/><path d="m119.472656 93.875h273.066406c18.851563 0 34.132813 15.28125 34.132813 34.132812v85.332032c0 18.851562-15.28125 34.136718-34.132813 34.136718h-273.066406c-18.851562 0-34.136718-15.285156-34.136718-34.136718v-85.332032c0-18.851562 15.285156-34.132812 34.136718-34.132812zm0 0" fill="#2c3e50"/><path d="m162.136719 93.875h187.734375c23.5625 0 42.667968 19.101562 42.667968 42.667969v68.265625c0 23.5625-19.105468 42.667968-42.667968 42.667968h-187.734375c-23.5625 0-42.664063-19.105468-42.664063-42.667968v-68.265625c0-23.566407 19.101563-42.667969 42.664063-42.667969zm0 0" fill="#35495e"/><path d="m238.9375 170.675781c0 23.5625-19.101562 42.664063-42.667969 42.664063-23.5625 0-42.664062-19.101563-42.664062-42.664063 0-23.566406 19.101562-42.667969 42.664062-42.667969 23.566407 0 42.667969 19.101563 42.667969 42.667969zm0 0" fill="#2c3e50"/><path d="m238.9375 170.675781c0 23.5625-19.101562 42.664063-42.667969 42.664063-23.5625 0-42.664062-19.101563-42.664062-42.664063 0-23.566406 19.101562-42.667969 42.664062-42.667969 23.566407 0 42.667969 19.101563 42.667969 42.667969zm0 0" fill="#02a9f4"/><path d="m358.402344 170.675781c0 23.5625-19.101563 42.664063-42.664063 42.664063-23.566406 0-42.667969-19.101563-42.667969-42.664063 0-23.566406 19.101563-42.667969 42.667969-42.667969 23.5625 0 42.664063 19.101563 42.664063 42.667969zm0 0" fill="#2c3e50"/><path d="m196.269531 349.875s8.535157 42.667969 59.734375 42.667969c51.199219 0 59.734375-42.667969 59.734375-42.667969" fill="#f5f5f5"/><path d="m358.402344 170.675781c0 23.5625-19.101563 42.664063-42.664063 42.664063-23.566406 0-42.667969-19.101563-42.667969-42.664063 0-23.566406 19.101563-42.667969 42.667969-42.667969 23.5625 0 42.664063 19.101563 42.664063 42.667969zm0 0" fill="#02a9f4"/><path d="m435.203125 512.007812h-358.398437c-2.566407 0-4.996094-1.152343-6.617188-3.144531-1.621094-1.988281-2.261719-4.601562-1.742188-7.113281l28.910157-139.921875c3.722656-12.84375 15.882812-21.367187 29.226562-20.488281h258.894531c13.363282-.882813 25.535157 7.667968 29.234376 20.542968l28.855468 139.867188c.519532 2.515625-.121094 5.128906-1.742187 7.117188-1.621094 1.988281-4.054688 3.140624-6.621094 3.140624zm-347.925781-17.066406h337.453125l-26.742188-129.664062c-2.257812-4.742188-7.296875-7.511719-12.511719-6.871094h-258.894531c-5.199219-.632812-10.226562 2.113281-12.503906 6.828125zm0 0"/><path d="m324.269531 358.40625h-136.53125c-4.714843 0-8.535156-3.820312-8.535156-8.53125v-42.667969c0-4.710937 3.820313-8.53125 8.535156-8.53125h136.53125c4.714844 0 8.535157 3.820313 8.535157 8.53125v42.667969c0 4.710938-3.820313 8.53125-8.535157 8.53125zm-128-17.066406h119.46875v-25.597656h-119.46875zm0 0"/><path d="m324.269531 315.742188h-136.53125c-37.6875-.042969-68.222656-30.582032-68.265625-68.265626 0-4.714843 3.820313-8.535156 8.53125-8.535156 4.714844 0 8.535156 3.820313 8.535156 8.535156.03125 28.261719 22.933594 51.167969 51.199219 51.199219h136.53125c28.265625-.03125 51.171875-22.9375 51.203125-51.199219 0-4.714843 3.820313-8.535156 8.53125-8.535156 4.714844 0 8.535156 3.820313 8.535156 8.535156-.046874 37.683594-30.582031 68.222657-68.269531 68.265626zm0 0"/><path d="m102.402344 512.007812h-93.863282c-4.714843 0-8.53515575-3.820312-8.53515575-8.53125v-7.597656c-.01171875-11.617187 1.39062475-23.195312 4.17578175-34.480468l7.9375-32.160157c10.019531-37.453125 44.359374-63.191406 83.117187-62.296875h8.023437c4.710938 0 8.53125 3.820313 8.53125 8.535156 0 4.710938-3.820312 8.53125-8.53125 8.53125h-8.023437c-30.898437-.875-58.386719 19.496094-66.550781 49.308594l-7.9375 32.183594c-2.378906 9.636719-3.609375 19.519531-3.667969 29.441406h85.324219c4.714844 0 8.535156 3.820313 8.535156 8.535156 0 4.710938-3.820312 8.53125-8.535156 8.53125zm0 0"/><path d="m503.472656 512.007812h-93.867187c-4.714844 0-8.535157-3.820312-8.535157-8.53125 0-4.714843 3.820313-8.535156 8.535157-8.535156h85.332031c-.066406-9.921875-1.296875-19.804687-3.675781-29.441406l-7.9375-32.179688c-8.164063-29.8125-35.652344-50.183593-66.550781-49.3125h-7.9375c-4.710938 0-8.535157-3.820312-8.535157-8.53125 0-4.714843 3.824219-8.535156 8.535157-8.535156h7.9375c38.761718-.890625 73.105468 24.851563 83.125 62.308594l7.933593 32.164062c2.78125 11.277344 4.179688 22.851563 4.171875 34.464844v7.597656c0 4.710938-3.820312 8.53125-8.53125 8.53125zm0 0"/><path d="m94.382812 113.5c-2.191406.007812-4.304687-.835938-5.886718-2.351562-2.460938-2.351563-3.3125-5.925782-2.183594-9.132813 2.09375-7.078125 4.917969-13.925781 8.421875-20.425781 4.972656-9.398438 11.78125-17.707032 20.015625-24.4375 8.265625-7.441406 13.253906-11.9375 13.253906-23.011719 0-4.710937 3.820313-8.53125 8.535156-8.53125 5.074219.246094 10.007813 1.734375 14.375 4.335937 10.53125-14.339843 27.59375-22.390624 45.355469-21.402343 19.304688.058593 38.511719-2.667969 57.035157-8.097657 3.066406-1.035156 6.453124-.234374 8.730468 2.0625 12.757813 10.238282 28.835938 15.421876 45.167969 14.566407 14.527344-1.335938 28.6875 5.070312 37.273437 16.867187 6.433594-5.054687 14.285157-7.96875 22.460938-8.332031 3.671875 0 6.933594 2.347656 8.09375 5.832031 4.503906 11.324219 11.496094 21.488282 20.457031 29.746094 8.671875 8.46875 16.011719 18.207031 21.757813 28.882812 1.203125 2.367188 2.226562 4.820313 3.066406 7.339844 1.507812 4.445313-.859375 9.269532-5.296875 10.800782s-9.277344-.808594-10.835937-5.234376c-.582032-1.769531-1.296876-3.492187-2.140626-5.152343-5.046874-9.234375-11.453124-17.65625-19.011718-24.976563-8.726563-8.417968-15.976563-18.242187-21.449219-29.0625-5.535156 1.90625-10.078125 5.953125-12.609375 11.238282-1.769531 3.539062-5.738281 5.398437-9.589844 4.488281-3.851562-.910157-6.574218-4.347657-6.574218-8.304688-.085938-2.75-1.714844-17.066406-25.601563-17.066406-18.984375.488281-37.621094-5.167969-53.128906-16.128906-18.855469 5.035156-38.289063 7.589843-57.804688 7.597656-27.660156 0-34.503906 19.566406-34.570312 19.765625-.933594 2.804688-3.257813 4.925781-6.136719 5.605469-2.875.675781-5.902344-.183594-7.992188-2.273438-1.191406-1.203125-2.507812-2.28125-3.925781-3.210937-3.199219 9.707031-9.296875 18.199218-17.464843 24.339844-6.609376 5.300781-12.09375 11.863281-16.132813 19.308593-3.007813 5.539063-5.445313 11.367188-7.273437 17.398438-.757813 4.035156-4.285157 6.957031-8.390626 6.957031zm0 0"/><path d="m392.539062 256.007812h-273.066406c-23.554687-.027343-42.640625-19.113281-42.667968-42.667968v-85.332032c.027343-23.550781 19.113281-42.640624 42.667968-42.667968h273.066406c23.550782.027344 42.636719 19.117187 42.664063 42.667968v85.332032c-.027344 23.554687-19.113281 42.640625-42.664063 42.667968zm-273.066406-153.601562c-14.132812.015625-25.585937 11.46875-25.601562 25.601562v85.332032c.015625 14.132812 11.46875 25.585937 25.601562 25.601562h273.066406c14.128907-.015625 25.582032-11.46875 25.597657-25.601562v-85.332032c-.015625-14.132812-11.46875-25.585937-25.597657-25.601562zm0 0"/><path d="m349.871094 256.007812h-187.734375c-28.261719-.03125-51.167969-22.9375-51.199219-51.199218v-68.265625c.03125-28.265625 22.9375-51.171875 51.199219-51.203125h187.734375c28.265625.03125 51.167968 22.9375 51.199218 51.203125v68.265625c-.03125 28.261718-22.933593 51.167968-51.199218 51.199218zm-187.734375-153.601562c-18.84375.023438-34.113281 15.292969-34.132813 34.136719v68.265625c.019532 18.84375 15.289063 34.113281 34.132813 34.132812h187.734375c18.84375-.019531 34.113281-15.289062 34.132812-34.132812v-68.265625c-.019531-18.84375-15.289062-34.113281-34.132812-34.136719zm0 0"/><path d="m196.269531 221.875c-28.277343 0-51.199219-22.921875-51.199219-51.199219 0-28.277343 22.921876-51.199219 51.199219-51.199219 28.277344 0 51.203125 22.921876 51.203125 51.199219-.03125 28.261719-22.9375 51.167969-51.203125 51.199219zm0-85.332031c-18.851562 0-34.132812 15.28125-34.132812 34.132812 0 18.851563 15.28125 34.132813 34.132812 34.132813 18.851563 0 34.132813-15.28125 34.132813-34.132813-.019532-18.84375-15.289063-34.113281-34.132813-34.132812zm0 0"/><path d="m315.738281 221.875c-28.277343 0-51.199219-22.921875-51.199219-51.199219 0-28.277343 22.921876-51.199219 51.199219-51.199219 28.277344 0 51.199219 22.921876 51.199219 51.199219-.03125 28.261719-22.9375 51.167969-51.199219 51.199219zm0-85.332031c-18.851562 0-34.132812 15.28125-34.132812 34.132812 0 18.851563 15.28125 34.132813 34.132812 34.132813 18.851563 0 34.132813-15.28125 34.132813-34.132813-.023438-18.84375-15.292969-34.113281-34.132813-34.132812zm0 0"/><path d="m221.871094 512.007812c-4.714844 0-8.535156-3.820312-8.535156-8.53125v-66.089843c.003906-3.097657-1.691407-5.945313-4.414063-7.421875-54.6875-28.667969-55.316406-78.003906-55.316406-80.089844-.007813-4.714844 3.804687-8.539062 8.515625-8.546875 4.714844-.007813 8.542968 3.804687 8.550781 8.515625.019531 1.824219 1.023437 41.332031 46.179687 65.007812 8.367188 4.394532 13.589844 13.082032 13.550782 22.535157v66.089843c0 4.710938-3.820313 8.53125-8.53125 8.53125zm0 0"/><path d="m290.136719 512.007812c-4.710938 0-8.53125-3.820312-8.53125-8.53125v-66.089843c-.039063-9.449219 5.183593-18.136719 13.546875-22.535157 45.65625-23.929687 46.183594-64.566406 46.183594-64.976562 0-4.714844 3.820312-8.535156 8.535156-8.535156 4.710937 0 8.53125 3.820312 8.53125 8.535156 0 2.085938-.628906 51.421875-55.320313 80.089844-2.722656 1.476562-4.414062 4.328125-4.410156 7.425781v66.085937c0 4.710938-3.820313 8.53125-8.535156 8.53125zm0 0"/><path d="m256.003906 401.074219c-46.03125 0-64.675781-32.394531-68.097656-49.523438-.859375-4.585937 2.121094-9.015625 6.695312-9.941406 4.570313-.925781 9.042969 1.992187 10.03125 6.550781.332032 1.574219 8.175782 35.847656 51.371094 35.847656 43.699219 0 51.074219-34.34375 51.371094-35.808593.574219-3.011719 2.722656-5.484375 5.625-6.476563 2.902344-.992187 6.113281-.347656 8.410156 1.683594s3.328125 5.140625 2.699219 8.144531c-3.429687 17.128907-22.074219 49.523438-68.105469 49.523438zm0 0"/><path d="m256.003906 512.007812c-4.710937 0-8.53125-3.820312-8.53125-8.53125v-76.800781c0-4.714843 3.820313-8.535156 8.53125-8.535156 4.714844 0 8.535156 3.820313 8.535156 8.535156v76.800781c0 4.710938-3.820312 8.53125-8.535156 8.53125zm0 0"/></svg>