<svg height="512pt" viewBox="0 0 512.00007 512" width="512pt" xmlns="http://www.w3.org/2000/svg"><path d="m409.601562 503.464844h93.867188l-.003906-7.59375c.015625-10.925782-1.300782-21.816406-3.921875-32.425782l-7.9375-32.171874c-9.203125-33.554688-40.046875-56.558594-74.835938-55.808594h-321.539062c-34.789063-.75-65.632813 22.253906-74.835938 55.808594l-7.9375 32.171874c-2.621093 10.609376-3.9375 21.5-3.921875 32.425782v7.59375zm0 0" fill="#d84315"/><path d="m153.601562 452.265625c0 25.601563-25.601562 51.199219-25.601562 51.199219h-51.199219l28.925781-139.945313c1.394532-5.464843 5.480469-9.839843 10.839844-11.605469 2.445313 24.484376 12.402344 47.613282 28.5 66.21875zm0 0" fill="#ff5722"/><path d="m435.199219 503.464844h-51.199219s-25.601562-25.597656-25.601562-51.199219l8.535156-34.132813c16.101562-18.636718 26.058594-41.792968 28.5-66.304687 5.371094 1.820313 9.472656 6.210937 10.921875 11.691406zm0 0" fill="#ff5722"/><path d="m384 503.464844h-256s25.601562-25.597656 25.601562-51.199219h90.792969c5.039063 4.796875 8.996094 10.617187 11.605469 17.066406 2.609375-6.449219 6.566406-12.269531 11.605469-17.066406h90.792969c0 25.601563 25.601562 51.199219 25.601562 51.199219zm0 0" fill="#6d4122"/><path d="m384 128v119.464844c.015625 2.714844-.183594 5.425781-.597656 8.109375h-254.804688c-.414062-2.683594-.613281-5.394531-.597656-8.109375v-119.464844zm0 0" fill="#f0c419"/><path d="m119.464844 76.800781h273.070312c9.425782 0 17.066406 7.640625 17.066406 17.066407v17.066406c0 9.425781-7.640624 17.066406-17.066406 17.066406h-273.070312c-9.421875 0-17.066406-7.640625-17.066406-17.066406v-17.066406c0-9.425782 7.644531-17.066407 17.066406-17.066407zm0 0" fill="#6d4122"/><path d="m196.265625 8.535156h119.46875c37.703125 0 68.265625 30.5625 68.265625 68.265625h-256c0-37.703125 30.5625-68.265625 68.265625-68.265625zm0 0" fill="#91562d"/><path d="m409.601562 324.265625c-4.601562-4.636719-10.597656-7.636719-17.066406-8.53125 3.226563 11.742187 4.210938 23.988281 2.898438 36.09375-2.441406 24.511719-12.398438 47.667969-28.5 66.304687-.621094-6.550781-3.664063-12.636718-8.535156-17.066406 0 0-9.386719 21.503906-59.730469 34.132813-11.738281 2.699219-22.492188 8.609375-31.0625 17.066406-5.039063 4.796875-8.996094 10.617187-11.605469 17.066406-2.609375-6.449219-6.566406-12.269531-11.605469-17.066406-8.570312-8.457031-19.324219-14.367187-31.0625-17.066406-50.34375-12.628907-59.730469-34.132813-59.730469-34.132813-4.871093 4.429688-7.914062 10.515625-8.535156 17.066406-16.097656-18.605468-26.054687-41.734374-28.5-66.21875-1.308594-12.136718-.324218-24.410156 2.898438-36.179687-6.46875.894531-12.464844 3.894531-17.066406 8.53125-8.53125-34.132813 17.066406-76.800781 51.203124-76.800781 34.132813 0 34.132813-25.597656 59.730469-25.597656 25.601563 0 34.132813 8.53125 42.667969 8.53125s17.066406-8.53125 42.667969-8.53125c25.597656 0 25.597656 25.597656 59.730469 25.597656 34.136718 0 59.734374 42.667968 51.203124 76.800781zm0 0" fill="#cfd8dc"/><path d="m382.632812 324.265625s-7.03125-8.53125-14.070312-8.53125c2.675781 11.832031 3.480469 24.011719 2.390625 36.09375-1.789063 23.800781-9.898437 46.6875-23.492187 66.304687-.449219-6.296874-2.917969-12.28125-7.035157-17.066406 0 0-7.738281 21.503906-49.25 34.132813-10.0625 2.976562-18.988281 8.925781-25.609375 17.066406-4.257812 5.019531-7.507812 10.816406-9.566406 17.066406-2.058594-6.25-5.308594-12.046875-9.566406-17.066406-6.621094-8.140625-15.546875-14.089844-25.609375-17.066406-41.511719-12.628907-49.25-34.132813-49.25-34.132813-4.117188 4.785156-6.585938 10.769532-7.035157 17.066406-13.589843-19.585937-21.703124-42.445312-23.496093-66.21875-1.085938-12.109374-.28125-24.316406 2.390625-36.179687-7.039063 0-14.074219 8.53125-14.074219 8.53125-7.035156-34.132813 14.074219-76.800781 42.214844-76.800781s28.140625-25.597656 49.246093-25.597656c21.105469 0 28.144532 8.53125 35.179688 8.53125s14.070312-8.53125 35.175781-8.53125c21.109375 0 21.105469 25.597656 49.25 25.597656 28.140625 0 49.246094 42.667968 42.207031 76.800781zm0 0" fill="#f5f5f5"/><path d="m244.394531 452.265625h-90.792969l-8.535156-34.132813c.621094-6.550781 3.664063-12.636718 8.535156-17.066406 0 0 9.386719 21.503906 59.730469 34.132813 11.738281 2.699219 22.492188 8.609375 31.0625 17.066406zm0 0" fill="#91562d"/><path d="m366.933594 418.132812-8.535156 34.132813h-90.792969c8.570312-8.457031 19.324219-14.367187 31.0625-17.066406 50.34375-12.628907 59.730469-34.132813 59.730469-34.132813 4.871093 4.429688 7.914062 10.515625 8.535156 17.066406zm0 0" fill="#91562d"/><path d="m296.339844 251.734375c-6.894532 13.492187-28.414063 15.398437-40.167969 15.398437-11.78125 0-33.277344-1.90625-40.171875-15.398437 13.148438 3.238281 26.628906 4.925781 40.171875 5.035156 13.539063-.105469 27.023437-1.796875 40.167969-5.035156zm0 0"/><path d="m233.648438 162.890625c-8.109376-2.980469-16.625-4.707031-25.257813-5.117187-11.601563-.878907-23.214844 1.597656-33.449219 7.132812 1.167969-14.933594 35.789063-17.886719 52.710938-14.046875 2.683594.335937 5.019531 1.988281 6.226562 4.410156 1.207032 2.417969 1.121094 5.28125-.230468 7.621094zm0 0"/><path d="m230.398438 189.28125c0-10.105469-7.640626-18.292969-17.066407-18.292969s-17.066406 8.1875-17.066406 18.292969c0 10.101562 7.640625 18.289062 17.066406 18.289062s17.066407-8.1875 17.066407-18.289062zm0 0"/><path d="m218.117188 173.40625c-4.40625-1.675781-9.332032.539062-11.007813 4.945312-1.675781 4.402344.535156 9.332032 4.941406 11.007813s9.335938-.539063 11.007813-4.941406c1.675781-4.40625-.535156-9.335938-4.941406-11.011719zm0 0" fill="#fff"/><path d="m278.351562 162.890625c8.109376-2.980469 16.625-4.707031 25.257813-5.117187 11.601563-.878907 23.214844 1.597656 33.449219 7.132812-1.167969-14.933594-35.789063-17.886719-52.710938-14.046875-2.683594.335937-5.019531 1.988281-6.226562 4.410156-1.207032 2.417969-1.121094 5.28125.230468 7.621094zm0 0"/><path d="m315.734375 189.28125c0-10.105469-7.640625-18.292969-17.066406-18.292969s-17.066407 8.1875-17.066407 18.292969c0 10.101562 7.640626 18.289062 17.066407 18.289062s17.066406-8.1875 17.066406-18.289062zm0 0"/><path d="m304.890625 178.347656c-1.675781-4.402344-6.605469-6.617187-11.007813-4.941406-4.40625 1.675781-6.617187 6.605469-4.941406 11.011719 1.671875 4.402343 6.601563 6.617187 11.007813 4.941406s6.617187-6.605469 4.941406-11.011719zm0 0" fill="#fff"/><path d="m435.199219 512h-358.398438c-2.566406 0-4.996093-1.15625-6.617187-3.144531-1.621094-1.992188-2.261719-4.605469-1.742188-7.117188l28.929688-139.945312c1.972656-8.308594 8.050781-15.03125 16.113281-17.832031 2.859375-1.183594 6.136719-.726563 8.5625 1.195312 2.429687 1.921875 3.625 5.003906 3.125 8.0625-.496094 3.054688-2.609375 5.597656-5.519531 6.652344-2.605469.765625-4.679688 2.75-5.558594 5.324218l-26.820312 129.738282h337.453124l-26.726562-129.691406c-.933594-2.644532-3.070312-4.6875-5.757812-5.496094-4.371094-1.761719-6.488282-6.738282-4.726563-11.109375 1.765625-4.371094 6.738281-6.488281 11.109375-4.722657 8.042969 2.886719 14.089844 9.625 16.101562 17.933594l28.835938 139.898438c.519531 2.511718-.125 5.125-1.746094 7.113281s-4.050781 3.140625-6.617187 3.140625zm0 0"/><path d="m128.589844 264.105469c-4.175782-.003907-7.734375-3.03125-8.414063-7.152344-.492187-3.136719-.730469-6.3125-.710937-9.488281v-119.464844c0-4.710938 3.824218-8.535156 8.535156-8.535156s8.535156 3.824218 8.535156 8.535156v119.464844c-.023437 2.253906.140625 4.503906.488282 6.730468.761718 4.652344-2.390626 9.039063-7.039063 9.800782-.460937.074218-.925781.109375-1.394531.109375zm0 0"/><path d="m383.410156 264.105469c-.46875 0-.933594-.039063-1.394531-.113281-4.648437-.761719-7.800781-5.148438-7.039063-9.796876.347657-2.226562.511719-4.476562.488282-6.730468v-119.464844c0-4.710938 3.824218-8.535156 8.535156-8.535156s8.535156 3.824218 8.535156 8.535156v119.464844c.019532 3.179687-.21875 6.351562-.710937 9.488281-.679688 4.121094-4.238281 7.148437-8.414063 7.152344zm0 0"/><path d="m102.398438 512h-93.863282c-4.714844 0-8.535156-3.820312-8.535156-8.535156v-7.59375c-.0078125-11.617188 1.394531-23.191406 4.175781-34.472656l7.9375-32.164063c10.019531-37.449219 44.359375-63.1875 83.117188-62.300781h8.023437c4.710938 0 8.53125 3.820312 8.53125 8.53125 0 4.714844-3.820312 8.535156-8.53125 8.535156h-8.023437c-30.898438-.871094-58.390625 19.496094-66.558594 49.308594l-7.9375 32.179687c-2.371094 9.636719-3.605469 19.519531-3.667969 29.445313h85.332032c4.714843 0 8.535156 3.820312 8.535156 8.53125 0 4.714844-3.820313 8.535156-8.535156 8.535156zm0 0"/><path d="m503.464844 512h-93.863282c-4.714843 0-8.535156-3.820312-8.535156-8.535156 0-4.710938 3.820313-8.53125 8.535156-8.53125h85.332032c-.066406-9.921875-1.300782-19.804688-3.675782-29.441406l-7.9375-32.179688c-8.164062-29.8125-35.652343-50.183594-66.550781-49.3125h-7.9375c-4.710937 0-8.535156-3.820312-8.535156-8.535156 0-4.710938 3.824219-8.53125 8.535156-8.53125h7.9375c38.761719-.890625 73.105469 24.851562 83.125 62.308594l7.933594 32.160156c2.78125 11.28125 4.179687 22.855468 4.171875 34.46875v7.59375c0 4.714844-3.820312 8.535156-8.535156 8.535156zm0 0"/><path d="m392.535156 136.535156h-273.070312c-14.128906-.015625-25.582032-11.46875-25.597656-25.601562v-17.066406c.015624-14.132813 11.46875-25.585938 25.597656-25.601563h273.070312c14.128906.015625 25.582032 11.46875 25.597656 25.601563v17.066406c-.015624 14.132812-11.46875 25.585937-25.597656 25.601562zm-273.070312-51.203125c-4.710938.003907-8.527344 3.824219-8.53125 8.535157v17.066406c.003906 4.710937 3.820312 8.527344 8.53125 8.53125h273.070312c4.710938-.003906 8.527344-3.820313 8.53125-8.53125v-17.066406c-.003906-4.710938-3.820312-8.53125-8.53125-8.535157zm0 0"/><path d="m384 85.332031h-256c-4.710938 0-8.535156-3.820312-8.535156-8.53125.050781-42.398437 34.40625-76.753906 76.800781-76.800781h119.46875c42.394531.046875 76.753906 34.402344 76.800781 76.800781 0 2.261719-.902344 4.433594-2.5 6.035157-1.601562 1.597656-3.773437 2.496093-6.035156 2.496093zm-246.859375-17.066406h237.71875c-4.28125-29.371094-29.445313-51.164063-59.125-51.199219h-119.46875c-29.679687.035156-54.84375 21.828125-59.125 51.199219zm0 0"/><path d="m136.535156 136.535156c-4.714844 0-8.535156-3.824218-8.535156-8.535156v-17.066406c0-4.714844 3.820312-8.535156 8.535156-8.535156 4.710938 0 8.53125 3.820312 8.53125 8.535156v17.066406c0 4.710938-3.820312 8.535156-8.53125 8.535156zm0 0"/><path d="m170.667969 136.535156c-4.714844 0-8.535157-3.824218-8.535157-8.535156v-17.066406c0-4.714844 3.820313-8.535156 8.535157-8.535156 4.710937 0 8.53125 3.820312 8.53125 8.535156v17.066406c0 4.710938-3.820313 8.535156-8.53125 8.535156zm0 0"/><path d="m204.800781 136.535156c-4.714843 0-8.535156-3.824218-8.535156-8.535156v-17.066406c0-4.714844 3.820313-8.535156 8.535156-8.535156 4.710938 0 8.53125 3.820312 8.53125 8.535156v17.066406c0 4.710938-3.820312 8.535156-8.53125 8.535156zm0 0"/><path d="m238.933594 136.535156c-4.714844 0-8.535156-3.824218-8.535156-8.535156v-17.066406c0-4.714844 3.820312-8.535156 8.535156-8.535156 4.710937 0 8.53125 3.820312 8.53125 8.535156v17.066406c0 4.710938-3.820313 8.535156-8.53125 8.535156zm0 0"/><path d="m273.066406 136.535156c-4.710937 0-8.53125-3.824218-8.53125-8.535156v-17.066406c0-4.714844 3.820313-8.535156 8.53125-8.535156 4.714844 0 8.535156 3.820312 8.535156 8.535156v17.066406c0 4.710938-3.820312 8.535156-8.535156 8.535156zm0 0"/><path d="m307.199219 136.535156c-4.710938 0-8.53125-3.824218-8.53125-8.535156v-17.066406c0-4.714844 3.820312-8.535156 8.53125-8.535156 4.714843 0 8.535156 3.820312 8.535156 8.535156v17.066406c0 4.710938-3.820313 8.535156-8.535156 8.535156zm0 0"/><path d="m341.332031 136.535156c-4.710937 0-8.53125-3.824218-8.53125-8.535156v-17.066406c0-4.714844 3.820313-8.535156 8.53125-8.535156 4.714844 0 8.535157 3.820312 8.535157 8.535156v17.066406c0 4.710938-3.820313 8.535156-8.535157 8.535156zm0 0"/><path d="m375.464844 136.535156c-4.710938 0-8.53125-3.824218-8.53125-8.535156v-17.066406c0-4.714844 3.820312-8.535156 8.53125-8.535156 4.714844 0 8.535156 3.820312 8.535156 8.535156v17.066406c0 4.710938-3.820312 8.535156-8.535156 8.535156zm0 0"/><path d="m256 477.867188c-3.648438 0-6.894531-2.320313-8.074219-5.777344-6.832031-14.9375-20.507812-25.613282-36.660156-28.609375-31.625-7.90625-48.433594-19.363281-57.082031-27.859375-.308594.875-.503906 1.785156-.582032 2.710937-.175781 3.539063-2.480468 6.617188-5.828124 7.78125-3.3125 1.152344-6.992188.152344-9.265626-2.519531-22.386718-25.527344-33.394531-59.085938-30.484374-92.914062-2.238282 1.953124-5.328126 2.601562-8.164063 1.714843-2.832031-.882812-5.003906-3.179687-5.734375-6.058593-4.894531-22.335938.523438-45.691407 14.75-63.59375 10.355469-14.503907 26.910156-23.316407 44.726562-23.808594 10.972657.316406 21.558594-4.085938 29.074219-12.09375 7.988281-8.441406 19.039063-13.308594 30.65625-13.507813 12.105469-.15625 24.125 2.035157 35.394531 6.460938 2.3125 1.027343 4.761719 1.726562 7.273438 2.074219 2.511719-.347657 4.960938-1.046876 7.273438-2.074219 11.269531-4.425781 23.289062-6.617188 35.394531-6.460938 11.617187.199219 22.667969 5.066407 30.65625 13.507813 7.515625 8.007812 18.101562 12.410156 29.074219 12.09375 17.816406.492187 34.371093 9.304687 44.726562 23.808594 14.226562 17.902343 19.644531 41.257812 14.753906 63.59375-.722656 2.886718-2.894531 5.1875-5.734375 6.074218-2.835937.886719-5.929687.234375-8.167969-1.726562 2.902344 33.828125-8.105468 67.378906-30.484374 92.910156-2.300782 2.761719-6.082032 3.789062-9.460938 2.566406-3.382812-1.222656-5.632812-4.433594-5.632812-8.027344-.09375-.859374-.285157-1.707031-.574219-2.523437-8.648438 8.5-25.457031 19.96875-57.085938 27.871094-16.140625 2.96875-29.820312 13.628906-36.644531 28.554687-1.160156 3.484375-4.421875 5.835938-8.09375 5.832032zm-94.574219-80.203126c.007813 0 9.449219 18.128907 53.972657 29.257813 16.058593 3.609375 30.386718 12.617187 40.601562 25.519531 10.214844-12.902344 24.542969-21.910156 40.601562-25.519531 44.285157-11.070313 53.898438-29.082031 53.972657-29.257813 1.128906-2.589843 3.460937-4.453124 6.234375-4.976562 2.773437-.527344 5.628906.351562 7.625 2.347656 1.765625 1.757813 3.371094 3.671875 4.800781 5.710938 16.746094-23.953125 22.285156-53.992188 15.1875-82.34375-.847656-2.601563-.398437-5.449219 1.207031-7.664063 1.601563-2.214843 4.167969-3.53125 6.90625-3.539062 3.5.0625 6.953125.832031 10.152344 2.257812-.398438-13.140625-4.953125-25.820312-13.011719-36.210937-7.167969-10.308594-18.734375-16.683594-31.277343-17.246094-15.078126.339844-29.636719-5.539062-40.25-16.257812-4.90625-5.695313-11.96875-9.082032-19.480469-9.34375-10.105469-.167969-20.140625 1.675781-29.527344 5.421874-4.15625 1.816407-8.609375 2.871094-13.140625 3.113282-4.53125-.242188-8.984375-1.296875-13.140625-3.113282-9.386719-3.746093-19.421875-5.589843-29.527344-5.421874-7.511719.261718-14.574219 3.648437-19.480469 9.34375-10.613281 10.71875-25.171874 16.597656-40.25 16.257812-12.542968.5625-24.109374 6.9375-31.277343 17.246094-8.058594 10.390625-12.613281 23.070312-13.011719 36.210937 3.199219-1.425781 6.652344-2.195312 10.152344-2.257812 2.746094 0 5.320312 1.320312 6.925781 3.542969 1.601563 2.226562 2.039063 5.089843 1.167969 7.691406-7.078125 28.34375-1.53125 58.367187 15.207031 82.3125 1.429687-2.042969 3.035156-3.953125 4.800781-5.710938 1.996094-1.996094 4.851563-2.878906 7.625-2.351562 2.773438.527344 5.105469 2.390625 6.234375 4.980468zm0 0"/><path d="m128.007812 512c-3.449218.003906-6.5625-2.070312-7.886718-5.257812-1.324219-3.1875-.597656-6.859376 1.835937-9.300782.234375-.234375 23.109375-23.480468 23.109375-45.175781 0-4.710937 3.820313-8.53125 8.535156-8.53125h90.792969c4.714844 0 8.535157 3.820313 8.535157 8.53125 0 4.714844-3.820313 8.535156-8.535157 8.535156h-83.011719c-4.597656 18.386719-14.042968 35.203125-27.351562 48.699219-1.59375 1.601562-3.761719 2.5-6.023438 2.5zm0 0"/><path d="m383.992188 512c-2.261719.003906-4.429688-.898438-6.023438-2.5-13.308594-13.496094-22.753906-30.3125-27.351562-48.699219h-83.011719c-4.714844 0-8.535157-3.820312-8.535157-8.535156 0-4.710937 3.820313-8.53125 8.535157-8.53125h90.792969c4.714843 0 8.535156 3.820313 8.535156 8.53125 0 21.695313 22.875 44.941406 23.109375 45.175781 2.433593 2.441406 3.160156 6.113282 1.835937 9.300782-1.324218 3.1875-4.4375 5.261718-7.886718 5.257812zm0 0"/><path d="m153.589844 460.800781c-3.910156-.003906-7.316406-2.667969-8.265625-6.464843l-8.53125-34.132813c-.839844-2.988281.015625-6.199219 2.226562-8.378906 2.210938-2.179688 5.433594-2.984375 8.410157-2.105469 2.976562.882812 5.242187 3.3125 5.910156 6.34375l8.535156 34.132812c.636719 2.550782.066406 5.253907-1.554688 7.324219-1.617187 2.070313-4.101562 3.28125-6.730468 3.28125zm0 0"/><path d="m358.410156 460.800781c-2.628906 0-5.113281-1.210937-6.730468-3.28125-1.621094-2.070312-2.191407-4.773437-1.554688-7.324219l8.535156-34.132812c.667969-3.03125 2.933594-5.460938 5.910156-6.34375 2.976563-.878906 6.199219-.074219 8.410157 2.105469 2.210937 2.179687 3.066406 5.390625 2.226562 8.378906l-8.53125 34.132813c-.949219 3.796874-4.355469 6.460937-8.265625 6.464843zm0 0"/></svg>