<svg height="512pt" viewBox="0 0 512.00007 512" width="512pt" xmlns="http://www.w3.org/2000/svg"><path d="m409.601562 503.464844h93.867188l-.003906-7.59375c.015625-10.925782-1.300782-21.816406-3.921875-32.425782l-7.9375-32.171874c-9.203125-33.554688-40.046875-56.558594-74.835938-55.808594h-321.539062c-34.789063-.75-65.632813 22.253906-74.835938 55.808594l-7.9375 32.171874c-2.621093 10.609376-3.9375 21.5-3.921875 32.425782v7.59375zm0 0" fill="#37474f"/><path d="m435.199219 503.464844h-358.398438l28.925781-139.945313c1.617188-6.003906 6.347657-10.671875 12.375-12.203125v-.085937c2.726563-.902344 5.578126-1.363281 8.449219-1.363281h258.898438c9.285156-.816407 17.921875 4.824218 20.90625 13.652343zm0 0" fill="#37474f"/><path d="m187.734375 293.761719h136.53125v69.542969h-136.53125zm0 0" fill="#fec108"/><path d="m256.9375 117.078125-.9375 2.386719v187.734375h-68.265625c-15.847656.011719-31.046875-6.277344-42.25-17.480469-11.207031-11.207031-17.496094-26.40625-17.484375-42.253906v-42.664063c25.601562-17.066406 34.132812-76.800781 59.734375-93.867187 16.382813-10.921875 43.09375-4.4375 69.203125 6.144531zm0 0" fill="#ffdc00"/><path d="m384 196.265625v51.199219c.011719 15.847656-6.277344 31.046875-17.484375 42.253906-11.203125 11.203125-26.402344 17.492188-42.25 17.480469h-68.265625v-187.734375l.9375-2.386719c14.847656 5.972656 29.355469 13.226563 41.730469 19.457031 30.632812 16.582032 59.265625 36.625 85.332031 59.730469zm0 0" fill="#00bcd4"/><path d="m426.667969 145.066406c.070312 8.992188-.527344 17.976563-1.792969 26.878906-.945312 7.941407-3.5 15.609376-7.507812 22.53125-10.753907 16.894532-27.734376 7.421876-33.367188 1.789063-26.066406-23.105469-54.699219-43.148437-85.332031-59.730469-12.375-6.230468-26.882813-13.484375-41.730469-19.457031-26.109375-10.582031-52.820312-17.066406-69.203125-6.144531-25.601563 17.066406-34.132813 76.800781-59.734375 93.867187v17.066407s-25.34375-23.808594-34.132812-85.332032c-7.339844-51.457031 10.582031-71.253906 32.085937-81.152344 3.445313-1.59375 6.976563-2.988281 10.582031-4.183593 3.265625-1.257813 6.277344-3.109375 8.871094-5.460938 14.335938-12.03125 32.769531-37.203125 110.59375-37.203125 93.867188 0 170.667969 59.730469 170.667969 136.53125zm0 0" fill="#0377bc"/><path d="m358.398438 349.867188-26.761719 33.449218c-5.695313 6.1875-13.824219 9.558594-22.226563 9.21875h-106.820312c-8.402344.339844-16.53125-3.03125-22.226563-9.21875l-26.761719-33.449218zm0 0" fill="#607d8b"/><path d="m232.042969 181.035156c-7.402344-4.460937-15.445313-7.765625-23.84375-9.796875-11.230469-3.054687-23.101563-2.8125-34.199219.6875 3.964844-14.441406 38.523438-10.804687 54.417969-3.839843 2.570312.832031 4.554687 2.898437 5.285156 5.503906.726563 2.601562.105469 5.398437-1.660156 7.445312zm0 0"/><path d="m230.398438 197.8125c0-10.101562-7.640626-18.292969-17.066407-18.292969s-17.066406 8.191407-17.066406 18.292969 7.640625 18.292969 17.066406 18.292969 17.066407-8.191407 17.066407-18.292969zm0 0"/><path d="m218.117188 181.941406c-4.40625-1.675781-9.332032.535156-11.007813 4.941406s.535156 9.335938 4.941406 11.007813c4.40625 1.675781 9.332031-.535156 11.007813-4.941406 1.675781-4.402344-.535156-9.332031-4.941406-11.007813zm0 0" fill="#fff"/><path d="m279.046875 182.824219c6.050781-7.96875 14.457031-13.828125 24.027344-16.742188 12.871093-3.433593 26.5625.914063 35.09375 11.140625-.132813-.128906.132812-2.847656.085937-3.273437-.140625-1.105469-.4375-2.183594-.886718-3.203125-1.003907-2.179688-2.480469-4.109375-4.320313-5.648438-4.582031-3.71875-10.035156-6.214844-15.84375-7.246094-7.722656-1.746093-15.773437-1.347656-23.28125 1.15625-4.523437 1.558594-8.683594 4.011719-12.238281 7.210938-3.136719 2.871094-7.777344 8.152344-5.761719 12.960938.933594 1.304687 1.976563 2.523437 3.125 3.644531zm0 0"/><path d="m324.265625 197.8125c0-10.101562-7.640625-18.292969-17.066406-18.292969s-17.066407 8.191407-17.066407 18.292969 7.640626 18.292969 17.066407 18.292969 17.066406-8.191407 17.066406-18.292969zm0 0" fill="#f44335"/><path d="m435.199219 512h-358.398438c-2.566406 0-4.996093-1.152344-6.617187-3.144531-1.621094-1.988281-2.261719-4.601563-1.742188-7.113281l28.910156-139.921876c3.722657-12.84375 15.886719-21.367187 29.230469-20.488281h258.894531c13.363282-.882812 25.535157 7.671875 29.230469 20.542969l28.855469 139.867188c.519531 2.511718-.121094 5.128906-1.742188 7.117187-1.621093 1.988281-4.054687 3.140625-6.621093 3.140625zm-347.925781-17.066406h337.453124l-26.742187-129.664063c-2.257813-4.742187-7.296875-7.511719-12.507813-6.871093h-258.894531c-5.199219-.632813-10.226562 2.109374-12.507812 6.828124zm0 0"/><path d="m324.265625 358.398438h-136.53125c-4.714844 0-8.535156-3.820313-8.535156-8.53125v-42.667969c0-4.710938 3.820312-8.53125 8.535156-8.53125h136.53125c4.714844 0 8.535156 3.820312 8.535156 8.53125v42.667969c0 4.710937-3.820312 8.53125-8.535156 8.53125zm-128-17.066407h119.46875v-25.597656h-119.46875zm0 0"/><path d="m324.265625 315.734375h-136.53125c-37.6875-.042969-68.222656-30.582031-68.269531-68.269531v-42.664063c0-4.714843 3.824218-8.535156 8.535156-8.535156s8.535156 3.820313 8.535156 8.535156v42.664063c.027344 28.265625 22.933594 51.171875 51.199219 51.203125h136.53125c28.265625-.03125 51.171875-22.9375 51.199219-51.203125v-51.199219c0-4.710937 3.824218-8.53125 8.535156-8.53125s8.535156 3.820313 8.535156 8.53125v51.199219c-.046875 37.6875-30.582031 68.226562-68.269531 68.269531zm0 0"/><path d="m102.398438 512h-93.863282c-4.714844 0-8.535156-3.820312-8.535156-8.535156v-7.59375c-.0078125-11.617188 1.394531-23.191406 4.175781-34.472656l7.9375-32.164063c10.019531-37.449219 44.359375-63.1875 83.117188-62.300781h8.023437c4.710938 0 8.53125 3.820312 8.53125 8.53125 0 4.714844-3.820312 8.535156-8.53125 8.535156h-8.023437c-30.898438-.871094-58.390625 19.496094-66.558594 49.308594l-7.9375 32.179687c-2.371094 9.636719-3.605469 19.519531-3.667969 29.445313h85.332032c4.714843 0 8.535156 3.820312 8.535156 8.53125 0 4.714844-3.820313 8.535156-8.535156 8.535156zm0 0"/><path d="m503.464844 512h-93.863282c-4.714843 0-8.535156-3.820312-8.535156-8.535156 0-4.710938 3.820313-8.53125 8.535156-8.53125h85.332032c-.066406-9.921875-1.300782-19.804688-3.675782-29.441406l-7.9375-32.179688c-8.164062-29.8125-35.652343-50.183594-66.550781-49.3125h-7.9375c-4.710937 0-8.535156-3.820312-8.535156-8.535156 0-4.710938 3.824219-8.53125 8.535156-8.53125h7.9375c38.761719-.890625 73.105469 24.851562 83.125 62.308594l7.933594 32.160156c2.78125 11.28125 4.179687 22.855468 4.171875 34.46875v7.59375c0 4.714844-3.820312 8.535156-8.535156 8.535156zm0 0"/><path d="m127.964844 230.390625c-2.15625.003906-4.238282-.820313-5.808594-2.304687-1.121094-1.054688-27.640625-26.613282-36.738281-90.339844-9.59375-67.164063 23.039062-86.179688 48.414062-94.636719 3.972657-1.976563 7.554688-4.648437 10.578125-7.894531 14.480469-13.171875 38.730469-35.214844 111.589844-35.214844 100.484375 0 179.199219 63.722656 179.199219 145.066406 0 37.546875-7.773438 59.015625-23.78125 65.644532-11.84375 3.820312-24.824219.554687-33.453125-8.410157-25.40625-22.472656-53.292969-41.976562-83.113282-58.132812-30.257812-15.125-80.882812-40.460938-102.382812-26.136719-10.742188 7.164062-18.910156 25.535156-26.800781 43.300781-8.882813 19.992188-18.074219 40.664063-32.933594 50.566407-.464844.3125-.957031.574218-1.476563.789062.824219 1.042969 1.703126 2.046875 2.628907 3 2.511719 2.414062 3.308593 6.117188 2.007812 9.351562-1.304687 3.234376-4.441406 5.351563-7.925781 5.351563zm128.035156-213.324219c-66.257812 0-86.632812 18.519532-100.117188 30.773438-4.671874 4.957031-10.347656 8.863281-16.648437 11.457031-23.691406 7.894531-44.558594 22.570313-36.917969 76.03125 2.703125 22.136719 9.386719 43.597656 19.734375 63.351563.375-.359376.78125-.6875 1.214844-.976563 10.742187-7.164063 18.910156-25.535156 26.800781-43.300781 8.882813-19.992188 18.074219-40.664063 32.933594-50.566406 29.695312-19.8125 81.601562 6.117187 119.484375 25.066406 31.457031 16.992187 60.835937 37.574218 87.550781 61.332031 3.828125 3.992187 9.421875 5.765625 14.847656 4.714844 3.109376-1.292969 13.25-8.691407 13.25-49.882813 0-70.578125-72.734374-128-162.132812-128zm0 0"/><path d="m145.066406 93.867188c-2.261718.003906-4.433594-.898438-6.03125-2.5-.878906-.875-21.292968-21.675782-10.136718-43.984376 2.109374-4.214843 7.234374-5.925781 11.453124-3.816406 4.214844 2.109375 5.921876 7.234375 3.816407 11.449219-5.625 11.25 6.808593 24.152344 6.933593 24.285156 2.4375 2.441407 3.167969 6.109375 1.847657 9.296875-1.320313 3.1875-4.433594 5.269532-7.882813 5.269532zm0 0"/><path d="m256 315.734375c-4.710938 0-8.535156-3.820313-8.535156-8.535156v-187.734375c0-4.710938 3.824218-8.53125 8.535156-8.53125s8.535156 3.820312 8.535156 8.53125v187.734375c0 4.714843-3.824218 8.535156-8.535156 8.535156zm0 0"/><path d="m281.601562 273.066406h-25.601562c-4.710938 0-8.535156-3.820312-8.535156-8.53125 0-4.714844 3.824218-8.535156 8.535156-8.535156h22.066406l14.566406-14.566406c1.601563-1.601563 3.769532-2.5 6.035157-2.5h17.066406c4.710937 0 8.53125 3.820312 8.53125 8.53125 0 4.714844-3.820313 8.535156-8.53125 8.535156h-13.535156l-14.566407 14.566406c-1.597656 1.601563-3.769531 2.5-6.03125 2.5zm0 0"/><path d="m315.734375 264.535156c-4.714844 0-8.535156-3.824218-8.535156-8.535156v-17.066406c0-4.714844 3.820312-8.535156 8.535156-8.535156 4.710937 0 8.53125 3.820312 8.53125 8.535156v17.066406c0 4.710938-3.820313 8.535156-8.53125 8.535156zm0 0"/><path d="m307.199219 221.867188c-14.136719 0-25.597657-11.460938-25.597657-25.601563 0-14.136719 11.460938-25.597656 25.597657-25.597656 14.140625 0 25.601562 11.460937 25.601562 25.597656-.015625 14.132813-11.46875 25.585937-25.601562 25.601563zm0-34.132813c-4.710938 0-8.53125 3.820313-8.53125 8.53125 0 4.714844 3.820312 8.535156 8.53125 8.535156 4.714843 0 8.535156-3.820312 8.535156-8.535156-.003906-4.710937-3.824219-8.527344-8.535156-8.53125zm0 0"/><path d="m204.800781 281.589844c-3.449219 0-6.558593-2.074219-7.878906-5.261719s-.59375-6.855469 1.84375-9.292969c7.042969-7.085937 16.628906-11.058594 26.617187-11.035156h30.617188c4.710938 0 8.535156 3.820312 8.535156 8.535156 0 4.710938-3.824218 8.53125-8.535156 8.53125h-30.617188c-5.457031-.015625-10.695312 2.15625-14.542968 6.027344-1.601563 1.601562-3.773438 2.5-6.039063 2.496094zm0 0"/><path d="m420.441406 197.207031c-3.378906 0-6.441406-1.992187-7.808594-5.082031-47.625-107.375-190.234374-123.757812-191.667968-123.902344-4.6875-.496094-8.085938-4.695312-7.589844-9.382812s4.695312-8.085938 9.382812-7.59375c6.257813.660156 153.808594 17.476562 205.476563 133.96875 1.164063 2.636718.917969 5.6875-.652344 8.105468-1.570312 2.417969-4.257812 3.882813-7.140625 3.890626zm0 0"/><path d="m309.410156 401.066406h-106.820312c-10.996094.386719-21.59375-4.167968-28.882813-12.414062l-26.773437-33.457032c-2.941406-3.679687-2.34375-9.050781 1.335937-11.996093 3.683594-2.941407 9.054688-2.34375 11.996094 1.339843l26.769531 33.449219c4.09375 4.125 9.75 6.3125 15.554688 6.011719h106.820312c5.808594.300781 11.472656-1.886719 15.574219-6.011719l26.75-33.453125c2.941406-3.679687 8.3125-4.277344 11.996094-1.335937 3.679687 2.945312 4.277343 8.3125 1.335937 11.996093l-26.757812 33.449219c-7.292969 8.25-17.894532 12.808594-28.898438 12.421875zm0 0"/><path d="m349.867188 443.734375h-76.800782c-4.710937 0-8.53125-3.820313-8.53125-8.535156 0-4.710938 3.820313-8.53125 8.53125-8.53125h71.523438l6.175781-12.351563c1.445313-2.890625 4.402344-4.714844 7.632813-4.714844h25.601562c4.710938 0 8.535156 3.820313 8.535156 8.53125 0 4.714844-3.824218 8.535157-8.535156 8.535157h-20.324219l-6.175781 12.347656c-1.445312 2.890625-4.402344 4.71875-7.632812 4.71875zm0 0"/><path d="m384 435.199219c-4.710938 0-8.535156-3.820313-8.535156-8.53125v-17.066407c0-4.714843 3.824218-8.535156 8.535156-8.535156s8.535156 3.820313 8.535156 8.535156v17.066407c0 4.710937-3.824218 8.53125-8.535156 8.53125zm0 0"/><path d="m349.875 512c-2.6875.003906-5.222656-1.261719-6.832031-3.414062l-23.042969-30.71875h-46.933594c-4.710937 0-8.53125-3.820313-8.53125-8.535157 0-4.710937 3.820313-8.53125 8.53125-8.53125h51.199219c2.6875-.003906 5.21875 1.261719 6.828125 3.414063l25.601562 34.132812c1.9375 2.582032 2.25 6.042969.804688 8.929688-1.441406 2.890625-4.394531 4.71875-7.625 4.722656zm0 0"/><path d="m256.007812 512c-3.375.003906-6.433593-1.984375-7.808593-5.066406l-31.875-71.734375h-62.722657c-3.621093 0-6.851562-2.285157-8.050781-5.699219l-27.019531-76.800781c-1.5625-4.445313.773438-9.316407 5.21875-10.882813 4.445312-1.5625 9.316406.769532 10.882812 5.21875l25.007813 71.097656h62.226563c3.371093 0 6.429687 1.988282 7.800781 5.066407l34.132812 76.800781c.917969 2.070312.976563 4.417969.164063 6.53125s-2.429688 3.8125-4.5 4.734375c-1.085938.484375-2.265625.738281-3.457032.734375zm0 0"/></svg>