<svg height="512pt" viewBox="0 0 512.00007 512" width="512pt" xmlns="http://www.w3.org/2000/svg"><path d="m409.601562 503.464844h93.867188l-.003906-7.59375c.015625-10.925782-1.300782-21.816406-3.921875-32.425782l-7.9375-32.171874c-9.203125-33.554688-40.046875-56.558594-74.835938-55.808594h-321.539062c-34.789063-.75-65.632813 22.253906-74.835938 55.808594l-7.9375 32.171874c-2.621093 10.609376-3.9375 21.5-3.921875 32.425782v7.59375zm0 0" fill="#673ab7"/><path d="m187.734375 290.8125h136.53125v75.441406h-136.53125zm0 0" fill="#00838f"/><path d="m341.332031 349.867188h44.117188c9.285156-.816407 17.921875 4.824218 20.90625 13.652343l28.84375 139.945313h-358.398438l28.925781-139.945313c2.945313-8.820312 11.558594-14.46875 20.824219-13.652343zm0 0" fill="#4527a0"/><path d="m384 196.265625v51.199219c.011719 15.847656-6.277344 31.046875-17.484375 42.253906-11.203125 11.203125-26.402344 17.492188-42.25 17.480469h-136.53125c-15.847656.011719-31.046875-6.277344-42.25-17.480469-11.207031-11.207031-17.496094-26.40625-17.484375-42.253906v-42.664063c25.601562-17.066406 34.132812-93.867187 59.734375-110.933593 25.597656-17.066407 76.800781 8.53125 110.933594 25.597656 51.199219 25.601562 68.265625 68.269531 85.332031 76.800781zm0 0" fill="#00838f"/><path d="m358.398438 196.265625v51.199219c0 33.027344-21.367188 59.734375-47.785157 59.734375h-109.226562c-26.417969 0-47.785157-26.707031-47.785157-59.734375v-42.664063c20.476563-17.066406 27.304688-93.867187 47.785157-110.933593 20.480469-17.066407 61.441406 8.53125 88.746093 25.597656 40.960938 25.601562 54.613282 68.269531 68.265626 76.800781zm0 0" fill="#00bcd4"/><path d="m238.933594 281.601562c-4.714844 0-8.535156-3.820312-8.535156-8.535156v-17.066406c0-4.710938 3.820312-8.535156 8.535156-8.535156 4.710937 0 8.53125 3.824218 8.53125 8.535156v17.066406c0 4.714844-3.820313 8.535156-8.53125 8.535156zm0 0" fill="#f44335"/><path d="m341.332031 349.867188s-17.066406 42.667968-85.332031 42.667968-85.332031-42.667968-85.332031-42.667968zm0 0" fill="#00bcd4"/><path d="m247.464844 426.667969h17.070312c9.425782 0 17.066406 7.640625 17.066406 17.066406v25.597656h-51.203124v-25.597656c0-9.425781 7.644531-17.066406 17.066406-17.066406zm0 0" fill="#f5f5f5"/><path d="m230.398438 460.800781h51.203124c18.851563 0 34.132813 15.28125 34.132813 34.132813v8.53125h-119.46875v-8.53125c0-18.851563 15.28125-34.132813 34.132813-34.132813zm0 0" fill="#f5f5f5"/><path d="m426.667969 145.066406c0 76.800782-31.914063 56.578125-42.667969 51.199219-17.066406-8.53125-34.132812-34.132813-85.332031-59.730469-34.132813-17.070312-85.335938-42.667968-110.933594-25.601562-25.601563 17.066406-34.132813 76.800781-59.734375 93.867187v17.066407s-25.34375-23.808594-34.132812-85.332032c-7.339844-51.457031 10.582031-71.253906 32.085937-81.152344 3.445313-1.59375 6.976563-2.988281 10.582031-4.183593 3.179688-1.199219 6.105469-2.996094 8.617188-5.289063 14.335937-11.949218 32.597656-37.375 110.847656-37.375 93.867188 0 170.667969 59.730469 170.667969 136.53125zm0 0" fill="#4527a0"/><path d="m290.132812 281.601562c-4.554687 0-8.304687-3.578124-8.523437-8.125-.492187-3.132812-6.433594-8.941406-25.609375-8.941406h-34.132812c-4.714844 0-8.535157-3.824218-8.535157-8.535156s3.820313-8.535156 8.535157-8.535156h34.132812c42.183594 0 42.667969 24.554687 42.667969 25.601562 0 4.714844-3.820313 8.535156-8.535157 8.535156zm0 0"/><path d="m233.648438 167.160156c-8.109376-2.984375-16.625-4.710937-25.257813-5.121094-11.601563-.878906-23.214844 1.597657-33.449219 7.132813 1.167969-14.933594 35.789063-17.886719 52.710938-14.046875 2.683594.335938 5.019531 1.992188 6.226562 4.410156 1.207032 2.417969 1.121094 5.28125-.230468 7.625zm0 0"/><path d="m230.398438 193.546875c0-10.101563-7.640626-18.292969-17.066407-18.292969s-17.066406 8.191406-17.066406 18.292969 7.640625 18.292969 17.066406 18.292969 17.066407-8.191406 17.066407-18.292969zm0 0"/><path d="m218.117188 177.671875c-4.402344-1.671875-9.332032.539063-11.007813 4.945313-1.675781 4.402343.535156 9.332031 4.941406 11.007812s9.335938-.535156 11.007813-4.941406c1.675781-4.40625-.535156-9.335938-4.941406-11.011719zm0 0" fill="#fff"/><path d="m278.351562 167.160156c8.109376-2.984375 16.625-4.710937 25.257813-5.121094 11.601563-.878906 23.214844 1.597657 33.449219 7.132813-1.167969-14.933594-35.789063-17.886719-52.710938-14.046875-2.683594.335938-5.019531 1.992188-6.226562 4.410156-1.207032 2.417969-1.121094 5.28125.230468 7.625zm0 0"/><path d="m315.734375 193.546875c0-10.101563-7.640625-18.292969-17.066406-18.292969s-17.066407 8.191406-17.066407 18.292969 7.640626 18.292969 17.066407 18.292969 17.066406-8.191406 17.066406-18.292969zm0 0"/><path d="m304.890625 182.617188c-1.675781-4.40625-6.601563-6.617188-11.007813-4.945313-4.40625 1.675781-6.617187 6.605469-4.941406 11.011719 1.675782 4.40625 6.601563 6.617187 11.007813 4.941406s6.617187-6.605469 4.941406-11.007812zm0 0" fill="#fff"/><path d="m435.199219 512h-358.398438c-2.566406 0-4.996093-1.152344-6.617187-3.144531-1.621094-1.988281-2.261719-4.601563-1.742188-7.113281l28.910156-139.921876c3.722657-12.84375 15.886719-21.367187 29.230469-20.488281h258.894531c13.363282-.882812 25.535157 7.671875 29.230469 20.542969l28.855469 139.867188c.519531 2.511718-.121094 5.128906-1.742188 7.117187-1.621093 1.988281-4.054687 3.140625-6.621093 3.140625zm-347.925781-17.066406h337.453124l-26.742187-129.664063c-2.257813-4.742187-7.296875-7.511719-12.507813-6.871093h-258.894531c-5.199219-.632813-10.226562 2.109374-12.507812 6.828124zm0 0"/><path d="m324.265625 358.398438h-136.53125c-4.714844 0-8.535156-3.820313-8.535156-8.53125v-42.667969c0-4.710938 3.820312-8.53125 8.535156-8.53125h136.53125c4.714844 0 8.535156 3.820312 8.535156 8.53125v42.667969c0 4.710937-3.820312 8.53125-8.535156 8.53125zm-128-17.066407h119.46875v-25.597656h-119.46875zm0 0"/><path d="m324.265625 315.734375h-136.53125c-37.6875-.042969-68.222656-30.582031-68.269531-68.269531v-42.664063c.003906-2.855469 1.429687-5.519531 3.800781-7.101562 10.742187-7.160157 18.910156-25.53125 26.800781-43.296875 8.882813-19.992188 18.074219-40.664063 32.933594-50.570313 29.695312-19.8125 81.589844 6.117188 119.484375 25.066407 24.207031 12.054687 46.648437 27.371093 66.691406 45.523437 5.660157 5.417969 11.914063 10.183594 18.640625 14.207031 2.890625 1.449219 4.71875 4.40625 4.71875 7.636719v51.199219c-.046875 37.6875-30.582031 68.226562-68.269531 68.269531zm-187.730469-106.695313v38.425782c.027344 28.265625 22.933594 51.171875 51.199219 51.203125h136.53125c28.265625-.03125 51.171875-22.9375 51.199219-51.203125v-46.261719c-6.136719-4.210937-11.972656-8.847656-17.464844-13.878906-18.980469-17.199219-40.226562-31.722657-63.148438-43.15625-30.257812-15.125-80.875-40.460938-102.382812-26.136719-10.742188 7.164062-18.90625 25.535156-26.796875 43.300781-8.105469 18.230469-16.464844 37.023438-29.136719 47.707031zm0 0"/><path d="m102.398438 512h-93.863282c-4.714844 0-8.535156-3.820312-8.535156-8.535156v-7.59375c-.0078125-11.617188 1.394531-23.191406 4.175781-34.472656l7.9375-32.164063c10.019531-37.449219 44.359375-63.1875 83.117188-62.300781h8.023437c4.710938 0 8.53125 3.820312 8.53125 8.53125 0 4.714844-3.820312 8.535156-8.53125 8.535156h-8.023437c-30.898438-.871094-58.390625 19.496094-66.558594 49.308594l-7.9375 32.179687c-2.371094 9.636719-3.605469 19.519531-3.667969 29.445313h85.332032c4.714843 0 8.535156 3.820312 8.535156 8.53125 0 4.714844-3.820313 8.535156-8.535156 8.535156zm0 0"/><path d="m503.464844 512h-93.863282c-4.714843 0-8.535156-3.820312-8.535156-8.535156 0-4.710938 3.820313-8.53125 8.535156-8.53125h85.332032c-.066406-9.921875-1.300782-19.804688-3.675782-29.441406l-7.9375-32.179688c-8.164062-29.8125-35.652343-50.183594-66.550781-49.3125h-7.9375c-4.710937 0-8.535156-3.820312-8.535156-8.535156 0-4.710938 3.824219-8.53125 8.535156-8.53125h7.9375c38.761719-.890625 73.105469 24.851562 83.125 62.308594l7.933594 32.160156c2.78125 11.28125 4.179687 22.855468 4.171875 34.46875v7.59375c0 4.714844-3.820312 8.535156-8.535156 8.535156zm0 0"/><path d="m127.964844 230.390625c-2.15625.003906-4.234375-.820313-5.808594-2.304687-1.121094-1.054688-27.625-26.589844-36.738281-90.34375-9.59375-67.164063 23.039062-86.179688 48.414062-94.636719 3.960938-1.980469 7.53125-4.652344 10.550781-7.886719 14.484376-13.171875 38.734376-35.21875 111.617188-35.21875 100.484375 0 179.199219 63.722656 179.199219 145.066406 0 34.71875-6.125 54.613282-19.285157 62.628906-12.980468 7.914063-27.332031.539063-34.207031-3.015624l-1.527343-.78125c-2.726563-1.363282-4.519532-4.078126-4.699219-7.121094-.183594-3.042969 1.269531-5.953125 3.816406-7.632813 2.542969-1.679687 5.792969-1.875 8.519531-.511719l1.722656.882813c4.734376 2.449219 12.667969 6.53125 17.5 3.601563 3.335938-2.03125 11.09375-10.773438 11.09375-48.050782 0-70.578125-72.734374-128-162.132812-128-66.285156 0-86.660156 18.519532-100.132812 30.773438-4.667969 4.953125-10.335938 8.855468-16.625 11.453125-23.699219 7.898437-44.566407 22.574219-36.925782 76.03125 8.175782 57.226562 31.332032 80.136719 31.566406 80.363281 2.511719 2.414062 3.308594 6.113281 2.003907 9.347656-1.300781 3.234375-4.433594 5.351563-7.921875 5.355469zm0 0"/><path d="m145.066406 93.867188c-2.261718.003906-4.433594-.898438-6.03125-2.5-.878906-.875-21.292968-21.675782-10.136718-43.984376 2.109374-4.214843 7.234374-5.925781 11.453124-3.816406 4.214844 2.109375 5.921876 7.234375 3.816407 11.449219-5.625 11.25 6.808593 24.152344 6.933593 24.285156 2.4375 2.441407 3.167969 6.109375 1.847657 9.296875-1.320313 3.1875-4.433594 5.269532-7.882813 5.269532zm0 0"/><path d="m256 401.066406c-73.199219 0-92.476562-46.070312-93.257812-48.027344-1.765626-4.371093.347656-9.34375 4.714843-11.109374 4.371094-1.765626 9.34375.347656 11.109375 4.714843.691406 1.636719 16.433594 37.355469 77.433594 37.355469 61.097656 0 76.800781-35.839844 77.433594-37.363281 1.144531-2.824219 3.707031-4.828125 6.726562-5.25 3.019532-.425781 6.035156.796875 7.914063 3.199219 1.875 2.402343 2.328125 5.625 1.183593 8.453124-.78125 1.957032-20.058593 48.027344-93.257812 48.027344zm0 0"/><path d="m315.734375 512h-119.46875c-4.710937 0-8.53125-3.820312-8.53125-8.535156v-8.53125c.027344-23.554688 19.113281-42.640625 42.664063-42.667969h51.203124c23.550782.027344 42.636719 19.113281 42.664063 42.667969v8.53125c0 4.714844-3.820313 8.535156-8.53125 8.535156zm-110.933594-17.066406h102.398438c-.015625-14.132813-11.46875-25.585938-25.597657-25.601563h-51.203124c-14.128907.015625-25.582032 11.46875-25.597657 25.601563zm0 0"/><path d="m281.601562 469.332031h-51.203124c-4.710938 0-8.53125-3.820312-8.53125-8.53125v-17.066406c.015624-14.132813 11.46875-25.585937 25.597656-25.601563h17.070312c14.128906.015626 25.582032 11.46875 25.597656 25.601563v17.066406c0 4.710938-3.820312 8.53125-8.53125 8.53125zm-42.667968-17.066406h34.132812v-8.53125c-.003906-4.710937-3.820312-8.53125-8.53125-8.535156h-17.070312c-4.710938.003906-8.527344 3.824219-8.53125 8.535156zm0 0"/></svg>