<svg height="512pt" viewBox="0 0 512.00007 512" width="512pt" xmlns="http://www.w3.org/2000/svg"><path d="m409.601562 503.464844h93.867188l-.003906-7.59375c.015625-10.925782-1.300782-21.816406-3.921875-32.425782l-7.9375-32.171874c-9.203125-33.554688-40.046875-56.558594-74.835938-55.808594h-321.539062c-34.789063-.75-65.632813 22.253906-74.835938 55.808594l-7.9375 32.171874c-2.621093 10.609376-3.9375 21.5-3.921875 32.425782v7.59375zm0 0" fill="#c81e1e"/><path d="m110.933594 136.535156c-4.796875 9.917969-14.597656 16.449219-25.601563 17.066406l-43.09375-16.128906c-1.5-38.683594 18.316407-75.082031 51.628907-94.804687 59.734374-34.132813 162.132812-34.132813 162.132812-34.132813zm0 0" fill="#c81e1e"/><path d="m93.867188 179.199219c0 23.566406-19.101563 42.667969-42.667969 42.667969-23.5625 0-42.664063-19.101563-42.664063-42.667969 0-23.5625 19.101563-42.664063 42.664063-42.664063 23.566406 0 42.667969 19.101563 42.667969 42.664063zm0 0" fill="#f5f5f5"/><path d="m382.804688 107.691406c-6.742188-17.410156-42.921876-99.15625-126.804688-99.15625 0 0-3.15625 0-8.617188.253906-77.738281 5.375-111.703124 82.089844-118.1875 98.902344zm0 0" fill="#c81e1e"/><path d="m116.480469 351.914062c-5.320313 1.796876-9.367188 6.164063-10.753907 11.605469l-2.472656 11.945313-26.453125 128h358.398438l-26.367188-128-2.476562-11.945313c-1.441407-5.457031-5.503907-9.839843-10.835938-11.691406" fill="#c81e1e"/><path d="m384 124.757812v122.707032c.007812 7.820312-1.527344 15.5625-4.523438 22.785156h-246.953124c-2.996094-7.222656-4.53125-14.964844-4.523438-22.785156v-122.707032zm0 0" fill="#fec108"/><path d="m358.398438 124.757812v122.707032c.023437 7.742187-1.199219 15.433594-3.617188 22.785156h-197.5625c-2.417969-7.351562-3.640625-15.042969-3.617188-22.785156v-122.707032zm0 0" fill="#ffdc00"/><path d="m381.035156 158.597656-31.609375-5.578125c-61.804687-10.90625-125.046875-10.90625-186.851562 0l-31.609375 5.578125c-4.96875.878906-10.070313-.488281-13.933594-3.730468-3.867188-3.242188-6.097656-8.03125-6.097656-13.074219v-16.539063c-.003906-8.285156 5.945312-15.371094 14.101562-16.8125l37.539063-6.625c61.804687-10.90625 125.046875-10.90625 186.851562 0l37.539063 6.625c8.15625 1.441406 14.105468 8.527344 14.101562 16.8125v16.539063c0 5.042969-2.230468 9.832031-6.097656 13.074219-3.863281 3.242187-8.964844 4.609374-13.933594 3.730468zm0 0" fill="#cfd8dc"/><path d="m358.96875 158.597656-26.027344-5.578125c-50.710937-10.90625-103.164062-10.90625-153.878906 0l-26.027344 5.578125c-8.609375 1.84375-16.5-6.191406-16.5-16.804687v-16.539063c-.488281-7.617187 4.316406-14.570312 11.609375-16.8125l30.914063-6.625c50.714844-10.90625 103.167968-10.90625 153.882812 0l30.914063 6.625c7.292969 2.242188 12.097656 9.195313 11.609375 16.8125v16.539063c0 10.613281-7.890625 18.648437-16.496094 16.804687zm0 0" fill="#f5f5f5"/><path d="m256 503.464844c5.882812-20.644532 22.019531-36.78125 42.667969-42.664063 50.355469-12.589843 59.730469-34.132812 59.730469-34.132812 4.871093 4.425781 7.914062 10.511719 8.535156 17.066406 25.238281-31.023437 34.691406-71.988281 25.601562-110.933594 6.46875.894531 12.464844 3.894531 17.066406 8.53125 8.53125-34.132812-17.066406-76.796875-51.203124-76.796875-34.132813 0-34.132813-25.601562-59.730469-25.601562-25.601563 0-34.132813 8.53125-42.667969 8.53125s-17.066406-8.53125-42.667969-8.53125c-25.597656 0-25.597656 25.601562-59.730469 25.601562-34.136718 0-59.734374 42.664063-51.203124 76.796875 4.601562-4.636719 10.597656-7.636719 17.066406-8.53125-9.089844 38.945313.363281 79.910157 25.601562 110.933594.621094-6.554687 3.664063-12.640625 8.535156-17.066406 0 0 9.375 21.542969 59.730469 34.132812 20.648438 5.882813 36.785157 22.019531 42.667969 42.664063zm0 0" fill="#cfd8dc"/><path d="m256 503.464844s7.035156-34.132813 35.175781-42.664063c41.519531-12.589843 49.246094-34.132812 49.246094-34.132812 4.121094 4.785156 6.589844 10.769531 7.039063 17.066406 35.175781-51.199219 21.105468-110.933594 21.105468-110.933594 7.035156 0 14.070313 8.53125 14.070313 8.53125 7.035156-34.132812-14.070313-76.796875-42.214844-76.796875-28.140625 0-28.140625-25.601562-49.246094-25.601562s-28.140625 8.53125-35.175781 8.53125-14.070312-8.53125-35.175781-8.53125-21.109375 25.601562-49.25 25.601562-49.246094 42.664063-42.210938 76.796875c0 0 7.035157-8.53125 14.070313-8.53125 0 0-14.070313 59.734375 21.105468 110.933594.449219-6.296875 2.917969-12.28125 7.035157-17.066406 0 0 7.730469 21.542969 49.25 34.132812 28.140625 8.53125 35.175781 42.664063 35.175781 42.664063zm0 0" fill="#f5f5f5"/><path d="m233.648438 171.425781c-8.109376-2.980469-16.625-4.707031-25.257813-5.121093-11.601563-.875-23.214844 1.601562-33.449219 7.132812 1.167969-14.933594 35.789063-17.882812 52.710938-14.042969 2.683594.332031 5.019531 1.988281 6.226562 4.40625 1.207032 2.417969 1.121094 5.28125-.230468 7.625zm0 0"/><path d="m230.398438 197.8125c0-10.101562-7.640626-18.292969-17.066407-18.292969s-17.066406 8.191407-17.066406 18.292969 7.640625 18.292969 17.066406 18.292969 17.066407-8.191407 17.066407-18.292969zm0 0"/><path d="m218.117188 181.941406c-4.40625-1.675781-9.332032.535156-11.007813 4.941406s.535156 9.335938 4.941406 11.007813c4.40625 1.675781 9.332031-.535156 11.007813-4.941406 1.675781-4.402344-.535156-9.332031-4.941406-11.007813zm0 0" fill="#fff"/><path d="m278.351562 171.425781c8.109376-2.980469 16.625-4.707031 25.257813-5.121093 11.601563-.875 23.214844 1.601562 33.449219 7.132812-1.167969-14.933594-35.789063-17.882812-52.710938-14.042969-2.683594.332031-5.019531 1.988281-6.226562 4.40625-1.207032 2.417969-1.121094 5.28125.230468 7.625zm0 0"/><path d="m315.734375 197.8125c0-10.101562-7.640625-18.292969-17.066406-18.292969s-17.066407 8.191407-17.066407 18.292969 7.640626 18.292969 17.066407 18.292969 17.066406-8.191407 17.066406-18.292969zm0 0"/><path d="m304.890625 186.882812c-1.675781-4.40625-6.605469-6.617187-11.007813-4.941406-4.40625 1.675782-6.617187 6.605469-4.941406 11.007813 1.671875 4.40625 6.601563 6.617187 11.007813 4.941406 4.40625-1.671875 6.617187-6.601563 4.941406-11.007813zm0 0" fill="#fff"/><path d="m435.199219 512h-358.398438c-2.566406 0-4.996093-1.152344-6.617187-3.144531-1.621094-1.988281-2.261719-4.601563-1.742188-7.113281l28.929688-139.957032c1.960937-8.265625 7.984375-14.972656 15.988281-17.808594 2.839844-1.117187 6.054687-.636718 8.441406 1.261719 2.386719 1.902344 3.578125 4.929688 3.125 7.941407-.453125 3.015624-2.476562 5.5625-5.316406 6.679687-2.59375.777344-4.648437 2.765625-5.515625 5.332031l-26.820312 129.742188h337.460937l-26.734375-129.683594c-.917969-2.640625-3.035156-4.691406-5.707031-5.515625-2.863281-1.125-4.902344-3.703125-5.332031-6.75-.429688-3.042969.8125-6.085937 3.25-7.960937 2.441406-1.875 5.699218-2.289063 8.53125-1.089844 7.988281 2.917968 13.984374 9.640625 15.984374 17.90625l28.835938 139.902344c.519531 2.511718-.121094 5.128906-1.742188 7.117187-1.621093 1.988281-4.054687 3.140625-6.621093 3.140625zm0 0"/><path d="m132.523438 278.785156c-3.453126 0-6.5625-2.078125-7.882813-5.269531-3.429687-8.253906-5.1875-17.109375-5.175781-26.050781v-88.574219c0-4.710937 3.824218-8.535156 8.535156-8.535156s8.535156 3.824219 8.535156 8.535156v88.574219c-.011718 6.699218 1.304688 13.332031 3.875 19.519531 1.089844 2.632813.792969 5.636719-.789062 8.007813-1.585938 2.371093-4.246094 3.792968-7.097656 3.792968zm0 0"/><path d="m379.476562 278.785156c-2.847656 0-5.511718-1.425781-7.09375-3.792968-1.585937-2.371094-1.878906-5.375-.789062-8.007813 2.570312-6.1875 3.882812-12.820313 3.871094-19.519531v-88.574219c0-4.710937 3.824218-8.535156 8.535156-8.535156s8.535156 3.824219 8.535156 8.535156v88.574219c.007813 8.941406-1.75 17.792968-5.175781 26.050781-1.320313 3.1875-4.429687 5.265625-7.882813 5.269531zm0 0"/><path d="m102.398438 512h-93.863282c-4.714844 0-8.535156-3.820312-8.535156-8.535156v-7.59375c-.0078125-11.621094 1.394531-23.199219 4.175781-34.484375l7.9375-32.15625c10.023438-37.449219 44.359375-63.183594 83.117188-62.296875h8.023437c4.710938 0 8.53125 3.820312 8.53125 8.53125 0 4.714844-3.820312 8.535156-8.53125 8.535156h-8.023437c-30.898438-.871094-58.390625 19.496094-66.558594 49.308594l-7.9375 32.171875c-2.371094 9.636719-3.605469 19.523437-3.667969 29.453125h85.332032c4.714843 0 8.535156 3.820312 8.535156 8.53125 0 4.714844-3.820313 8.535156-8.535156 8.535156zm0 0"/><path d="m503.464844 512h-93.863282c-4.714843 0-8.535156-3.820312-8.535156-8.535156 0-4.710938 3.820313-8.53125 8.535156-8.53125h85.332032c-.066406-9.921875-1.300782-19.804688-3.675782-29.441406l-7.9375-32.167969c-8.160156-29.820313-35.648437-50.191407-66.550781-49.324219h-7.9375c-4.710937 0-8.535156-3.820312-8.535156-8.535156 0-4.710938 3.824219-8.53125 8.535156-8.53125h7.9375c38.761719-.890625 73.105469 24.851562 83.125 62.308594l7.933594 32.15625c2.78125 11.28125 4.179687 22.855468 4.171875 34.472656v7.59375c0 4.714844-3.820312 8.535156-8.535156 8.535156zm0 0"/><path d="m384.015625 167.390625c-1.496094.003906-2.992187-.128906-4.464844-.390625l-31.609375-5.582031c-60.820312-10.757813-123.0625-10.757813-183.882812 0l-31.609375 5.582031c-7.453125 1.316406-15.105469-.734375-20.902344-5.597656-5.796875-4.863282-9.144531-12.042969-9.148437-19.609375v-16.542969c-.015626-12.425781 8.910156-23.066406 21.152343-25.207031l37.539063-6.625c62.785156-11.117188 127.035156-11.117188 189.820312 0l37.539063 6.625c12.242187 2.140625 21.167969 12.78125 21.152343 25.207031v16.542969c0 14.128906-11.453124 25.589843-25.585937 25.597656zm-1.5-17.191406c2.484375.433593 5.035156-.25 6.964844-1.871094 1.933593-1.625 3.050781-4.015625 3.054687-6.535156v-16.542969c0-4.144531-2.972656-7.6875-7.050781-8.40625l-37.542969-6.628906c-60.824218-10.753906-123.058594-10.753906-183.882812 0l-37.542969 6.628906c-4.078125.71875-7.050781 4.261719-7.050781 8.40625v16.542969c-.015625 2.523437 1.105468 4.921875 3.050781 6.53125 1.929687 1.632812 4.480469 2.320312 6.96875 1.878906l31.605469-5.585937c62.785156-11.117188 127.035156-11.117188 189.820312 0zm0 0"/><path d="m382.804688 116.222656c-3.523438.003906-6.683594-2.164062-7.957032-5.449218-6.054687-15.648438-40.265625-93.707032-118.847656-93.707032-.109375 0-3.101562.007813-8.214844.25-72.886718 5.042969-104.953125 78.726563-110.636718 93.449219-1.757813 4.304687-6.636719 6.40625-10.972657 4.730469-4.335937-1.671875-6.53125-6.511719-4.941406-10.878906 6.332031-16.410157 42.179687-98.574219 125.558594-104.34375 5.800781-.273438 9.089843-.273438 9.207031-.273438 89.707031 0 128 87.140625 134.765625 104.609375 1.019531 2.625.675781 5.582031-.917969 7.90625-1.589844 2.320313-4.226562 3.710937-7.042968 3.707031zm0 0"/><path d="m42.238281 146.003906c-4.667969 0-8.46875-3.75-8.53125-8.414062-1.652343-41.816406 19.839844-81.144532 55.925781-102.332032 61-34.859374 162.09375-35.257812 166.367188-35.257812 4.710938 0 8.535156 3.820312 8.535156 8.535156 0 4.710938-3.824218 8.53125-8.535156 8.53125-1 0-100.859375.417969-157.898438 33.007813-30.640624 18.167969-48.820312 51.695312-47.328124 87.285156.0625 4.710937-3.703126 8.582031-8.414063 8.644531zm0 0"/><path d="m85.332031 162.132812c-4.710937.023438-8.550781-3.777343-8.574219-8.488281-.023437-4.714843 3.777344-8.554687 8.488282-8.578125 7.796875-.589844 14.679687-5.300781 18.050781-12.351562 2.109375-4.214844 7.234375-5.921875 11.453125-3.816406 4.214844 2.109374 5.921875 7.234374 3.816406 11.453124-6.25 12.800782-19 21.160157-33.234375 21.78125zm0 0"/><path d="m51.199219 230.398438c-28.277344 0-51.199219-22.921876-51.199219-51.199219 0-28.277344 22.921875-51.199219 51.199219-51.199219 28.277343 0 51.199219 22.921875 51.199219 51.199219-.03125 28.265625-22.933594 51.167969-51.199219 51.199219zm0-85.332032c-18.851563 0-34.132813 15.28125-34.132813 34.132813 0 18.851562 15.28125 34.132812 34.132813 34.132812 18.851562 0 34.132812-15.28125 34.132812-34.132812-.015625-18.84375-15.289062-34.113281-34.132812-34.132813zm0 0"/><path d="m256.007812 511.984375h-.042968c-3.886719-.007813-7.277344-2.648437-8.230469-6.417969-5.023437-17.652344-18.816406-31.457031-36.46875-36.488281-31.625-7.902344-48.433594-19.359375-57.082031-27.859375-.308594.878906-.503906 1.789062-.582032 2.714844-.179687 3.539062-2.480468 6.617187-5.828124 7.78125-3.3125 1.15625-6.992188.15625-9.265626-2.515625-23.464843-28.375-34.386718-65.070313-30.257812-101.65625-2.207031 2.066406-5.34375 2.8125-8.246094 1.960937-2.902344-.847656-5.136718-3.171875-5.878906-6.105468-4.894531-22.335938.523438-45.6875 14.75-63.589844 10.359375-14.503906 26.910156-23.3125 44.726562-23.808594 10.972657.316406 21.558594-4.085938 29.074219-12.089844 7.988281-8.445312 19.039063-13.3125 30.65625-13.511718 12.105469-.152344 24.125 2.039062 35.394531 6.460937 2.3125 1.027344 4.761719 1.726563 7.273438 2.074219 2.511719-.347656 4.960938-1.046875 7.273438-2.074219 11.269531-4.421875 23.289062-6.613281 35.394531-6.460937 11.617187.199218 22.667969 5.066406 30.65625 13.511718 7.515625 8.003906 18.101562 12.40625 29.074219 12.089844 17.816406.496094 34.367187 9.304688 44.726562 23.808594 14.226562 17.902344 19.644531 41.253906 14.753906 63.589844-.734375 2.941406-2.96875 5.273437-5.875 6.125-2.90625.851562-6.046875.097656-8.25-1.980469 4.128906 36.585937-6.792968 73.28125-30.257812 101.65625-2.300782 2.765625-6.085938 3.792969-9.46875 2.566406-3.382813-1.222656-5.632813-4.4375-5.628906-8.03125-.09375-.863281-.285157-1.707031-.574219-2.527344-8.648438 8.5-25.457031 19.960938-57.085938 27.867188-17.652343 5.035156-31.445312 18.839843-36.46875 36.492187-.972656 3.769532-4.367187 6.40625-8.261719 6.417969zm-94.582031-88.726563c.007813 0 9.449219 18.132813 53.972657 29.269532 17.023437 4.277344 31.636718 15.167968 40.601562 30.257812 8.964844-15.09375 23.578125-25.984375 40.601562-30.261718 44.285157-11.074219 53.898438-29.085938 53.972657-29.269532 1.128906-2.589844 3.460937-4.453125 6.234375-4.976562 2.773437-.527344 5.628906.355468 7.625 2.351562 1.738281 1.730469 3.324218 3.609375 4.734375 5.617188 16.792969-27.210938 22.238281-59.925782 15.15625-91.109375-.730469-2.574219-.214844-5.34375 1.398437-7.480469 1.613282-2.132812 4.132813-3.390625 6.8125-3.390625 3.5.0625 6.953125.832031 10.152344 2.257813-.398438-13.144532-4.957031-25.824219-13.015625-36.214844-7.167969-10.304688-18.730469-16.679688-31.273437-17.242188-15.078126.339844-29.636719-5.539062-40.25-16.257812-4.90625-5.695313-11.96875-9.082032-19.480469-9.34375-10.105469-.164063-20.140625 1.675781-29.527344 5.417968-4.15625 1.820313-8.609375 2.878907-13.140625 3.117188-4.53125-.238281-8.984375-1.296875-13.140625-3.117188-9.386719-3.742187-19.421875-5.582031-29.527344-5.417968-7.511719.261718-14.574219 3.648437-19.480469 9.34375-10.613281 10.71875-25.171874 16.597656-40.25 16.257812-12.542968.5625-24.105468 6.933594-31.277343 17.238282-8.058594 10.394531-12.613281 23.074218-13.011719 36.21875 3.199219-1.425782 6.652344-2.195313 10.152344-2.257813 2.679687 0 5.203125 1.257813 6.816406 3.394531 1.613281 2.136719 2.128906 4.90625 1.394531 7.480469-6.96875 31.1875-1.527343 63.863281 15.167969 91.109375 1.40625-2.007812 2.984375-3.886719 4.722656-5.617188 1.996094-1.996093 4.851563-2.875 7.625-2.351562 2.773438.527344 5.105469 2.390625 6.234375 4.976562zm0 0"/><path d="m310.09375 316.742188c-14.171875-.683594-27.941406-4.917969-40.050781-12.308594-4.308594-2.726563-9.0625-4.679688-14.042969-5.765625-4.980469 1.085937-9.734375 3.039062-14.042969 5.765625-16.636719 8.722656-41.78125 21.898437-75.679687 1.550781-4.003906-2.441406-5.289063-7.65625-2.875-11.675781 2.414062-4.023438 7.617187-5.34375 11.65625-2.957032 25.683594 15.390626 43.367187 6.144532 58.976562-2.035156 6.601563-4.285156 14.132813-6.929687 21.964844-7.714844 7.832031.785157 15.363281 3.429688 21.964844 7.714844 15.617187 8.183594 33.300781 17.449219 58.976562 2.035156 4.039063-2.386718 9.242188-1.066406 11.65625 2.957032 2.414063 4.019531 1.128906 9.234375-2.871094 11.675781-10.65625 6.808594-22.992187 10.53125-35.632812 10.757813zm0 0"/></svg>