<svg height="512pt" viewBox="0 0 512.00007 512" width="512pt" xmlns="http://www.w3.org/2000/svg"><path d="m102.910156 377.089844-9.042968 126.375h-85.332032v-7.59375c-.015625-10.925782 1.300782-21.816406 3.921875-32.425782l7.9375-32.171874c9.203125-33.554688 40.046875-56.558594 74.835938-55.808594zm0 0" fill="#f57c00"/><path d="m503.464844 495.871094.003906 7.59375h-85.335938l-9.214843-127.484375 1.707031-.515625h6.144531c34.789063-.75 65.632813 22.253906 74.835938 55.808594l7.9375 32.171874c2.621093 10.609376 3.9375 21.5 3.921875 32.425782zm0 0" fill="#f57c00"/><path d="m435.199219 503.464844h-358.398438l26.109375-126.375.257813-1.109375c24.972656 7.171875 50.625 11.71875 76.542969 13.566406 5.460937.425781 11.179687.851563 17.152343 1.195313 17.410157 1.195312 37.035157 1.792968 59.136719 1.792968 22.1875 0 41.8125-.597656 59.136719-1.792968 5.972656-.34375 11.691406-.769532 17.152343-1.195313 25.945313-1.847656 51.625-6.398437 76.628907-13.566406zm0 0" fill="#ff9801"/><path d="m427.777344 136.535156h33.023437c4.710938 0 8.53125 3.820313 8.53125 8.53125v85.332032c0 4.714843-3.820312 8.535156-8.53125 8.535156h-409.601562c-4.710938 0-8.53125-3.820313-8.53125-8.535156v-85.332032c0-4.710937 3.820312-8.53125 8.53125-8.53125zm0 0" fill="#d84315"/><path d="m424.886719 354.378906c3.171875 1.375 5.214843 4.515625 5.1875 7.972656-.03125 3.457032-2.125 6.5625-5.324219 7.878907-3.917969 1.695312-8.585938 3.464843-14.125 5.234375l-1.707031.515625c-26.878907 8.359375-73.558594 16.554687-152.917969 16.554687-79.273438 0-125.953125-8.195312-152.832031-16.554687-.683594-.171875-1.28125-.34375-1.792969-.515625-5.539062-1.769532-10.207031-3.539063-14.125-5.234375-3.199219-1.316407-5.292969-4.421875-5.324219-7.878907-.027343-3.457031 2.015625-6.597656 5.1875-7.972656 11.976563-5.226562 22.929688-12.53125 32.351563-21.578125v-36.183593c-27.953125-29.082032-43.289063-68.03125-42.664063-108.363282-.144531-98.972656 79.96875-179.316406 178.941407-179.460937 98.96875-.144531 179.316406 79.972656 179.457031 178.941406.753906 40.511719-14.589844 79.667969-42.664063 108.882813v36.183593c9.421875 9.046875 20.375 16.351563 32.351563 21.578125zm0 0" fill="#ff9801"/><path d="m341.332031 187.734375c0 47.128906-38.203125 85.332031-85.332031 85.332031s-85.332031-38.203125-85.332031-85.332031 38.203125-85.335937 85.332031-85.335937 85.332031 38.207031 85.332031 85.335937zm0 0" fill="#ffdc00"/><path d="m221.867188 503.464844h-51.199219l51.199219-68.265625h51.199218zm0 0" fill="#d84315"/><path d="m238.933594 435.199219h51.199218l51.199219 68.265625h-51.199219l-34.132812-45.480469zm0 0" fill="#d84315"/><path d="m332.289062 389.546875c.085938.566406.085938 1.140625 0 1.707031-2.601562 22.230469-17.53125 41.089844-38.570312 48.726563-6.597656 2.503906-13.597656 3.777343-20.652344 3.753906h-34.132812c-7.054688.023437-14.054688-1.25-20.652344-3.753906-21.039062-7.636719-35.96875-26.496094-38.570312-48.726563-.085938-.566406-.085938-1.140625 0-1.707031 5.460937.425781 11.179687.851563 17.152343 1.195313 3.25 20.707031 21.109375 35.957031 42.070313 35.925781h34.132812c20.960938.03125 38.820313-15.21875 42.070313-35.925781 5.972656-.34375 11.691406-.769532 17.152343-1.195313zm0 0" fill="#7f6e5d"/><path d="m296.339844 230.398438c-6.894532 13.496093-28.414063 15.402343-40.167969 15.402343-11.78125 0-33.277344-1.90625-40.171875-15.402343 13.148438 3.242187 26.628906 4.929687 40.171875 5.035156 13.539063-.105469 27.023437-1.792969 40.167969-5.035156zm0 0"/><path d="m233.648438 141.558594c-8.109376-2.980469-16.625-4.707032-25.257813-5.121094-11.601563-.875-23.214844 1.601562-33.449219 7.132812 1.167969-14.933593 35.789063-17.882812 52.710938-14.042968 2.683594.332031 5.019531 1.988281 6.226562 4.40625 1.207032 2.421875 1.121094 5.28125-.230468 7.625zm0 0"/><path d="m230.398438 167.945312c0-10.101562-7.640626-18.292968-17.066407-18.292968s-17.066406 8.191406-17.066406 18.292968c0 10.101563 7.640625 18.292969 17.066406 18.292969s17.066407-8.191406 17.066407-18.292969zm0 0"/><path d="m218.117188 152.074219c-4.402344-1.675781-9.332032.535156-11.007813 4.941406s.535156 9.335937 4.941406 11.011719c4.40625 1.671875 9.335938-.539063 11.007813-4.945313 1.675781-4.402343-.535156-9.332031-4.941406-11.007812zm0 0" fill="#fff"/><path d="m278.351562 141.558594c8.109376-2.980469 16.625-4.707032 25.257813-5.121094 11.601563-.875 23.214844 1.601562 33.449219 7.132812-1.167969-14.933593-35.789063-17.882812-52.710938-14.042968-2.683594.332031-5.019531 1.988281-6.226562 4.40625-1.207032 2.421875-1.121094 5.28125.230468 7.625zm0 0"/><path d="m315.734375 167.945312c0-10.101562-7.640625-18.292968-17.066406-18.292968s-17.066407 8.191406-17.066407 18.292968c0 10.101563 7.640626 18.292969 17.066407 18.292969s17.066406-8.191406 17.066406-18.292969zm0 0"/><path d="m304.890625 157.015625c-1.675781-4.40625-6.605469-6.617187-11.007813-4.941406-4.40625 1.675781-6.617187 6.605469-4.945312 11.007812 1.675781 4.40625 6.605469 6.617188 11.011719 4.941407 4.40625-1.671876 6.617187-6.601563 4.941406-11.007813zm0 0" fill="#fff"/><path d="m256 68.265625c-65.980469 0-119.464844 53.488281-119.464844 119.46875s53.484375 119.464844 119.464844 119.464844 119.464844-53.484375 119.464844-119.464844c-.011719-65.976563-53.488282-119.457031-119.464844-119.46875zm0 204.800781c-47.128906 0-85.332031-38.203125-85.332031-85.332031s38.203125-85.335937 85.332031-85.335937 85.332031 38.207031 85.332031 85.335937c-.015625 47.121094-38.210937 85.316406-85.332031 85.332031zm0 0" fill="#f57c00"/><path d="m435.199219 512h-358.398438c-2.566406 0-4.996093-1.152344-6.617187-3.144531-1.621094-1.988281-2.261719-4.601563-1.742188-7.113281l26.367188-127.488282c.953125-4.617187 5.46875-7.585937 10.085937-6.632812 4.613281.953125 7.582031 5.46875 6.632813 10.082031l-24.253906 117.230469h337.453124l-24.171874-117.234375c-.953126-4.617188 2.015624-9.128907 6.632812-10.082031 4.617188-.953126 9.132812 2.015624 10.085938 6.632812l26.28125 127.492188c.519531 2.511718-.121094 5.125-1.742188 7.113281-1.617188 1.988281-4.046875 3.144531-6.613281 3.144531zm0 0"/><path d="m102.398438 512h-93.863282c-4.714844 0-8.535156-3.820312-8.535156-8.535156v-7.59375c-.0078125-11.621094 1.394531-23.199219 4.175781-34.484375l7.9375-32.15625c10.023438-37.449219 44.359375-63.183594 83.117188-62.296875h6.144531c4.714844 0 8.535156 3.820312 8.535156 8.53125 0 4.714844-3.820312 8.535156-8.535156 8.535156h-6.144531c-30.898438-.871094-58.390625 19.496094-66.558594 49.308594l-7.9375 32.171875c-2.371094 9.636719-3.605469 19.523437-3.667969 29.453125h85.332032c4.714843 0 8.535156 3.820312 8.535156 8.53125 0 4.714844-3.820313 8.535156-8.535156 8.535156zm0 0"/><path d="m503.464844 512h-93.863282c-4.714843 0-8.535156-3.820312-8.535156-8.535156 0-4.710938 3.820313-8.53125 8.535156-8.53125h85.332032c-.066406-9.921875-1.300782-19.804688-3.675782-29.441406l-7.9375-32.167969c-8.160156-29.820313-35.648437-50.191407-66.550781-49.324219h-6.144531c-4.714844 0-8.535156-3.820312-8.535156-8.535156 0-4.710938 3.820312-8.53125 8.535156-8.53125h6.144531c38.761719-.890625 73.105469 24.851562 83.125 62.308594l7.933594 32.15625c2.78125 11.28125 4.179687 22.855468 4.171875 34.472656v7.59375c0 4.714844-3.820312 8.535156-8.535156 8.535156zm0 0"/><path d="m256 281.601562c-51.839844 0-93.867188-42.027343-93.867188-93.867187 0-51.84375 42.027344-93.867187 93.867188-93.867187s93.867188 42.023437 93.867188 93.867187c-.058594 51.816406-42.050782 93.808594-93.867188 93.867187zm0-170.667968c-42.414062 0-76.800781 34.382812-76.800781 76.800781 0 42.414063 34.386719 76.800781 76.800781 76.800781s76.800781-34.386718 76.800781-76.800781c-.046875-42.398437-34.40625-76.753906-76.800781-76.800781zm0 0"/><path d="m256 315.734375c-70.691406 0-128-57.308594-128-128 0-70.695313 57.308594-128 128-128s128 57.304687 128 128c-.078125 70.660156-57.339844 127.921875-128 128zm0-238.933594c-61.265625 0-110.933594 49.664063-110.933594 110.933594 0 61.265625 49.667969 110.933594 110.933594 110.933594s110.933594-49.667969 110.933594-110.933594c-.070313-61.238281-49.695313-110.863281-110.933594-110.933594zm0 0"/><path d="m256 401.066406c-161.734375 0-191.675781-33.699218-194.558594-37.546875-1.941406-2.585937-2.253906-6.042969-.808594-8.9375 1.445313-2.890625 4.402344-4.714843 7.632813-4.714843 17.535156 0 36.066406-14.933594 42.667969-20.792969v-29.058594c-28.121094-30.554687-43.402344-70.761719-42.667969-112.28125 0-103.683594 84.050781-187.734375 187.734375-187.734375s187.734375 84.050781 187.734375 187.734375c.734375 41.519531-14.546875 81.726563-42.667969 112.28125v29.058594c6.601563 5.859375 25.132813 20.792969 42.667969 20.792969 3.230469 0 6.1875 1.824218 7.632813 4.714843 1.445312 2.894531 1.132812 6.351563-.808594 8.9375-2.882813 3.847657-32.824219 37.546875-194.558594 37.546875zm-165.632812-38.816406c20.90625 9.066406 67.660156 21.75 165.632812 21.75 97.800781 0 144.566406-12.640625 165.582031-21.773438-12.996093-5.636718-24.878906-13.5625-35.082031-23.394531-1.601562-1.597656-2.5-3.769531-2.5-6.03125v-36.183593c0-2.214844.863281-4.347657 2.40625-5.941407 26.519531-27.628906 40.996094-64.652343 40.261719-102.941406 0-94.257813-76.410157-170.667969-170.667969-170.667969s-170.667969 76.410156-170.667969 170.667969c-.734375 38.289063 13.742188 75.308594 40.261719 102.941406 1.542969 1.59375 2.40625 3.722657 2.40625 5.941407v36.183593c0 2.261719-.898438 4.433594-2.5 6.03125-10.210938 9.851563-22.113281 17.78125-35.132812 23.417969zm0 0"/><path d="m84.222656 247.464844h-33.023437c-9.417969-.011719-17.054688-7.644532-17.066407-17.066406v-85.332032c.011719-9.421875 7.648438-17.054687 17.066407-17.066406h33.023437c4.714844 0 8.535156 3.820312 8.535156 8.535156 0 4.710938-3.820312 8.53125-8.535156 8.53125h-33.023437v85.332032h33.023437c4.714844 0 8.535156 3.820312 8.535156 8.535156 0 4.710937-3.820312 8.53125-8.535156 8.53125zm0 0"/><path d="m460.800781 247.464844h-33.023437c-4.714844 0-8.535156-3.820313-8.535156-8.53125 0-4.714844 3.820312-8.535156 8.535156-8.535156h33.023437v-85.332032h-33.023437c-4.714844 0-8.535156-3.820312-8.535156-8.53125 0-4.714844 3.820312-8.535156 8.535156-8.535156h33.023437c9.417969.011719 17.054688 7.644531 17.066407 17.066406v85.332032c-.011719 9.421874-7.648438 17.054687-17.066407 17.066406zm0 0"/><path d="m256 358.398438c-2.839844 0-69.957031-.097657-96.566406-8.972657-4.335938-1.585937-6.625-6.335937-5.164063-10.714843 1.460938-4.382813 6.144531-6.804688 10.5625-5.46875 24.011719 8 90.5 8.089843 91.167969 8.089843s67.175781-.097656 91.167969-8.089843c2.917969-1.066407 6.183593-.464844 8.527343 1.574218 2.34375 2.039063 3.394532 5.191406 2.746094 8.226563-.652344 3.039062-2.902344 5.484375-5.875 6.382812-26.609375 8.875-93.726562 8.972657-96.566406 8.972657zm0 0"/><path d="m273.066406 443.734375h-34.132812c-30.199219.039063-55.65625-22.515625-59.25-52.5-.554688-4.679687 2.792968-8.921875 7.476562-9.476563 4.679688-.550781 8.921875 2.796876 9.472656 7.476563 2.578126 21.394531 20.75 37.476563 42.300782 37.433594h34.132812c21.550782.042969 39.722656-16.039063 42.300782-37.433594.355468-3.027344 2.300781-5.636719 5.101562-6.839844 2.800781-1.207031 6.03125-.824219 8.476562 1 2.445313 1.824219 3.730469 4.8125 3.371094 7.839844-3.59375 29.984375-29.050781 52.539063-59.25 52.5zm0 0"/><path d="m221.867188 512h-51.199219c-3.234375 0-6.1875-1.824219-7.632813-4.71875-1.445312-2.890625-1.132812-6.347656.804688-8.933594l51.199218-68.269531c1.613282-2.148437 4.140626-3.414063 6.828126-3.410156h51.199218c3.234375 0 6.1875 1.824219 7.632813 4.714843 1.445312 2.890626 1.132812 6.351563-.804688 8.9375l-51.199219 68.265626c-1.613281 2.148437-4.140624 3.414062-6.828124 3.414062zm-34.132813-17.066406h29.867187l38.398438-51.199219h-29.867188zm0 0"/><path d="m341.332031 512h-51.199219c-2.683593 0-5.210937-1.261719-6.824218-3.40625l-34.136719-45.484375c-2.828125-3.769531-2.066406-9.121094 1.703125-11.953125 3.769531-2.828125 9.121094-2.066406 11.953125 1.703125l31.570313 42.074219h29.867187l-38.398437-51.199219h-46.933594c-4.714844 0-8.535156-3.820313-8.535156-8.535156 0-4.710938 3.820312-8.53125 8.535156-8.53125h51.199218c2.6875-.003907 5.214844 1.261719 6.828126 3.410156l51.199218 68.269531c1.9375 2.585938 2.25 6.042969.804688 8.933594-1.445313 2.894531-4.398438 4.71875-7.632813 4.71875zm0 0"/></svg>