<svg height="512pt" viewBox="0 0 512.00007 512" width="512pt" xmlns="http://www.w3.org/2000/svg"><path d="m187.734375 289.949219h136.53125v77.167969h-136.53125zm0 0" fill="#fec108"/><path d="m409.601562 503.464844h93.867188l-.003906-7.59375c.015625-10.925782-1.300782-21.816406-3.921875-32.425782l-7.9375-32.171874c-9.203125-33.554688-40.046875-56.558594-74.835938-55.808594h-321.539062c-34.789063-.75-65.632813 22.253906-74.835938 55.808594l-7.9375 32.171874c-2.621093 10.609376-3.9375 21.5-3.921875 32.425782v7.59375zm0 0" fill="#cfd8dc"/><path d="m332.800781 349.867188s-12.800781 55.464843-64 64c-5.632812-.9375-27.988281 1.875-32.9375 0-40.621093-14.847657-56.664062-64-56.664062-64zm0 0" fill="#ffdc00"/><path d="m435.199219 503.464844h-358.398438l28.925781-139.945313c1.832032-6.480469 7.136719-11.390625 13.738282-12.714843 2.3125-.621094 4.691406-.9375 7.085937-.9375h52.648438s20.308593 40.617187 60.929687 55.464843c5.136719 1.945313 10.453125 3.371094 15.871094 4.269531 51.199219-8.535156 76.800781-59.734374 76.800781-59.734374h52.648438c2.394531 0 4.773437.316406 7.085937.9375 6.621094 1.320312 11.957032 6.226562 13.820313 12.714843zm0 0" fill="#f5f5f5"/><path d="m392.535156 350.804688v152.660156h-34.136718v-153.597656h27.050781c2.394531 0 4.773437.316406 7.085937.9375zm0 0" fill="#d84315"/><path d="m153.601562 349.867188v153.597656h-34.136718v-152.660156c2.3125-.621094 4.691406-.9375 7.085937-.9375zm0 0" fill="#d84315"/><path d="m256 409.601562v93.863282h-17.066406v-93.863282c0-1.507812.414062-2.980468 1.195312-4.269531 5.136719 1.945313 10.453125 3.371094 15.871094 4.269531zm0 0" fill="#d1d4d1"/><path d="m290.132812 469.332031h-8.53125c-4.714843 0-8.535156-3.820312-8.535156-8.53125 0-4.714843 3.820313-8.535156 8.535156-8.535156h8.53125c4.714844 0 8.535157 3.820313 8.535157 8.535156 0 4.710938-3.820313 8.53125-8.535157 8.53125zm0 0" fill="#95a5a5"/><path d="m384 124.585938v122.878906c.011719 15.847656-6.277344 31.046875-17.484375 42.253906-11.203125 11.203125-26.402344 17.492188-42.25 17.480469h-136.53125c-15.847656.011719-31.046875-6.277344-42.25-17.480469-11.207031-11.207031-17.496094-26.40625-17.484375-42.253906v-122.878906zm0 0" fill="#fec108"/><path d="m358.398438 124.585938v122.878906c0 33.027344-21.367188 59.734375-47.785157 59.734375h-109.226562c-26.417969 0-47.785157-26.707031-47.785157-59.734375v-122.878906zm0 0" fill="#ffdc00"/><path d="m359.9375 82.175781-34.21875-57.085937c-6.203125-10.246094-17.296875-16.519532-29.269531-16.554688h-80.898438c-11.972656.035156-23.066406 6.308594-29.269531 16.554688l-34.21875 57.085937zm0 0" fill="#ff5722"/><path d="m280.15625 56.210938c37.660156 14.597656 76.378906 26.308593 115.820312 35.03125 8.203126 1.960937 13.757813 9.605468 13.089844 18.015624-.664062 9.386719-1.925781 18.722657-3.777344 27.949219-.921874 4.4375-3.578124 8.328125-7.382812 10.796875-3.800781 2.46875-8.433594 3.316406-12.867188 2.355469-42.519531-8.355469-85.710937-12.828125-129.039062-13.367187-43.328125.539062-86.519531 5.011718-129.039062 13.363281-4.433594.964843-9.066407.117187-12.867188-2.351563-3.804688-2.472656-6.460938-6.359375-7.382812-10.796875-1.851563-9.226562-3.113282-18.5625-3.777344-27.949219-.667969-8.410156 4.886718-16.054687 13.089844-18.015624 39.441406-8.722657 78.160156-20.433594 115.820312-35.03125 15.410156-6.691407 32.902344-6.691407 48.3125 0zm0 0" fill="#d84315"/><path d="m375.464844 401.066406c-27.535156.929688-54.210938 9.820313-76.796875 25.601563h-85.335938c-22.585937-15.78125-49.261719-24.671875-76.796875-25.601563 0-20.144531 9.484375-39.113281 25.597656-51.199218h17.066407s20.308593 40.617187 60.929687 55.464843c5.136719 1.945313 10.453125 3.371094 15.871094 4.269531 51.199219-8.535156 76.800781-59.734374 76.800781-59.734374h17.066407c16.113281 12.085937 25.597656 31.054687 25.597656 51.199218zm0 0" fill="#ecf0f1"/><path d="m296.339844 251.734375c-6.894532 13.492187-28.414063 15.398437-40.167969 15.398437-11.78125 0-33.277344-1.90625-40.171875-15.398437 13.148438 3.238281 26.628906 4.925781 40.171875 5.035156 13.539063-.105469 27.023437-1.796875 40.167969-5.035156zm0 0"/><path d="m233.648438 162.890625c-8.109376-2.980469-16.625-4.707031-25.257813-5.117187-11.601563-.878907-23.214844 1.597656-33.449219 7.132812 1.167969-14.933594 35.789063-17.886719 52.710938-14.046875 2.683594.335937 5.019531 1.988281 6.226562 4.410156 1.207032 2.417969 1.121094 5.28125-.230468 7.621094zm0 0"/><path d="m230.398438 189.28125c0-10.105469-7.640626-18.292969-17.066407-18.292969s-17.066406 8.1875-17.066406 18.292969c0 10.101562 7.640625 18.289062 17.066406 18.289062s17.066407-8.1875 17.066407-18.289062zm0 0"/><path d="m218.117188 173.40625c-4.40625-1.675781-9.332032.539062-11.007813 4.945312-1.675781 4.402344.535156 9.332032 4.941406 11.007813s9.335938-.539063 11.007813-4.941406c1.675781-4.40625-.535156-9.335938-4.941406-11.011719zm0 0" fill="#fff"/><path d="m278.351562 162.890625c8.109376-2.980469 16.625-4.707031 25.257813-5.117187 11.601563-.878907 23.214844 1.597656 33.449219 7.132812-1.167969-14.933594-35.789063-17.886719-52.710938-14.046875-2.683594.335937-5.019531 1.988281-6.226562 4.410156-1.207032 2.417969-1.121094 5.28125.230468 7.621094zm0 0"/><path d="m315.734375 189.28125c0-10.105469-7.640625-18.292969-17.066406-18.292969s-17.066407 8.1875-17.066407 18.292969c0 10.101562 7.640626 18.289062 17.066407 18.289062s17.066406-8.1875 17.066406-18.289062zm0 0"/><path d="m304.890625 178.347656c-1.675781-4.402344-6.605469-6.617187-11.007813-4.941406-4.40625 1.675781-6.617187 6.605469-4.941406 11.011719 1.671875 4.402343 6.601563 6.617187 11.007813 4.941406s6.617187-6.605469 4.941406-11.011719zm0 0" fill="#fff"/><path d="m435.199219 512h-358.398438c-2.566406 0-4.996093-1.152344-6.617187-3.144531-1.621094-1.988281-2.261719-4.601563-1.742188-7.113281l28.910156-139.929688c3.726563-12.839844 15.886719-21.359375 29.230469-20.480469h258.894531c13.359376-.882812 25.53125 7.667969 29.230469 20.535157l28.855469 139.875c.519531 2.511718-.121094 5.128906-1.742188 7.117187-1.621093 1.988281-4.054687 3.140625-6.621093 3.140625zm-347.925781-17.066406h337.453124l-26.742187-129.667969c-2.257813-4.742187-7.296875-7.507813-12.507813-6.867187h-258.894531c-5.199219-.632813-10.226562 2.109374-12.507812 6.828124zm0 0"/><path d="m324.265625 358.398438h-136.53125c-4.714844 0-8.535156-3.820313-8.535156-8.53125v-42.667969c0-4.710938 3.820312-8.53125 8.535156-8.53125h136.53125c4.714844 0 8.535156 3.820312 8.535156 8.53125v42.667969c0 4.710937-3.820312 8.53125-8.535156 8.53125zm-128-17.066407h119.46875v-25.597656h-119.46875zm0 0"/><path d="m363.632812 91.800781c-2.242187 0-4.390624-.894531-5.972656-2.484375l-.085937-.085937c-2.808594-2.890625-3.191407-7.363281-.914063-10.6875 2.273438-3.328125 6.582032-4.589844 10.292969-3.015625 3.714844 1.570312 5.804687 5.542968 4.996094 9.492187-.804688 3.953125-4.285157 6.785157-8.316407 6.777344zm0 0"/><path d="m324.265625 315.734375h-136.53125c-37.6875-.042969-68.222656-30.582031-68.269531-68.269531v-97.277344c0-4.714844 3.824218-8.535156 8.535156-8.535156s8.535156 3.820312 8.535156 8.535156v97.277344c.027344 28.265625 22.933594 51.171875 51.199219 51.203125h136.53125c28.265625-.03125 51.171875-22.9375 51.199219-51.203125v-97.277344c0-4.714844 3.824218-8.535156 8.535156-8.535156s8.535156 3.820312 8.535156 8.535156v97.277344c-.046875 37.6875-30.582031 68.226562-68.269531 68.269531zm0 0"/><path d="m148.308594 91.820312c-4.082032.007813-7.605469-2.863281-8.421875-6.867187-.8125-4 1.304687-8.019531 5.066406-9.609375s8.121094-.304688 10.421875 3.070312c2.300781 3.371094 1.902344 7.898438-.949219 10.820313l-.085937.085937c-1.597656 1.601563-3.769532 2.5-6.03125 2.5zm0 0"/><path d="m102.398438 512h-93.863282c-4.714844 0-8.535156-3.820312-8.535156-8.535156v-7.59375c-.0078125-11.621094 1.394531-23.199219 4.175781-34.484375l7.9375-32.15625c10.023438-37.449219 44.359375-63.183594 83.117188-62.296875h8.023437c4.710938 0 8.53125 3.820312 8.53125 8.53125 0 4.714844-3.820312 8.535156-8.53125 8.535156h-8.023437c-30.898438-.871094-58.390625 19.496094-66.558594 49.308594l-7.9375 32.171875c-2.371094 9.636719-3.605469 19.523437-3.667969 29.453125h85.332032c4.714843 0 8.535156 3.820312 8.535156 8.53125 0 4.714844-3.820313 8.535156-8.535156 8.535156zm0 0"/><path d="m503.464844 512h-93.863282c-4.714843 0-8.535156-3.820312-8.535156-8.535156 0-4.710938 3.820313-8.53125 8.535156-8.53125h85.332032c-.066406-9.921875-1.300782-19.804688-3.675782-29.441406l-7.9375-32.167969c-8.160156-29.820313-35.648437-50.191407-66.550781-49.324219h-7.9375c-4.710937 0-8.535156-3.820312-8.535156-8.535156 0-4.710938 3.824219-8.53125 8.535156-8.53125h7.9375c38.761719-.890625 73.105469 24.851562 83.125 62.308594l7.933594 32.15625c2.78125 11.28125 4.179687 22.855468 4.171875 34.472656v7.59375c0 4.714844-3.820312 8.535156-8.535156 8.535156zm0 0"/><path d="m247.464844 512c-4.710938 0-8.53125-3.820312-8.53125-8.535156v-93.863282c0-4.714843 3.820312-8.535156 8.53125-8.535156h7.808594c45.71875-8.03125 69.660156-54.558594 69.902343-55.023437 2.144531-4.144531 7.222657-5.792969 11.394531-3.703125 4.175782 2.089844 5.894532 7.144531 3.863282 11.34375-1.125 2.25-28.175782 55.191406-83.03125 64.332031-.460938.078125-.933594.117187-1.402344.117187v85.332032c0 4.714844-3.820312 8.535156-8.535156 8.535156zm0 0"/><path d="m256.007812 418.132812c-.472656.003907-.941406-.035156-1.40625-.117187-54.859374-9.140625-81.910156-62.082031-83.03125-64.332031-2.03125-4.199219-.3125-9.253906 3.863282-11.34375 4.171875-2.089844 9.246094-.441406 11.394531 3.703125.242187.464843 24.417969 47.445312 70.574219 55.140625 4.378906.730468 7.460937 4.695312 7.097656 9.117187s-4.054688 7.824219-8.492188 7.832031zm0 0"/><path d="m298.675781 435.199219c-3.675781.003906-6.9375-2.34375-8.101562-5.828125-1.164063-3.488282.03125-7.328125 2.972656-9.53125 21.460937-15.246094 46.597656-24.492188 72.824219-26.785156-2.074219-14.351563-9.703125-27.3125-21.242188-36.09375-3.871094-2.632813-4.898437-7.894532-2.300781-11.789063 2.597656-3.898437 7.847656-4.972656 11.769531-2.410156 18.515625 13.652343 29.433594 35.300781 29.402344 58.304687-.007812 4.703125-3.8125 8.515625-8.515625 8.535156-25.6875.96875-50.5625 9.257813-71.699219 23.890626-1.472656 1.109374-3.265625 1.710937-5.109375 1.707031zm0 0"/><path d="m213.324219 435.199219c-1.84375.003906-3.636719-.597657-5.109375-1.707031-21.109375-14.671876-45.992188-22.964844-71.679688-23.890626-4.714844 0-8.535156-3.820312-8.535156-8.535156-.027344-23.003906 10.886719-44.648437 29.398438-58.300781 3.914062-2.519531 9.121093-1.441406 11.710937 2.421875 2.589844 3.867188 1.609375 9.09375-2.210937 11.753906-11.574219 8.761719-19.222657 21.742188-21.273438 36.117188 26.226562 2.292968 51.367188 11.535156 72.828125 26.78125 2.941406 2.203125 4.136719 6.042968 2.972656 9.53125-1.160156 3.484375-4.425781 5.832031-8.101562 5.828125zm0 0"/><path d="m290.132812 469.332031h-8.53125c-4.714843 0-8.535156-3.820312-8.535156-8.53125 0-4.714843 3.820313-8.535156 8.535156-8.535156h8.53125c4.714844 0 8.535157 3.820313 8.535157 8.535156 0 4.710938-3.820313 8.53125-8.535157 8.53125zm0 0"/><path d="m153.601562 512c-4.714843 0-8.535156-3.820312-8.535156-8.535156v-68.265625c0-4.710938 3.820313-8.53125 8.535156-8.53125 4.710938 0 8.53125 3.820312 8.53125 8.53125v68.265625c0 4.714844-3.820312 8.535156-8.53125 8.535156zm0 0"/><path d="m119.464844 512c-4.710938 0-8.53125-3.820312-8.53125-8.535156v-42.664063c0-4.714843 3.820312-8.535156 8.53125-8.535156 4.714844 0 8.535156 3.820313 8.535156 8.535156v42.664063c0 4.714844-3.820312 8.535156-8.535156 8.535156zm0 0"/><path d="m358.398438 512c-4.710938 0-8.53125-3.820312-8.53125-8.535156v-68.265625c0-4.710938 3.820312-8.53125 8.53125-8.53125 4.714843 0 8.535156 3.820312 8.535156 8.53125v68.265625c0 4.714844-3.820313 8.535156-8.535156 8.535156zm0 0"/><path d="m392.535156 512c-4.714844 0-8.535156-3.820312-8.535156-8.535156v-42.664063c0-4.714843 3.820312-8.535156 8.535156-8.535156 4.710938 0 8.53125 3.820313 8.53125 8.535156v42.664063c0 4.714844-3.820312 8.535156-8.53125 8.535156zm0 0"/><path d="m388.667969 159.273438c-1.808594 0-3.613281-.191407-5.382813-.566407-41.949218-8.203125-84.546875-12.613281-127.285156-13.183593-42.734375.570312-85.332031 4.980468-127.273438 13.183593-6.71875 1.433594-13.730468.109375-19.46875-3.667969-5.660156-3.699218-9.59375-9.519531-10.917968-16.148437-1.921875-9.585937-3.230469-19.285156-3.914063-29.035156-1-12.597657 7.351563-24.039063 19.65625-26.925781 38.933594-8.644532 77.164063-20.195313 114.367188-34.558594 17.585937-7.566406 37.507812-7.566406 55.09375 0h.007812c37.203125 14.363281 75.433594 25.914062 114.367188 34.558594 12.308593 2.886718 20.660156 14.332031 19.65625 26.933593-.6875 9.75-1.992188 19.445313-3.914063 29.027344-1.324218 6.628906-5.257812 12.449219-10.917968 16.148437-4.175782 2.761719-9.070313 4.234376-14.074219 4.234376zm-132.667969-30.816407c43.925781.496094 87.714844 5.03125 130.808594 13.550781 2.257812.484376 4.617187.042969 6.550781-1.226562 1.847656-1.199219 3.132813-3.09375 3.566406-5.257812 1.777344-8.867188 2.992188-17.839844 3.632813-26.863282.367187-4.230468-2.402344-8.097656-6.523438-9.109375-39.949218-8.792969-79.152344-20.664062-117.269531-35.507812h.007813c-13.246094-5.785157-28.300782-5.785157-41.546876 0-38.113281 14.84375-77.316406 26.714843-117.261718 35.507812-4.117188 1.007813-6.886719 4.871094-6.523438 9.097657.640625 9.027343 1.855469 18.003906 3.632813 26.875.433593 2.164062 1.71875 4.058593 3.566406 5.257812 1.9375 1.265625 4.296875 1.707031 6.558594 1.226562 43.09375-8.519531 86.878906-13.054687 130.800781-13.550781zm0 0"/><path d="m359.941406 90.710938c-3.003906.003906-5.785156-1.574219-7.324218-4.152344l-34.21875-57.082032c-4.675782-7.660156-12.976563-12.355468-21.949219-12.410156h-80.898438c-8.988281.058594-17.304687 4.773438-21.972656 12.457032l-34.191406 57.035156c-1.515625 2.71875-4.390625 4.398437-7.503907 4.378906-3.113281-.019531-5.96875-1.730469-7.453124-4.464844-1.484376-2.734375-1.359376-6.0625.320312-8.679687l34.21875-57.085938c7.773438-12.785156 21.621094-20.6249998 36.582031-20.707031h80.898438c14.945312.078125 28.78125 7.894531 36.558593 20.660156l34.242188 57.132813c1.574219 2.632812 1.617188 5.910156.105469 8.585937-1.511719 2.671875-4.34375 4.324219-7.414063 4.328125zm0 0"/></svg>