<svg height="512pt" viewBox="0 0 512.00016 512" width="512pt" xmlns="http://www.w3.org/2000/svg"><path d="m409.601562 503.464844h93.867188l-.003906-7.59375c.015625-10.925782-1.300782-21.816406-3.921875-32.425782l-7.9375-32.171874c-9.203125-33.554688-40.046875-56.558594-74.835938-55.808594h-321.539062c-34.789063-.75-65.628907 22.253906-74.835938 55.808594l-7.9375 32.171874c-2.621093 10.609376-3.9375 21.5-3.921875 32.425782v7.59375zm0 0" fill="#c81e1e"/><path d="m187.734375 291.054688h136.53125v74.957031h-136.53125zm0 0" fill="#fec108"/><path d="m384 112.382812v135.082032c.011719 15.847656-6.277344 31.046875-17.484375 42.253906-11.203125 11.203125-26.402344 17.492188-42.25 17.480469h-136.53125c-15.847656.011719-31.046875-6.277344-42.25-17.480469-11.207031-11.207031-17.496094-26.40625-17.484375-42.253906v-135.167969" fill="#fec108"/><path d="m358.398438 112.382812v135.082032c0 33.027344-21.367188 59.734375-47.785157 59.734375h-109.226562c-26.417969 0-47.785157-26.707031-47.785157-59.734375v-135.167969" fill="#ffdc00"/><path d="m443.648438 179.199219-2.046876-.253907c-66.390624-8.960937-74.925781-42.667968-91.820312-68.011718-17.066406-25.601563-51.113281-34.132813-93.78125-34.132813s-76.800781 8.53125-93.867188 34.132813c-16.894531 25.34375-25.429687 59.050781-91.816406 68.011718l-2.050781.253907c-67.753906 8.449219-26.195313-50.261719 49.496094-59.476563h.082031l31.832031-77.996094c7.515625-19.96875 26.617188-33.191406 47.957031-33.191406h116.734376c21.339843 0 40.441406 13.222656 47.957031 33.191406l31.832031 77.996094h.082031c75.605469 9.214844 117.164063 67.925782 49.410157 59.476563zm0 0" fill="#6d4122"/><path d="m441.601562 178.945312c-31.28125-.929687-62.238281-6.597656-91.820312-16.8125-30.113281-10.792968-61.796875-16.558593-93.78125-17.066406-32.011719.503906-63.726562 6.269532-93.867188 17.066406-29.578124 10.214844-60.539062 15.882813-91.816406 16.8125 66.386719-8.960937 74.921875-42.667968 91.816406-68.011718 17.066407-25.601563 51.199219-34.132813 93.867188-34.132813s76.714844 8.53125 93.78125 34.132813c16.894531 25.34375 25.429688 59.050781 91.820312 68.011718zm0 0" fill="#91562d"/><path d="m435.199219 503.464844h-358.398438l28.925781-139.945313c2.945313-8.820312 11.558594-14.46875 20.824219-13.652343h258.898438c9.285156-.816407 17.921875 4.824218 20.90625 13.652343zm0 0" fill="#f44335"/><path d="m238.933594 349.867188h34.132812v153.597656h-34.132812zm0 0" fill="#c81e1e"/><path d="m230.398438 354.132812h17.066406v149.332032h-17.066406zm0 0" fill="#e57e25"/><path d="m264.535156 354.132812h17.066406v149.332032h-17.066406zm0 0" fill="#e57e25"/><path d="m256 349.867188-51.199219 51.199218-51.199219-51.199218zm0 0" fill="#c81e1e"/><path d="m358.398438 349.867188-51.199219 51.199218-51.199219-51.199218zm0 0" fill="#c81e1e"/><path d="m296.339844 260.265625c-6.894532 13.492187-28.414063 15.402344-40.167969 15.402344-11.78125 0-33.277344-1.910157-40.171875-15.402344 13.148438 3.238281 26.628906 4.929687 40.171875 5.035156 13.539063-.105469 27.023437-1.792969 40.167969-5.035156zm0 0"/><path d="m233.648438 171.425781c-8.109376-2.980469-16.625-4.707031-25.257813-5.121093-11.601563-.875-23.214844 1.601562-33.449219 7.132812 1.167969-14.933594 35.789063-17.882812 52.710938-14.042969 2.683594.332031 5.019531 1.988281 6.226562 4.40625 1.207032 2.417969 1.121094 5.28125-.230468 7.625zm0 0"/><path d="m278.351562 171.425781c8.109376-2.980469 16.625-4.707031 25.257813-5.121093 11.601563-.875 23.214844 1.601562 33.449219 7.132812-1.167969-14.933594-35.789063-17.882812-52.710938-14.042969-2.683594.332031-5.019531 1.988281-6.226562 4.40625-1.207032 2.417969-1.117188 5.28125.230468 7.625zm0 0"/><path d="m186.535156 185.5s2.429688 10.902344 11.828125 8.777344c9.402344-2.125 11.191407 1.957031 19.292969 1.300781 2.769531-.1875 5.554688-.015625 8.28125.507813 1.9375.449218 3.949219.484374 5.898438.09375 2.699218-.71875 2.464843-3.855469 1.519531-5.890626-3.746094-8.082031-14.292969-8.675781-22.007813-7.777343-3.273437.890625-6.601562 1.558593-9.960937 2.007812-3.519531-.972656-6.800781-2.660156-9.644531-4.957031.617187 2.191406.765624 4.488281.4375 6.742188-.976563 1.855468-5.644532-.804688-5.644532-.804688zm0 0"/><path d="m230.398438 202.078125c0-10.101563-7.640626-18.289063-17.066407-18.289063s-17.066406 8.1875-17.066406 18.289063c0 10.105469 7.640625 18.292969 17.066406 18.292969s17.066407-8.1875 17.066407-18.292969zm0 0"/><path d="m218.117188 186.207031c-4.402344-1.675781-9.332032.539063-11.007813 4.941407-1.675781 4.40625.535156 9.335937 4.941406 11.011718 4.40625 1.675782 9.335938-.539062 11.007813-4.945312 1.675781-4.402344-.535156-9.332032-4.941406-11.007813zm0 0" fill="#fff"/><path d="m325.460938 185.5s-2.429688 10.902344-11.832032 8.777344c-9.398437-2.125-11.191406 1.957031-19.289062 1.300781-2.773438-.1875-5.554688-.015625-8.285156.507813-1.933594.449218-3.945313.484374-5.894532.09375-2.699218-.71875-2.46875-3.855469-1.523437-5.890626 3.75-8.082031 14.296875-8.675781 22.011719-7.777343 3.273437.890625 6.597656 1.558593 9.960937 2.007812 3.519531-.972656 6.800781-2.660156 9.640625-4.957031-.613281 2.191406-.761719 4.488281-.433594 6.742188.980469 1.855468 5.644532-.804688 5.644532-.804688zm0 0"/><path d="m315.730469 202.078125c0-10.101563-7.640625-18.289063-17.066407-18.289063-9.425781 0-17.066406 8.1875-17.066406 18.289063 0 10.105469 7.640625 18.292969 17.066406 18.292969 9.425782 0 17.066407-8.1875 17.066407-18.292969zm0 0"/><path d="m304.886719 191.148438c-1.671875-4.402344-6.601563-6.617188-11.007813-4.941407s-6.617187 6.605469-4.941406 11.007813c1.675781 4.40625 6.605469 6.621094 11.007812 4.945312 4.40625-1.675781 6.617188-6.605468 4.941407-11.011718zm0 0" fill="#fff"/><path d="m435.199219 512h-358.398438c-2.566406 0-4.996093-1.152344-6.617187-3.144531-1.621094-1.988281-2.261719-4.601563-1.742188-7.113281l28.910156-139.929688c3.726563-12.839844 15.886719-21.359375 29.226563-20.480469h258.894531c13.359375-.875 25.527344 7.664063 29.238282 20.527344l28.84375 139.882813c.519531 2.511718-.121094 5.125-1.742188 7.113281-1.617188 1.988281-4.046875 3.144531-6.613281 3.144531zm-347.925781-17.066406h337.457031l-26.742188-129.667969c-2.265625-4.738281-7.304687-7.5-12.515625-6.867187h-258.894531c-5.199219-.632813-10.226563 2.113281-12.503906 6.828124zm0 0"/><path d="m324.265625 358.398438h-136.53125c-4.714844 0-8.535156-3.820313-8.535156-8.53125v-42.667969c0-4.710938 3.820312-8.53125 8.535156-8.53125h136.53125c4.714844 0 8.535156 3.820312 8.535156 8.53125v42.667969c0 4.710937-3.820312 8.53125-8.535156 8.53125zm-128-17.066407h119.46875v-25.597656h-119.46875zm0 0"/><path d="m324.265625 315.734375h-136.53125c-37.6875-.042969-68.222656-30.582031-68.269531-68.269531v-75.433594c0-4.710938 3.824218-8.53125 8.535156-8.53125 4.714844 0 8.535156 3.820312 8.535156 8.53125v75.433594c.027344 28.265625 22.933594 51.171875 51.199219 51.203125h136.53125c28.265625-.03125 51.171875-22.9375 51.199219-51.203125v-75.347656c0-4.710938 3.824218-8.53125 8.535156-8.53125 4.714844 0 8.535156 3.820312 8.535156 8.53125v75.347656c-.046875 37.6875-30.582031 68.226562-68.269531 68.269531zm0 0"/><path d="m102.398438 512h-93.863282c-4.714844 0-8.535156-3.820312-8.535156-8.535156v-7.59375c-.0117188-11.621094 1.390625-23.207032 4.175781-34.492188l7.9375-32.148437c10.019531-37.453125 44.359375-63.1875 83.117188-62.296875h8.023437c4.710938 0 8.53125 3.820312 8.53125 8.53125 0 4.714844-3.820312 8.535156-8.53125 8.535156h-8.023437c-30.898438-.875-58.386719 19.496094-66.550781 49.308594l-7.9375 32.171875c-2.378907 9.636719-3.613282 19.523437-3.671876 29.453125h85.328126c4.714843 0 8.535156 3.820312 8.535156 8.53125 0 4.714844-3.820313 8.535156-8.535156 8.535156zm0 0"/><path d="m503.464844 512h-93.863282c-4.714843 0-8.535156-3.820312-8.535156-8.535156 0-4.710938 3.820313-8.53125 8.535156-8.53125h85.332032c-.058594-9.921875-1.289063-19.800782-3.667969-29.433594l-7.9375-32.183594c-8.160156-29.820312-35.65625-50.191406-66.558594-49.316406h-7.9375c-4.710937 0-8.535156-3.820312-8.535156-8.535156 0-4.710938 3.824219-8.53125 8.535156-8.53125h7.9375c38.761719-.890625 73.105469 24.851562 83.125 62.308594l7.933594 32.15625c2.785156 11.28125 4.183594 22.855468 4.171875 34.472656v7.59375c0 4.714844-3.820312 8.535156-8.535156 8.535156zm0 0"/><path d="m401.070312 145.066406c-3.46875 0-6.589843-2.097656-7.902343-5.308594l-38.742188-94.773437c-6.25-16.722656-22.191406-27.835937-40.042969-27.917969h-116.765624c-17.769532.054688-33.660157 11.066406-39.949219 27.683594l-38.835938 95.007812c-1.132812 2.851563-3.707031 4.875-6.746093 5.300782-3.035157.425781-6.070313-.8125-7.941407-3.242188-1.871093-2.429687-2.296875-5.679687-1.109375-8.507812l38.738282-94.777344c8.847656-23.160156 31.050781-38.4804688 55.84375-38.53125h116.765624c24.878907.078125 47.128907 15.5 55.933594 38.765625l38.652344 94.542969c1.070312 2.628906.765625 5.625-.816406 7.980468-1.585938 2.359376-4.238282 3.777344-7.082032 3.777344zm0 0"/><path d="m204.800781 409.601562c-2.265625 0-4.4375-.898437-6.035156-2.5l-51.199219-51.203124c-3.234375-3.347657-3.1875-8.667969.105469-11.960938 3.289063-3.292969 8.613281-3.335938 11.960937-.105469l45.167969 45.167969 45.167969-45.167969c3.347656-3.230469 8.667969-3.1875 11.960938.105469 3.292968 3.292969 3.335937 8.613281.101562 11.960938l-51.199219 51.203124c-1.597656 1.601563-3.769531 2.5-6.03125 2.5zm0 0"/><path d="m307.199219 409.601562c-2.261719 0-4.433594-.898437-6.03125-2.5l-51.199219-51.203124c-3.234375-3.347657-3.1875-8.667969.101562-11.960938 3.292969-3.292969 8.613282-3.335938 11.960938-.105469l45.167969 45.167969 45.167969-45.167969c3.347656-3.230469 8.671874-3.1875 11.960937.105469 3.292969 3.292969 3.339844 8.613281.105469 11.960938l-51.199219 51.203124c-1.597656 1.601563-3.769531 2.5-6.035156 2.5zm0 0"/><path d="m273.066406 358.398438h-34.132812c-4.714844 0-8.535156-3.820313-8.535156-8.53125 0-4.714844 3.820312-8.535157 8.535156-8.535157h34.132812c4.714844 0 8.535156 3.820313 8.535156 8.535157 0 4.710937-3.820312 8.53125-8.535156 8.53125zm0 0"/><path d="m273.066406 512h-34.132812c-4.714844 0-8.535156-3.820312-8.535156-8.535156v-136.53125c0-4.714844 3.820312-8.535156 8.535156-8.535156 4.710937 0 8.53125 3.820312 8.53125 8.535156v128h17.070312v-128c0-4.714844 3.820313-8.535156 8.53125-8.535156 4.714844 0 8.535156 3.820312 8.535156 8.535156v136.53125c0 4.714844-3.820312 8.535156-8.535156 8.535156zm0 0"/><path d="m455.660156 188.550781c-4.371094-.023437-8.730468-.320312-13.0625-.882812-61.984375-7.75-79.007812-36.816407-92.683594-60.167969-2.375-4.058594-4.707031-8.042969-7.230468-11.832031-13.609375-20.410157-41.960938-30.335938-86.683594-30.335938-44.78125 0-73.15625 9.925781-86.765625 30.335938-2.527344 3.789062-4.855469 7.773437-7.230469 11.832031-13.679687 23.351562-30.699218 52.417969-92.679687 60.167969-20.402344 2.546875-33.9375-.417969-40.253907-8.777344-4.136718-5.789063-4.734374-13.390625-1.554687-19.757813 8.148437-19.191406 43.742187-42.339843 89.210937-47.871093 2.425782-.285157 4.855469.476562 6.6875 2.089843 1.835938 1.617188 2.894532 3.933594 2.917969 6.375.023438 4.46875-3.421875 8.1875-7.878906 8.507813-40.828125 5.066406-69.910156 25.042969-75.222656 37.570313-.660157 1.546874-.714844 2.574218-.539063 2.804687.996094 1.320313 7.328125 4.269531 24.519532 2.125 53.621093-6.699219 67.066406-29.65625 80.0625-51.855469 2.546874-4.351562 5.050781-8.621094 7.761718-12.675781 17.015625-25.527344 50.039063-37.9375 100.964844-37.9375 50.867188 0 83.867188 12.410156 100.882812 37.933594 2.707032 4.058593 5.214844 8.324219 7.757813 12.675781 13 22.199219 26.441406 45.160156 80.066406 51.859375 17.179688 2.132813 23.523438-.808594 24.523438-2.132813.167969-.226562.121093-1.25-.539063-2.808593-5.320312-12.546875-34.46875-32.566407-75.371094-37.585938-4.5-.476562-7.84375-4.382812-7.621093-8.902343.21875-4.519532 3.929687-8.082032 8.457031-8.117188h.082031c.347657.003906.691407.023438 1.035157.070312 45.421874 5.53125 80.988281 28.679688 89.128906 47.863282 3.183594 6.367187 2.582031 13.972656-1.558594 19.761718-7.042969 7.304688-17.109375 10.886719-27.183594 9.667969zm0 0"/><path d="m452.195312 187.734375c-2.503906 0-61.878906-.199219-105.570312-17.675781-29.128906-10.371094-59.75-15.929688-90.664062-16.457032-30.910157.53125-61.53125 6.089844-90.65625 16.457032-43.691407 17.476562-103.066407 17.675781-105.570313 17.675781-4.714844 0-8.535156-3.820313-8.535156-8.535156 0-4.710938 3.820312-8.53125 8.535156-8.53125.582031 0 58.632813-.21875 99.230469-16.460938 31.121094-11.210937 63.886718-17.1875 96.964844-17.671875h.128906c33.058594.460938 65.8125 6.4375 96.910156 17.671875 40.597656 16.242188 98.648438 16.460938 99.230469 16.460938 4.714843 0 8.535156 3.820312 8.535156 8.53125 0 4.714843-3.820313 8.535156-8.535156 8.535156zm0 0"/></svg>