<svg height="512pt" viewBox="0 0 512.00016 512" width="512pt" xmlns="http://www.w3.org/2000/svg"><path d="m494.933594 136.535156c0 17.066406-26.539063 42.664063-76.800782 59.730469h-324.265624c-50.261719-17.066406-76.800782-42.664063-76.800782-59.730469 0-10.667968 16.554688-17.921875 39.339844-17.835937h.085938c15.742187.257812 31.304687 3.410156 45.90625 9.300781 42.667968 17.066406 110.933593 17.066406 153.601562 17.066406s110.933594 0 153.601562-17.066406c14.601563-5.890625 30.164063-9.042969 45.90625-9.300781h.085938c22.785156-.085938 39.339844 7.167969 39.339844 17.835937zm0 0" fill="#6a1b9a"/><path d="m409.601562 128s8.53125 110.933594 25.597657 145.066406c17.066406 34.132813 17.066406 76.800782-42.664063 76.800782h-273.070312c-59.730469 0-59.730469-42.667969-42.664063-76.800782 17.066407-34.132812 25.597657-145.066406 25.597657-145.066406zm0 0" fill="#783e22"/><path d="m187.734375 281.601562h136.53125v93.863282h-136.53125zm0 0" fill="#a4c400"/><path d="m409.601562 503.464844h93.867188l-.003906-7.59375c.015625-10.925782-1.300782-21.816406-3.921875-32.425782l-7.9375-32.171874c-9.203125-33.554688-40.046875-56.558594-74.835938-55.808594h-321.539062c-34.789063-.75-65.628907 22.253906-74.835938 55.808594l-7.9375 32.171874c-2.621093 10.609376-3.9375 21.5-3.921875 32.425782v7.59375zm0 0" fill="#6a1b9a"/><path d="m401.066406 119.464844-47.386718-88c-7.101563-13.867188-21.273438-22.683594-36.851563-22.929688h-121.65625c-15.578125.246094-29.75 9.066406-36.855469 22.929688l-47.382812 88" fill="#9d27b0"/><path d="m341.589844 142.164062c.894531 23.371094 10.234375 45.625 26.28125 62.636719 0 0-11.605469 46.421875 8.277344 72.277344-10.601563 18.65625-30.421876 30.164063-51.882813 30.121094h-136.53125c-21.167969.042969-40.765625-11.167969-51.457031-29.4375 20.566406-25.6875 8.789062-72.960938 8.789062-72.960938 16.046875-16.980469 25.382813-39.207031 26.28125-62.550781zm0 0" fill="#a4c400"/><path d="m56.40625 118.699219c-3.414062.511719-5.207031.765625-5.207031.765625" fill="#7d6599"/><path d="m230.398438 349.867188v153.597656h-153.597657l28.925781-139.945313c1.667969-6.085937 6.503907-10.789062 12.628907-12.289062v-.082031c2.644531-.875 5.410156-1.308594 8.195312-1.28125 32.765625 17.066406 27.050781 68.265624 61.183594 59.734374 8.148437-2.160156 15.476563-6.671874 21.078125-12.972656 1.363281-1.535156 2.730469-3.070312 3.921875-4.691406 2.664063-3.511719 5.003906-7.253906 7-11.179688.765625-1.449218 1.449219-2.816406 2.132813-4.265624 1.839843-3.996094 3.433593-8.101563 4.777343-12.289063.257813-.769531.511719-1.535156.683594-2.21875.152344-.328125.265625-.671875.339844-1.023437.34375-1.023438.597656-2.050782.855469-2.988282.769531-2.667968 1.394531-5.371094 1.875-8.105468zm0 0" fill="#9d27b0"/><path d="m230.398438 349.867188v.171874c-.167969.765626-.679688 3.753907-1.875 7.933594-.257813.9375-.511719 1.964844-.855469 2.988282-.074219.351562-.1875.695312-.339844 1.023437-.171875.683594-.425781 1.449219-.683594 2.21875-1.34375 4.1875-2.9375 8.292969-4.777343 12.289063-.683594 1.363281-1.367188 2.816406-2.132813 4.265624-1.996094 3.925782-4.335937 7.667969-7 11.179688-1.191406 1.621094-2.558594 3.15625-3.921875 4.691406-5.601562 6.300782-12.929688 10.8125-21.078125 12.972656-34.132813 8.53125-28.417969-42.667968-61.183594-59.734374zm0 0" fill="#6a1b9a"/><path d="m435.199219 503.464844h-204.800781v-153.597656h51.203124s8.53125 51.199218 42.664063 59.734374c34.132813 8.53125 28.417969-42.667968 61.183594-59.734374 2.785156-.019532 5.550781.414062 8.195312 1.28125 6.15625 1.527343 11.015625 6.257812 12.710938 12.371093zm0 0" fill="#9d27b0"/><path d="m385.449219 349.867188c-32.765625 17.066406-27.050781 68.265624-61.183594 59.734374-34.132813-8.535156-42.664063-59.734374-42.664063-59.734374zm0 0" fill="#6a1b9a"/><path d="m460.800781 119.464844s-1.792969-.253906-5.207031-.765625" fill="#7d6599"/><path d="m455.507812 118.699219c-15.742187.257812-31.304687 3.410156-45.90625 9.300781-21.917968 7.804688-44.800781 12.570312-68.011718 14.164062-30.636719 2.902344-62.039063 2.902344-85.589844 2.902344-23.382812 0-54.355469 0-84.652344-2.816406-23.53125-1.523438-46.738281-6.320312-68.949218-14.25-14.601563-5.890625-30.164063-9.042969-45.90625-9.300781 66.136718-9.226563 132.75-14.667969 199.507812-16.300781 66.757812 1.632812 133.371094 7.074218 199.507812 16.300781zm0 0" fill="#9d27b0"/><path d="m299.734375 246.933594c-4.707031 14.523437-26.84375 21.65625-38.832031 23.757812-12.015625 2.101563-34.261719 4.058594-43.617188-8 13.980469.839844 28.011719.097656 41.828125-2.214844 14-3.003906 27.621094-7.546874 40.621094-13.542968zm0 0"/><path d="m232.042969 176.765625c-7.402344-4.457031-15.445313-7.761719-23.84375-9.792969-11.230469-3.054687-23.101563-2.816406-34.199219.6875 3.964844-14.445312 38.523438-10.808594 54.417969-3.839844 2.570312.832032 4.554687 2.898438 5.285156 5.5.726563 2.605469.105469 5.398438-1.660156 7.445313zm0 0"/><path d="m230.398438 193.546875c0-10.101563-7.640626-18.292969-17.066407-18.292969s-17.066406 8.191406-17.066406 18.292969 7.640625 18.292969 17.066406 18.292969 17.066407-8.191406 17.066407-18.292969zm0 0"/><path d="m218.117188 177.671875c-4.402344-1.671875-9.332032.539063-11.007813 4.945313-1.675781 4.402343.535156 9.332031 4.941406 11.007812s9.335938-.535156 11.011719-4.941406c1.671875-4.40625-.539062-9.335938-4.945312-11.011719zm0 0" fill="#fff"/><path d="m279.046875 178.558594c6.050781-7.972656 14.457031-13.828125 24.027344-16.746094 12.871093-3.429688 26.5625.917969 35.09375 11.144531-.132813-.128906.132812-2.847656.085937-3.273437-.140625-1.105469-.4375-2.183594-.886718-3.207032-1.003907-2.179687-2.480469-4.105468-4.320313-5.644531-4.582031-3.722656-10.035156-6.214843-15.84375-7.246093-7.722656-1.746094-15.773437-1.347657-23.28125 1.152343-4.523437 1.5625-8.683594 4.015625-12.238281 7.214844-3.136719 2.867187-7.777344 8.148437-5.761719 12.957031.933594 1.304688 1.976563 2.527344 3.125 3.648438zm0 0"/><path d="m315.734375 193.546875c0-10.101563-7.640625-18.292969-17.066406-18.292969s-17.066407 8.191406-17.066407 18.292969 7.640626 18.292969 17.066407 18.292969 17.066406-8.191406 17.066406-18.292969zm0 0"/><path d="m304.890625 182.617188c-1.675781-4.40625-6.601563-6.617188-11.007813-4.945313-4.40625 1.675781-6.617187 6.605469-4.941406 11.011719 1.675782 4.40625 6.601563 6.617187 11.007813 4.941406s6.617187-6.605469 4.941406-11.007812zm0 0" fill="#fff"/><path d="m435.199219 512h-358.398438c-2.566406 0-4.996093-1.152344-6.617187-3.144531-1.621094-1.988281-2.261719-4.601563-1.742188-7.113281l28.910156-139.929688c3.726563-12.839844 15.886719-21.359375 29.226563-20.480469h258.894531c13.359375-.875 25.527344 7.664063 29.238282 20.527344l28.84375 139.882813c.519531 2.511718-.121094 5.125-1.742188 7.113281-1.617188 1.988281-4.046875 3.144531-6.613281 3.144531zm-347.925781-17.066406h337.457031l-26.742188-129.667969c-2.265625-4.738281-7.304687-7.5-12.515625-6.867187h-258.894531c-5.199219-.632813-10.226563 2.113281-12.503906 6.828124zm0 0"/><path d="m324.265625 358.398438h-136.53125c-4.714844 0-8.535156-3.820313-8.535156-8.53125v-42.667969c0-4.710938 3.820312-8.53125 8.535156-8.53125h136.53125c4.714844 0 8.535156 3.820312 8.535156 8.53125v42.667969c0 4.710937-3.820312 8.53125-8.535156 8.53125zm-128-17.066407h119.46875v-25.597656h-119.46875zm0 0"/><path d="m324.265625 315.734375h-136.53125c-24.183594-.023437-46.554687-12.828125-58.820313-33.667969-2.382812-4.066406-1.011718-9.296875 3.054688-11.675781 4.070312-2.378906 9.296875-1.011719 11.675781 3.058594 9.195313 15.617187 25.964844 25.207031 44.089844 25.21875h136.53125c18.378906-.003907 35.347656-9.851563 44.46875-25.808594 2.375-3.992187 7.507813-5.351563 11.550781-3.054687 4.039063 2.296874 5.496094 7.402343 3.28125 11.488281-12.15625 21.285156-34.785156 34.429687-59.300781 34.441406zm0 0"/><path d="m102.398438 512h-93.863282c-4.714844 0-8.535156-3.820312-8.535156-8.535156v-7.59375c-.0117188-11.621094 1.390625-23.207032 4.175781-34.492188l7.9375-32.148437c10.019531-37.453125 44.359375-63.1875 83.117188-62.296875h8.023437c4.710938 0 8.53125 3.820312 8.53125 8.53125 0 4.714844-3.820312 8.535156-8.53125 8.535156h-8.023437c-30.898438-.875-58.386719 19.496094-66.550781 49.308594l-7.9375 32.171875c-2.378907 9.636719-3.613282 19.523437-3.671876 29.453125h85.328126c4.714843 0 8.535156 3.820312 8.535156 8.53125 0 4.714844-3.820313 8.535156-8.535156 8.535156zm0 0"/><path d="m503.464844 512h-93.863282c-4.714843 0-8.535156-3.820312-8.535156-8.535156 0-4.710938 3.820313-8.53125 8.535156-8.53125h85.332032c-.058594-9.921875-1.289063-19.800782-3.667969-29.433594l-7.9375-32.183594c-8.160156-29.820312-35.65625-50.191406-66.558594-49.316406h-7.9375c-4.710937 0-8.535156-3.820312-8.535156-8.535156 0-4.710938 3.824219-8.53125 8.535156-8.53125h7.9375c38.761719-.890625 73.105469 24.851562 83.125 62.308594l7.933594 32.15625c2.785156 11.28125 4.183594 22.855468 4.171875 34.472656v7.59375c0 4.714844-3.820312 8.535156-8.535156 8.535156zm0 0"/><path d="m119.472656 298.667969c-4.085937 0-7.597656-2.894531-8.375-6.902344-.78125-4.007813 1.382813-8.007813 5.167969-9.539063 5.234375-2.050781 9.835937-5.429687 13.355469-9.808593 14.695312-18.359375 10.15625-53.542969 7.164062-65.558594-.726562-2.90625.128906-5.976563 2.246094-8.09375 14.554688-15.535156 23.011719-35.808594 23.808594-57.082031.371094-4.671875 4.398437-8.199219 9.078125-7.949219 4.703125.3125 8.257812 4.378906 7.945312 9.082031-1.042969 23.78125-10.027343 46.523438-25.515625 64.597656 2.554688 13.339844 7.71875 51.792969-11.402344 75.675782-5.351562 6.652344-12.335937 11.804687-20.277343 14.949218-1.015625.414063-2.101563.628907-3.195313.628907zm0 0"/><path d="m119.464844 358.398438c-26.519532 0-44.789063-7.804688-54.308594-23.214844-10.171875-16.457032-8.710938-40.492188 4.007812-65.933594 16.132813-32.265625 24.644532-140.808594 24.726563-141.910156.363281-4.699219 4.464844-8.214844 9.164063-7.851563 4.699218.363281 8.214843 4.46875 7.851562 9.167969-.351562 4.59375-8.863281 113-26.476562 148.222656-9.867188 19.742188-11.648438 38.183594-4.761719 49.335938 6.207031 10.035156 19.59375 15.117187 39.796875 15.117187 4.714844 0 8.535156 3.820313 8.535156 8.535157 0 4.710937-3.820312 8.53125-8.535156 8.53125zm0 0"/><path d="m393.46875 298.667969c-1.078125 0-2.144531-.203125-3.148438-.597657-8.300781-3.246093-15.550781-8.714843-20.949218-15.808593-18.410156-23.933594-13.3125-61.652344-10.785156-74.851563-15.496094-18.097656-24.480469-40.867187-25.511719-64.675781-.152344-2.257813.601562-4.480469 2.089843-6.1875 1.492188-1.703125 3.597657-2.742187 5.855469-2.894531 4.683594-.257813 8.71875 3.273437 9.078125 7.949218.789063 21.304688 9.242188 41.601563 23.808594 57.167969 2.117188 2.117188 2.96875 5.1875 2.246094 8.089844-.105469.429687-10.335938 42.785156 6.761718 65.019531 3.535157 4.632813 8.277344 8.207032 13.707032 10.324219 3.816406 1.507813 6.019531 5.515625 5.246094 9.542969-.773438 4.027344-4.300782 6.9375-8.402344 6.925781zm0 0"/><path d="m392.535156 358.398438c-4.714844 0-8.535156-3.820313-8.535156-8.53125 0-4.714844 3.820312-8.535157 8.535156-8.535157 20.203125 0 33.589844-5.082031 39.792969-15.117187 6.886719-11.148438 5.109375-29.589844-4.761719-49.332032-17.613281-35.226562-26.121094-143.632812-26.476562-148.222656-.363282-4.699218 3.152344-8.804687 7.851562-9.167968 4.699219-.363282 8.804688 3.152343 9.167969 7.851562.085937 1.101562 8.597656 109.652344 24.722656 141.910156 12.722657 25.441406 14.183594 49.476563 4.011719 65.933594-9.519531 15.40625-27.789062 23.210938-54.308594 23.210938zm0 0"/><path d="m418.132812 204.800781c-4.179687.003907-7.75-3.019531-8.429687-7.144531-.683594-4.121094 1.722656-8.132812 5.683594-9.472656 48.980469-16.632813 71.011719-40.214844 71.011719-51.648438 0-.917968-1.070313-2.183594-2.863282-3.402344-9.558594-6.472656-38.65625-10.058593-70.765625 2.792969-44.195312 17.675781-111.941406 17.675781-156.769531 17.675781-4.710938 0-8.535156-3.820312-8.535156-8.535156 0-4.710937 3.824218-8.53125 8.535156-8.53125 40.875 0 109.292969 0 150.429688-16.460937 36.4375-14.574219 71.167968-11.566407 86.671874-1.074219 6.207032 3.703125 10.113282 10.308594 10.363282 17.535156 0 23.78125-33.191406 51.027344-82.585938 67.816406-.882812.296876-1.8125.449219-2.746094.449219zm0 0"/><path d="m93.867188 204.800781c-.933594 0-1.863282-.152343-2.746094-.449219-49.394532-16.785156-82.585938-44.035156-82.585938-67.816406.25-7.226562 4.15625-13.832031 10.363282-17.535156 15.503906-10.484375 50.246093-13.5 86.671874 1.074219 41.136719 16.460937 109.554688 16.460937 150.429688 16.460937 4.714844 0 8.535156 3.820313 8.535156 8.53125 0 4.714844-3.820312 8.535156-8.535156 8.535156-44.828125 0-112.574219 0-156.769531-17.675781-32.109375-12.84375-61.210938-9.25-70.765625-2.792969-1.792969 1.21875-2.863282 2.484376-2.863282 3.402344 0 11.433594 22.03125 35.015625 71.011719 51.648438 3.960938 1.339844 6.367188 5.351562 5.683594 9.472656-.679687 4.125-4.25 7.148438-8.429687 7.144531zm0 0"/><path d="m51.1875 128c-4.476562-.003906-8.1875-3.46875-8.503906-7.933594-.3125-4.464844 2.875-8.417968 7.308594-9.046875 1.207031-.171875 121.050781-17.152343 206.007812-17.152343s204.804688 16.980468 206.007812 17.152343c4.667969.667969 7.90625 4.988281 7.242188 9.65625-.667969 4.664063-4.992188 7.90625-9.660156 7.238281-1.1875-.171874-119.855469-16.980468-203.589844-16.980468-83.757812 0-202.402344 16.808594-203.589844 16.980468-.40625.058594-.8125.085938-1.222656.085938zm0 0"/><path d="m401.074219 119.464844c-3.035157.003906-5.847657-1.605469-7.378907-4.230469l-47.382812-81.234375c-6.136719-10.46875-17.355469-16.90625-29.488281-16.933594h-121.648438c-12.132812.027344-23.351562 6.464844-29.488281 16.933594l-47.382812 81.238281c-2.375 4.070313-7.601563 5.445313-11.671876 3.070313-4.070312-2.375-5.445312-7.601563-3.070312-11.671875l47.382812-81.234375c9.207032-15.703125 26.027344-25.3671878 44.230469-25.402344h121.648438c18.203125.0351562 35.023437 9.699219 44.230469 25.402344l47.382812 81.234375c1.539062 2.636719 1.554688 5.898437.03125 8.546875-1.519531 2.648437-4.339844 4.28125-7.394531 4.28125zm0 0"/><path d="m221.875 76.800781c-3.960938.003907-7.402344-2.714843-8.3125-6.570312-.914062-3.851563.945312-7.828125 4.488281-9.597657l51.199219-25.597656c4.214844-2.109375 9.339844-.402344 11.449219 3.816406 2.109375 4.214844.398437 9.339844-3.816407 11.449219l-51.199218 25.597657c-1.183594.589843-2.488282.898437-3.808594.902343zm0 0"/><path d="m298.675781 76.800781c-3.960937.003907-7.402343-2.714843-8.316406-6.570312-.910156-3.851563.949219-7.828125 4.492187-9.597657l17.066407-8.53125c4.214843-2.109374 9.339843-.402343 11.449219 3.816407 2.105468 4.214843.398437 9.339843-3.816407 11.449219l-17.066406 8.53125c-1.183594.589843-2.488281.898437-3.808594.902343zm0 0"/><path d="m324.265625 256c-4.710937 0-8.53125-3.820312-8.53125-8.535156v-8.53125c0-4.714844 3.820313-8.535156 8.53125-8.535156 4.714844 0 8.535156 3.820312 8.535156 8.535156v8.53125c0 4.714844-3.820312 8.535156-8.535156 8.535156zm0 0" fill="#549414"/><path d="m180.449219 419.117188c-18.867188 0-27.066407-16.882813-33.832031-30.804688-5.875-12.09375-11.953126-24.601562-23.980469-30.875-2.703125-1.410156-4.449219-4.15625-4.578125-7.203125-.132813-3.046875 1.371094-5.929687 3.945312-7.566406 2.570313-1.636719 5.820313-1.773438 8.527344-.363281 17.023438 8.882812 25.019531 25.332031 31.441406 38.539062 8.644532 17.792969 12.371094 23.296875 23.695313 20.480469 28.242187-7.066407 36.246093-52.417969 36.320312-52.875.503907-3.007813 2.570313-5.515625 5.425781-6.585938 2.855469-1.066406 6.066407-.53125 8.417969 1.410157 2.351563 1.9375 3.492188 4.984374 2.988281 7.992187-.382812 2.316406-9.902343 56.832031-49.011718 66.609375-3.054688.796875-6.199219 1.214844-9.359375 1.242188zm0 0"/><path d="m331.550781 419.117188c-3.15625-.027344-6.300781-.445313-9.355469-1.242188-39.109374-9.773438-48.628906-64.292969-49.011718-66.609375-.777344-4.648437 2.359375-9.046875 7.007812-9.824219 4.648438-.777344 9.046875 2.363282 9.824219 7.007813.074219.460937 8.074219 45.808593 36.320313 52.875 11.300781 2.808593 15.054687-2.683594 23.695312-20.476563 6.421875-13.210937 14.421875-29.660156 31.445312-38.542968 2.703126-1.410157 5.953126-1.269532 8.523438.367187 2.574219 1.636719 4.078125 4.519531 3.945312 7.566406-.128906 3.042969-1.875 5.789063-4.578124 7.199219-12.03125 6.277344-18.109376 18.785156-23.984376 30.875-6.765624 13.921875-14.96875 30.804688-33.832031 30.804688zm0 0"/><path d="m230.398438 512c-4.710938 0-8.53125-3.820312-8.53125-8.535156v-153.597656c0-4.714844 3.820312-8.535157 8.53125-8.535157 4.714843 0 8.535156 3.820313 8.535156 8.535157v153.597656c0 4.714844-3.820313 8.535156-8.535156 8.535156zm0 0"/><path d="m273.066406 512c-4.710937 0-8.53125-3.820312-8.53125-8.535156v-85.332032c0-4.710937 3.820313-8.53125 8.53125-8.53125 4.714844 0 8.535156 3.820313 8.535156 8.53125v85.332032c0 4.714844-3.820312 8.535156-8.535156 8.535156zm0 0"/></svg>