<svg height="512pt" viewBox="0 0 512.00016 512" width="512pt" xmlns="http://www.w3.org/2000/svg"><path d="m187.734375 290.128906h136.53125v76.800782h-136.53125zm0 0" fill="#00838f"/><path d="m409.601562 503.460938h93.867188l-.003906-7.59375c.015625-10.929688-1.300782-21.816407-3.921875-32.425782l-7.9375-32.171875c-9.203125-33.554687-40.046875-56.558593-74.835938-55.808593h-321.539062c-34.789063-.75-65.628907 22.253906-74.835938 55.808593l-7.9375 32.171875c-2.621093 10.609375-3.9375 21.496094-3.921875 32.425782v7.59375zm0 0" fill="#3f51b5"/><path d="m435.199219 503.460938h-358.398438l28.925781-139.945313c2.945313-8.820313 11.558594-14.46875 20.824219-13.652344h258.898438c9.285156-.816406 17.921875 4.824219 20.90625 13.652344zm0 0" fill="#4527a0"/><path d="m162.132812 349.863281h187.734376l-76.800782 59.734375-17.066406 34.132813-17.066406-34.132813zm0 0" fill="#00bcd4"/><path d="m166.230469 74.832031c12.125-39.410156 48.535156-66.304687 89.769531-66.304687s77.644531 26.894531 89.769531 66.304687" fill="#4527a0"/><path d="m384 247.460938s17.066406-34.132813 17.066406-93.863282c0-59.734375-51.199218-93.878906-145.066406-93.878906s-145.066406 34.144531-145.066406 93.878906c0 59.730469 17.066406 93.863282 17.066406 93.863282zm0 0" fill="#4527a0"/><path d="m384 238.929688v8.53125c.011719 15.847656-6.277344 31.046874-17.484375 42.253906-11.203125 11.203125-26.402344 17.492187-42.25 17.480468h-136.53125c-15.847656.011719-31.046875-6.277343-42.25-17.480468-11.207031-11.207032-17.496094-26.40625-17.484375-42.253906v-34.132813c0-34.132813 34.132812-76.800781 76.800781-68.265625 42.664063 8.535156 102.398438-25.601562 102.398438-25.601562 1.261719 17.484374 10.769531 33.324218 25.601562 42.667968 25.597657 17.066406 51.199219 51.199219 51.199219 76.800782zm0 0" fill="#00838f"/><path d="m358.398438 238.929688v8.53125c0 33.027343-21.367188 59.734374-47.785157 59.734374h-109.226562c-26.417969 0-47.785157-26.707031-47.785157-59.734374v-34.132813c0-34.132813 27.304688-76.800781 61.4375-68.265625 34.132813 8.535156 81.921876-25.601562 81.921876-25.601562.714843 16.421874 8.113281 31.835937 20.480468 42.667968 20.480469 17.066406 40.957032 51.199219 40.957032 76.800782zm0 0" fill="#00bcd4"/><path d="m238.933594 281.597656c-4.714844 0-8.535156-3.824218-8.535156-8.535156v-17.066406c0-4.714844 3.820312-8.535156 8.535156-8.535156 4.710937 0 8.53125 3.820312 8.53125 8.535156v17.066406c0 4.710938-3.820313 8.535156-8.53125 8.535156zm0 0" fill="#f44335"/><path d="m273.066406 281.597656c-4.710937 0-8.53125-3.824218-8.53125-8.535156v-17.066406c0-4.714844 3.820313-8.535156 8.53125-8.535156 4.714844 0 8.535156 3.820312 8.535156 8.535156v17.066406c0 4.710938-3.820312 8.535156-8.535156 8.535156zm0 0" fill="#f44335"/><path d="m256 264.527344c-35.261719 0-42.667969-9.28125-42.667969-17.066406.003907-4.011719 2.804688-7.484376 6.726563-8.332032 3.921875-.851562 7.910156 1.148438 9.574218 4.800782 8.417969 3.125 17.425782 4.332031 26.367188 3.53125 8.941406.800781 17.949219-.40625 26.367188-3.53125 1.664062-3.652344 5.652343-5.652344 9.574218-4.800782 3.921875.847656 6.722656 4.320313 6.726563 8.332032 0 7.785156-7.40625 17.066406-42.667969 17.066406zm0 0"/><path d="m233.648438 167.15625c-8.109376-2.984375-16.625-4.710938-25.257813-5.121094-11.601563-.878906-23.214844 1.597656-33.449219 7.132813 1.167969-14.933594 35.789063-17.886719 52.710938-14.046875 2.683594.335937 5.019531 1.988281 6.226562 4.410156 1.207032 2.417969 1.121094 5.28125-.230468 7.625zm0 0"/><path d="m278.351562 167.15625c8.109376-2.984375 16.625-4.710938 25.257813-5.121094 11.601563-.878906 23.214844 1.597656 33.449219 7.132813-1.167969-14.933594-35.789063-17.886719-52.710938-14.046875-2.683594.335937-5.019531 1.988281-6.226562 4.410156-1.207032 2.417969-1.117188 5.28125.230468 7.625zm0 0"/><path d="m186.535156 181.226562s2.429688 10.90625 11.828125 8.777344c9.402344-2.125 11.191407 1.957032 19.292969 1.304688 2.769531-.1875 5.554688-.019532 8.28125.507812 1.9375.449219 3.949219.480469 5.898438.09375 2.699218-.722656 2.464843-3.855468 1.519531-5.894531-3.746094-8.082031-14.292969-8.671875-22.007813-7.773437-3.273437.886718-6.601562 1.558593-9.960937 2.007812-3.519531-.976562-6.800781-2.664062-9.644531-4.957031.617187 2.191406.765624 4.488281.4375 6.742187-.976563 1.855469-5.644532-.808594-5.644532-.808594zm0 0"/><path d="m230.398438 197.808594c0-10.101563-7.640626-18.292969-17.066407-18.292969s-17.066406 8.191406-17.066406 18.292969c0 10.101562 7.640625 18.292968 17.066406 18.292968s17.066407-8.191406 17.066407-18.292968zm0 0"/><path d="m218.117188 181.9375c-4.40625-1.675781-9.332032.535156-11.007813 4.941406s.535156 9.332032 4.941406 11.007813 9.332031-.535157 11.007813-4.941407c1.675781-4.40625-.535156-9.332031-4.941406-11.007812zm0 0" fill="#fff"/><path d="m325.460938 181.226562s-2.429688 10.90625-11.832032 8.777344c-9.398437-2.125-11.191406 1.957032-19.289062 1.304688-2.773438-.1875-5.554688-.019532-8.285156.507812-1.933594.449219-3.945313.480469-5.894532.09375-2.699218-.722656-2.46875-3.855468-1.523437-5.894531 3.75-8.082031 14.296875-8.671875 22.011719-7.773437 3.273437.886718 6.597656 1.558593 9.960937 2.007812 3.519531-.976562 6.800781-2.664062 9.640625-4.957031-.613281 2.191406-.761719 4.488281-.433594 6.742187.980469 1.855469 5.644532-.808594 5.644532-.808594zm0 0"/><path d="m315.730469 197.808594c0-10.101563-7.640625-18.292969-17.066407-18.292969-9.425781 0-17.066406 8.191406-17.066406 18.292969 0 10.101562 7.640625 18.292968 17.066406 18.292968 9.425782 0 17.066407-8.191406 17.066407-18.292968zm0 0"/><path d="m304.890625 186.878906c-1.675781-4.40625-6.605469-6.617187-11.011719-4.941406-4.40625 1.671875-6.617187 6.601562-4.941406 11.007812s6.605469 6.617188 11.007812 4.941407c4.40625-1.675781 6.621094-6.605469 4.945313-11.007813zm0 0" fill="#fff"/><path d="m435.199219 511.996094h-358.398438c-2.566406 0-4.996093-1.152344-6.617187-3.144532-1.621094-1.988281-2.261719-4.601562-1.742188-7.113281l28.910156-139.929687c3.726563-12.839844 15.886719-21.359375 29.226563-20.480469h258.894531c13.359375-.878906 25.527344 7.664063 29.238282 20.527344l28.84375 139.882812c.519531 2.511719-.121094 5.125-1.742188 7.113281-1.617188 1.988282-4.046875 3.144532-6.613281 3.144532zm-347.925781-17.066406h337.457031l-26.742188-129.667969c-2.265625-4.738281-7.304687-7.5-12.515625-6.867188h-258.894531c-5.199219-.632812-10.226563 2.113281-12.503906 6.828125zm0 0"/><path d="m324.265625 358.394531h-136.53125c-4.714844 0-8.535156-3.820312-8.535156-8.53125v-42.667969c0-4.710937 3.820312-8.53125 8.535156-8.53125h136.53125c4.714844 0 8.535156 3.820313 8.535156 8.53125v42.667969c0 4.710938-3.820312 8.53125-8.535156 8.53125zm-128-17.066406h119.46875v-25.597656h-119.46875zm0 0"/><path d="m184.40625 76.964844h-.085938c-4.703124-.023438-8.503906-3.847656-8.492187-8.554688.011719-4.703125 3.832031-8.511718 8.535156-8.511718s8.519531 3.808593 8.53125 8.511718c.011719 4.707032-3.785156 8.53125-8.488281 8.554688zm0 0"/><path d="m367.703125 95.65625c-3.082031.027344-5.941406-1.585938-7.507813-4.238281-1.566406-2.648438-1.597656-5.9375-.085937-8.617188 1.511719-2.683593 4.34375-4.351562 7.421875-4.382812 4.78125.0625 8.640625 3.921875 8.703125 8.703125 0 4.710937-3.820313 8.535156-8.53125 8.535156zm0 0"/><path d="m324.265625 315.730469h-136.53125c-37.6875-.042969-68.222656-30.582031-68.269531-68.269531v-34.132813c1-24.039063 12.273437-46.496094 30.960937-61.65625 15.421875-13.277344 36.058594-18.792969 56.050781-14.972656 39.011719 7.785156 95.921876-24.320313 96.496094-24.640625 2.636719-1.507813 5.878906-1.496094 8.507813.03125 2.632812 1.523437 4.25 4.332031 4.253906 7.371094 1.242187 14.632812 9.324219 27.820312 21.800781 35.570312 27.035156 18.019531 55 54.332031 55 83.898438v8.53125c-.046875 37.6875-30.582031 68.226562-68.269531 68.269531zm-130.574219-163.25c-11.925781.234375-23.394531 4.613281-32.445312 12.378906-14.703125 11.949219-23.675782 29.550781-24.710938 48.46875v34.132813c.027344 28.265624 22.933594 51.171874 51.199219 51.203124h136.53125c28.265625-.03125 51.171875-22.9375 51.199219-51.203124v-8.53125c0-22.792969-24.507813-54.441407-47.398438-69.699219-13.246094-8.5625-22.9375-21.636719-27.285156-36.796875-19.785156 9.691406-63.117188 27.902344-97.65625 21-3.105469-.625-6.265625-.945313-9.433594-.953125zm0 0"/><path d="m327.679688 76.964844h-.085938c-4.703125-.023438-8.5-3.847656-8.488281-8.554688.011719-4.703125 3.828125-8.511718 8.53125-8.511718 4.707031 0 8.523437 3.808593 8.535156 8.511718.011719 4.707032-3.789063 8.53125-8.492187 8.554688zm0 0"/><path d="m144.296875 95.65625c-4.710937 0-8.53125-3.824219-8.53125-8.535156.0625-4.78125 3.921875-8.640625 8.703125-8.703125 4.761719.046875 8.582031 3.941406 8.535156 8.703125-.046875 4.761718-3.945312 8.582031-8.707031 8.535156zm0 0"/><path d="m102.398438 511.996094h-93.863282c-4.714844 0-8.535156-3.820313-8.535156-8.535156v-7.59375c-.0117188-11.625 1.390625-23.207032 4.175781-34.492188l7.9375-32.148438c10.019531-37.453124 44.359375-63.191406 83.117188-62.296874h8.023437c4.710938 0 8.53125 3.820312 8.53125 8.53125 0 4.714843-3.820312 8.535156-8.53125 8.535156h-8.023437c-30.898438-.875-58.386719 19.492187-66.550781 49.308594l-7.9375 32.167968c-2.378907 9.640625-3.613282 19.527344-3.671876 29.457032h85.328126c4.714843 0 8.535156 3.820312 8.535156 8.53125 0 4.714843-3.820313 8.535156-8.535156 8.535156zm0 0"/><path d="m503.464844 511.996094h-93.863282c-4.714843 0-8.535156-3.820313-8.535156-8.535156 0-4.710938 3.820313-8.53125 8.535156-8.53125h85.332032c-.058594-9.921876-1.289063-19.800782-3.667969-29.433594l-7.9375-32.183594c-8.160156-29.820312-35.65625-50.191406-66.558594-49.316406h-7.9375c-4.710937 0-8.535156-3.820313-8.535156-8.535156 0-4.710938 3.824219-8.53125 8.535156-8.53125h7.9375c38.761719-.890626 73.105469 24.851562 83.125 62.308593l7.933594 32.15625c2.785156 11.28125 4.183594 22.855469 4.171875 34.472657v7.59375c0 4.714843-3.820312 8.535156-8.535156 8.535156zm0 0"/><path d="m383.992188 255.996094c-2.953126-.003906-5.695313-1.53125-7.25-4.042969-1.554688-2.511719-1.699219-5.648437-.382813-8.289063 11.59375-28.574218 17.105469-59.246093 16.175781-90.066406 0-74.261718-85.542968-85.34375-136.535156-85.34375s-136.535156 11.082032-136.535156 85.34375c0 57.054688 16.007812 89.722656 16.167968 90.046875 1.363282 2.726563 1.167969 5.976563-.511718 8.519531-1.679688 2.542969-4.589844 4-7.632813 3.816407-3.042969-.183594-5.757812-1.972657-7.121093-4.699219-.730469-1.46875-17.96875-36.636719-17.96875-97.683594 0-65.085937 55.984374-102.410156 153.601562-102.410156s153.601562 37.324219 153.601562 102.410156c0 61.046875-17.238281 96.214844-17.96875 97.683594-1.445312 2.890625-4.40625 4.71875-7.640624 4.714844zm0 0"/><path d="m345.769531 83.367188c-3.746093-.003907-7.054687-2.449219-8.152343-6.035157-11.027344-35.820312-44.128907-60.265625-81.613282-60.265625-37.480468 0-70.582031 24.445313-81.613281 60.265625-1.421875 4.453125-6.160156 6.929688-10.625 5.5625-4.46875-1.371093-7.003906-6.078125-5.691406-10.5625 13.226562-42.992187 52.949219-72.332031 97.929687-72.332031 44.984375 0 84.703125 29.339844 97.929688 72.332031 1.378906 4.507813-1.152344 9.277344-5.660156 10.660157-.808594.25-1.652344.375-2.503907.375zm0 0"/><path d="m256 452.261719c-3.230469 0-6.1875-1.824219-7.632812-4.714844l-16.199219-32.40625-75.273438-58.546875c-2.488281-1.84375-3.785156-4.890625-3.382812-7.960938.398437-3.074218 2.433593-5.6875 5.308593-6.828124 2.878907-1.144532 6.152344-.640626 8.550782 1.320312l76.800781 59.734375c1.007813.78125 1.824219 1.777344 2.394531 2.914063l9.433594 18.871093 9.433594-18.867187c.570312-1.136719 1.386718-2.132813 2.394531-2.914063l76.800781-59.734375c2.398438-1.960937 5.671875-2.464844 8.550782-1.320312 2.875 1.140625 4.910156 3.753906 5.308593 6.828125.402344 3.070312-.894531 6.117187-3.382812 7.960937l-75.273438 58.542969-16.199219 32.402344c-1.445312 2.890625-4.398437 4.71875-7.632812 4.71875zm0 0"/><path d="m136.535156 469.3125c-1.132812 0-2.25-.226562-3.292968-.667969-3.167969-1.320312-5.234376-4.414062-5.242188-7.847656v-110.933594c0-4.714843 3.820312-8.535156 8.535156-8.535156 4.710938 0 8.53125 3.820313 8.53125 8.535156v94.722657c13.105469-6.695313 28.207032-8.371094 42.464844-4.714844.761719-8.203125 3.898438-16.007813 9.027344-22.457032 8.890625-10.851562 23.148437-16.351562 42.375-16.351562 4.710937 0 8.53125 3.820312 8.53125 8.535156 0 4.710938-3.820313 8.53125-8.53125 8.53125-10.703125-1.152344-21.367188 2.515625-29.097656 10.007813-4.621094 6.527343-6.488282 14.609375-5.1875 22.5.597656 3.1875-.652344 6.441406-3.238282 8.402343-2.582031 1.960938-6.050781 2.292969-8.957031.855469-16.453125-8.367187-36.382813-5.585937-49.914063 6.96875-1.605468 1.566407-3.761718 2.445313-6.003906 2.449219zm0 0"/><path d="m375.464844 469.328125c-2.261719 0-4.433594-.898437-6.03125-2.5-13.535156-12.53125-33.445313-15.296875-49.882813-6.933594-2.914062 1.457031-6.40625 1.125-8.992187-.855469-2.589844-1.976562-3.828125-5.257812-3.1875-8.453124 1.28125-7.875-.585938-15.9375-5.199219-22.449219-7.734375-7.492188-18.398437-11.160157-29.105469-10.007813-4.710937 0-8.53125-3.820312-8.53125-8.53125 0-4.714844 3.820313-8.535156 8.53125-8.535156 19.226563 0 33.484375 5.5 42.375 16.351562 5.128906 6.449219 8.265625 14.253907 9.027344 22.457032 14.257812-3.65625 29.359375-1.980469 42.464844 4.714844v-94.722657c0-4.714843 3.820312-8.535156 8.53125-8.535156 4.714844 0 8.535156 3.820313 8.535156 8.535156v110.933594c0 4.710937-3.820312 8.53125-8.535156 8.53125zm0 0"/><path d="m196.273438 460.796875c-3.234376.003906-6.191407-1.824219-7.640626-4.71875l-17.066406-34.132813c-2.109375-4.214843-.398437-9.339843 3.816406-11.449218 4.214844-2.109375 9.34375-.398438 11.449219 3.816406l17.066407 34.132812c1.324218 2.644532 1.183593 5.785157-.371094 8.300782-1.550782 2.515625-4.296875 4.046875-7.253906 4.050781zm0 0"/><path d="m315.726562 460.796875c-2.957031-.003906-5.703124-1.535156-7.253906-4.050781-1.554687-2.515625-1.695312-5.65625-.371094-8.300782l17.066407-34.132812c1.363281-2.726562 4.078125-4.519531 7.121093-4.703125 3.042969-.183594 5.953126 1.273437 7.632813 3.816406 1.679687 2.546875 1.875 5.792969.511719 8.519531l-17.066406 34.132813c-1.449219 2.894531-4.40625 4.722656-7.640626 4.71875zm0 0"/></svg>