<svg height="512pt" viewBox="0 0 512.00007 512" width="512pt" xmlns="http://www.w3.org/2000/svg"><path d="m409.601562 503.464844h93.867188l-.003906-7.59375c.015625-10.925782-1.300782-21.816406-3.921875-32.425782l-7.9375-32.171874c-9.203125-33.554688-40.046875-56.558594-74.835938-55.808594h-321.539062c-34.789063-.75-65.632813 22.253906-74.835938 55.808594l-7.9375 32.171874c-2.621093 10.609376-3.9375 21.5-3.921875 32.425782v7.59375zm0 0" fill="#c81e1e"/><path d="m328.105469 68.265625c-7.59375-23.785156-26.539063-59.730469-72.105469-59.730469s-64.511719 35.945313-72.105469 59.730469zm0 0" fill="#a0522d"/><path d="m384 213.332031s25.601562-8.53125 25.601562-34.132812c0-16.011719-10.019531-48.722657-38.410156-79.328125-29.976562-31.507813-71.703125-49.136719-115.191406-48.671875-43.488281-.464844-85.214844 17.164062-115.191406 48.671875-28.390625 30.605468-38.410156 63.316406-38.410156 79.328125 0 25.601562 25.601562 34.132812 25.601562 34.132812" fill="#783e22"/><path d="m116.140625 352.085938c-5.1875 1.796874-9.109375 6.101562-10.414063 11.433593l-2.472656 11.945313-26.453125 128h358.398438l-26.367188-128-2.476562-11.945313c-1.371094-5.332031-5.253907-9.664062-10.410157-11.605469" fill="#f44335"/><path d="m130.132812 263.167969c-1.449218-5.105469-2.164062-10.394531-2.132812-15.703125v-51.199219c34.132812-42.664063 85.332031-68.265625 128-68.265625s93.867188 25.601562 128 68.265625v51.199219c.035156 5.308594-.683594 10.597656-2.132812 15.703125zm0 0" fill="#fec108"/><path d="m155.308594 263.167969c-1.164063-5.152344-1.738282-10.417969-1.707032-15.703125v-51.199219c27.304688-42.664063 68.265626-68.265625 102.398438-68.265625s75.09375 25.601562 102.398438 68.265625v51.199219c.03125 5.285156-.542969 10.550781-1.703126 15.703125zm0 0" fill="#ffdc00"/><path d="m256 469.332031s8.535156-17.066406 42.667969-25.597656c50.355469-12.589844 59.730469-34.132813 59.730469-34.132813 4.871093 4.425782 7.914062 10.511719 8.535156 17.066407 42.667968-51.203125 25.601562-102.402344 25.601562-102.402344 6.46875.898437 12.464844 3.894531 17.066406 8.535156 8.53125-34.132812-17.066406-76.800781-51.203124-76.800781-34.132813 0-34.132813-25.601562-59.730469-25.601562-25.601563 0-34.132813 8.535156-42.667969 8.535156s-17.066406-8.535156-42.667969-8.535156c-25.597656 0-25.597656 25.601562-59.730469 25.601562-34.136718 0-59.734374 42.667969-51.203124 76.800781 4.601562-4.640625 10.597656-7.636719 17.066406-8.535156 0 0-17.066406 51.199219 25.601562 102.402344.621094-6.554688 3.664063-12.640625 8.535156-17.066407 0 0 9.375 21.542969 59.730469 34.132813 34.132813 8.53125 42.667969 25.597656 42.667969 25.597656zm0 0" fill="#cfd8dc"/><path d="m256 469.332031s6.570312-17.066406 32.832031-25.597656c38.75-12.589844 45.964844-34.132813 45.964844-34.132813 3.875 4.886719 6.164063 10.839844 6.570313 17.066407 19.511718-30.324219 26.570312-67.003907 19.699218-102.402344 6.570313 0 13.132813 8.535156 13.132813 8.535156 6.570312-34.132812-13.132813-76.800781-39.398438-76.800781s-26.265625-25.601562-45.964843-25.601562c-19.699219 0-26.269532 8.535156-32.835938 8.535156s-13.132812-8.535156-32.832031-8.535156-19.699219 25.601562-45.964844 25.601562-45.964844 42.667969-39.398437 76.800781c0 0 6.574218-8.535156 13.132812-8.535156-6.867188 35.398437.1875 72.078125 19.699219 102.402344.402343-6.226563 2.695312-12.179688 6.566406-17.066407 0 0 7.214844 21.542969 45.964844 34.132813 26.261719 8.53125 32.832031 25.597656 32.832031 25.597656zm0 0" fill="#f5f5f5"/><path d="m233.648438 162.890625c-8.109376-2.980469-16.625-4.707031-25.257813-5.117187-11.601563-.878907-23.214844 1.597656-33.449219 7.132812 1.167969-14.933594 35.789063-17.886719 52.710938-14.046875 2.683594.335937 5.019531 1.988281 6.226562 4.410156 1.207032 2.417969 1.121094 5.28125-.230468 7.621094zm0 0"/><path d="m230.398438 189.28125c0-10.105469-7.640626-18.292969-17.066407-18.292969s-17.066406 8.1875-17.066406 18.292969c0 10.101562 7.640625 18.289062 17.066406 18.289062s17.066407-8.1875 17.066407-18.289062zm0 0"/><path d="m218.117188 173.40625c-4.40625-1.675781-9.332032.539062-11.007813 4.945312-1.675781 4.402344.535156 9.332032 4.941406 11.007813s9.335938-.539063 11.007813-4.941406c1.675781-4.40625-.535156-9.335938-4.941406-11.011719zm0 0" fill="#fff"/><path d="m278.351562 162.890625c8.109376-2.980469 16.625-4.707031 25.257813-5.117187 11.601563-.878907 23.214844 1.597656 33.449219 7.132812-1.167969-14.933594-35.789063-17.886719-52.710938-14.046875-2.683594.335937-5.019531 1.988281-6.226562 4.410156-1.207032 2.417969-1.121094 5.28125.230468 7.621094zm0 0"/><path d="m315.734375 189.28125c0-10.105469-7.640625-18.292969-17.066406-18.292969s-17.066407 8.1875-17.066407 18.292969c0 10.101562 7.640626 18.289062 17.066407 18.289062s17.066406-8.1875 17.066406-18.289062zm0 0"/><path d="m304.890625 178.347656c-1.675781-4.402344-6.605469-6.617187-11.007813-4.941406-4.40625 1.675781-6.617187 6.605469-4.941406 11.011719 1.671875 4.402343 6.601563 6.617187 11.007813 4.941406s6.617187-6.605469 4.941406-11.011719zm0 0" fill="#fff"/><path d="m435.199219 512h-358.398438c-2.566406 0-4.996093-1.152344-6.617187-3.144531-1.621094-1.988281-2.261719-4.601563-1.742188-7.113281l28.929688-139.957032c1.863281-8.132812 7.726562-14.761718 15.566406-17.609375 2.824219-1.148437 6.046875-.699219 8.453125 1.175781 2.402344 1.871094 3.625 4.886719 3.207031 7.90625-.421875 3.019532-2.421875 5.585938-5.246094 6.734376-2.464843.75-4.414062 2.648437-5.234374 5.089843l-26.84375 129.851563h337.460937l-26.734375-129.683594c-.851562-2.597656-2.878906-4.640625-5.464844-5.515625-4.195312-1.960937-6.0625-6.90625-4.207031-11.152344 1.851563-4.242187 6.75-6.230469 11.039063-4.480469 7.71875 3.015626 13.460937 9.640626 15.351562 17.710938l28.84375 139.925781c.519531 2.515625-.121094 5.128907-1.742188 7.121094-1.621093 1.988281-4.054687 3.140625-6.621093 3.140625zm0 0"/><path d="m381.867188 271.703125c-2.679688-.003906-5.203126-1.261719-6.816407-3.402344s-2.125-4.914062-1.382812-7.492187c1.226562-4.339844 1.832031-8.832032 1.796875-13.34375v-48.164063c-31.191406-37.652343-78.839844-62.765625-119.464844-62.765625s-88.273438 25.113282-119.464844 62.765625v48.164063c-.035156 4.511718.570313 9.003906 1.796875 13.34375.90625 2.949218.148438 6.15625-1.980469 8.386718-2.128906 2.234376-5.292968 3.144532-8.28125 2.382813-2.992187-.761719-5.335937-3.074219-6.136718-6.054687-1.675782-5.871094-2.503906-11.949219-2.46875-18.058594v-51.199219c0-1.9375.660156-3.816406 1.867187-5.332031 34.734375-43.417969 87.59375-71.46875 134.667969-71.46875s99.933594 28.050781 134.667969 71.46875c1.207031 1.515625 1.867187 3.394531 1.867187 5.332031v51.199219c.035156 6.109375-.792968 12.1875-2.46875 18.058594-1.050781 3.65625-4.394531 6.175781-8.199218 6.179687zm0 0"/><path d="m129.96875 121.390625c-2.261719.011719-4.429688-.878906-6.03125-2.472656s-2.503906-3.757813-2.503906-6.019531v-.085938c.027344-4.707031 3.859375-8.503906 8.566406-8.484375s8.507812 3.84375 8.5 8.550781c-.007812 4.703125-3.828125 8.515625-8.53125 8.515625zm0 0"/><path d="m102.398438 512h-93.863282c-4.714844 0-8.535156-3.820312-8.535156-8.535156v-7.59375c-.0078125-11.621094 1.394531-23.199219 4.175781-34.484375l7.9375-32.15625c10.023438-37.449219 44.359375-63.183594 83.117188-62.296875h8.023437c4.710938 0 8.53125 3.820312 8.53125 8.53125 0 4.714844-3.820312 8.535156-8.53125 8.535156h-8.023437c-30.898438-.871094-58.390625 19.496094-66.558594 49.308594l-7.9375 32.171875c-2.371094 9.636719-3.605469 19.523437-3.667969 29.453125h85.332032c4.714843 0 8.535156 3.820312 8.535156 8.53125 0 4.714844-3.820313 8.535156-8.535156 8.535156zm0 0"/><path d="m503.464844 512h-93.863282c-4.714843 0-8.535156-3.820312-8.535156-8.535156 0-4.710938 3.820313-8.53125 8.535156-8.53125h85.332032c-.066406-9.921875-1.300782-19.804688-3.675782-29.441406l-7.9375-32.167969c-8.160156-29.820313-35.648437-50.191407-66.550781-49.324219h-7.9375c-4.710937 0-8.535156-3.820312-8.535156-8.535156 0-4.710938 3.824219-8.53125 8.535156-8.53125h7.9375c38.761719-.890625 73.105469 24.851562 83.125 62.308594l7.933594 32.15625c2.78125 11.28125 4.179687 22.855468 4.171875 34.472656v7.59375c0 4.714844-3.820312 8.535156-8.535156 8.535156zm0 0"/><path d="m127.992188 221.867188c-.914063 0-1.824219-.148438-2.691407-.441407-1.285156-.425781-31.433593-10.835937-31.433593-42.226562 0-29.167969 28.425781-100.777344 116.300781-135.925781 2.828125-1.128907 6.050781-.664063 8.445312 1.222656 2.394531 1.886718 3.601563 4.90625 3.167969 7.925781-.4375 3.015625-2.449219 5.570313-5.28125 6.703125-87.648438 35.058594-105.566406 103.632812-105.566406 120.074219.695312 11.902343 8.527344 22.199219 19.808594 26.050781 3.945312 1.351562 6.335937 5.355469 5.65625 9.472656-.683594 4.113282-4.234376 7.132813-8.40625 7.144532zm0 0"/><path d="m183.894531 74.070312c-2.746093 0-5.324219-1.320312-6.925781-3.550781-1.605469-2.226562-2.039062-5.089843-1.167969-7.691406 7.859375-23.46875 28.714844-62.828125 80.199219-62.828125 4.710938 0 8.535156 3.820312 8.535156 8.535156 0 4.710938-3.824218 8.53125-8.535156 8.53125-38.75 0-56.199219 27.832032-64.015625 51.175782-1.164063 3.480468-4.421875 5.828124-8.089844 5.828124zm0 0"/><path d="m384 221.867188c-4.179688.003906-7.746094-3.019532-8.425781-7.144532-.683594-4.125 1.722656-8.132812 5.683593-9.472656 11.28125-3.851562 19.113282-14.148438 19.808594-26.050781 0-16.441407-17.917968-85.015625-105.566406-120.074219-2.832031-1.132812-4.84375-3.6875-5.28125-6.703125-.433594-3.019531.773438-6.039063 3.167969-7.925781 2.394531-1.886719 5.617187-2.351563 8.445312-1.222656 87.875 35.148437 116.300781 106.757812 116.300781 135.925781 0 31.390625-30.148437 41.800781-31.433593 42.226562-.871094.289063-1.78125.441407-2.699219.441407zm0 0"/><path d="m328.105469 74.070312c-3.667969 0-6.925781-2.34375-8.089844-5.824218-7.816406-23.347656-25.265625-51.179688-64.015625-51.179688-4.710938 0-8.535156-3.820312-8.535156-8.53125 0-4.714844 3.824218-8.535156 8.535156-8.535156 51.484375 0 72.339844 39.359375 80.199219 62.824219.871093 2.605469.4375 5.46875-1.164063 7.695312-1.605468 2.230469-4.183594 3.550781-6.929687 3.550781zm0 0"/><path d="m256.035156 477.792969h-.160156c-3.117188-.035157-5.96875-1.761719-7.441406-4.507813-.285156-.5-8.382813-14.078125-37.167969-21.277344-31.625-7.898437-48.433594-19.359374-57.082031-27.859374-.308594.878906-.503906 1.792968-.582032 2.71875-.179687 3.539062-2.480468 6.613281-5.828124 7.78125-3.3125 1.15625-6.992188.15625-9.265626-2.515626-22.386718-25.53125-33.394531-59.085937-30.484374-92.914062-2.238282 1.949219-5.332032 2.597656-8.164063 1.707031-2.835937-.886719-5.007813-3.179687-5.734375-6.0625-4.894531-22.335937.523438-45.6875 14.75-63.589843 10.359375-14.5 26.910156-23.3125 44.726562-23.808594 10.972657.316406 21.558594-4.085938 29.074219-12.089844 7.988281-8.441406 19.039063-13.3125 30.65625-13.507812 12.105469-.15625 24.125 2.039062 35.394531 6.457031 2.3125 1.03125 4.761719 1.730469 7.273438 2.074219 2.511719-.34375 4.960938-1.042969 7.273438-2.074219 11.269531-4.417969 23.289062-6.613281 35.394531-6.457031 11.617187.195312 22.667969 5.066406 30.65625 13.507812 7.515625 8.003906 18.101562 12.40625 29.074219 12.089844 17.816406.496094 34.367187 9.308594 44.726562 23.808594 14.226562 17.902343 19.644531 41.257812 14.753906 63.59375-.71875 2.886718-2.890625 5.191406-5.730468 6.078124-2.835938.890626-5.933594.234376-8.171876-1.726562 2.902344 33.828125-8.105468 67.378906-30.480468 92.917969-2.300782 2.761719-6.085938 3.789062-9.46875 2.566406-3.382813-1.226563-5.632813-4.441406-5.628906-8.035156-.09375-.863281-.285157-1.710938-.574219-2.527344-8.648438 8.5-25.457031 19.960937-57.085938 27.867187-29.183593 7.300782-37.101562 21.148438-37.175781 21.292969-1.515625 2.746094-4.394531 4.460938-7.527344 4.492188zm-94.609375-71.601563c.007813 0 9.449219 18.132813 53.972657 29.269532 15.085937 3.136718 29.085937 10.175781 40.601562 20.414062 11.515625-10.238281 25.515625-17.277344 40.601562-20.417969 44.285157-11.078125 53.898438-29.085937 53.972657-29.269531 1.128906-2.589844 3.460937-4.453125 6.234375-4.976562 2.773437-.527344 5.628906.355468 7.625 2.351562 1.765625 1.757812 3.375 3.671875 4.800781 5.714844 16.746094-23.953125 22.285156-53.992188 15.1875-82.34375-.84375-2.601563-.398437-5.449219 1.207031-7.664063 1.605469-2.214843 4.171875-3.527343 6.90625-3.535156 3.5.058594 6.953125.828125 10.152344 2.257813-.398438-13.144532-4.957031-25.824219-13.015625-36.21875-7.167969-10.304688-18.730469-16.675782-31.273437-17.238282-15.078126.339844-29.636719-5.539062-40.25-16.261718-4.90625-5.695313-11.96875-9.082032-19.480469-9.339844-10.105469-.167969-20.140625 1.675781-29.527344 5.417968-4.15625 1.820313-8.609375 2.875-13.140625 3.113282-4.53125-.238282-8.984375-1.292969-13.140625-3.113282-9.386719-3.742187-19.421875-5.585937-29.527344-5.417968-7.511719.257812-14.574219 3.644531-19.480469 9.339844-10.613281 10.722656-25.171874 16.601562-40.25 16.261718-12.542968.558594-24.105468 6.933594-31.277343 17.234375-8.058594 10.394531-12.613281 23.074219-13.011719 36.222657 3.199219-1.429688 6.652344-2.199219 10.152344-2.257813 2.746094-.003906 5.324218 1.316406 6.925781 3.542969 1.605469 2.226562 2.039063 5.085937 1.167969 7.6875-7.078125 28.347656-1.53125 58.371094 15.207031 82.320312 1.429687-2.046875 3.035156-3.960937 4.800781-5.71875 1.996094-1.996094 4.851563-2.875 7.625-2.351562 2.773438.523437 5.105469 2.386718 6.234375 4.976562zm0 0"/><path d="m315.734375 290.132812c-16.921875.046876-33.773437-2.164062-50.109375-6.570312-3.144531-.933594-6.367188-1.589844-9.625-1.960938-3.257812.371094-6.480469 1.027344-9.625 1.960938-16.335938 4.40625-33.1875 6.617188-50.109375 6.570312-4.710937 0-8.53125-3.820312-8.53125-8.53125 0-4.714843 3.820313-8.535156 8.53125-8.535156 15.523437.027344 30.984375-2.011718 45.96875-6.066406 4.476563-1.351562 9.097656-2.175781 13.765625-2.464844 4.667969.289063 9.289062 1.113282 13.765625 2.464844 14.984375 4.054688 30.445313 6.09375 45.96875 6.066406 4.710937 0 8.53125 3.820313 8.53125 8.535156 0 4.710938-3.820313 8.53125-8.53125 8.53125zm0 0"/></svg>