<svg height="512pt" viewBox="0 0 512.00007 512" width="512pt" xmlns="http://www.w3.org/2000/svg"><path d="m420.351562 134.570312c.0625 9.234376-.679687 18.457032-2.21875 27.5625-.085937.257813-.085937.597657-.171874.855469-8.617188 50.429688-33.960938 58.878907-33.960938 58.878907h-256s-20.394531-6.828126-30.804688-44.628907c-1.378906-4.972656-2.492187-10.015625-3.328124-15.105469-.257813-1.707031-.511719-3.414062-.683594-5.203124-2.273438-15.726563-2.042969-31.710938.683594-47.363282 1.277343-6.996094 3.132812-13.875 5.546874-20.5625v-.085937c15.359376-41.730469 57.003907-80.382813 156.585938-80.382813 101.460938 0 142.761719 40.191406 157.355469 82.773438 2.136719 6.109375 3.765625 12.390625 4.863281 18.769531 1.40625 8.089844 2.121094 16.28125 2.132812 24.492187zm0 0" fill="#cfd8dc"/><path d="m392.535156 134.570312c.050782 9.21875-.566406 18.433594-1.84375 27.5625-.070312.257813-.070312.597657-.144531.855469-7.160156 50.429688-28.210937 58.878907-28.210937 58.878907h-212.667969s-16.941407-6.828126-25.589844-44.628907c-1.0625-4.523437-1.984375-9.558593-2.765625-15.105469-.210938-1.707031-.425781-3.414062-.566406-5.203124-1.886719-15.746094-1.699219-31.667969.566406-47.363282 1.054688-6.953125 2.59375-13.824218 4.609375-20.5625v-.085937c12.757813-41.730469 47.351563-80.382813 130.078125-80.382813 84.285156 0 118.59375 40.191406 130.71875 82.773438 1.785156 6.152344 3.132812 12.425781 4.039062 18.769531 1.171876 8.113281 1.765626 16.296875 1.777344 24.492187zm0 0" fill="#f5f5f5"/><path d="m409.601562 503.464844h93.867188l-.003906-7.59375c.015625-10.925782-1.300782-21.816406-3.921875-32.425782l-7.9375-32.171874c-9.203125-33.554688-40.046875-56.558594-74.835938-55.808594h-321.539062c-34.789063-.75-65.632813 22.253906-74.835938 55.808594l-7.9375 32.171874c-2.621093 10.609376-3.9375 21.5-3.921875 32.425782v7.59375zm0 0" fill="#6a1b9a"/><path d="m349.867188 349.867188h35.582031c9.285156-.816407 17.921875 4.824218 20.90625 13.652343l28.84375 139.945313h-358.398438l28.925781-139.945313c2.945313-8.820312 11.558594-14.46875 20.824219-13.652343zm0 0" fill="#9d27b0"/><path d="m187.734375 290.132812h136.53125v76.800782h-136.53125zm0 0" fill="#fec108"/><path d="m384 187.734375v59.730469c.011719 15.847656-6.277344 31.046875-17.484375 42.253906-11.203125 11.203125-26.402344 17.492188-42.25 17.480469h-136.53125c-15.847656.011719-31.046875-6.277344-42.25-17.480469-11.207031-11.207031-17.496094-26.40625-17.484375-42.253906v-59.730469c17.066406-42.667969 76.800781-68.269531 128-68.269531s110.933594 25.601562 128 68.269531zm0 0" fill="#fec108"/><path d="m358.398438 187.734375v59.730469c0 33.027344-21.367188 59.734375-47.785157 59.734375h-109.226562c-26.417969 0-47.785157-26.707031-47.785157-59.734375v-59.730469c13.652344-42.667969 61.4375-68.269531 102.398438-68.269531s88.746094 25.601562 102.398438 68.269531zm0 0" fill="#ffdc00"/><g fill="#fec108"><path d="m221.867188 204.800781h-25.601563c-4.710937 0-8.53125-3.820312-8.53125-8.535156 0-4.710937 3.820313-8.53125 8.53125-8.53125h25.601563c4.710937 0 8.53125 3.820313 8.53125 8.53125 0 4.714844-3.820313 8.535156-8.53125 8.535156zm0 0"/><path d="m315.734375 204.800781h-25.601563c-4.710937 0-8.53125-3.820312-8.53125-8.535156 0-4.710937 3.820313-8.53125 8.53125-8.53125h25.601563c4.710937 0 8.53125 3.820313 8.53125 8.53125 0 4.714844-3.820313 8.535156-8.53125 8.535156zm0 0"/><path d="m162.132812 256c-3.449218 0-6.5625-2.078125-7.882812-5.269531-1.320312-3.1875-.589844-6.855469 1.851562-9.296875l8.53125-8.535156c3.347657-3.230469 8.671876-3.1875 11.964844.105468 3.289063 3.292969 3.335938 8.613282.101563 11.960938l-8.53125 8.535156c-1.601563 1.601562-3.769531 2.503906-6.035157 2.5zm0 0"/><path d="m179.199219 281.601562c-3.449219-.003906-6.5625-2.082031-7.882813-5.269531-1.320312-3.1875-.589844-6.859375 1.851563-9.296875l8.53125-8.535156c3.347656-3.234375 8.671875-3.1875 11.964843.105469 3.289063 3.289062 3.335938 8.613281.101563 11.960937l-8.53125 8.535156c-1.597656 1.601563-3.769531 2.5-6.035156 2.5zm0 0"/></g><path d="m349.867188 349.867188s-8.535157 51.199218-93.867188 51.199218-93.867188-51.199218-93.867188-51.199218zm0 0" fill="#ffdc00"/><path d="m296.339844 258.601562c-6.890625-13.492187-28.410156-15.402343-40.167969-15.402343-11.78125 0-33.277344 1.910156-40.171875 15.402343 13.148438-3.238281 26.628906-4.929687 40.171875-5.035156 13.539063.105469 27.023437 1.792969 40.167969 5.035156zm0 0"/><path d="m233.648438 154.359375c-8.109376-2.980469-16.625-4.707031-25.257813-5.121094-11.601563-.875-23.214844 1.597657-33.449219 7.132813 1.167969-14.933594 35.789063-17.882813 52.710938-14.042969 2.683594.332031 5.019531 1.988281 6.226562 4.40625 1.207032 2.417969 1.121094 5.28125-.230468 7.625zm0 0"/><path d="m230.398438 180.746094c0-10.101563-7.640626-18.292969-17.066407-18.292969s-17.066406 8.191406-17.066406 18.292969c0 10.101562 7.640625 18.292968 17.066406 18.292968s17.066407-8.191406 17.066407-18.292968zm0 0"/><path d="m218.117188 164.875c-4.402344-1.675781-9.332032.535156-11.007813 4.941406s.535156 9.335938 4.941406 11.007813c4.40625 1.675781 9.335938-.535157 11.007813-4.941407 1.675781-4.40625-.535156-9.332031-4.941406-11.007812zm0 0" fill="#fff"/><path d="m278.351562 154.359375c8.109376-2.980469 16.625-4.707031 25.257813-5.121094 11.601563-.875 23.214844 1.597657 33.449219 7.132813-1.167969-14.933594-35.789063-17.882813-52.710938-14.042969-2.683594.332031-5.019531 1.988281-6.226562 4.40625-1.207032 2.417969-1.121094 5.28125.230468 7.625zm0 0"/><path d="m315.734375 180.746094c0-10.101563-7.640625-18.292969-17.066406-18.292969s-17.066407 8.191406-17.066407 18.292969c0 10.101562 7.640626 18.292968 17.066407 18.292968s17.066406-8.191406 17.066406-18.292968zm0 0"/><path d="m304.890625 169.816406c-1.675781-4.40625-6.605469-6.617187-11.007813-4.941406-4.40625 1.675781-6.617187 6.601562-4.941406 11.007812 1.671875 4.40625 6.601563 6.617188 11.007813 4.941407s6.617187-6.601563 4.941406-11.007813zm0 0" fill="#fff"/><path d="m435.199219 512h-358.398438c-2.566406 0-4.996093-1.152344-6.617187-3.144531-1.621094-1.988281-2.261719-4.601563-1.742188-7.113281l28.910156-139.929688c3.726563-12.839844 15.886719-21.359375 29.230469-20.480469h258.894531c13.359376-.882812 25.53125 7.667969 29.230469 20.535157l28.855469 139.875c.519531 2.511718-.121094 5.128906-1.742188 7.117187-1.621093 1.988281-4.054687 3.140625-6.621093 3.140625zm-347.925781-17.066406h337.453124l-26.742187-129.667969c-2.257813-4.742187-7.296875-7.507813-12.507813-6.867187h-258.894531c-5.199219-.632813-10.226562 2.109374-12.507812 6.828124zm0 0"/><path d="m324.265625 358.398438h-136.53125c-4.714844 0-8.535156-3.820313-8.535156-8.53125v-42.667969c0-4.710938 3.820312-8.53125 8.535156-8.53125h136.53125c4.714844 0 8.535156 3.820312 8.535156 8.53125v42.667969c0 4.710937-3.820312 8.53125-8.535156 8.53125zm-128-17.066407h119.46875v-25.597656h-119.46875zm0 0"/><path d="m324.265625 315.734375h-136.53125c-37.6875-.042969-68.222656-30.582031-68.269531-68.269531v-59.730469c.003906-1.085937.210937-2.160156.609375-3.167969 19.132812-47.824218 84.308593-73.632812 135.925781-73.632812s116.792969 25.808594 135.925781 73.632812c.398438 1.007813.605469 2.082032.609375 3.167969v59.730469c-.046875 37.6875-30.582031 68.226562-68.269531 68.269531zm-187.730469-126.300781v58.03125c.027344 28.265625 22.933594 51.171875 51.199219 51.203125h136.53125c28.265625-.03125 51.171875-22.9375 51.199219-51.203125v-58.03125c-16.582032-38.492188-73.390625-61.433594-119.464844-61.433594s-102.882812 22.941406-119.464844 61.433594zm0 0"/><path d="m102.398438 512h-93.863282c-4.714844 0-8.535156-3.820312-8.535156-8.535156v-7.59375c-.0078125-11.621094 1.394531-23.199219 4.175781-34.484375l7.9375-32.15625c10.023438-37.449219 44.359375-63.183594 83.117188-62.296875h8.023437c4.710938 0 8.53125 3.820312 8.53125 8.53125 0 4.714844-3.820312 8.535156-8.53125 8.535156h-8.023437c-30.898438-.871094-58.390625 19.496094-66.558594 49.308594l-7.9375 32.171875c-2.371094 9.636719-3.605469 19.523437-3.667969 29.453125h85.332032c4.714843 0 8.535156 3.820312 8.535156 8.53125 0 4.714844-3.820313 8.535156-8.535156 8.535156zm0 0"/><path d="m503.464844 512h-93.863282c-4.714843 0-8.535156-3.820312-8.535156-8.535156 0-4.710938 3.820313-8.53125 8.535156-8.53125h85.332032c-.066406-9.921875-1.300782-19.804688-3.675782-29.441406l-7.9375-32.167969c-8.160156-29.820313-35.648437-50.191407-66.550781-49.324219h-7.9375c-4.710937 0-8.535156-3.820312-8.535156-8.535156 0-4.710938 3.824219-8.53125 8.535156-8.53125h7.9375c38.761719-.890625 73.105469 24.851562 83.125 62.308594l7.933594 32.15625c2.78125 11.28125 4.179687 22.855468 4.171875 34.472656v7.59375c0 4.714844-3.820312 8.535156-8.535156 8.535156zm0 0"/><path d="m384 230.398438c-4.152344 0-7.703125-2.992188-8.40625-7.085938s1.640625-8.097656 5.554688-9.488281c.710937-.292969 21.234374-9.082031 28.570312-53.089844 3.023438-18.152344 6.898438-64.09375-22.335938-98.609375-25.324218-29.898438-69.53125-45.058594-131.382812-45.058594-61.847656 0-106.058594 15.160156-131.382812 45.054688-29.234376 34.519531-25.359376 80.460937-22.335938 98.609375 7.484375 44.875 28.210938 52.96875 28.417969 53.042969 4.335937 1.585937 6.625 6.335937 5.164062 10.714843-1.460937 4.382813-6.144531 6.804688-10.5625 5.46875-1.242187-.410156-30.578125-10.792969-39.851562-66.425781-3.414063-20.492188-7.707031-72.484375 26.140625-112.441406 28.726562-33.898438 77.308594-51.089844 144.410156-51.089844s115.683594 17.191406 144.410156 51.089844c33.851563 39.960937 29.554688 91.953125 26.140625 112.445312-9.277343 55.632813-38.609375 66.015625-39.851562 66.421875-.871094.292969-1.78125.441407-2.699219.441407zm0 0"/><path d="m93.859375 170.667969c-3.257813-.003907-6.230469-1.863281-7.660156-4.789063-1.429688-2.929687-1.066407-6.417968.933593-8.988281 62.824219-80.765625 162.257813-45.816406 163.25-45.441406 4.355469 1.660156 6.574219 6.503906 4.988282 10.882812-1.589844 4.382813-6.398438 6.679688-10.804688 5.160157-3.597656-1.289063-88.875-30.949219-143.964844 39.882812-1.621093 2.082031-4.109374 3.292969-6.742187 3.292969zm0 0"/><path d="m418.125 170.667969c-3.894531-.003907-7.292969-2.644531-8.257812-6.417969-6.839844-19.5625-24.074219-33.628906-44.609376-36.417969-4.582031-.960937-7.535156-5.433593-6.613281-10.023437.917969-4.59375 5.363281-7.585938 9.964844-6.707032 27.011719 3.996094 49.417969 22.976563 57.800781 48.964844.632813 2.550782.054688 5.25-1.5625 7.316406-1.617187 2.070313-4.097656 3.28125-6.722656 3.285157zm0 0"/><path d="m416.425781 110.25c-1.128906.003906-2.246093-.222656-3.289062-.65625-7.835938-3.277344-192.886719-79.300781-312.816407-1.152344-3.949218 2.574219-9.238281 1.457032-11.808593-2.492187-2.574219-3.949219-1.457031-9.234375 2.492187-11.808594 125.253906-81.597656 308.269532-8.847656 328.710938-.296875 3.753906 1.5625 5.882812 5.5625 5.082031 9.550781s-4.300781 6.859375-8.371094 6.855469zm0 0"/><path d="m256 409.601562c-91.507812 0-101.882812-55.953124-102.28125-58.335937-.796875-4.644531 2.328125-9.054687 6.972656-9.847656 4.644532-.796875 9.054688 2.328125 9.851563 6.972656.363281 1.953125 9.253906 44.144531 85.457031 44.144531 76.332031 0 85.125-42.351562 85.464844-44.152344.871094-4.597656 5.261718-7.65625 9.878906-6.875 4.601562.789063 7.703125 5.152344 6.9375 9.757813-.394531 2.382813-10.773438 58.335937-102.28125 58.335937zm0 0"/></svg>