<svg height="512pt" viewBox="0 0 512.00007 512" width="512pt" xmlns="http://www.w3.org/2000/svg"><path d="m51.199219 388.523438v-72.789063c-.007813-6.792969 2.6875-13.308594 7.488281-18.113281 4.804688-4.800782 11.320312-7.496094 18.113281-7.488282h358.398438c6.792969-.007812 13.308593 2.6875 18.113281 7.488282 4.800781 4.804687 7.496094 11.320312 7.488281 18.113281v72.789063zm0 0" fill="#783e22"/><path d="m187.734375 290.132812h136.53125v76.800782h-136.53125zm0 0" fill="#fec108"/><path d="m503.464844 495.871094.003906 7.59375h-494.933594v-7.59375c-.015625-10.925782 1.300782-21.816406 3.921875-32.425782l7.9375-32.171874c9.203125-33.554688 40.046875-56.558594 74.835938-55.808594h321.539062c34.789063-.75 65.632813 22.253906 74.835938 55.808594l7.9375 32.171874c2.621093 10.609376 3.9375 21.5 3.921875 32.425782zm0 0" fill="#0377bc"/><path d="m435.199219 503.464844h-358.398438l26.453125-128 2.472656-11.945313c2.945313-8.820312 11.558594-14.46875 20.824219-13.652343h258.898438c9.285156-.816407 17.921875 4.824218 20.90625 13.652343l2.476562 11.945313zm0 0" fill="#02a9f4"/><path d="m384 187.734375v59.730469c.011719 15.847656-6.277344 31.046875-17.484375 42.253906-11.203125 11.203125-26.402344 17.492188-42.25 17.480469h-136.53125c-15.847656.011719-31.046875-6.277344-42.25-17.480469-11.207031-11.207031-17.496094-26.40625-17.484375-42.253906v-59.730469c17.066406-8.535156 34.132812-34.132813 34.132812-68.269531 0-34.132813 68.265626-34.132813 93.867188-34.132813s93.867188 0 93.867188 34.132813c0 34.136718 17.066406 59.734375 34.132812 68.269531zm0 0" fill="#fec108"/><path d="m358.398438 187.734375v59.730469c0 33.027344-21.367188 59.734375-47.785157 59.734375h-109.226562c-26.417969 0-47.785157-26.707031-47.785157-59.734375v-59.730469c13.652344-8.535156 27.304688-34.132813 27.304688-68.269531 0-34.132813 54.613281-34.132813 75.09375-34.132813s75.09375 0 75.09375 34.132813c0 34.136718 13.652344 59.734375 27.304688 68.269531zm0 0" fill="#ffdc00"/><path d="m419.414062 136.535156c16.296876 25.597656-8.191406 59.730469-8.191406 59.730469-4.285156 17.875-13.753906 34.085937-27.222656 46.59375v-29.527344c-17.066406-8.53125-34.132812-34.132812-34.132812-68.265625 0-34.132812-68.265626-34.132812-93.867188-34.132812s-93.867188 0-93.867188 34.132812c0 34.132813-17.066406 59.734375-34.132812 68.265625v29.527344c-13.46875-12.507813-22.9375-28.71875-27.222656-46.59375 0 0-24.488282-34.132813-8.191406-59.730469 0 0-24.488282-68.269531 16.382812-76.800781 0 0 0-17.066406 32.683594-34.132813 0 0 16.300781 8.53125 16.300781 17.066407 8.992187-10.71875 20.125-19.4375 32.679687-25.601563l16.386719 17.066406s32.683594-25.597656 48.980469-25.597656 48.980469 25.597656 48.980469 25.597656l16.386719-17.066406c12.554687 6.164063 23.6875 14.882813 32.679687 25.601563 0-8.535157 16.300781-17.066407 16.300781-17.066407 32.683594 17.066407 32.683594 34.132813 32.683594 34.132813 40.871094 8.53125 16.382812 76.800781 16.382812 76.800781zm0 0" fill="#91562d"/><path d="m145.066406 409.601562h34.132813c4.714843 0 8.535156 3.820313 8.535156 8.53125v34.132813c0 4.714844-3.820313 8.535156-8.535156 8.535156h-34.132813c-4.710937 0-8.53125-3.820312-8.53125-8.535156v-34.132813c0-4.710937 3.820313-8.53125 8.53125-8.53125zm0 0" fill="#91562d"/><path d="m332.800781 409.601562h34.132813c4.710937 0 8.53125 3.820313 8.53125 8.53125v34.132813c0 4.714844-3.820313 8.535156-8.53125 8.535156h-34.132813c-4.714843 0-8.535156-3.820312-8.535156-8.535156v-34.132813c0-4.710937 3.820313-8.53125 8.535156-8.53125zm0 0" fill="#91562d"/><path d="m264.535156 401.066406v102.398438h-17.070312v-102.398438c0-4.710937 3.824218-8.53125 8.535156-8.53125s8.535156 3.820313 8.535156 8.53125zm0 0" fill="#2980ba"/><path d="m145.066406 409.601562v-59.734374h34.132813v59.734374" fill="#91562d"/><path d="m145.066406 460.800781h34.132813v42.664063h-34.132813zm0 0" fill="#91562d"/><path d="m332.800781 409.601562v-59.734374h34.132813v59.734374" fill="#91562d"/><path d="m332.800781 460.800781h34.132813v42.664063h-34.132813zm0 0" fill="#91562d"/><g fill="#35495e"><path d="m179.199219 401.066406h-34.132813c-9.414062.027344-17.039062 7.652344-17.066406 17.066406v34.132813c.023438 9.417969 7.652344 17.042969 17.066406 17.066406h34.132813c9.417969-.023437 17.042969-7.648437 17.066406-17.066406v-34.132813c-.027344-9.414062-7.652344-17.039062-17.066406-17.066406zm-34.132813 51.199219v-34.132813h34.132813v34.132813zm0 0"/><path d="m366.933594 401.066406h-34.132813c-9.414062.027344-17.039062 7.652344-17.066406 17.066406v34.132813c.023437 9.417969 7.648437 17.042969 17.066406 17.066406h34.132813c9.414062-.023437 17.042968-7.648437 17.066406-17.066406v-34.132813c-.027344-9.414062-7.652344-17.039062-17.066406-17.066406zm-34.132813 51.199219v-34.132813h34.132813v34.132813zm0 0"/><path d="m136.535156 349.867188h17.066406v59.734374c0 4.710938-3.820312 8.53125-8.535156 8.53125-4.710937 0-8.53125-3.820312-8.53125-8.53125zm0 0"/><path d="m187.734375 349.867188v59.734374c0 4.710938-3.820313 8.53125-8.535156 8.53125-4.710938 0-8.53125-3.820312-8.53125-8.53125v-59.734374zm0 0"/><path d="m153.601562 460.800781v42.664063h-17.066406v-42.664063c0-1.503906.414063-2.980469 1.191406-4.265625 1.496094-2.648437 4.300782-4.277344 7.339844-4.269531 4.707032.015625 8.519532 3.828125 8.535156 8.535156zm0 0"/><path d="m187.734375 460.800781v42.664063h-17.066406v-42.664063c.011719-4.707031 3.824219-8.519531 8.53125-8.535156 3.039062-.007813 5.84375 1.621094 7.339843 4.269531.78125 1.285156 1.191407 2.761719 1.195313 4.265625zm0 0"/><path d="m324.265625 349.867188h17.066406v59.734374c0 4.710938-3.820312 8.53125-8.53125 8.53125-4.714843 0-8.535156-3.820312-8.535156-8.53125zm0 0"/><path d="m375.464844 349.867188v59.734374c0 4.710938-3.820313 8.53125-8.53125 8.53125-4.714844 0-8.535156-3.820312-8.535156-8.53125v-59.734374zm0 0"/><path d="m341.332031 460.800781v42.664063h-17.066406v-42.664063c.003906-1.503906.414063-2.980469 1.195313-4.265625 1.496093-2.648437 4.300781-4.277344 7.339843-4.269531 4.707031.015625 8.519531 3.828125 8.53125 8.535156zm0 0"/><path d="m375.464844 460.800781v42.664063h-17.066406v-42.664063c.015624-4.707031 3.828124-8.519531 8.535156-8.535156 3.039062-.007813 5.84375 1.621094 7.339844 4.269531.777343 1.285156 1.191406 2.761719 1.191406 4.265625zm0 0"/></g><path d="m296.339844 247.464844c-6.894532 13.496094-28.414063 15.402344-40.167969 15.402344-11.78125 0-33.277344-1.90625-40.171875-15.402344 13.148438 3.242187 26.628906 4.929687 40.171875 5.035156 13.539063-.101562 27.023437-1.792969 40.167969-5.035156zm0 0"/><path d="m233.648438 158.625c-8.109376-2.980469-16.625-4.707031-25.257813-5.121094-11.601563-.875-23.214844 1.601563-33.449219 7.132813 1.167969-14.933594 35.789063-17.882813 52.710938-14.042969 2.683594.332031 5.019531 1.988281 6.226562 4.40625 1.207032 2.421875 1.121094 5.28125-.230468 7.625zm0 0"/><path d="m230.398438 185.011719c0-10.101563-7.640626-18.289063-17.066407-18.289063s-17.066406 8.1875-17.066406 18.289063c0 10.105469 7.640625 18.292969 17.066406 18.292969s17.066407-8.1875 17.066407-18.292969zm0 0"/><path d="m218.117188 169.140625c-4.40625-1.675781-9.332032.535156-11.007813 4.941406s.535156 9.335938 4.941406 11.011719c4.40625 1.671875 9.332031-.539062 11.007813-4.945312 1.675781-4.402344-.535156-9.332032-4.941406-11.007813zm0 0" fill="#fff"/><path d="m278.351562 158.625c8.109376-2.980469 16.625-4.707031 25.257813-5.121094 11.601563-.875 23.214844 1.601563 33.449219 7.132813-1.167969-14.933594-35.789063-17.882813-52.710938-14.042969-2.683594.332031-5.019531 1.988281-6.226562 4.40625-1.207032 2.421875-1.121094 5.28125.230468 7.625zm0 0"/><path d="m315.734375 185.011719c0-10.101563-7.640625-18.289063-17.066406-18.289063s-17.066407 8.1875-17.066407 18.289063c0 10.105469 7.640626 18.292969 17.066407 18.292969s17.066406-8.1875 17.066406-18.292969zm0 0"/><path d="m304.890625 174.082031c-1.675781-4.402343-6.601563-6.617187-11.007813-4.941406s-6.617187 6.605469-4.941406 11.007813c1.675782 4.40625 6.601563 6.621093 11.007813 4.945312s6.617187-6.605469 4.941406-11.011719zm0 0" fill="#fff"/><path d="m435.199219 512h-358.398438c-2.566406 0-4.996093-1.152344-6.617187-3.144531-1.621094-1.988281-2.261719-4.601563-1.742188-7.113281l28.910156-139.929688c3.726563-12.839844 15.886719-21.359375 29.230469-20.480469h258.894531c13.359376-.882812 25.53125 7.667969 29.230469 20.535157l28.855469 139.875c.519531 2.511718-.121094 5.128906-1.742188 7.117187-1.621093 1.988281-4.054687 3.140625-6.621093 3.140625zm-347.925781-17.066406h337.453124l-26.742187-129.667969c-2.257813-4.742187-7.296875-7.507813-12.507813-6.867187h-258.894531c-5.199219-.632813-10.226562 2.109374-12.507812 6.828124zm0 0"/><path d="m324.265625 358.398438h-136.53125c-4.714844 0-8.535156-3.820313-8.535156-8.53125v-42.667969c0-4.710938 3.820312-8.53125 8.535156-8.53125h136.53125c4.714844 0 8.535156 3.820312 8.535156 8.53125v42.667969c0 4.710937-3.820312 8.53125-8.535156 8.53125zm-128-17.066407h119.46875v-25.597656h-119.46875zm0 0"/><path d="m324.265625 315.734375h-136.53125c-37.6875-.042969-68.222656-30.582031-68.269531-68.269531v-34.132813c0-3.230469 1.828125-6.1875 4.71875-7.632812 14.617187-7.308594 29.417968-30.484375 29.417968-60.632813 0-42.667968 74.390626-42.667968 102.398438-42.667968s102.398438 0 102.398438 42.667968c0 30.148438 14.800781 53.324219 29.417968 60.632813 2.890625 1.445312 4.71875 4.402343 4.71875 7.632812v34.132813c-.046875 37.6875-30.582031 68.226562-68.269531 68.269531zm-187.730469-97.5v29.230469c.027344 28.265625 22.933594 51.171875 51.199219 51.203125h136.53125c28.265625-.03125 51.171875-22.9375 51.199219-51.203125v-29.230469c-22.613282-17.375-35.351563-44.675781-34.132813-73.167969 0-16.980468-28.707031-25.601562-85.332031-25.601562s-85.332031 8.621094-85.332031 25.601562c1.21875 28.492188-11.519531 55.792969-34.132813 73.167969zm0 0"/><path d="m102.398438 512h-93.863282c-4.714844 0-8.535156-3.820312-8.535156-8.535156v-7.59375c-.0078125-11.621094 1.394531-23.199219 4.175781-34.484375l7.9375-32.15625c10.023438-37.449219 44.359375-63.183594 83.117188-62.296875h8.023437c4.710938 0 8.53125 3.820312 8.53125 8.53125 0 4.714844-3.820312 8.535156-8.53125 8.535156h-8.023437c-30.898438-.871094-58.390625 19.496094-66.558594 49.308594l-7.9375 32.171875c-2.371094 9.636719-3.605469 19.523437-3.667969 29.453125h85.332032c4.714843 0 8.535156 3.820312 8.535156 8.53125 0 4.714844-3.820313 8.535156-8.535156 8.535156zm0 0"/><path d="m503.464844 512h-93.863282c-4.714843 0-8.535156-3.820312-8.535156-8.535156 0-4.710938 3.820313-8.53125 8.535156-8.53125h85.332032c-.066406-9.921875-1.300782-19.804688-3.675782-29.441406l-7.9375-32.167969c-8.160156-29.820313-35.648437-50.191407-66.550781-49.324219h-7.9375c-4.710937 0-8.535156-3.820312-8.535156-8.535156 0-4.710938 3.824219-8.53125 8.535156-8.53125h7.9375c38.761719-.890625 73.105469 24.851562 83.125 62.308594l7.933594 32.15625c2.78125 11.28125 4.179687 22.855468 4.171875 34.472656v7.59375c0 4.714844-3.820312 8.535156-8.535156 8.535156zm0 0"/><path d="m384 251.390625c-3.523438.003906-6.6875-2.164063-7.960938-5.449219-1.273437-3.285156-.394531-7.019531 2.210938-9.390625 12.1875-11.371093 20.765625-26.066406 24.675781-42.265625.257813-1.078125.722657-2.09375 1.363281-2.992187.203126-.285157 20.886719-29.808594 7.925782-50.175781-1.414063-2.226563-1.71875-4.976563-.832032-7.460938 3.734376-10.457031 11.507813-41.007812 2.808594-56.523438-2.667968-4.851562-7.429687-8.195312-12.898437-9.050781-3.957031-.824219-6.792969-4.308593-6.792969-8.347656-.023438.007813-1.523438-11.417969-23.964844-24.308594-3.230468 1.824219-5.96875 4.40625-7.976562 7.523438-.003906 3.582031-2.292969 6.765625-5.691406 7.902343-3.441407 1.148438-7.230469.011719-9.46875-2.84375-6.898438-8.113281-15.09375-15.03125-24.25-20.472656l-12.007813 12.507813c-3.035156 3.152343-7.964844 3.5-11.414063.808593-12.625-9.875-34.535156-23.785156-43.726562-23.785156s-31.101562 13.910156-43.726562 23.785156c-3.449219 2.6875-8.375 2.339844-11.414063-.808593l-12.007813-12.507813c-9.167968 5.421875-17.359374 12.339844-24.242187 20.464844-2.265625 2.824219-6.066406 3.910156-9.484375 2.710938-3.417969-1.199219-5.703125-4.421876-5.707031-8.042969-2.085938-2.964844-4.796875-5.4375-7.941407-7.242188-22.667968 13.007813-23.976562 24.550781-23.984374 24.675781-.328126 3.832032-3.050782 7.035157-6.78125 7.980469-5.472657.859375-10.242188 4.203125-12.910157 9.058594-8.726562 15.59375-.925781 46.082031 2.816407 56.507813.890624 2.484374.582031 5.242187-.835938 7.46875-12.832031 20.167968 7.71875 49.882812 7.925781 50.175781.644531.898437 1.105469 1.914062 1.367188 2.992187 3.90625 16.199219 12.488281 30.898438 24.675781 42.265625 2.25 2.054688 3.238281 5.15625 2.585938 8.132813-.652344 2.980468-2.84375 5.382812-5.75 6.308594-2.90625.925781-6.082032.230468-8.335938-1.824219-14.363281-13.269531-24.574219-30.417969-29.394531-49.367188-4.648438-7.042969-23.03125-37.734375-9.574219-64.175781-3.691406-11.699219-12.484375-45.183594-.375-66.816406 4.113281-7.441406 10.828125-13.097656 18.859375-15.890625 2.722656-8.066407 10.984375-21.851563 35.933594-34.882813 2.476562-1.289062 5.429687-1.285156 7.90625.007813 5.207031 2.691406 9.964843 6.167969 14.109375 10.308593 8.015625-7.835937 17.285156-14.28125 27.425781-19.066406 3.289063-1.480468 7.15625-.730468 9.648437 1.878906l11.144532 11.605469c11.300781-8.203125 33.433594-22.769531 48.066406-22.769531s36.765625 14.566406 48.066406 22.765625l11.140625-11.605469c2.496094-2.605468 6.363281-3.355468 9.652344-1.875 10.136719 4.785156 19.40625 11.230469 27.425781 19.066406 4.144532-4.140624 8.902344-7.617187 14.105469-10.308593 2.476563-1.292969 5.429687-1.296875 7.910156-.007813 24.949219 13.03125 33.207031 26.816406 35.933594 34.882813 8.03125 2.789062 14.746094 8.449219 18.859375 15.890625 12.105469 21.632812 3.316406 55.117187-.378906 66.816406 13.460937 26.441406-4.921875 57.132812-9.574219 64.175781-4.820313 18.949219-15.027344 36.097657-29.390625 49.367188-1.570312 1.433593-3.621094 2.226562-5.75 2.222656zm0 0"/><path d="m170.667969 221.867188c0 4.710937-3.820313 8.53125-8.535157 8.53125-4.710937 0-8.53125-3.820313-8.53125-8.53125 0-4.714844 3.820313-8.535157 8.53125-8.535157 4.714844 0 8.535157 3.820313 8.535157 8.535157zm0 0"/><path d="m170.667969 247.464844c0 4.714844-3.820313 8.535156-8.535157 8.535156-4.710937 0-8.53125-3.820312-8.53125-8.535156 0-4.710938 3.820313-8.53125 8.53125-8.53125 4.714844 0 8.535157 3.820312 8.535157 8.53125zm0 0"/><path d="m196.265625 247.464844c0 4.714844-3.820313 8.535156-8.53125 8.535156-4.714844 0-8.535156-3.820312-8.535156-8.535156 0-4.710938 3.820312-8.53125 8.535156-8.53125 4.710937 0 8.53125 3.820312 8.53125 8.53125zm0 0"/><path d="m196.265625 273.066406c0 4.714844-3.820313 8.535156-8.53125 8.535156-4.714844 0-8.535156-3.820312-8.535156-8.535156 0-4.710937 3.820312-8.53125 8.535156-8.53125 4.710937 0 8.53125 3.820313 8.53125 8.53125zm0 0"/><path d="m221.867188 273.066406c0 4.714844-3.820313 8.535156-8.535157 8.535156-4.710937 0-8.53125-3.820312-8.53125-8.535156 0-4.710937 3.820313-8.53125 8.53125-8.53125 4.714844 0 8.535157 3.820313 8.535157 8.53125zm0 0"/><path d="m358.398438 221.867188c0 4.710937-3.820313 8.53125-8.53125 8.53125-4.714844 0-8.535157-3.820313-8.535157-8.53125 0-4.714844 3.820313-8.535157 8.535157-8.535157 4.710937 0 8.53125 3.820313 8.53125 8.535157zm0 0"/><path d="m358.398438 247.464844c0 4.714844-3.820313 8.535156-8.53125 8.535156-4.714844 0-8.535157-3.820312-8.535157-8.535156 0-4.710938 3.820313-8.53125 8.535157-8.53125 4.710937 0 8.53125 3.820312 8.53125 8.53125zm0 0"/><path d="m332.800781 247.464844c0 4.714844-3.820312 8.535156-8.535156 8.535156-4.710937 0-8.53125-3.820312-8.53125-8.535156 0-4.710938 3.820313-8.53125 8.53125-8.53125 4.714844 0 8.535156 3.820312 8.535156 8.53125zm0 0"/><path d="m332.800781 273.066406c0 4.714844-3.820312 8.535156-8.535156 8.535156-4.710937 0-8.53125-3.820312-8.53125-8.535156 0-4.710937 3.820313-8.53125 8.53125-8.53125 4.714844 0 8.535156 3.820313 8.535156 8.53125zm0 0"/><path d="m307.199219 273.066406c0 4.714844-3.820313 8.535156-8.53125 8.535156-4.714844 0-8.535157-3.820312-8.535157-8.535156 0-4.710937 3.820313-8.53125 8.535157-8.53125 4.710937 0 8.53125 3.820313 8.53125 8.53125zm0 0"/><path d="m179.199219 418.132812c-4.710938 0-8.53125-3.820312-8.53125-8.53125v-51.203124h-17.066407v51.203124c0 4.710938-3.820312 8.53125-8.535156 8.53125-4.710937 0-8.53125-3.820312-8.53125-8.53125v-59.734374c0-4.714844 3.820313-8.535157 8.53125-8.535157h34.132813c4.714843 0 8.535156 3.820313 8.535156 8.535157v59.734374c0 4.710938-3.820313 8.53125-8.535156 8.53125zm0 0"/><path d="m179.199219 512h-34.132813c-4.710937 0-8.53125-3.820312-8.53125-8.535156v-42.664063c0-4.714843 3.820313-8.535156 8.53125-8.535156 4.714844 0 8.535156 3.820313 8.535156 8.535156v34.132813h17.066407v-34.132813c0-4.714843 3.820312-8.535156 8.53125-8.535156 4.714843 0 8.535156 3.820313 8.535156 8.535156v42.664063c0 4.714844-3.820313 8.535156-8.535156 8.535156zm0 0"/><path d="m179.199219 469.332031h-34.132813c-9.421875-.011719-17.054687-7.644531-17.066406-17.066406v-34.132813c.011719-9.417968 7.644531-17.054687 17.066406-17.066406h34.132813c9.421875.011719 17.054687 7.648438 17.066406 17.066406v34.132813c-.011719 9.421875-7.644531 17.054687-17.066406 17.066406zm-34.132813-51.199219v34.132813h34.152344l-.019531-34.132813zm0 0"/><path d="m366.933594 418.132812c-4.714844 0-8.535156-3.820312-8.535156-8.53125v-51.203124h-17.066407v51.203124c0 4.710938-3.820312 8.53125-8.53125 8.53125-4.714843 0-8.535156-3.820312-8.535156-8.53125v-59.734374c0-4.714844 3.820313-8.535157 8.535156-8.535157h34.132813c4.710937 0 8.53125 3.820313 8.53125 8.535157v59.734374c0 4.710938-3.820313 8.53125-8.53125 8.53125zm0 0"/><path d="m366.933594 512h-34.132813c-4.714843 0-8.535156-3.820312-8.535156-8.535156v-42.664063c0-4.714843 3.820313-8.535156 8.535156-8.535156 4.710938 0 8.53125 3.820313 8.53125 8.535156v34.132813h17.066407v-34.132813c0-4.714843 3.820312-8.535156 8.535156-8.535156 4.710937 0 8.53125 3.820313 8.53125 8.535156v42.664063c0 4.714844-3.820313 8.535156-8.53125 8.535156zm0 0"/><path d="m366.933594 469.332031h-34.132813c-9.421875-.011719-17.054687-7.644531-17.066406-17.066406v-34.132813c.011719-9.417968 7.644531-17.054687 17.066406-17.066406h34.132813c9.421875.011719 17.054687 7.648438 17.066406 17.066406v34.132813c-.011719 9.421875-7.644531 17.054687-17.066406 17.066406zm-34.132813-51.199219v34.132813h34.148438l-.015625-34.132813zm0 0"/><path d="m256 512c-4.710938 0-8.535156-3.820312-8.535156-8.535156v-102.398438c0-4.710937 3.824218-8.53125 8.535156-8.53125s8.535156 3.820313 8.535156 8.53125v102.398438c0 4.714844-3.824218 8.535156-8.535156 8.535156zm0 0"/><path d="m460.800781 397.054688c-4.714843 0-8.535156-3.820313-8.535156-8.53125v-72.789063c-.011719-9.421875-7.644531-17.054687-17.066406-17.066406h-69.203125c-4.714844 0-8.535156-3.820313-8.535156-8.535157 0-4.710937 3.820312-8.53125 8.535156-8.53125h69.203125c18.84375.015626 34.117187 15.289063 34.132812 34.132813v72.789063c0 4.710937-3.820312 8.53125-8.53125 8.53125zm0 0"/><path d="m51.199219 397.054688c-4.710938 0-8.53125-3.820313-8.53125-8.53125v-72.789063c.015625-18.84375 15.289062-34.117187 34.132812-34.132813h69.203125c4.714844 0 8.535156 3.820313 8.535156 8.53125 0 4.714844-3.820312 8.535157-8.535156 8.535157h-69.203125c-9.421875.011719-17.054687 7.644531-17.066406 17.066406v72.789063c0 4.710937-3.820313 8.53125-8.535156 8.53125zm0 0"/></svg>