<svg height="512pt" viewBox="0 0 512.00016 512" width="512pt" xmlns="http://www.w3.org/2000/svg"><path d="m409.601562 503.464844h93.867188l-.003906-7.59375c.015625-10.925782-1.300782-21.816406-3.921875-32.425782l-7.9375-32.171874c-9.203125-33.554688-40.046875-56.558594-74.835938-55.808594h-321.539062c-34.789063-.75-65.628907 22.253906-74.835938 55.808594l-7.9375 32.171874c-2.621093 10.609376-3.9375 21.5-3.921875 32.425782v7.59375zm0 0" fill="#e91e63"/><path d="m392.535156 349.867188c59.730469 0 77.566406-51.199219 60.5-76.800782-21.414062-29.925781-33.3125-65.609375-34.132812-102.398437 0-42.667969-8.535156-93.867188-42.667969-110.933594s-93.867187-51.199219-119.464844-51.199219h-.769531c-25.601562 0-85.332031 34.132813-119.464844 51.199219-34.136718 17.066406-42.667968 68.265625-42.667968 110.933594-.824219 36.789062-12.71875 72.472656-34.132813 102.398437-17.066406 25.601563 0 76.800782 59.730469 76.800782l105.601562 93.867187h74.132813zm0 0" fill="#9d27b0"/><path d="m384 170.667969v42.664062c-8.535156 8.535157-25.601562 17.066407-59.734375 17.066407s-51.199219-25.597657-68.265625-25.597657-34.132812 25.597657-68.265625 25.597657-51.199219-8.53125-59.734375-17.066407v-42.664062c0-17.066407 17.066406-42.667969 42.667969-59.734375 25.597656-17.066406 59.730469 25.601562 85.332031 25.601562s59.734375-42.667968 85.332031-25.601562c6.265625 4.160156 12.121094 8.902344 17.496094 14.164062 15.613281 15.191406 25.171875 32.769532 25.171875 45.570313zm0 0" fill="#ffdc00"/><path d="m155.136719 414.378906c-12.003907 28.183594-18.328125 58.457032-18.601563 89.085938h-59.734375l28.925781-139.945313c2.945313-8.820312 11.558594-14.46875 20.824219-13.652343h44.117188c-15.773438-.003907-29.496094 10.800781-33.1875 26.136718-3.691407 15.332032 3.609375 31.199219 17.65625 38.375zm0 0" fill="#783e22"/><path d="m435.199219 503.464844h-298.664063c.273438-30.628906 6.597656-60.902344 18.601563-89.085938 8.179687 4.199219 17.710937 4.90625 26.425781 1.964844 8.710938-2.941406 15.863281-9.28125 19.824219-17.582031 70.175781 29.382812 145.449219 44.664062 221.523437 44.972656zm0 0" fill="#607d8b"/><path d="m201.386719 398.761719c2.269531-4.585938 3.4375-9.640625 3.414062-14.761719 0-9.054688-3.59375-17.738281-9.996093-24.136719-6.402344-6.402343-15.085938-10-24.136719-9.996093h26.367187c16.09375 15.113281 36.9375 24.160156 58.964844 25.597656 22.027344-1.4375 42.875-10.484375 58.964844-25.597656h70.484375c9.285156-.816407 17.921875 4.824218 20.90625 13.652343l16.554687 80.214844c-76.074218-.308594-151.347656-15.589844-221.523437-44.972656zm0 0" fill="#783e22"/><path d="m401.066406 281.601562c0 25.597657-51.199218 34.132813-76.800781 59.730469-3.070313 3.074219-6.226563 5.976563-9.300781 8.535157-16.089844 15.113281-36.9375 24.160156-58.964844 25.597656-22.027344-1.4375-42.871094-10.484375-58.964844-25.597656-3.074218-2.558594-6.230468-5.460938-9.300781-8.535157-25.601563-25.597656-76.800781-34.132812-76.800781-59.730469 0-25.601562 8.53125-76.800781 17.066406-68.269531 8.535156 8.535157 25.601562 17.066407 59.734375 17.066407s51.199219-25.597657 68.265625-25.597657 34.132812 25.597657 68.265625 25.597657 51.199219-8.53125 59.734375-17.066407c8.535156-8.53125 17.066406 42.667969 17.066406 68.269531zm0 0" fill="#6a1b9a"/><path d="m204.800781 384c.023438 5.121094-1.144531 10.175781-3.414062 14.761719-7.5625 15.589843-25.625 23.007812-41.960938 17.242187-16.335937-5.769531-25.730469-22.886718-21.828125-39.765625 3.902344-16.878906 19.859375-28.136719 37.070313-26.148437 17.207031 1.988281 30.179687 16.585937 30.132812 33.910156zm0 0" fill="#ffdc00"/><path d="m232.042969 163.96875c-7.402344-4.460938-15.445313-7.765625-23.84375-9.796875-11.230469-3.054687-23.101563-2.8125-34.199219.6875 3.964844-14.441406 38.523438-10.804687 54.417969-3.839844 2.570312.832031 4.554687 2.898438 5.285156 5.503907.726563 2.601562.105469 5.398437-1.660156 7.445312zm0 0"/><path d="m230.398438 180.746094c0-10.101563-7.640626-18.292969-17.066407-18.292969s-17.066406 8.191406-17.066406 18.292969c0 10.101562 7.640625 18.292968 17.066406 18.292968s17.066407-8.191406 17.066407-18.292968zm0 0"/><path d="m218.117188 164.875c-4.402344-1.675781-9.332032.535156-11.007813 4.941406s.535156 9.335938 4.941406 11.007813c4.40625 1.675781 9.335938-.535157 11.007813-4.941407 1.675781-4.402343-.535156-9.332031-4.941406-11.007812zm0 0" fill="#fff"/><path d="m279.046875 165.757812c6.050781-7.96875 14.457031-13.828124 24.027344-16.742187 12.871093-3.433594 26.5625.914063 35.09375 11.140625-.132813-.128906.132812-2.847656.085937-3.273438-.140625-1.105468-.4375-2.183593-.886718-3.207031-1.003907-2.175781-2.480469-4.105469-4.320313-5.644531-4.582031-3.71875-10.035156-6.214844-15.84375-7.246094-7.722656-1.746094-15.773437-1.347656-23.28125 1.152344-4.523437 1.5625-8.683594 4.015625-12.238281 7.214844-3.136719 2.867187-7.777344 8.148437-5.761719 12.957031.933594 1.308594 1.976563 2.527344 3.125 3.648437zm0 0"/><path d="m315.734375 180.746094c0-10.101563-7.640625-18.292969-17.066406-18.292969s-17.066407 8.191406-17.066407 18.292969c0 10.101562 7.640626 18.292968 17.066407 18.292968s17.066406-8.191406 17.066406-18.292968zm0 0"/><path d="m304.890625 169.816406c-1.675781-4.40625-6.605469-6.617187-11.007813-4.941406-4.40625 1.675781-6.617187 6.601562-4.941406 11.007812 1.671875 4.40625 6.601563 6.617188 11.007813 4.941407s6.617187-6.601563 4.941406-11.007813zm0 0" fill="#fff"/><path d="m435.199219 512h-358.398438c-2.566406 0-4.996093-1.152344-6.617187-3.144531-1.621094-1.988281-2.261719-4.601563-1.742188-7.113281l28.929688-139.945313c3.6875-12.847656 15.84375-21.371094 29.179687-20.464844h70.484375c4.710938 0 8.53125 3.820313 8.53125 8.535157 0 4.710937-3.820312 8.53125-8.53125 8.53125h-70.484375c-5.167969-.644532-10.171875 2.070312-12.445312 6.75l-26.828125 129.785156h337.453125l-26.730469-129.691406c-2.300781-4.71875-7.335938-7.464844-12.550781-6.84375h-70.484375c-4.710938 0-8.53125-3.820313-8.53125-8.53125 0-4.714844 3.820312-8.535157 8.53125-8.535157h70.484375c13.339843-.859375 25.496093 7.636719 29.269531 20.460938l28.84375 139.945312c.519531 2.515625-.121094 5.128907-1.742188 7.121094-1.621093 1.988281-4.054687 3.140625-6.621093 3.140625zm0 0"/><path d="m384 221.867188c-4.710938 0-8.535156-3.820313-8.535156-8.535157v-42.664062c0-13.136719-14.535156-36.417969-38.863282-52.636719-9.953124-6.640625-23.019531.257812-41.835937 11.503906-12.769531 7.632813-25.976563 15.53125-38.765625 15.53125s-25.996094-7.898437-38.765625-15.53125c-18.808594-11.242187-31.886719-18.132812-41.835937-11.5-24.328126 16.214844-38.863282 39.496094-38.863282 52.632813v42.664062c0 4.714844-3.820312 8.535157-8.535156 8.535157-4.710938 0-8.535156-3.820313-8.535156-8.535157v-42.664062c0-20.777344 19.542968-48.882813 46.46875-66.835938 19.664062-13.097656 41.125-.265625 60.058594 11.050781 10.78125 6.449219 21.933593 13.117188 30.007812 13.117188s19.226562-6.667969 30.007812-13.117188c18.9375-11.308593 40.40625-24.148437 60.058594-11.050781 26.925782 17.953125 46.46875 46.058594 46.46875 66.835938v42.664062c0 4.714844-3.820312 8.535157-8.535156 8.535157zm0 0"/><path d="m102.398438 512h-93.863282c-4.714844 0-8.535156-3.820312-8.535156-8.535156v-7.59375c-.0117188-11.621094 1.390625-23.207032 4.175781-34.492188l7.9375-32.148437c10.019531-37.453125 44.359375-63.1875 83.117188-62.296875h8.023437c4.710938 0 8.53125 3.820312 8.53125 8.53125 0 4.714844-3.820312 8.535156-8.53125 8.535156h-8.023437c-30.898438-.875-58.386719 19.496094-66.550781 49.308594l-7.9375 32.171875c-2.378907 9.636719-3.613282 19.523437-3.671876 29.453125h85.328126c4.714843 0 8.535156 3.820312 8.535156 8.53125 0 4.714844-3.820313 8.535156-8.535156 8.535156zm0 0"/><path d="m503.464844 512h-93.863282c-4.714843 0-8.535156-3.820312-8.535156-8.535156 0-4.710938 3.820313-8.53125 8.535156-8.53125h85.332032c-.058594-9.921875-1.289063-19.800782-3.667969-29.433594l-7.9375-32.183594c-8.160156-29.820312-35.65625-50.191406-66.558594-49.316406h-7.9375c-4.710937 0-8.535156-3.820312-8.535156-8.535156 0-4.710938 3.824219-8.53125 8.535156-8.53125h7.9375c38.761719-.890625 73.105469 24.851562 83.125 62.308594l7.933594 32.15625c2.785156 11.28125 4.183594 22.855468 4.171875 34.472656v7.59375c0 4.714844-3.820312 8.535156-8.535156 8.535156zm0 0"/><path d="m392.535156 358.398438c-4.714844 0-8.535156-3.820313-8.535156-8.53125 0-4.714844 3.820312-8.535157 8.535156-8.535157 24.542969 0 43.886719-9.824219 53.058594-26.964843 6.59375-11.265626 6.722656-25.179688.339844-36.566407-22.429688-31.285156-34.832032-68.644531-35.566406-107.132812 0-31.488281-4.929688-86.792969-37.949219-103.300781-6.390625-3.199219-13.671875-6.984376-21.457031-11.042969-31.84375-16.566407-75.449219-39.257813-94.191407-39.257813-19.515625 0-63.117187 22.691406-94.960937 39.257813-7.785156 4.058593-15.066406 7.84375-21.457032 11.042969-33.023437 16.507812-37.953124 71.8125-37.953124 103.300781-.734376 38.488281-13.136719 75.847656-35.566407 107.132812-6.507812 11.492188-6.421875 25.578125.21875 36.992188 9.023438 16.867187 28.132813 26.539062 52.414063 26.539062 4.714844 0 8.535156 3.820313 8.535156 8.535157 0 4.710937-3.820312 8.53125-8.535156 8.53125-30.78125 0-55.371094-12.957032-67.464844-35.558594-9.683594-16.9375-9.441406-37.792969.632812-54.507813 20.65625-28.433593 32.070313-62.527343 32.699219-97.664062 0-43.285157 8.222657-98.988281 47.382813-118.566407 6.316406-3.160156 13.519531-6.914062 21.214844-10.910156 37.097656-19.308594 79.148437-41.191406 102.070312-41.191406 23.6875 0 65.738281 21.882812 102.835938 41.191406 7.695312 4 14.898437 7.75 21.214843 10.910156 39.160157 19.578126 47.382813 75.28125 47.382813 118.566407.628906 35.136719 12.046875 69.230469 32.703125 97.664062 9.953125 16.605469 10.144531 37.296875.503906 54.085938-12.242187 22.867187-37.0625 35.980469-68.105469 35.980469zm0 0"/><path d="m384 179.199219c-4.710938 0-8.535156-3.820313-8.535156-8.53125 0-13.136719-14.535156-36.417969-38.863282-52.636719-9.953124-6.640625-23.019531.257812-41.835937 11.503906-12.769531 7.632813-25.976563 15.53125-38.765625 15.53125s-25.996094-7.898437-38.765625-15.53125c-18.808594-11.242187-31.886719-18.132812-41.835937-11.5-24.328126 16.214844-38.863282 39.496094-38.863282 52.632813 0 4.710937-3.820312 8.53125-8.535156 8.53125-4.710938 0-8.535156-3.820313-8.535156-8.53125 0-20.777344 19.542968-48.882813 46.46875-66.835938 19.664062-13.097656 41.125-.265625 60.058594 11.050781 10.78125 6.449219 21.933593 13.117188 30.007812 13.117188s19.226562-6.667969 30.007812-13.117188c18.9375-11.308593 40.40625-24.148437 60.058594-11.050781 26.925782 17.953125 46.46875 46.058594 46.46875 66.835938 0 4.710937-3.820312 8.53125-8.535156 8.53125zm0 0"/><path d="m256 384c-11.324219 0-41.238281-3.566406-74.300781-36.632812-11.109375-9.683594-23.589844-17.671876-37.035157-23.707032-21.734374-11.191406-42.265624-21.769531-42.265624-42.058594 0-.695312 2.078124-69.683593 19.550781-76.917968 4.183593-1.710938 8.984375-.671875 12.082031 2.617187 6.648438 6.640625 21.359375 14.566407 53.703125 14.566407 14.941406-.714844 29.332031-5.855469 41.339844-14.773438 7.800781-6.035156 17.121093-9.78125 26.925781-10.828125 9.804688 1.046875 19.125 4.792969 26.925781 10.828125 12.007813 8.917969 26.398438 14.058594 41.339844 14.773438 32.34375 0 47.054687-7.925782 53.703125-14.566407 3.097656-3.289062 7.898438-4.328125 12.082031-2.617187 17.472657 7.234375 19.550781 76.222656 19.550781 76.917968 0 20.289063-20.53125 30.867188-42.269531 42.058594-13.445312 6.035156-25.921875 14.023438-37.03125 23.707032-33.0625 33.066406-62.976562 36.632812-74.300781 36.632812zm-128.210938-159.675781c-5.226562 18.65625-8.023437 37.90625-8.324218 57.277343 0 9.882813 16.039062 18.140626 33.015625 26.878907 15.03125 6.816406 28.949219 15.855469 41.285156 26.820312 29.355469 29.347657 55.054687 31.632813 62.234375 31.632813s32.878906-2.285156 62.234375-31.632813c12.335937-10.964843 26.253906-20.003906 41.285156-26.820312 16.976563-8.738281 33.015625-16.996094 33.015625-26.878907-.300781-19.371093-3.097656-38.621093-8.324218-57.277343-13.351563 9.699219-33.46875 14.609375-59.945313 14.609375-18.140625-.613282-35.679687-6.65625-50.34375-17.351563-5.257813-4.097656-11.390625-6.921875-17.921875-8.25-6.53125 1.328125-12.664062 4.152344-17.921875 8.25-14.664063 10.695313-32.203125 16.738281-50.34375 17.351563-26.476563 0-46.59375-4.910156-59.945313-14.609375zm0 0"/><path d="m170.667969 273.066406c-21.046875.828125-42.011719-3.046875-61.371094-11.339844-2.839844-1.265624-4.769531-3.96875-5.035156-7.066406-.265625-3.09375 1.167969-6.089844 3.75-7.820312 2.582031-1.730469 5.898437-1.921875 8.660156-.496094 17.0625 7.167969 35.503906 10.464844 53.996094 9.65625 47.585937 0 64.386719-7.609375 64.550781-7.679688 4.226562-2.082031 9.34375-.339843 11.421875 3.890626 2.082031 4.230468.339844 9.34375-3.890625 11.425781-1.933594.964843-20.363281 9.429687-72.082031 9.429687zm0 0"/><path d="m341.332031 273.066406c-51.71875 0-70.148437-8.464844-72.082031-9.433594-4.214844-2.109374-5.925781-7.234374-3.816406-11.449218s7.234375-5.925782 11.449218-3.816406c.0625.023437 16.863282 7.632812 64.449219 7.632812 18.492188.808594 36.933594-2.488281 53.996094-9.65625 2.761719-1.425781 6.078125-1.234375 8.660156.496094 2.582031 1.730468 4.015625 4.726562 3.75 7.820312-.265625 3.097656-2.195312 5.800782-5.035156 7.066406-19.359375 8.292969-40.324219 12.167969-61.371094 11.339844zm0 0"/><path d="m256 324.265625c-18.027344-.960937-35.890625-3.90625-53.269531-8.789063-21.0625-4.523437-42.929688-3.636718-63.554688 2.585938-2.949219.867188-6.140625.078125-8.347656-2.0625s-3.09375-5.300781-2.316406-8.277344c.777343-2.976562 3.089843-5.304687 6.0625-6.09375 23.480469-7.023437 48.359375-7.953125 72.296875-2.699218 16.046875 4.476562 32.523437 7.253906 49.152344 8.277343 16.613281-1.03125 33.074218-3.804687 49.109374-8.277343 23.863282-5.242188 48.667969-4.332032 72.082032 2.640624 4.183594 1.023438 6.945312 5.011719 6.4375 9.289063-.511719 4.277344-4.128906 7.503906-8.4375 7.519531h-.085938c-.777344 0-1.554687-.105468-2.304687-.316406-20.625-6.21875-42.488281-7.109375-63.550781-2.582031-17.382813 4.878906-35.246094 7.824219-53.273438 8.785156zm0 0"/><path d="m170.667969 426.667969c-23.566407 0-42.667969-19.105469-42.667969-42.667969s19.101562-42.667969 42.667969-42.667969c23.5625 0 42.664062 19.105469 42.664062 42.667969-.027343 23.550781-19.113281 42.640625-42.664062 42.667969zm0-68.269531c-14.140625 0-25.601563 11.464843-25.601563 25.601562s11.460938 25.601562 25.601563 25.601562c14.136719 0 25.597656-11.464843 25.597656-25.601562-.015625-14.132812-11.46875-25.585938-25.597656-25.601562zm0 0"/><path d="m136.535156 512c-4.714844 0-8.535156-3.820312-8.535156-8.535156.300781-31.765625 6.847656-63.160156 19.269531-92.398438 1.828125-4.34375 6.832031-6.386718 11.175781-4.558594 4.34375 1.828126 6.386719 6.832032 4.558594 11.175782-11.546875 27.140625-17.640625 56.289062-17.9375 85.78125 0 4.714844-3.820312 8.535156-8.53125 8.535156zm0 0"/><path d="m422.910156 452.265625h-.058594c-77.203124-.390625-153.585937-15.902344-224.828124-45.65625-2.851563-1.167969-4.855469-3.78125-5.238282-6.84375-.382812-3.058594.914063-6.085937 3.394532-7.917969 2.480468-1.835937 5.757812-2.1875 8.570312-.921875 69.152344 28.863281 143.289062 43.90625 218.222656 44.273438 4.710938.015625 8.519532 3.851562 8.503906 8.5625-.015624 4.714843-3.851562 8.519531-8.5625 8.503906zm0 0"/><path d="m281.589844 512c-1.320313 0-2.625-.308594-3.808594-.898438-30.753906-14.796874-57.96875-36.023437-79.808594-62.25-1.832031-2.4375-2.222656-5.664062-1.027344-8.46875 1.195313-2.804687 3.796876-4.757812 6.824219-5.125 3.027344-.367187 6.019531.90625 7.847657 3.34375 20.339843 24.015626 45.476562 43.511719 73.796874 57.234376 3.539063 1.773437 5.394532 5.746093 4.484376 9.59375-.910157 3.851562-4.351563 6.570312-8.308594 6.570312zm0 0"/></svg>