<svg height="512pt" viewBox="0 0 512.00011 512" width="512pt" xmlns="http://www.w3.org/2000/svg"><path d="m409.601562 503.464844h93.867188l-.003906-7.59375c.015625-10.925782-1.300782-21.816406-3.921875-32.425782l-7.9375-32.171874c-9.203125-33.554688-40.046875-56.558594-74.835938-55.808594h-321.539062c-34.789063-.75-65.628907 22.253906-74.835938 55.808594l-7.9375 32.171874c-2.621093 10.609376-3.9375 21.5-3.921875 32.425782v7.59375zm0 0" fill="#ffe0b2"/><path d="m435.199219 503.464844h-358.398438l4.09375-19.796875 16.640625-80.382813 8.191406-39.765625c2.945313-8.820312 11.558594-14.46875 20.824219-13.652343h258.898438c9.285156-.816407 17.921875 4.824218 20.90625 13.652343l8.195312 39.679688 16.554688 80.46875zm0 0" fill="#ffdc00"/><path d="m118.722656 503.464844 16.558594-112.179688c.621094-4.183594 4.210938-7.285156 8.441406-7.285156h224.640625c4.234375 0 7.828125 3.105469 8.441407 7.292969l16.496093 112.171875zm0 0" fill="#37474f"/><path d="m187.734375 307.199219h136.53125v42.667969h-136.53125zm0 0" fill="#dfc49c"/><path d="m384 230.398438v17.066406c.011719 15.847656-6.277344 31.046875-17.484375 42.253906-11.203125 11.203125-26.402344 17.492188-42.25 17.480469h-136.53125c-15.847656.011719-31.046875-6.277344-42.25-17.480469-11.207031-11.207031-17.496094-26.40625-17.484375-42.253906v-17.066406c34.132812-34.132813 8.535156-119.464844 25.601562-136.53125 17.066407-17.066407 68.265626 34.132812 102.398438 34.132812s85.332031-51.199219 102.398438-34.132812c17.066406 17.066406-8.53125 102.398437 25.601562 136.53125zm0 0" fill="#ffe0b2"/><path d="m221.859375 256.234375c-4.757813-.109375-8.550781-4.011719-8.527344-8.769531 0-1.039063.484375-25.597656 42.667969-25.597656s42.667969 24.558593 42.667969 25.597656c.015625 4.644531-3.6875 8.449218-8.332031 8.5625-4.640626.109375-8.519532-3.511719-8.726563-8.152344-.492187-3.132812-6.4375-8.941406-25.609375-8.941406-19.308594 0-25.199219 5.886718-25.621094 9.007812-.003906 2.238282-.914062 4.378906-2.515625 5.9375-1.605469 1.5625-3.769531 2.410156-6.003906 2.355469zm0 0"/><path d="m442.964844 76.800781c4.792968 12.027344 1.355468 25.773438-8.53125 34.132813 0 0 0 34.132812-17.066406 42.667968-.085938 14.636719-2.980469 29.121094-8.535157 42.664063 0 0 16.894531 42.15625-24.832031 51.03125v-16.898437c-34.132812-34.132813-8.535156-119.464844-25.601562-136.53125-17.066407-17.066407-68.265626 34.132812-102.398438 34.132812s-85.332031-51.199219-102.398438-34.132812c-17.066406 17.066406 8.53125 102.398437-25.601562 136.53125v17.066406c-42.667969-8.53125-25.601562-51.199219-25.601562-51.199219-5.550782-13.542969-8.449219-28.027344-8.53125-42.664063-17.066407-8.535156-17.066407-42.667968-17.066407-42.667968-9.890625-8.359375-13.324219-22.105469-8.535156-34.132813-17.066406-17.066406-25.597656-68.265625-8.53125-68.265625s51.199219 17.066406 51.199219 17.066406c7.171875-5.933593 16.300781-8.976562 25.601562-8.535156 17.066406 0 34.132813 17.066406 34.132813 17.066406s17.066406-17.066406 34.132812-17.066406c10.914063.863282 20.605469 7.324219 25.597657 17.066406 4.96875-9.617187 14.484374-16.046874 25.261718-17.066406 10.757813 1.007813 20.25 7.445313 25.171875 17.066406 4.996094-9.742187 14.683594-16.203124 25.601563-17.066406 17.066406 0 34.132812 17.066406 34.132812 17.066406s17.066406-17.066406 34.132813-17.066406c9.296875-.441406 18.425781 2.601563 25.597656 8.535156 0 0 34.136719-17.066406 51.203125-17.066406s8.53125 51.199219-8.535156 68.265625zm0 0" fill="#37474f"/><g fill="#f0c419"><path d="m158.328125 453.671875-45.066406 29.996094 16.640625-80.382813 30.359375 37.953125c1.496093 1.867188 2.136719 4.277344 1.769531 6.644531-.367188 2.363282-1.710938 4.464844-3.703125 5.789063zm0 0"/><path d="m332.800781 503.464844c-.835937-40.363282-6.566406-80.480469-17.066406-119.464844h-119.46875c-10.5 38.984375-16.230469 79.101562-17.066406 119.464844zm0 0"/><path d="m398.738281 483.667969-45.066406-29.992188c-1.992187-1.328125-3.335937-3.429687-3.703125-5.792969-.367188-2.367187.273438-4.777343 1.769531-6.644531l30.445313-38.039062zm0 0"/></g><path d="m232.042969 163.96875c-7.402344-4.460938-15.445313-7.765625-23.84375-9.796875-11.230469-3.054687-23.101563-2.8125-34.199219.6875 3.964844-14.441406 38.523438-10.804687 54.417969-3.839844 2.570312.832031 4.554687 2.898438 5.285156 5.503907.726563 2.601562.105469 5.398437-1.660156 7.445312zm0 0"/><path d="m230.398438 180.746094c0-10.101563-7.640626-18.292969-17.066407-18.292969s-17.066406 8.191406-17.066406 18.292969c0 10.101562 7.640625 18.292968 17.066406 18.292968s17.066407-8.191406 17.066407-18.292968zm0 0"/><path d="m218.117188 164.875c-4.402344-1.675781-9.332032.535156-11.007813 4.941406s.535156 9.335938 4.941406 11.007813c4.40625 1.675781 9.335938-.535157 11.007813-4.941407 1.675781-4.40625-.535156-9.332031-4.941406-11.007812zm0 0" fill="#fff"/><path d="m279.046875 165.757812c6.050781-7.96875 14.457031-13.828124 24.027344-16.742187 12.871093-3.433594 26.5625.914063 35.09375 11.140625-.132813-.128906.132812-2.847656.085937-3.273438-.140625-1.105468-.4375-2.183593-.886718-3.207031-1.003907-2.175781-2.480469-4.105469-4.320313-5.644531-4.582031-3.71875-10.035156-6.214844-15.84375-7.246094-7.722656-1.746094-15.773437-1.347656-23.28125 1.152344-4.523437 1.5625-8.683594 4.015625-12.238281 7.214844-3.136719 2.867187-7.777344 8.148437-5.761719 12.957031.933594 1.308594 1.976563 2.527344 3.125 3.648437zm0 0"/><path d="m315.734375 180.746094c0-10.101563-7.640625-18.292969-17.066406-18.292969s-17.066407 8.191406-17.066407 18.292969c0 10.101562 7.640626 18.292968 17.066407 18.292968s17.066406-8.191406 17.066406-18.292968zm0 0"/><path d="m304.890625 169.816406c-1.675781-4.40625-6.605469-6.617187-11.007813-4.941406-4.40625 1.675781-6.617187 6.601562-4.941406 11.007812 1.671875 4.40625 6.601563 6.617188 11.007813 4.941407s6.617187-6.601563 4.941406-11.007813zm0 0" fill="#fff"/><path d="m435.199219 512h-358.398438c-2.566406 0-4.996093-1.152344-6.617187-3.144531-1.621094-1.988281-2.261719-4.601563-1.742188-7.113281l28.910156-139.929688c3.726563-12.839844 15.886719-21.359375 29.226563-20.480469h258.894531c13.359375-.886719 25.535156 7.664063 29.234375 20.535157l28.855469 139.875c.519531 2.511718-.121094 5.128906-1.742188 7.117187-1.621093 1.988281-4.054687 3.140625-6.621093 3.140625zm-347.925781-17.066406h337.453124l-26.742187-129.667969c-2.257813-4.742187-7.300781-7.507813-12.511719-6.867187h-258.894531c-5.199219-.632813-10.226563 2.113281-12.503906 6.828124zm0 0"/><path d="m324.265625 358.398438h-136.53125c-4.714844 0-8.535156-3.820313-8.535156-8.53125v-42.667969c0-4.710938 3.820312-8.53125 8.535156-8.53125h136.53125c4.714844 0 8.535156 3.820312 8.535156 8.53125v42.667969c0 4.710937-3.820312 8.53125-8.535156 8.53125zm-128-17.066407h119.46875v-25.597656h-119.46875zm0 0"/><path d="m324.265625 315.734375h-136.53125c-37.6875-.042969-68.222656-30.582031-68.269531-68.269531v-17.066406c0-2.261719.902344-4.433594 2.503906-6.03125 17.445312-17.449219 16.964844-53.535157 16.574219-82.535157-.332031-24.800781-.59375-44.382812 9.023437-54 13.824219-13.796875 36.160156-1.300781 59.808594 11.933594 16.496094 9.234375 35.195312 19.699219 48.625 19.699219s32.128906-10.464844 48.625-19.699219c23.660156-13.234375 46.003906-25.75 59.808594-11.933594 9.617187 9.617188 9.355468 29.199219 9.023437 54-.390625 29-.871093 65.085938 16.574219 82.535157 1.601562 1.597656 2.503906 3.769531 2.503906 6.03125v17.066406c-.046875 37.6875-30.582031 68.226562-68.269531 68.269531zm-187.730469-81.976563v13.707032c.027344 28.265625 22.933594 51.171875 51.199219 51.203125h136.53125c28.265625-.03125 51.171875-22.9375 51.199219-51.203125v-13.707032c-20-22.933593-19.488282-61.183593-19.074219-92.148437.222656-16.566406.496094-37.183594-4.023437-41.710937-4.695313-4.671876-25.578126 7.035156-39.410157 14.765624-19.210937 10.753907-39.078125 21.871094-56.957031 21.871094s-37.746094-11.117187-56.957031-21.867187c-13.832031-7.742188-34.71875-19.457031-39.410157-14.765625-4.523437 4.523437-4.246093 25.144531-4.023437 41.710937.414063 30.960938.925781 69.210938-19.074219 92.144531zm0 0"/><path d="m102.398438 512h-93.863282c-4.714844 0-8.535156-3.820312-8.535156-8.535156v-7.59375c-.0117188-11.621094 1.390625-23.207032 4.175781-34.492188l7.9375-32.148437c10.019531-37.453125 44.359375-63.191407 83.117188-62.296875h8.023437c4.710938 0 8.53125 3.820312 8.53125 8.53125 0 4.714844-3.820312 8.535156-8.53125 8.535156h-8.023437c-30.898438-.875-58.386719 19.496094-66.550781 49.308594l-7.9375 32.171875c-2.378907 9.636719-3.613282 19.523437-3.671876 29.453125h85.328126c4.714843 0 8.535156 3.820312 8.535156 8.53125 0 4.714844-3.820313 8.535156-8.535156 8.535156zm0 0"/><path d="m503.464844 512h-93.863282c-4.714843 0-8.535156-3.820312-8.535156-8.535156 0-4.710938 3.820313-8.53125 8.535156-8.53125h85.332032c-.066406-9.921875-1.300782-19.804688-3.675782-29.441406l-7.9375-32.167969c-8.160156-29.820313-35.648437-50.191407-66.550781-49.324219h-7.9375c-4.710937 0-8.535156-3.820312-8.535156-8.535156 0-4.710938 3.824219-8.53125 8.535156-8.53125h7.9375c38.761719-.890625 73.105469 24.851562 83.125 62.308594l7.933594 32.15625c2.78125 11.28125 4.179687 22.855468 4.171875 34.472656v7.59375c0 4.714844-3.820312 8.535156-8.535156 8.535156zm0 0"/><path d="m128.007812 256c-.566406 0-1.128906-.058594-1.683593-.171875-12.945313-1.710937-24.382813-9.289063-31.007813-20.542969-5.554687-12.113281-6.296875-25.878906-2.082031-38.519531-4.664063-12.300781-7.285156-25.285156-7.765625-38.433594-14.117188-11.03125-16.660156-34.648437-17.113281-43.925781-9.078125-9.480469-12.730469-22.917969-9.699219-35.691406-13.257812-17.359375-20.90625-51.589844-14.242188-67.671875 2.253907-6.554688 8.390626-10.9765628 15.320313-11.042969 15.105469 0 39.679687 10.707031 50.25 15.667969 7.996094-4.839844 17.203125-7.316407 26.550781-7.132813 12.613282.957032 24.582032 5.953125 34.132813 14.25 9.550781-8.296875 21.519531-13.292968 34.132812-14.25 9.734375.128906 18.988281 4.257813 25.585938 11.414063.125-.132813.257812-.253907.378906-.382813 2.125-2.113281 4.46875-3.992187 7-5.601562 3.066406-1.988282 6.445313-3.457032 9.996094-4.339844 1.34375-.414062 2.730469-.683594 4.136719-.808594.828124-.105468 1.664062-.167968 2.5-.191406 1.003906-.152344 2.027343-.148438 3.03125.015625.855468.035156 1.683593.125 2.441406.226563 1.417968.1875 2.820312.488281 4.1875.898437 1.242187.289063 2.449218.699219 3.609375 1.21875 1.078125.40625 2.125.886719 3.136719 1.433594.964843.433593 1.882812.964843 2.738281 1.582031.914062.558594 1.796875 1.167969 2.640625 1.824219.792968.585937 1.550781 1.226562 2.304687 1.878906.84375.75 1.628907 1.5 2.359375 2.25 6.597656-7.160156 15.851563-11.289063 25.585938-11.417969 12.613281.957032 24.582031 5.953125 34.132812 14.25 9.550782-8.296875 21.519532-13.292968 34.132813-14.25 9.347656-.183594 18.550781 2.292969 26.550781 7.132813 10.574219-4.960938 35.144531-15.667969 50.25-15.667969 6.929688.0664062 13.066406 4.488281 15.324219 11.042969 6.65625 16.082031-.992188 50.316406-14.25 67.671875 3.03125 12.773437-.621094 26.210937-9.699219 35.691406-.453125 9.277344-3 32.894531-17.117188 43.925781-.476562 13.148438-3.097656 26.125-7.757812 38.425781 2.367188 7.714844 3.207031 15.816407 2.472656 23.851563-.242187 2.046875-.632812 4.074219-1.175781 6.066406l-.933594 3.03125c-2.375 6.984375-6.839843 13.066407-12.789062 17.425781-1.097657.890626-2.277344 1.671876-3.527344 2.335938-1.066406.695312-2.1875 1.3125-3.34375 1.847656-1.296875.648438-2.632813 1.222656-3.996094 1.714844-2.910156 1.136719-5.917969 2.015625-8.980469 2.628906-4.617187.953125-9.132812-2.015625-10.085937-6.632812-.957031-4.613282 2.011719-9.128906 6.628906-10.085938 2.199219-.441406 4.359375-1.074218 6.449219-1.890625.910156-.328125 1.800781-.714843 2.667969-1.152343.566406-.261719 1.113281-.566407 1.632812-.914063.28125-.191406.570313-.363281.875-.511719.441407-.238281.859375-.519531 1.246094-.84375 3.285156-2.328125 5.757813-5.628906 7.074219-9.433594l.542968-1.757812c.347657-1.214844.597657-2.453125.75-3.707031.515626-6.550781-.371093-13.136719-2.605468-19.316407-.890625-2.261718-.785156-4.792968.296875-6.96875 4.957031-12.355468 7.546875-25.539062 7.632812-38.855468.007813-3.226563 1.832031-6.175782 4.714844-7.621094 9.335937-4.667969 12.351563-25.617188 12.351563-35.035156 0-2.261719.898437-4.433594 2.5-6.035156 7.28125-5.765626 10.070312-15.539063 6.933593-24.28125-1.644531-3.285157-1-7.253907 1.597657-9.851563 13.058593-13.054687 18.035156-47.347656 13.953124-53.691406-16.332031 2.933593-32.105468 8.382812-46.765624 16.160156-3.28125 1.652344-7.257813 1.007813-9.847657-1.601563-5.601562-4.265624-12.539062-6.40625-19.570312-6.03125-10.703125 1.6875-20.566407 6.800782-28.113281 14.574219-3.328126 3.3125-8.710938 3.3125-12.042969 0-7.546875-7.773437-17.410157-12.886719-28.109375-14.574219-7.6875.882813-14.433594 5.53125-17.992188 12.398438-1.46875 2.839844-4.398437 4.628906-7.59375 4.640625h-.054687c-3.214844-.007813-6.148438-1.824219-7.59375-4.691406-.128907-.207031-.296875-.492188-.457031-.785157l-.753907-1.125c-1.335937-2.027343-2.929687-3.875-4.742187-5.492187-.382813-.332031-.824219-.707031-1.324219-1.082031-.363281-.304688-.753906-.582032-1.160156-.824219-.367188-.203125-.714844-.433594-1.046875-.683594-.226563-.101562-.972656-.492187-1.1875-.609375-.488282-.246094-.992188-.464844-1.507813-.648437-.425781-.085938-1.714843-.511719-2.132812-.667969-.46875-.132812-.945313-.222656-1.425781-.265625-.359376-.058594-1.105469-.058594-1.722657-.117187-.746093.074218-1.46875.066406-2.144531.148437-.484375.0625-.964844.164063-1.433594.308594-1.855468.441406-3.621094 1.199219-5.214844 2.242187-1.488281.949219-2.871093 2.054688-4.125 3.292969-1.347656 1.335937-2.550781 2.8125-3.589843 4.398437-.0625.109376-.585938.890626-.65625.992188l-.613281 1.042969c-1.492188 2.84375-4.464844 4.601562-7.675782 4.53125-3.179687-.03125-6.078125-1.824219-7.523437-4.65625-3.566407-6.84375-10.296875-11.46875-17.960938-12.347657-10.699219 1.6875-20.566406 6.800782-28.113281 14.574219-3.328125 3.316407-8.710938 3.316407-12.042969 0-7.546875-7.773437-17.410156-12.886719-28.109375-14.574219-7.078125-.382812-14.058594 1.792969-19.664062 6.132813-2.636719 2.449219-6.503906 3.042969-9.753906 1.5-8.851563-4.425781-34.203126-15.789063-46.761719-16.160156-4.085938 6.34375.886719 40.632812 13.945312 53.691406 2.59375 2.597656 3.238281 6.566406 1.597657 9.851563-3.113282 8.746093-.328126 18.503906 6.933593 24.28125 1.597657 1.601562 2.496094 3.765624 2.5 6.027343.027344 9.433594 3.082031 30.40625 12.351563 35.042969 2.886718 1.445312 4.710937 4.394531 4.714844 7.621094.085937 13.320312 2.675781 26.5 7.632812 38.859375 1.089844 2.179687 1.195312 4.722656.292969 6.984375-3.46875 8.9375-3.457031 18.855468.039062 27.785156 4.316407 6.667969 11.414063 11.035156 19.3125 11.886719 4.289063.871093 7.222657 4.84375 6.792969 9.199219-.429688 4.355468-4.082031 7.679687-8.460938 7.695312zm0 0"/><path d="m162.132812 307.199219c-4.710937 0-8.53125-3.820313-8.53125-8.53125v-59.734375c0-4.714844 3.820313-8.535156 8.53125-8.535156 4.714844 0 8.535157 3.820312 8.535157 8.535156v59.734375c0 4.710937-3.820313 8.53125-8.535157 8.53125zm0 0"/><path d="m196.265625 315.734375c-4.710937 0-8.53125-3.820313-8.53125-8.535156v-34.132813c0-4.710937 3.820313-8.53125 8.53125-8.53125 4.714844 0 8.535156 3.820313 8.535156 8.53125v34.132813c0 4.714843-3.820312 8.535156-8.535156 8.535156zm0 0"/><path d="m230.398438 315.734375c-4.710938 0-8.53125-3.820313-8.53125-8.535156v-25.597657c0-4.714843 3.820312-8.535156 8.53125-8.535156 4.714843 0 8.535156 3.820313 8.535156 8.535156v25.597657c0 4.714843-3.820313 8.535156-8.535156 8.535156zm0 0"/><path d="m349.867188 307.199219c-4.714844 0-8.535157-3.820313-8.535157-8.53125v-59.734375c0-4.714844 3.820313-8.535156 8.535157-8.535156 4.710937 0 8.53125 3.820312 8.53125 8.535156v59.734375c0 4.710937-3.820313 8.53125-8.53125 8.53125zm0 0"/><path d="m315.734375 315.734375c-4.714844 0-8.535156-3.820313-8.535156-8.535156v-34.132813c0-4.710937 3.820312-8.53125 8.535156-8.53125 4.710937 0 8.53125 3.820313 8.53125 8.53125v34.132813c0 4.714843-3.820313 8.535156-8.53125 8.535156zm0 0"/><path d="m281.601562 315.734375c-4.714843 0-8.535156-3.820313-8.535156-8.535156v-25.597657c0-4.714843 3.820313-8.535156 8.535156-8.535156 4.710938 0 8.53125 3.820313 8.53125 8.535156v25.597657c0 4.714843-3.820312 8.535156-8.53125 8.535156zm0 0"/><path d="m255.90625 400.957031c-2.21875.027344-4.359375-.832031-5.9375-2.386719-8.519531-4.863281-18.335938-6.972656-28.101562-6.035156h-59.734376c-4.710937 0-8.53125-3.824218-8.53125-8.535156s3.820313-8.535156 8.53125-8.535156h59.734376c11.761718-.535156 23.480468 1.808594 34.132812 6.828125 10.652344-5.019531 22.371094-7.363281 34.132812-6.828125h59.734376c4.710937 0 8.53125 3.824218 8.53125 8.535156s-3.820313 8.535156-8.53125 8.535156h-59.734376c-20.863281 0-28.246093 6.171875-28.316406 6.238282-1.644531 1.414062-3.742187 2.1875-5.910156 2.183593zm0 0"/><path d="m179.199219 512c-4.710938 0-8.53125-3.820312-8.53125-8.535156.78125-41.160156 6.625-82.070313 17.394531-121.804688.789062-2.988281 3.128906-5.320312 6.121094-6.089844 2.992187-.773437 6.167968.132813 8.300781 2.367188 2.136719 2.238281 2.894531 5.449219 1.984375 8.402344-10.246094 38.234375-15.863281 77.554687-16.734375 117.125 0 4.714844-3.820313 8.535156-8.535156 8.535156zm0 0"/><path d="m85.34375 486.398438c-3.761719.003906-7.082031-2.453126-8.175781-6.054688-1.089844-3.601562.300781-7.488281 3.433593-9.578125l43.453126-28.964844-28.316407-35.402343c-2.945312-3.679688-2.351562-9.050782 1.328125-11.996094 3.679688-2.945313 9.050782-2.347656 11.996094 1.332031l34.132812 42.664063c1.496094 1.871093 2.136719 4.277343 1.769532 6.640624-.363282 2.367188-1.707032 4.46875-3.699219 5.792969l-51.199219 34.132813c-1.398437.933594-3.042968 1.433594-4.722656 1.433594zm0 0"/><path d="m332.800781 512c-4.714843 0-8.535156-3.820312-8.535156-8.535156-.863281-39.570313-6.480469-78.894532-16.734375-117.125-.910156-2.953125-.152344-6.164063 1.984375-8.402344 2.132813-2.234375 5.308594-3.140625 8.300781-2.367188 2.992188.769532 5.332032 3.101563 6.121094 6.089844 10.769531 39.734375 16.613281 80.644532 17.394531 121.804688 0 4.714844-3.820312 8.535156-8.53125 8.535156zm0 0"/><path d="m426.65625 486.398438c-1.679688 0-3.324219-.5-4.722656-1.433594l-51.199219-34.132813c-1.992187-1.324219-3.332031-3.425781-3.699219-5.792969-.367187-2.363281.273438-4.769531 1.769532-6.640624l34.132812-42.664063c1.90625-2.382813 4.9375-3.566406 7.953125-3.109375 3.015625.460938 5.554687 2.496094 6.664063 5.335938 1.109374 2.839843.621093 6.058593-1.285157 8.4375l-28.320312 35.402343 43.453125 28.964844c3.132812 2.089844 4.527344 5.980469 3.433594 9.578125-1.09375 3.601562-4.414063 6.0625-8.179688 6.054688zm0 0"/></svg>