<svg height="512pt" viewBox="0 -13 512.00007 512" width="512pt" xmlns="http://www.w3.org/2000/svg"><path d="m187.734375 264.535156h136.53125v76.796875h-136.53125zm0 0" fill="#c03a2b"/><path d="m409.601562 477.867188h93.867188l-.003906-7.59375c.015625-10.929688-1.300782-21.820313-3.921875-32.429688l-7.9375-32.167969c-9.203125-33.558593-40.046875-56.558593-74.835938-55.808593h-321.539062c-34.789063-.75-65.632813 22.25-74.835938 55.808593l-7.9375 32.167969c-2.621093 10.609375-3.9375 21.5-3.921875 32.429688v7.59375zm0 0" fill="#37474f"/><path d="m435.199219 477.867188h-358.398438l28.925781-139.945313c2.945313-8.820313 11.558594-14.46875 20.824219-13.65625h258.898438c9.285156-.8125 17.921875 4.828125 20.90625 13.65625zm0 0" fill="#c81e1e"/><path d="m221.867188 8.535156h68.265624c4.714844 0 8.535157 3.820313 8.535157 8.53125v42.667969h-85.335938v-42.667969c0-4.710937 3.820313-8.53125 8.535157-8.53125zm0 0" fill="#c03a2b"/><path d="m187.734375 42.667969h136.53125c32.992187 0 59.734375 26.742187 59.734375 59.730469v119.46875c0 32.988281-26.742188 59.734374-59.734375 59.734374h-136.53125c-32.992187 0-59.734375-26.746093-59.734375-59.734374v-119.46875c0-32.988282 26.742188-59.730469 59.734375-59.730469zm0 0" fill="#c81e1e"/><path d="m349.867188 170.667969c0 34.132812-8.535157 68.265625-42.667969 68.265625-26.792969 0-32.511719-47.273438-33.792969-67.667969-.339844-5.546875-.339844-9.132813-.339844-9.132813s1.023438-3.070312 2.902344-8.019531c7.339844-19.628906 27.816406-68.78125 48.296875-68.78125 19.117187 0 25.601563 51.203125 25.601563 85.335938zm0 0" fill="#37474f"/><path d="m238.933594 162.132812s0 3.585938-.339844 9.132813c-1.28125 20.394531-7 67.667969-33.792969 67.667969-34.132812 0-42.667969-34.132813-42.667969-68.265625 0-34.132813 6.484376-85.335938 25.601563-85.335938 20.480469 0 41.042969 49.238281 48.296875 68.867188 1.878906 4.863281 2.902344 7.933593 2.902344 7.933593zm0 0" fill="#37474f"/><path d="m435.199219 486.398438h-358.398438c-2.566406 0-4.996093-1.152344-6.617187-3.140626-1.621094-1.988281-2.261719-4.601562-1.742188-7.117187l28.910156-139.925781c3.726563-12.84375 15.886719-21.363282 29.230469-20.480469h258.894531c13.359376-.882813 25.53125 7.664063 29.230469 20.53125l28.855469 139.875c.519531 2.515625-.121094 5.128906-1.742188 7.117187-1.621093 1.988282-4.054687 3.144532-6.621093 3.140626zm-347.925781-17.066407h337.453124l-26.742187-129.664062c-2.257813-4.742188-7.296875-7.507813-12.507813-6.867188h-258.894531c-5.199219-.636719-10.226562 2.109375-12.507812 6.824219zm0 0"/><path d="m324.265625 332.800781h-136.53125c-4.714844 0-8.535156-3.820312-8.535156-8.535156v-42.664063c0-4.714843 3.820312-8.535156 8.535156-8.535156h136.53125c4.714844 0 8.535156 3.820313 8.535156 8.535156v42.664063c0 4.714844-3.820312 8.535156-8.535156 8.535156zm-128-17.066406h119.46875v-25.601563h-119.46875zm0 0"/><path d="m324.265625 290.132812h-136.53125c-37.6875-.042968-68.222656-30.582031-68.269531-68.265624v-119.46875c.046875-37.683594 30.582031-68.222657 68.269531-68.265626h136.53125c37.6875.042969 68.222656 30.582032 68.269531 68.265626v119.46875c-.046875 37.683593-30.582031 68.222656-68.269531 68.265624zm-136.53125-238.933593c-28.265625.03125-51.171875 22.9375-51.199219 51.199219v119.46875c.027344 28.261718 22.933594 51.167968 51.199219 51.199218h136.53125c28.265625-.03125 51.171875-22.9375 51.199219-51.199218v-119.46875c-.027344-28.261719-22.933594-51.167969-51.199219-51.199219zm0 0"/><path d="m298.667969 51.199219h-85.335938c-4.710937 0-8.53125-3.820313-8.53125-8.53125v-25.601563c.011719-9.421875 7.644531-17.0546872 17.066407-17.066406h68.265624c9.421876.0117188 17.054688 7.644531 17.066407 17.066406v25.601563c0 4.710937-3.820313 8.53125-8.53125 8.53125zm-76.800781-17.066407h68.265624v-17.066406h-68.265624zm0 0"/><path d="m102.398438 486.398438h-93.863282c-4.714844 0-8.535156-3.820313-8.535156-8.53125v-7.59375c-.0078125-11.621094 1.394531-23.203126 4.175781-34.484376l7.9375-32.160156c10.023438-37.449218 44.359375-63.183594 83.117188-62.296875h8.023437c4.710938 0 8.53125 3.820313 8.53125 8.535157 0 4.710937-3.820312 8.53125-8.53125 8.53125h-8.023437c-30.898438-.871094-58.390625 19.496093-66.558594 49.308593l-7.9375 32.171875c-2.371094 9.640625-3.605469 19.527344-3.667969 29.453125h85.332032c4.714843 0 8.535156 3.820313 8.535156 8.535157 0 4.710937-3.820313 8.53125-8.535156 8.53125zm0 0"/><path d="m503.464844 486.398438h-93.863282c-4.714843 0-8.535156-3.820313-8.535156-8.53125 0-4.714844 3.820313-8.535157 8.535156-8.535157h85.332032c-.066406-9.921875-1.300782-19.804687-3.675782-29.4375l-7.9375-32.171875c-8.160156-29.816406-35.648437-50.191406-66.550781-49.324218h-7.9375c-4.710937 0-8.535156-3.820313-8.535156-8.53125 0-4.714844 3.824219-8.535157 8.535156-8.535157h7.9375c38.761719-.886719 73.105469 24.855469 83.125 62.308594l7.933594 32.160156c2.78125 11.277344 4.179687 22.855469 4.171875 34.472657v7.59375c0 4.710937-3.820312 8.53125-8.535156 8.53125zm0 0"/><path d="m307.199219 247.464844c-41.464844 0-42.664063-76.597656-42.664063-85.332032 0-.917968.148438-1.828124.441406-2.699218 6.457032-19.382813 29.832032-82.632813 59.289063-82.632813 31.675781 0 34.132813 71.851563 34.132813 93.867188 0 63.472656-27.839844 76.796875-51.199219 76.796875zm-25.589844-83.957032c.273437 22.734376 6.683594 66.890626 25.589844 66.890626 22.652343 0 34.132812-20.097657 34.132812-59.730469 0-46.167969-10.273437-76.800781-17.066406-76.800781-11.464844 0-31.144531 35.753906-42.65625 69.640624zm0 0"/><path d="m204.800781 247.464844c-23.359375 0-51.199219-13.324219-51.199219-76.796875 0-22.015625 2.457032-93.867188 34.132813-93.867188 29.457031 0 52.832031 63.25 59.289063 82.632813.292968.871094.441406 1.78125.441406 2.699218 0 8.734376-1.199219 85.332032-42.664063 85.332032zm-17.066406-153.597656c-6.792969 0-17.066406 30.632812-17.066406 76.800781 0 39.632812 11.480469 59.730469 34.132812 59.730469 18.90625 0 25.316407-44.15625 25.589844-66.890626-11.511719-33.886718-31.191406-69.640624-42.65625-69.640624zm0 0"/><path d="m228.101562 172.816406c-11.171874-.1875-21.777343-4.953125-29.335937-13.183594-3.234375-3.347656-3.1875-8.671874.105469-11.960937 3.292968-3.292969 8.613281-3.339844 11.960937-.105469 5.769531 7.285156 15.539063 10.074219 24.285157 6.933594 4.214843-2.109375 9.339843-.398438 11.449218 3.816406s.398438 9.34375-3.816406 11.449219c-4.605469 2.0625-9.605469 3.101563-14.648438 3.050781zm0 0"/><path d="m283.902344 172.816406c-5.042969.050782-10.042969-.988281-14.648438-3.050781-4.136718-2.128906-5.808594-7.175781-3.753906-11.351563 2.050781-4.175781 7.070312-5.9375 11.28125-3.960937 8.765625 3.195313 18.585938.421875 24.386719-6.882813 3.347656-3.234374 8.667969-3.1875 11.960937.105469 3.292969 3.289063 3.339844 8.613281.105469 11.960938-7.558594 8.222656-18.160156 12.988281-29.332031 13.179687zm0 0"/><path d="m179.207031 486.398438c-.5625.003906-1.128906-.054688-1.683593-.167969-4.621094-.925781-7.617188-5.421875-6.691407-10.042969 3.503907-20.476562 11.183594-40.011719 22.566407-57.390625l-12.296876-12.300781c-6.425781 10.058594-16.257812 21.359375-27.125 19.949218-12.886718-1.722656-16.191406-18.273437-17.277343-23.707031-9.324219-46.609375 26.410156-82.984375 27.933593-84.507812 3.34375-3.25 8.675782-3.210938 11.976563.082031s3.34375 8.625.097656 11.976562c-.511719.523438-30.757812 31.699219-23.273437 69.097657.503906 3.390625 1.582031 6.671875 3.183594 9.699219 6.3125-5.707032 11.398437-12.640626 14.949218-20.375 1.226563-2.453126 3.558594-4.167969 6.265625-4.605469 2.707031-.441407 5.460938.449219 7.402344 2.386719l25.597656 25.601562c1.601563 1.597656 2.5 3.769531 2.5 6.03125 0 2.265625-.898437 4.433594-2.5 6.035156-.105469.117188-15.449219 16.28125-23.265625 55.375-.792968 3.988282-4.292968 6.859375-8.359375 6.863282zm0 0"/><path d="m332.792969 486.398438c-4.066407 0-7.566407-2.871094-8.363281-6.855469-7.816407-39.09375-23.160157-55.257813-23.308594-55.417969-3.265625-3.351562-3.246094-8.695312.042968-12.023438l25.597657-25.601562c1.9375-1.941406 4.691406-2.832031 7.398437-2.394531 2.707032.4375 5.039063 2.152343 6.269532 4.601562 3.554687 7.734375 8.640624 14.667969 14.949218 20.382813 1.605469-3.027344 2.683594-6.308594 3.183594-9.699219 7.550781-37.75-22.953125-68.777344-23.265625-69.089844-3.234375-3.347656-3.1875-8.671875.101563-11.964843 3.292968-3.289063 8.617187-3.335938 11.964843-.101563 1.523438 1.523437 37.257813 37.898437 27.933594 84.507813-1.085937 5.433593-4.394531 21.984374-17.277344 23.707031-10.847656 1.417969-20.699219-9.890625-27.125-19.949219l-12.300781 12.300781c11.382812 17.378907 19.066406 36.914063 22.570312 57.390625.921876 4.621094-2.074218 9.117188-6.691406 10.042969-.554687.109375-1.117187.167969-1.679687.164063zm0 0"/></svg>