<svg height="512pt" viewBox="0 0 512 512.03491" width="512pt" xmlns="http://www.w3.org/2000/svg"><path d="m187.75 298.703125h136.535156v76.796875h-136.535156zm0 0" fill="#fec108"/><path d="m384.015625 68.300781v187.734375c.011719 15.84375-6.277344 31.046875-17.480469 42.25s-26.40625 17.496094-42.25 17.484375h-136.535156c-15.84375.011719-31.046875-6.28125-42.25-17.484375s-17.492188-26.40625-17.484375-42.25v-179.199218zm0 0" fill="#fec108"/><path d="m358.417969 68.300781v187.734375c0 33.023438-21.367188 59.734375-47.789063 59.734375h-109.226562c-26.417969 0-47.785156-26.710937-47.785156-59.734375v-179.199218zm0 0" fill="#ffdc00"/><path d="m409.617188 503.5h93.867187v-7.59375c.015625-10.925781-1.304687-21.816406-3.925781-32.425781l-7.9375-23.636719c-9.203125-33.558594-40.046875-56.558594-74.835938-55.808594h-321.535156c-34.789062-.75-65.632812 22.25-74.835938 55.808594l-7.9375 23.636719c-2.621093 10.609375-3.941406 21.5-3.925781 32.425781v7.59375zm0 0" fill="#37474f"/><path d="m435.21875 503.5h-358.402344l28.929688-131.410156c2.945312-8.824219 11.558594-14.46875 20.820312-13.65625 0 0 35.585938 8.535156 44.117188 42.667968 7.851562 31.316407 44.460937 41.128907 76.800781 42.496094 2.902344.085938 5.71875.171875 8.53125.171875 2.816406 0 5.632813-.085937 8.535156-.171875 32.339844-1.367187 68.949219-11.179687 76.800781-42.496094 8.53125-34.132812 44.117188-42.667968 44.117188-42.667968 9.28125-.8125 17.921875 4.828125 20.90625 13.65625zm0 0" fill="#37474f"/><path d="m256.015625 443.769531c-34.132813 0-76.796875-8.535156-85.332031-42.667969-8.53125-34.132812-44.117188-42.667968-44.117188-42.667968h95.316406s8.535157 85.335937 34.132813 85.335937zm0 0" fill="#607d8b"/><path d="m385.46875 358.433594s-35.585938 8.535156-44.117188 42.667968c-8.535156 34.132813-51.199218 42.667969-85.335937 42.667969 25.601563 0 34.136719-85.335937 34.136719-85.335937zm0 0" fill="#607d8b"/><path d="m315.75 358.433594s-34.132812 85.335937-59.734375 85.335937c-25.597656 0-59.730469-85.335937-59.730469-85.335937zm0 0" fill="#ffdc00"/><path d="m406.289062 109.945312c11.777344 1.023438 24.578126 5.289063 45.996094 9.554688 42.664063 8.535156 51.199219-51.199219 51.199219-51.199219-59.734375 0-34.132813-59.734375-93.867187-59.734375-23.902344-.746094-46.863282 9.355469-62.464844 27.480469zm0 0" fill="#607d8b"/><path d="m264.550781 443.597656v59.902344h-17.066406v-59.902344c2.902344.085938 5.71875.171875 8.53125.171875 2.816406 0 5.632813-.085937 8.535156-.171875zm0 0" fill="#bdc3c7"/><path d="m384.015625 238.96875c-34.132813 0-42.664063-128-51.199219-128-8.53125 0-17.066406 25.597656-76.800781 25.597656-59.730469 0-93.863281 51.203125-102.398437 76.800782-8.53125 25.601562-17.066407 34.132812-25.601563 34.132812-8.277344 0-14.589844-4.007812-18.769531-19.882812-2.402344-9.742188-3.941406-19.679688-4.609375-29.695313-.769531-8.617187-1.28125-18.601563-1.707031-30.292969-.257813-8.703125-.425782-18.347656-.425782-28.925781v-.085937c-.085937-3.414063-.085937-6.914063-.085937-10.582032 0-102.398437 119.464843-102.398437 153.597656-102.398437 34.136719 0 110.933594 0 136.535156 42.664062 25.601563 42.667969 25.601563 170.667969-8.535156 170.667969zm0 0" fill="#37474f"/><path d="m292.539062 85.710938c.457032 2.230468 0 4.550781-1.265624 6.441406-1.269532 1.890625-3.238282 3.195312-5.472657 3.625-1.453125.257812-134.65625 27.734375-176.554687 131.839844-2.402344-9.742188-3.941406-19.679688-4.609375-29.695313 53.332031-93.355469 172.289062-117.757813 177.835937-118.867187 4.605469-.886719 9.074219 2.070312 10.066406 6.65625zm0 0" fill="#02a9f4"/><path d="m247.058594 62.925781c-1.109375.339844-96.257813 29.269531-144.128906 104.703125-.257813-8.703125-.425782-18.347656-.425782-28.925781v-.085937c52.734375-65.707032 135.253906-90.625 139.773438-91.992188 4.5-1.304688 9.210937 1.242188 10.582031 5.71875.675781 2.171875.441406 4.527344-.652344 6.523438-1.09375 1.996093-2.953125 3.460937-5.148437 4.058593zm0 0" fill="#e91e63"/><path d="m296.359375 268.835938c-6.894531 13.492187-28.417969 15.398437-40.171875 15.398437-11.78125 0-33.273438-1.90625-40.171875-15.398437 13.148437 3.238281 26.632813 4.925781 40.171875 5.035156 13.542969-.105469 27.023438-1.796875 40.171875-5.035156zm0 0"/><path d="m233.667969 179.992188c-8.109375-2.980469-16.628907-4.707032-25.257813-5.117188-11.605468-.878906-23.214844 1.597656-33.453125 7.132812 1.167969-14.933593 35.789063-17.886718 52.714844-14.046874 2.683594.335937 5.019531 1.988281 6.222656 4.410156 1.207031 2.417968 1.121094 5.28125-.226562 7.621094zm0 0"/><path d="m278.367188 179.992188c8.109374-2.980469 16.628906-4.707032 25.257812-5.117188 11.605469-.878906 23.214844 1.597656 33.453125 7.132812-1.167969-14.933593-35.789063-17.886718-52.714844-14.046874-2.683593.335937-5.019531 1.988281-6.222656 4.410156-1.207031 2.417968-1.121094 5.28125.226563 7.621094zm0 0"/><path d="m186.550781 194.066406s2.429688 10.902344 11.832031 8.777344c9.398438-2.125 11.191407 1.957031 19.292969 1.304688 2.769531-.1875 5.550781-.019532 8.28125.507812 1.933594.449219 3.945313.480469 5.894531.09375 2.699219-.722656 2.46875-3.855469 1.523438-5.894531-3.75-8.082031-14.292969-8.671875-22.011719-7.773438-3.273437.886719-6.597656 1.558594-9.960937 2.007813-3.519532-.976563-6.800782-2.664063-9.640625-4.957032.617187 2.191407.761719 4.488282.433593 6.742188-.976562 1.851562-5.644531-.808594-5.644531-.808594zm0 0"/><path d="m230.417969 210.648438c0-10.101563-7.640625-18.292969-17.066407-18.292969-9.425781 0-17.066406 8.191406-17.066406 18.292969 0 10.101562 7.640625 18.292968 17.066406 18.292968 9.425782 0 17.066407-8.191406 17.066407-18.292968zm0 0"/><path d="m218.136719 194.773438c-4.40625-1.675782-9.335938.539062-11.011719 4.945312-1.675781 4.402344.539062 9.332031 4.941406 11.007812 4.40625 1.675782 9.335938-.535156 11.011719-4.941406s-.539063-9.335937-4.941406-11.011718zm0 0" fill="#fff"/><path d="m325.480469 194.066406s-2.429688 10.902344-11.832031 8.777344c-9.402344-2.125-11.191407 1.957031-19.292969 1.304688-2.769531-.1875-5.554688-.019532-8.28125.507812-1.9375.449219-3.945313.480469-5.898438.09375-2.699219-.722656-2.464843-3.855469-1.519531-5.894531 3.746094-8.082031 14.292969-8.671875 22.011719-7.773438 3.269531.886719 6.597656 1.558594 9.957031 2.007813 3.519531-.976563 6.800781-2.664063 9.644531-4.957032-.617187 2.191407-.765625 4.488282-.433593 6.742188.976562 1.851562 5.644531-.808594 5.644531-.808594zm0 0"/><path d="m315.75 210.648438c0-10.101563-7.644531-18.292969-17.070312-18.292969-9.421876 0-17.066407 8.191406-17.066407 18.292969 0 10.101562 7.644531 18.292968 17.066407 18.292968 9.425781 0 17.070312-8.191406 17.070312-18.292968zm0 0"/><path d="m304.90625 199.71875c-1.675781-4.40625-6.605469-6.621094-11.007812-4.945312-4.40625 1.675781-6.621094 6.605468-4.945313 11.011718 1.675781 4.402344 6.605469 6.617188 11.011719 4.941406 4.402344-1.675781 6.617187-6.605468 4.941406-11.007812zm0 0" fill="#fff"/><path d="m435.21875 512.035156h-358.402344c-2.582031 0-5.03125-1.171875-6.648437-3.1875-1.621094-2.015625-2.238281-4.65625-1.683594-7.179687l28.90625-131.390625c3.761719-12.792969 15.902344-21.261719 29.207031-20.375h258.890625c13.359375-.878906 25.527344 7.664062 29.242188 20.523437l28.820312 131.242188c.554688 2.527343-.0625 5.167969-1.683593 7.179687-1.621094 2.015625-4.066407 3.1875-6.648438 3.1875zm-347.785156-17.066406h337.171875l-26.574219-121.023438c-2.226562-4.800781-7.292969-7.617187-12.542969-6.976562h-258.890625c-5.199218-.632812-10.226562 2.109375-12.503906 6.824219zm0 0"/><path d="m324.285156 366.96875h-136.535156c-4.710938 0-8.53125-3.820312-8.53125-8.535156v-42.664063c0-4.714843 3.820312-8.535156 8.53125-8.535156h136.535156c4.710938 0 8.53125 3.820313 8.53125 8.535156v42.664063c0 4.714844-3.820312 8.535156-8.53125 8.535156zm-128-17.066406h119.464844v-25.601563h-119.464844zm0 0"/><path d="m324.285156 324.300781h-136.535156c-37.683594-.042969-68.222656-30.582031-68.265625-68.265625v-8.535156c0-4.710938 3.820313-8.53125 8.53125-8.53125 4.714844 0 8.535156 3.820312 8.535156 8.53125v8.535156c.03125 28.265625 22.9375 51.167969 51.199219 51.199219h136.535156c28.261719-.03125 51.167969-22.933594 51.199219-51.199219v-17.066406c0-4.714844 3.820313-8.535156 8.53125-8.535156 4.714844 0 8.535156 3.820312 8.535156 8.535156v17.066406c-.042969 37.683594-30.582031 68.222656-68.265625 68.265625zm0 0"/><path d="m102.417969 512.035156h-93.867188c-4.710937 0-8.535156-3.820312-8.535156-8.535156v-7.59375c-.0078125-11.625 1.394531-23.207031 4.175781-34.492188l8.132813-24.289062c10.195312-37.160156 44.40625-62.585938 82.925781-61.625h8.019531c4.714844 0 8.535157 3.820312 8.535157 8.535156 0 4.710938-3.820313 8.53125-8.535157 8.53125h-8.019531c-30.898438-.871094-58.390625 19.496094-66.550781 49.308594l-8.136719 24.320312c-2.257812 9.425782-3.425781 19.082032-3.472656 28.773438h85.328125c4.710937 0 8.53125 3.820312 8.53125 8.53125 0 4.714844-3.820313 8.535156-8.53125 8.535156zm0 0"/><path d="m503.484375 512.035156h-93.867187c-4.710938 0-8.53125-3.820312-8.53125-8.535156 0-4.710938 3.820312-8.53125 8.53125-8.53125h85.332031c-.058594-9.921875-1.289063-19.800781-3.667969-29.433594l-7.742188-22.976562c-7.988281-30.109375-35.609374-50.796875-66.753906-49.992188h-7.9375c-4.710937 0-8.53125-3.820312-8.53125-8.53125 0-4.714844 3.820313-8.535156 8.53125-8.535156h7.9375c38.765625-.890625 73.105469 24.851562 83.125 62.308594l7.738282 22.953125c2.902343 11.488281 4.371093 23.292969 4.367187 35.144531v7.59375c0 4.714844-3.820313 8.535156-8.53125 8.535156zm0 0"/><path d="m128.015625 256.035156c-26.792969 0-34.132813-27.515625-34.132813-128 0-50.609375 28.128907-110.933594 162.132813-110.933594 34.648437 0 115.769531 0 143.851563 46.808594 22.539062 37.566406 26.367187 133.398438 6.714843 168.101563-3.929687 9.058593-12.695312 15.078125-22.566406 15.488281-27.511719 0-38.960937-46.046875-50.089844-101.671875-1.535156-7.691406-3.328125-16.636719-4.835937-22.667969-9.945313 8.132813-28.320313 21.941406-73.074219 21.941406-57.667969 0-88.164063 52.558594-94.300781 70.964844-5.722656 17.160156-15.4375 39.96875-33.699219 39.96875zm128-221.867187c-97.613281 0-145.066406 30.699219-145.066406 93.867187 0 97.492188 8.207031 110.933594 17.066406 110.933594 1.894531 0 8.753906-2.042969 17.507813-28.300781 11.070312-33.214844 49.636718-82.632813 110.492187-82.632813 40.289063 0 54.695313-11.851562 63.300781-18.933594 3.554688-3.773437 8.347656-6.140624 13.5-6.667968 9.84375 0 11.695313 9.285156 17.851563 40.042968 5.261719 26.324219 17.589843 87.957032 33.347656 87.957032 3.183594 0 5.957031-3.714844 7.71875-6.832032 16.777344-29.632812 12.953125-118.492187-6.5-150.910156-23.117187-38.523437-97.46875-38.523437-129.21875-38.523437zm0 0"/><path d="m460.441406 128.875c-3.300781-.007812-6.59375-.347656-9.832031-1.007812-8.8125-1.757813-16.195313-3.507813-22.648437-5.046876-7.363282-1.976562-14.851563-3.441406-22.414063-4.375-4.640625-.476562-8.039063-4.585937-7.632813-9.234374.40625-4.644532 4.464844-8.101563 9.117188-7.769532 8.398438.984375 16.714844 2.582032 24.882812 4.78125 6.277344 1.492188 13.457032 3.207032 22.035157 4.914063 7.085937 1.753906 14.582031.371093 20.578125-3.789063 9.332031-8.132812 15.804687-19.050781 18.464844-31.140625-26.644532-3.425781-36.097657-19.960937-43.851563-33.539062-8.160156-14.28125-14.609375-25.566407-39.523437-25.566407-21.421876-.773437-42.027344 8.246094-55.992188 24.507813-3.074219 3.574219-8.460938 3.980469-12.035156.90625-3.574219-3.074219-3.980469-8.464844-.90625-12.039063 17.226562-20.003906 42.546875-31.1875 68.933594-30.4414058 34.820312 0 45.644531 18.9453128 54.34375 34.1679688 8.160156 14.28125 14.609374 25.566406 39.523437 25.566406 2.472656 0 4.828125 1.070313 6.449219 2.941407 1.617187 1.867187 2.347656 4.351562 2 6.800781-.210938 1.464843-5.382813 36.082031-27.515625 51.738281-6.984375 5.015625-15.378907 7.683594-23.976563 7.625zm0 0"/><path d="m256.015625 452.300781c-29.113281 0-59.144531-69.417969-67.65625-90.699219-1.191406-2.84375-.753906-6.105468 1.136719-8.539062 1.894531-2.429688 4.953125-3.652344 8-3.195312 3.046875.457031 5.613281 2.519531 6.707031 5.402343 15.460937 38.617188 39.972656 79.964844 51.8125 79.964844 11.84375 0 36.355469-41.347656 51.816406-79.964844 1.09375-2.882812 3.660157-4.945312 6.707031-5.402343 3.046876-.457032 6.105469.765624 8 3.195312 1.890626 2.433594 2.328126 5.695312 1.136719 8.539062-8.511719 21.28125-38.542969 90.699219-67.660156 90.699219zm0 0"/><path d="m256.015625 512.035156c-4.710937 0-8.53125-3.820312-8.53125-8.535156v-59.730469c0-4.714843 3.820313-8.535156 8.53125-8.535156 4.714844 0 8.535156 3.820313 8.535156 8.535156v59.730469c0 4.714844-3.820312 8.535156-8.535156 8.535156zm0 0"/><path d="m256.015625 452.300781c-51.683594 0-85.800781-17.90625-93.609375-49.132812-7.195312-28.773438-37.496094-36.359375-37.800781-36.433594-4.585938-1.097656-7.410157-5.707031-6.308594-10.292969 1.097656-4.582031 5.707031-7.40625 10.289063-6.308594 1.660156.402344 40.695312 10.195313 50.375 48.902344 8.167968 32.675782 56.609374 36.199219 77.054687 36.199219 4.714844 0 8.535156 3.820313 8.535156 8.535156 0 4.710938-3.820312 8.53125-8.535156 8.53125zm0 0"/><path d="m256.015625 452.300781c-4.710937 0-8.53125-3.820312-8.53125-8.53125 0-4.714843 3.820313-8.535156 8.53125-8.535156 20.449219 0 68.890625-3.523437 77.058594-36.199219 9.679687-38.707031 48.714843-48.5 50.375-48.902344 4.582031-1.101562 9.191406 1.714844 10.296875 6.296876 1.101562 4.582031-1.714844 9.191406-6.296875 10.296874-18.074219 4.765626-32.386719 18.554688-37.816407 36.4375-7.8125 31.230469-41.929687 49.136719-93.617187 49.136719zm0 0"/><path d="m170.683594 512.035156h-17.066406c-23.550782-.027344-42.636719-19.113281-42.667969-42.667968 0-4.710938 3.820312-8.53125 8.535156-8.53125 4.710937 0 8.53125 3.820312 8.53125 8.53125.015625 14.132812 11.46875 25.585937 25.601563 25.601562h17.066406c4.714844 0 8.535156 3.820312 8.535156 8.53125 0 4.714844-3.820312 8.535156-8.535156 8.535156zm0 0"/><path d="m358.417969 512.035156h-17.066407c-4.714843 0-8.535156-3.820312-8.535156-8.535156 0-4.710938 3.820313-8.53125 8.535156-8.53125h17.066407c14.132812-.015625 25.585937-11.46875 25.597656-25.601562 0-4.710938 3.824219-8.53125 8.535156-8.53125 4.714844 0 8.535157 3.820312 8.535157 8.53125-.03125 23.554687-19.117188 42.640624-42.667969 42.667968zm0 0"/></svg>