<svg height="512pt" viewBox="0 0 512.00007 512" width="512pt" xmlns="http://www.w3.org/2000/svg"><path d="m187.734375 298.667969h136.53125v76.796875h-136.53125zm0 0" fill="#fec108"/><path d="m503.464844 495.871094.003906 7.59375h-494.933594v-7.59375c-.015625-10.925782 1.300782-21.816406 3.921875-32.425782l7.9375-23.636718c9.207031-33.558594 40.046875-56.558594 74.835938-55.808594h321.539062c34.789063-.75 65.632813 22.25 74.835938 55.808594l7.9375 23.636718c2.621093 10.609376 3.9375 21.5 3.921875 32.425782zm0 0" fill="#9d27b0"/><path d="m196.265625 503.464844h-119.464844l28.925781-131.410156c2.945313-8.820313 11.558594-14.46875 20.824219-13.65625h9.984375v42.667968c14.847656 7.425782 36.179688 21.332032 41.46875 24.746094zm0 0" fill="#6a1b9a"/><path d="m435.199219 503.464844h-119.464844l18.261719-77.652344c2.644531-1.707031 9.300781-6.058594 17.152344-10.835938 7.847656-4.863281 16.894531-10.15625 24.316406-13.910156v-42.667968h9.984375c9.285156-.8125 17.921875 4.828124 20.90625 13.65625zm0 0" fill="#6a1b9a"/><path d="m349.867188 358.398438-6.058594 25.601562-9.8125 41.8125-18.261719 77.652344h-119.46875l-18.261719-77.652344-9.8125-41.8125-6.058594-25.601562zm0 0" fill="#ffdc00"/><path d="m178.003906 425.8125c-5.289062-3.414062-26.621094-17.320312-41.46875-24.746094v-42.667968h25.597656zm0 0" fill="#9d27b0"/><path d="m375.464844 358.398438v42.667968c-7.421875 3.753906-16.46875 9.046875-24.316406 13.910156-7.851563 4.777344-14.507813 9.128907-17.152344 10.835938l15.871094-67.414062zm0 0" fill="#9d27b0"/><path d="m384 93.867188v162.132812c.011719 15.847656-6.277344 31.046875-17.484375 42.25-11.203125 11.207031-26.402344 17.496094-42.25 17.484375h-136.53125c-15.847656.011719-31.046875-6.277344-42.25-17.484375-11.207031-11.203125-17.496094-26.402344-17.484375-42.25v-162.132812zm0 0" fill="#fec108"/><path d="m358.398438 93.867188v162.132812c0 33.023438-21.367188 59.734375-47.785157 59.734375h-109.226562c-26.417969 0-47.785157-26.710937-47.785157-59.734375v-162.132812zm0 0" fill="#ffdc00"/><path d="m418.132812 173.3125c-8.53125 49.238281-34.132812 65.621094-34.132812 65.621094-25.601562 0-17.066406-82.433594-34.132812-109.910156-17.066407-27.476563-76.800782-9.128907-93.867188-9.128907s-76.800781-18.347656-93.867188 9.128907c-17.066406 27.476562-8.53125 109.910156-34.132812 109.910156 0 0-25.601562-16.382813-34.132812-65.621094-8.535157-49.152344 0-131.15625 68.265624-139.433594 10.667969-1.195312 20.394532-2.304687 29.355469-3.246094 8.277344-.851562 15.871094-1.535156 22.699219-2.046874.160156-.070313.335938-.097657.511719-.085938h.085937c9.960938-12.609375 25.144532-19.964844 41.214844-19.964844s31.253906 7.355469 41.214844 19.964844h.085937c.175781-.011719.351563.015625.511719.085938 6.828125.511718 14.421875 1.195312 22.699219 2.046874 8.960937.941407 18.6875 2.050782 29.355469 3.246094 68.265624 8.277344 76.800781 90.28125 68.265624 139.433594zm0 0" fill="#6d4122"/><path d="m418.132812 173.3125c-8.53125 49.238281-34.132812 65.621094-34.132812 65.621094-25.601562 0-17.066406-82.433594-34.132812-109.910156-17.066407-27.476563-76.800782-9.128907-93.867188-9.128907s-76.800781-18.347656-93.867188 9.128907c-17.066406 27.476562-8.53125 109.910156-34.132812 109.910156 0 0-25.601562-16.382813-34.132812-65.621094-8.535157-49.152344 0-131.15625 68.265624-139.433594 10.667969-1.195312 20.394532-2.304687 29.355469-3.246094 8.277344-.851562 15.871094-1.535156 22.699219-2.046874.160156-.070313.335938-.097657.511719-.085938h.085937c9.960938-12.609375 25.144532-19.964844 41.214844-19.964844s31.253906 7.355469 41.214844 19.964844h.085937c.175781-.011719.351563.015625.511719.085938 6.828125.511718 14.421875 1.195312 22.699219 2.046874 8.960937.941407 18.6875 2.050782 29.355469 3.246094 68.265624 8.277344 76.800781 90.28125 68.265624 139.433594zm0 0" fill="#6d4122"/><path d="m296.339844 251.734375c-6.894532 13.492187-28.414063 15.398437-40.167969 15.398437-11.78125 0-33.277344-1.90625-40.171875-15.398437 13.148438 3.238281 26.628906 4.925781 40.171875 5.035156 13.539063-.105469 27.023437-1.796875 40.167969-5.035156zm0 0"/><path d="m233.648438 162.890625c-8.109376-2.980469-16.625-4.707031-25.257813-5.117187-11.601563-.878907-23.214844 1.597656-33.449219 7.132812 1.167969-14.933594 35.789063-17.886719 52.710938-14.046875 2.683594.335937 5.019531 1.988281 6.226562 4.410156 1.207032 2.417969 1.121094 5.28125-.230468 7.621094zm0 0"/><path d="m230.398438 189.28125c0-10.105469-7.640626-18.292969-17.066407-18.292969s-17.066406 8.1875-17.066406 18.292969c0 10.101562 7.640625 18.289062 17.066406 18.289062s17.066407-8.1875 17.066407-18.289062zm0 0"/><path d="m218.117188 173.40625c-4.402344-1.675781-9.332032.539062-11.007813 4.945312-1.675781 4.402344.535156 9.332032 4.941406 11.007813s9.335938-.539063 11.007813-4.941406c1.675781-4.40625-.535156-9.335938-4.941406-11.011719zm0 0" fill="#fff"/><path d="m278.351562 162.890625c8.109376-2.980469 16.625-4.707031 25.257813-5.117187 11.601563-.878907 23.214844 1.597656 33.449219 7.132812-1.167969-14.933594-35.789063-17.886719-52.710938-14.046875-2.683594.335937-5.019531 1.988281-6.226562 4.410156-1.207032 2.417969-1.117188 5.28125.230468 7.621094zm0 0"/><path d="m315.734375 189.28125c0-10.105469-7.640625-18.292969-17.066406-18.292969s-17.066407 8.1875-17.066407 18.292969c0 10.101562 7.640626 18.289062 17.066407 18.289062s17.066406-8.1875 17.066406-18.289062zm0 0"/><path d="m304.890625 178.347656c-1.675781-4.402344-6.605469-6.617187-11.007813-4.941406-4.40625 1.675781-6.617187 6.605469-4.941406 11.011719 1.671875 4.402343 6.601563 6.617187 11.007813 4.941406s6.617187-6.605469 4.941406-11.011719zm0 0" fill="#fff"/><path d="m435.199219 512h-358.398438c-2.585937 0-5.03125-1.171875-6.652343-3.1875-1.617188-2.015625-2.238282-4.652344-1.683594-7.179688l28.910156-131.390624c3.761719-12.792969 15.898438-21.261719 29.203125-20.375h258.894531c13.359375-.878907 25.527344 7.664062 29.238282 20.523437l28.824218 131.242187c.554688 2.527344-.066406 5.167969-1.683594 7.179688-1.621093 2.015625-4.066406 3.1875-6.652343 3.1875zm-347.78125-17.066406h337.167969l-26.574219-121.023438c-2.226563-4.800781-7.289063-7.617187-12.539063-6.976562h-258.894531c-5.199219-.632813-10.226563 2.109375-12.503906 6.828125zm0 0"/><path d="m324.265625 366.933594h-136.53125c-4.714844 0-8.535156-3.820313-8.535156-8.535156v-42.664063c0-4.714844 3.820312-8.535156 8.535156-8.535156h136.53125c4.714844 0 8.535156 3.820312 8.535156 8.535156v42.664063c0 4.714843-3.820312 8.535156-8.535156 8.535156zm-128-17.066406h119.46875v-25.601563h-119.46875zm0 0"/><path d="m324.265625 324.265625h-136.53125c-37.6875-.042969-68.222656-30.582031-68.269531-68.265625v-17.066406c0-4.714844 3.824218-8.535156 8.535156-8.535156 4.714844 0 8.535156 3.820312 8.535156 8.535156v17.066406c.027344 28.265625 22.933594 51.167969 51.199219 51.199219h136.53125c28.265625-.03125 51.171875-22.933594 51.199219-51.199219v-17.066406c0-4.714844 3.824218-8.535156 8.535156-8.535156 4.714844 0 8.535156 3.820312 8.535156 8.535156v17.066406c-.046875 37.683594-30.582031 68.222656-68.269531 68.265625zm0 0"/><path d="m102.398438 512h-93.863282c-4.714844 0-8.535156-3.820312-8.535156-8.535156v-7.59375c-.0117188-11.621094 1.390625-23.207032 4.175781-34.492188l8.132813-24.289062c10.191406-37.160156 44.402344-62.585938 82.921875-61.625h8.023437c4.710938 0 8.53125 3.824218 8.53125 8.535156s-3.820312 8.535156-8.53125 8.535156h-8.023437c-30.898438-.875-58.386719 19.492188-66.550781 49.304688l-8.136719 24.320312c-2.257813 9.425782-3.421875 19.082032-3.472657 28.773438h85.328126c4.714843 0 8.535156 3.820312 8.535156 8.53125 0 4.714844-3.820313 8.535156-8.535156 8.535156zm0 0"/><path d="m503.464844 512h-93.863282c-4.714843 0-8.535156-3.820312-8.535156-8.535156 0-4.710938 3.820313-8.53125 8.535156-8.53125h85.332032c-.058594-9.921875-1.289063-19.800782-3.667969-29.433594l-7.742187-22.976562c-7.992188-30.109376-35.613282-50.796876-66.753907-49.988282h-7.9375c-4.710937 0-8.535156-3.824218-8.535156-8.535156s3.824219-8.535156 8.535156-8.535156h7.9375c38.761719-.890625 73.105469 24.851562 83.125 62.3125l7.738281 22.949218c2.902344 11.488282 4.371094 23.292969 4.367188 35.144532v7.59375c0 4.714844-3.820312 8.535156-8.535156 8.535156zm0 0"/><path d="m127.960938 247.457031c-1.617188 0-3.203126-.464843-4.566407-1.339843-1.171875-.75-28.867187-19.027344-37.9375-71.335938-5.863281-33.816406-4.042969-84.941406 20.378907-117.765625 13.085937-17.917969 33.199218-29.40625 55.28125-31.574219 17.96875-2.140625 35.78125-3.972656 52.9375-5.4375 2.261718-.234375 4.523437.464844 6.261718 1.929688 1.742188 1.464844 2.8125 3.574218 2.972656 5.84375.398438 4.691406-3.082031 8.820312-7.777343 9.222656-16.96875 1.453125-34.585938 3.269531-52.367188 5.394531-17.410156 1.675781-33.277343 10.707031-43.617187 24.8125-21.195313 28.476563-22.539063 74.175781-17.25 104.660157 7.683594 44.339843 29.464844 59.304687 30.390625 59.925781 3.144531 2.078125 4.554687 5.96875 3.472656 9.582031-1.085937 3.609375-4.410156 6.082031-8.179687 6.082031zm0 0"/><path d="m384 247.464844c-22.332031 0-26.144531-30.855469-30.179688-63.53125-2.335937-18.933594-4.988281-40.390625-11.203124-50.402344-10.167969-16.355469-46.277344-10.722656-67.851563-7.335938-6.199219 1.160157-12.46875 1.898438-18.765625 2.21875-6.296875-.320312-12.566406-1.058593-18.765625-2.21875-21.574219-3.394531-57.6875-9.046874-67.851563 7.335938-6.214843 10.011719-8.867187 31.46875-11.203124 50.402344-4.035157 32.675781-7.847657 63.53125-30.179688 63.53125-4.710938 0-8.535156-3.820313-8.535156-8.53125 0-4.714844 3.824218-8.535156 8.535156-8.535156 7.246094 0 11.144531-31.589844 13.242188-48.554688 2.679687-21.691406 5.445312-44.117188 13.640624-57.304688 16.136719-25.984374 57.574219-19.492187 84.988282-15.210937 5.332031.984375 10.71875 1.660156 16.128906 2.015625 5.410156-.355469 10.796875-1.03125 16.128906-2.015625 27.40625-4.273437 68.839844-10.765625 84.992188 15.210937 8.191406 13.1875 10.960937 35.613282 13.640625 57.304688 2.09375 16.964844 5.992187 48.554688 13.238281 48.554688 4.714844 0 8.535156 3.820312 8.535156 8.535156 0 4.710937-3.820312 8.53125-8.535156 8.53125zm0 0"/><path d="m384.007812 247.464844c-3.777343.007812-7.113281-2.472656-8.191406-6.09375-1.078125-3.625.355469-7.523438 3.519532-9.585938 1.011718-.667968 22.714843-15.667968 30.390624-59.917968 5.289063-30.484376 3.941407-76.183594-17.253906-104.660157-10.339844-14.109375-26.210937-23.136719-43.621094-24.816406-17.777343-2.125-35.394531-3.941406-52.363281-5.390625-4.695312-.402344-8.175781-4.53125-7.777343-9.226562.152343-2.269532 1.222656-4.382813 2.964843-5.847657 1.742188-1.46875 4.003907-2.164062 6.269531-1.925781 17.152344 1.464844 34.96875 3.300781 52.933594 5.441406 22.085938 2.167969 42.195313 13.652344 55.285156 31.574219 24.421876 32.824219 26.242188 83.949219 20.378907 117.765625-9.070313 52.308594-36.765625 70.582031-37.9375 71.332031-1.371094.886719-2.964844 1.355469-4.597657 1.351563zm0 0"/><path d="m196.265625 68.265625c-2.742187-.003906-5.3125-1.324219-6.917969-3.546875-1.601562-2.222656-2.039062-5.082031-1.175781-7.683594.773437-2.328125 19.566406-57.035156 67.828125-57.035156s67.054688 54.707031 67.828125 57.035156c1.496094 4.46875-.914063 9.304688-5.382813 10.800782-4.472656 1.496093-9.308593-.914063-10.804687-5.386719-.148437-.457031-15.730469-45.382813-51.640625-45.382813-36.097656 0-51.488281 44.910156-51.636719 45.367188-1.164062 3.484375-4.425781 5.832031-8.097656 5.832031zm0 0"/><path d="m256 512h-59.734375c-3.957031 0-7.394531-2.71875-8.308594-6.570312l-34.132812-145.066407c-1.082031-4.589843 1.761719-9.183593 6.351562-10.265625 4.585938-1.082031 9.183594 1.761719 10.265625 6.347656l32.582032 138.488282h52.976562c4.714844 0 8.535156 3.820312 8.535156 8.53125 0 4.714844-3.820312 8.535156-8.535156 8.535156zm0 0"/><path d="m315.734375 512h-59.734375c-4.710938 0-8.535156-3.820312-8.535156-8.535156 0-4.710938 3.824218-8.53125 8.535156-8.53125h52.976562l32.582032-138.496094c.699218-2.96875 2.929687-5.335938 5.851562-6.214844 2.917969-.878906 6.085938-.132812 8.304688 1.957032 2.222656 2.089843 3.160156 5.207031 2.460937 8.175781l-34.132812 145.066406c-.910157 3.851563-4.351563 6.578125-8.308594 6.578125zm0 0"/><path d="m213.332031 512h-17.066406c-4.710937 0-8.53125-3.820312-8.53125-8.535156 0-4.710938 3.820313-8.53125 8.53125-8.53125h17.066406c9.421875-.011719 17.058594-7.644532 17.066407-17.066406 0-4.714844 3.820312-8.535157 8.535156-8.535157 4.710937 0 8.53125 3.820313 8.53125 8.535157-.019532 18.84375-15.289063 34.113281-34.132813 34.132812zm0 0"/><path d="m315.734375 512h-17.066406c-18.84375-.019531-34.113281-15.289062-34.132813-34.132812 0-4.714844 3.820313-8.535157 8.53125-8.535157 4.714844 0 8.535156 3.820313 8.535156 8.535157.007813 9.421874 7.644532 17.054687 17.066407 17.066406h17.066406c4.710937 0 8.53125 3.820312 8.53125 8.53125 0 4.714844-3.820313 8.535156-8.53125 8.535156zm0 0"/><path d="m177.996094 434.347656c-1.640625 0-3.246094-.472656-4.625-1.367187l-.816406-.523438c-6.449219-4.175781-26.082032-16.882812-39.839844-23.757812-2.890625-1.445313-4.714844-4.402344-4.714844-7.632813v-42.667968c0-4.710938 3.820312-8.53125 8.535156-8.53125 4.710938 0 8.53125 3.820312 8.53125 8.53125v37.484374c13.945313 7.484376 30.804688 18.394532 36.757813 22.242188l.8125.523438c3.179687 2.054687 4.625 5.957031 3.554687 9.589843-1.074218 3.628907-4.410156 6.117188-8.195312 6.113281zm0 0"/><path d="m334.003906 434.347656c-3.785156.003906-7.117187-2.488281-8.191406-6.117187-1.070312-3.628907.375-7.53125 3.554688-9.585938l.949218-.617187c3.125-2.015625 9.253906-5.980469 16.355469-10.355469 7.785156-4.792969 14.578125-8.75 20.261719-11.792969v-37.480468c0-4.710938 3.820312-8.53125 8.53125-8.53125 4.714844 0 8.535156 3.820312 8.535156 8.53125v42.667968c0 3.234375-1.828125 6.1875-4.71875 7.632813-6.050781 3.027343-14.015625 7.566406-23.660156 13.507812-6.960938 4.285157-12.972656 8.175781-16.035156 10.160157l-.960938.617187c-1.375.890625-2.980469 1.363281-4.621094 1.363281zm0 0"/><path d="m238.933594 409.601562c-2.265625 0-4.433594-.898437-6.035156-2.5l-6.03125-6.035156h-13.535157c-4.710937 0-8.53125-3.820312-8.53125-8.53125 0-4.714844 3.820313-8.535156 8.53125-8.535156h17.066407c2.265624 0 4.433593.898438 6.035156 2.5l8.53125 8.535156c2.441406 2.4375 3.171875 6.109375 1.851562 9.296875-1.320312 3.1875-4.433594 5.265625-7.882812 5.269531zm0 0"/><path d="m273.066406 409.601562c-3.449218-.003906-6.5625-2.082031-7.882812-5.269531-1.320313-3.1875-.589844-6.859375 1.851562-9.296875l8.53125-8.535156c1.601563-1.601562 3.769532-2.5 6.035156-2.5h17.066407c4.710937 0 8.53125 3.820312 8.53125 8.535156 0 4.710938-3.820313 8.53125-8.53125 8.53125h-13.535157l-6.03125 6.035156c-1.601562 1.601563-3.769531 2.5-6.035156 2.5zm0 0"/></svg>