<svg height="512pt" viewBox="0 0 512 512.00118" width="512pt" xmlns="http://www.w3.org/2000/svg"><path d="m409.601562 503.46875h93.867188v-7.59375c.015625-10.929688-1.304688-21.820312-3.925781-32.429688l-7.9375-23.636718c-9.203125-33.558594-40.046875-56.558594-74.835938-55.808594h-321.535156c-34.789063-.75-65.632813 22.25-74.839844 55.808594l-7.933593 23.636718c-2.625 10.609376-3.941407 21.5-3.925782 32.429688v7.59375zm0 0" fill="#783e22"/><path d="m187.734375 298.667969h136.53125v76.800781h-136.53125zm0 0" fill="#fec108"/><path d="m204.800781 503.46875h-128l28.929688-131.414062c2.941406-8.820313 11.554687-14.46875 20.820312-13.652344h35.582031c.511719 1.875 1.109376 3.667968 1.621094 5.460937.234375.898438.519532 1.78125.855469 2.644531.253906.9375.597656 1.792969.851563 2.558594.855468 2.648438 1.707031 5.207032 2.644531 7.679688.105469.355468.25.699218.429687 1.027344.679688 1.960937 1.363282 3.839843 2.132813 5.628906.511719 1.28125 1.023437 2.5625 1.535156 3.757812.09375.152344.152344.328125.171875.511719 1.363281 3.242187 2.816406 6.226563 4.179688 9.042969.855468 1.707031 1.621093 3.328125 2.476562 4.863281.253906.597656.597656 1.109375.851562 1.625.171876.253906.34375.59375.511719.851563.34375.769531.769531 1.449218 1.109375 2.132812 1.621094 2.816406 3.242188 5.460938 4.863282 7.851562.855468 1.363282 1.707031 2.644532 2.5625 3.839844.679687.9375 1.277343 1.792969 1.960937 2.644532l.511719.769531c.257812.253906.425781.597656.683594.851562.304687.355469.589843.722657.851562 1.109375.683594.855469 1.367188 1.621094 2.050781 2.390625 1.195313 1.535157 2.472657 2.816407 3.496094 3.925781 1.316406 1.386719 2.714844 2.699219 4.183594 3.925782.320312.308594.660156.59375 1.023437.851562l.257813.257813c.238281.1875.496093.359375.765625.511719l.085937.085937c1.332031 2.507813 2.5 5.101563 3.5 7.761719 7.78125 19.703125 6.5 41.828125-3.5 60.503906zm0 0" fill="#91562d"/><path d="m435.199219 503.46875h-128c-7.398438-13.257812-10.132813-28.613281-7.765625-43.605469.34375-2.132812.683594-4.097656 1.109375-5.890625 0-.167968.085937-.339844.085937-.511718.855469-3.496094 1.792969-6.65625 2.644532-9.300782.171874-.425781.257812-.765625.429687-1.109375v-.085937l.085937-.082032c.960938-2.636718 2.101563-5.203124 3.410157-7.679687.394531-.257813.765625-.542969 1.109375-.855469.34375-.253906.769531-.597656 1.28125-1.023437 1.023437-.9375 2.304687-2.132813 3.925781-3.753907 1.023437-1.109374 2.304687-2.390624 3.5-3.925781.679687-.769531 1.363281-1.535156 2.046875-2.390625.34375-.503906.710938-.988281 1.109375-1.449218.117187-.191407.257813-.363282.425781-.511719 1.621094-2.132813 3.328125-4.523438 5.035156-7.253907 2.132813-3.242187 4.265626-6.828124 6.484376-10.835937 1.109374-2.050781 2.21875-4.183594 3.328124-6.488281 1.367188-2.816406 2.816407-5.800782 4.183594-9.042969.011719-.199219.101563-.382813.253906-.511719.425782-1.195312.9375-2.476562 1.449219-3.757812 1.792969-4.4375 3.585938-9.214844 5.207031-14.335938.597657-1.707031 1.195313-3.410156 1.707032-5.203125.511718-1.792969 1.109375-3.585937 1.621094-5.460937h35.585937c9.28125-.816406 17.917969 4.824218 20.90625 13.652344zm0 0" fill="#91562d"/><path d="m307.199219 503.46875h-102.398438c10-18.675781 11.28125-40.800781 3.5-60.503906-1-2.660156-2.167969-5.253906-3.5-7.761719.683594-1.367187 1.449219-2.816406 2.304688-4.183594.167969-.339843.425781-.683593.683593-1.109375.359376-.746094.789063-1.460937 1.277344-2.132812 4.578125-7.183594 9.746094-13.976563 15.445313-20.308594 1.28125-1.453125 2.390625-2.730469 3.328125-3.753906l.9375-.941406c1.027344-1.109376 1.625-1.707032 1.625-1.707032l5.203125 6.914063 20.394531 27.222656 20.394531-27.222656 5.207031-6.914063s.597657.597656 1.621094 1.707032l.9375.941406c.257813.339844.597656.679687.9375 1.109375.25.203125.476563.433593.683594.679687.597656.597656 1.109375 1.28125 1.707031 1.964844 5.148438 5.746094 9.878907 11.847656 14.164063 18.261719.285156.5.597656.984375.941406 1.449219.144531.179687.257812.382812.339844.597656 1.550781 2.398437 2.972656 4.878906 4.265625 7.425781-1.308594 2.476563-2.449219 5.042969-3.410157 7.679687l-.085937.082032v.085937c-1.304687 3.382813-2.332031 6.863281-3.074219 10.410157-.511718 2.050781-.851562 4.183593-1.195312 6.402343-2.367188 14.992188.367187 30.347657 7.765625 43.605469zm0 0" fill="#f5f5f5"/><path d="m349.867188 358.402344c-.511719 1.875-1.109376 3.667968-1.621094 5.460937-.511719 1.792969-1.109375 3.582031-1.707032 5.203125-1.621093 5.121094-3.414062 9.898438-5.207031 14.335938-.511719 1.28125-1.023437 2.5625-1.449219 3.757812-.152343.128906-.242187.3125-.253906.511719-1.367187 3.242187-2.816406 6.226563-4.183594 9.042969-1.109374 2.304687-2.21875 4.4375-3.328124 6.488281-.167969.253906-.339844.59375-.511719.851563-.9375 1.707031-1.875 3.328124-2.730469 4.863281-.511719.9375-1.109375 1.792969-1.621094 2.644531-.597656.855469-1.109375 1.707031-1.621094 2.476562-1.707031 2.730469-3.414062 5.121094-5.035156 7.253907-.171875.167969-.253906.339843-.425781.511719-.398437.460937-.765625.945312-1.109375 1.449218-.683594.855469-1.367188 1.621094-2.046875 2.390625-1.195313 1.535157-2.476563 2.816407-3.5 3.925781-1.621094 1.621094-2.902344 2.816407-3.925781 3.753907-.511719.425781-.9375.769531-1.28125 1.023437-.34375.3125-.714844.597656-1.109375.855469-.679688-1.367187-1.449219-2.816406-2.300781-4.183594v-.085937c-.191407-.335938-.421876-.652344-.683594-.9375v-.085938c-.085938-.171875-.085938-.253906-.171875-.339844 0-.085937-.085938-.171874-.171875-.34375l-.082032-.085937c0-.082031-.085937-.167969-.171874-.339844-.199219-.359375-.425782-.703125-.683594-1.023437-.085938-.171875-.253906-.425782-.339844-.597656-.085938-.085938-.171875-.253907-.257812-.339844-.195313-.390625-.421876-.761719-.683594-1.109375-.425782-.597657-.851563-1.28125-1.277344-1.878907-.257812-.425781-.511719-.769531-.769531-1.195312-.253907-.339844-.597657-.765625-.9375-1.195312-.199219-.332032-.429688-.644532-.683594-.9375l-1.023437-1.535157c-.085938-.085937-.171876-.257812-.257813-.339843-.222656-.183594-.398437-.417969-.511719-.683594-.253906-.34375-.597656-.683594-.851562-1.023438-.664063-.921875-1.375-1.804687-2.132813-2.648437-2.050781-2.644531-4.011719-4.863281-5.71875-6.824219-.597656-.683594-1.109375-1.367188-1.707031-1.964844l-.683594-.679687c-2.132812-2.390625-3.496094-3.757813-3.496094-3.757813l1.109376-1.363281 1.960937-2.476563 2.21875-2.816406 28.84375-36.007812zm0 0" fill="#cfd8dc"/><path d="m315.734375 358.402344-28.84375 36.007812-2.21875 2.816406-1.960937 2.476563-1.109376 1.363281-5.207031 6.914063-20.394531 27.222656-20.394531-27.222656-5.203125-6.914063-5.292969-6.65625-28.84375-36.007812zm0 0" fill="#ffdc00"/><path d="m230.402344 401.066406s-.597656.597656-1.625 1.707032l-.9375.941406c-.9375 1.023437-2.046875 2.300781-3.328125 3.753906-5.699219 6.332031-10.867188 13.125-15.445313 20.308594-.488281.671875-.917968 1.386718-1.277344 2.132812-.289062.328125-.519531.703125-.683593 1.109375-.855469 1.367188-1.621094 2.816407-2.304688 4.183594l-.085937-.085937c-.269532-.152344-.527344-.324219-.765625-.511719l-.257813-.257813c-.363281-.257812-.703125-.542968-1.023437-.851562-1.46875-1.226563-2.867188-2.539063-4.183594-3.925782-1.023437-1.109374-2.300781-2.390624-3.496094-3.925781-.683593-.769531-1.367187-1.535156-2.050781-2.390625-.261719-.386718-.546875-.753906-.851562-1.109375-.199219-.304687-.429688-.589843-.683594-.851562l-.511719-.769531c-.683594-.851563-1.363281-1.792969-1.960937-2.644532-.855469-1.195312-1.707032-2.476562-2.5625-3.839844-1.621094-2.390624-3.242188-4.949218-4.863282-7.851562-.339844-.683594-.765625-1.363281-1.109375-2.132812-.167969-.257813-.339843-.597657-.511719-.851563-.253906-.515625-.597656-1.027344-.851562-1.625-.855469-1.535156-1.707031-3.15625-2.476562-4.863281-1.363282-2.816406-2.730469-5.800782-4.179688-9.042969-.019531-.183594-.078125-.359375-.171875-.511719-.511719-1.195312-1.023437-2.476562-1.535156-3.757812-.769531-1.789063-1.453125-3.667969-2.132813-5.628906-.179687-.328126-.324218-.671876-.429687-1.027344-.9375-2.472656-1.789063-5.03125-2.644531-7.679688-.253907-.765625-.597657-1.621094-.851563-2.558594-.34375-.851562-.597656-1.792968-.855469-2.644531-.511718-1.792969-1.109375-3.585937-1.621094-5.460937h34.132813l28.84375 36.007812zm0 0" fill="#cfd8dc"/><path d="m129.621094 119.808594c-2.261719 0-4.433594-.898438-6.035156-2.496094-1.601563-1.601562-2.5-3.773438-2.496094-6.035156.007812-.785156.113281-1.5625.316406-2.316406 1-4.210938 4.996094-7.007813 9.296875-6.503907 4.296875.503907 7.539063 4.148438 7.539063 8.476563-.003907.710937-.09375 1.414062-.269532 2.101562-.832031 3.949219-4.316406 6.773438-8.351562 6.773438zm0 0"/><path d="m382.378906 119.808594c-4.042968.003906-7.535156-2.828125-8.363281-6.78125-.164063-.6875-.25-1.386719-.253906-2.09375-.007813-4.335938 3.238281-7.984375 7.546875-8.484375 4.304687-.503907 8.304687 2.304687 9.292968 6.527343.195313.75.296876 1.523438.308594 2.300782.003906 2.261718-.894531 4.433594-2.496094 6.035156-1.601562 1.597656-3.769531 2.496094-6.035156 2.496094zm0 0"/><path d="m384 136.535156v119.464844c.011719 15.847656-6.277344 31.046875-17.480469 42.25-11.207031 11.207031-26.40625 17.496094-42.253906 17.484375h-136.53125c-15.847656.011719-31.046875-6.277344-42.25-17.484375-11.207031-11.203125-17.496094-26.402344-17.484375-42.25v-119.464844c.03125-8.242187.542969-16.480468 1.535156-24.660156 31.574219 10.152344 64.769532 40.703125 126.464844 41.726562 61.695312-1.023437 94.890625-31.574218 126.464844-41.726562.992187 8.179688 1.503906 16.417969 1.535156 24.660156zm0 0" fill="#fec108"/><path d="m358.402344 136.535156v119.464844c0 33.023438-21.371094 59.734375-47.789063 59.734375h-109.226562c-26.417969 0-47.785157-26.710937-47.785157-59.734375v-119.464844c0-4.609375.410157-19.117187 1.226563-24.660156 25.261719 10.152344 51.816406 40.703125 101.171875 41.726562 49.355469-1.023437 75.914062-31.574218 101.171875-41.726562.820313 5.542969 1.230469 20.050781 1.230469 24.660156zm0 0" fill="#ffdc00"/><path d="m129.535156 111.875c-.992187 8.179688-1.503906 16.417969-1.535156 24.660156v93.867188s-111.101562-70.828125-50.003906-110.933594c10.964844-7.992188 24.460937-11.722656 37.972656-10.496094 3.789062.367188 7.535156 1.109375 11.179688 2.21875.765624.167969 1.621093.425782 2.386718.683594zm0 0" fill="#783e22"/><path d="m384 230.402344v-93.867188c-.03125-8.242187-.542969-16.480468-1.535156-24.660156.769531-.257812 1.621094-.515625 2.390625-.683594 3.640625-1.109375 7.386719-1.851562 11.175781-2.21875 13.511719-1.226562 27.011719 2.503906 37.976562 10.496094 61.097657 40.105469-50.007812 110.933594-50.007812 110.933594zm0 0" fill="#783e22"/><path d="m382.464844 111.875c-31.574219 10.152344-64.769532 40.703125-126.464844 41.726562-61.695312-1.023437-94.890625-31.574218-126.464844-41.726562 0-.171875.085938-.429688.085938-.597656 48.042968 1.535156 96.171875 8.191406 126.378906 8.191406s78.335938-6.65625 126.378906-8.191406c0 .167968.085938.425781.085938.597656zm0 0" fill="#91562d"/><path d="m396.03125 108.972656c-3.789062.367188-7.535156 1.109375-11.175781 2.21875-.855469 0-1.621094.085938-2.476563.085938-48.042968 1.535156-96.171875 8.191406-126.378906 8.191406s-78.335938-6.65625-126.378906-8.191406c-.851563 0-1.621094-.085938-2.472656-.085938-3.644532-1.109375-7.390626-1.851562-11.179688-2.21875l37.71875-78.59375c5.113281-13.167968 17.789062-21.84375 31.914062-21.84375h140.800782c14.125 0 26.796875 8.675782 31.914062 21.84375zm0 0" fill="#91562d"/><g fill="#805333"><path d="m170.667969 230.402344c0 4.710937-3.820313 8.53125-8.535157 8.53125-4.710937 0-8.53125-3.820313-8.53125-8.53125 0-4.714844 3.820313-8.535156 8.53125-8.535156 4.714844 0 8.535157 3.820312 8.535157 8.535156zm0 0"/><path d="m170.667969 256c0 4.714844-3.820313 8.535156-8.535157 8.535156-4.710937 0-8.53125-3.820312-8.53125-8.535156 0-4.710938 3.820313-8.53125 8.53125-8.53125 4.714844 0 8.535157 3.820312 8.535157 8.53125zm0 0"/><path d="m196.265625 256c0 4.714844-3.820313 8.535156-8.53125 8.535156-4.714844 0-8.535156-3.820312-8.535156-8.535156 0-4.710938 3.820312-8.53125 8.535156-8.53125 4.710937 0 8.53125 3.820312 8.53125 8.53125zm0 0"/><path d="m196.265625 281.601562c0 4.710938-3.820313 8.53125-8.53125 8.53125-4.714844 0-8.535156-3.820312-8.535156-8.53125 0-4.714843 3.820312-8.535156 8.535156-8.535156 4.710937 0 8.53125 3.820313 8.53125 8.535156zm0 0"/><path d="m221.867188 281.601562c0 4.710938-3.820313 8.53125-8.535157 8.53125-4.710937 0-8.53125-3.820312-8.53125-8.53125 0-4.714843 3.820313-8.535156 8.53125-8.535156 4.714844 0 8.535157 3.820313 8.535157 8.535156zm0 0"/><path d="m358.402344 230.402344c0 4.710937-3.820313 8.53125-8.535156 8.53125-4.710938 0-8.535157-3.820313-8.535157-8.53125 0-4.714844 3.824219-8.535156 8.535157-8.535156 4.714843 0 8.535156 3.820312 8.535156 8.535156zm0 0"/><path d="m358.402344 256c0 4.714844-3.820313 8.535156-8.535156 8.535156-4.710938 0-8.535157-3.820312-8.535157-8.535156 0-4.710938 3.824219-8.53125 8.535157-8.53125 4.714843 0 8.535156 3.820312 8.535156 8.53125zm0 0"/><path d="m332.800781 256c0 4.714844-3.820312 8.535156-8.535156 8.535156-4.710937 0-8.53125-3.820312-8.53125-8.535156 0-4.710938 3.820313-8.53125 8.53125-8.53125 4.714844 0 8.535156 3.820312 8.535156 8.53125zm0 0"/><path d="m332.800781 281.601562c0 4.710938-3.820312 8.53125-8.535156 8.53125-4.710937 0-8.53125-3.820312-8.53125-8.53125 0-4.714843 3.820313-8.535156 8.53125-8.535156 4.714844 0 8.535156 3.820313 8.535156 8.535156zm0 0"/><path d="m307.199219 281.601562c0 4.710938-3.820313 8.53125-8.53125 8.53125-4.714844 0-8.535157-3.820312-8.535157-8.53125 0-4.714843 3.820313-8.535156 8.535157-8.535156 4.710937 0 8.53125 3.820313 8.53125 8.535156zm0 0"/></g><path d="m236.460938 407.125-.855469.855469c-1.109375 1.109375-3.242188 3.414062-5.886719 6.484375-5.746094 6.488281-10.886719 13.488281-15.359375 20.90625-.683594 1.195312-1.367187 2.476562-1.964844 3.671875-.863281 1.746093-2.3125 3.136719-4.09375 3.921875-.394531.246094-.828125.417968-1.28125.511718-.726562.171876-1.472656.257813-2.21875.257813-1.675781.003906-3.3125-.503906-4.695312-1.449219-.6875-.46875-1.339844-.980468-1.960938-1.539062l-.085937-.082032-.171875-.171874c-7.082031-5.71875-28.925781-27.222657-43.945313-79.785157-.242187-.746093-.359375-1.523437-.339844-2.304687h17.40625c5.824219 23.164062 16.695313 44.753906 31.832032 63.230468 4.867187-7.417968 10.320312-14.433593 16.296875-20.992187l-29.527344-36.949219c-1.226563-1.488281-1.890625-3.359375-1.875-5.289062h19.457031l29.863282 37.375c.085937 0 .085937.085937.171874.171875 2.550782 3.398437 2.226563 8.15625-.765624 11.175781zm0 0" fill="#b19046"/><path d="m358.402344 358.402344c.011718.78125-.105469 1.558594-.34375 2.304687-15.019532 52.5625-36.863282 74.066407-43.945313 79.785157l-.171875.171874c0 .082032-.085937.082032-.085937.167969-1.109375.855469-1.789063 1.367188-1.960938 1.453125-1.382812.945313-3.019531 1.453125-4.695312 1.449219-.746094 0-1.488281-.085937-2.21875-.257813-.453125-.09375-.882813-.265624-1.277344-.511718-1.785156-.785156-3.234375-2.175782-4.097656-3.921875-.597657-1.195313-1.28125-2.476563-1.960938-3.671875-4.476562-7.417969-9.617187-14.417969-15.359375-20.90625-2.648437-3.070313-4.78125-5.375-5.890625-6.484375l-.851562-.855469c-2.992188-3.019531-3.320313-7.777344-.769531-11.175781.085937-.085938.085937-.171875.171874-.171875l29.867188-37.375h19.453125c.019531 1.929687-.648437 3.800781-1.875 5.289062l-29.527344 36.949219c5.980469 6.558594 11.429688 13.574219 16.300781 20.992187 15.121094-18.484374 25.988282-40.074218 31.828126-63.230468zm0 0" fill="#b19046"/><path d="m256 443.734375c-2.683594 0-5.214844-1.265625-6.824219-3.414063l-25.601562-34.132812c-2.828125-3.769531-2.0625-9.117188 1.707031-11.945312 3.769531-2.828126 9.117188-2.066407 11.945312 1.707031l18.773438 25.027343 18.773438-25.027343c2.828124-3.773438 8.175781-4.535157 11.945312-1.707031 3.773438 2.828124 4.535156 8.175781 1.707031 11.945312l-25.597656 34.132812c-1.613281 2.148438-4.140625 3.414063-6.828125 3.414063zm0 0" fill="#b19046"/><path d="m214.359375 503.46875h-18.09375c-.015625-1.46875.367187-2.914062 1.109375-4.183594 9.574219-18.3125 9.828125-40.09375.683594-58.621094l-.171875-.171874c-.136719-.382813-.308594-.753907-.511719-1.109376-1.769531-3.171874-1.324219-7.117187 1.109375-9.8125.59375-.726562 1.316406-1.335937 2.136719-1.792968 2.628906-1.453125 5.816406-1.453125 8.445312 0 1.335938.765625 2.429688 1.886718 3.160156 3.242187.796876 1.40625 1.511719 2.859375 2.132813 4.351563 9.921875 21.613281 9.921875 46.484375 0 68.097656zm0 0" fill="#b19046"/><path d="m315.734375 503.46875h-18.089844c-9.925781-21.613281-9.925781-46.484375 0-68.097656.617188-1.492188 1.332031-2.945313 2.132813-4.351563.753906-1.335937 1.839844-2.453125 3.15625-3.242187 2.605468-1.535156 5.84375-1.535156 8.449218 0 .816407.457031 1.539063 1.066406 2.132813 1.792968 2.429687 2.695313 2.875 6.640626 1.109375 9.8125-.199219.355469-.371094.726563-.511719 1.109376l-.171875.171874c-9.105468 18.535157-8.855468 40.300782.683594 58.621094.742188 1.269532 1.125 2.714844 1.109375 4.183594zm0 0" fill="#b19046"/><path d="m296.34375 256c-6.898438 13.492188-28.417969 15.402344-40.171875 15.402344-11.78125 0-33.277344-1.910156-40.171875-15.402344 13.148438 3.238281 26.628906 4.929688 40.171875 5.035156 13.539063-.105468 27.023437-1.792968 40.171875-5.035156zm0 0"/><path d="m233.648438 167.160156c-8.109376-2.980468-16.625-4.707031-25.257813-5.121094-11.601563-.875-23.214844 1.601563-33.449219 7.132813 1.167969-14.933594 35.789063-17.882813 52.714844-14.042969 2.679688.332032 5.015625 1.988282 6.222656 4.40625 1.207032 2.421875 1.121094 5.28125-.230468 7.625zm0 0"/><path d="m230.402344 193.546875c0-10.101563-7.644532-18.292969-17.070313-18.292969-9.421875 0-17.066406 8.191406-17.066406 18.292969s7.644531 18.292969 17.066406 18.292969c9.425781 0 17.070313-8.191406 17.070313-18.292969zm0 0"/><path d="m218.125 177.671875c-4.40625-1.675781-9.335938.535156-11.011719 4.941406s.539063 9.332031 4.941407 11.007813c4.40625 1.675781 9.335937-.535156 11.011718-4.941406 1.675782-4.40625-.539062-9.332032-4.941406-11.007813zm0 0" fill="#fff"/><path d="m278.351562 167.160156c8.109376-2.980468 16.628907-4.707031 25.257813-5.121094 11.605469-.875 23.214844 1.601563 33.449219 7.132813-1.164063-14.933594-35.785156-17.882813-52.710938-14.042969-2.683594.332032-5.019531 1.988282-6.226562 4.40625-1.203125 2.421875-1.117188 5.28125.230468 7.625zm0 0"/><path d="m315.734375 193.546875c0-10.101563-7.640625-18.292969-17.066406-18.292969s-17.066407 8.191406-17.066407 18.292969 7.640626 18.292969 17.066407 18.292969 17.066406-8.191406 17.066406-18.292969zm0 0"/><path d="m304.890625 182.617188c-1.671875-4.40625-6.601563-6.617188-11.007813-4.941407s-6.617187 6.605469-4.941406 11.007813c1.675782 4.40625 6.605469 6.617187 11.007813 4.941406 4.40625-1.671875 6.617187-6.601562 4.941406-11.007812zm0 0" fill="#fff"/><path d="m435.199219 512h-358.398438c-2.585937 0-5.03125-1.171875-6.648437-3.1875-1.621094-2.011719-2.242188-4.652344-1.683594-7.175781l28.90625-131.394531c3.761719-12.792969 15.902344-21.261719 29.210938-20.375h258.890624c13.359376-.882813 25.53125 7.664062 29.230469 20.535156l28.828125 131.234375c.554688 2.523437-.066406 5.164062-1.683594 7.175781-1.621093 2.015625-4.066406 3.1875-6.652343 3.1875zm-347.78125-17.066406h337.175781l-26.585938-121.023438c-2.21875-4.800781-7.28125-7.621094-12.53125-6.976562h-258.890624c-5.203126-.632813-10.230469 2.109375-12.511719 6.828125zm0 0"/><path d="m324.265625 366.933594h-136.53125c-4.714844 0-8.535156-3.820313-8.535156-8.53125v-42.667969c0-4.710937 3.820312-8.53125 8.535156-8.53125h136.53125c4.714844 0 8.535156 3.820313 8.535156 8.53125v42.667969c0 4.710937-3.820312 8.53125-8.535156 8.53125zm-128-17.066406h119.46875v-25.597657h-119.46875zm0 0"/><path d="m324.265625 324.269531h-136.53125c-37.683594-.046875-68.222656-30.582031-68.265625-68.269531v-119.464844c.015625-9.246094.667969-18.476562 1.949219-27.632812 1.121093-4.582032 5.746093-7.382813 10.324219-6.257813 4.578124 1.121094 7.382812 5.742188 6.257812 10.324219-.957031 7.820312-1.449219 15.6875-1.464844 23.566406v119.464844c.03125 28.265625 22.933594 51.171875 51.199219 51.203125h136.53125c28.265625-.03125 51.171875-22.9375 51.203125-51.203125v-119.464844c-.019531-7.878906-.507812-15.746094-1.46875-23.566406-1.121094-4.582031 1.679688-9.203125 6.257812-10.324219 4.582032-1.125 9.203126 1.675781 10.328126 6.257813 1.277343 9.15625 1.929687 18.386718 1.949218 27.632812v119.464844c-.042968 37.6875-30.582031 68.222656-68.269531 68.269531zm0 0"/><path d="m102.402344 512h-93.867188c-4.714844 0-8.535156-3.820312-8.535156-8.53125v-7.59375c-.0078125-11.621094 1.394531-23.203125 4.175781-34.484375l8.125-24.300781c10.199219-37.15625 44.410157-62.578125 82.933594-61.621094h8.019531c4.710938 0 8.535156 3.820312 8.535156 8.53125 0 4.714844-3.824218 8.535156-8.535156 8.535156h-8.019531c-30.902344-.871094-58.394531 19.492188-66.5625 49.308594l-8.125 24.320312c-2.257813 9.425782-3.421875 19.078126-3.480469 28.769532h85.335938c4.710937 0 8.53125 3.820312 8.53125 8.535156 0 4.710938-3.820313 8.53125-8.53125 8.53125zm0 0"/><path d="m503.46875 512h-93.867188c-4.714843 0-8.535156-3.820312-8.535156-8.53125 0-4.714844 3.820313-8.535156 8.535156-8.535156h85.332032c-.066406-9.921875-1.296875-19.804688-3.675782-29.4375l-7.742187-22.96875c-7.988281-30.109375-35.605469-50.796875-66.746094-49.992188h-7.9375c-4.710937 0-8.53125-3.820312-8.53125-8.535156 0-4.710938 3.820313-8.53125 8.53125-8.53125h7.9375c38.761719-.890625 73.105469 24.851562 83.125 62.308594l7.742188 22.949218c2.894531 11.492188 4.363281 23.296876 4.363281 35.148438v7.59375c0 4.710938-3.820312 8.53125-8.53125 8.53125zm0 0"/><path d="m127.992188 238.933594c-1.621094 0-3.210938-.464844-4.574219-1.339844-7.375-4.699219-72.042969-47.117188-72.316407-88.652344.3125-15.292968 8.777344-29.253906 22.191407-36.605468 34.832031-22.859376 60.609375-9.660157 90.457031 5.625 24.191406 12.382812 51.609375 26.425781 92.390625 27.105468 40.5-.679687 67.917969-14.722656 92.109375-27.105468 29.851562-15.285157 55.625-28.484376 90.457031-5.625 13.414063 7.351562 21.878907 21.3125 22.195313 36.605468-.277344 41.535156-64.941406 83.953125-72.320313 88.652344-3.960937 2.386719-9.105469 1.179688-11.59375-2.722656s-1.414062-9.074219 2.421875-11.660156c17.855469-11.410157 64.25-47 64.425782-74.394532-.511719-9.460937-6.039063-17.933594-14.492188-22.214844-26.53125-17.410156-45.148438-7.875-73.308594 6.550782-30.386718 17.773437-64.710937 27.734375-99.894531 28.980468-35.277344-1.210937-69.699219-11.167968-100.171875-28.980468-28.160156-14.421875-46.785156-23.960938-73.308594-6.550782-8.457031 4.28125-13.984375 12.753907-14.492187 22.222657.183593 27.441406 46.566406 62.992187 64.414062 74.382812 3.199219 2.039063 4.667969 5.945313 3.605469 9.585938s-4.402344 6.144531-8.195312 6.140625zm0 0"/><path d="m256 128c-15.457031 0-34.808594-1.648438-57.207031-3.558594-22.160157-1.890625-47.269531-4.03125-71.882813-4.714844-4.714844-.132812-8.425781-4.0625-8.292968-8.773437.132812-4.714844 4.0625-8.425781 8.773437-8.292969 25.101563.707032 50.46875 2.867188 72.851563 4.773438 22.007812 1.878906 41.023437 3.5 55.757812 3.5s33.75-1.621094 55.757812-3.5c22.382813-1.90625 47.75-4.066406 72.851563-4.773438 3.046875-.085937 5.910156 1.460938 7.511719 4.058594 1.597656 2.59375 1.691406 5.847656.242187 8.53125-1.453125 2.683594-4.222656 4.390625-7.269531 4.476562-24.617188.683594-49.726562 2.824219-71.886719 4.714844-22.398437 1.910156-41.75 3.558594-57.207031 3.558594zm0 0"/><path d="m396.042969 117.503906c-3.285157.003906-6.28125-1.878906-7.699219-4.839844l-37.71875-78.59375c-3.714844-10.183593-13.386719-16.96875-24.222656-17.003906h-140.800782c-10.621093-.035156-20.160156 6.496094-23.96875 16.410156l-37.972656 79.183594c-1.277344 2.8125-3.980468 4.714844-7.058594 4.96875-3.082031.257813-6.058593-1.171875-7.785156-3.734375-1.726562-2.5625-1.933594-5.859375-.539062-8.617187l37.71875-78.59375c6.429687-16.214844 22.160156-26.8125 39.605468-26.683594h140.800782c17.660156-.0625 33.527344 10.789062 39.863281 27.277344l37.464844 78c1.265625 2.640625 1.089843 5.75-.46875 8.230468-1.558594 2.480469-4.28125 3.988282-7.210938 3.992188zm0 0"/><path d="m170.667969 230.402344c0 4.710937-3.820313 8.53125-8.535157 8.53125-4.710937 0-8.53125-3.820313-8.53125-8.53125 0-4.714844 3.820313-8.535156 8.53125-8.535156 4.714844 0 8.535157 3.820312 8.535157 8.535156zm0 0"/><path d="m170.667969 256c0 4.714844-3.820313 8.535156-8.535157 8.535156-4.710937 0-8.53125-3.820312-8.53125-8.535156 0-4.710938 3.820313-8.53125 8.53125-8.53125 4.714844 0 8.535157 3.820312 8.535157 8.53125zm0 0"/><path d="m196.265625 256c0 4.714844-3.820313 8.535156-8.53125 8.535156-4.714844 0-8.535156-3.820312-8.535156-8.535156 0-4.710938 3.820312-8.53125 8.535156-8.53125 4.710937 0 8.53125 3.820312 8.53125 8.53125zm0 0"/><path d="m196.265625 281.601562c0 4.710938-3.820313 8.53125-8.53125 8.53125-4.714844 0-8.535156-3.820312-8.535156-8.53125 0-4.714843 3.820312-8.535156 8.535156-8.535156 4.710937 0 8.53125 3.820313 8.53125 8.535156zm0 0"/><path d="m221.867188 281.601562c0 4.710938-3.820313 8.53125-8.535157 8.53125-4.710937 0-8.53125-3.820312-8.53125-8.53125 0-4.714843 3.820313-8.535156 8.53125-8.535156 4.714844 0 8.535157 3.820313 8.535157 8.535156zm0 0"/><path d="m358.402344 230.402344c0 4.710937-3.820313 8.53125-8.535156 8.53125-4.710938 0-8.535157-3.820313-8.535157-8.53125 0-4.714844 3.824219-8.535156 8.535157-8.535156 4.714843 0 8.535156 3.820312 8.535156 8.535156zm0 0"/><path d="m358.402344 256c0 4.714844-3.820313 8.535156-8.535156 8.535156-4.710938 0-8.535157-3.820312-8.535157-8.535156 0-4.710938 3.824219-8.53125 8.535157-8.53125 4.714843 0 8.535156 3.820312 8.535156 8.53125zm0 0"/><path d="m332.800781 256c0 4.714844-3.820312 8.535156-8.535156 8.535156-4.710937 0-8.53125-3.820312-8.53125-8.535156 0-4.710938 3.820313-8.53125 8.53125-8.53125 4.714844 0 8.535156 3.820312 8.535156 8.53125zm0 0"/><path d="m332.800781 281.601562c0 4.710938-3.820312 8.53125-8.535156 8.53125-4.710937 0-8.53125-3.820312-8.53125-8.53125 0-4.714843 3.820313-8.535156 8.53125-8.535156 4.714844 0 8.535156 3.820313 8.535156 8.535156zm0 0"/><path d="m307.199219 281.601562c0 4.710938-3.820313 8.53125-8.53125 8.53125-4.714844 0-8.535157-3.820312-8.535157-8.53125 0-4.714843 3.820313-8.535156 8.535157-8.535156 4.710937 0 8.53125 3.820313 8.53125 8.535156zm0 0"/><path d="m204.800781 443.734375c-1.683593 0-3.332031-.5-4.734375-1.433594-1.148437-.769531-28.414062-19.515625-46.140625-81.558593-1.292969-4.53125 1.332031-9.257813 5.867188-10.550782 4.53125-1.292968 9.257812 1.335938 10.550781 5.867188 5.796875 24.007812 16.890625 46.410156 32.464844 65.574218 4.902344-7.398437 10.355468-14.421874 16.308594-21.007812l-29.515626-36.890625c-2.945312-3.679687-2.347656-9.054687 1.332032-12 3.683594-2.945313 9.054687-2.347656 12 1.332031l34.132812 42.667969c2.710938 3.398437 2.441406 8.289063-.632812 11.367187-9.375 9.53125-17.445313 20.261719-24 31.914063-1.441406 2.894531-4.398438 4.722656-7.632813 4.71875zm0 0"/><path d="m307.199219 443.734375c-3.230469.003906-6.1875-1.820313-7.632813-4.714844-6.554687-11.652343-14.625-22.386719-24-31.917969-3.070312-3.074218-3.34375-7.964843-.632812-11.363281l34.132812-42.667969c1.90625-2.382812 4.9375-3.566406 7.953125-3.105468 3.015625.457031 5.554688 2.492187 6.667969 5.332031 1.109375 2.839844.617188 6.058594-1.289062 8.441406l-29.515626 36.890625c5.957032 6.589844 11.410157 13.613282 16.316407 21.015625 15.570312-19.171875 26.660156-41.578125 32.460937-65.582031.835938-2.933594 3.171875-5.195312 6.132813-5.9375 2.957031-.742188 6.085937.148438 8.207031 2.339844s2.910156 5.347656 2.074219 8.28125c-17.722657 62.035156-44.988281 80.792968-46.140625 81.558594-1.402344.929687-3.046875 1.429687-4.734375 1.429687zm0 0"/><path d="m256 443.734375c-2.683594 0-5.214844-1.265625-6.824219-3.414063l-25.601562-34.132812c-2.828125-3.769531-2.0625-9.117188 1.707031-11.945312 3.769531-2.828126 9.117188-2.066407 11.945312 1.707031l18.773438 25.027343 18.773438-25.027343c2.828124-3.773438 8.175781-4.535157 11.945312-1.707031 3.773438 2.828124 4.535156 8.175781 1.707031 11.945312l-25.597656 34.132812c-1.613281 2.148438-4.140625 3.414063-6.828125 3.414063zm0 0"/><path d="m204.792969 512c-1.464844.003906-2.902344-.375-4.175781-1.097656-1.972657-1.109375-3.425782-2.957032-4.035157-5.136719-.609375-2.175781-.328125-4.511719.785157-6.480469 9.746093-18.789062 9.742187-41.144531-.015626-59.925781-2.160156-4.09375-.660156-9.160156 3.375-11.425781 4.039063-2.261719 9.140626-.894532 11.507813 3.085937 12.605469 23.984375 12.605469 52.640625 0 76.628907-1.507813 2.691406-4.355469 4.355468-7.441406 4.351562zm0 0"/><path d="m307.210938 512c-3.085938.003906-5.933594-1.660156-7.445313-4.351562-12.605469-23.988282-12.605469-52.640626 0-76.628907 2.339844-4.042969 7.492187-5.457031 11.566406-3.171875 4.070313 2.285156 5.550781 7.421875 3.316407 11.523438-9.753907 18.777344-9.761719 41.132812-.015626 59.914062 1.113282 1.972656 1.394532 4.304688.785157 6.484375-.609375 2.179688-2.0625 4.027344-4.035157 5.132813-1.273437.722656-2.710937 1.101562-4.171874 1.097656zm0 0"/></svg>