<svg height="512pt" viewBox="0 0 512 512.06618" width="512pt" xmlns="http://www.w3.org/2000/svg"><path d="m187.765625 298.667969h136.535156v76.796875h-136.535156zm0 0" fill="#6d4122"/><path d="m409.632812 503.464844h93.867188v-7.59375c.015625-10.925782-1.304688-21.816406-3.925781-32.425782l-7.9375-23.636718c-9.203125-33.558594-40.046875-56.558594-74.835938-55.808594h-321.535156c-34.789063-.75-65.632813 22.25-74.835937 55.808594l-7.9375 23.636718c-2.621094 10.609376-3.941407 21.5-3.925782 32.425782v7.59375zm0 0" fill="#91562d"/><path d="m435.234375 503.464844h-358.402344l28.910157-131.386719c2.960937-8.835937 11.589843-14.492187 20.871093-13.679687h258.894531c9.28125-.8125 17.910157 4.84375 20.871094 13.679687zm0 0" fill="#c81e1e"/><path d="m402.039062 503.464844h-291.074218c34.136718-42.664063 25.601562-145.066406 25.601562-145.066406h68.265625s0 110.933593 51.199219 110.933593c51.203125 0 51.203125-110.933593 51.203125-110.933593h69.203125s-8.53125 102.402343 25.601562 145.066406zm0 0" fill="#3f51b5"/><path d="m307.234375 358.398438h34.132813s17.066406 145.066406-85.335938 145.066406c-102.398438 0-85.332031-145.066406-85.332031-145.066406h34.132812" fill="#ffdc00"/><path d="m315.765625 358.398438s0 110.933593-59.734375 110.933593c-59.730469 0-59.730469-110.933593-59.730469-110.933593zm0 0" fill="#91562d"/><path d="m341.367188 93.867188v-68.265626c0-9.425781-7.640626-17.066406-17.066407-17.066406h-136.535156c-9.425781 0-17.066406 7.640625-17.066406 17.066406v68.265626" fill="#37474f"/><path d="m187.765625 76.800781h136.535156c32.988281 0 59.730469 26.742188 59.730469 59.734375v119.464844c0 32.988281-26.742188 59.734375-59.730469 59.734375h-136.535156c-32.988281 0-59.734375-26.746094-59.734375-59.734375v-119.464844c0-32.992187 26.746094-59.734375 59.734375-59.734375zm0 0" fill="#6d4122"/><path d="m310.644531 76.800781h-109.226562c-26.390625 0-47.785157 26.742188-47.785157 59.734375v119.464844c0 32.988281 21.394532 59.734375 47.785157 59.734375h109.226562c26.394531 0 47.789063-26.746094 47.789063-59.734375v-119.464844c0-32.992187-21.394532-59.734375-47.789063-59.734375zm0 0" fill="#91562d"/><g fill="#2c2f38"><path d="m170.699219 230.398438c0 4.714843-3.820313 8.535156-8.53125 8.535156-4.714844 0-8.535157-3.820313-8.535157-8.535156 0-4.710938 3.820313-8.53125 8.535157-8.53125 4.710937 0 8.53125 3.820312 8.53125 8.53125zm0 0"/><path d="m170.699219 256c0 4.710938-3.820313 8.535156-8.53125 8.535156-4.714844 0-8.535157-3.824218-8.535157-8.535156s3.820313-8.535156 8.535157-8.535156c4.710937 0 8.53125 3.824218 8.53125 8.535156zm0 0"/><path d="m196.300781 256c0 4.710938-3.820312 8.535156-8.535156 8.535156-4.710937 0-8.53125-3.824218-8.53125-8.535156s3.820313-8.535156 8.53125-8.535156c4.714844 0 8.535156 3.824218 8.535156 8.535156zm0 0"/><path d="m196.300781 281.601562c0 4.710938-3.820312 8.53125-8.535156 8.53125-4.710937 0-8.53125-3.820312-8.53125-8.53125 0-4.714843 3.820313-8.535156 8.53125-8.535156 4.714844 0 8.535156 3.820313 8.535156 8.535156zm0 0"/><path d="m221.898438 281.601562c0 4.710938-3.820313 8.53125-8.53125 8.53125-4.714844 0-8.535157-3.820312-8.535157-8.53125 0-4.714843 3.820313-8.535156 8.535157-8.535156 4.710937 0 8.53125 3.820313 8.53125 8.535156zm0 0"/><path d="m358.433594 230.398438c0 4.714843-3.820313 8.535156-8.535156 8.535156-4.710938 0-8.53125-3.820313-8.53125-8.535156 0-4.710938 3.820312-8.53125 8.53125-8.53125 4.714843 0 8.535156 3.820312 8.535156 8.53125zm0 0"/><path d="m358.433594 256c0 4.710938-3.820313 8.535156-8.535156 8.535156-4.710938 0-8.53125-3.824218-8.53125-8.535156s3.820312-8.535156 8.53125-8.535156c4.714843 0 8.535156 3.824218 8.535156 8.535156zm0 0"/><path d="m332.832031 256c0 4.710938-3.820312 8.535156-8.53125 8.535156-4.714843 0-8.535156-3.824218-8.535156-8.535156s3.820313-8.535156 8.535156-8.535156c4.710938 0 8.53125 3.824218 8.53125 8.535156zm0 0"/><path d="m332.832031 281.601562c0 4.710938-3.820312 8.53125-8.53125 8.53125-4.714843 0-8.535156-3.820312-8.535156-8.53125 0-4.714843 3.820313-8.535156 8.535156-8.535156 4.710938 0 8.53125 3.820313 8.53125 8.535156zm0 0"/><path d="m307.234375 281.601562c0 4.710938-3.820313 8.53125-8.535156 8.53125-4.710938 0-8.53125-3.820312-8.53125-8.53125 0-4.714843 3.820312-8.535156 8.53125-8.535156 4.714843 0 8.535156 3.820313 8.535156 8.535156zm0 0"/></g><path d="m264.566406 358.398438v59.734374c0 4.714844-3.820312 8.535157-8.535156 8.535157-4.710938 0-8.53125-3.820313-8.53125-8.535157v-59.734374zm0 0" fill="#f29c1f"/><path d="m296.375 245.800781c-6.890625-13.492187-28.414062-15.402343-40.171875-15.402343-11.78125 0-33.273437 1.910156-40.171875 15.402343 13.148438-3.238281 26.632812-4.929687 40.171875-5.035156 13.542969.105469 27.023437 1.796875 40.171875 5.035156zm0 0"/><path d="m233.683594 150.09375c-8.109375-2.984375-16.628906-4.710938-25.257813-5.121094-11.605469-.878906-23.214843 1.597656-33.453125 7.132813 1.167969-14.933594 35.789063-17.886719 52.714844-14.046875 2.683594.335937 5.019531 1.988281 6.222656 4.410156 1.207032 2.417969 1.121094 5.28125-.226562 7.625zm0 0"/><path d="m230.433594 176.480469c0-10.101563-7.640625-18.292969-17.066406-18.292969-9.425782 0-17.066407 8.191406-17.066407 18.292969 0 10.101562 7.640625 18.292969 17.066407 18.292969 9.425781 0 17.066406-8.191407 17.066406-18.292969zm0 0"/><path d="m218.15625 160.601562c-4.40625-1.675781-9.335938.539063-11.011719 4.941407-1.675781 4.40625.539063 9.335937 4.945313 11.011719 4.402344 1.675781 9.332031-.539063 11.007812-4.941407 1.675782-4.40625-.539062-9.335937-4.941406-11.011719zm0 0" fill="#fff"/><path d="m278.382812 150.09375c8.109376-2.984375 16.628907-4.710938 25.257813-5.121094 11.605469-.878906 23.214844 1.597656 33.453125 7.132813-1.167969-14.933594-35.789062-17.886719-52.714844-14.046875-2.683594.335937-5.019531 1.988281-6.222656 4.410156-1.207031 2.417969-1.121094 5.28125.226562 7.625zm0 0"/><path d="m315.765625 176.480469c0-10.101563-7.640625-18.292969-17.066406-18.292969s-17.066407 8.191406-17.066407 18.292969c0 10.101562 7.640626 18.292969 17.066407 18.292969s17.066406-8.191407 17.066406-18.292969zm0 0"/><path d="m304.925781 165.550781c-1.675781-4.40625-6.605469-6.621093-11.011719-4.945312-4.402343 1.675781-6.617187 6.605469-4.941406 11.011719 1.675782 4.402343 6.605469 6.617187 11.011719 4.941406 4.402344-1.675782 6.617187-6.605469 4.941406-11.007813zm0 0" fill="#fff"/><path d="m435.234375 512h-358.402344c-2.582031 0-5.03125-1.171875-6.648437-3.1875-1.621094-2.015625-2.238282-4.652344-1.683594-7.179688l28.90625-131.390624c3.765625-12.792969 15.902344-21.261719 29.210938-20.375h258.890624c13.363282-.882813 25.53125 7.664062 29.234376 20.53125l28.824218 131.234374c.554688 2.527344-.0625 5.164063-1.683594 7.179688-1.617187 2.015625-4.066406 3.1875-6.648437 3.1875zm-347.785156-17.066406h337.175781l-26.582031-121.023438c-2.21875-4.804687-7.285157-7.621094-12.535157-6.976562h-258.890624c-5.203126-.636719-10.230469 2.109375-12.507813 6.828125zm0 0"/><path d="m324.300781 366.933594h-136.535156c-4.710937 0-8.53125-3.820313-8.53125-8.535156v-42.664063c0-4.714844 3.820313-8.535156 8.53125-8.535156h136.535156c4.710938 0 8.53125 3.820312 8.53125 8.535156v42.664063c0 4.714843-3.820312 8.535156-8.53125 8.535156zm-128-17.066406h119.464844v-25.601563h-119.464844zm0 0"/><path d="m324.300781 324.265625h-136.535156c-37.683594-.042969-68.222656-30.582031-68.265625-68.265625v-119.464844c.042969-37.6875 30.582031-68.226562 68.265625-68.269531h136.535156c37.683594.042969 68.222657 30.582031 68.265625 68.269531v119.464844c-.042968 37.683594-30.582031 68.222656-68.265625 68.265625zm-136.535156-238.933594c-28.261719.03125-51.167969 22.9375-51.199219 51.203125v119.464844c.03125 28.265625 22.9375 51.167969 51.199219 51.199219h136.535156c28.261719-.03125 51.167969-22.933594 51.199219-51.199219v-119.464844c-.03125-28.265625-22.9375-51.171875-51.199219-51.203125zm0 0"/><path d="m102.433594 512h-93.867188c-4.710937 0-8.535156-3.820312-8.535156-8.535156v-7.59375c-.0039062-11.621094 1.398438-23.199219 4.175781-34.484375l8.125-24.296875c10.199219-37.160156 44.414063-62.582032 82.933594-61.625h8.019531c4.714844 0 8.535156 3.824218 8.535156 8.535156s-3.820312 8.535156-8.535156 8.535156h-8.019531c-30.902344-.875-58.394531 19.492188-66.558594 49.304688l-8.128906 24.320312c-2.253906 9.425782-3.421875 19.082032-3.476563 28.773438h85.332032c4.710937 0 8.53125 3.820312 8.53125 8.53125 0 4.714844-3.820313 8.535156-8.53125 8.535156zm0 0"/><path d="m503.5 512h-93.867188c-4.710937 0-8.53125-3.820312-8.53125-8.535156 0-4.710938 3.820313-8.53125 8.53125-8.53125h85.332032c-.0625-9.925782-1.296875-19.804688-3.671875-29.441406l-7.742188-22.964844c-7.988281-30.109375-35.609375-50.796875-66.75-49.992188h-7.9375c-4.710937 0-8.53125-3.824218-8.53125-8.535156s3.820313-8.535156 8.53125-8.535156h7.9375c38.765625-.886719 73.105469 24.855468 83.125 62.308594l7.742188 22.953124c2.898437 11.488282 4.363281 23.292969 4.363281 35.144532v7.59375c0 4.714844-3.820312 8.535156-8.53125 8.535156zm0 0"/><path d="m341.367188 85.332031c-4.714844 0-8.535157-3.820312-8.535157-8.53125v-51.199219c0-4.714843-3.820312-8.53125-8.53125-8.535156h-136.535156c-4.710937.003906-8.53125 3.820313-8.53125 8.535156v51.199219c0 4.710938-3.820313 8.53125-8.535156 8.53125-4.710938 0-8.53125-3.820312-8.53125-8.53125v-51.199219c.015625-14.132812 11.464843-25.585937 25.597656-25.601562h136.535156c14.132813.015625 25.582031 11.46875 25.597657 25.601562v51.199219c0 4.710938-3.820313 8.53125-8.53125 8.53125zm0 0"/><path d="m204.832031 85.332031c-4.710937 0-8.53125-3.820312-8.53125-8.53125v-17.066406c0-4.714844 3.820313-8.535156 8.53125-8.535156 4.714844 0 8.535157 3.820312 8.535157 8.535156v17.066406c0 4.710938-3.820313 8.53125-8.535157 8.53125zm0 0"/><path d="m238.964844 85.332031c-4.710938 0-8.53125-3.820312-8.53125-8.53125v-34.132812c0-4.714844 3.820312-8.535157 8.53125-8.535157 4.714844 0 8.535156 3.820313 8.535156 8.535157v34.132812c0 4.710938-3.820312 8.53125-8.535156 8.53125zm0 0"/><path d="m273.101562 85.332031c-4.714843 0-8.535156-3.820312-8.535156-8.53125v-34.132812c0-4.714844 3.820313-8.535157 8.535156-8.535157 4.710938 0 8.53125 3.820313 8.53125 8.535157v34.132812c0 4.710938-3.820312 8.53125-8.53125 8.53125zm0 0"/><path d="m307.234375 85.332031c-4.714844 0-8.535156-3.820312-8.535156-8.53125v-17.066406c0-4.714844 3.820312-8.535156 8.535156-8.535156 4.710937 0 8.53125 3.820312 8.53125 8.535156v17.066406c0 4.710938-3.820313 8.53125-8.53125 8.53125zm0 0"/><path d="m170.699219 230.398438c0 4.714843-3.820313 8.535156-8.53125 8.535156-4.714844 0-8.535157-3.820313-8.535157-8.535156 0-4.710938 3.820313-8.53125 8.535157-8.53125 4.710937 0 8.53125 3.820312 8.53125 8.53125zm0 0"/><path d="m170.699219 256c0 4.710938-3.820313 8.535156-8.53125 8.535156-4.714844 0-8.535157-3.824218-8.535157-8.535156s3.820313-8.535156 8.535157-8.535156c4.710937 0 8.53125 3.824218 8.53125 8.535156zm0 0"/><path d="m196.300781 256c0 4.710938-3.820312 8.535156-8.535156 8.535156-4.710937 0-8.53125-3.824218-8.53125-8.535156s3.820313-8.535156 8.53125-8.535156c4.714844 0 8.535156 3.824218 8.535156 8.535156zm0 0"/><path d="m196.300781 281.601562c0 4.710938-3.820312 8.53125-8.535156 8.53125-4.710937 0-8.53125-3.820312-8.53125-8.53125 0-4.714843 3.820313-8.535156 8.53125-8.535156 4.714844 0 8.535156 3.820313 8.535156 8.535156zm0 0"/><path d="m221.898438 281.601562c0 4.710938-3.820313 8.53125-8.53125 8.53125-4.714844 0-8.535157-3.820312-8.535157-8.53125 0-4.714843 3.820313-8.535156 8.535157-8.535156 4.710937 0 8.53125 3.820313 8.53125 8.535156zm0 0"/><path d="m358.433594 230.398438c0 4.714843-3.820313 8.535156-8.535156 8.535156-4.710938 0-8.53125-3.820313-8.53125-8.535156 0-4.710938 3.820312-8.53125 8.53125-8.53125 4.714843 0 8.535156 3.820312 8.535156 8.53125zm0 0"/><path d="m358.433594 256c0 4.710938-3.820313 8.535156-8.535156 8.535156-4.710938 0-8.53125-3.824218-8.53125-8.535156s3.820312-8.535156 8.53125-8.535156c4.714843 0 8.535156 3.824218 8.535156 8.535156zm0 0"/><path d="m332.832031 256c0 4.710938-3.820312 8.535156-8.53125 8.535156-4.714843 0-8.535156-3.824218-8.535156-8.535156s3.820313-8.535156 8.535156-8.535156c4.710938 0 8.53125 3.824218 8.53125 8.535156zm0 0"/><path d="m332.832031 281.601562c0 4.710938-3.820312 8.53125-8.53125 8.53125-4.714843 0-8.535156-3.820312-8.535156-8.53125 0-4.714843 3.820313-8.535156 8.535156-8.535156 4.710938 0 8.53125 3.820313 8.53125 8.535156zm0 0"/><path d="m307.234375 281.601562c0 4.710938-3.820313 8.53125-8.535156 8.53125-4.710938 0-8.53125-3.820312-8.53125-8.53125 0-4.714843 3.820312-8.535156 8.53125-8.535156 4.714843 0 8.535156 3.820313 8.535156 8.535156zm0 0"/><path d="m256.03125 512c-24.410156.980469-47.996094-8.957031-64.347656-27.109375-38.816406-43.648437-29.859375-124.082031-29.460938-127.488281.359375-3.027344 2.300782-5.636719 5.101563-6.839844 2.800781-1.207031 6.03125-.828125 8.476562.996094 2.445313 1.820312 3.730469 4.808594 3.375 7.835937-.09375.757813-8.441406 76.308594 25.28125 114.191407 13.109375 14.507812 32.050781 22.347656 51.574219 21.347656 19.542969 1.003906 38.5-6.851563 51.601562-21.382813 33.777344-37.984375 25.351563-113.390625 25.257813-114.152343-.550781-4.679688 2.796875-8.921876 7.476563-9.472657 4.679687-.554687 8.921874 2.792969 9.476562 7.472657.398438 3.410156 9.355469 83.84375-29.460938 127.488281-16.351562 18.15625-39.933593 28.09375-64.351562 27.113281zm0 0"/><path d="m256.03125 477.867188c-59.054688 0-59.730469-114.59375-59.730469-119.46875 0-4.710938 3.820313-8.53125 8.53125-8.53125 4.714844 0 8.535157 3.820312 8.535157 8.53125.015624 28.484374 7.722656 102.402343 42.664062 102.402343s42.652344-73.917969 42.667969-102.402343c0-4.710938 3.820312-8.53125 8.535156-8.53125 4.710937 0 8.53125 3.820312 8.53125 8.53125 0 4.875-.675781 119.46875-59.734375 119.46875zm0 0"/><path d="m256.03125 426.667969c-4.710938 0-8.53125-3.820313-8.53125-8.535157v-59.734374c0-4.710938 3.820312-8.53125 8.53125-8.53125 4.714844 0 8.535156 3.820312 8.535156 8.53125v59.734374c0 4.714844-3.820312 8.535157-8.535156 8.535157zm0 0"/><path d="m110.957031 512c-3.277343-.003906-6.265625-1.882812-7.6875-4.839844-1.417969-2.957031-1.015625-6.464844 1.03125-9.027344 31.652344-39.550781 23.84375-138.03125 23.765625-139.023437-.1875-2.257813.527344-4.492187 1.988282-6.222656 1.460937-1.726563 3.550781-2.800781 5.804687-2.988281 2.265625-.230469 4.523437.46875 6.261719 1.941406 1.738281 1.46875 2.800781 3.582031 2.945312 5.851562.367188 4.316406 8.410156 106.300782-27.433594 151.109375-1.621093 2.023438-4.078124 3.203125-6.675781 3.199219zm0 0"/><path d="m402.058594 512c-2.597656.003906-5.054688-1.171875-6.675782-3.199219-35.839843-44.808593-27.800781-146.792969-27.433593-151.109375.148437-2.269531 1.210937-4.382812 2.949219-5.851562 1.738281-1.46875 3.996093-2.167969 6.257812-1.941406 2.257812.1875 4.34375 1.261718 5.804688 2.988281 1.464843 1.730469 2.179687 3.96875 1.988281 6.222656-.074219.992187-7.839844 99.523437 23.765625 139.023437 2.050781 2.5625 2.453125 6.070313 1.035156 9.027344-1.421875 2.957032-4.410156 4.835938-7.6875 4.839844zm0 0"/></svg>