<svg height="512pt" viewBox="0 0 512 512.00853" width="512pt" xmlns="http://www.w3.org/2000/svg"><path d="m187.738281 290.132812h136.53125v76.800782h-136.53125zm0 0" fill="#fec108"/><path d="m384.003906 162.132812v85.332032c.011719 15.847656-6.277344 31.046875-17.480468 42.253906-11.207032 11.203125-26.40625 17.492188-42.253907 17.480469h-136.53125c-15.847656.011719-31.046875-6.277344-42.25-17.480469-11.207031-11.207031-17.496093-26.40625-17.484375-42.253906v-85.332032s8.535156-42.667968 59.734375-42.667968 93.867188-17.066406 110.933594-34.132813c0 0 34.132813 17.066407 42.664063 42.667969 8.535156 25.601562 42.667968 34.132812 42.667968 34.132812zm0 0" fill="#fec108"/><path d="m358.40625 162.132812v85.332032c0 33.027344-21.371094 59.734375-47.789062 59.734375h-109.226563c-26.417969 0-47.785156-26.707031-47.785156-59.734375v-85.332032s6.824219-42.667968 47.785156-42.667968 75.09375-17.066406 88.746094-34.132813c0 0 27.308593 17.066407 34.132812 42.667969 5.414063 16.089844 18.042969 28.722656 34.136719 34.132812zm0 0" fill="#ffdc00"/><path d="m409.605469 503.464844h93.867187v-7.59375c.011719-10.925782-1.304687-21.816406-3.925781-32.425782l-7.9375-32.171874c-9.203125-33.554688-40.046875-56.558594-74.835937-55.808594h-321.539063c-34.785156-.75-65.628906 22.253906-74.835937 55.808594l-7.933594 32.171874c-2.625 10.609376-3.941406 21.5-3.925782 32.425782v7.59375zm0 0" fill="#00bcd4"/><path d="m332.804688 349.867188s-76.800782 85.332031-76.800782 153.597656c0-68.265625-76.800781-153.597656-76.800781-153.597656zm0 0" fill="#f5f5f5"/><path d="m179.203125 349.867188s76.800781 85.332031 76.800781 153.597656h-179.199218l28.925781-139.945313c2.945312-8.820312 11.558593-14.46875 20.824219-13.652343zm0 0" fill="#00838f"/><path d="m435.203125 503.464844h-179.199219c0-68.265625 76.800782-153.597656 76.800782-153.597656h52.648437c9.285156-.816407 17.921875 4.824218 20.910156 13.652343zm0 0" fill="#00838f"/><g fill="#3f51b5"><path d="m273.078125 204.800781c-3.226563 0-6.179687-1.816406-7.632813-4.699219-2.1875-4.890624-5.5625-9.15625-9.820312-12.40625-3.742188 3.554688-6.8125 7.757813-9.0625 12.40625-2.109375 4.210938-7.238281 5.914063-11.453125 3.804688-4.210937-2.113281-5.917969-7.238281-3.804687-11.453125 2.554687-5.113281 11.886718-21.785156 24.699218-21.785156s22.144532 16.671875 24.699219 21.78125c1.324219 2.644531 1.183594 5.785156-.371094 8.300781-1.550781 2.515625-4.296875 4.046875-7.253906 4.050781zm0 0"/><path d="m179.210938 204.800781c-.472657 0-.945313-.039062-1.410157-.117187l-51.199219-8.535156c-4.605468-.820313-7.691406-5.191407-6.921874-9.804688.769531-4.613281 5.109374-7.746094 9.730468-7.027344l51.199219 8.535156c4.375.730469 7.460937 4.695313 7.097656 9.117188-.367187 4.421875-4.058593 7.824219-8.496093 7.832031zm0 0"/><path d="m332.796875 204.800781c-4.4375-.007812-8.128906-3.410156-8.492187-7.832031-.367188-4.421875 2.71875-8.386719 7.09375-9.117188l51.203124-8.535156c3.019532-.539062 6.101563.589844 8.0625 2.953125 1.960938 2.363281 2.5 5.597657 1.414063 8.46875-1.089844 2.871094-3.636719 4.9375-6.667969 5.410157l-51.203125 8.535156c-.464843.078125-.9375.117187-1.410156.117187zm0 0"/></g><path d="m256.003906 503.464844c-25.597656-59.730469-102.398437-85.332032-102.398437-85.332032-4.429688-23.085937-1.445313-46.980468 8.53125-68.265624h17.066406s76.800781 85.332031 76.800781 153.597656zm0 0" fill="#02a9f4"/><path d="m358.40625 418.132812s-76.800781 25.601563-102.402344 85.332032c0-68.265625 76.800782-153.597656 76.800782-153.597656h17.066406c9.976562 21.285156 12.964844 45.179687 8.535156 68.265624zm0 0" fill="#02a9f4"/><path d="m162.136719 469.332031h-42.664063c-4.714844 0-8.535156-3.820312-8.535156-8.53125 0-4.714843 3.820312-8.535156 8.535156-8.535156h42.664063c4.714843 0 8.535156 3.820313 8.535156 8.535156 0 4.710938-3.820313 8.53125-8.535156 8.53125zm0 0" fill="#e64c3c"/><path d="m392.539062 469.332031h-42.667968c-4.714844 0-8.535156-3.820312-8.535156-8.53125 0-4.714843 3.820312-8.535156 8.535156-8.535156h42.667968c4.710938 0 8.53125 3.820313 8.53125 8.535156 0 4.710938-3.820312 8.53125-8.53125 8.53125zm0 0" fill="#95a5a5"/><path d="m375.472656 93.355469v-8.023438c-.003906-42.414062-34.386718-76.796875-76.800781-76.796875h-85.335937c-36.917969.027344-68.613282 26.277344-75.519532 62.546875" fill="#37474f"/><path d="m384.003906 247.464844v-68.265625s-34.132812-8.53125-42.667968-34.132813c-8.53125-25.601562-42.664063-42.667968-42.664063-42.667968-17.066406 17.066406-59.734375 34.136718-110.933594 34.136718s-59.734375 42.664063-59.734375 42.664063v59.734375c-18.542968-21.773438-30.394531-48.445313-34.132812-76.800782-5.035156-30.292968 10.75-66.472656 43.945312-91.050781 26.992188-19.207031 59.46875-29.171875 92.589844-28.414062 93.863281 0 102.398438 34.132812 128 42.664062 5.945312 2.089844 11.664062 4.777344 17.066406 8.023438 32.59375 19.371093 79.359375 69.121093 8.53125 154.109375zm0 0" fill="#607d8b"/><path d="m296.34375 256c-6.894531 13.492188-28.414062 15.402344-40.167969 15.402344-11.78125 0-33.277343-1.910156-40.171875-15.402344 13.148438 3.238281 26.628906 4.929688 40.171875 5.035156 13.539063-.105468 27.023438-1.796875 40.167969-5.035156zm0 0"/><path d="m233.652344 158.625c-8.109375-2.980469-16.625-4.707031-25.257813-5.121094-11.601562-.875-23.214843 1.601563-33.449219 7.132813 1.167969-14.933594 35.789063-17.882813 52.714844-14.042969 2.679688.332031 5.015625 1.988281 6.222656 4.40625 1.207032 2.421875 1.121094 5.28125-.230468 7.625zm0 0"/><path d="m278.355469 158.625c8.109375-2.980469 16.628906-4.707031 25.257812-5.121094 11.605469-.875 23.214844 1.601563 33.449219 7.132813-1.164062-14.933594-35.789062-17.882813-52.710938-14.042969-2.683593.332031-5.019531 1.988281-6.226562 4.40625-1.203125 2.421875-1.117188 5.28125.230469 7.625zm0 0"/><path d="m230.40625 197.121094c0-10.488282-7.644531-18.988282-17.070312-18.988282-9.425782 0-17.066407 8.5-17.066407 18.988282 0 10.484375 7.640625 18.984375 17.066407 18.984375 9.425781 0 17.070312-8.5 17.070312-18.984375zm0 0"/><path d="m219.492188 181.613281c-4.035157-2.433593-9.28125-1.132812-11.710938 2.90625-2.433594 4.035157-1.132812 9.28125 2.90625 11.710938 4.035156 2.433593 9.28125 1.132812 11.710938-2.90625 2.433593-4.035157 1.132812-9.28125-2.90625-11.710938zm0 0" fill="#fff"/><path d="m315.734375 197.121094c0-10.488282-7.640625-18.988282-17.066406-18.988282s-17.066407 8.5-17.066407 18.988282c0 10.484375 7.640626 18.984375 17.066407 18.984375s17.066406-8.5 17.066406-18.984375zm0 0"/><path d="m304.226562 184.519531c-2.429687-4.035156-7.675781-5.339843-11.710937-2.90625-4.039063 2.433594-5.339844 7.675781-2.90625 11.714844 2.429687 4.035156 7.675781 5.335937 11.710937 2.90625 4.039063-2.433594 5.339844-7.679687 2.90625-11.714844zm0 0" fill="#fff"/><path d="m213.335938 230.398438c-18.847657 0-34.132813-15.28125-34.132813-34.132813s15.285156-34.132813 34.132813-34.132813c18.851562 0 34.136718 15.28125 34.136718 34.132813-.023437 18.84375-15.292968 34.113281-34.136718 34.132813zm0-51.199219c-9.425782 0-17.066407 7.640625-17.066407 17.066406s7.640625 17.066406 17.066407 17.066406c9.425781 0 17.070312-7.640625 17.070312-17.066406-.011719-9.421875-7.648438-17.054687-17.070312-17.066406zm0 0" fill="#02a9f4"/><path d="m298.671875 230.398438c-18.851563 0-34.132813-15.28125-34.132813-34.132813s15.28125-34.132813 34.132813-34.132813 34.132813 15.28125 34.132813 34.132813c-.023438 18.84375-15.292969 34.113281-34.132813 34.132813zm0-51.199219c-9.425781 0-17.066406 7.640625-17.066406 17.066406s7.640625 17.066406 17.066406 17.066406 17.066406-7.640625 17.066406-17.066406c-.011719-9.421875-7.644531-17.054687-17.066406-17.066406zm0 0" fill="#02a9f4"/><path d="m435.203125 512h-358.398437c-2.566407 0-4.996094-1.152344-6.617188-3.144531-1.621094-1.988281-2.261719-4.601563-1.742188-7.113281l28.910157-139.921876c3.722656-12.84375 15.882812-21.367187 29.226562-20.488281h258.894531c13.359376-.875 25.53125 7.667969 29.238282 20.535157l28.84375 139.875c.519531 2.511718-.121094 5.125-1.738282 7.113281-1.621093 1.988281-4.050781 3.144531-6.617187 3.144531zm-347.925781-17.066406h337.457031l-26.742187-129.664063c-2.261719-4.738281-7.300782-7.507812-12.515626-6.871093h-258.894531c-5.199219-.632813-10.222656 2.113281-12.503906 6.828124zm0 0"/><path d="m324.269531 358.398438h-136.53125c-4.714843 0-8.535156-3.820313-8.535156-8.53125v-42.667969c0-4.710938 3.820313-8.53125 8.535156-8.53125h136.53125c4.714844 0 8.535157 3.820312 8.535157 8.53125v42.667969c0 4.710937-3.820313 8.53125-8.535157 8.53125zm-128-17.066407h119.46875v-25.597656h-119.46875zm0 0"/><path d="m324.269531 315.734375h-136.53125c-37.683593-.042969-68.222656-30.582031-68.265625-68.269531v-68.265625c0-.5625.054688-1.125.167969-1.675781 3.421875-17.128907 22.0625-49.523438 68.097656-49.523438 48.097657 0 89.179688-15.910156 104.898438-31.632812 2.601562-2.585938 6.5625-3.230469 9.851562-1.601563 1.519531.761719 37.402344 18.980469 46.945313 47.601563 6.921875 20.765624 36.363281 28.484374 36.65625 28.558593 3.785156.964844 6.4375 4.367188 6.449218 8.273438v68.265625c-.042968 37.6875-30.582031 68.226562-68.269531 68.269531zm-187.730469-135.589844v67.320313c.03125 28.265625 22.933594 51.171875 51.199219 51.203125h136.53125c28.265625-.03125 51.171875-22.9375 51.203125-51.203125v-62.027344c-11.460937-4.148438-34.714844-15.125-42.230468-37.671875-5.136719-15.417969-22.84375-28.640625-33.410157-34.96875-20.089843 16.269531-61.433593 32.269531-112.09375 32.269531-40.746093 0-49.910156 29.855469-51.199219 35.078125zm0 0"/><path d="m102.40625 512h-93.867188c-4.714843 0-8.53515575-3.820312-8.53515575-8.535156v-7.59375c-.01171875-11.617188 1.39062475-23.199219 4.17578175-34.480469l7.9375-32.160156c10.019531-37.453125 44.359374-63.191407 83.117187-62.296875h8.023437c4.710938 0 8.53125 3.820312 8.53125 8.53125 0 4.714844-3.820312 8.535156-8.53125 8.535156h-8.023437c-30.898437-.875-58.386719 19.496094-66.546875 49.308594l-7.941406 32.183594c-2.378906 9.636718-3.609375 19.515624-3.667969 29.441406h85.328125c4.710938 0 8.53125 3.820312 8.53125 8.53125 0 4.714844-3.820312 8.535156-8.53125 8.535156zm0 0"/><path d="m503.472656 512h-93.867187c-4.714844 0-8.535157-3.820312-8.535157-8.535156 0-4.710938 3.820313-8.53125 8.535157-8.53125h85.332031c-.058594-9.921875-1.289062-19.800782-3.667969-29.433594l-7.9375-32.179688c-8.160156-29.820312-35.65625-50.195312-66.558593-49.320312h-7.9375c-4.710938 0-8.53125-3.820312-8.53125-8.535156 0-4.710938 3.820312-8.53125 8.53125-8.53125h7.9375c38.761718-.894532 73.105468 24.851562 83.125 62.308594l7.9375 32.15625c2.78125 11.28125 4.179687 22.855468 4.167968 34.472656v7.59375c0 4.714844-3.820312 8.535156-8.53125 8.535156zm0 0"/><path d="m256.003906 512c-4.710937 0-8.53125-3.820312-8.53125-8.535156 0-64.152344-73.867187-147.0625-74.613281-147.890625-3.152344-3.503907-2.867187-8.898438.636719-12.050781 3.5-3.152344 8.898437-2.867188 12.050781.636718 3.222656 3.582032 78.992187 88.589844 78.992187 159.304688 0 4.714844-3.820312 8.535156-8.535156 8.535156zm0 0"/><path d="m256.003906 512c-4.710937 0-8.53125-3.820312-8.53125-8.535156 0-70.714844 75.765625-155.722656 78.988282-159.304688 3.152343-3.503906 8.550781-3.789062 12.054687-.636718 3.503906 3.152343 3.789063 8.546874.636719 12.050781-.75.828125-74.613282 83.738281-74.613282 147.890625 0 4.714844-3.820312 8.535156-8.535156 8.535156zm0 0"/><path d="m256.007812 512.003906c-3.414062 0-6.5-2.035156-7.84375-5.175781-23.75-55.414063-96.53125-80.355469-97.265624-80.601563-2.761719-.925781-4.863282-3.195312-5.574219-6.023437-4.957031-25.0625-1.742188-51.054687 9.179687-74.152344 1.363282-2.730469 4.074219-4.523437 7.121094-4.710937 3.042969-.183594 5.953125 1.269531 7.636719 3.8125 1.679687 2.542968 1.878906 5.789062.515625 8.519531-8.347656 18.136719-11.40625 38.261719-8.828125 58.0625 17.640625 6.765625 79.53125 33.84375 102.894531 88.375 1.128906 2.636719.855469 5.660156-.71875 8.054687-1.578125 2.394532-4.25 3.835938-7.117188 3.84375zm0 0"/><path d="m256.003906 512.003906c-2.867187-.007812-5.539062-1.449218-7.113281-3.84375-1.578125-2.394531-1.847656-5.417968-.722656-8.054687 23.371093-54.535157 85.257812-81.613281 102.894531-88.378907 2.632812-19.792968-.425781-39.925781-8.820312-58.042968-2.109376-4.214844-.398438-9.34375 3.816406-11.449219 4.214844-2.109375 9.339844-.398437 11.449218 3.816406 10.921876 23.097657 14.140626 49.089844 9.179688 74.152344-.710938 2.828125-2.8125 5.097656-5.574219 6.023437-.734375.246094-73.511719 25.1875-97.261719 80.601563-1.347656 3.140625-4.433593 5.175781-7.847656 5.175781zm0 0"/><path d="m162.136719 469.332031h-42.664063c-4.714844 0-8.535156-3.820312-8.535156-8.53125 0-4.714843 3.820312-8.535156 8.535156-8.535156h42.664063c4.714843 0 8.535156 3.820313 8.535156 8.535156 0 4.710938-3.820313 8.53125-8.535156 8.53125zm0 0"/><path d="m392.539062 469.332031h-42.667968c-4.714844 0-8.535156-3.820312-8.535156-8.53125 0-4.714843 3.820312-8.535156 8.535156-8.535156h42.667968c4.710938 0 8.53125 3.820313 8.53125 8.535156 0 4.710938-3.820312 8.53125-8.53125 8.53125zm0 0"/><path d="m384.003906 256c-3.308594-.003906-6.320312-1.917969-7.722656-4.914062-1.402344-3-.945312-6.539063 1.171875-9.082032 27.097656-32.519531 38.582031-62.167968 34.125-88.125-4.84375-28.238281-27.433594-45.445312-40.460937-53.1875-4.882813-2.925781-10.042969-5.359375-15.410157-7.261718-8.097656-3.128907-15.613281-7.59375-22.234375-13.207032-17.117187-12.929687-38.417968-29.023437-103.066406-29.023437-31.289062-.722657-61.976562 8.65625-87.515625 26.742187-29.402344 21.769532-45.339844 54.265625-40.601563 82.792969 3.574219 26.578125 14.585938 51.601563 31.769532 72.191406 3.191406 3.359375 3.117187 8.648438-.167969 11.917969-3.28125 3.269531-8.570313 3.324219-11.917969.121094-1.125-1.125-27.640625-28.144532-36.519531-81.425782-5.777344-34.789062 12.78125-73.769531 47.285156-99.3125 28.472657-20.273437 62.722657-30.828124 97.667969-30.09375 70.367188 0 95.210938 18.765626 113.347656 32.472657 5.175782 4.453125 11.03125 8.042969 17.351563 10.632812 6.515625 2.28125 12.78125 5.21875 18.703125 8.765625 15.582031 9.261719 42.582031 30 48.585937 64.988282 5.339844 31.109374-7.390625 65.402343-37.835937 101.9375-1.617188 1.945312-4.019532 3.074218-6.554688 3.070312zm0 0"/><path d="m375.472656 101.886719c-4.714844 0-8.535156-3.820313-8.535156-8.53125v-8.023438c-.042969-37.683593-30.582031-68.222656-68.265625-68.265625h-85.335937c-32.820313.019532-61 23.359375-67.136719 55.605469-.523438 3.035156-2.644531 5.554687-5.546875 6.589844-2.902344 1.035156-6.140625.421875-8.464844-1.601563-2.324219-2.027344-3.378906-5.144531-2.753906-8.164062 7.664062-40.300782 42.882812-69.4687502 83.902344-69.496094h85.335937c47.105469.0507812 85.28125 38.226562 85.332031 85.332031v8.023438c0 4.710937-3.820312 8.53125-8.53125 8.53125zm0 0"/></svg>