<svg height="512pt" viewBox="0 0 512 512.16256" width="512pt" xmlns="http://www.w3.org/2000/svg"><path d="m187.816406 290.132812h136.53125v76.800782h-136.53125zm0 0" fill="#fec108"/><path d="m383.144531 42.15625c.613281 2.972656.929688 6.003906.9375 9.042969v93.867187h-256v-93.867187c.007813-23.558594 19.105469-42.65625 42.664063-42.664063h128zm0 0" fill="#f57c00"/><path d="m128.082031 202.71875s-68.265625-17.070312-68.265625-68.269531 51.199219-42.664063 93.863282-34.132813c33.851562 5.585938 68.09375 8.4375 102.402343 8.535156 34.304688-.097656 68.550781-2.949218 102.398438-8.535156 42.667969-8.53125 93.867187-17.066406 93.867187 34.132813s-68.265625 68.269531-68.265625 68.269531zm0 0" fill="#f57c00"/><path d="m486.738281 417.707031c2.140625 4.328125 3.800781 8.878907 4.949219 13.566407l7.933594 32.171874c2.625 10.609376 3.941406 21.5 3.925781 32.425782v7.59375h-494.933594v-7.59375c-.015625-10.925782 1.304688-21.816406 3.925781-32.425782l7.9375-32.171874c1.148438-4.6875 2.808594-9.238282 4.949219-13.566407zm0 0" fill="#c81e1e"/><path d="m495.015625 375.464844c-.703125 17.625-4.605469 34.976562-11.519531 51.203125-2.050782 5.375-4.523438 11.09375-7.511719 17.066406-9.089844 18.324219-20.320313 35.511719-33.449219 51.199219-2.304687 2.816406-4.695312 5.632812-7.253906 8.53125h-358.398438c-2.5625-2.898438-4.949218-5.714844-7.253906-8.53125-13.128906-15.6875-24.359375-32.875-33.453125-51.199219-2.984375-5.972656-5.460937-11.691406-7.507812-17.066406-6.914063-16.226563-10.820313-33.578125-11.519531-51.203125 7.835937-5.554688 16.46875-9.898438 25.597656-12.882813 4.867187-1.707031 10.414062-3.5 16.726562-5.121093 5.292969-1.28125 11.09375-2.558594 17.410156-3.667969 5.289063-.855469 10.921876-1.707031 16.980469-2.304688 5.375-.511719 11.09375-1.023437 17.152344-1.28125 4.949219-.253906 10.152344-.339843 15.613281-.339843h258.902344c5.460938 0 10.667969.085937 15.617188.339843 6.058593.257813 11.777343.769531 17.152343 1.28125 6.058594.597657 11.691407 1.449219 16.980469 2.304688 6.316406 1.109375 12.117188 2.386719 17.40625 3.667969 6.316406 1.621093 11.863281 3.414062 16.726562 5.121093 9.132813 2.984375 17.761719 7.328125 25.601563 12.882813zm0 0" fill="#f57c00"/><path d="m85.414062 503.464844 42.667969-68.265625 42.664063 68.265625zm0 0" fill="#c81e1e"/><path d="m170.746094 503.464844 42.667968-68.265625 42.667969 68.265625zm0 0" fill="#c81e1e"/><path d="m256.082031 503.464844 42.664063-68.265625 42.667968 68.265625zm0 0" fill="#c81e1e"/><path d="m341.414062 503.464844 42.667969-68.265625 42.664063 68.265625zm0 0" fill="#c81e1e"/><g fill="#f0c419"><path d="m426.746094 512h-341.632813l-8.230469-8.535156-7.253906-8.53125h372.90625c-2.304687 2.816406-4.695312 5.632812-7.253906 8.53125zm0 0"/><path d="m483.496094 426.667969c-2.050782 5.375-4.523438 11.09375-7.511719 17.066406h-439.808594c-2.984375-5.972656-5.460937-11.691406-7.507812-17.066406zm0 0"/><path d="m179.28125 503.464844c.015625 1.433594-.335938 2.84375-1.023438 4.097656l-.257812.425781c-.140625.25-.3125.476563-.511719.683594-.625.882813-1.441406 1.609375-2.386719 2.132813-.617187.421874-1.316406.710937-2.050781.855468-1.5.453125-3.105469.453125-4.605469 0-.726562-.175781-1.417968-.464844-2.050781-.855468-.082031 0-.082031-.085938-.167969-.085938-.855468-.542969-1.605468-1.238281-2.21875-2.046875-.199218-.207031-.371093-.433594-.511718-.683594-.085938-.167969-.171875-.253906-.257813-.425781l-2.558593-4.097656-5.292969-8.53125h-.085938l-27.21875-43.605469-27.222656 43.605469-5.375 8.53125-2.816406 4.523437c-1.5625 2.5-4.304688 4.015625-7.253907 4.011719l-7.851562-8.535156h-.679688c-.015624-.199219.015626-.40625.082032-.59375.027344-1.394532.441406-2.753906 1.195312-3.925782l2.476563-4.011718 32-51.199219 8.191406-13.058594c1.695313-2.304687 4.390625-3.667969 7.253906-3.667969s5.554688 1.363282 7.253907 3.667969l8.191406 13.058594 27.21875 43.605469 4.78125 7.59375.253906.511718 2.21875 3.5c.828125 1.363282 1.269531 2.925782 1.28125 4.519532zm0 0"/><path d="m256.089844 512c-2.945313.003906-5.683594-1.511719-7.242188-4.011719l-35.433594-56.6875-35.433593 56.6875c-1.578125 2.660157-4.476563 4.257813-7.570313 4.171875-3.09375-.085937-5.898437-1.839844-7.328125-4.582031-1.433593-2.746094-1.265625-6.046875.433594-8.632813l42.664063-68.269531c1.664062-2.347656 4.359374-3.742187 7.234374-3.742187s5.574219 1.394531 7.234376 3.742187l42.667968 68.269531c1.644532 2.628907 1.734375 5.941407.234375 8.65625-1.503906 2.714844-4.359375 4.398438-7.460937 4.398438zm0 0"/><path d="m341.421875 512c-2.945313.003906-5.683594-1.511719-7.242187-4.011719l-35.433594-56.6875-35.429688 56.6875c-1.582031 2.660157-4.480468 4.257813-7.574218 4.171875-3.089844-.085937-5.894532-1.839844-7.328126-4.582031-1.429687-2.746094-1.265624-6.046875.433594-8.632813l42.667969-68.269531c1.660156-2.347656 4.355469-3.742187 7.230469-3.742187 2.878906 0 5.574218 1.394531 7.234375 3.742187l42.667969 68.269531c1.648437 2.628907 1.738281 5.941407.234374 8.65625-1.5 2.714844-4.359374 4.398438-7.460937 4.398438zm0 0"/><path d="m426.746094 503.464844c0 2.902344 2.5625-1.621094 0 0-1.363282.855468 1.539062 8.535156 0 8.535156-2.941406-.015625-5.671875-1.527344-7.25-4.011719l-2.816406-4.523437-5.378907-8.53125-27.21875-43.605469-27.222656 43.605469-5.375 8.53125-2.558594 4.097656-.257812.425781c-.144531.25-.316407.476563-.511719.683594-.625.882813-1.441406 1.609375-2.390625 2.132813-.617187.421874-1.3125.710937-2.046875.855468-1.503906.453125-3.105469.453125-4.609375 0-.722656-.175781-1.414063-.464844-2.046875-.855468-.085938 0-.085938-.085938-.171875-.085938-.855469-.542969-1.605469-1.238281-2.21875-2.046875-.195313-.207031-.367187-.433594-.511719-.683594-.085937-.167969-.167968-.253906-.253906-.425781-.679688-1.257812-1.03125-2.667969-1.023438-4.097656.011719-1.59375.453126-3.15625 1.277344-4.519532l2.21875-3.5.257813-.511718 4.777343-7.59375 27.222657-43.605469 8.191406-13.058594c1.695313-2.304687 4.390625-3.667969 7.253906-3.667969s5.554688 1.363282 7.253907 3.667969l8.191406 13.058594 32 51.199219 2.472656 4.011718c.855469 1.449219-7.253906 2.984376-7.253906 4.519532zm0 0"/></g><path d="m384.082031 136.535156v110.929688c.011719 15.847656-6.277343 31.046875-17.484375 42.253906-11.203125 11.203125-26.402344 17.492188-42.25 17.480469h-136.53125c-15.847656.011719-31.046875-6.277344-42.253906-17.480469-11.203125-11.207031-17.492188-26.40625-17.480469-42.253906v-110.929688l55.976563 7.421875c.34375.085938.597656.085938.941406.171875 23.367188 5.253906 47.152344 8.421875 71.082031 9.472656 23.925781-1.050781 47.714844-4.21875 71.082031-9.472656.339844-.085937.597657-.085937.9375-.171875zm0 0" fill="#fec108"/><path d="m358.480469 136.535156v110.929688c0 33.027344-21.367188 59.734375-47.785157 59.734375h-109.226562c-26.421875 0-47.789062-26.707031-47.789062-59.734375v-110.929688l44.785156 7.421875c.273437.085938.476562.085938.75.171875 18.550781 5.230469 37.621094 8.40625 56.867187 9.472656 19.246094-1.066406 38.3125-4.242187 56.867188-9.472656.269531-.085937.476562-.085937.75-.171875zm0 0" fill="#ffdc00"/><path d="m170.746094 8.535156h85.335937v25.597656c0 18.851563-15.28125 34.132813-34.132812 34.132813h-17.066407c-18.851562 0-34.136718-15.28125-34.136718-34.132813zm0 0" fill="#d84315"/><path d="m383.144531 42.070312v.085938c-3.707031 15.324219-17.429687 26.117188-33.195312 26.109375h-17.066407c-9.054687.003906-17.738281-3.59375-24.140624-9.992187-6.402344-6.402344-9.996094-15.085938-9.996094-24.140626v-25.597656h42.667968c20.054688 0 37.410157 13.949219 41.730469 33.535156zm0 0" fill="#d84315"/><path d="m326.5 264.523438c-14.425781-.515626-27.578125-8.390626-34.851562-20.855469-3.8125-7.089844-11.585938-11.113281-19.574219-10.132813-3.980469.5625-7.808594 1.910156-11.257813 3.964844-2.867187 1.910156-6.601562 1.910156-9.46875 0-4.808594-3.578125-10.910156-4.949219-16.789062-3.773438-5.875 1.175782-10.980469 4.789063-14.042969 9.941407-13.460937 20.183593-32.117187 23.136719-44.050781 19.539062-7.707032-1.519531-13.503906-7.917969-14.25-15.742187-.015625-4.40625 3.332031-8.101563 7.71875-8.519532 4.386718-.421874 8.375 2.570313 9.199218 6.898438 2.328126 1.324219 5.015626 1.878906 7.679688 1.585938 8.246094-1.019532 15.503906-5.941407 19.5-13.226563 7.402344-12.476563 21.492188-19.386719 35.890625-17.601563 4.808594.632813 9.492187 2.015626 13.875 4.097657 4.382813-2.082031 9.066406-3.464844 13.875-4.097657 14.402344-1.800781 28.5 5.109376 35.890625 17.601563 3.996094 7.285156 11.253906 12.207031 19.5 13.226563 2.664062.289062 5.351562-.265626 7.679688-1.585938.808593-4.347656 4.804687-7.359375 9.207031-6.9375 4.402343.421875 7.75 4.136719 7.71875 8.558594-.746094 7.824218-6.542969 14.226562-14.25 15.742187-2.988281.886719-6.085938 1.328125-9.199219 1.316407zm0 0"/><path d="m196.347656 349.867188h119.46875c0 23.5625-19.105468 42.667968-42.667968 42.667968h-34.132813c-23.566406 0-42.667969-19.105468-42.667969-42.667968zm0 0" fill="#ffdc00"/><path d="m296.421875 256c-6.894531 13.492188-28.414063 15.402344-40.167969 15.402344-11.78125 0-33.277344-1.910156-40.171875-15.402344 13.148438 3.238281 26.628907 4.929688 40.171875 5.035156 13.539063-.105468 27.019532-1.796875 40.167969-5.035156zm0 0"/><path d="m233.730469 167.160156c-8.109375-2.984375-16.628907-4.710937-25.257813-5.121094-11.605468-.878906-23.214844 1.597657-33.453125 7.132813 1.167969-14.933594 35.789063-17.886719 52.714844-14.046875 2.683594.335938 5.019531 1.992188 6.226563 4.410156 1.203124 2.417969 1.117187 5.28125-.230469 7.625zm0 0"/><path d="m230.480469 193.546875c0-10.101563-7.640625-18.292969-17.066407-18.292969-9.425781 0-17.066406 8.191406-17.066406 18.292969s7.640625 18.292969 17.066406 18.292969c9.425782 0 17.066407-8.191406 17.066407-18.292969zm0 0"/><path d="m218.199219 177.671875c-4.40625-1.671875-9.332031.539063-11.007813 4.945313-1.675781 4.402343.535156 9.332031 4.941406 11.007812s9.332032-.535156 11.007813-4.941406-.535156-9.335938-4.941406-11.011719zm0 0" fill="#fff"/><path d="m278.433594 167.160156c8.109375-2.984375 16.625-4.710937 25.257812-5.121094 11.601563-.878906 23.214844 1.597657 33.449219 7.132813-1.167969-14.933594-35.789063-17.886719-52.714844-14.046875-2.679687.335938-5.015625 1.992188-6.222656 4.410156-1.207031 2.417969-1.121094 5.28125.230469 7.625zm0 0"/><path d="m315.816406 193.546875c0-10.101563-7.644531-18.292969-17.070312-18.292969-9.421875 0-17.066406 8.191406-17.066406 18.292969s7.644531 18.292969 17.066406 18.292969c9.425781 0 17.070312-8.191406 17.070312-18.292969zm0 0"/><path d="m304.972656 182.617188c-1.675781-4.40625-6.605468-6.617188-11.007812-4.945313-4.40625 1.675781-6.617188 6.605469-4.945313 11.011719 1.675781 4.40625 6.605469 6.617187 11.011719 4.941406s6.617188-6.605469 4.941406-11.007812zm0 0" fill="#fff"/><path d="m426.578125 136.105469c-.96875 4.609375-5.441406 7.601562-10.070313 6.742187-10.71875-1.773437-21.628906-2.058594-32.425781-.851562-16.8125 1.363281-35.414062 4.949218-53.761719 8.359375-24.40625 5.445312-49.253906 8.703125-74.238281 9.730469-4.714843 0-8.535156-3.820313-8.535156-8.535157 0-4.710937 3.820313-8.53125 8.535156-8.53125 23.925781-1.050781 47.714844-4.21875 71.082031-9.472656.339844-.085937.597657-.085937.9375-.171875 34.050782-6.398438 66.21875-12.371094 91.820313-7.253906 2.214844.425781 4.167969 1.722656 5.417969 3.601562 1.25 1.875 1.695312 4.175782 1.238281 6.382813zm0 0" fill="#e64c3c"/><path d="m264.613281 151.550781c-.011719 4.707031-3.824219 8.519531-8.53125 8.535157-24.988281-1.027344-49.832031-4.285157-74.242187-9.730469-18.34375-3.410157-36.949219-6.996094-53.757813-8.359375-10.796875-1.207032-21.710937-.921875-32.425781.851562-2.230469.441406-4.546875-.019531-6.433594-1.28125-1.890625-1.265625-3.199218-3.230468-3.636718-5.460937-.460938-2.207031-.011719-4.507813 1.238281-6.382813 1.25-1.878906 3.203125-3.175781 5.417969-3.601562 25.597656-5.117188 57.769531.855468 91.816406 7.253906.34375.085938.597656.085938.941406.171875 23.367188 5.253906 47.152344 8.421875 71.082031 9.472656 2.265625-.007812 4.441407.886719 6.042969 2.488281 1.601562 1.601563 2.496094 3.777344 2.488281 6.042969zm0 0" fill="#e64c3c"/><path d="m435.28125 512h-358.398438c-4.714843 0-8.535156-3.820312-8.535156-8.535156 0-4.710938 3.820313-8.53125 8.535156-8.53125h358.398438c4.710938 0 8.535156 3.820312 8.535156 8.53125 0 4.714844-3.824218 8.535156-8.535156 8.535156zm0 0"/><path d="m385.53125 358.398438h-258.902344c-4.710937 0-8.53125-3.820313-8.53125-8.53125 0-4.714844 3.820313-8.535157 8.53125-8.535157h258.902344c4.714844 0 8.535156 3.820313 8.535156 8.535157 0 4.710937-3.820312 8.53125-8.535156 8.53125zm0 0"/><path d="m324.347656 358.398438h-136.53125c-4.714844 0-8.535156-3.820313-8.535156-8.53125v-42.667969c0-4.710938 3.820312-8.53125 8.535156-8.53125h136.53125c4.714844 0 8.535156 3.820312 8.535156 8.53125v42.667969c0 4.710937-3.820312 8.53125-8.535156 8.53125zm-128-17.066407h119.46875v-25.597656h-119.46875zm0 0"/><path d="m324.347656 315.734375h-136.53125c-37.6875-.042969-68.226562-30.582031-68.269531-68.269531v-114.089844c0-4.710938 3.820313-8.53125 8.535156-8.53125 4.710938 0 8.53125 3.820312 8.53125 8.53125v114.089844c.03125 28.265625 22.9375 51.171875 51.203125 51.203125h136.53125c28.265625-.03125 51.167969-22.9375 51.199219-51.203125v-114.089844c0-4.710938 3.820313-8.53125 8.535156-8.53125 4.710938 0 8.53125 3.820312 8.53125 8.53125v114.089844c-.042969 37.6875-30.582031 68.226562-68.265625 68.269531zm0 0"/><path d="m102.480469 512h-93.867188c-4.710937 0-8.5312498-3.820312-8.5312498-8.535156v-7.59375c-.0078124-11.617188 1.3945308-23.191406 4.1757808-34.472656l7.933594-32.164063c1.296875-5.304687 3.175782-10.449219 5.601563-15.339844 2.109375-4.21875 7.234375-5.925781 11.449219-3.816406 4.21875 2.105469 5.925781 7.234375 3.816406 11.449219-1.867188 3.773437-3.3125 7.738281-4.308594 11.828125l-7.921875 32.132812c-2.378906 9.636719-3.613281 19.519531-3.679687 29.445313h85.332031c4.714843 0 8.535156 3.820312 8.535156 8.53125 0 4.714844-3.820313 8.535156-8.535156 8.535156zm0 0"/><path d="m503.546875 512h-93.867187c-4.710938 0-8.53125-3.820312-8.53125-8.535156 0-4.710938 3.820312-8.53125 8.53125-8.53125h85.335937c-.066406-9.925782-1.300781-19.804688-3.675781-29.441406l-7.9375-32.179688c-.996094-4.074219-2.4375-8.03125-4.300782-11.789062-2.105468-4.214844-.398437-9.34375 3.816407-11.449219 4.21875-2.109375 9.34375-.402344 11.453125 3.816406 2.421875 4.878906 4.296875 10.011719 5.589844 15.304687l7.941406 32.207032c2.78125 11.277344 4.1875 22.851562 4.179687 34.46875v7.59375c0 4.714844-3.820312 8.535156-8.535156 8.535156zm0 0"/><path d="m256.082031 160.050781c-4.714843 0-8.535156-3.820312-8.535156-8.535156 0-4.710937 3.820313-8.53125 8.535156-8.53125 23.917969-1.050781 47.699219-4.199219 71.066407-9.40625 34.414062-6.507813 66.902343-12.664063 92.742187-7.496094 3.023437.5625 5.511719 2.710938 6.507813 5.621094 1 2.910156.355468 6.132813-1.6875 8.433594-2.042969 2.300781-5.164063 3.324219-8.171876 2.679687-22.566406-4.523437-54.925781 1.613282-86.222656 7.535156-24.410156 5.429688-49.25 8.675782-74.234375 9.699219zm0 0"/><path d="m384.074219 211.25c-4.308594 0-7.941407-3.210938-8.46875-7.488281-.53125-4.277344 2.214843-8.273438 6.394531-9.320313.621094-.15625 61.816406-16.132812 61.816406-59.992187.972656-9.265625-2.371094-18.46875-9.070312-24.945313-15.429688-12.648437-51.027344-5.523437-74.589844-.820312-34.398438 5.730468-69.203125 8.640625-104.074219 8.699218-4.714843 0-8.535156-3.820312-8.535156-8.53125 0-4.714843 3.820313-8.535156 8.535156-8.535156 33.742188-.109375 67.425781-2.910156 100.722657-8.367187 35.359374-7.066407 68.742187-12.042969 88.769531 4.351562 10.730469 9.664063 16.382812 23.75 15.308593 38.148438 0 57.207031-71.675781 75.785156-74.734374 76.546875-.679688.167968-1.375.253906-2.074219.253906zm0 0"/><path d="m256.082031 160.050781c-24.984375-1.023437-49.828125-4.269531-74.234375-9.699219-31.292968-5.917968-63.667968-12.050781-86.222656-7.535156-3.011719.644532-6.132812-.378906-8.171875-2.679687-2.042969-2.300781-2.6875-5.523438-1.691406-8.433594 1-2.910156 3.488281-5.058594 6.511719-5.621094 25.824218-5.167969 58.332031.988281 92.742187 7.496094 23.367187 5.207031 47.148437 8.355469 71.066406 9.40625 4.710938 0 8.53125 3.820313 8.53125 8.53125 0 4.714844-3.820312 8.535156-8.53125 8.535156zm0 0"/><path d="m128.089844 211.25c-.699219 0-1.398438-.085938-2.074219-.253906-3.058594-.761719-74.734375-19.335938-74.734375-76.546875-1.074219-14.398438 4.578125-28.480469 15.308594-38.144531 20.023437-16.40625 53.390625-11.425782 88.765625-4.351563 33.300781 5.457031 66.980469 8.253906 100.726562 8.363281 4.710938 0 8.53125 3.820313 8.53125 8.535156 0 4.710938-3.820312 8.53125-8.53125 8.53125-34.871093-.0625-69.679687-2.972656-104.074219-8.703124-23.554687-4.710938-59.160156-11.835938-74.59375.820312-6.699218 6.480469-10.042968 15.683594-9.066406 24.949219 0 43.863281 61.191406 59.835937 61.816406 59.992187 4.179688 1.046875 6.921876 5.042969 6.394532 9.320313-.527344 4.277343-4.160156 7.488281-8.46875 7.488281zm0 0"/><path d="m384.082031 104.277344c-4.714843 0-8.535156-3.820313-8.535156-8.535156v-44.542969c-.019531-18.84375-15.289063-34.113281-34.132813-34.132813h-170.667968c-18.839844.019532-34.113282 15.289063-34.132813 34.132813v44.542969c0 4.714843-3.820312 8.535156-8.53125 8.535156-4.714843 0-8.535156-3.820313-8.535156-8.535156v-44.542969c.03125-28.261719 22.9375-51.167969 51.199219-51.199219h170.667968c28.265626.03125 51.167969 22.9375 51.199219 51.199219v44.542969c0 4.714843-3.820312 8.535156-8.53125 8.535156zm0 0"/><path d="m221.949219 76.800781h-17.066407c-23.554687-.027343-42.640624-19.113281-42.667968-42.667969v-25.597656c0-4.714844 3.820312-8.535156 8.53125-8.535156h85.335937c4.710938 0 8.53125 3.820312 8.53125 8.535156v25.597656c-.027343 23.554688-19.113281 42.640626-42.664062 42.667969zm-42.667969-59.734375v17.066406c.015625 14.132813 11.46875 25.585938 25.601562 25.601563h17.066407c14.128906-.015625 25.582031-11.46875 25.597656-25.601563v-17.066406zm0 0"/><path d="m349.949219 76.800781h-17.066407c-23.554687-.027343-42.640624-19.113281-42.667968-42.667969v-25.597656c0-4.714844 3.820312-8.535156 8.53125-8.535156h42.667968c4.714844 0 8.535157 3.820312 8.535157 8.535156 0 4.710938-3.820313 8.53125-8.535157 8.53125h-34.132812v17.066406c.015625 14.132813 11.46875 25.585938 25.601562 25.601563h17.066407c11.851562.03125 22.164062-8.105469 24.890625-19.644531.675781-2.996094 2.914062-5.398438 5.855468-6.289063 2.941407-.890625 6.132813-.128906 8.359376 1.992188 2.222656 2.121093 3.132812 5.277343 2.386718 8.257812-4.539062 19.230469-21.734375 32.800781-41.492187 32.75zm0 0"/><path d="m435.28125 512h-358.398438c-2.4375 0-4.757812-1.042969-6.375-2.863281-62.566406-70.390625-61.953124-131.304688-61.894531-133.863281.058594-2.492188 1.203125-4.832032 3.136719-6.410157 1.363281-1.125 34.566406-27.53125 114.914062-27.53125h258.832032c80.351562 0 113.550781 26.40625 114.917968 27.53125 1.929688 1.578125 3.078126 3.917969 3.132813 6.410157.058594 2.5625.675781 63.472656-61.890625 133.863281-1.617188 1.820312-3.9375 2.863281-6.375 2.863281zm-354.535156-17.066406h350.667968c46.46875-53.632813 53.734376-101.011719 54.859376-115.078125-9.667969-5.890625-40.902344-21.457031-100.777344-21.457031h-258.832032c-59.824218 0-91.058593 15.542968-100.78125 21.460937 1.132813 14.03125 8.390626 61.425781 54.863282 115.074219zm0 0"/><path d="m273.148438 401.066406h-34.132813c-28.265625-.03125-51.171875-22.9375-51.199219-51.199218 0-4.714844 3.820313-8.535157 8.53125-8.535157h119.46875c4.710938 0 8.53125 3.820313 8.53125 8.535157-.03125 28.261718-22.9375 51.167968-51.199218 51.199218zm-67.183594-42.667968c3.90625 15.0625 17.492187 25.582031 33.050781 25.601562h34.132813c15.558593-.019531 29.140624-10.539062 33.050781-25.601562zm0 0"/><path d="m486.480469 443.734375h-460.800781c-4.710938 0-8.53125-3.820313-8.53125-8.535156 0-4.710938 3.820312-8.53125 8.53125-8.53125h460.800781c4.714843 0 8.535156 3.820312 8.535156 8.53125 0 4.714843-3.820313 8.535156-8.535156 8.535156zm0 0"/><path d="m153.679688 392.535156c-4.710938 0-8.53125-3.824218-8.53125-8.535156v-34.132812c0-4.714844 3.820312-8.535157 8.53125-8.535157 4.714843 0 8.535156 3.820313 8.535156 8.535157v34.132812c0 4.710938-3.820313 8.535156-8.535156 8.535156zm0 0"/><path d="m119.546875 392.535156c-4.710937 0-8.53125-3.824218-8.53125-8.535156v-34.132812c0-4.714844 3.820313-8.535157 8.53125-8.535157 4.714844 0 8.535156 3.820313 8.535156 8.535157v34.132812c0 4.710938-3.820312 8.535156-8.535156 8.535156zm0 0"/><path d="m85.414062 392.535156c-4.710937 0-8.53125-3.824218-8.53125-8.535156v-31.488281c0-4.710938 3.820313-8.53125 8.53125-8.53125 4.714844 0 8.535157 3.820312 8.535157 8.53125v31.488281c0 4.710938-3.820313 8.535156-8.535157 8.535156zm0 0"/><path d="m51.28125 392.535156c-4.710938 0-8.535156-3.824218-8.535156-8.535156v-24.234375c0-4.714844 3.824218-8.535156 8.535156-8.535156s8.535156 3.820312 8.535156 8.535156v24.234375c0 4.710938-3.824218 8.535156-8.535156 8.535156zm0 0"/><path d="m460.882812 392.535156c-4.714843 0-8.535156-3.824218-8.535156-8.535156v-24.234375c0-4.714844 3.820313-8.535156 8.535156-8.535156 4.710938 0 8.53125 3.820312 8.53125 8.535156v24.234375c0 4.710938-3.820312 8.535156-8.53125 8.535156zm0 0"/><path d="m426.746094 392.535156c-4.710938 0-8.53125-3.824218-8.53125-8.535156v-31.488281c0-4.710938 3.820312-8.53125 8.53125-8.53125 4.714844 0 8.535156 3.820312 8.535156 8.53125v31.488281c0 4.710938-3.820312 8.535156-8.535156 8.535156zm0 0"/><path d="m392.613281 392.535156c-4.710937 0-8.53125-3.824218-8.53125-8.535156v-34.046875c0-4.714844 3.820313-8.535156 8.53125-8.535156 4.714844 0 8.535157 3.820312 8.535157 8.535156v34.046875c0 4.710938-3.820313 8.535156-8.535157 8.535156zm0 0"/><path d="m358.480469 392.535156c-4.710938 0-8.53125-3.824218-8.53125-8.535156v-34.132812c0-4.714844 3.820312-8.535157 8.53125-8.535157 4.714843 0 8.535156 3.820313 8.535156 8.535157v34.132812c0 4.710938-3.820313 8.535156-8.535156 8.535156zm0 0"/><path d="m170.757812 512c-2.945312.003906-5.683593-1.511719-7.242187-4.011719l-35.433594-56.6875-35.433593 56.6875c-1.582032 2.660157-4.476563 4.257813-7.570313 4.171875-3.09375-.085937-5.898437-1.839844-7.332031-4.582031-1.429688-2.746094-1.265625-6.046875.433594-8.632813l42.667968-68.269531c1.660156-2.347656 4.359375-3.742187 7.234375-3.742187s5.570313 1.394531 7.234375 3.742187l42.664063 68.269531c1.648437 2.628907 1.738281 5.941407.234375 8.65625-1.5 2.714844-4.355469 4.398438-7.457032 4.398438zm0 0"/><path d="m256.089844 512c-2.945313.003906-5.683594-1.511719-7.242188-4.011719l-35.433594-56.6875-35.433593 56.6875c-1.578125 2.660157-4.476563 4.257813-7.570313 4.171875-3.09375-.085937-5.898437-1.839844-7.328125-4.582031-1.433593-2.746094-1.265625-6.046875.433594-8.632813l42.664063-68.269531c1.664062-2.347656 4.359374-3.742187 7.234374-3.742187s5.574219 1.394531 7.234376 3.742187l42.667968 68.269531c1.644532 2.628907 1.734375 5.941407.234375 8.65625-1.503906 2.714844-4.359375 4.398438-7.460937 4.398438zm0 0"/><path d="m341.421875 512c-2.945313.003906-5.683594-1.511719-7.242187-4.011719l-35.433594-56.6875-35.429688 56.6875c-1.582031 2.660157-4.480468 4.257813-7.574218 4.171875-3.089844-.085937-5.894532-1.839844-7.328126-4.582031-1.429687-2.746094-1.265624-6.046875.433594-8.632813l42.667969-68.269531c1.660156-2.347656 4.355469-3.742187 7.230469-3.742187 2.878906 0 5.574218 1.394531 7.234375 3.742187l42.667969 68.269531c1.648437 2.628907 1.738281 5.941407.234374 8.65625-1.5 2.714844-4.359374 4.398438-7.460937 4.398438zm0 0"/><path d="m426.757812 512c-2.945312.003906-5.683593-1.511719-7.242187-4.011719l-35.433594-56.6875-35.433593 56.6875c-1.582032 2.660157-4.476563 4.257813-7.570313 4.171875-3.09375-.085937-5.898437-1.839844-7.332031-4.582031-1.429688-2.746094-1.265625-6.046875.433594-8.632813l42.667968-68.269531c1.660156-2.347656 4.359375-3.742187 7.234375-3.742187s5.570313 1.394531 7.234375 3.742187l42.664063 68.269531c1.648437 2.628907 1.738281 5.941407.234375 8.65625-1.5 2.714844-4.355469 4.398438-7.457032 4.398438zm0 0"/></svg>