<svg height="512pt" viewBox="0 0 512 512.23119" width="512pt" xmlns="http://www.w3.org/2000/svg"><path d="m187.847656 290.132812h136.535156v76.800782h-136.535156zm0 0" fill="#fec108"/><path d="m418.25 162.132812c-5.910156 15.777344-18.359375 28.222657-34.132812 34.132813l-8.535157-42.664063zm0 0" fill="#c81e1e"/><path d="m136.648438 153.601562-8.53125 42.664063c-15.777344-5.910156-28.226563-18.355469-34.136719-34.132813zm0 0" fill="#c81e1e"/><path d="m409.714844 503.464844h93.867187v-7.59375c.015625-10.925782-1.300781-21.816406-3.925781-32.425782l-7.933594-32.171874c-9.207031-33.554688-40.050781-56.558594-74.839844-55.808594h-321.535156c-34.789062-.75-65.632812 22.253906-74.835937 55.808594l-7.9375 32.171874c-2.621094 10.609376-3.941407 21.5-3.925781 32.425782v7.59375zm0 0" fill="#0377bc"/><path d="m435.316406 503.464844h-358.402344l28.910157-139.921875c2.960937-8.835938 11.589843-14.488281 20.871093-13.675781h258.894532c9.28125-.8125 17.910156 4.839843 20.871094 13.675781zm0 0" fill="#f57c00"/><path d="m409.714844 503.464844h-307.199219l24.78125-139.921875c1.871094-8.28125 9.398437-14.042969 17.886719-13.675781h221.910156c8.484375-.367188 16.015625 5.390624 17.886719 13.675781zm0 0" fill="#ff9801"/><path d="m384.117188 128v119.464844c.011718 15.847656-6.28125 31.046875-17.484376 42.253906-11.203124 11.203125-26.40625 17.492188-42.25 17.480469h-136.535156c-15.84375.011719-31.042968-6.277344-42.25-17.480469-11.203125-11.207031-17.492187-26.40625-17.480468-42.253906v-119.464844zm0 0" fill="#fec108"/><path d="m358.515625 128v119.464844c0 33.027344-21.367187 59.734375-47.785156 59.734375h-109.226563c-26.421875 0-47.789062-26.707031-47.789062-59.734375v-119.464844zm0 0" fill="#ffdc00"/><path d="m145.183594 349.867188h34.132812v93.867187h-34.132812zm0 0" fill="#f5f5f5"/><path d="m332.914062 349.867188h34.136719v93.867187h-34.136719zm0 0" fill="#f5f5f5"/><path d="m418.25 162.132812c-11.488281.027344-22.941406-1.257812-34.132812-3.839843-5.890626-1.195313-12.546876-2.730469-19.882813-4.691407-35.226563-9.992187-71.527344-15.722656-108.117187-17.066406-36.59375 1.34375-72.890626 7.074219-108.117188 17.066406-7.339844 1.960938-13.996094 3.496094-19.882812 4.691407-11.195313 2.582031-22.648438 3.867187-34.136719 3.839843 5.910156-15.777343 18.359375-28.222656 34.136719-34.132812 0-37.71875 17.066406-85.332031 68.265624-85.332031h25.597657v-17.066407c.03125-9.414062 7.65625-17.039062 17.070312-17.066406h34.132813c9.414062.027344 17.039062 7.652344 17.066406 17.066406v17.066407h25.597656c51.203125 0 68.269532 47.613281 68.269532 85.332031 15.773437 5.910156 28.222656 18.355469 34.132812 34.132812zm0 0" fill="#f44335"/><path d="m296.457031 247.464844c-6.894531 13.496094-28.417969 15.402344-40.171875 15.402344-11.78125 0-33.273437-1.90625-40.167968-15.402344 13.148437 3.242187 26.628906 4.929687 40.167968 5.035156 13.542969-.105469 27.023438-1.792969 40.171875-5.035156zm0 0"/><path d="m233.765625 158.625c-8.109375-2.980469-16.628906-4.707031-25.257813-5.121094-11.605468-.875-23.214843 1.601563-33.453124 7.132813 1.167968-14.933594 35.789062-17.882813 52.714843-14.042969 2.683594.332031 5.019531 1.988281 6.226563 4.40625 1.203125 2.421875 1.117187 5.28125-.230469 7.625zm0 0"/><path d="m230.515625 185.011719c0-10.101563-7.640625-18.289063-17.066406-18.289063s-17.066407 8.1875-17.066407 18.289063c0 10.105469 7.640626 18.292969 17.066407 18.292969s17.066406-8.1875 17.066406-18.292969zm0 0"/><path d="m218.234375 169.140625c-4.40625-1.675781-9.335937.535156-11.011719 4.941406-1.675781 4.40625.539063 9.335938 4.941406 11.011719 4.40625 1.671875 9.335938-.539062 11.011719-4.945312 1.675781-4.402344-.539062-9.332032-4.941406-11.007813zm0 0" fill="#fff"/><path d="m278.464844 158.625c8.113281-2.980469 16.628906-4.707031 25.261718-5.121094 11.601563-.875 23.210938 1.601563 33.449219 7.132813-1.167969-14.933594-35.789062-17.882813-52.714843-14.042969-2.679688.332031-5.019532 1.988281-6.222657 4.40625-1.207031 2.421875-1.121093 5.28125.226563 7.625zm0 0"/><path d="m315.847656 185.011719c0-10.101563-7.640625-18.289063-17.066406-18.289063s-17.066406 8.1875-17.066406 18.289063c0 10.105469 7.640625 18.292969 17.066406 18.292969s17.066406-8.1875 17.066406-18.292969zm0 0"/><path d="m305.007812 174.082031c-1.675781-4.402343-6.605468-6.617187-11.011718-4.941406-4.402344 1.675781-6.617188 6.605469-4.941406 11.007813 1.675781 4.40625 6.605468 6.621093 11.011718 4.945312 4.402344-1.675781 6.617188-6.605469 4.941406-11.011719zm0 0" fill="#fff"/><path d="m435.316406 512h-358.402344c-2.5625 0-4.992187-1.152344-6.613281-3.144531-1.621093-1.988281-2.261719-4.601563-1.742187-7.113281l28.90625-139.921876c3.726562-12.84375 15.886718-21.367187 29.234375-20.488281h258.890625c13.363281-.882812 25.535156 7.671875 29.234375 20.542969l28.855469 139.867188c.515624 2.511718-.121094 5.128906-1.746094 7.117187-1.621094 1.988281-4.050782 3.140625-6.617188 3.140625zm-347.925781-17.066406h337.449219l-26.742188-129.664063c-2.253906-4.742187-7.292968-7.511719-12.507812-6.871093h-258.890625c-5.199219-.632813-10.230469 2.109374-12.507813 6.828124zm0 0"/><path d="m324.382812 358.398438h-136.535156c-4.710937 0-8.53125-3.820313-8.53125-8.53125v-42.667969c0-4.710938 3.820313-8.53125 8.53125-8.53125h136.535156c4.710938 0 8.53125 3.820312 8.53125 8.53125v42.667969c0 4.710937-3.820312 8.53125-8.53125 8.53125zm-128-17.066407h119.464844v-25.597656h-119.464844zm0 0"/><path d="m324.382812 315.734375h-136.535156c-37.683594-.042969-68.222656-30.582031-68.265625-68.269531v-89.171875c0-4.710938 3.820313-8.53125 8.535157-8.53125 4.710937 0 8.53125 3.820312 8.53125 8.53125v89.171875c.03125 28.265625 22.9375 51.171875 51.199218 51.203125h136.535156c28.261719-.03125 51.167969-22.9375 51.199219-51.203125v-89.171875c0-4.710938 3.820313-8.53125 8.535157-8.53125 4.710937 0 8.53125 3.820312 8.53125 8.53125v89.171875c-.042969 37.6875-30.582032 68.226562-68.265626 68.269531zm0 0"/><path d="m102.515625 512h-93.867187c-4.710938 0-8.53125-3.820312-8.53125-8.535156v-7.59375c-.007813-11.617188 1.394531-23.191406 4.171874-34.472656l7.9375-32.164063c10.023438-37.449219 44.363282-63.1875 83.121094-62.300781h8.019532c4.714843 0 8.535156 3.820312 8.535156 8.53125 0 4.714844-3.820313 8.535156-8.535156 8.535156h-8.019532c-30.898437-.871094-58.390625 19.496094-66.558594 49.308594l-7.9375 32.179687c-2.375 9.636719-3.605468 19.519531-3.667968 29.445313h85.332031c4.710937 0 8.535156 3.820312 8.535156 8.53125 0 4.714844-3.824219 8.535156-8.535156 8.535156zm0 0"/><path d="m503.582031 512h-93.867187c-4.710938 0-8.53125-3.820312-8.53125-8.535156 0-4.710938 3.820312-8.53125 8.53125-8.53125h85.335937c-.066406-9.925782-1.300781-19.804688-3.675781-29.441406l-7.9375-32.179688c-8.164062-29.8125-35.652344-50.183594-66.554688-49.3125h-7.933593c-4.714844 0-8.535157-3.820312-8.535157-8.535156 0-4.710938 3.820313-8.53125 8.535157-8.53125h7.933593c38.765626-.890625 73.109376 24.851562 83.125 62.308594l7.9375 32.160156c2.78125 11.28125 4.179688 22.855468 4.171876 34.46875v7.59375c0 4.714844-3.820313 8.535156-8.535157 8.535156zm0 0"/><path d="m384.117188 204.804688c-4.191407.007812-7.769532-3.03125-8.4375-7.167969-.671876-4.136719 1.757812-8.148438 5.734374-9.464844 9.5-3.332031 17.632813-9.695313 23.152344-18.113281-14.402344-1.558594-28.648437-4.308594-42.59375-8.222656-34.503906-9.742188-70.039062-15.371094-105.867187-16.769532-35.820313 1.398438-71.347657 7.027344-105.847657 16.769532-13.925781 3.90625-28.148437 6.652343-42.527343 8.214843 5.507812 8.398438 13.617187 14.765625 23.085937 18.121094 2.890625.964844 5.050782 3.398437 5.660156 6.386719.609376 2.984375-.417968 6.070312-2.699218 8.09375-2.28125 2.023437-5.46875 2.675781-8.363282 1.710937-18.328124-6.753906-32.773437-21.199219-39.523437-39.53125-.898437-2.6875-.402344-5.652343 1.324219-7.898437 1.730468-2.25 4.464844-3.492188 7.292968-3.316406 17.398438-.328126 34.664063-3.109376 51.289063-8.253907 35.933594-10.222656 72.980469-16.054687 110.320313-17.363281 37.339843 1.308594 74.386718 7.136719 110.324218 17.363281 16.628906 5.152344 33.90625 7.929688 51.316406 8.25 2.820313-.152343 5.535157 1.097657 7.253907 3.34375 1.71875 2.246094 2.214843 5.191407 1.328125 7.875-6.75 18.332031-21.195313 32.777344-39.523438 39.53125-.871094.289063-1.78125.441407-2.699218.441407zm0 0"/><path d="m93.980469 170.671875c-2.742188-.003906-5.316407-1.324219-6.917969-3.550781-1.601562-2.226563-2.039062-5.085938-1.171875-7.6875 6.75-18.328125 21.195313-32.777344 39.523437-39.527344 4.472657-1.492188 9.304688.921875 10.796876 5.394531 1.492187 4.46875-.925782 9.304688-5.394532 10.792969-13.257812 5.019531-23.726562 15.484375-28.742187 28.738281-1.160157 3.484375-4.417969 5.835938-8.09375 5.839844zm0 0"/><path d="m418.25 170.671875c-3.660156 0-6.914062-2.335937-8.085938-5.804687-5.085937-13.21875-15.53125-23.671876-28.75-28.769532-4.46875-1.492187-6.886718-6.324218-5.394531-10.796875 1.492188-4.46875 6.324219-6.886719 10.796875-5.394531 18.328125 6.75 32.773438 21.199219 39.523438 39.527344.867187 2.601562.429687 5.460937-1.171875 7.6875-1.601563 2.226562-4.175781 3.546875-6.917969 3.550781zm0 0"/><path d="m128.117188 136.535156c-4.714844 0-8.535157-3.824218-8.535157-8.535156 0-46.722656 23.75-93.867188 76.800781-93.867188h25.597657c4.714843 0 8.535156 3.820313 8.535156 8.535157 0 4.710937-3.820313 8.53125-8.535156 8.53125h-25.597657c-44.09375 0-59.734374 41.371093-59.734374 76.800781 0 4.710938-3.820313 8.535156-8.53125 8.535156zm0 0"/><path d="m384.117188 136.535156c-4.714844 0-8.535157-3.824218-8.535157-8.535156 0-35.429688-15.640625-76.800781-59.734375-76.800781h-25.597656c-4.714844 0-8.535156-3.820313-8.535156-8.53125 0-4.714844 3.820312-8.535157 8.535156-8.535157h25.597656c53.050782 0 76.800782 47.144532 76.800782 93.867188 0 4.710938-3.820313 8.535156-8.53125 8.535156zm0 0"/><path d="m290.25 85.332031c-4.714844 0-8.535156-3.820312-8.535156-8.53125v-51.199219c-.003906-4.710937-3.820313-8.53125-8.53125-8.535156h-34.132813c-4.714843.003906-8.53125 3.824219-8.535156 8.535156v51.199219c0 4.710938-3.820313 8.53125-8.535156 8.53125-4.710938 0-8.53125-3.820312-8.53125-8.53125v-51.199219c.015625-14.132812 11.46875-25.585937 25.601562-25.601562h34.132813c14.128906.015625 25.582031 11.46875 25.597656 25.601562v51.199219c0 4.710938-3.820312 8.53125-8.53125 8.53125zm0 0"/><path d="m170.78125 221.867188c0 4.710937-3.820312 8.53125-8.53125 8.53125-4.714844 0-8.535156-3.820313-8.535156-8.53125 0-4.714844 3.820312-8.535157 8.535156-8.535157 4.710938 0 8.53125 3.820313 8.53125 8.535157zm0 0"/><path d="m170.78125 247.464844c0 4.714844-3.820312 8.535156-8.53125 8.535156-4.714844 0-8.535156-3.820312-8.535156-8.535156 0-4.710938 3.820312-8.53125 8.535156-8.53125 4.710938 0 8.53125 3.820312 8.53125 8.53125zm0 0"/><path d="m196.382812 247.464844c0 4.714844-3.820312 8.535156-8.535156 8.535156-4.710937 0-8.53125-3.820312-8.53125-8.535156 0-4.710938 3.820313-8.53125 8.53125-8.53125 4.714844 0 8.535156 3.820312 8.535156 8.53125zm0 0"/><path d="m196.382812 273.066406c0 4.714844-3.820312 8.535156-8.535156 8.535156-4.710937 0-8.53125-3.820312-8.53125-8.535156 0-4.710937 3.820313-8.53125 8.53125-8.53125 4.714844 0 8.535156 3.820313 8.535156 8.53125zm0 0"/><path d="m221.980469 273.066406c0 4.714844-3.820313 8.535156-8.53125 8.535156-4.714844 0-8.535157-3.820312-8.535157-8.535156 0-4.710937 3.820313-8.53125 8.535157-8.53125 4.710937 0 8.53125 3.820313 8.53125 8.53125zm0 0"/><path d="m358.515625 221.867188c0 4.710937-3.820313 8.53125-8.535156 8.53125-4.710938 0-8.53125-3.820313-8.53125-8.53125 0-4.714844 3.820312-8.535157 8.53125-8.535157 4.714843 0 8.535156 3.820313 8.535156 8.535157zm0 0"/><path d="m358.515625 247.464844c0 4.714844-3.820313 8.535156-8.535156 8.535156-4.710938 0-8.53125-3.820312-8.53125-8.535156 0-4.710938 3.820312-8.53125 8.53125-8.53125 4.714843 0 8.535156 3.820312 8.535156 8.53125zm0 0"/><path d="m332.914062 247.464844c0 4.714844-3.820312 8.535156-8.53125 8.535156-4.714843 0-8.535156-3.820312-8.535156-8.535156 0-4.710938 3.820313-8.53125 8.535156-8.53125 4.710938 0 8.53125 3.820312 8.53125 8.53125zm0 0"/><path d="m332.914062 273.066406c0 4.714844-3.820312 8.535156-8.53125 8.535156-4.714843 0-8.535156-3.820312-8.535156-8.535156 0-4.710937 3.820313-8.53125 8.535156-8.53125 4.710938 0 8.53125 3.820313 8.53125 8.53125zm0 0"/><path d="m307.316406 273.066406c0 4.714844-3.820312 8.535156-8.535156 8.535156-4.710938 0-8.53125-3.820312-8.53125-8.535156 0-4.710937 3.820312-8.53125 8.53125-8.53125 4.714844 0 8.535156 3.820313 8.535156 8.53125zm0 0"/><path d="m384.105469 512c-3.910157-.003906-7.316407-2.667969-8.265625-6.460938l-15.457032-61.804687h-208.535156l-15.453125 61.804687c-.671875 3.03125-2.933593 5.460938-5.914062 6.339844-2.976563.882813-6.199219.078125-8.410157-2.105468-2.210937-2.179688-3.066406-5.386719-2.226562-8.378907l17.066406-68.265625c.949219-3.796875 4.359375-6.460937 8.273438-6.460937h221.867187c3.914063 0 7.324219 2.664062 8.277344 6.460937l17.066406 68.265625c.636719 2.550781.0625 5.253907-1.554687 7.324219-1.621094 2.074219-4.101563 3.285156-6.734375 3.28125zm0 0"/><path d="m179.316406 443.734375h-34.132812c-4.714844 0-8.535156-3.820313-8.535156-8.535156v-85.332031c0-4.714844 3.820312-8.535157 8.535156-8.535157h34.132812c4.710938 0 8.53125 3.820313 8.53125 8.535157v85.332031c0 4.714843-3.820312 8.535156-8.53125 8.535156zm-25.601562-17.066406h17.066406v-68.269531h-17.066406zm0 0"/><path d="m367.050781 443.734375h-34.136719c-4.710937 0-8.53125-3.820313-8.53125-8.535156v-85.332031c0-4.714844 3.820313-8.535157 8.53125-8.535157h34.136719c4.710938 0 8.53125 3.820313 8.53125 8.535157v85.332031c0 4.714843-3.820312 8.535156-8.53125 8.535156zm-25.601562-17.066406h17.066406v-68.269531h-17.066406zm0 0"/></svg>