<svg height="512pt" viewBox="0 0 512 512.00427" width="512pt" xmlns="http://www.w3.org/2000/svg"><path d="m187.734375 290.132812h136.535156v76.800782h-136.535156zm0 0" fill="#fec108"/><path d="m503.46875 495.871094v7.59375h-494.933594v-7.59375c-.015625-10.925782 1.304688-21.816406 3.925782-32.425782l7.9375-32.171874c9.203124-33.554688 40.046874-56.558594 74.835937-55.808594h321.535156c34.789063-.75 65.632813 22.253906 74.839844 55.808594l7.933594 32.171874c2.621093 10.609376 3.941406 21.5 3.925781 32.425782zm0 0" fill="#02a9f4"/><path d="m256.003906 503.382812v.082032h-179.203125l26.453125-128 2.476563-11.945313c2.945312-8.820312 11.558593-14.46875 20.820312-13.652343h52.652344l-.085937.085937c-.085938 0-.171876.085937-.257813.253906-.691406.492188-1.347656 1.035157-1.960937 1.621094-.085938.085937-.171876.085937-.257813.257813-.984375.832031-1.921875 1.714843-2.8125 2.644531l-1.195313 1.195312c-2.878906 3.007813-5.558593 6.199219-8.023437 9.558594-.683594.9375-1.363281 1.960937-2.132813 3.070313-1.449218 2.132812-2.902343 4.4375-4.265624 6.910156l-.085938.085937c-.597656 1.109375-1.28125 2.304688-1.878906 3.585938-.339844.765625-.765625 1.535156-1.109375 2.304687-.597657 1.191406-1.191407 2.472656-1.707031 3.753906-.851563 1.960938-1.703126 4.09375-2.472657 6.230469-.597656 1.703125-1.195312 3.496094-1.707031 5.289063-.085938.425781-.253906.769531-.339844 1.195312-.257812.851563-.429687 1.792969-.683594 2.644532-.625 2.300781-1.109374 4.636718-1.449218 6.996093-.257813 1.195313-.429688 2.476563-.597656 3.757813-.34375 2.300781-.597657 4.777344-.855469 7.25v.597656c-.171875 2.390625-.253907 4.863281-.253907 7.425781v.085938c10.839844-4.933594 23.289063-4.933594 34.132813 0-10.671875 11.683593-16.738281 26.84375-17.066406 42.664062 6.722656-.625 13.476562-.824219 20.222656-.597656 1.367187 0 2.730469.085937 4.179687.171875 1.109376 0 2.21875.085938 3.414063.171875.714844.011719 1.425781.066406 2.132813.167969 4.292968.277344 8.566406.789062 12.800781 1.539062 1.195312.167969 2.476562.425782 3.753906.679688.320313.015625.636719.074218.941406.171875 1.960938.425781 3.839844.855469 5.800781 1.367187 1.964844.511719 4.011719 1.023438 5.972657 1.707032 1.367187.511718 2.730469.9375 4.097656 1.535156 4.0625 1.511718 7.976563 3.398437 11.691406 5.632812 1.195313.765625 2.386719 1.535156 3.496094 2.386719 3.949219 2.796875 7.433594 6.195313 10.328125 10.070313.085938.085937.167969.257812.253906.339843.335938.425781.621094.882813.855469 1.367188.257813.269531.460937.589843.597656.9375.253907.34375.425781.683593.679688 1.023437v.085938c.105469.132812.191406.273437.257812.425781.1875.273437.359375.558594.511719.855469.175781.296875.320312.609375.425781.9375.148438.210937.261719.441406.34375.683594.0625.128906.148438.242187.253907.339843.011718.226563.101562.4375.257812.597657l.511719 1.453124zm0 0" fill="#0377bc"/><path d="m435.203125 503.464844h-179.199219v-.082032h.082032c.171874-.511718.34375-.941406.511718-1.453124.15625-.160157.246094-.371094.257813-.597657.167969-.359375.367187-.699219.597656-1.023437 0-.171875.085937-.253906.171875-.425782.082031-.1875.199219-.363281.339844-.511718 0-.085938.085937-.171875.085937-.257813.171875-.339843.425781-.679687.597657-1.023437.347656-.683594.746093-1.339844 1.195312-1.960938l.082031-.085937v-.085938c.257813-.425781.597657-.851562.855469-1.28125.085938-.082031.171875-.253906.253906-.339843 2.894532-3.875 6.378906-7.273438 10.328125-10.070313 1.109375-.851563 2.304688-1.621094 3.496094-2.386719 3.714844-2.234375 7.628906-4.121094 11.691406-5.632812 1.367188-.597656 2.730469-1.023438 4.097657-1.535156 1.960937-.683594 4.007812-1.195313 5.972656-1.707032 1.960937-.511718 3.839844-.941406 5.800781-1.367187.304687-.097657.621094-.15625.941406-.171875 1.277344-.253906 2.558594-.511719 3.753907-.679688 6.0625-1.054687 12.195312-1.683594 18.347656-1.878906 1.449218-.085938 2.816406-.171875 4.179687-.171875 6.746094-.226563 13.503907-.027344 20.222657.597656-.328126-15.820312-6.394532-30.980469-17.066407-42.664062 10.84375-4.933594 23.292969-4.933594 34.132813 0 0-2.5625-.082032-5.121094-.253906-7.511719v-.597656c-.257813-2.472656-.511719-4.949219-.851563-7.25-.257813-2.304688-.683594-4.609375-1.109375-6.742188-.597656-2.730468-1.28125-5.292968-1.964844-7.851562-.425781-1.535156-.9375-3.070313-1.449218-4.523438-.792969-2.375-1.703126-4.710937-2.730469-6.996094-.511719-1.28125-1.109375-2.5625-1.707031-3.753906-.34375-.769531-.769532-1.539062-1.109376-2.304687-.597656-1.28125-1.28125-2.476563-1.878906-3.585938l-.085937-.085937c-.765625-1.363282-1.535157-2.644532-2.304688-3.921875-.082031-.085938-.167969-.257813-.253906-.34375-.597656-.9375-1.109375-1.792969-1.707031-2.644531-.769532-1.109376-1.449219-2.132813-2.132813-3.070313-2.128906-2.878906-4.40625-5.640625-6.828125-8.277344-.167968-.171875-.253906-.34375-.425781-.429687-.234375-.300782-.492187-.585938-.769531-.851563-.382813-.46875-.808594-.898437-1.277344-1.28125l-.597656-.597656c-1.359375-1.378906-2.816406-2.660156-4.351563-3.839844-.085937-.167969-.171875-.253906-.257812-.253906l-.085938-.085937h52.652344c9.285156-.816407 17.921875 4.824218 20.90625 13.652343l2.476563 11.945313zm0 0" fill="#0377bc"/><path d="m315.734375 349.867188-25.597656 110.933593-34.132813 42.664063-34.136718-42.664063-25.597657-110.933593zm0 0" fill="#f5f5f5"/><path d="m251.820312 492.800781 3.328126 8.53125c-.105469-.097656-.191407-.210937-.253907-.339843-.097656-.234376-.210937-.464844-.34375-.683594-.105469-.328125-.25-.640625-.425781-.9375-.152344-.296875-.324219-.582032-.511719-.855469-.066406-.152344-.152343-.292969-.257812-.425781v-.085938c-.195313-.359375-.425781-.703125-.679688-1.023437-.167969-.332031-.371093-.644531-.597656-.9375-.257813-.425781-.597656-.9375-.855469-1.367188-.085937-.082031-.167968-.253906-.253906-.339843-2.894531-3.875-6.378906-7.273438-10.328125-10.070313-1.109375-.851563-2.300781-1.621094-3.496094-2.386719-3.714843-2.234375-7.628906-4.121094-11.691406-5.632812-1.335937-.585938-2.703125-1.101563-4.097656-1.535156-1.960938-.683594-4.007813-1.195313-5.972657-1.707032-1.960937-.511718-3.925781-.941406-5.800781-1.367187-.304687-.097657-.621093-.15625-.941406-.171875-1.277344-.253906-2.472656-.511719-3.753906-.679688-4.234375-.75-8.507813-1.261718-12.800781-1.539062-.707032-.097656-1.417969-.15625-2.132813-.167969-1.195313-.085937-2.304687-.171875-3.414063-.171875-1.449218-.085938-2.8125-.171875-4.179687-.171875-6.746094-.226563-13.5-.027344-20.222656.597656.328125-15.820312 6.394531-30.980469 17.066406-42.664062-10.84375-4.933594-23.292969-4.933594-34.132813 0v-.085938c0-2.5625.082032-5.035156.253907-7.425781v-.597656c.257812-2.472656.511719-4.949219.855469-7.25.167968-1.28125.339843-2.5625.597656-3.757813.339844-2.359375.824218-4.695312 1.449218-6.996093.253907-.851563.425782-1.792969.683594-2.644532.085938-.425781.253906-.769531.339844-1.195312.511719-1.792969 1.109375-3.585938 1.707031-5.289063.769531-2.136719 1.621094-4.269531 2.472657-6.230469.515624-1.28125 1.109374-2.5625 1.707031-3.753906.34375-.769531.769531-1.539062 1.109375-2.304687.597656-1.28125 1.28125-2.476563 1.878906-3.585938l.085938-.085937c1.363281-2.472656 2.816406-4.777344 4.265624-6.910156.769532-1.109376 1.449219-2.132813 2.132813-3.070313 2.464844-3.359375 5.144531-6.550781 8.023437-9.558594l1.195313-1.195312c.890625-.929688 1.828125-1.8125 2.8125-2.644531l.257813-.257813c.613281-.585937 1.269531-1.128906 1.960937-1.621094.085937-.167969.171875-.253906.257813-.253906l.085937-.085937h17.066406l6.65625 17.066406 3.328125 8.53125 11.007813 28.332031 28.671875 73.8125zm0 0" fill="#02a9f4"/><path d="m332.800781 426.667969c10.671875 11.683593 16.738281 26.84375 17.066407 42.664062-6.71875-.625-13.476563-.824219-20.222657-.597656-1.363281 0-2.730469.085937-4.179687.171875-6.152344.195312-12.285156.824219-18.347656 1.878906-1.28125.167969-2.476563.425782-3.753907.679688-.320312.015625-.636719.074218-.941406.171875-1.875.425781-3.839844.855469-5.800781 1.367187-1.964844.511719-4.011719 1.023438-5.972656 1.707032-1.394532.433593-2.761719.949218-4.097657 1.535156-4.0625 1.511718-7.976562 3.398437-11.691406 5.632812-1.191406.765625-2.386719 1.535156-3.496094 2.386719-3.949219 2.796875-7.433593 6.195313-10.328125 10.070313-.082031.085937-.167968.257812-.253906.339843-.257812.429688-.597656.855469-.855469 1.28125v.085938l-.082031.085937c-.449219.621094-.847656 1.277344-1.195312 1.960938-.230469.324218-.429688.664062-.597657 1.023437 0 .085938-.085937.171875-.085937.257813-.140625.148437-.257813.324218-.339844.511718-.085938.171876-.171875.253907-.171875.425782-.167969.359375-.367187.703125-.597656 1.023437l3.328125-8.53125v-.085937l5.886718-15.191406.085938-.082032 28.585938-73.644531 11.007812-28.332031 3.328125-8.53125 6.65625-17.066406h17.066406l.085938.085937c.085937 0 .171875.085937.257812.253906 1.535157 1.179688 2.992188 2.460938 4.351563 3.839844.21875.179687.417968.378906.597656.597656l1.277344 1.28125c.277344.265625.535156.550781.769531.851563.171875.085937.257813.257812.425781.429687 2.421875 2.636719 4.699219 5.398438 6.828125 8.277344.683594.9375 1.363281 1.960937 2.132813 3.070313.597656.851562 1.109375 1.707031 1.707031 2.644531.085937.085937.171875.257812.253906.34375.769531 1.277343 1.539063 2.558593 2.304688 3.921875l.085937.085937c.597656 1.109375 1.28125 2.304688 1.878906 3.585938.339844.765625.765626 1.535156 1.109376 2.304687.597656 1.191406 1.195312 2.472656 1.707031 3.753906 1.027343 2.285157 1.9375 4.621094 2.730469 6.996094.511718 1.453125.9375 2.988282 1.449218 4.523438.683594 2.558594 1.367188 5.121094 1.964844 7.851562.425781 2.132813.851562 4.4375 1.109375 6.742188.339844 2.300781.59375 4.777344.851563 7.25v.597656c.171874 2.476562.253906 4.949219.253906 7.511719-10.839844-4.933594-23.289063-4.933594-34.132813 0zm0 0" fill="#02a9f4"/><path d="m264.535156 503.464844h-17.917968c-16.984376-32-82.859376-25.769532-83.542969-25.683594-2.410157.332031-4.847657-.417969-6.65625-2.046875-1.789063-1.648437-2.808594-3.96875-2.816407-6.402344.105469-13.410156 4.011719-26.519531 11.265626-37.800781-5.457032-.296875-10.910157.636719-15.957032 2.730469-2.640625 1.355469-5.796875 1.234375-8.324218-.316407-2.527344-1.550781-4.0625-4.3125-4.050782-7.277343-.167968-17.789063 3.960938-35.351563 12.03125-51.203125 4.695313-9.378906 10.765625-18.007813 18.007813-25.597656h21.160156c-.015625 2.679687-1.277344 5.203124-3.414063 6.824218-6.398437 5.324219-11.878906 11.667969-16.210937 18.773438-7.582031 11.964844-12.3125 25.511718-13.824219 39.597656 9.769532-1.753906 19.839844-.351562 28.757813 4.007812 2.449219 1.214844 4.160156 3.535157 4.605469 6.230469.40625 2.710938-.480469 5.457031-2.386719 7.425781-6.933594 7.777344-11.675781 17.261719-13.738281 27.476563 18.972656-.910156 37.949218 1.695313 55.976562 7.679687h.085938c6.566406 2.3125 12.75 5.59375 18.347656 9.726563 3.773437 2.652344 7.160156 5.808594 10.070312 9.386719 1.535156 1.796875 2.933594 3.710937 4.179688 5.71875v.085937c.257812.511719.597656 1.023438.851562 1.535157.363282.539062.679688 1.109374.941406 1.707031.679688 1.363281 1.363282 2.816406 1.960938 4.265625.402344 1.003906.605469 2.078125.597656 3.15625zm0 0" fill="#2fa8cc"/><path d="m375.46875 426.667969c.015625 2.964843-1.519531 5.726562-4.050781 7.277343-2.527344 1.550782-5.683594 1.671876-8.324219.316407-5.039062-2.121094-10.496094-3.054688-15.957031-2.730469 7.242187 11.285156 11.148437 24.390625 11.265625 37.800781-.007813 2.410157-1.027344 4.703125-2.816406 6.316407-1.820313 1.617187-4.234376 2.390624-6.65625 2.132812-.683594-.085938-66.390626-6.828125-83.457032 25.683594h-18.003906c-.007812-1.078125.195312-2.152344.597656-3.15625.597656-1.449219 1.28125-2.902344 1.960938-4.265625.261718-.597657.578125-1.167969.941406-1.707031.25-.53125.535156-1.042969.851562-1.535157 1.246094-2.035156 2.644532-3.976562 4.183594-5.804687 2.90625-3.601563 6.292969-6.789063 10.066406-9.472656l.085938-.082032c5.625-4 11.769531-7.21875 18.261719-9.558594h.085937c18.007813-6.070312 37-8.675781 55.976563-7.679687-1.929688-10.261719-6.6875-19.777344-13.738281-27.476563-1.90625-1.96875-2.789063-4.714843-2.386719-7.425781.445312-2.695312 2.160156-5.015625 4.605469-6.230469 8.917968-4.359374 18.988281-5.761718 28.757812-4.007812-1.484375-14.078125-6.1875-27.625-13.738281-39.597656-4.40625-7.078125-9.90625-13.414063-16.296875-18.773438-2.136719-1.621094-3.398438-4.144531-3.414063-6.824218h21.160157c7.242187 7.589843 13.3125 16.21875 18.007812 25.597656 8.070312 15.851562 12.199219 33.414062 12.03125 51.203125zm0 0" fill="#2fa8cc"/><path d="m384.003906 110.933594v136.53125c.011719 15.847656-6.28125 31.046875-17.484375 42.253906-11.203125 11.203125-26.40625 17.492188-42.25 17.480469h-136.535156c-15.84375.011719-31.042969-6.277344-42.25-17.480469-11.203125-11.207031-17.492187-26.40625-17.480469-42.253906v-136.53125zm0 0" fill="#fec108"/><path d="m358.402344 110.933594v136.53125c0 33.027344-21.367188 59.734375-47.785156 59.734375h-109.226563c-26.421875 0-47.789063-26.707031-47.789063-59.734375v-136.53125zm0 0" fill="#ffdc00"/><path d="m392.023438 116.652344v-.085938c-3.015626-20.097656.117187-40.640625 8.984374-58.925781 1.957032-4.207031 2.109376-9.035156.421876-13.359375-1.691407-4.320312-5.074219-7.765625-9.371094-9.527344-43.542969-16.371094-89.546875-25.238281-136.054688-26.21875-46.511718.980469-92.515625 9.847656-136.058594 26.21875-4.296874 1.761719-7.679687 5.207032-9.371093 9.527344-1.6875 4.324219-1.535157 9.152344.421875 13.359375 8.867187 18.285156 12 38.828125 8.984375 58.925781v.085938zm0 0" fill="#c81e1e"/><path d="m256.003906 119.464844c51.199219 0 51.199219 8.535156 102.398438 25.601562 51.199218 17.066406 59.734375-8.53125 59.734375-8.53125-42.667969-42.667968-119.46875-51.203125-162.132813-51.203125-42.667968 0-119.46875 8.535157-162.136718 51.203125 0 0 8.535156 25.597656 59.734374 8.53125 51.199219-17.066406 51.199219-25.601562 102.402344-25.601562zm0 0" fill="#f44335"/><path d="m315.734375 349.867188-20.992187 53.929687c-22.289063 19.113281-55.191407 19.113281-77.480469 0l-20.992188-53.929687zm0 0" fill="#f5f5f5"/><path d="m296.34375 251.734375c-6.894531 13.492187-28.417969 15.398437-40.171875 15.398437-11.78125 0-33.273437-1.90625-40.167969-15.398437 13.144532 3.238281 26.628906 4.925781 40.167969 5.035156 13.542969-.105469 27.023437-1.796875 40.171875-5.035156zm0 0"/><path d="m233.652344 162.890625c-8.109375-2.980469-16.628906-4.707031-25.257813-5.117187-11.605469-.878907-23.214843 1.597656-33.453125 7.132812 1.167969-14.933594 35.789063-17.886719 52.714844-14.046875 2.683594.335937 5.019531 1.988281 6.222656 4.410156 1.207032 2.417969 1.121094 5.28125-.226562 7.621094zm0 0"/><path d="m230.402344 189.28125c0-10.105469-7.640625-18.292969-17.066406-18.292969-9.425782 0-17.066407 8.1875-17.066407 18.292969 0 10.101562 7.640625 18.289062 17.066407 18.289062 9.425781 0 17.066406-8.1875 17.066406-18.289062zm0 0"/><path d="m218.121094 173.40625c-4.40625-1.675781-9.335938.539062-11.011719 4.941406-1.675781 4.40625.539063 9.335938 4.945313 11.011719 4.402343 1.675781 9.332031-.539063 11.007812-4.941406 1.675781-4.40625-.539062-9.335938-4.941406-11.011719zm0 0" fill="#fff"/><path d="m278.351562 162.890625c8.109376-2.980469 16.628907-4.707031 25.261719-5.117187 11.601563-.878907 23.210938 1.597656 33.449219 7.132812-1.167969-14.933594-35.789062-17.886719-52.714844-14.046875-2.683594.335937-5.019531 1.988281-6.222656 4.410156-1.207031 2.417969-1.121094 5.28125.226562 7.621094zm0 0"/><path d="m315.734375 189.28125c0-10.105469-7.640625-18.292969-17.066406-18.292969s-17.066407 8.1875-17.066407 18.292969c0 10.101562 7.640626 18.289062 17.066407 18.289062s17.066406-8.1875 17.066406-18.289062zm0 0"/><path d="m304.894531 178.347656c-1.675781-4.402344-6.605469-6.617187-11.011719-4.941406-4.402343 1.675781-6.617187 6.605469-4.941406 11.011719 1.675782 4.402343 6.605469 6.617187 11.011719 4.941406 4.402344-1.675781 6.617187-6.605469 4.941406-11.011719zm0 0" fill="#fff"/><path d="m435.203125 512h-358.402344c-2.5625 0-4.996093-1.152344-6.613281-3.144531-1.621094-1.988281-2.261719-4.601563-1.742188-7.113281l28.90625-139.921876c3.726563-12.84375 15.886719-21.367187 29.230469-20.488281h258.890625c13.363282-.875 25.53125 7.667969 29.242188 20.535157l28.84375 139.875c.515625 2.511718-.121094 5.125-1.742188 7.113281s-4.050781 3.144531-6.613281 3.144531zm-347.925781-17.066406h337.453125l-26.742188-129.664063c-2.261719-4.738281-7.300781-7.507812-12.515625-6.871093h-258.890625c-5.199219-.632813-10.226562 2.113281-12.503906 6.828124zm0 0"/><path d="m324.269531 358.398438h-136.535156c-4.710937 0-8.53125-3.820313-8.53125-8.53125v-42.667969c0-4.710938 3.820313-8.53125 8.53125-8.53125h136.535156c4.710938 0 8.53125 3.820312 8.53125 8.53125v42.667969c0 4.710937-3.820312 8.53125-8.53125 8.53125zm-128-17.066407h119.464844v-25.597656h-119.464844zm0 0"/><path d="m324.269531 315.734375h-136.535156c-37.683594-.042969-68.222656-30.582031-68.265625-68.269531v-96.765625c0-4.714844 3.820312-8.535157 8.535156-8.535157 4.710938 0 8.53125 3.820313 8.53125 8.535157v96.765625c.03125 28.265625 22.9375 51.171875 51.199219 51.203125h136.535156c28.261719-.03125 51.167969-22.9375 51.199219-51.203125v-96.765625c0-4.714844 3.820312-8.535157 8.535156-8.535157 4.710938 0 8.53125 3.820313 8.53125 8.535157v96.765625c-.042968 37.6875-30.582031 68.226562-68.265625 68.269531zm0 0"/><path d="m102.402344 512h-93.867188c-4.710937 0-8.53124975-3.820312-8.53124975-8.535156v-7.59375c-.01171875-11.617188 1.39062475-23.199219 4.17187475-34.480469l7.9375-32.160156c10.019531-37.453125 44.359375-63.191407 83.121094-62.296875h8.019531c4.714844 0 8.535156 3.820312 8.535156 8.53125 0 4.714844-3.820312 8.535156-8.535156 8.535156h-8.019531c-30.898437-.875-58.386719 19.496094-66.550781 49.308594l-7.9375 32.183594c-2.378906 9.636718-3.613282 19.515624-3.671875 29.441406h85.328125c4.710937 0 8.53125 3.820312 8.53125 8.53125 0 4.714844-3.820313 8.535156-8.53125 8.535156zm0 0"/><path d="m503.46875 512h-93.867188c-4.710937 0-8.53125-3.820312-8.53125-8.535156 0-4.710938 3.820313-8.53125 8.53125-8.53125h85.332032c-.058594-9.921875-1.289063-19.800782-3.667969-29.433594l-7.933594-32.179688c-8.160156-29.820312-35.65625-50.195312-66.5625-49.320312h-7.933593c-4.714844 0-8.535157-3.820312-8.535157-8.535156 0-4.710938 3.820313-8.53125 8.535157-8.53125h7.933593c38.765625-.894532 73.109375 24.851562 83.125 62.308594l7.9375 32.15625c2.78125 11.28125 4.183594 22.855468 4.171875 34.472656v7.59375c0 4.714844-3.820312 8.535156-8.535156 8.535156zm0 0"/><path d="m392.023438 125.140625c-4.355469.015625-8.019532-3.261719-8.488282-7.59375-3.191406-21.675781.203125-43.808594 9.746094-63.527344.96875-2.089843 1.042969-4.484375.203125-6.628906-.835937-2.148437-2.511719-3.859375-4.640625-4.738281-42.535156-15.902344-87.441406-24.550782-132.839844-25.585938-45.402344 1.039063-90.308594 9.6875-132.847656 25.585938-2.125.882812-3.800781 2.597656-4.636719 4.742187-.835937 2.144531-.761719 4.539063.207031 6.625 9.582032 19.804688 12.960938 42.039063 9.695313 63.796875-.648437 4.410156-4.582031 7.574219-9.027344 7.269532-4.445312-.304688-7.90625-3.980469-7.945312-8.433594-.003907-.5.035156-.996094.113281-1.488282 2.730469-18.390624-.160156-37.179687-8.289062-53.902343-2.957032-6.324219-3.191407-13.585938-.648438-20.089844s7.640625-11.683594 14.101562-14.324219c44.546876-16.863281 91.65625-25.941406 139.277344-26.847656 47.617188.902344 94.726563 9.984375 139.269532 26.847656 6.460937 2.640625 11.558593 7.820313 14.101562 14.324219 2.546875 6.5 2.3125 13.761719-.640625 20.089844-8.132813 16.71875-11.027344 35.507812-8.292969 53.902343.078125.460938.117188.933594.113282 1.402344.003906 4.722656-3.8125 8.554688-8.53125 8.574219zm0 0"/><path d="m389.378906 159.480469c-11.488281-.304688-22.855468-2.4375-33.675781-6.316407-15.242187-5.078124-26.125-9.460937-34.871094-12.976562-20.261719-9.386719-42.542969-13.578125-64.828125-12.1875-22.289062-1.390625-44.570312 2.796875-64.832031 12.183594-8.746094 3.515625-19.625 7.898437-34.871094 12.980468-23.457031 7.8125-42.152343 8.378907-55.582031 1.667969-6.789062-3.105469-12.132812-8.683593-14.945312-15.597656-1.023438-3.066406-.222657-6.449219 2.0625-8.734375 49.824218-49.828125 141.3125-53.699219 168.167968-53.699219 26.851563 0 118.339844 3.871094 168.164063 53.699219 2.285156 2.285156 3.085937 5.667969 2.0625 8.734375-2.8125 6.914063-8.15625 12.492187-14.945313 15.597656-6.839844 3.238281-14.34375 4.828125-21.90625 4.648438zm-284.269531-21.789063c5.90625 4.617188 19.773437 7.953125 45.792969-.71875 14.75-4.917968 25.367187-9.1875 33.898437-12.621094 22.289063-10.199218 46.730469-14.804687 71.203125-13.417968 24.46875-1.386719 48.910156 3.21875 71.199219 13.417968 8.53125 3.433594 19.148437 7.703126 33.898437 12.621094 25.878907 8.628906 39.734376 5.371094 45.738282.679688-46.285156-40.53125-126.59375-43.785156-150.835938-43.785156-24.261718 0-104.613281 3.257812-150.894531 43.824218zm0 0"/><path d="m256.003906 512c-3.523437 0-6.679687-2.160156-7.957031-5.441406l-59.730469-153.601563c-1.105468-2.839843-.609375-6.054687 1.296875-8.433593 1.910157-2.375 4.941407-3.554688 7.957031-3.089844 3.011719.464844 5.546876 2.5 6.652344 5.339844l51.78125 133.152343 51.777344-133.152343c1.707031-4.390626 6.652344-6.566407 11.046875-4.859376 4.390625 1.707032 6.570313 6.652344 4.859375 11.042969l-59.730469 153.601563c-1.277343 3.28125-4.433593 5.441406-7.953125 5.441406zm0 0"/><path d="m256.007812 512.003906c-3.492187 0-6.632812-2.125-7.929687-5.367187-14.25-35.636719-84.28125-28.898438-85-28.824219-2.414063.269531-4.824219-.503906-6.632813-2.121094-1.808593-1.621094-2.84375-3.929687-2.84375-6.359375.140626-13.417969 4.042969-26.527343 11.265626-37.839843-5.472657-.316407-10.945313.644531-15.980469 2.808593-2.644531 1.324219-5.789063 1.183594-8.304688-.375-2.515625-1.554687-4.046875-4.300781-4.046875-7.257812-.671875-32.097657 13.113282-62.800781 37.546875-83.628907 3.769531-2.75 9.046875-1.96875 11.851563 1.761719 2.804687 3.730469 2.097656 9.019531-1.59375 11.875-17.164063 14.875-27.945313 35.789063-30.09375 58.402344 9.765625-1.789063 19.851562-.402344 28.773437 3.953125 2.453125 1.226562 4.167969 3.558594 4.609375 6.265625.4375 2.707031-.449218 5.460937-2.390625 7.402344-6.925781 7.777343-11.65625 17.261719-13.703125 27.476562 23.027344-.769531 77.027344 1.714844 92.394532 40.117188 1.050781 2.628906.730468 5.609375-.855469 7.953125-1.585938 2.34375-4.234375 3.75-7.0625 3.753906zm0 0"/><path d="m256.003906 512.003906c-2.832031-.003906-5.480468-1.410156-7.066406-3.753906-1.585938-2.347656-1.90625-5.324219-.855469-7.953125 15.367188-38.410156 69.4375-40.914063 92.414063-40.113281-1.988282-10.238282-6.734375-19.742188-13.726563-27.484375-1.941406-1.9375-2.828125-4.691407-2.390625-7.402344.441406-2.707031 2.15625-5.035156 4.609375-6.261719 8.921875-4.359375 19.007813-5.746094 28.773438-3.957031-2.148438-22.613281-12.929688-43.53125-30.101563-58.402344-3.726562-2.847656-4.453125-8.164062-1.636718-11.910156 2.820312-3.746094 8.132812-4.515625 11.898437-1.726563 24.433594 20.828126 38.21875 51.53125 37.546875 83.628907 0 2.957031-1.53125 5.703125-4.046875 7.257812-2.515625 1.554688-5.65625 1.695313-8.304687.375-5.035157-2.15625-10.503907-3.113281-15.972657-2.804687 7.214844 11.3125 11.117188 24.421875 11.257813 37.835937-.003906 2.425781-1.035156 4.738281-2.84375 6.355469-1.804688 1.621094-4.21875 2.394531-6.628906 2.128906-.691407-.085937-70.566407-7.292968-85.003907 28.820313-1.300781 3.238281-4.433593 5.363281-7.921875 5.367187zm0 0"/><path d="m256.003906 426.667969c-16.257812.007812-31.980468-5.8125-44.308594-16.40625-2.359374-1.976563-3.472656-5.066407-2.914062-8.089844.558594-3.027344 2.703125-5.515625 5.613281-6.519531 2.90625-1 6.128907-.359375 8.433594 1.675781 19.089844 16.363281 47.257813 16.363281 66.347656 0 2.304688-2.035156 5.527344-2.675781 8.4375-1.675781 2.90625 1.003906 5.050781 3.492187 5.609375 6.519531.558594 3.023437-.554687 6.113281-2.910156 8.089844-12.332031 10.59375-28.054688 16.414062-44.308594 16.40625zm0 0"/></svg>