<svg height="512pt" viewBox="0 0 512.00015 512" width="512pt" xmlns="http://www.w3.org/2000/svg"><path d="m187.734375 290.132812h136.53125v76.800782h-136.53125zm0 0" fill="#c81e1e"/><path d="m503.464844 495.871094.003906 7.59375h-494.933594v-7.59375c-.015625-10.925782 1.300782-21.816406 3.921875-32.425782l7.9375-32.171874c9.203125-33.554688 40.046875-56.558594 74.835938-55.808594h321.539062c34.789063-.75 65.632813 22.253906 74.835938 55.808594l7.9375 32.171874c2.621093 10.609376 3.9375 21.5 3.921875 32.425782zm0 0" fill="#c81e1e"/><path d="m435.199219 503.464844h-358.398438l26.453125-128 2.472656-11.945313c2.945313-8.820312 11.558594-14.46875 20.824219-13.652343h258.898438c9.285156-.816407 17.921875 4.824218 20.90625 13.652343l2.476562 11.945313zm0 0" fill="#f44335"/><path d="m238.933594 8.535156h34.132812c75.40625 0 136.535156 61.125 136.535156 136.53125v76.800782c0 22.632812-8.992187 44.335937-24.996093 60.339843-16.003907 16.003907-37.707031 24.992188-60.339844 24.992188h-136.53125c-47.128906 0-85.335937-38.203125-85.335937-85.332031v-76.800782c0-75.40625 61.128906-136.53125 136.535156-136.53125zm0 0" fill="#c81e1e"/><path d="m304 307.199219h-96c-44.183594 0-80-38.203125-80-85.332031v-76.800782c0-75.40625 57.308594-136.53125 128-136.53125s128 61.125 128 136.53125v76.800782c0 47.128906-35.816406 85.332031-80 85.332031zm0 0" fill="#f44335"/><path d="m187.734375 110.933594h136.53125c23.566406 0 42.667969 19.101562 42.667969 42.667968v34.132813c0 42.414063-34.382813 76.800781-76.800782 76.800781h-68.265624c-42.414063 0-76.800782-34.386718-76.800782-76.800781v-34.132813c0-23.566406 19.101563-42.667968 42.667969-42.667968zm0 0" fill="#00838f"/><path d="m213.332031 110.933594h85.335938c23.5625 0 42.664062 19.101562 42.664062 42.667968v34.132813c0 20.367187-8.089843 39.902344-22.492187 54.304687-14.402344 14.402344-33.9375 22.496094-54.304688 22.496094h-17.070312c-42.414063 0-76.796875-34.386718-76.796875-76.800781v-34.132813c0-23.566406 19.101562-42.667968 42.664062-42.667968zm0 0" fill="#00bcd4"/><path d="m264.535156 392.535156v110.929688h-17.070312v-110.929688c0-4.714844 3.824218-8.535156 8.535156-8.535156 4.714844 0 8.535156 3.820312 8.535156 8.535156zm0 0" fill="#802f34"/><path d="m187.734375 349.867188h136.53125c0 23.5625-19.101563 42.667968-42.664063 42.667968h-51.203124c-23.5625 0-42.664063-19.105468-42.664063-42.667968zm0 0" fill="#f44335"/><path d="m366.933594 443.734375c0 9.425781-7.640625 17.066406-17.066406 17.066406-9.425782 0-17.066407-7.640625-17.066407-17.066406s7.640625-17.066406 17.066407-17.066406c9.425781 0 17.066406 7.640625 17.066406 17.066406zm0 0" fill="#00bcd4"/><path d="m435.199219 512h-358.398438c-2.566406 0-4.996093-1.152344-6.617187-3.144531-1.621094-1.988281-2.261719-4.601563-1.742188-7.113281l28.910156-139.921876c3.722657-12.84375 15.882813-21.367187 29.226563-20.488281h258.894531c13.359375-.875 25.527344 7.667969 29.238282 20.535157l28.84375 139.875c.519531 2.511718-.121094 5.125-1.742188 7.113281-1.617188 1.988281-4.046875 3.144531-6.613281 3.144531zm-347.925781-17.066406h337.457031l-26.742188-129.664063c-2.261719-4.738281-7.300781-7.507812-12.515625-6.871093h-258.894531c-5.199219-.632813-10.226563 2.113281-12.503906 6.828124zm0 0"/><path d="m324.265625 358.398438h-136.53125c-4.714844 0-8.535156-3.820313-8.535156-8.53125v-42.667969c0-4.710938 3.820312-8.53125 8.535156-8.53125h136.53125c4.714844 0 8.535156 3.820312 8.535156 8.53125v42.667969c0 4.710937-3.820312 8.53125-8.535156 8.53125zm-128-17.066407h119.46875v-25.597656h-119.46875zm0 0"/><path d="m102.398438 512h-93.863282c-4.714844 0-8.535156-3.820312-8.535156-8.535156v-7.59375c-.0117188-11.617188 1.390625-23.195313 4.175781-34.480469l7.9375-32.160156c10.019531-37.453125 44.359375-63.191407 83.117188-62.296875h8.023437c4.710938 0 8.53125 3.820312 8.53125 8.53125 0 4.714844-3.820312 8.535156-8.53125 8.535156h-8.023437c-30.898438-.875-58.386719 19.496094-66.550781 49.308594l-7.9375 32.183594c-2.378907 9.636718-3.609376 19.519531-3.667969 29.441406h85.324219c4.714843 0 8.535156 3.820312 8.535156 8.53125 0 4.714844-3.820313 8.535156-8.535156 8.535156zm0 0"/><path d="m503.464844 512h-93.863282c-4.714843 0-8.535156-3.820312-8.535156-8.535156 0-4.710938 3.820313-8.53125 8.535156-8.53125h85.332032c-.058594-9.921875-1.289063-19.800782-3.667969-29.433594l-7.9375-32.179688c-8.160156-29.820312-35.65625-50.195312-66.558594-49.320312h-7.9375c-4.710937 0-8.535156-3.820312-8.535156-8.535156 0-4.710938 3.824219-8.53125 8.535156-8.53125h7.9375c38.761719-.894532 73.105469 24.851562 83.125 62.308594l7.933594 32.15625c2.785156 11.28125 4.183594 22.855468 4.171875 34.472656v7.59375c0 4.714844-3.820312 8.535156-8.535156 8.535156zm0 0"/><path d="m324.265625 315.734375h-136.53125c-51.816406-.058594-93.808594-42.050781-93.867187-93.867187v-76.800782c.089843-80.082031 64.984374-144.9765622 145.066406-145.066406h34.132812c80.082032.0898438 144.976563 64.984375 145.066406 145.066406v76.800782c-.058593 51.816406-42.050781 93.808593-93.867187 93.867187zm-85.332031-298.667969c-70.660156.082032-127.921875 57.339844-128 128v76.800782c.046875 42.394531 34.402344 76.753906 76.800781 76.800781h136.53125c42.398437-.046875 76.753906-34.40625 76.800781-76.800781v-76.800782c-.078125-70.660156-57.339844-127.917968-128-128zm0 0"/><path d="m162.671875 85.332031c-3.367187 0-6.417969-1.980469-7.789063-5.054687-1.371093-3.074219-.808593-6.667969 1.4375-9.171875 21.042969-23.492188 51.078126-36.933594 82.613282-36.972657h34.132812c4.714844 0 8.535156 3.820313 8.535156 8.535157 0 4.710937-3.820312 8.53125-8.535156 8.53125h-34.132812c-26.6875.039062-52.101563 11.417969-69.90625 31.296875-1.617188 1.808594-3.929688 2.839844-6.355469 2.835937zm0 0"/><path d="m290.132812 273.066406h-68.265624c-47.105469-.050781-85.28125-38.226562-85.332032-85.332031v-34.132813c.027344-28.265624 22.933594-51.171874 51.199219-51.203124h136.53125c28.265625.03125 51.171875 22.9375 51.199219 51.203124v34.132813c-.050782 47.105469-38.226563 85.28125-85.332032 85.332031zm-102.398437-153.601562c-18.84375.023437-34.113281 15.292968-34.132813 34.136718v34.132813c.042969 37.683594 30.582032 68.222656 68.265626 68.265625h68.265624c37.683594-.042969 68.222657-30.582031 68.265626-68.265625v-34.132813c-.019532-18.84375-15.289063-34.113281-34.132813-34.136718zm0 0"/><path d="m179.199219 170.667969c-3.449219-.003907-6.5625-2.082031-7.882813-5.269531-1.320312-3.1875-.589844-6.859376 1.851563-9.296876l17.066406-17.066406c3.347656-3.234375 8.667969-3.1875 11.960937.101563 3.292969 3.292969 3.339844 8.613281.105469 11.964843l-17.066406 17.066407c-1.597656 1.601562-3.769531 2.5-6.035156 2.5zm0 0"/><path d="m187.734375 204.800781c-3.453125 0-6.5625-2.082031-7.882813-5.269531-1.320312-3.1875-.589843-6.855469 1.847657-9.296875l51.199219-51.199219c3.351562-3.234375 8.671874-3.1875 11.964843.101563 3.289063 3.292969 3.335938 8.613281.101563 11.964843l-51.199219 51.199219c-1.597656 1.601563-3.769531 2.5-6.03125 2.5zm0 0"/><path d="m256 512c-4.710938 0-8.535156-3.820312-8.535156-8.535156v-110.929688c0-4.714844 3.824218-8.535156 8.535156-8.535156 4.714844 0 8.535156 3.820312 8.535156 8.535156v110.929688c0 4.714844-3.820312 8.535156-8.535156 8.535156zm0 0"/><path d="m281.601562 401.066406h-51.203124c-28.261719-.03125-51.167969-22.9375-51.199219-51.199218 0-4.714844 3.820312-8.535157 8.535156-8.535157h136.53125c4.714844 0 8.535156 3.820313 8.535156 8.535157-.03125 28.261718-22.9375 51.167968-51.199219 51.199218zm-84.253906-42.667968c3.910156 15.058593 17.492188 25.582031 33.050782 25.601562h51.203124c15.558594-.019531 29.140626-10.542969 33.050782-25.601562zm0 0"/><path d="m204.800781 452.265625h-59.734375c-4.710937 0-8.53125-3.820313-8.53125-8.53125 0-4.714844 3.820313-8.535156 8.53125-8.535156h59.734375c4.710938 0 8.53125 3.820312 8.53125 8.535156 0 4.710937-3.820312 8.53125-8.53125 8.53125zm0 0"/><path d="m349.867188 469.332031c-14.140626 0-25.601563-11.460937-25.601563-25.597656 0-14.140625 11.460937-25.601563 25.601563-25.601563 14.136718 0 25.597656 11.460938 25.597656 25.601563-.011719 14.132813-11.464844 25.582031-25.597656 25.597656zm0-34.132812c-4.714844 0-8.535157 3.820312-8.535157 8.535156 0 4.710937 3.820313 8.53125 8.535157 8.53125 4.710937 0 8.53125-3.820313 8.53125-8.53125-.003907-4.710937-3.820313-8.527344-8.53125-8.535156zm0 0"/></svg>