<svg height="512pt" viewBox="0 0 512 512.00427" width="512pt" xmlns="http://www.w3.org/2000/svg"><path d="m102.402344 136.535156h307.199218v281.597656h-307.199218zm0 0" fill="#6a1b9a"/><path d="m435.203125 170.667969v221.867187l-49.75-27.734375c7.984375-34.769531 7.046875-70.992187-2.730469-105.300781-3.753906-12.035156-8.960937-7.421875-15.789062-14.246094-24.828125-24.832031-17.578125-70.402344-26.023438-101.546875-10.070312-37.375-46.082031-34.046875-76.375-26.453125-26.195312 6.570313-51.199218-17.066406-76.800781 0-25.597656 17.066406 0 59.734375-51.199219 128-3.328125 4.4375-6.144531-5.46875-8.53125-.175781-21.164062 46.589844-8.535156 119.722656-8.535156 119.722656l-42.667969 27.734375v-221.867187c.023438-89.535157 72.597657-162.113281 162.132813-162.132813h34.136718c89.535157.019532 162.109376 72.597656 162.132813 162.132813zm0 0" fill="#9d27b0"/><path d="m187.734375 290.132812h136.535156v76.800782h-136.535156zm0 0" fill="#fec108"/><path d="m382.722656 259.5c-5.636718 27.792969-30.09375 47.753906-58.453125 47.699219h-136.535156c-15.84375.011719-31.042969-6.277344-42.25-17.480469-11.203125-11.207031-17.492187-26.40625-17.480469-42.253906v-2.386719c2.296875-5.191406 5.160156-10.113281 8.53125-14.679687 51.199219-68.265626 25.601563-110.933594 51.199219-128 25.601563-17.066407 50.605469 6.570312 76.800781 0 30.292969-7.59375 66.304688-10.921876 76.375 26.453124 8.445313 31.148438 1.195313 76.714844 26.023438 101.546876 7.480468 8.324218 12.886718 18.292968 15.789062 29.101562zm0 0" fill="#fec108"/><path d="m349.867188 259.5c-4.050782 27.304688-21.972657 47.699219-43.375 47.699219h-101.3125c-24.503907 0-44.324219-26.707031-44.324219-59.734375v-2.386719c1.65625-5.078125 3.777343-9.988281 6.332031-14.679687 37.992188-68.265626 18.996094-110.933594 37.992188-128 18.996093-17.066407 37.546874 6.570312 56.988281 0 22.480469-7.59375 49.203125-10.921876 56.671875 26.453124 6.269531 31.148438.886718 76.714844 19.316406 101.546876 5.765625 8.84375 9.746094 18.730468 11.710938 29.101562zm0 0" fill="#ffdc00"/><path d="m503.46875 495.871094v7.59375h-494.933594v-7.59375c-.015625-10.925782 1.304688-21.816406 3.925782-32.425782l7.9375-32.171874c9.203124-33.554688 40.046874-56.558594 74.835937-55.808594h321.535156c34.789063-.75 65.632813 22.253906 74.839844 55.808594l7.933594 32.171874c2.621093 10.609376 3.941406 21.5 3.925781 32.425782zm0 0" fill="#e91e63"/><path d="m366.933594 349.867188-18.152344 44.941406c-19.765625 12.855468-49.3125 23.324218-92.777344 23.324218-43.46875 0-73.015625-10.46875-92.78125-23.324218h-.101562l-18.050782-44.941406zm0 0" fill="#ffdc00"/><path d="m187.734375 503.464844v-48.636719c.019531-3.882813-.4375-7.753906-1.363281-11.519531-.695313-3.332032-1.78125-6.570313-3.242188-9.644532l-5.632812-50.089843c24.175781 12.628906 51.253906 18.664062 78.507812 17.492187 27.25 1.171875 54.328125-4.863281 78.503906-17.492187l-5.632812 50.089843c-1.457031 3.074219-2.546875 6.3125-3.242188 9.644532-.925781 3.765625-1.382812 7.636718-1.363281 11.519531v48.636719zm0 0" fill="#02a9f4"/><path d="m204.800781 454.828125.003907 48.636719h-128.003907l25.601563-123.816406.851562-4.183594 2.476563-11.945313c.417969-1.960937 1.230469-3.820312 2.390625-5.460937l2.8125.339844 10.667968 17.066406 12.460938 19.96875c5.292969 8.460937 11.789062 16.109375 19.285156 22.699218.597656.511719 1.109375.9375 1.621094 1.367188 2.132812 1.789062 4.351562 3.496094 6.65625 5.117188v.085937c2.511719 1.808594 5.132812 3.460937 7.847656 4.949219 6.027344 3.527344 12.40625 6.414062 19.03125 8.621094l14.933594 5.035156c.925781 3.765625 1.382812 7.636718 1.363281 11.519531zm0 0" fill="#ad1457"/><path d="m435.203125 503.464844h-128v-48.636719c-.019531-3.882813.4375-7.753906 1.363281-11.519531l14.933594-5.035156c6.625-2.207032 13.003906-5.09375 19.03125-8.621094 2.714844-1.488282 5.335938-3.140625 7.851562-4.949219v-.085937c2.300782-1.621094 4.519532-3.328126 6.738282-5.203126l1.535156-1.28125c7.496094-6.589843 13.992188-14.238281 19.289062-22.699218l12.457032-19.96875 10.667968-17.066406 2.386719-.9375c1.453125 1.75 2.449219 3.832031 2.902344 6.058593l2.476563 11.945313.765624 3.757812zm0 0" fill="#ad1457"/><g fill="#e91e63"><path d="m203.4375 443.308594-14.933594-5.035156c-9.574218-3.1875-18.628906-7.757813-26.878906-13.570313v-.085937c-11.046875-7.789063-20.417969-17.710938-27.5625-29.183594l-23.128906-37.035156-2.8125-.339844c4.554687-5.421875 11.351562-8.445313 18.429687-8.191406h35.585938l15.273437 33.707031h.085938l22.699218 50.089843c1.460938 3.074219 2.546876 6.3125 3.242188 9.644532zm0 0"/><path d="m403.457031 357.460938-2.386719.9375-23.125 37.035156c-7.148437 11.472656-16.519531 21.394531-27.5625 29.183594v.085937c-8.25 5.8125-17.308593 10.382813-26.882812 13.570313l-14.933594 5.035156c.695313-3.332032 1.78125-6.570313 3.242188-9.644532l22.699218-50.089843 15.359376-33.707031h35.585937c6-.117188 11.832031 1.976562 16.382813 5.886718.585937.527344 1.125 1.097656 1.621093 1.707032zm0 0"/><path d="m307.203125 503.464844h-102.402344c0-28.273438 22.925781-51.199219 51.203125-51.199219 28.273438 0 51.199219 22.925781 51.199219 51.199219zm0 0"/></g><path d="m296.34375 256c-6.894531 13.492188-28.417969 15.402344-40.171875 15.402344-11.78125 0-33.273437-1.910156-40.167969-15.402344 13.144532 3.238281 26.628906 4.929688 40.167969 5.035156 13.542969-.105468 27.023437-1.796875 40.171875-5.035156zm0 0"/><path d="m233.652344 162.890625c-8.109375-2.980469-16.628906-4.707031-25.257813-5.117187-11.605469-.878907-23.214843 1.597656-33.453125 7.132812 1.167969-14.933594 35.789063-17.886719 52.714844-14.046875 2.683594.335937 5.019531 1.988281 6.222656 4.410156 1.207032 2.417969 1.121094 5.28125-.226562 7.621094zm0 0"/><path d="m278.351562 162.890625c8.109376-2.980469 16.628907-4.707031 25.261719-5.117187 11.601563-.878907 23.210938 1.597656 33.449219 7.132812-1.167969-14.933594-35.789062-17.886719-52.714844-14.046875-2.683594.335937-5.019531 1.988281-6.222656 4.410156-1.207031 2.417969-1.121094 5.28125.226562 7.621094zm0 0"/><path d="m186.535156 176.964844s2.429688 10.902344 11.832032 8.777344c9.398437-2.125 11.191406 1.957031 19.292968 1.304687 2.769532-.1875 5.554688-.019531 8.28125.507813 1.933594.449218 3.945313.480468 5.894532.09375 2.699218-.722657 2.46875-3.855469 1.523437-5.894532-3.75-8.082031-14.292969-8.671875-22.011719-7.773437-3.269531.886719-6.597656 1.558593-9.957031 2.007812-3.519531-.976562-6.804687-2.664062-9.644531-4.957031.617187 2.191406.765625 4.488281.433594 6.742188-.976563 1.851562-5.644532-.808594-5.644532-.808594zm0 0"/><path d="m230.402344 193.546875c0-10.101563-7.640625-18.292969-17.066406-18.292969-9.425782 0-17.066407 8.191406-17.066407 18.292969s7.640625 18.292969 17.066407 18.292969c9.425781 0 17.066406-8.191406 17.066406-18.292969zm0 0"/><path d="m218.121094 177.671875c-4.40625-1.671875-9.335938.539063-11.011719 4.945313-1.675781 4.402343.539063 9.332031 4.945313 11.007812 4.402343 1.675781 9.332031-.535156 11.007812-4.941406s-.539062-9.335938-4.941406-11.011719zm0 0" fill="#fff"/><path d="m325.464844 176.964844s-2.429688 10.902344-11.832032 8.777344c-9.402343-2.125-11.191406 1.957031-19.292968 1.304687-2.769532-.1875-5.554688-.019531-8.28125.507813-1.9375.449218-3.945313.480468-5.898438.09375-2.699218-.722657-2.464844-3.855469-1.519531-5.894532 3.75-8.082031 14.292969-8.671875 22.011719-7.773437 3.269531.886719 6.597656 1.558593 9.957031 2.007812 3.519531-.976562 6.804687-2.664062 9.644531-4.957031-.617187 2.191406-.765625 4.488281-.433594 6.742188.976563 1.851562 5.644532-.808594 5.644532-.808594zm0 0"/><path d="m315.734375 193.546875c0-10.101563-7.640625-18.292969-17.066406-18.292969s-17.066407 8.191406-17.066407 18.292969 7.640626 18.292969 17.066407 18.292969 17.066406-8.191406 17.066406-18.292969zm0 0"/><path d="m304.890625 182.617188c-1.675781-4.40625-6.605469-6.617188-11.007813-4.945313-4.40625 1.675781-6.621093 6.605469-4.945312 11.011719s6.605469 6.617187 11.011719 4.941406c4.402343-1.675781 6.617187-6.605469 4.941406-11.007812zm0 0" fill="#fff"/><path d="m435.203125 512h-358.402344c-2.5625 0-4.996093-1.152344-6.613281-3.144531-1.621094-1.988281-2.261719-4.601563-1.742188-7.113281l28.90625-139.921876c3.726563-12.84375 15.886719-21.367187 29.230469-20.488281h258.890625c13.363282-.875 25.53125 7.667969 29.242188 20.535157l28.84375 139.875c.515625 2.511718-.121094 5.125-1.742188 7.113281s-4.050781 3.144531-6.613281 3.144531zm-347.925781-17.066406h337.453125l-26.742188-129.664063c-2.261719-4.738281-7.300781-7.507812-12.515625-6.871093h-258.890625c-5.199219-.632813-10.226562 2.113281-12.503906 6.828124zm0 0"/><path d="m324.269531 358.398438h-136.535156c-4.710937 0-8.53125-3.820313-8.53125-8.53125v-42.667969c0-4.710938 3.820313-8.53125 8.53125-8.53125h136.535156c4.710938 0 8.53125 3.820312 8.53125 8.53125v42.667969c0 4.710937-3.820312 8.53125-8.53125 8.53125zm-128-17.066407h119.464844v-25.597656h-119.464844zm0 0"/><path d="m324.269531 315.734375h-136.535156c-37.683594-.042969-68.222656-30.582031-68.265625-68.269531v-2.8125c0-4.714844 3.820312-8.535156 8.535156-8.535156 4.710938 0 8.53125 3.820312 8.53125 8.535156v2.8125c.03125 28.265625 22.9375 51.171875 51.199219 51.203125h136.535156c24.847657.085937 46.140625-17.761719 50.386719-42.246094.804688-4.644531 5.222656-7.757813 9.867188-6.949219 4.644531.804688 7.753906 5.222656 6.949218 9.863282-5.65625 32.671874-34.046875 56.496093-67.203125 56.398437zm0 0"/><path d="m102.402344 512h-93.867188c-4.710937 0-8.53124975-3.820312-8.53124975-8.535156v-7.59375c-.01171875-11.617188 1.39062475-23.199219 4.17187475-34.480469l7.9375-32.160156c10.019531-37.453125 44.359375-63.191407 83.121094-62.296875h8.019531c4.714844 0 8.535156 3.820312 8.535156 8.53125 0 4.714844-3.820312 8.535156-8.535156 8.535156h-8.019531c-30.898437-.875-58.386719 19.496094-66.550781 49.308594l-7.9375 32.183594c-2.378906 9.636718-3.613282 19.515624-3.671875 29.441406h85.328125c4.710937 0 8.53125 3.820312 8.53125 8.53125 0 4.714844-3.820313 8.535156-8.53125 8.535156zm0 0"/><path d="m503.46875 512h-93.867188c-4.710937 0-8.53125-3.820312-8.53125-8.535156 0-4.710938 3.820313-8.53125 8.53125-8.53125h85.332032c-.058594-9.921875-1.289063-19.800782-3.667969-29.433594l-7.933594-32.179688c-8.160156-29.820312-35.65625-50.195312-66.5625-49.320312h-7.933593c-4.714844 0-8.535157-3.820312-8.535157-8.535156 0-4.710938 3.820313-8.53125 8.535157-8.53125h7.933593c38.765625-.894532 73.109375 24.851562 83.125 62.308594l7.9375 32.15625c2.78125 11.28125 4.183594 22.855468 4.171875 34.472656v7.59375c0 4.714844-3.820312 8.535156-8.535156 8.535156zm0 0"/><path d="m385.476562 358.402344c-2.6875-.003906-5.214843-1.269532-6.824218-3.421875-1.613282-2.152344-2.117188-4.933594-1.367188-7.511719 8.960938-30.566406 7.0625-87.589844-16.382812-111.035156-18.757813-18.757813-21.289063-47.132813-23.519532-72.167969-.640624-11.183594-2.214843-22.292969-4.710937-33.214844-6.550781-24.21875-26.300781-30.300781-66.066406-20.371093-12.410157 2.242187-25.1875 1.351562-37.167969-2.597657-13.652344-3.359375-25.429688-6.265625-36.96875 1.417969-7.386719 4.925781-8.789062 13.171875-11.027344 29.867188-3.191406 35.042968-16.414062 68.425781-38.078125 96.152343-30.125 40.167969-15.6875 111.890625-15.539062 112.613281.867187 4.574219-2.09375 8.996094-6.652344 9.941407-4.554687.945312-9.03125-1.933594-10.054687-6.476563-.675782-3.242187-16.101563-80.058594 18.59375-126.320312 19.824218-25.441406 31.910156-56.046875 34.816406-88.167969 2.328125-17.378906 4.339844-32.386719 18.476562-41.808594 17.796875-11.863281 35.179688-7.578125 50.523438-3.785156 9.292968 3.195313 19.222656 4.085937 28.9375 2.605469 18.042968-4.507813 72.960937-18.242188 86.683594 32.46875 2.765624 11.886718 4.515624 23.984375 5.238281 36.164062 2.066406 23.21875 4.207031 47.234375 18.582031 61.609375 29.363281 29.363281 30.882812 93.148438 20.691406 127.902344-1.0625 3.632813-4.394531 6.132813-8.183594 6.136719zm0 0"/><path d="m435.203125 386.132812c-4.714844 0-8.535156-3.820312-8.535156-8.53125v-206.933593c-.09375-84.792969-68.808594-153.507813-153.597657-153.601563h-34.136718c-84.789063.09375-153.503906 68.808594-153.597656 153.601563v206.933593c0 4.710938-3.820313 8.53125-8.535157 8.53125-4.710937 0-8.53125-3.820312-8.53125-8.53125v-206.933593c.109375-94.214844 76.453125-170.558594 170.664063-170.667969h34.136718c94.210938.109375 170.558594 76.453125 170.664063 170.667969v206.933593c0 4.710938-3.820313 8.53125-8.53125 8.53125zm0 0"/><path d="m256.003906 409.601562c-28.628906 1.097657-57.054687-5.265624-82.480468-18.46875-3.488282-1.804687-5.289063-5.753906-4.367188-9.570312s4.328125-6.507812 8.253906-6.523438h.085938c1.496094 0 2.964844.394532 4.261718 1.144532 22.910157 11.800781 48.496094 17.4375 74.246094 16.351562 25.746094 1.085938 51.335938-4.550781 74.246094-16.351562 2.640625-1.574219 5.929688-1.605469 8.601562-.078125 2.671876 1.53125 4.3125 4.375 4.296876 7.453125-.015626 3.078125-1.6875 5.910156-4.375 7.40625-25.492188 13.324218-54.027344 19.746094-82.769532 18.636718zm0 0"/><path d="m204.800781 512c-4.710937 0-8.53125-3.820312-8.53125-8.535156v-48.636719c.007813-6.09375-1.296875-12.117187-3.824219-17.660156l-38.074218-83.769531c-1.835938-4.265626.074218-9.214844 4.300781-11.140626 4.230469-1.921874 9.21875-.113281 11.230469 4.074219l38.078125 83.777344c3.539062 7.757813 5.367187 16.1875 5.355469 24.71875v48.636719c0 4.714844-3.820313 8.535156-8.535157 8.535156zm0 0"/><path d="m307.203125 512c-4.714844 0-8.535156-3.820312-8.535156-8.535156v-48.636719c-.011719-8.527344 1.8125-16.957031 5.351562-24.71875l38.085938-83.777344c1.21875-2.835937 3.882812-4.792969 6.957031-5.113281 3.070312-.316406 6.078125 1.050781 7.855469 3.578125 1.78125 2.527344 2.054687 5.816406.714843 8.601563l-38.078124 83.769531c-2.523438 5.542969-3.828126 11.566406-3.820313 17.660156v48.636719c0 4.714844-3.820313 8.535156-8.53125 8.535156zm0 0"/><path d="m203.4375 451.847656c-.929688-.003906-1.851562-.15625-2.730469-.453125l-14.933593-5.035156c-24.4375-8.160156-45.277344-24.566406-58.949219-46.402344l-23.125-37.035156c-2.5-3.996094-1.285157-9.261719 2.710937-11.761719 4-2.496094 9.265625-1.28125 11.761719 2.714844l23.125 37.035156c11.574219 18.480469 29.21875 32.363282 49.902344 39.261719l14.964843 5.046875c3.972657 1.328125 6.390626 5.34375 5.710938 9.476562-.675781 4.128907-4.253906 7.160157-8.441406 7.148438zm0 0"/><path d="m308.566406 451.847656c-4.1875.007813-7.761718-3.019531-8.441406-7.152344-.679688-4.132812 1.742188-8.144531 5.710938-9.476562l14.933593-5.03125c20.699219-6.898438 38.351563-20.78125 49.933594-39.273438l23.125-37.035156c2.5-3.996094 7.765625-5.210937 11.761719-2.710937 3.996094 2.496093 5.210937 7.761719 2.714844 11.757812l-23.125 37.035157c-13.679688 21.84375-34.53125 38.253906-58.980469 46.414062l-14.90625 5.027344c-.878907.292968-1.796875.445312-2.726563.445312zm0 0"/><path d="m136.519531 511.984375c-3.664062.003906-6.921875-2.339844-8.078125-5.816406-.417968-1.25-9.964844-30.84375 10.59375-51.402344 7.847656-8.632813 12.785156-19.511719 14.117188-31.105469.542968-4.464844 4.457031-7.742187 8.949218-7.492187 4.492188.253906 8.019532 3.953125 8.054688 8.449219 0 .417968-.023438.835937-.078125 1.25-1.734375 15.347656-8.394531 29.71875-18.976563 40.964843-13.027343 13.03125-6.523437 33.765625-6.457031 33.972657.84375 2.601562.390625 5.445312-1.214843 7.660156-1.609376 2.210937-4.175782 3.519531-6.910157 3.519531zm0 0"/><path d="m375.46875 512.003906c-2.738281-.003906-5.308594-1.316406-6.914062-3.535156-1.601563-2.21875-2.046876-5.070312-1.191407-7.671875.152344-.496094 6.472657-21.027344-6.464843-33.964844-10.582032-11.246093-17.238282-25.621093-18.972657-40.964843-.054687-.386719-.078125-.773438-.078125-1.164063-.054687-4.59375 3.539063-8.40625 8.128906-8.625 4.589844-.21875 8.527344 3.238281 8.90625 7.816406 1.359376 11.507813 6.28125 22.304688 14.082032 30.871094 20.558594 20.558594 11.011718 50.152344 10.59375 51.402344-1.160156 3.484375-4.417969 5.835937-8.089844 5.835937zm0 0"/><path d="m307.203125 512c-4.714844 0-8.535156-3.820312-8.535156-8.535156 0-23.5625-19.101563-42.664063-42.664063-42.664063-23.566406 0-42.667968 19.101563-42.667968 42.664063 0 4.714844-3.820313 8.535156-8.535157 8.535156-4.710937 0-8.53125-3.820312-8.53125-8.535156 0-32.988282 26.742188-59.730469 59.734375-59.730469 32.988282 0 59.730469 26.742187 59.730469 59.730469 0 4.714844-3.820313 8.535156-8.53125 8.535156zm0 0"/></svg>