<svg height="512pt" viewBox="0 0 512.00011 512" width="512pt" xmlns="http://www.w3.org/2000/svg"><path d="m187.734375 290.132812h136.53125v76.800782h-136.53125zm0 0" fill="#fec108"/><path d="m385.003906 221.867188c13.738282 0 25.03125-10.847657 25.578125-24.578126l1.871094-46.761718c1.488281-37.128906-12.222656-73.257813-37.96875-100.054688-25.742187-26.792968-61.296875-41.9375-98.453125-41.9375h-40.0625c-37.15625 0-72.710938 15.144532-98.453125 41.9375-25.746094 26.796875-39.457031 62.925782-37.96875 100.054688l1.871094 46.761718c.546875 13.730469 11.839843 24.578126 25.578125 24.578126zm0 0" fill="#ad1457"/><path d="m354.4375 221.867188c10.484375 0 19.097656-10.847657 19.515625-24.578126l1.429687-46.761718c2.363282-77.488282-44.925781-141.992188-104.097656-141.992188h-30.566406c-59.171875 0-106.464844 64.503906-104.101562 141.992188l1.429687 46.761718c.417969 13.730469 9.03125 24.578126 19.515625 24.578126zm0 0" fill="#e91e63"/><path d="m384 196.265625v51.199219c.011719 15.847656-6.277344 31.046875-17.484375 42.253906-11.203125 11.203125-26.402344 17.492188-42.25 17.480469h-136.53125c-15.847656.011719-31.046875-6.277344-42.25-17.480469-11.207031-11.207031-17.496094-26.40625-17.484375-42.253906v-51.199219c1.195312-8.980469 3.667969-17.742187 7.339844-26.027344 2.34375-5.414062 5.109375-10.632812 8.277344-15.613281 15.957031-25.089844 48.125-52.226562 112.382812-52.226562s96.425781 27.136718 112.382812 52.226562c3.167969 4.980469 5.933594 10.199219 8.277344 15.613281 3.671875 8.285157 6.144532 17.046875 7.339844 26.027344zm0 0" fill="#fec108"/><path d="m358.398438 196.265625v51.199219c0 33.027344-21.367188 59.734375-47.785157 59.734375h-109.226562c-26.417969 0-47.785157-26.707031-47.785157-59.734375v-51.199219c.9375-8.871094 2.910157-17.609375 5.871094-26.027344 1.847656-5.347656 4.058594-10.566406 6.621094-15.613281 12.765625-25.089844 38.5-52.226562 89.90625-52.226562s77.140625 27.136718 89.90625 52.226562c2.5625 5.046875 4.773438 10.265625 6.621094 15.613281 2.964844 8.417969 4.933594 17.15625 5.871094 26.027344zm0 0" fill="#ffdc00"/><path d="m409.601562 503.464844h93.867188l-.003906-7.59375c.015625-10.925782-1.300782-21.816406-3.921875-32.425782l-7.9375-32.171874c-9.203125-33.554688-40.046875-56.558594-74.835938-55.808594h-321.539062c-34.789063-.75-65.632813 22.253906-74.835938 55.808594l-7.9375 32.171874c-2.621093 10.609376-3.9375 21.5-3.921875 32.425782v7.59375zm0 0" fill="#fec108"/><path d="m435.199219 503.464844h-358.398438l28.910157-139.921875c2.957031-8.832031 11.585937-14.488281 20.871093-13.675781h258.890625c9.28125-.8125 17.914063 4.84375 20.871094 13.675781zm0 0" fill="#ffdc00"/><path d="m238.933594 174.933594c0-11.78125-13.371094-21.332032-29.867188-21.332032s-29.867187 9.550782-29.867187 21.332032 13.371093 21.332031 29.867187 21.332031 29.867188-9.550781 29.867188-21.332031zm0 0" fill="#00bcd4"/><path d="m332.800781 174.933594c0-11.78125-13.371093-21.332032-29.867187-21.332032s-29.867188 9.550782-29.867188 21.332032 13.371094 21.332031 29.867188 21.332031 29.867187-9.550781 29.867187-21.332031zm0 0" fill="#00bcd4"/><path d="m296.339844 247.464844c-6.894532 13.496094-28.414063 15.402344-40.167969 15.402344-11.78125 0-33.277344-1.90625-40.171875-15.402344 13.148438 3.242187 26.628906 4.929687 40.171875 5.035156 13.539063-.101562 27.023437-1.792969 40.167969-5.035156zm0 0"/><path d="m435.199219 512h-358.398438c-2.566406 0-4.996093-1.152344-6.617187-3.144531-1.621094-1.988281-2.261719-4.601563-1.742188-7.113281l28.910156-139.921876c3.722657-12.84375 15.882813-21.367187 29.226563-20.488281h258.894531c13.363282-.882812 25.535156 7.667969 29.234375 20.542969l28.855469 139.867188c.519531 2.511718-.121094 5.128906-1.742188 7.117187-1.621093 1.988281-4.054687 3.140625-6.621093 3.140625zm-347.925781-17.066406h337.453124l-26.742187-129.664063c-2.257813-4.742187-7.296875-7.511719-12.511719-6.871093h-258.894531c-5.199219-.632813-10.226563 2.113281-12.503906 6.828124zm0 0"/><path d="m324.265625 358.398438h-136.53125c-4.714844 0-8.535156-3.820313-8.535156-8.53125v-42.667969c0-4.710938 3.820312-8.53125 8.535156-8.53125h136.53125c4.714844 0 8.535156 3.820312 8.535156 8.53125v42.667969c0 4.710937-3.820312 8.53125-8.535156 8.53125zm-128-17.066407h119.46875v-25.597656h-119.46875zm0 0"/><path d="m324.265625 315.734375h-136.53125c-37.6875-.042969-68.222656-30.582031-68.269531-68.269531v-51.199219c3.230468-35.925781 35.871094-102.398437 136.535156-102.398437s133.304688 66.472656 136.5 101.632812c.019531.253906.035156.511719.035156.765625v51.199219c-.046875 37.6875-30.582031 68.226562-68.269531 68.269531zm-68.265625-204.800781c-110.402344 0-119.183594 82.589844-119.5 86.101562l.035156 50.429688c.027344 28.265625 22.933594 51.171875 51.199219 51.203125h136.53125c28.265625-.03125 51.171875-22.9375 51.199219-51.203125v-50.753906c-.765625-6.824219-12.054688-85.777344-119.464844-85.777344zm0 0"/><path d="m102.398438 512h-93.863282c-4.714844 0-8.535156-3.820312-8.535156-8.535156v-7.59375c-.0117188-11.617188 1.390625-23.199219 4.175781-34.480469l7.9375-32.160156c10.019531-37.453125 44.359375-63.191407 83.117188-62.296875h8.023437c4.710938 0 8.53125 3.820312 8.53125 8.53125 0 4.714844-3.820312 8.535156-8.53125 8.535156h-8.023437c-30.898438-.875-58.386719 19.496094-66.550781 49.308594l-7.9375 32.183594c-2.378907 9.636718-3.609376 19.519531-3.667969 29.441406h85.324219c4.714843 0 8.535156 3.820312 8.535156 8.53125 0 4.714844-3.820313 8.535156-8.535156 8.535156zm0 0"/><path d="m503.464844 512h-93.863282c-4.714843 0-8.535156-3.820312-8.535156-8.535156 0-4.710938 3.820313-8.53125 8.535156-8.53125h85.332032c-.066406-9.921875-1.296875-19.804688-3.675782-29.441406l-7.9375-32.179688c-8.164062-29.8125-35.652343-50.183594-66.550781-49.3125h-7.9375c-4.710937 0-8.535156-3.820312-8.535156-8.535156 0-4.710938 3.824219-8.53125 8.535156-8.53125h7.9375c38.761719-.890625 73.105469 24.851562 83.125 62.308594l7.933594 32.160156c2.78125 11.28125 4.179687 22.855468 4.171875 34.46875v7.59375c0 4.714844-3.820312 8.535156-8.535156 8.535156zm0 0"/><path d="m385.003906 230.398438c-4.710937 0-8.53125-3.820313-8.53125-8.53125 0-4.714844 3.820313-8.535157 8.53125-8.535157 9.171875.027344 16.710938-7.21875 17.054688-16.382812l1.867187-46.761719c1.394531-34.808594-11.460937-68.679688-35.59375-93.800781-24.136719-25.121094-57.46875-39.320313-92.300781-39.320313h-40.0625c-34.835938 0-68.164062 14.199219-92.300781 39.320313-24.136719 25.117187-36.988281 58.992187-35.597657 93.800781l1.871094 46.765625c.347656 9.164063 7.886719 16.402344 17.054688 16.378906 4.710937 0 8.53125 3.820313 8.53125 8.535157 0 4.710937-3.820313 8.53125-8.53125 8.53125-18.339844.050781-33.421875-14.441407-34.105469-32.765626l-1.871094-46.761718c-1.578125-39.449219 12.988281-77.839844 40.34375-106.308594 27.351563-28.46875 65.125-44.5625 104.605469-44.5625h40.0625c39.480469 0 77.253906 16.089844 104.605469 44.5625 27.351562 28.46875 41.917969 66.859375 40.339843 106.308594l-1.867187 46.761718c-.683594 18.324219-15.765625 32.816407-34.105469 32.765626zm0 0"/><path d="m209.066406 204.800781c-21.53125 0-38.398437-13.121093-38.398437-29.867187s16.867187-29.867188 38.398437-29.867188c21.535156 0 38.398438 13.121094 38.398438 29.867188s-16.863282 29.867187-38.398438 29.867187zm0-42.667969c-12.570312 0-21.332031 6.746094-21.332031 12.800782 0 6.054687 8.761719 12.800781 21.332031 12.800781 12.570313 0 21.332032-6.742187 21.332032-12.800781s-8.761719-12.800782-21.332032-12.800782zm0 0"/><path d="m302.933594 204.800781c-21.535156 0-38.398438-13.121093-38.398438-29.867187s16.863282-29.867188 38.398438-29.867188c21.53125 0 38.398437 13.121094 38.398437 29.867188s-16.867187 29.867187-38.398437 29.867187zm0-42.667969c-12.570313 0-21.332032 6.746094-21.332032 12.800782 0 6.054687 8.761719 12.800781 21.332032 12.800781 12.570312 0 21.332031-6.742187 21.332031-12.800781s-8.761719-12.800782-21.332031-12.800782zm0 0"/><path d="m273.066406 187.734375c-2.261718 0-4.433594-.898437-6.03125-2.5-2.984375-3.082031-6.832031-5.1875-11.035156-6.035156-4.214844.851562-8.070312 2.964843-11.058594 6.058593-3.351562 3.242188-8.6875 3.191407-11.976562-.113281-3.289063-3.304687-3.320313-8.636719-.066406-11.976562 6.171874-6.273438 14.347656-10.179688 23.101562-11.035157 8.753906.855469 16.929688 4.761719 23.101562 11.035157 2.4375 2.441406 3.167969 6.109375 1.847657 9.296875-1.320313 3.1875-4.433594 5.269531-7.882813 5.269531zm0 0"/><path d="m180.234375 177.921875c-.472656 0-.941406-.039063-1.40625-.117187l-41.214844-6.828126c-3.0625-.441406-5.644531-2.5-6.753906-5.390624-1.105469-2.886719-.566406-6.144532 1.414063-8.519532 1.980468-2.375 5.089843-3.496094 8.128906-2.921875l41.21875 6.824219c4.375.734375 7.457031 4.695312 7.097656 9.113281-.363281 4.421875-4.050781 7.828125-8.484375 7.839844zm0 0"/><path d="m331.765625 177.921875c-4.433594-.011719-8.121094-3.417969-8.484375-7.839844-.359375-4.417969 2.722656-8.378906 7.097656-9.113281l41.214844-6.824219c3.039062-.574219 6.152344.546875 8.132812 2.921875 1.980469 2.375 2.519532 5.632813 1.414063 8.519532-1.109375 2.890624-3.691406 4.949218-6.753906 5.390624l-41.214844 6.828126c-.464844.078124-.933594.117187-1.40625.117187zm0 0"/><path d="m221.867188 477.867188h-76.800782c-14.132812-.015626-25.585937-11.46875-25.601562-25.601563 0-4.710937 3.824218-8.53125 8.535156-8.53125 4.714844 0 8.535156 3.820313 8.535156 8.53125.003906 4.710937 3.820313 8.527344 8.53125 8.535156h76.800782c4.710937-.007812 8.527343-3.824219 8.53125-8.535156 0-4.710937 3.820312-8.53125 8.535156-8.53125 4.710937 0 8.53125 3.820313 8.53125 8.53125-.011719 14.132813-11.464844 25.585937-25.597656 25.601563zm0 0"/><path d="m366.933594 477.867188h-76.800782c-14.132812-.015626-25.582031-11.46875-25.597656-25.601563 0-4.710937 3.820313-8.53125 8.53125-8.53125 4.714844 0 8.535156 3.820313 8.535156 8.53125.003907 4.710937 3.820313 8.527344 8.53125 8.535156h76.800782c4.710937-.007812 8.527344-3.824219 8.53125-8.535156 0-4.710937 3.824218-8.53125 8.535156-8.53125 4.714844 0 8.535156 3.820313 8.535156 8.53125-.015625 14.132813-11.46875 25.585937-25.601562 25.601563zm0 0"/><path d="m187.734375 477.867188c-4.714844 0-8.535156-3.820313-8.535156-8.535157v-8.53125c0-4.714843 3.820312-8.535156 8.535156-8.535156 4.710937 0 8.53125 3.820313 8.53125 8.535156v8.53125c0 4.714844-3.820313 8.535157-8.53125 8.535157zm0 0"/><path d="m324.265625 477.867188c-4.710937 0-8.53125-3.820313-8.53125-8.535157v-8.53125c0-4.714843 3.820313-8.535156 8.53125-8.535156 4.714844 0 8.535156 3.820313 8.535156 8.535156v8.53125c0 4.714844-3.820312 8.535157-8.535156 8.535157zm0 0"/></svg>