<svg height="512pt" viewBox="0 0 512.00007 512" width="512pt" xmlns="http://www.w3.org/2000/svg"><path d="m187.734375 290.132812h136.53125v102.402344h-136.53125zm0 0" fill="#fec108"/><path d="m503.464844 495.871094.003906 7.59375h-494.933594v-7.59375c-.015625-10.925782 1.300782-21.816406 3.921875-32.425782l7.9375-32.171874c9.203125-33.554688 40.046875-56.558594 74.835938-55.808594h321.539062c34.789063-.75 65.632813 22.253906 74.835938 55.808594l7.9375 32.171874c2.621093 10.609376 3.9375 21.5 3.921875 32.425782zm0 0" fill="#00838f"/><path d="m435.199219 503.464844h-358.398438l25.855469-128 .597656-3.15625 2.472656-12.203125c.960938-4.3125 3.683594-8.027344 7.511719-10.238281h285.523438c3.828125 2.230468 6.570312 5.929687 7.59375 10.238281l2.476562 12.203125.597657 3.15625zm0 0" fill="#00bcd4"/><path d="m384 68.265625v179.199219c.015625 2.054687-.101562 4.105468-.339844 6.144531v.257813c-3.25 30.347656-28.871094 53.355468-59.394531 53.332031h-136.53125c-30.523437.023437-56.144531-22.984375-59.394531-53.332031v-.257813c-.238282-2.039063-.355469-4.089844-.339844-6.144531v-179.199219zm0 0" fill="#fec108"/><path d="m358.398438 68.265625v179.199219c0 2.050781-.066407 4.097656-.269532 6.144531v.257813c-2.527344 29.953124-22.804687 53.332031-47.515625 53.332031h-109.226562c-24.710938 0-44.988281-23.378907-47.511719-53.332031v-.257813c-.207031-2.046875-.273438-4.09375-.273438-6.144531v-179.199219zm0 0" fill="#ffdc00"/><path d="m204.800781 349.867188 51.199219 76.800781 51.199219-76.800781" fill="#ffdc00"/><path d="m170.667969 349.867188v59.734374c0 4.710938-3.820313 8.53125-8.535157 8.53125-4.710937 0-8.53125-3.820312-8.53125-8.53125v-59.734374zm0 0" fill="#67b9cc"/><path d="m179.199219 477.867188c-4.710938 0-8.53125-3.820313-8.53125-8.535157 0-4.710937 3.820312-8.53125 8.53125-8.53125 4.710937-.003906 8.53125-3.824219 8.535156-8.535156v-17.066406c-.011719-9.421875-7.648437-17.054688-17.066406-17.066407h-17.066407c-9.421874.011719-17.058593 7.644532-17.066406 17.066407v17.066406c.003906 4.710937 3.820313 8.53125 8.53125 8.535156 4.714844 0 8.535156 3.820313 8.535156 8.53125 0 4.714844-3.820312 8.535157-8.535156 8.535157-14.132812-.015626-25.585937-11.46875-25.601562-25.601563v-17.066406c.023437-18.84375 15.292968-34.113281 34.136718-34.132813h17.066407c18.84375.019532 34.113281 15.289063 34.132812 34.132813v17.066406c-.015625 14.132813-11.46875 25.585937-25.601562 25.601563zm0 0" fill="#e6e7e8"/><path d="m358.398438 349.867188v68.265624c0 4.714844-3.820313 8.535157-8.53125 8.535157-4.714844 0-8.535157-3.820313-8.535157-8.535157v-68.265624zm0 0" fill="#67b9cc"/><path d="m375.464844 443.734375c0 14.136719-11.460938 25.597656-25.597656 25.597656-14.140626 0-25.601563-11.460937-25.601563-25.597656 0-14.140625 11.460937-25.601563 25.601563-25.601563 14.136718 0 25.597656 11.460938 25.597656 25.601563zm0 0" fill="#f5f5f5"/><path d="m349.867188 477.867188c-18.851563 0-34.132813-15.28125-34.132813-34.132813s15.28125-34.132813 34.132813-34.132813c18.851562 0 34.132812 15.28125 34.132812 34.132813-.019531 18.84375-15.289062 34.113281-34.132812 34.132813zm0-51.199219c-9.425782 0-17.066407 7.640625-17.066407 17.066406s7.640625 17.066406 17.066407 17.066406c9.425781 0 17.066406-7.640625 17.066406-17.066406-.011719-9.421875-7.644532-17.058594-17.066406-17.066406zm0 0" fill="#e6e7e8"/><path d="m256 8.535156c119.464844 0 195.917969 66.359375 187.734375 221.863282-5.773437 109.691406-54.511719 137.359374-85.4375 143.78125-3.546875.777343-7.195313-.789063-9.085937-3.890626-1.886719-3.101562-1.597657-7.0625.71875-9.859374 14.882812-17.65625 34.070312-53.585938 34.070312-121.496094 0-51.199219-34.132812-145.066406-128-145.066406s-128 93.867187-128 145.066406c0 67.910156 19.1875 103.839844 34.070312 121.496094 2.316407 2.796874 2.605469 6.757812.71875 9.859374-1.890624 3.101563-5.539062 4.667969-9.085937 3.890626-30.925781-6.421876-79.664063-34.089844-85.4375-143.78125-8.183594-155.503907 68.269531-221.863282 187.734375-221.863282zm0 0" fill="#783e22"/><path d="m296.339844 251.734375c-6.894532 13.492187-28.414063 15.398437-40.167969 15.398437-11.78125 0-33.277344-1.90625-40.171875-15.398437 13.148438 3.238281 26.628906 4.925781 40.171875 5.035156 13.539063-.105469 27.023437-1.796875 40.167969-5.035156zm0 0"/><path d="m233.648438 158.625c-8.109376-2.980469-16.625-4.707031-25.257813-5.121094-11.601563-.875-23.214844 1.601563-33.449219 7.132813 1.167969-14.933594 35.789063-17.882813 52.710938-14.042969 2.683594.332031 5.019531 1.988281 6.226562 4.40625 1.207032 2.421875 1.121094 5.28125-.230468 7.625zm0 0"/><path d="m278.351562 158.625c8.109376-2.980469 16.625-4.707031 25.257813-5.121094 11.601563-.875 23.214844 1.601563 33.449219 7.132813-1.167969-14.933594-35.789063-17.882813-52.710938-14.042969-2.683594.332031-5.019531 1.988281-6.226562 4.40625-1.207032 2.421875-1.121094 5.28125.230468 7.625zm0 0"/><path d="m186.535156 172.699219s2.429688 10.902343 11.828125 8.777343c9.402344-2.125 11.191407 1.957032 19.292969 1.304688 2.769531-.191406 5.554688-.019531 8.28125.503906 1.9375.449219 3.949219.484375 5.898438.097656 2.699218-.722656 2.464843-3.855468 1.519531-5.894531-3.746094-8.082031-14.292969-8.671875-22.007813-7.777343-3.273437.890624-6.601562 1.5625-9.960937 2.007812-3.519531-.972656-6.800781-2.660156-9.644531-4.957031.617187 2.195312.765624 4.492187.4375 6.742187-.976563 1.855469-5.644532-.804687-5.644532-.804687zm0 0"/><path d="m230.398438 189.28125c0-10.105469-7.640626-18.292969-17.066407-18.292969s-17.066406 8.1875-17.066406 18.292969c0 10.101562 7.640625 18.289062 17.066406 18.289062s17.066407-8.1875 17.066407-18.289062zm0 0"/><path d="m218.117188 173.40625c-4.40625-1.675781-9.332032.539062-11.007813 4.945312-1.675781 4.402344.535156 9.332032 4.941406 11.007813s9.335938-.539063 11.007813-4.941406c1.675781-4.40625-.535156-9.335938-4.941406-11.011719zm0 0" fill="#fff"/><path d="m325.460938 172.699219s-2.429688 10.902343-11.832032 8.777343c-9.398437-2.125-11.191406 1.957032-19.289062 1.304688-2.773438-.191406-5.554688-.019531-8.285156.503906-1.933594.449219-3.945313.484375-5.894532.097656-2.699218-.722656-2.46875-3.855468-1.523437-5.894531 3.75-8.082031 14.296875-8.671875 22.011719-7.777343 3.273437.890624 6.597656 1.5625 9.960937 2.007812 3.519531-.972656 6.800781-2.660156 9.640625-4.957031-.613281 2.195312-.761719 4.492187-.433594 6.742187.980469 1.855469 5.644532-.804687 5.644532-.804687zm0 0"/><path d="m315.730469 189.28125c0-10.105469-7.640625-18.292969-17.066407-18.292969-9.425781 0-17.066406 8.1875-17.066406 18.292969 0 10.101562 7.640625 18.289062 17.066406 18.289062 9.425782 0 17.066407-8.1875 17.066407-18.289062zm0 0"/><path d="m304.890625 178.347656c-1.675781-4.402344-6.605469-6.617187-11.011719-4.941406s-6.617187 6.605469-4.941406 11.011719c1.675781 4.402343 6.605469 6.617187 11.007812 4.941406 4.40625-1.675781 6.621094-6.605469 4.945313-11.011719zm0 0" fill="#fff"/><path d="m357.71875 358.398438h-203.4375c-4.710938 0-8.53125-3.820313-8.53125-8.53125 0-4.714844 3.820312-8.535157 8.53125-8.535157h203.4375c4.710938 0 8.53125 3.820313 8.53125 8.535157 0 4.710937-3.820312 8.53125-8.53125 8.53125zm0 0"/><path d="m435.199219 512h-358.398438c-2.566406 0-4.996093-1.152344-6.617187-3.144531-1.621094-1.988281-2.261719-4.601563-1.742188-7.113281l28.929688-139.945313c1.421875-6.574219 5.582031-12.230469 11.433594-15.546875 2.605468-1.585938 5.855468-1.660156 8.53125-.195312 2.675781 1.464843 4.363281 4.246093 4.433593 7.292968.070313 3.046875-1.492187 5.902344-4.097656 7.484375-1.722656.882813-3.007813 2.425781-3.558594 4.28125l-26.839843 129.820313h337.460937l-26.734375-129.683594c-.582031-1.90625-1.902344-3.496094-3.667969-4.421875-4.027343-2.445313-5.308593-7.695313-2.859375-11.722656 2.449219-4.027344 7.699219-5.308594 11.726563-2.859375 5.832031 3.34375 10.003906 8.972656 11.507812 15.523437l28.855469 139.976563c.519531 2.511718-.125 5.125-1.746094 7.113281s-4.050781 3.140625-6.617187 3.140625zm0 0"/><path d="m324.265625 358.398438h-136.53125c-4.714844 0-8.535156-3.820313-8.535156-8.53125v-42.667969c0-4.710938 3.820312-8.53125 8.535156-8.53125h136.53125c4.714844 0 8.535156 3.820312 8.535156 8.53125v42.667969c0 4.710937-3.820312 8.53125-8.535156 8.53125zm-128-17.066407h119.46875v-25.597656h-119.46875zm0 0"/><path d="m324.265625 315.734375h-136.53125c-34.917969.101563-64.246094-26.242187-67.875-60.972656-.035156-.296875-.050781-.59375-.050781-.894531-.253906-2.125-.367188-4.261719-.34375-6.402344v-8.53125c0-4.714844 3.824218-8.535156 8.535156-8.535156s8.535156 3.820312 8.535156 8.535156v8.53125c-.019531 1.699218.074219 3.394531.273438 5.082031.042968.351563.066406.707031.066406 1.066406 2.980469 25.789063 24.898438 45.203125 50.859375 45.054688h136.53125c26.058594.078125 47.992187-19.484375 50.875-45.386719.007813-.265625.027344-.539062.050781-.734375.199219-1.6875.292969-3.382813.273438-5.082031v-8.53125c0-4.714844 3.824218-8.535156 8.535156-8.535156s8.535156 3.820312 8.535156 8.535156v8.53125c.011719 2.265625-.109375 4.527344-.359375 6.777344-.007812.191406-.015625.382812-.035156.519531-3.628906 34.730469-32.957031 61.074219-67.875 60.972656zm0 0"/><path d="m102.398438 512h-93.863282c-4.714844 0-8.535156-3.820312-8.535156-8.535156v-7.59375c-.0078125-11.617188 1.394531-23.191406 4.175781-34.472656l7.9375-32.164063c10.019531-37.449219 44.359375-63.1875 83.117188-62.300781h8.023437c4.710938 0 8.53125 3.820312 8.53125 8.53125 0 4.714844-3.820312 8.535156-8.53125 8.535156h-8.023437c-30.898438-.871094-58.390625 19.496094-66.558594 49.308594l-7.9375 32.179687c-2.371094 9.636719-3.605469 19.519531-3.667969 29.445313h85.332032c4.714843 0 8.535156 3.820312 8.535156 8.53125 0 4.714844-3.820313 8.535156-8.535156 8.535156zm0 0"/><path d="m503.464844 512h-93.863282c-4.714843 0-8.535156-3.820312-8.535156-8.535156 0-4.710938 3.820313-8.53125 8.535156-8.53125h85.332032c-.066406-9.921875-1.300782-19.804688-3.675782-29.441406l-7.9375-32.179688c-8.164062-29.8125-35.652343-50.183594-66.550781-49.3125h-7.9375c-4.710937 0-8.535156-3.820312-8.535156-8.535156 0-4.710938 3.824219-8.53125 8.535156-8.53125h7.9375c38.761719-.890625 73.105469 24.851562 83.125 62.308594l7.933594 32.160156c2.78125 11.28125 4.179687 22.855468 4.171875 34.46875v7.59375c0 4.714844-3.820312 8.535156-8.535156 8.535156zm0 0"/><path d="m155.574219 382.914062c-1.210938 0-2.421875-.125-3.609375-.375-31.804688-6.609374-86.082032-35.101562-92.222656-151.6875-4.117188-78.375 12.707031-138.050781 50.015624-177.378906 33.667969-35.480468 82.867188-53.472656 146.242188-53.472656s112.574219 17.992188 146.242188 53.472656c37.308593 39.328125 54.132812 99.003906 50.015624 177.378906-6.144531 116.585938-60.414062 145.078126-92.222656 151.6875-7.171875 1.550782-14.527344-1.679687-18.234375-8.011718-3.757812-6.195313-3.109375-14.101563 1.609375-19.601563 14.621094-17.34375 32.054688-51.550781 32.054688-115.992187 0-44.542969-29.199219-136.535156-119.464844-136.535156s-119.464844 91.992187-119.464844 136.535156c0 64.441406 17.433594 98.644531 32.054688 115.996094 4.242187 5.070312 5.171875 12.132812 2.382812 18.128906-2.785156 5.992187-8.789062 9.832031-15.398437 9.855468zm100.425781-297.582031c103.160156 0 136.535156 103.484375 136.535156 153.601563 0 69.597656-19.617187 107.472656-36.078125 126.996094 27.101563-5.707032 73.21875-30.820313 78.75-135.980469 3.875-73.511719-11.382812-128.9375-45.347656-164.730469-30.316406-31.953125-75.351563-48.152344-133.859375-48.152344s-103.542969 16.199219-133.859375 48.152344c-33.960937 35.792969-49.222656 91.21875-45.347656 164.730469 5.53125 105.160156 51.648437 130.273437 78.640625 135.878906-16.351563-19.421875-35.96875-57.296875-35.96875-126.894531 0-50.117188 33.375-153.601563 136.535156-153.601563zm0 0"/><path d="m256 435.199219c-2.851562 0-5.515625-1.425781-7.101562-3.800781l-51.199219-76.796876c-1.722657-2.539062-1.953125-5.804687-.605469-8.558593 1.351562-2.753907 4.078125-4.570313 7.140625-4.757813 3.058594-.1875 5.988281 1.28125 7.664063 3.847656l44.101562 66.152344 44.101562-66.152344c2.632813-3.871093 7.894532-4.898437 11.789063-2.300781 3.894531 2.597657 4.972656 7.847657 2.410156 11.769531l-51.199219 76.796876c-1.585937 2.375-4.25 3.800781-7.101562 3.800781zm0 0"/><path d="m256 512c-4.710938 0-8.535156-3.820312-8.535156-8.535156v-76.796875c0-4.714844 3.824218-8.535157 8.535156-8.535157s8.535156 3.820313 8.535156 8.535157v76.796875c0 4.714844-3.824218 8.535156-8.535156 8.535156zm0 0"/><path d="m273.066406 469.332031h-17.066406c-4.710938 0-8.535156-3.820312-8.535156-8.53125 0-4.714843 3.824218-8.535156 8.535156-8.535156h17.066406c4.714844 0 8.535156 3.820313 8.535156 8.535156 0 4.710938-3.820312 8.53125-8.535156 8.53125zm0 0"/><path d="m162.132812 418.132812c-4.710937 0-8.53125-3.820312-8.53125-8.53125v-34.136718c0-4.710938 3.820313-8.53125 8.53125-8.53125 4.714844 0 8.535157 3.820312 8.535157 8.53125v34.136718c0 4.710938-3.820313 8.53125-8.535157 8.53125zm0 0"/><path d="m179.199219 477.867188c-4.710938 0-8.53125-3.820313-8.53125-8.535157 0-4.710937 3.820312-8.53125 8.53125-8.53125 4.710937-.003906 8.53125-3.824219 8.535156-8.535156v-17.066406c-.011719-9.421875-7.648437-17.054688-17.066406-17.066407h-17.066407c-9.421874.011719-17.058593 7.644532-17.066406 17.066407v17.066406c.003906 4.710937 3.820313 8.53125 8.53125 8.535156 4.714844 0 8.535156 3.820313 8.535156 8.53125 0 4.714844-3.820312 8.535157-8.535156 8.535157-14.132812-.015626-25.585937-11.46875-25.601562-25.601563v-17.066406c.023437-18.84375 15.292968-34.113281 34.136718-34.132813h17.066407c18.84375.019532 34.113281 15.289063 34.132812 34.132813v17.066406c-.015625 14.132813-11.46875 25.585937-25.601562 25.601563zm0 0"/><path d="m349.867188 477.867188c-18.851563 0-34.132813-15.28125-34.132813-34.132813s15.28125-34.132813 34.132813-34.132813c18.851562 0 34.132812 15.28125 34.132812 34.132813-.019531 18.84375-15.289062 34.113281-34.132812 34.132813zm0-51.199219c-9.425782 0-17.066407 7.640625-17.066407 17.066406s7.640625 17.066406 17.066407 17.066406c9.425781 0 17.066406-7.640625 17.066406-17.066406-.011719-9.421875-7.644532-17.058594-17.066406-17.066406zm0 0"/><path d="m349.867188 426.667969c-4.714844 0-8.535157-3.820313-8.535157-8.535157v-42.667968c0-4.710938 3.820313-8.53125 8.535157-8.53125 4.710937 0 8.53125 3.820312 8.53125 8.53125v42.667968c0 4.714844-3.820313 8.535157-8.53125 8.535157zm0 0"/></svg>