<svg height="512pt" viewBox="0 0 512.00015 512" width="512pt" xmlns="http://www.w3.org/2000/svg"><path d="m409.601562 503.464844h93.867188l-.003906-7.59375c.015625-10.929688-1.300782-21.816406-3.921875-32.425782l-7.9375-32.171874c-9.203125-33.558594-40.046875-56.558594-74.835938-55.808594h-321.539062c-34.789063-.75-65.632813 22.25-74.835938 55.808594l-7.9375 32.171874c-2.621093 10.609376-3.9375 21.496094-3.921875 32.425782v7.59375zm0 0" fill="#fec108"/><path d="m187.734375 286.832031h136.53125v83.398438h-136.53125zm0 0" fill="#fec108"/><path d="m332.289062 55.722656c-14.433593-28.917968-43.972656-47.191406-76.289062-47.191406s-61.855469 18.273438-76.289062 47.191406zm0 0" fill="#6d4122"/><path d="m384 221.863281c9.921875 0 18.464844-7.003906 20.414062-16.734375l3.96875-15.542968c8.480469-33.191407 1.144532-68.441407-19.867187-95.5-21.015625-27.058594-53.355469-42.886719-87.613281-42.886719h-89.804688c-34.257812 0-66.597656 15.828125-87.613281 42.886719-21.011719 27.058593-28.347656 62.308593-19.867187 95.5l3.96875 15.542968c1.949218 9.730469 10.492187 16.734375 20.414062 16.734375" fill="#91562d"/><path d="m428.117188 469.074219-1.449219.257812s-38.65625-15.019531-76.800781-34.132812c-.085938 0-.085938-.085938-.171876-.085938-1.441406-.714843-2.921874-1.339843-4.4375-1.878906-2.140624-.804687-4.335937-1.460937-6.570312-1.960937-.277344-.089844-.5625-.148438-.851562-.171876-.085938 0-.171876-.085937-.257813-.085937-1.363281-.253906-2.730469-.511719-4.179687-.679687-.097657-.089844-.246094-.089844-.34375 0-1.355469-.226563-2.722657-.371094-4.09375-.429688-1.453126-.082031-2.902344-.167969-4.351563-.167969-21.367187.113281-41.878906 8.386719-57.34375 23.125-1.242187 1.300781-2.410156 2.667969-3.5 4.09375-1.082031 1.390625-2.078125 2.84375-2.988281 4.351563-3.070313 4.980468-4.722656 10.707031-4.777344 16.554687-.054688-5.847656-1.707031-11.574219-4.777344-16.554687-.910156-1.507813-1.90625-2.960938-2.988281-4.351563-1.089844-1.425781-2.257813-2.792969-3.5-4.09375-15.464844-14.738281-35.976563-23.011719-57.34375-23.125-1.449219 0-2.898437.085938-4.351563.167969-1.371093.058594-2.738281.203125-4.09375.429688-.097656-.089844-.246093-.089844-.34375 0-.6875.070312-1.371093.183593-2.046874.339843-.804688.09375-1.601563.234375-2.390626.425781-.289062.023438-.574218.082032-.851562.171876-2.234375.5-4.429688 1.15625-6.570312 1.960937-1.515626.539063-2.996094 1.164063-4.4375 1.878906-.085938 0-.085938.085938-.171876.085938-38.144531 19.113281-76.800781 34.132812-76.800781 34.132812l-1.449219-.257812 21.84375-105.554688c2.945313-8.820312 11.558594-14.46875 20.824219-13.65625h258.898438c9.285156-.8125 17.921875 4.828125 20.90625 13.65625zm0 0" fill="#ffdc00"/><path d="m384 190.121094v57.34375c.011719 15.847656-6.277344 31.046875-17.484375 42.25-11.203125 11.207031-26.402344 17.496094-42.25 17.484375h-136.53125c-15.847656.011719-31.046875-6.277344-42.25-17.484375-11.207031-11.203125-17.496094-26.402344-17.484375-42.25v-57.34375s.851562-55.636719 51.199219-68.265625c34.132812-8.535157 42.667969 8.53125 76.800781 8.53125s42.667969-17.066407 76.800781-8.53125c50.347657 12.628906 51.199219 68.265625 51.199219 68.265625zm0 0" fill="#fec108"/><path d="m358.398438 190.121094v57.34375c0 33.023437-21.367188 59.734375-47.785157 59.734375h-109.226562c-26.417969 0-47.785157-26.710938-47.785157-59.734375v-57.34375s.679688-55.636719 40.957032-68.265625c27.308594-8.535157 34.136718 8.53125 61.441406 8.53125 27.308594 0 34.132812-17.066407 61.441406-8.53125 40.277344 12.628906 40.957032 68.265625 40.957032 68.265625zm0 0" fill="#ffdc00"/><path d="m178.6875 413.949219c.5625 4.664062-2.761719 8.902343-7.421875 9.472656-.339844.070313-.683594.101563-1.027344.085937-3.523437.015626-6.691406-2.160156-7.933593-5.460937-.25-.660156-.421876-1.347656-.511719-2.046875l-8.109375-65.109375c-.074219-.335937-.101563-.683594-.082032-1.027344h17.066407l7.933593 63.40625zm0 0" fill="#804169"/><path d="m358.398438 349.863281c.019531.34375-.007813.691407-.082032 1.027344l-8.109375 65.109375c-.089843.699219-.261719 1.386719-.511719 2.046875-1.242187 3.300781-4.410156 5.476563-7.933593 5.460937-.34375.015626-.6875-.015624-1.027344-.085937-4.660156-.570313-7.984375-4.808594-7.421875-9.472656l.085938-.679688 7.933593-63.40625zm0 0" fill="#804169"/><path d="m435.199219 503.464844h-358.398438l7.082031-34.390625 1.449219.257812c23.890625-19.503906 49.609375-36.652343 76.800781-51.199219 34.132813-17.066406 93.867188 8.53125 93.867188 42.664063 0-34.132813 59.734375-59.730469 93.867188-42.664063 27.191406 14.546876 52.910156 31.695313 76.800781 51.199219l1.449219-.257812zm0 0" fill="#bb193b"/><path d="m401.066406 503.464844h-290.132812l5.734375-34.390625 1.175781.257812c18.925781-19.140625 39.757812-36.296875 62.171875-51.199219 27.628906-17.066406 75.984375 8.53125 75.984375 42.664063 0-34.132813 48.355469-59.730469 75.988281-42.664063 22.414063 14.902344 43.246094 32.058594 62.171875 51.199219l1.171875-.257812zm0 0" fill="#ef314c"/><path d="m296.339844 260.265625c-6.894532 13.492187-28.414063 15.402344-40.167969 15.402344-11.78125 0-33.277344-1.910157-40.171875-15.402344 13.148438 3.238281 26.628906 4.929687 40.171875 5.035156 13.539063-.105469 27.023437-1.796875 40.167969-5.035156zm0 0"/><path d="m233.648438 171.421875c-8.109376-2.980469-16.625-4.707031-25.257813-5.117187-11.601563-.878907-23.214844 1.597656-33.449219 7.132812 1.167969-14.933594 35.789063-17.886719 52.710938-14.046875 2.683594.335937 5.019531 1.988281 6.226562 4.410156 1.207032 2.417969 1.121094 5.28125-.230468 7.621094zm0 0"/><path d="m278.351562 171.421875c8.109376-2.980469 16.625-4.707031 25.257813-5.117187 11.601563-.878907 23.214844 1.597656 33.449219 7.132812-1.167969-14.933594-35.789063-17.886719-52.710938-14.046875-2.683594.335937-5.019531 1.988281-6.226562 4.410156-1.207032 2.417969-1.117188 5.28125.230468 7.621094zm0 0"/><path d="m186.535156 185.496094s2.429688 10.90625 11.828125 8.777344c9.402344-2.125 11.191407 1.957031 19.292969 1.304687 2.769531-.1875 5.554688-.019531 8.28125.507813 1.9375.449218 3.949219.480468 5.898438.09375 2.699218-.722657 2.464843-3.855469 1.519531-5.894532-3.746094-8.082031-14.292969-8.671875-22.007813-7.773437-3.273437.886719-6.601562 1.558593-9.960937 2.007812-3.519531-.976562-6.800781-2.664062-9.644531-4.957031.617187 2.191406.765624 4.488281.4375 6.742188-.976563 1.855468-5.644532-.808594-5.644532-.808594zm0 0"/><path d="m230.398438 202.078125c0-10.101563-7.640626-18.292969-17.066407-18.292969s-17.066406 8.191406-17.066406 18.292969 7.640625 18.292969 17.066406 18.292969 17.066407-8.191406 17.066407-18.292969zm0 0"/><path d="m218.117188 186.207031c-4.402344-1.675781-9.332032.535157-11.007813 4.941407-1.675781 4.402343.535156 9.332031 4.941406 11.007812s9.335938-.535156 11.007813-4.941406c1.675781-4.40625-.535156-9.335938-4.941406-11.007813zm0 0" fill="#fff"/><path d="m325.460938 185.496094s-2.429688 10.90625-11.832032 8.777344c-9.398437-2.125-11.191406 1.957031-19.289062 1.304687-2.773438-.1875-5.554688-.019531-8.285156.507813-1.933594.449218-3.945313.480468-5.894532.09375-2.699218-.722657-2.46875-3.855469-1.523437-5.894532 3.75-8.082031 14.296875-8.671875 22.011719-7.773437 3.273437.886719 6.597656 1.558593 9.960937 2.007812 3.519531-.976562 6.800781-2.664062 9.640625-4.957031-.613281 2.191406-.761719 4.488281-.433594 6.742188.980469 1.855468 5.644532-.808594 5.644532-.808594zm0 0"/><path d="m315.730469 202.078125c0-10.101563-7.640625-18.292969-17.066407-18.292969-9.425781 0-17.066406 8.191406-17.066406 18.292969s7.640625 18.292969 17.066406 18.292969c9.425782 0 17.066407-8.191406 17.066407-18.292969zm0 0"/><path d="m304.886719 191.148438c-1.671875-4.40625-6.601563-6.617188-11.007813-4.941407-4.40625 1.671875-6.617187 6.601563-4.941406 11.007813s6.605469 6.617187 11.007812 4.941406c4.40625-1.675781 6.617188-6.605469 4.941407-11.007812zm0 0" fill="#fff"/><path d="m435.199219 512h-358.398438c-2.566406 0-4.996093-1.15625-6.617187-3.144531s-2.261719-4.601563-1.742188-7.113281l28.910156-139.921876c3.722657-12.847656 15.882813-21.371093 29.226563-20.488281h258.894531c13.359375-.878906 25.527344 7.667969 29.238282 20.53125l28.84375 139.878907c.519531 2.511718-.121094 5.121093-1.742188 7.113281-1.617188 1.988281-4.046875 3.140625-6.613281 3.144531zm-347.925781-17.066406h337.457031l-26.742188-129.664063c-2.261719-4.742187-7.300781-7.507812-12.515625-6.871093h-258.894531c-5.199219-.632813-10.226563 2.109374-12.503906 6.828124zm0 0"/><path d="m324.265625 358.398438h-136.53125c-4.714844 0-8.535156-3.820313-8.535156-8.535157v-42.664062c0-4.714844 3.820312-8.535157 8.535156-8.535157h136.53125c4.714844 0 8.535156 3.820313 8.535156 8.535157v42.664062c0 4.714844-3.820312 8.535157-8.535156 8.535157zm-128-17.066407h119.46875v-25.601562h-119.46875zm0 0"/><path d="m324.265625 315.730469h-136.53125c-37.6875-.042969-68.222656-30.582031-68.269531-68.265625v-57.34375c.335937-21.640625 12.808594-65.292969 57.660156-76.542969 15.777344-4.207031 32.484375-3.28125 47.699219 2.644531 20.105469 7.503906 42.246093 7.503906 62.351562 0 15.214844-5.921875 31.917969-6.851562 47.695313-2.648437 44.855468 11.253906 57.328125 54.902343 57.664062 76.414062v57.476563c-.042968 37.683594-30.582031 68.222656-68.269531 68.265625zm-127.285156-187.730469c-5.304688.058594-10.582031.773438-15.710938 2.132812-43.21875 10.835938-44.695312 58.132813-44.734375 60.140626v57.191406c.027344 28.265625 22.933594 51.167968 51.199219 51.199218h136.53125c28.265625-.03125 51.171875-22.933593 51.199219-51.199218v-57.25c-.066406-2.738282-1.875-49.332032-44.738282-60.085938-12.726562-3.433594-26.226562-2.597656-38.429687 2.375-23.441406 8.554688-49.152344 8.554688-72.59375 0-7.28125-2.722656-14.953125-4.246094-22.722656-4.503906zm0 0"/><path d="m102.398438 512h-93.863282c-4.714844 0-8.535156-3.820312-8.535156-8.535156v-7.59375c-.0117188-11.621094 1.390625-23.199219 4.175781-34.480469l7.9375-32.160156c10.019531-37.453125 44.359375-63.191407 83.117188-62.296875h8.023437c4.710938 0 8.53125 3.820312 8.53125 8.53125 0 4.714844-3.820312 8.535156-8.53125 8.535156h-8.023437c-30.898438-.875-58.386719 19.492188-66.550781 49.308594l-7.9375 32.183594c-2.378907 9.632812-3.609376 19.515624-3.667969 29.441406h85.324219c4.714843 0 8.535156 3.820312 8.535156 8.53125 0 4.714844-3.820313 8.535156-8.535156 8.535156zm0 0"/><path d="m503.464844 512h-93.863282c-4.714843 0-8.535156-3.820312-8.535156-8.535156 0-4.710938 3.820313-8.53125 8.535156-8.53125h85.332032c-.058594-9.921875-1.289063-19.800782-3.667969-29.433594l-7.9375-32.179688c-8.160156-29.820312-35.65625-50.195312-66.558594-49.320312h-7.9375c-4.710937 0-8.535156-3.820312-8.535156-8.535156 0-4.710938 3.824219-8.53125 8.535156-8.53125h7.9375c38.761719-.894532 73.105469 24.847656 83.125 62.308594l7.933594 32.15625c2.785156 11.277343 4.183594 22.855468 4.171875 34.472656v7.59375c0 4.714844-3.820312 8.535156-8.535156 8.535156zm0 0"/><path d="m384 230.398438c-4.710938 0-8.535156-3.820313-8.535156-8.535157 0-4.710937 3.824218-8.53125 8.535156-8.53125 5.851562-.015625 10.882812-4.140625 12.046875-9.875l4.070313-15.984375c7.824218-30.640625 1.054687-63.179687-18.34375-88.152344-19.398438-24.976562-49.25-39.589843-80.875-39.589843h-89.796876c-31.625 0-61.476562 14.613281-80.875 39.589843-19.402343 24.976563-26.171874 57.515626-18.34375 88.15625l3.972657 15.546876c1.039062 5.910156 6.144531 10.242187 12.144531 10.308593 4.714844 0 8.535156 3.820313 8.535156 8.53125 0 4.714844-3.820312 8.535157-8.535156 8.535157-13.980469-.03125-26.007812-9.890626-28.78125-23.589844l-3.867188-15.109375c-9.132812-35.75-1.234374-73.710938 21.398438-102.847657 22.628906-29.140624 57.457031-46.1875 94.351562-46.1875h89.796876c36.898437 0 71.722656 17.046876 94.351562 46.1875 22.632812 29.136719 30.53125 67.097657 21.398438 102.847657l-3.96875 15.546875c-2.894532 13.519531-14.851563 23.171875-28.679688 23.152344zm0 0"/><path d="m332.296875 64.253906c-3.238281.003906-6.195313-1.820312-7.644531-4.714844-12.984375-26.027343-39.566406-42.472656-68.652344-42.472656s-55.667969 16.445313-68.652344 42.472656c-2.109375 4.214844-7.234375 5.921876-11.453125 3.816407-4.214843-2.109375-5.921875-7.234375-3.816406-11.453125 15.878906-31.804688 48.371094-51.902344 83.921875-51.902344s68.042969 20.097656 83.921875 51.902344c1.320313 2.644531 1.179687 5.785156-.371094 8.300781-1.554687 2.515625-4.296875 4.050781-7.253906 4.050781zm0 0"/><path d="m85.335938 477.863281c-3.59375.003907-6.804688-2.246093-8.027344-5.628906-1.226563-3.378906-.199219-7.167969 2.566406-9.464844 24.359375-19.96875 50.632812-37.476562 78.4375-52.269531 21.304688-10.648438 53.355469-7.480469 77.9375 7.71875 7.6875 4.59375 14.398438 10.652344 19.75 17.832031 5.351562-7.179687 12.058594-13.238281 19.746094-17.832031 24.582031-15.203125 56.621094-18.382812 77.9375-7.722656 27.804687 14.792968 54.078125 32.300781 78.4375 52.269531 3.582031 3.027344 4.050781 8.371094 1.054687 11.976563-2.996093 3.601562-8.335937 4.117187-11.964843 1.148437-23.378907-19.089844-48.550782-35.878906-75.160157-50.128906-16.023437-8.007813-41.820312-5.082031-61.335937 6.972656-12.824219 7.929687-20.179688 18.15625-20.179688 28.0625 0 4.714844-3.820312 8.535156-8.535156 8.535156-4.710938 0-8.535156-3.820312-8.535156-8.535156 0-9.90625-7.355469-20.132813-20.179688-28.0625-19.511718-12.046875-45.292968-14.996094-61.335937-6.96875-26.609375 14.246094-51.78125 31.035156-75.160157 50.128906-1.53125 1.277344-3.460937 1.972657-5.453124 1.96875zm0 0"/><path d="m170.230469 423.507812c-4.300781-.007812-7.925781-3.210937-8.457031-7.480468l-8.105469-65.109375c-.496094-4.628907 2.808593-8.800781 7.429687-9.378907 4.621094-.574218 8.851563 2.660157 9.503906 7.273438l8.105469 65.109375c.300781 2.429687-.457031 4.871094-2.078125 6.703125-1.621094 1.835938-3.953125 2.882812-6.398437 2.882812zm0 0"/><path d="m341.769531 423.507812c-2.445312 0-4.777343-1.050781-6.398437-2.882812-1.621094-1.835938-2.378906-4.277344-2.078125-6.707031l8.105469-65.109375c.652343-4.609375 4.882812-7.84375 9.503906-7.269532 4.621094.574219 7.925781 4.75 7.429687 9.378907l-8.105469 65.109375c-.53125 4.265625-4.15625 7.472656-8.457031 7.480468zm0 0"/></svg>