<svg height="512pt" viewBox="0 0 512.00015 512" width="512pt" xmlns="http://www.w3.org/2000/svg"><path d="m187.734375 289.570312h136.53125v77.925782h-136.53125zm0 0" fill="#fec108"/><path d="m409.601562 503.464844h93.867188l-.003906-7.59375c.015625-10.925782-1.300782-21.816406-3.921875-32.425782l-7.9375-32.171874c-9.203125-33.554688-40.046875-56.558594-74.835938-55.808594h-321.539062c-34.789063-.75-65.632813 22.253906-74.835938 55.808594l-7.9375 32.171874c-2.621093 10.609376-3.9375 21.5-3.921875 32.425782v7.59375zm0 0" fill="#cfd8dc"/><path d="m329.558594 349.867188c-13.65625 8.105468-43.519532 29.953124-76.886719 39.9375h-.085937c-33.363282-6.402344-61.867188-31.0625-73.128907-39.9375zm0 0" fill="#ffdc00"/><path d="m435.199219 503.464844h-358.398438l28.925781-139.945313c2.945313-8.820312 11.558594-14.46875 20.824219-13.652343h57.171875c20.183594 15.710937 43.769532 26.464843 68.863282 31.402343h.085937c25.371094-7.539062 49.75-18.082031 72.617187-31.402343h60.160157c9.285156-.816407 17.921875 4.824218 20.90625 13.652343zm0 0" fill="#f5f5f5"/><path d="m384 115.96875v131.496094c.011719 15.847656-6.277344 31.046875-17.484375 42.253906-11.203125 11.203125-26.402344 17.492188-42.25 17.480469h-136.53125c-15.847656.011719-31.046875-6.277344-42.25-17.480469-11.207031-11.207031-17.496094-26.40625-17.484375-42.253906v-131.496094" fill="#fec108"/><path d="m358.398438 115.96875v131.496094c0 33.027344-21.367188 59.734375-47.785157 59.734375h-109.226562c-26.417969 0-47.785157-26.707031-47.785157-59.734375v-131.496094" fill="#ffdc00"/><path d="m434.6875 79.300781c1.78125 9.953125-.941406 20.183594-7.429688 27.933594-6.488281 7.753906-16.082031 12.234375-26.191406 12.230469v29.253906c.011719 2.867188-1.421875 5.546875-3.8125 7.128906-2.390625 1.585938-5.417968 1.855469-8.054687.722656-42.070313-18.246093-87.347657-27.953124-133.199219-28.570312-45.851562.617188-91.128906 10.328125-133.199219 28.570312-2.636719 1.132813-5.664062.863282-8.054687-.71875-2.394532-1.585937-3.824219-4.265624-3.8125-7.132812v-29.253906c-16.582032.019531-30.777344-11.882813-33.648438-28.214844s6.414063-32.363281 22.007813-38c9.609375-3.515625 20.292969-2.480469 29.046875 2.8125l-.082032-.5625c-1.09375-9.109375 1.503907-18.277344 7.207032-25.464844 5.703125-7.183594 14.042968-11.792968 23.164062-12.796875 12.148438-1.292969 24.050782 4.050781 31.152344 13.992188 4.1875-11.816407 14.527344-20.382813 26.917969-22.296875 12.394531-1.914063 24.835937 3.132812 32.394531 13.136718 1.613281 2.199219 4.179688 3.496094 6.90625 3.496094s5.292969-1.296875 6.90625-3.496094c7.558594-10.003906 20-15.050781 32.394531-13.136718 12.390625 1.914062 22.730469 10.480468 26.917969 22.296875 7.101562-9.941407 19.003906-15.285157 31.15625-13.992188 9.117188 1.003907 17.457031 5.613281 23.160156 12.796875 5.703125 7.1875 8.300782 16.355469 7.207032 25.464844l-.082032.5625c8.753906-5.292969 19.4375-6.328125 29.046875-2.8125 11.445313 4.144531 19.820313 14.070312 21.980469 26.050781zm0 0" fill="#f5f5f5"/><path d="m349.867188 349.867188c-.007813 2.746093-1.34375 5.324218-3.585938 6.910156-27.765625 18.347656-58.226562 32.253906-90.28125 41.21875-.429688.203125-.890625.316406-1.367188.339844-16.265624 4.820312-32.90625 8.277343-49.746093 10.324218l-.085938 94.804688h-17.066406v-94.804688c.046875-8.605468 6.476563-15.839844 15.019531-16.894531 5.628906-.683594 11.089844-1.535156 16.46875-2.558594h.085938c11.226562-2.035156 22.339844-4.6875 33.277344-7.9375h.085937c25.371094-7.539062 49.75-18.082031 72.617187-31.402343zm0 0" fill="#7f8c8d"/><path d="m261.460938 391.507812c-.507813 2.996094-2.597657 5.476563-5.460938 6.488282-.429688.203125-.890625.316406-1.367188.339844-.496093.140624-1.015624.199218-1.535156.171874-.488281.03125-.980468-.027343-1.449218-.171874-11.054688-1.964844-21.890626-5.023438-32.339844-9.128907h-.085938c-20.191406-7.449219-38.738281-18.753906-54.613281-33.28125-1.59375-1.613281-2.484375-3.792969-2.476563-6.058593h21.589844c20.183594 15.710937 43.769532 26.464843 68.863282 31.402343h.085937c.597656.085938 1.195313.257813 1.878906.339844 2.242188.367187 4.242188 1.628906 5.542969 3.492187 1.300781 1.863282 1.796875 4.175782 1.367188 6.40625zm0 0" fill="#7f8c8d"/><g fill="#2c2f38"><path d="m238.933594 435.199219c0 4.714843-3.820313 8.535156-8.535156 8.535156-4.710938 0-8.53125-3.820313-8.53125-8.535156 0-4.710938 3.820312-8.53125 8.53125-8.53125 4.714843 0 8.535156 3.820312 8.535156 8.53125zm0 0"/><path d="m238.933594 469.332031c0 4.714844-3.820313 8.535157-8.535156 8.535157-4.710938 0-8.53125-3.820313-8.53125-8.535157 0-4.710937 3.820312-8.53125 8.53125-8.53125 4.714843 0 8.535156 3.820313 8.535156 8.53125zm0 0"/><path d="m290.132812 435.199219c0 4.714843-3.820312 8.535156-8.53125 8.535156-4.714843 0-8.535156-3.820313-8.535156-8.535156 0-4.710938 3.820313-8.53125 8.535156-8.53125 4.710938 0 8.53125 3.820312 8.53125 8.53125zm0 0"/><path d="m290.132812 469.332031c0 4.714844-3.820312 8.535157-8.53125 8.535157-4.714843 0-8.535156-3.820313-8.535156-8.535157 0-4.710937 3.820313-8.53125 8.535156-8.53125 4.710938 0 8.53125 3.820313 8.53125 8.53125zm0 0"/></g><path d="m296.339844 260.265625c-6.894532 13.492187-28.414063 15.402344-40.167969 15.402344-11.78125 0-33.277344-1.910157-40.171875-15.402344 13.148438 3.238281 26.628906 4.929687 40.171875 5.035156 13.539063-.105469 27.023437-1.792969 40.167969-5.035156zm0 0"/><path d="m233.648438 171.425781c-8.109376-2.980469-16.625-4.707031-25.257813-5.121093-11.601563-.875-23.214844 1.601562-33.449219 7.132812 1.167969-14.933594 35.789063-17.882812 52.710938-14.042969 2.683594.332031 5.019531 1.988281 6.226562 4.40625 1.207032 2.417969 1.121094 5.28125-.230468 7.625zm0 0"/><path d="m230.398438 197.8125c0-10.101562-7.640626-18.292969-17.066407-18.292969s-17.066406 8.191407-17.066406 18.292969 7.640625 18.292969 17.066406 18.292969 17.066407-8.191407 17.066407-18.292969zm0 0"/><path d="m218.117188 181.941406c-4.40625-1.675781-9.332032.535156-11.007813 4.941406s.535156 9.335938 4.941406 11.007813c4.40625 1.675781 9.332031-.535156 11.007813-4.941406 1.675781-4.402344-.535156-9.332031-4.941406-11.007813zm0 0" fill="#fff"/><path d="m278.351562 171.425781c8.109376-2.980469 16.625-4.707031 25.257813-5.121093 11.601563-.875 23.214844 1.601562 33.449219 7.132812-1.167969-14.933594-35.789063-17.882812-52.710938-14.042969-2.683594.332031-5.019531 1.988281-6.226562 4.40625-1.207032 2.417969-1.117188 5.28125.230468 7.625zm0 0"/><path d="m315.734375 197.8125c0-10.101562-7.640625-18.292969-17.066406-18.292969s-17.066407 8.191407-17.066407 18.292969 7.640626 18.292969 17.066407 18.292969 17.066406-8.191407 17.066406-18.292969zm0 0"/><path d="m304.890625 186.882812c-1.675781-4.40625-6.605469-6.617187-11.007813-4.941406-4.40625 1.675782-6.617187 6.605469-4.941406 11.007813 1.671875 4.40625 6.601563 6.617187 11.007813 4.945312 4.40625-1.675781 6.617187-6.605469 4.941406-11.011719zm0 0" fill="#fff"/><path d="m435.199219 512h-358.398438c-2.566406 0-4.996093-1.152344-6.617187-3.144531-1.621094-1.988281-2.261719-4.601563-1.742188-7.113281l28.910156-139.921876c3.722657-12.84375 15.882813-21.367187 29.226563-20.488281h258.894531c13.359375-.875 25.527344 7.667969 29.238282 20.535157l28.84375 139.875c.519531 2.511718-.121094 5.125-1.742188 7.113281-1.617188 1.988281-4.046875 3.144531-6.613281 3.144531zm-347.925781-17.066406h337.457031l-26.742188-129.664063c-2.261719-4.738281-7.300781-7.507812-12.515625-6.871093h-258.894531c-5.199219-.632813-10.226563 2.113281-12.503906 6.828124zm0 0"/><path d="m324.265625 358.398438h-136.53125c-4.714844 0-8.535156-3.820313-8.535156-8.53125v-42.667969c0-4.710938 3.820312-8.53125 8.535156-8.53125h136.53125c4.714844 0 8.535156 3.820312 8.535156 8.53125v42.667969c0 4.710937-3.820312 8.53125-8.535156 8.53125zm-128-17.066407h119.46875v-25.597656h-119.46875zm0 0"/><path d="m324.265625 315.734375h-136.53125c-37.6875-.042969-68.222656-30.582031-68.269531-68.269531v-93.097656c0-4.710938 3.824218-8.53125 8.535156-8.53125 4.714844 0 8.535156 3.820312 8.535156 8.53125v93.097656c.027344 28.265625 22.933594 51.171875 51.199219 51.203125h136.53125c28.265625-.03125 51.171875-22.9375 51.199219-51.203125v-93.097656c0-4.710938 3.824218-8.53125 8.535156-8.53125 4.714844 0 8.535156 3.820312 8.535156 8.53125v93.097656c-.046875 37.6875-30.582031 68.226562-68.269531 68.269531zm0 0"/><path d="m102.398438 512h-93.863282c-4.714844 0-8.535156-3.820312-8.535156-8.535156v-7.59375c-.0117188-11.617188 1.390625-23.195313 4.175781-34.480469l7.9375-32.160156c10.019531-37.453125 44.359375-63.191407 83.117188-62.296875h8.023437c4.710938 0 8.53125 3.820312 8.53125 8.53125 0 4.714844-3.820312 8.535156-8.53125 8.535156h-8.023437c-30.898438-.875-58.386719 19.496094-66.550781 49.308594l-7.9375 32.183594c-2.378907 9.636718-3.609376 19.519531-3.667969 29.441406h85.324219c4.714843 0 8.535156 3.820312 8.535156 8.53125 0 4.714844-3.820313 8.535156-8.535156 8.535156zm0 0"/><path d="m503.464844 512h-93.863282c-4.714843 0-8.535156-3.820312-8.535156-8.535156 0-4.710938 3.820313-8.53125 8.535156-8.53125h85.332032c-.058594-9.921875-1.289063-19.800782-3.667969-29.433594l-7.9375-32.179688c-8.160156-29.820312-35.65625-50.195312-66.558594-49.320312h-7.9375c-4.710937 0-8.535156-3.820312-8.535156-8.535156 0-4.710938 3.824219-8.53125 8.535156-8.53125h7.9375c38.761719-.894532 73.105469 24.851562 83.125 62.308594l7.933594 32.15625c2.785156 11.28125 4.183594 22.855468 4.171875 34.472656v7.59375c0 4.714844-3.820312 8.535156-8.535156 8.535156zm0 0"/><path d="m392.570312 165.8125c-2.332031 0-4.640624-.484375-6.777343-1.417969-41.019531-17.703125-85.121094-27.171875-129.792969-27.859375-44.671875.6875-88.773438 10.15625-129.792969 27.859375-5.273437 2.28125-11.339843 1.753907-16.136719-1.40625-4.800781-3.160156-7.683593-8.527343-7.671874-14.273437v-21.574219c-15.023438-3.058594-27.246094-13.945313-32.019532-28.515625-4.773437-14.570312-1.359375-30.578125 8.945313-41.933594 10.300781-11.355468 25.902343-16.308594 40.867187-12.972656 2.589844-14.582031 12.5625-26.78125 26.339844-32.21875s29.390625-3.339844 41.246094 5.542969c8.039062-10.707031 20.636718-17.0195315 34.027344-17.042969 13.386718-.0234375 26.011718 6.242188 34.085937 16.921875 8.152344-10.671875 20.816406-16.9296875 34.242187-16.921875 13.414063-.00390625 26.042969 6.3125 34.085938 17.042969 18.515625-13.898438 44.738281-10.457031 59.039062 7.746093 4.367188 5.507813 7.324219 12.003907 8.605469 18.917969 11.347657-2.527343 23.234375-.308593 32.910157 6.140625 9.671874 6.445313 16.292968 16.566406 18.324218 28.015625 4.035156 22.789063-10.820312 44.644531-33.496094 49.277344v21.574219c.011719 9.421875-7.609374 17.070312-17.03125 17.097656zm-136.570312-46.347656c47.035156.554687 93.480469 10.507812 136.609375 29.28125l-.074219-29.28125c0-4.710938 3.820313-8.53125 8.53125-8.53125 7.59375 0 14.796875-3.371094 19.664063-9.203125 4.867187-5.832031 6.898437-13.519531 5.539062-20.992188-1.632812-8.945312-7.890625-16.351562-16.4375-19.457031-7.199219-2.652344-15.21875-1.882812-21.78125 2.097656-2.839843 1.703125-6.410156 1.609375-9.15625-.238281-2.746093-1.847656-4.179687-5.117187-3.667969-8.390625 1.644532-11.644531-4.863281-22.90625-15.769531-27.300781-10.902343-4.398438-23.402343-.792969-30.289062 8.738281-1.851563 2.597656-5 3.945312-8.160157 3.496094-3.15625-.453125-5.800781-2.628906-6.851562-5.640625-3.148438-8.851563-10.902344-15.253907-20.183594-16.679688-9.285156-1.425781-18.601562 2.359375-24.261718 9.859375-3.339844 4.144532-8.378907 6.558594-13.707032 6.558594-5.324218.003906-10.367187-2.40625-13.710937-6.550781-5.65625-7.5-14.972657-11.292969-24.261719-9.867188-9.285156 1.421875-17.039062 7.828125-20.1875 16.679688-1.050781 3.011719-3.695312 5.191406-6.851562 5.640625-3.160157.453125-6.308594-.898438-8.160157-3.496094-6.886719-9.382812-19.230469-12.949219-30.058593-8.679688-10.832032 4.265626-17.425782 15.296876-16.054688 26.855469.453125 3.324219-.988281 6.621094-3.730469 8.546875-2.671875 1.878906-6.1875 2.058594-9.039062.464844-6.5625-3.980469-14.585938-4.75-21.785157-2.089844-11.667968 4.257813-18.59375 16.273438-16.433593 28.5 2.160156 12.230469 12.785156 21.144532 25.203125 21.148438 4.710937 0 8.53125 3.820312 8.53125 8.53125v29.25c43.105468-18.753906 89.527344-28.699219 136.535156-29.25zm0 0"/><path d="m358.398438 110.9375c-1.082032-.003906-2.15625-.210938-3.164063-.613281-40.605469-16.242188-98.65625-16.457031-99.234375-16.457031s-58.628906.214843-99.230469 16.457031c-4.375 1.753906-9.34375-.375-11.09375-4.753907-1.75-4.375.375-9.34375 4.753907-11.09375 43.691406-17.476562 103.066406-17.675781 105.570312-17.675781s61.878906.199219 105.570312 17.675781c3.808594 1.511719 6 5.519532 5.226563 9.542969-.773437 4.023438-4.300781 6.925781-8.398437 6.917969zm0 0"/><path d="m196.265625 512c-4.710937 0-8.53125-3.820312-8.53125-8.535156v-94.808594c.046875-8.613281 6.480469-15.851562 15.027344-16.910156 47.613281-6.152344 93.257812-22.832032 133.617187-48.828125 3.835938-2.738281 9.167969-1.847657 11.90625 1.988281 2.734375 3.839844 1.84375 9.167969-1.992187 11.90625-42.578125 27.8125-90.9375 45.550781-141.398438 51.867188l-.09375 94.785156c0 4.714844-3.820312 8.535156-8.535156 8.535156zm0 0"/><path d="m253.109375 398.507812c-.503906 0-1.003906-.046874-1.5-.132812-32.425781-5.648438-62.585937-20.375-86.976563-42.476562-3.25-3.339844-3.214843-8.675782.078126-11.972657 3.292968-3.300781 8.628906-3.347656 11.976562-.105469 21.996094 19.519532 48.957031 32.582032 77.90625 37.753907 4.34375.78125 7.375 4.746093 6.988281 9.144531s-4.058593 7.773438-8.472656 7.789062zm0 0"/><path d="m238.933594 435.199219c0 4.714843-3.820313 8.535156-8.535156 8.535156-4.710938 0-8.53125-3.820313-8.53125-8.535156 0-4.710938 3.820312-8.53125 8.53125-8.53125 4.714843 0 8.535156 3.820312 8.535156 8.53125zm0 0"/><path d="m238.933594 469.332031c0 4.714844-3.820313 8.535157-8.535156 8.535157-4.710938 0-8.53125-3.820313-8.53125-8.535157 0-4.710937 3.820312-8.53125 8.53125-8.53125 4.714843 0 8.535156 3.820313 8.535156 8.53125zm0 0"/><path d="m290.132812 435.199219c0 4.714843-3.820312 8.535156-8.53125 8.535156-4.714843 0-8.535156-3.820313-8.535156-8.535156 0-4.710938 3.820313-8.53125 8.535156-8.53125 4.710938 0 8.53125 3.820312 8.53125 8.53125zm0 0"/><path d="m290.132812 469.332031c0 4.714844-3.820312 8.535157-8.53125 8.535157-4.714843 0-8.535156-3.820313-8.535156-8.535157 0-4.710937 3.820313-8.53125 8.535156-8.53125 4.710938 0 8.53125 3.820313 8.53125 8.53125zm0 0"/></svg>