<svg height="512pt" viewBox="0 0 512 512.00008" width="512pt" xmlns="http://www.w3.org/2000/svg"><path d="m118.613281 111.105469 10.753907-59.820313c4.160156-24.664062 25.503906-42.726562 50.515624-42.75h152.234376c25.011718.023438 46.355468 18.085938 50.515624 42.75l10.753907 59.820313zm0 0" fill="#a0522d"/><path d="m503.464844 495.871094.003906 7.59375h-494.933594v-7.59375c-.015625-10.925782 1.300782-21.816406 3.921875-32.425782l7.9375-32.171874c9.207031-33.554688 40.046875-56.558594 74.835938-55.808594h321.539062c34.789063-.75 65.632813 22.253906 74.835938 55.808594l7.9375 32.171874c2.621093 10.609376 3.9375 21.5 3.921875 32.425782zm0 0" fill="#783e22"/><path d="m187.734375 282.90625h136.53125v91.253906h-136.53125zm0 0" fill="#fec108"/><path d="m435.199219 175.105469c-16.460938 6.363281-33.664063 10.605469-51.199219 12.628906h-256c-17.53125-2.023437-34.738281-6.265625-51.199219-12.628906-34.132812-17.066407-25.601562-42.667969 0-51.203125 85.332031-8.53125 119.464844 25.601562 179.199219 25.601562 68.265625 0 93.867188-34.132812 179.199219-25.601562 25.601562 8.535156 34.132812 34.136718 0 51.203125zm0 0" fill="#783e22"/><path d="m381.609375 111.273438c1.582031 5.4375 2.386719 11.066406 2.390625 16.726562v119.464844c.011719 15.847656-6.277344 31.046875-17.484375 42.253906-11.203125 11.203125-26.402344 17.492188-42.25 17.480469h-136.53125c-15.847656.011719-31.046875-6.277344-42.25-17.480469-11.207031-11.207031-17.496094-26.40625-17.484375-42.253906v-119.464844c.003906-5.714844.808594-11.402344 2.390625-16.894531zm0 0" fill="#fec108"/><path d="m356.488281 111.273438c1.269531 5.484374 1.914063 11.097656 1.910157 16.726562v119.464844c0 33.027344-21.367188 59.734375-47.785157 59.734375h-109.226562c-26.417969 0-47.785157-26.707031-47.785157-59.734375v-119.464844c0-5.6875.640626-11.355469 1.910157-16.894531zm0 0" fill="#ffdc00"/><path d="m435.199219 123.902344c-85.332031-8.53125-110.933594 25.601562-179.199219 25.601562-59.734375 0-93.867188-34.132812-179.199219-25.601562 13.433594-5.761719 27.453125-10.054688 41.8125-12.796875 45.199219-9.226563 91.261719-13.515625 137.386719-12.800781 46.125-.714844 92.1875 3.574218 137.386719 12.800781 14.359375 2.742187 28.378906 7.035156 41.8125 12.796875zm0 0" fill="#a0522d"/><path d="m332.800781 349.867188c-36.265625 7.253906-39.339843 35.328124-41.984375 41.042968-2.753906-1.75-5.953125-2.671875-9.214844-2.644531h-51.203124c-3.261719-.027344-6.460938.894531-9.214844 2.644531-2.644532-5.714844-5.71875-33.789062-41.984375-41.042968zm0 0" fill="#ffdc00"/><path d="m435.199219 503.464844h-358.398438l26.453125-128 2.472656-11.945313c2.945313-8.820312 11.558594-14.46875 20.824219-13.652343h52.648438c18.066406 2.480468 34.558593 11.609374 46.25 25.597656 1.640625 2.164062 3.070312 4.480468 4.269531 6.914062 2.75-1.753906 5.953125-2.671875 9.214844-2.644531h34.132812c3.261719-.027344 6.464844.890625 9.214844 2.644531 1.199219-2.433594 2.628906-4.75 4.269531-6.914062 11.691407-13.988282 28.183594-23.117188 46.25-25.597656h52.648438c9.285156-.816407 17.921875 4.824218 20.90625 13.652343l2.476562 11.945313zm0 0" fill="#a0522d"/><path d="m230.398438 384-8.277344 32.9375-.253906 1.195312s-68.265626 17.066407-85.332032-68.265624h42.664063c36.265625 7.253906 47.871093 26.792968 50.519531 32.511718.269531.519532.5 1.0625.679688 1.621094zm0 0" fill="#c81e1e"/><path d="m375.464844 349.867188c-17.066406 85.332031-85.332032 68.265624-85.332032 68.265624l-.253906-1.195312-8.277344-32.9375c.179688-.558594.410157-1.101562.679688-1.621094 2.648438-5.71875 14.253906-25.257812 50.519531-32.511718zm0 0" fill="#c81e1e"/><path d="m247.464844 422.398438v81.066406h-17.066406v-81.066406c0-4.710938 3.820312-8.53125 8.535156-8.53125 4.710937 0 8.53125 3.820312 8.53125 8.53125zm0 0" fill="#5e5f62"/><path d="m290.132812 396.800781v17.066407c0 1.027343-.085937 2.054687-.253906 3.070312-1.535156 8.085938-8.582031 13.953125-16.8125 13.996094h-34.132812c-8.230469-.042969-15.277344-5.910156-16.8125-13.996094-.167969-1.015625-.253906-2.042969-.253906-3.070312v-17.066407c.03125-5.820312 2.980468-11.238281 7.851562-14.421875 2.75-1.753906 5.953125-2.671875 9.214844-2.644531h34.132812c3.261719-.027344 6.464844.890625 9.214844 2.644531 4.871094 3.183594 7.820312 8.601563 7.851562 14.421875zm0 0" fill="#c81e1e"/><path d="m299.734375 230.667969c-4.707031 14.523437-26.84375 21.660156-38.832031 23.757812-12.015625 2.105469-34.261719 4.0625-43.617188-8 13.980469.84375 28.011719.101563 41.828125-2.210937 14-3.003906 27.621094-7.546875 40.621094-13.546875zm0 0"/><path d="m232.042969 172.5c-7.402344-4.460938-15.445313-7.761719-23.84375-9.796875-11.230469-3.050781-23.101563-2.8125-34.199219.691406 3.964844-14.445312 38.523438-10.808593 54.417969-3.839843 2.570312.832031 4.554687 2.898437 5.285156 5.5.726563 2.605468.105469 5.398437-1.660156 7.445312zm0 0"/><path d="m230.398438 189.28125c0-10.105469-7.640626-18.292969-17.066407-18.292969s-17.066406 8.1875-17.066406 18.292969c0 10.101562 7.640625 18.289062 17.066406 18.289062s17.066407-8.1875 17.066407-18.289062zm0 0"/><path d="m218.117188 173.40625c-4.402344-1.675781-9.332032.539062-11.007813 4.945312-1.675781 4.402344.535156 9.332032 4.941406 11.007813s9.335938-.539063 11.007813-4.941406c1.675781-4.40625-.535156-9.335938-4.941406-11.011719zm0 0" fill="#fff"/><path d="m279.046875 174.289062c6.050781-7.96875 14.457031-13.828124 24.027344-16.742187 12.871093-3.429687 26.5625.914063 35.09375 11.144531-.132813-.128906.132812-2.851562.085937-3.273437-.140625-1.105469-.4375-2.1875-.886718-3.207031-1.003907-2.179688-2.480469-4.109376-4.320313-5.644532-4.582031-3.722656-10.035156-6.214844-15.84375-7.246094-7.722656-1.746093-15.773437-1.347656-23.28125 1.152344-4.523437 1.5625-8.683594 4.015625-12.238281 7.214844-3.136719 2.867188-7.777344 8.148438-5.761719 12.957031.933594 1.304688 1.976563 2.523438 3.125 3.644531zm0 0"/><path d="m315.734375 189.28125c0-10.105469-7.640625-18.292969-17.066406-18.292969s-17.066407 8.1875-17.066407 18.292969c0 10.101562 7.640626 18.289062 17.066407 18.289062s17.066406-8.1875 17.066406-18.289062zm0 0"/><path d="m304.890625 178.347656c-1.675781-4.402344-6.605469-6.617187-11.007813-4.941406-4.40625 1.675781-6.617187 6.605469-4.941406 11.011719 1.671875 4.402343 6.601563 6.617187 11.007813 4.941406s6.617187-6.605469 4.941406-11.011719zm0 0" fill="#fff"/><path d="m435.199219 512h-358.398438c-2.566406 0-4.996093-1.152344-6.617187-3.144531-1.621094-1.988281-2.261719-4.601563-1.742188-7.113281l28.910156-139.921876c3.722657-12.84375 15.886719-21.367187 29.230469-20.488281h258.894531c13.363282-.882812 25.535157 7.671875 29.230469 20.542969l28.855469 139.867188c.519531 2.511718-.121094 5.128906-1.742188 7.117187-1.621093 1.988281-4.054687 3.140625-6.621093 3.140625zm-347.925781-17.066406h337.453124l-26.742187-129.664063c-2.257813-4.742187-7.296875-7.511719-12.507813-6.871093h-258.894531c-5.199219-.632813-10.226562 2.109374-12.507812 6.828124zm0 0"/><path d="m324.265625 358.398438h-136.53125c-4.714844 0-8.535156-3.820313-8.535156-8.53125v-42.667969c0-4.710938 3.820312-8.53125 8.535156-8.53125h136.53125c4.714844 0 8.535156 3.820312 8.535156 8.53125v42.667969c0 4.710937-3.820312 8.53125-8.535156 8.53125zm-128-17.066407h119.46875v-25.597656h-119.46875zm0 0"/><path d="m324.265625 315.734375h-136.53125c-37.6875-.042969-68.222656-30.582031-68.269531-68.269531v-119.464844c.007812-6.511719.925781-12.992188 2.726562-19.25.789063-2.988281 3.136719-5.316406 6.128906-6.085938 2.996094-.769531 6.171876.144532 8.304688 2.382813 2.128906 2.242187 2.882812 5.457031 1.964844 8.410156-1.359375 4.730469-2.050782 9.625-2.054688 14.542969v119.464844c.027344 28.265625 22.933594 51.171875 51.199219 51.203125h136.53125c28.265625-.03125 51.171875-22.9375 51.199219-51.203125v-119.464844c0-4.851562-.691406-9.679688-2.046875-14.335938-1.253907-4.503906 1.347656-9.175781 5.832031-10.484374 4.488281-1.304688 9.191406 1.238281 10.550781 5.710937 1.8125 6.207031 2.734375 12.640625 2.734375 19.109375v119.464844c-.046875 37.6875-30.582031 68.226562-68.269531 68.269531zm0 0"/><path d="m102.398438 512h-93.863282c-4.714844 0-8.535156-3.820312-8.535156-8.535156v-7.59375c-.0078125-11.617188 1.394531-23.191406 4.175781-34.472656l7.9375-32.164063c10.019531-37.449219 44.359375-63.1875 83.117188-62.300781h8.023437c4.710938 0 8.53125 3.820312 8.53125 8.53125 0 4.714844-3.820312 8.535156-8.53125 8.535156h-8.023437c-30.898438-.871094-58.390625 19.496094-66.558594 49.308594l-7.9375 32.179687c-2.371094 9.636719-3.605469 19.519531-3.667969 29.445313h85.332032c4.714843 0 8.535156 3.820312 8.535156 8.53125 0 4.714844-3.820313 8.535156-8.535156 8.535156zm0 0"/><path d="m503.464844 512h-93.863282c-4.714843 0-8.535156-3.820312-8.535156-8.535156 0-4.710938 3.820313-8.53125 8.535156-8.53125h85.332032c-.066406-9.921875-1.296875-19.804688-3.675782-29.441406l-7.9375-32.179688c-8.164062-29.8125-35.652343-50.183594-66.550781-49.3125h-7.9375c-4.710937 0-8.535156-3.820312-8.535156-8.535156 0-4.710938 3.824219-8.53125 8.535156-8.53125h7.9375c38.761719-.890625 73.105469 24.851562 83.125 62.308594l7.933594 32.160156c2.78125 11.28125 4.179687 22.855468 4.171875 34.46875v7.59375c0 4.714844-3.820312 8.535156-8.535156 8.535156zm0 0"/><path d="m256 158.039062c-23.734375-.699218-47.230469-4.976562-69.691406-12.683593-34.863282-12.097657-71.925782-16.515625-108.65625-12.960938-4.101563.417969-7.914063-2.15625-9.058594-6.117187-1.144531-3.960938.703125-8.171875 4.394531-10.007813 2.160157-1.078125 54.476563-26.5 183.011719-26.5s180.851562 25.421875 183.015625 26.5c3.691406 1.839844 5.539063 6.050781 4.394531 10.011719-1.144531 3.960938-4.957031 6.535156-9.058594 6.117188-34.605468-3.566407-69.570312.585937-102.375 12.15625-24.457031 8.472656-50.097656 13.023437-75.976562 13.484374zm-119.550781-41.789062c18.515625 2.820312 36.785156 7.074219 54.640625 12.722656 20.921875 7.203125 42.796875 11.246094 64.910156 12 24.21875-.457031 48.210938-4.765625 71.074219-12.765625 15.988281-5.199219 32.351562-9.167969 48.941406-11.875-39.640625-6.730469-79.808594-9.90625-120.015625-9.496093-40.050781-.402344-80.058594 2.746093-119.550781 9.414062zm0 0"/><path d="m128.007812 196.265625c-.449218 0-.898437-.035156-1.339843-.101563-18.414063-2.054687-36.472657-6.570312-53.683594-13.425781-24.992187-12.5-27.742187-28.113281-27.160156-36.304687 2.351562-14.996094 13.515625-27.089844 28.273437-30.625 4.472656-1.492188 9.304688.921875 10.796875 5.394531 1.492188 4.472656-.925781 9.304687-5.394531 10.796875-9.675781 3.222656-16.210938 9.359375-16.660156 15.640625-.472656 6.714844 6 13.945313 17.777344 19.828125 15.632812 6.109375 32.019531 10.089844 48.714843 11.832031 4.402344.691407 7.535157 4.652344 7.191407 9.097657-.347657 4.441406-4.058594 7.871093-8.515626 7.867187zm0 0"/><path d="m383.992188 196.265625c-4.453126 0-8.15625-3.429687-8.503907-7.867187-.347656-4.441407 2.78125-8.402344 7.179688-9.09375 16.695312-1.746094 33.078125-5.726563 48.714843-11.832032 11.777344-5.886718 18.25-13.113281 17.773438-19.832031-.449219-6.277344-6.980469-12.414063-16.65625-15.640625-2.890625-.964844-5.050781-3.398438-5.660156-6.386719-.613282-2.984375.417968-6.074219 2.699218-8.09375 2.28125-2.023437 5.46875-2.675781 8.359376-1.710937 14.761718 3.539062 25.925781 15.628906 28.277343 30.625.582031 8.191406-2.167969 23.804687-27.15625 36.300781-17.214843 6.859375-35.269531 11.375-53.6875 13.425781-.441406.070313-.890625.105469-1.339843.105469zm0 0"/><path d="m393.375 119.636719c-4.128906-.003907-7.660156-2.960938-8.390625-7.023438l-10.753906-59.820312c-3.394531-20.613281-21.21875-35.738281-42.113281-35.726563h-152.234376c-20.867187-.023437-38.683593 15.0625-42.101562 35.644532l-10.765625 59.90625c-.832031 4.636718-5.269531 7.722656-9.90625 6.890624-4.640625-.832031-7.726563-5.269531-6.894531-9.90625l10.753906-59.820312c4.820312-28.769531 29.746094-49.828125 58.914062-49.78125h152.234376c29.195312-.0390625 54.132812 21.054688 58.933593 49.855469l10.734375 59.742187c.449219 2.488282-.230468 5.046875-1.855468 6.988282-1.625 1.9375-4.023438 3.054687-6.554688 3.050781zm0 0"/><path d="m170.667969 221.867188c0 4.710937-3.820313 8.53125-8.535157 8.53125-4.710937 0-8.53125-3.820313-8.53125-8.53125 0-4.714844 3.820313-8.535157 8.53125-8.535157 4.714844 0 8.535157 3.820313 8.535157 8.535157zm0 0"/><path d="m170.667969 247.464844c0 4.714844-3.820313 8.535156-8.535157 8.535156-4.710937 0-8.53125-3.820312-8.53125-8.535156 0-4.710938 3.820313-8.53125 8.53125-8.53125 4.714844 0 8.535157 3.820312 8.535157 8.53125zm0 0"/><path d="m196.265625 247.464844c0 4.714844-3.820313 8.535156-8.53125 8.535156-4.714844 0-8.535156-3.820312-8.535156-8.535156 0-4.710938 3.820312-8.53125 8.535156-8.53125 4.710937 0 8.53125 3.820312 8.53125 8.53125zm0 0"/><path d="m196.265625 273.066406c0 4.714844-3.820313 8.535156-8.53125 8.535156-4.714844 0-8.535156-3.820312-8.535156-8.535156 0-4.710937 3.820312-8.53125 8.535156-8.53125 4.710937 0 8.53125 3.820313 8.53125 8.53125zm0 0"/><path d="m221.867188 273.066406c0 4.714844-3.820313 8.535156-8.535157 8.535156-4.710937 0-8.53125-3.820312-8.53125-8.535156 0-4.710937 3.820313-8.53125 8.53125-8.53125 4.714844 0 8.535157 3.820313 8.535157 8.53125zm0 0"/><path d="m358.398438 221.867188c0 4.710937-3.820313 8.53125-8.53125 8.53125-4.714844 0-8.535157-3.820313-8.535157-8.53125 0-4.714844 3.820313-8.535157 8.535157-8.535157 4.710937 0 8.53125 3.820313 8.53125 8.535157zm0 0"/><path d="m358.398438 247.464844c0 4.714844-3.820313 8.535156-8.53125 8.535156-4.714844 0-8.535157-3.820312-8.535157-8.535156 0-4.710938 3.820313-8.53125 8.535157-8.53125 4.710937 0 8.53125 3.820312 8.53125 8.53125zm0 0"/><path d="m332.800781 247.464844c0 4.714844-3.820312 8.535156-8.535156 8.535156-4.710937 0-8.53125-3.820312-8.53125-8.535156 0-4.710938 3.820313-8.53125 8.53125-8.53125 4.714844 0 8.535156 3.820312 8.535156 8.53125zm0 0"/><path d="m332.800781 273.066406c0 4.714844-3.820312 8.535156-8.535156 8.535156-4.710937 0-8.53125-3.820312-8.53125-8.535156 0-4.710937 3.820313-8.53125 8.53125-8.53125 4.714844 0 8.535156 3.820313 8.535156 8.53125zm0 0"/><path d="m307.199219 273.066406c0 4.714844-3.820313 8.535156-8.53125 8.535156-4.714844 0-8.535157-3.820312-8.535157-8.535156 0-4.710937 3.820313-8.53125 8.535157-8.53125 4.710937 0 8.53125 3.820313 8.53125 8.53125zm0 0"/><path d="m273.066406 443.734375h-34.132812c-14.132813-.015625-25.585938-11.46875-25.601563-25.601563v-17.066406c.015625-14.132812 11.46875-25.585937 25.601563-25.601562h34.132812c14.132813.015625 25.585938 11.46875 25.601563 25.601562v17.066406c-.015625 14.132813-11.46875 25.585938-25.601563 25.601563zm-34.132812-51.199219c-4.710938.003906-8.527344 3.820313-8.535156 8.53125v17.066406c.007812 4.710938 3.824218 8.53125 8.535156 8.535157h34.132812c4.710938-.003907 8.53125-3.824219 8.535156-8.535157v-17.066406c-.003906-4.710937-3.824218-8.527344-8.535156-8.53125zm0 0"/><path d="m230.398438 392.539062c-3.632813-.003906-6.867188-2.308593-8.054688-5.742187-.394531-1.046875-8.328125-21.265625-44.820312-28.5625-4.582032-.960937-7.53125-5.4375-6.613282-10.027344.917969-4.589843 5.367188-7.582031 9.964844-6.707031 46.984375 9.394531 57.207031 38.5625 57.617188 39.800781.867187 2.601563.429687 5.460938-1.171876 7.6875-1.605468 2.226563-4.175781 3.546875-6.921874 3.550781zm0 0"/><path d="m207.925781 428.058594c-14.347656.136718-28.4375-3.796875-40.632812-11.347656-19.828125-12.546876-32.984375-34.472657-39.125-65.167969-.632813-3.003907.398437-6.113281 2.695312-8.144531s5.507813-2.675782 8.414063-1.683594c2.902344.992187 5.046875 3.464844 5.621094 6.476562 5.195312 25.941406 15.792968 44.144532 31.519531 54.097656 13.019531 7.820313 28.484375 10.519532 43.382812 7.566407 4.527344-1.03125 9.046875 1.75 10.171875 6.253906s-1.558594 9.082031-6.039062 10.300781c-5.257813 1.152344-10.628906 1.703125-16.007813 1.648438zm0 0"/><path d="m281.582031 392.472656c-2.722656-.011718-5.28125-1.324218-6.878906-3.535156-1.59375-2.207031-2.039063-5.046875-1.195313-7.636719.410157-1.238281 10.632813-30.40625 57.617188-39.800781 4.597656-.875 9.046875 2.117188 9.964844 6.707031.917968 4.589844-2.03125 9.066407-6.613282 10.027344-36.667968 7.332031-44.5 27.710937-44.820312 28.574219-1.238281 3.390625-4.460938 5.652344-8.074219 5.664062zm0 0"/><path d="m304.074219 428.058594c-5.378907.058594-10.75-.496094-16.007813-1.644532-4.574218-1.136718-7.363281-5.765624-6.230468-10.339843 1.136718-4.574219 5.765624-7.363281 10.339843-6.226563 14.980469 2.902344 30.503907.167969 43.589844-7.675781 15.625-9.980469 26.167969-28.140625 31.335937-53.980469.574219-3.011718 2.71875-5.484375 5.621094-6.476562 2.90625-.992188 6.117188-.347656 8.414063 1.683594s3.328125 5.140624 2.695312 8.144531c-6.140625 30.695312-19.296875 52.621093-39.125 65.164062-12.195312 7.554688-26.285156 11.488281-40.632812 11.351563zm0 0"/><path d="m238.933594 512c-4.714844 0-8.535156-3.820312-8.535156-8.535156v-68.265625c0-4.710938 3.820312-8.53125 8.535156-8.53125 4.710937 0 8.53125 3.820312 8.53125 8.53125v68.265625c0 4.714844-3.820313 8.535156-8.53125 8.535156zm0 0"/><path d="m281.601562 469.332031c0 4.714844-3.820312 8.535157-8.535156 8.535157-4.710937 0-8.53125-3.820313-8.53125-8.535157 0-4.710937 3.820313-8.53125 8.53125-8.53125 4.714844 0 8.535156 3.820313 8.535156 8.53125zm0 0"/><path d="m187.734375 477.867188h-51.199219c-4.714844 0-8.535156-3.820313-8.535156-8.535157 0-4.710937 3.820312-8.53125 8.535156-8.53125h51.199219c4.710937 0 8.53125 3.820313 8.53125 8.53125 0 4.714844-3.820313 8.535157-8.53125 8.535157zm0 0"/></svg>