<svg height="512pt" viewBox="0 0 512 512.00094" width="512pt" xmlns="http://www.w3.org/2000/svg"><path d="m385.425781 302.933594-250.488281-.554688-25.597656-116.546875 44.796875-122.121093 34.125-5.597657h156.808593l33.066407 33.476563 18.132812 100.378906zm0 0" fill="#ffdc00"/><path d="m503.46875 495.871094v7.597656h-494.933594v-7.597656c-.015625-10.925782 1.300782-21.816406 3.925782-32.425782l7.933593-32.167968c9.207031-33.558594 40.050781-56.558594 74.839844-55.808594h321.535156c34.789063-.75 65.632813 22.25 74.835938 55.808594l7.9375 32.167968c2.621093 10.609376 3.941406 21.5 3.925781 32.425782zm0 0" fill="#bb193b"/><path d="m435.199219 503.46875h-358.398438l26.453125-128 2.472656-11.949219c2.949219-8.820312 11.558594-14.464843 20.824219-13.652343h258.898438c9.285156-.8125 17.921875 4.824218 20.910156 13.652343l2.472656 11.949219zm0 0" fill="#ef314c"/><path d="m238.933594 353.28125v150.1875h-17.066406v-150.1875c-.011719-1.183594.253906-2.351562.769531-3.414062 1.328125-3.105469 4.382812-5.121094 7.765625-5.121094 3.378906 0 6.433594 2.015625 7.761718 5.121094.515626 1.0625.78125 2.230468.769532 3.414062zm0 0" fill="#802f34"/><path d="m136.105469 330.242188c-.324219 6.578124.191406 13.175781 1.539062 19.625 2.621094 20.589843 20.847657 35.558593 41.554688 34.132812 41.21875 0 27.136719-22.101562 51.203125-30.71875 8.105468-2.554688 16.589844-3.707031 25.085937-3.414062h.511719c59.050781.171874 25.257812 34.132812 76.289062 34.132812 20.707032 1.425781 38.933594-13.542969 41.558594-34.132812 1.347656-6.332032 1.863282-12.816407 1.535156-19.285157l-42.582031-31.914062c-25.054687-6.542969-50.921875-9.414063-76.800781-8.535157-25.878906-.878906-51.746094 1.992188-76.800781 8.535157zm0 0" fill="#f5f5f5"/><path d="m144.898438 190.125c9.425781 14.488281 25.546874 23.222656 42.835937 23.210938h34.132813c9.414062-.03125 17.039062-7.652344 17.066406-17.066407 0-9.425781 7.640625-17.070312 17.066406-17.070312s17.066406 7.644531 17.066406 17.070312c.070313 9.394531 7.671875 16.996094 17.066406 17.066407h34.132813c17.289063.011718 33.410156-8.722657 42.839844-23.210938v-30.378906c-1.90625-2.972656-4.140625-5.71875-6.65625-8.191406-9.5625-9.652344-22.597657-15.0625-36.183594-15.019532h-136.53125c-17.289063-.015625-33.410156 8.71875-42.835937 23.210938zm0 0" fill="#00bcd4"/><path d="m409.601562 196.269531c9.425782 0 17.066407 7.640625 17.066407 17.066407 0 9.425781-7.640625 17.066406-17.066407 17.066406 8.316407-.023438 15.433594 5.96875 16.828126 14.167968 1.394531 8.203126-3.339844 16.210938-11.195313 18.941407 1.871094 2.835937 2.878906 6.15625 2.898437 9.554687-.027343 9.414063-7.652343 17.039063-17.066406 17.066406-3.0625.011719-6.074218-.816406-8.703125-2.386718.101563.792968.160157 1.589844.171875 2.386718-.007812 7.238282-4.597656 13.679688-11.4375 16.042969 1.875 2.835938 2.882813 6.160157 2.902344 9.558594 0 9.425781-7.640625 17.066406-17.066406 17.066406-9.425782 0-17.066406-7.640625-17.066406-17.066406-8.316407.019531-15.433594-5.972656-16.828126-14.171875-1.394531-8.199219 3.339844-16.207031 11.195313-18.9375-1.875-2.835938-2.882813-6.15625-2.902344-9.558594.03125-9.414062 7.652344-17.039062 17.070313-17.066406.796875.011719 1.59375.070312 2.386718.171875-2.613281-4.390625-3.109374-9.722656-1.355468-14.523437 1.753906-4.796876 5.574218-8.550782 10.402344-10.222657-1.875-2.835937-2.882813-6.160156-2.902344-9.558593.027344-9.414063 7.652344-17.039063 17.066406-17.066407-9.414062-.027343-17.039062-7.652343-17.066406-17.066406 0-4.921875 2.152344-9.597656 5.886718-12.800781-3.734374-3.203125-5.886718-7.878906-5.886718-12.800782.019531-3.398437 1.027344-6.71875 2.902344-9.554687-4.828126-1.671875-8.648438-5.425781-10.402344-10.226563-1.753906-4.796874-1.257813-10.128906 1.355468-14.519531-.792968.101563-1.589843.15625-2.386718.167969-9.417969-.027344-17.039063-7.652344-17.070313-17.066406-9.414062-.027344-17.039062-7.652344-17.066406-17.066406.011719-.796876.070313-1.597657.171875-2.390626-2.628906 1.574219-5.640625 2.398438-8.703125 2.390626-6.160156-.007813-11.835937-3.332032-14.847656-8.703126-.734375.101563-1.476563.160157-2.21875.171876-7.238281-.007813-13.675781-4.597657-16.042969-11.4375-2.835938 1.875-6.15625 2.882812-9.558594 2.902343-9.414062-.027343-17.039062-7.652343-17.066406-17.066406-.027344 9.414063-7.652344 17.039063-17.066406 17.066406-3.398438-.019531-6.71875-1.027343-9.558594-2.902343-2.363281 6.839843-8.804688 11.429687-16.042969 11.4375-.742187-.011719-1.480469-.070313-2.21875-.171876-3.011719 5.371094-8.6875 8.695313-14.847656 8.703126-3.0625.007812-6.070313-.816407-8.703125-2.390626.101562.792969.160156 1.59375.171875 2.390626-.027344 9.414062-7.652344 17.039062-17.066406 17.066406-.027344 9.414062-7.652344 17.039062-17.066407 17.066406-.800781-.011719-1.597656-.066406-2.390624-.167969 2.613281 4.390625 3.109374 9.722657 1.355468 14.519531-1.753906 4.800782-5.574218 8.554688-10.402344 10.226563 1.875 2.835937 2.882813 6.15625 2.902344 9.554687 0 4.921876-2.152344 9.597657-5.886718 12.800782 3.734374 3.203125 5.886718 7.878906 5.886718 12.800781-.027344 9.414063-7.652344 17.039063-17.066406 17.066406 9.414062.027344 17.039062 7.652344 17.066406 17.066407-.019531 3.398437-1.027344 6.722656-2.902344 9.558593 4.828126 1.671875 8.648438 5.425781 10.402344 10.222657 1.753906 4.800781 1.257813 10.132812-1.355468 14.523437.792968-.101563 1.589843-.160156 2.390624-.171875 9.414063.027344 17.039063 7.652344 17.066407 17.066406-.019531 3.402344-1.027344 6.722656-2.902344 9.558594 7.855469 2.730469 12.589844 10.738281 11.195313 18.9375-1.394532 8.199219-8.507813 14.191406-16.828126 14.171875 0 9.425781-7.640624 17.066406-17.066406 17.066406-9.425781 0-17.066406-7.640625-17.066406-17.066406.019531-3.398437 1.027344-6.722656 2.902344-9.558594-6.839844-2.363281-11.429688-8.804687-11.433594-16.042969.007812-.796874.066406-1.59375.167969-2.386718-2.628907 1.570312-5.636719 2.398437-8.703125 2.386718-9.414063-.027343-17.039063-7.652343-17.066406-17.066406.019531-3.398437 1.027343-6.71875 2.902343-9.554687-7.859375-2.730469-12.589843-10.738281-11.195312-18.941407 1.394531-8.199218 8.507812-14.191406 16.828125-14.167968-9.425782 0-17.070313-7.640625-17.070313-17.066406 0-9.425782 7.644531-17.066407 17.070313-17.066407-9.425782 0-17.070313-7.644531-17.070313-17.070312s7.644531-17.066407 17.070313-17.066407c-8.769532.011719-16.117188-6.625-17-15.351562-.878906-8.722656 4.992187-16.695312 13.585937-18.4375.351563-1.398438.804688-2.769531 1.363281-4.097656-5.699218-4.492188-7.925781-12.105469-5.539062-18.960938 2.390625-6.855468 8.863281-11.441406 16.121094-11.417968.800781.011718 1.597656.070312 2.390625.171874-1.574219-2.632812-2.398438-5.640624-2.390625-8.703124.027344-9.414063 7.652344-17.039063 17.066406-17.066407.800781.007813 1.597656.066407 2.390625.167969-1.574219-2.628906-2.398437-5.640625-2.390625-8.703125.027344-9.414063 7.652344-17.039063 17.066406-17.066406-.007812-6.792969 2.6875-13.308594 7.488282-18.113281 4.804687-4.800782 11.320312-7.496094 18.113281-7.488282 6.355469-.039062 12.484375 2.339844 17.152343 6.65625 1-9.007812 8.859376-15.664062 17.910157-15.167968 9.050781.5 16.132812 7.984374 16.136719 17.046874 0-9.425781 7.640624-17.066406 17.066406-17.066406 9.425781 0 17.066406 7.640625 17.066406 17.066406 0-9.425781 7.640625-17.066406 17.066406-17.066406 9.425782 0 17.066406 7.640625 17.066406 17.066406.003907-9.0625 7.085938-16.546874 16.136719-17.046874 9.050781-.496094 16.914063 6.160156 17.914063 15.167968 4.664062-4.316406 10.796875-6.695312 17.148437-6.65625 6.792969-.007812 13.3125 2.6875 18.113281 7.488282 4.804688 4.804687 7.496094 11.320312 7.488282 18.113281 9.414062.027343 17.039062 7.652343 17.066406 17.066406.007812 3.0625-.816406 6.074219-2.390625 8.703125.792969-.101562 1.59375-.160156 2.390625-.167969 9.414062.027344 17.039062 7.652344 17.066406 17.066407.007813 3.0625-.816406 6.070312-2.386718 8.703124.789062-.101562 1.589843-.160156 2.386718-.171874 8.03125-.003907 14.980469 5.59375 16.683594 13.445312 1.707031 7.847656-2.292969 15.824219-9.601562 19.152344.210937.5.382812 1.011718.511718 1.535156h.941406c9.425782 0 17.066407 7.640625 17.066407 17.066406 0 9.425782-7.640625 17.066406-17.066407 17.066406 9.425782 0 17.066407 7.640626 17.066407 17.066407s-7.640625 17.070312-17.066407 17.070312zm0 0" fill="#607d8b"/><path d="m296.34375 243.199219c-6.898438 13.496093-28.417969 15.402343-40.171875 15.402343-11.78125 0-33.277344-1.90625-40.171875-15.402343 13.148438 3.242187 26.628906 4.929687 40.171875 5.035156 13.539063-.105469 27.023437-1.792969 40.171875-5.035156zm0 0"/><path d="m230.402344 176.480469c0-10.101563-7.644532-18.292969-17.070313-18.292969s-17.066406 8.191406-17.066406 18.292969c0 10.101562 7.640625 18.292969 17.066406 18.292969s17.070313-8.191407 17.070313-18.292969zm0 0"/><path d="m218.117188 160.609375c-4.402344-1.675781-9.332032.535156-11.007813 4.941406s.535156 9.332031 4.941406 11.007813c4.40625 1.675781 9.335938-.535156 11.007813-4.941406 1.675781-4.40625-.535156-9.335938-4.941406-11.007813zm0 0" fill="#fff"/><path d="m315.734375 176.480469c0-10.101563-7.640625-18.292969-17.066406-18.292969s-17.066407 8.191406-17.066407 18.292969c0 10.101562 7.640626 18.292969 17.066407 18.292969s17.066406-8.191407 17.066406-18.292969zm0 0"/><path d="m304.890625 165.550781c-1.671875-4.40625-6.601563-6.617187-11.007813-4.941406-4.40625 1.671875-6.617187 6.601563-4.941406 11.007813 1.675782 4.40625 6.605469 6.617187 11.007813 4.941406 4.40625-1.675782 6.617187-6.605469 4.941406-11.007813zm0 0" fill="#fff"/><path d="m256 358.402344c-4.761719.019531-8.667969-3.773438-8.789062-8.535156-.058594-2.238282.789062-4.402344 2.347656-6.007813s3.699218-2.515625 5.9375-2.523437h.25c4.734375-.011719 8.597656 3.792968 8.65625 8.53125.03125 2.25-.839844 4.417968-2.417969 6.023437-1.578125 1.601563-3.734375 2.507813-5.984375 2.511719zm0 0"/><path d="m435.199219 512h-358.398438c-2.566406 0-4.996093-1.15625-6.617187-3.144531s-2.261719-4.601563-1.742188-7.117188l28.929688-139.945312c3.695312-12.839844 15.847656-21.363281 29.179687-20.457031h11.09375c4.710938 0 8.53125 3.820312 8.53125 8.53125 0 4.714843-3.820312 8.535156-8.53125 8.535156h-11.09375c-5.171875-.648438-10.179687 2.074218-12.449219 6.765625l-26.828124 129.765625h337.453124l-26.726562-129.691406c-2.304688-4.714844-7.335938-7.460938-12.550781-6.839844h-11.601563c-4.714844 0-8.535156-3.820313-8.535156-8.535156 0-4.710938 3.820312-8.53125 8.535156-8.53125h11.601563c13.339843-.855469 25.488281 7.640624 29.269531 20.457031l28.84375 139.953125c.519531 2.511718-.121094 5.125-1.746094 7.113281-1.621094 1.988281-4.050781 3.144531-6.617187 3.140625zm0 0"/><path d="m102.402344 512h-93.867188c-4.714844 0-8.535156-3.820312-8.535156-8.53125v-7.597656c-.0078125-11.617188 1.394531-23.191406 4.175781-34.472656l7.9375-32.164063c10.019531-37.449219 44.359375-63.1875 83.121094-62.300781h8.019531c4.710938 0 8.535156 3.820312 8.535156 8.535156 0 4.710938-3.824218 8.53125-8.535156 8.53125h-8.019531c-30.902344-.871094-58.394531 19.496094-66.5625 49.308594l-7.933594 32.179687c-2.375 9.636719-3.605469 19.519531-3.671875 29.445313h85.335938c4.710937 0 8.53125 3.820312 8.53125 8.535156 0 4.710938-3.820313 8.53125-8.53125 8.53125zm0 0"/><path d="m503.46875 512h-93.867188c-4.714843 0-8.535156-3.820312-8.535156-8.53125 0-4.714844 3.820313-8.535156 8.535156-8.535156h85.332032c-.066406-9.921875-1.296875-19.804688-3.675782-29.4375l-7.933593-32.179688c-8.164063-29.816406-35.65625-50.183594-66.554688-49.316406h-7.9375c-4.710937 0-8.53125-3.820312-8.53125-8.53125 0-4.714844 3.820313-8.535156 8.53125-8.535156h7.9375c38.761719-.890625 73.105469 24.851562 83.125 62.308594l7.9375 32.164062c2.777344 11.277344 4.179688 22.851562 4.167969 34.464844v7.597656c0 4.710938-3.820312 8.53125-8.53125 8.53125zm0 0"/><path d="m366.933594 341.335938c-11.273438-.015626-21.214844-7.386719-24.5-18.167969-9.007813-2.722657-15.792969-10.175781-17.660156-19.402344-1.863282-9.222656 1.492187-18.726563 8.734374-24.734375-3.066406-12.761719 4.019532-25.769531 16.402344-30.117188-.027344-.480468-.042968-.964843-.042968-1.445312.003906-7.597656 3.390624-14.792969 9.242187-19.640625-1.964844-8.164063.210937-16.777344 5.824219-23.027344-7.398438-8.234375-8.640625-20.300781-3.070313-29.867187-3.304687-5.664063-4.289062-12.386719-2.753906-18.761719-5.847656-4.84375-9.238281-12.042969-9.242187-19.636719 0-.484375.015624-.96875.042968-1.445312-7.6875-2.722656-13.625-8.929688-16.007812-16.726563-7.796875-2.382812-14-8.324219-16.71875-16.007812-7.816406.457031-15.410156-2.703125-20.589844-8.574219-6.851562-.5625-13.183594-3.863281-17.570312-9.152344-8.164063 1.871094-16.730469-.296875-23.023438-5.828125-6.289062 5.535157-14.859375 7.703125-23.023438 5.828125-4.386718 5.289063-10.71875 8.589844-17.566406 9.152344-5.175781 5.882812-12.773437 9.046875-20.59375 8.578125-2.71875 7.683594-8.921875 13.625-16.714844 16.007813-2.386718 7.796874-8.324218 14.003906-16.011718 16.726562.027344.476562.042968.960938.042968 1.445312-.003906 7.59375-3.390624 14.792969-9.242187 19.636719 1.535156 6.375.550781 13.09375-2.75 18.757813 5.566406 9.566406 4.328125 21.632812-3.070313 29.867187 5.609376 6.25 7.789063 14.863281 5.824219 23.027344 5.847657 4.847656 9.234375 12.042969 9.238281 19.640625 0 .480469-.015624.964844-.039062 1.445312 12.378906 4.347657 19.464844 17.355469 16.398438 30.117188 7.246093 6.007812 10.601562 15.511719 8.734374 24.734375-1.867187 9.226563-8.648437 16.679687-17.660156 19.402344-4.023437 13.238281-17.839844 20.882812-31.195312 17.261719-13.351563-3.625-21.410156-17.203126-18.195313-30.660157-3.550781-2.945312-6.242187-6.796875-7.785156-11.144531-8.082031.464844-15.910156-2.921875-21.101563-9.132812-5.191406-6.210938-7.140624-14.515626-5.246093-22.386719-5.351563-4.429688-8.664063-10.851563-9.175781-17.777344-.507813-6.925781 1.824218-13.761719 6.464843-18.925781-8.710937-9.710938-8.710937-24.425782 0-34.132813-8.710937-9.710937-8.710937-24.425781 0-34.136719-5.015625-5.59375-7.320312-13.113281-6.292969-20.554687 1.027344-7.445313 5.28125-14.058594 11.628907-18.085937-3.742188-6.582032-4.367188-14.488282-1.707031-21.582032 2.660156-7.089844 8.332031-12.632812 15.480468-15.128906-.023437-.480469-.039062-.964844-.039062-1.445312.011718-10.863282 6.863281-20.539063 17.105468-24.15625-.023437-.480469-.039062-.960938-.039062-1.445313.011719-11.152344 7.230469-21.019531 17.855469-24.40625 2.179687-9.847656 8.59375-18.234375 17.535156-22.90625 8.9375-4.675781 19.484375-5.160156 28.816406-1.328125 4.171875-6.0625 10.753907-10.039062 18.066407-10.914062 7.308593-.871094 14.640624 1.441406 20.125 6.355468 9.710937-8.710937 24.421874-8.710937 34.132812 0 9.710938-8.710937 24.421875-8.710937 34.132812 0 5.484376-4.914062 12.816407-7.226562 20.128907-6.355468 7.308593.875 13.890625 4.851562 18.0625 10.914062 9.332031-3.832031 19.878906-3.347656 28.816406 1.328125 8.941406 4.671875 15.359375 13.058594 17.535156 22.90625 10.625 3.386719 17.84375 13.253906 17.859375 24.40625 0 .484375-.019531.964844-.042968 1.445313 10.242187 3.617187 17.097656 13.292968 17.109374 24.15625 0 .480468-.019531.964843-.042968 1.445312 7.144531 2.5 12.8125 8.039062 15.476562 15.125 2.660156 7.085938 2.042969 14.984375-1.683594 21.570312 6.339844 4.035157 10.585938 10.652344 11.609376 18.097657 1.027343 7.445312-1.277344 14.964843-6.292969 20.558593 8.710937 9.710938 8.710937 24.425782 0 34.136719 8.710937 9.707031 8.710937 24.421875 0 34.132813 4.640625 5.164062 6.976562 12 6.464843 18.929687-.511718 6.925781-3.824218 13.34375-9.175781 17.773438 1.894531 7.871093-.050781 16.175781-5.246093 22.386719-5.191407 6.210937-13.019532 9.601562-21.101563 9.132812-1.542969 4.351562-4.234375 8.199219-7.785156 11.148438 1.832031 7.621093.070312 15.664062-4.785157 21.820312-4.855468 6.15625-12.265624 9.746094-20.105468 9.742188zm-8.53125-76.800782c-4.714844.003906-8.53125 3.820313-8.535156 8.53125.023437 1.738282.542968 3.433594 1.5 4.878906 1.441406 2.203126 1.789062 4.941407.941406 7.433594-.847656 2.488282-2.796875 4.449219-5.28125 5.308594-3.921875 1.371094-6.277344 5.371094-5.570313 9.460938.703125 4.089843 4.257813 7.070312 8.410157 7.050781 4.710937 0 8.535156 3.820312 8.535156 8.535156 0 4.710937 3.820312 8.535156 8.53125 8.535156 4.714844 0 8.535156-3.824219 8.535156-8.535156-.023438-1.738281-.542969-3.429687-1.5-4.878906-1.445312-2.199219-1.789062-4.941407-.941406-7.429688.847656-2.492187 2.796875-4.449219 5.28125-5.3125 3.402344-1.179687 5.683594-4.378906 5.691406-7.980469-.011719-.488281-.050781-.976562-.117188-1.460937-.351562-3.222656 1.152344-6.363281 3.882813-8.113281 2.730469-1.746094 6.214844-1.796875 8.992187-.128906 1.304688.773437 2.792969 1.175781 4.308594 1.171874 4.710938-.003906 8.53125-3.824218 8.535156-8.535156-.023437-1.734375-.542968-3.429687-1.5-4.878906-1.441406-2.199219-1.789062-4.941406-.941406-7.429688.847656-2.488281 2.796875-4.449218 5.28125-5.3125 3.917969-1.367187 6.273438-5.367187 5.570313-9.457031-.703125-4.089843-4.261719-7.074219-8.410157-7.054687-4.714843 0-8.535156-3.820313-8.535156-8.53125 0-4.714844 3.820313-8.535156 8.535156-8.535156 4.710938 0 8.53125-3.820313 8.53125-8.53125 0-4.714844-3.820312-8.535157-8.53125-8.535157-4.714843 0-8.535156-3.820312-8.535156-8.53125 0-4.714843 3.820313-8.535156 8.535156-8.535156 4.710938 0 8.53125-3.820313 8.53125-8.535156 0-4.710938-3.820312-8.53125-8.53125-8.53125-4.714843 0-8.535156-3.820313-8.535156-8.535157 0-4.710937 3.820313-8.53125 8.535156-8.53125 4.710938 0 8.53125-3.820312 8.53125-8.535156 0-4.710937-3.820312-8.53125-8.53125-8.53125h-.941406c-3.695312 0-6.972656-2.378906-8.113281-5.898437-.042969-.128907-.226563-.753907-.257813-.886719-1-1.980469-1.117187-4.292969-.316406-6.367188.824219-2.117187 2.484375-3.804687 4.59375-4.660156 3.046875-1.398437 5.007813-4.433594 5.035156-7.789062-.003906-4.710938-3.824218-8.527344-8.535156-8.53125-.480468.007812-.957031.046875-1.433594.117187-3.226562.367188-6.386718-1.132812-8.140624-3.867187-1.753907-2.738282-1.804688-6.230469-.125-9.015625.769531-1.300781 1.171874-2.789063 1.167968-4.300781-.003906-4.710938-3.824218-8.53125-8.535156-8.535157-.480469.011719-.957031.050781-1.433594.117188-3.226562.367187-6.386718-1.132813-8.140625-3.867188-1.753906-2.734375-1.804687-6.230469-.125-9.011719.769531-1.304687 1.171875-2.792968 1.167969-4.304687-.003906-4.710937-3.824219-8.527344-8.535156-8.535156-4.710938 0-8.53125-3.820313-8.53125-8.53125-.011719-9.421875-7.648438-17.054688-17.070313-17.066407-4.207031-.046874-8.269531 1.523438-11.355469 4.382813-2.367187 2.1875-5.757812 2.855469-8.777343 1.730469-3.015625-1.125-5.144531-3.851563-5.5-7.050782-.519531-4.308593-4.160157-7.5625-8.5-7.597656-4.710938.003906-8.527344 3.824219-8.53125 8.535156 0 4.710938-3.820313 8.53125-8.535157 8.53125-4.710937 0-8.53125-3.820312-8.53125-8.53125 0-4.714843-3.820312-8.535156-8.535156-8.535156-4.710937 0-8.53125 3.820313-8.53125 8.535156 0 4.710938-3.820312 8.53125-8.535156 8.53125-4.710938 0-8.53125-3.820312-8.53125-8.53125 0-4.714843-3.820312-8.535156-8.535156-8.535156-4.710938 0-8.53125 3.820313-8.53125 8.535156 0 4.710938-3.824219 8.53125-8.535156 8.53125-4.710938 0-8.535157-3.820312-8.535157-8.53125-.003906-4.710937-3.820312-8.53125-8.53125-8.535156-4.339843.035156-7.980469 3.289063-8.5 7.597656-.355469 3.199219-2.480469 5.925782-5.5 7.054688-3.015625 1.125-6.410156.457031-8.773437-1.730469-3.085938-2.863281-7.152344-4.433593-11.359375-4.386719-9.421875.011719-17.058594 7.644532-17.066407 17.066407 0 4.710937-3.820312 8.53125-8.535156 8.53125-4.710937.007812-8.527344 3.824219-8.53125 8.535156-.007812 1.511719.394532 3 1.164063 4.304687 1.675781 2.78125 1.625 6.273438-.125 9.011719-1.730469 2.761719-4.90625 4.269531-8.140625 3.867188-.472656-.066407-.953125-.105469-1.433594-.117188-4.710938.003907-8.527344 3.824219-8.53125 8.535157-.007812 1.511718.394531 3 1.164062 4.300781 1.675782 2.785156 1.625 6.277343-.125 9.015625-1.734374 2.753906-4.90625 4.261718-8.140624 3.867187-.476563-.070312-.953126-.109375-1.433594-.117187-4.710938.003906-8.527344 3.820312-8.53125 8.53125.007812 2.574218 1.1875 5 3.207031 6.59375 3.078125 2.410156 4.128906 6.609375 2.539063 10.1875-.332032.785156-.601563 1.597656-.804688 2.429687-.886719 3.203125-3.40625 5.695313-6.617188 6.550781-4.3125.855469-7.269531 4.839844-6.835937 9.214844.433594 4.371094 4.117187 7.699219 8.511719 7.691406 4.710937 0 8.53125 3.820313 8.53125 8.53125 0 4.714844-3.820313 8.535157-8.53125 8.535157-4.714844 0-8.535156 3.820312-8.535156 8.53125 0 4.714843 3.820312 8.535156 8.535156 8.535156 4.710937 0 8.53125 3.820313 8.53125 8.535156 0 4.710938-3.820313 8.53125-8.53125 8.53125-4.714844 0-8.535156 3.820313-8.535156 8.535157 0 4.710937 3.820312 8.53125 8.535156 8.53125 4.710937 0 8.53125 3.820312 8.53125 8.535156 0 4.710937-3.820313 8.53125-8.53125 8.53125-4.152344-.019532-7.710938 2.964844-8.414063 7.054687-.703125 4.089844 1.652344 8.089844 5.570313 9.457031 2.484375.863282 4.433594 2.824219 5.28125 5.3125.851562 2.488282.503906 5.230469-.9375 7.429688-.960938 1.449219-1.480469 3.144531-1.5 4.878906.003906 4.710938 3.820312 8.53125 8.53125 8.535156 1.515625.003907 3.003906-.398437 4.308594-1.171874 2.777343-1.667969 6.261718-1.617188 8.992187.128906 2.730469 1.75 4.234375 4.890625 3.882813 8.113281-.066407.484375-.105469.972656-.117188 1.460937.007812 3.601563 2.292969 6.800782 5.691406 7.980469 2.484375.863281 4.433594 2.820313 5.285156 5.3125.847657 2.488281.5 5.230469-.941406 7.429688-.957031 1.449219-1.480468 3.140625-1.5 4.878906 0 4.710937 3.820313 8.535156 8.53125 8.535156 4.714844 0 8.535156-3.824219 8.535156-8.535156 0-4.714844 3.820313-8.535156 8.53125-8.535156 4.152344.019531 7.707032-2.960938 8.414063-7.050781.703125-4.089844-1.652344-8.089844-5.570313-9.460938-2.484374-.859375-4.433593-2.820312-5.285156-5.308594-.847656-2.492187-.5-5.230468.941406-7.433594.957032-1.445312 1.480469-3.140624 1.5-4.878906-.003906-4.710937-3.820312-8.527344-8.53125-8.53125-.480468.007813-.960937.046875-1.433593.117188-3.230469.367187-6.386719-1.132813-8.140625-3.867188-1.757813-2.734375-1.804688-6.230468-.125-9.011718 1.285156-2.1875 1.519531-4.835938.644531-7.214844s-2.773437-4.238282-5.167969-5.070313c-2.484375-.863281-4.433594-2.820312-5.285156-5.308593-.847656-2.492188-.5-5.234376.941406-7.433594.957032-1.449219 1.476563-3.140625 1.5-4.878906-.003906-4.710938-3.824218-8.527344-8.535156-8.53125-4.710938 0-8.53125-3.820313-8.53125-8.535157 0-4.710937 3.820312-8.53125 8.53125-8.53125 4.710938-.007812 8.53125-3.824219 8.535156-8.535156 0-2.429687-1.058594-4.738281-2.902344-6.320313-1.894531-1.621093-2.984374-3.988281-2.984374-6.480468 0-2.492188 1.089843-4.859375 2.984374-6.480469 1.84375-1.578125 2.902344-3.890625 2.902344-6.320313-.023437-1.734374-.542968-3.429687-1.5-4.878906-1.445312-2.199218-1.789062-4.941406-.941406-7.429687s2.796875-4.449219 5.28125-5.308594c3.402344-1.179687 5.683594-4.382813 5.691406-7.980469.011719-1.515625-.390625-3-1.164062-4.300781-1.679688-2.785156-1.632813-6.277344.125-9.015625 1.753906-2.734375 4.910156-4.234375 8.140625-3.871094.472656.070313.953125.109375 1.433593.121094 4.710938-.003906 8.527344-3.824219 8.53125-8.535156 0-4.710938 3.820313-8.53125 8.535157-8.53125 4.710937-.003906 8.527343-3.824219 8.53125-8.535156-.011719-.488282-.050781-.976563-.117188-1.460938-.351562-3.222656 1.15625-6.367188 3.882813-8.113281 2.730468-1.746094 6.214844-1.796875 8.992187-.128907 4.121094 2.257813 9.285157.863282 11.710938-3.15625 1.683593-3.0625 5.070312-4.773437 8.53125-4.308593 3.945312.390625 7.671875-1.894531 9.109375-5.589844.859375-2.484375 2.816406-4.4375 5.308594-5.289063 2.488281-.847656 5.230468-.503906 7.433593.9375 1.449219.960938 3.144531 1.488282 4.882813 1.511719 4.710937-.007812 8.53125-3.824219 8.535156-8.535156 0-4.714844 3.820312-8.535156 8.53125-8.535156 4.714844 0 8.535156 3.820312 8.535156 8.535156.003906 4.710937 3.820313 8.527344 8.53125 8.535156 1.738282-.023437 3.433594-.546875 4.882813-1.507812 2.203125-1.441407 4.945312-1.785157 7.433593-.933594 2.492188.847656 4.449219 2.800781 5.308594 5.285156 1.453125 3.6875 5.167969 5.964844 9.109375 5.589844 3.460938-.476563 6.859375 1.238281 8.53125 4.308594 2.425781 4.019531 7.59375 5.414062 11.710938 3.15625 2.777343-1.667969 6.261719-1.617188 8.992187.128906 2.730469 1.75 4.234375 4.890625 3.882813 8.113281-.066407.484375-.105469.96875-.117188 1.457032.003907 4.710937 3.820313 8.53125 8.53125 8.535156 4.714844 0 8.535157 3.820312 8.535157 8.53125.003906 4.710937 3.820312 8.53125 8.535156 8.535156.476562-.011719.957031-.050781 1.433594-.117188 3.226562-.367187 6.382812 1.136719 8.140624 3.871094 1.753907 2.734375 1.800782 6.230469.125 9.011719-.773437 1.300781-1.179687 2.789063-1.167968 4.300781.007812 3.597656 2.289062 6.800782 5.691406 7.980469 2.484375.859375 4.433594 2.820313 5.28125 5.308594.851562 2.488281.503906 5.230469-.9375 7.429687-.960938 1.449219-1.480469 3.144532-1.5 4.878906-.003906 2.429688 1.054688 4.742188 2.898438 6.320313 1.894531 1.621094 2.984374 3.988281 2.984374 6.480469 0 2.492187-1.089843 4.859375-2.984374 6.480468-1.84375 1.582032-2.902344 3.890626-2.898438 6.320313.003906 4.710937 3.820312 8.527344 8.53125 8.535156 4.714844 0 8.535156 3.820313 8.535156 8.53125 0 4.714844-3.820312 8.535157-8.535156 8.535157-4.710938.003906-8.527344 3.820312-8.53125 8.53125.019531 1.738281.539062 3.429687 1.5 4.878906 1.441406 2.199218 1.789062 4.941406.9375 7.433594-.847656 2.488281-2.796875 4.445312-5.28125 5.308593-2.394531.832031-4.292969 2.691407-5.167969 5.070313s-.640625 5.027344.644531 7.214844c1.675782 2.78125 1.628907 6.273437-.125 9.011718-1.742187 2.746094-4.90625 4.25-8.140624 3.867188-.476563-.070313-.953126-.109375-1.433594-.117188zm0 0"/><path d="m332.800781 307.207031c-.914062-.003906-1.820312-.152343-2.683593-.441406-24.203126-6.167969-49.152344-8.894531-74.117188-8.097656-24.960938-.796875-49.914062 1.929687-74.117188 8.097656-4.472656 1.488281-9.300781-.933594-10.789062-5.402344-1.484375-4.472656.933594-9.304687 5.40625-10.792969 25.921875-6.855468 52.703125-9.878906 79.5-8.96875 26.796875-.910156 53.582031 2.113282 79.5 8.96875 3.976562 1.320313 6.410156 5.332032 5.738281 9.46875-.671875 4.136719-4.246093 7.171876-8.4375 7.167969zm0 0"/><path d="m332.289062 392.535156c-27.140624 0-35-9.113281-41.824218-20.121094-4.632813-7.480468-8.636719-13.9375-34.492188-14.011718-7.675781-.289063-15.34375.695312-22.699218 2.910156-5.402344 1.914062-9.8125 5.917969-12.242188 11.109375-6.8125 11.003906-14.671875 20.113281-41.832031 20.113281-24.773438 1.519532-46.53125-16.316406-49.90625-40.910156-1.492188-7.175781-2.066407-14.515625-1.707031-21.835938.25-4.707031 4.269531-8.320312 8.980468-8.070312 4.707032.25 8.320313 4.269531 8.070313 8.976562-.292969 5.835938.164062 11.679688 1.355469 17.398438 1.742187 16.65625 16.523437 28.84375 33.207031 27.375 19.875 0 22.84375-4.789062 27.335937-12.039062 4.417969-8.519532 11.925782-15.023438 20.992188-18.183594 9.03125-2.882813 18.484375-4.207032 27.960937-3.910156 33.199219.09375 42.023438 10.054687 49.484375 22.085937 4.5 7.253906 7.464844 12.046875 27.316406 12.046875 16.679688 1.472656 31.457032-10.703125 33.199219-27.355469 1.191407-5.613281 1.652344-11.359375 1.367188-17.089843-.242188-4.710938 3.378906-8.722657 8.085937-8.964844 4.710938-.242188 8.722656 3.378906 8.964844 8.089844.367188 7.226562-.214844 14.46875-1.734375 21.542968-3.382813 24.570313-25.132813 42.375-49.882813 40.84375zm0 0"/><path d="m230.402344 512c-4.714844 0-8.535156-3.820312-8.535156-8.53125v-150.1875c0-4.714844 3.820312-8.535156 8.535156-8.535156 4.710937 0 8.53125 3.820312 8.53125 8.535156v150.1875c0 4.710938-3.820313 8.53125-8.53125 8.53125zm0 0"/><path d="m281.601562 512c-4.714843 0-8.535156-3.820312-8.535156-8.53125v-17.066406c0-4.714844 3.820313-8.535156 8.535156-8.535156 4.710938 0 8.53125 3.820312 8.53125 8.535156v17.066406c0 4.710938-3.820312 8.53125-8.53125 8.53125zm0 0"/><path d="m281.601562 460.800781c-4.714843 0-8.535156-3.820312-8.535156-8.53125v-8.535156c0-4.714844 3.820313-8.535156 8.535156-8.535156 4.710938 0 8.53125 3.820312 8.53125 8.535156v8.535156c0 4.710938-3.820312 8.53125-8.53125 8.53125zm0 0"/><path d="m281.601562 418.132812c-4.714843 0-8.535156-3.820312-8.535156-8.53125v-8.535156c0-4.710937 3.820313-8.53125 8.535156-8.53125 4.710938 0 8.53125 3.820313 8.53125 8.53125v8.535156c0 4.710938-3.820312 8.53125-8.53125 8.53125zm0 0"/><path d="m187.734375 477.867188c-4.714844 0-8.535156-3.820313-8.535156-8.53125v-8.535157h-42.664063v8.535157c0 4.710937-3.820312 8.53125-8.535156 8.53125-4.710938 0-8.53125-3.820313-8.53125-8.53125v-8.535157c.007812-9.421875 7.644531-17.054687 17.066406-17.066406h42.664063c9.421875.011719 17.058593 7.644531 17.066406 17.066406v8.535157c0 4.710937-3.820313 8.53125-8.53125 8.53125zm0 0"/><path d="m384 477.867188c-4.710938 0-8.53125-3.820313-8.53125-8.53125v-8.535157h-42.667969v8.535157c0 4.710937-3.820312 8.53125-8.535156 8.53125-4.710937 0-8.53125-3.820313-8.53125-8.53125v-8.535157c.011719-9.421875 7.644531-17.054687 17.066406-17.066406h42.667969c9.417969.011719 17.054688 7.644531 17.066406 17.066406v8.535157c0 4.710937-3.820312 8.53125-8.535156 8.53125zm0 0"/><path d="m367.109375 168.277344c-2.9375.003906-5.671875-1.503906-7.234375-3.996094-1.566406-2.425781-3.398438-4.675781-5.460938-6.699219-7.957031-8.054687-18.824218-12.566406-30.148437-12.515625h-136.53125c-14.40625-.023437-27.839844 7.257813-35.683594 19.34375-2.574219 3.949219-7.863281 5.0625-11.8125 2.488282-3.949219-2.578126-5.0625-7.867188-2.488281-11.8125 10.988281-16.921876 29.808594-27.121094 49.984375-27.085938h136.53125c15.867187-.066406 31.09375 6.253906 42.242187 17.542969 2.957032 2.917969 5.578126 6.164062 7.816407 9.667969 1.648437 2.625 1.742187 5.945312.242187 8.660156-1.5 2.71875-4.355468 4.40625-7.460937 4.410156zm0 0"/><path d="m324.265625 221.867188h-34.132813c-14.109374-.066407-25.53125-11.488282-25.597656-25.597657.019532-2.226562-.867187-4.363281-2.453125-5.921875-1.566406-1.617187-3.714843-2.546875-5.96875-2.574218-2.253906-.027344-4.425781.839843-6.039062 2.417968-1.667969 1.578125-2.613281 3.777344-2.605469 6.078125-.015625 14.128907-11.46875 25.582031-25.601562 25.597657h-34.132813c-20.175781.035156-38.996094-10.160157-49.984375-27.082032-2.574219-3.949218-1.460938-9.238281 2.488281-11.8125 3.949219-2.574218 9.238281-1.460937 11.8125 2.488282 7.84375 12.082031 21.277344 19.367187 35.683594 19.339843h34.132813c4.710937-.003906 8.527343-3.820312 8.535156-8.53125-.042969-6.835937 2.710937-13.390625 7.613281-18.148437 10.148437-9.609375 26.0625-9.542969 36.125.15625 4.820313 4.738281 7.511719 11.230468 7.460937 17.992187-.019531 2.222657.863282 4.359375 2.449219 5.917969 1.582031 1.671875 3.78125 2.617188 6.082031 2.613281h34.132813c14.40625.027344 27.84375-7.257812 35.683594-19.339843 2.574219-3.949219 7.863281-5.0625 11.8125-2.488282 3.949219 2.574219 5.0625 7.863282 2.488281 11.8125-10.988281 16.921875-29.804688 27.117188-49.984375 27.082032zm0 0"/></svg>