<svg height="512pt" viewBox="0 0 512.03362 512" width="512pt" xmlns="http://www.w3.org/2000/svg"><path d="m324.285156 375.484375v-66.476563h-136.535156v66.476563" fill="#fec108"/><path d="m384.015625 152.847656v111.703125c.011719 15.84375-6.277344 31.046875-17.480469 42.25-11.207031 11.203125-26.40625 17.496094-42.25 17.484375h-136.535156c-15.84375.011719-31.046875-6.28125-42.25-17.484375-11.207031-11.203125-17.496094-26.40625-17.484375-42.25v-111.703125" fill="#fec108"/><path d="m358.417969 152.847656v111.703125c0 33.023438-21.367188 59.734375-47.789063 59.734375h-109.226562c-26.417969 0-47.785156-26.710937-47.785156-59.734375v-111.703125" fill="#ffdc00"/><path d="m394.9375 103.953125 10.15625-65.878906c1.132812-7.390625-1.015625-14.910157-5.886719-20.585938-4.871093-5.675781-11.976562-8.9375-19.457031-8.9375h-247.464844c-7.480468 0-14.585937 3.261719-19.457031 8.9375s-7.023437 13.195313-5.890625 20.585938l10.15625 65.792969 70.300781 40.503906 151.113281-14.578125zm0 0" fill="#3f51b5"/><path d="m256.015625 132.796875c-4.710937 0-8.53125-3.820313-8.53125-8.535156v-38.910157c0-4.714843 3.820313-8.535156 8.53125-8.535156 4.714844 0 8.535156 3.820313 8.535156 8.535156v38.910157c0 4.714843-3.820312 8.535156-8.535156 8.535156zm0 0" fill="#9fc9d3"/><path d="m221.882812 42.683594c0 18.851562-15.28125 34.132812-34.132812 34.132812s-34.132812-15.28125-34.132812-34.132812c0-18.851563 15.28125-34.132813 34.132812-34.132813s34.132812 15.28125 34.132812 34.132813zm0 0" fill="#9d27b0"/><path d="m341.351562 68.285156c0 14.136719-11.464843 25.597656-25.601562 25.597656s-25.601562-11.460937-25.601562-25.597656c0-14.140625 11.464843-25.601562 25.601562-25.601562s25.601562 11.460937 25.601562 25.601562zm0 0" fill="#9d27b0"/><path d="m256.015625 308.816406c-62.210937 0-62.933594-44.503906-62.933594-44.953125-.019531-9.878906 7.933594-17.925781 17.8125-18.019531 9.878907-.09375 17.984375 7.800781 18.152344 17.679688.367187 2.96875 6.507813 9.332031 26.96875 9.332031s26.609375-6.375 26.996094-9.742188c.636719-9.386719 8.269531-16.773437 17.675781-17.097656 4.796875-.082031 9.425781 1.761719 12.855469 5.113281 3.429687 3.351563 5.378906 7.9375 5.40625 12.734375 0 .449219-.71875 44.953125-62.933594 44.953125zm0 0" fill="#fff"/><path d="m256.015625 298.683594c-50.613281 0-51.199219-33.792969-51.199219-34.132813-.042968-4.714843 3.738282-8.570312 8.453125-8.613281 4.710938-.046875 8.570313 3.738281 8.613281 8.449219.101563 1.890625 1.921876 17.230469 34.132813 17.230469 32.371094 0 34.050781-15.492188 34.140625-17.257813.390625-4.566406 4.148438-8.109375 8.726562-8.230469 4.613282.058594 8.324219 3.808594 8.332032 8.421875 0 .339844-.585938 34.132813-51.199219 34.132813zm0 0" fill="#c81e1e"/><path d="m256.820312 170.683594h-.804687c128 0 196.269531-42.667969 196.269531-68.265625 0-25.601563-85.335937 21.84375-196.269531 21.84375s-196.265625-47.445313-196.265625-21.84375c0 25.597656 68.265625 68.265625 196.265625 68.265625zm0 0" fill="#3f51b5"/><path d="m503.484375 495.890625v7.59375h-494.933594v-7.59375c-.394531-30.710937 11.351563-60.335937 32.683594-82.433594 14.765625-13.464843 34.03125-20.921875 54.015625-20.90625h321.535156c19.984375-.015625 39.25 7.441407 54.015625 20.90625 21.332031 22.097657 33.078125 51.722657 32.683594 82.433594zm0 0" fill="#6a1b9a"/><path d="m230.417969 503.484375h-153.601563l28.929688-122.882813c2.945312-8.820312 11.554687-14.464843 20.820312-13.652343h258.902344c9.28125-.8125 17.917969 4.828125 20.90625 13.652343l28.839844 122.882813h-153.597656" fill="#9d27b0"/><path d="m332.816406 426.34375v.339844s-42.667968 42.667968-51.199218 76.800781h-51.199219c-8.535157-34.132813-51.203125-76.800781-51.203125-76.800781v-.339844c22.359375-2.476562 51.203125-30.464844 51.203125-30.464844h51.199219s28.84375 27.988282 51.199218 30.464844zm0 0" fill="#f5f5f5"/><path d="m264.550781 426.683594v76.800781h-17.066406v-76.800781c0-4.714844 3.820313-8.535156 8.53125-8.535156 4.714844 0 8.535156 3.820312 8.535156 8.535156zm0 0" fill="#95a5a5"/><path d="m188.816406 366.683594h131.734375v30.933594h-131.734375zm0 0" fill="#ecf0f1"/><path d="m358.417969 376.421875v32.257813c0 15.699218-11.519531 19.199218-25.601563 17.664062-17.859375-3.277344-35.121094-9.234375-51.199218-17.664062h-51.199219c-16.082031 8.429687-33.34375 14.386718-51.203125 17.664062-14.078125 1.535156-25.597656-1.964844-25.597656-17.664062v-32.257813c-.109376-3.269531.5625-6.515625 1.960937-9.472656 7.425781-14.589844 34.21875-7.59375 53.589844 0 7.246093 2.773437 14.339843 5.9375 21.25 9.472656h51.199219c6.90625-3.535156 14-6.699219 21.246093-9.472656 19.371094-7.59375 46.167969-14.589844 53.589844 0 1.398437 2.957031 2.074219 6.203125 1.964844 9.472656zm0 0" fill="#c81e1e"/><path d="m247.484375 358.417969h17.066406c9.425781 0 17.066407 7.640625 17.066407 17.066406v34.132813c0 9.425781-7.640626 17.066406-17.066407 17.066406h-17.066406c-9.425781 0-17.066406-7.640625-17.066406-17.066406v-34.132813c0-9.425781 7.640625-17.066406 17.066406-17.066406zm0 0" fill="#f44335"/><path d="m247.484375 209.082031c0 16.496094-13.371094 29.867188-29.867187 29.867188-16.496094 0-29.867188-13.371094-29.867188-29.867188 0-16.492187 13.371094-29.863281 29.867188-29.863281 16.496093 0 29.867187 13.371094 29.867187 29.863281zm0 0" fill="#fff"/><path d="m324.285156 209.082031c0 16.496094-13.375 29.867188-29.867187 29.867188-16.496094 0-29.867188-13.371094-29.867188-29.867188 0-16.492187 13.371094-29.863281 29.867188-29.863281 16.492187 0 29.867187 13.371094 29.867187 29.863281zm0 0" fill="#fff"/><path d="m230.417969 209.609375c0 7.355469-5.964844 13.320313-13.324219 13.320313s-13.324219-5.964844-13.324219-13.320313c0-7.359375 5.964844-13.324219 13.324219-13.324219s13.324219 5.964844 13.324219 13.324219zm0 0"/><path d="m225.964844 205.011719c0 4.714843-3.820313 8.535156-8.535156 8.535156-4.710938 0-8.53125-3.820313-8.53125-8.535156 0-4.710938 3.820312-8.53125 8.53125-8.53125 4.714843 0 8.535156 3.820312 8.535156 8.53125zm0 0" fill="#fff"/><path d="m281.617188 230.417969c0 14.136719-11.460938 25.597656-25.601563 25.597656-14.136719 0-25.597656-11.460937-25.597656-25.597656 0-14.140625 11.460937-25.601563 25.597656-25.601563 14.140625 0 25.601563 11.460938 25.601563 25.601563zm0 0" fill="#c81e1e"/><path d="m307.214844 209.609375c0 7.355469-5.964844 13.320313-13.320313 13.320313-7.359375 0-13.324219-5.964844-13.324219-13.320313 0-7.359375 5.964844-13.324219 13.324219-13.324219 7.355469 0 13.320313 5.964844 13.320313 13.324219zm0 0"/><path d="m302.765625 205.011719c0 4.714843-3.820313 8.535156-8.535156 8.535156-4.710938 0-8.53125-3.820313-8.53125-8.535156 0-4.710938 3.820312-8.53125 8.53125-8.53125 4.714843 0 8.535156 3.820312 8.535156 8.53125zm0 0" fill="#fff"/><path d="m435.214844 512.015625h-358.398438c-2.605468 0-5.070312-1.191406-6.691406-3.234375-1.617188-2.042969-2.214844-4.714844-1.617188-7.25l28.933594-122.882812c3.757813-12.742188 15.871094-21.15625 29.125-20.230469h29.011719c4.714844 0 8.535156 3.820312 8.535156 8.53125 0 4.714843-3.820312 8.535156-8.535156 8.535156h-29.011719c-6.871094 0-11.8125 3.507813-12.445312 6.757813l-26.527344 112.707031h336.855469l-26.382813-112.394531c-2.214844-4.84375-7.308594-7.703126-12.597656-7.070313h-29.015625c-4.710937 0-8.53125-3.820313-8.53125-8.535156 0-4.710938 3.820313-8.53125 8.53125-8.53125h29.015625c13.339844-.859375 25.492188 7.636719 29.269531 20.460937l28.789063 122.65625c.597656 2.535156 0 5.207032-1.621094 7.25-1.617188 2.042969-4.082031 3.234375-6.691406 3.230469zm0 0"/><path d="m324.285156 368.742188c-4.714844 0-8.535156-3.820313-8.535156-8.535157v-27.390625h-119.464844v27.390625c0 4.714844-3.820312 8.535157-8.535156 8.535157-4.710938 0-8.535156-3.820313-8.535156-8.535157v-35.921875c0-4.714844 3.824218-8.535156 8.535156-8.535156h136.535156c4.710938 0 8.53125 3.820312 8.53125 8.535156v35.921875c0 4.714844-3.820312 8.535157-8.53125 8.535157zm0 0"/><path d="m324.285156 332.816406h-136.535156c-37.683594-.042968-68.222656-30.582031-68.265625-68.265625v-111.703125c0-4.710937 3.820313-8.53125 8.53125-8.53125 4.714844 0 8.535156 3.820313 8.535156 8.53125v111.703125c.03125 28.261719 22.933594 51.167969 51.199219 51.199219h136.535156c28.261719-.03125 51.167969-22.9375 51.199219-51.199219v-111.703125c0-4.710937 3.820313-8.53125 8.53125-8.53125 4.714844 0 8.535156 3.820313 8.535156 8.53125v111.703125c-.042969 37.683594-30.582031 68.222657-68.265625 68.265625zm0 0"/><path d="m102.417969 512.015625h-93.867188c-4.714843 0-8.535156-3.820313-8.535156-8.53125v-7.59375c-.542969-33.109375 12.210937-65.054687 35.410156-88.6875 16.347657-14.925781 37.6875-23.195313 59.824219-23.1875h7.679688c4.710937 0 8.53125 3.820313 8.53125 8.535156 0 4.710938-3.820313 8.53125-8.53125 8.53125h-7.679688c-17.832031-.027343-35.03125 6.617188-48.210938 18.625-19.410156 20.21875-30.15625 47.21875-29.953124 75.242188h85.332031c4.710937 0 8.53125 3.820312 8.53125 8.535156 0 4.710937-3.820313 8.53125-8.53125 8.53125zm0 0"/><path d="m503.484375 512.015625h-93.867187c-4.714844 0-8.535157-3.820313-8.535157-8.53125 0-4.714844 3.820313-8.535156 8.535157-8.535156h85.332031c.207031-28.023438-10.539063-55.019531-29.949219-75.238281-13.183594-12.011719-30.382812-18.65625-48.214844-18.628907h-7.59375c-4.714844 0-8.535156-3.820312-8.535156-8.53125 0-4.714843 3.820312-8.535156 8.535156-8.535156h7.59375c22.136719-.007813 43.480469 8.261719 59.824219 23.191406 23.199219 23.628907 35.953125 55.574219 35.40625 88.683594v7.59375c0 2.261719-.898437 4.433594-2.5 6.03125-1.597656 1.601563-3.769531 2.5-6.03125 2.5zm0 0"/><path d="m394.949219 112.484375c-.4375 0-.878907-.03125-1.3125-.097656-4.65625-.71875-7.851563-5.078125-7.132813-9.734375l10.15625-65.878906c.753906-4.929688-.683594-9.941407-3.933594-13.726563s-7.988281-5.964844-12.976562-5.964844h-247.464844c-4.992187 0-9.730468 2.179688-12.984375 5.964844-3.25 3.785156-4.683593 8.800781-3.929687 13.730469l10.15625 65.785156c.71875 4.65625-2.472656 9.019531-7.128906 9.738281-4.660157.71875-9.019532-2.472656-9.738282-7.128906l-10.15625-65.792969c-1.511718-9.855468 1.351563-19.878906 7.84375-27.445312 6.492188-7.5625 15.964844-11.917969 25.9375-11.917969h247.464844c9.96875 0 19.441406 4.351563 25.933594 11.917969 6.492187 7.5625 9.359375 17.585937 7.847656 27.4375l-10.15625 65.882812c-.640625 4.15625-4.21875 7.226563-8.425781 7.230469zm0 0"/><path d="m256.820312 179.21875h-1.714843c-133.046875-.203125-203.890625-44.675781-203.890625-76.800781-.183594-4.738281 1.910156-9.28125 5.632812-12.21875 9.601563-7.519531 27.421875-3.128907 59.785156 4.839843 45.425782 12.636719 92.246094 19.589844 139.382813 20.691407 47.140625-1.101563 93.960937-8.054688 139.390625-20.691407 32.351562-7.96875 50.179688-12.359374 59.78125-4.839843 3.722656 2.9375 5.8125 7.480469 5.628906 12.21875 0 32.125-70.839844 76.597656-203.886718 76.800781zm-188.4375-75.796875c2.609376 17.425781 60.632813 58.726563 187.632813 58.726563 127.421875 0 185.410156-41.578126 187.667969-58.71875-6.453125-1.117188-26.421875 3.800781-44.203125 8.179687-46.457031 12.894531-94.324219 20.011719-142.523438 21.1875h-1.878906c-48.199219-1.175781-96.070313-8.292969-142.523437-21.191406-14.363282-4.402344-29.183594-7.148438-44.171876-8.183594zm0 0"/><path d="m256.015625 132.796875c-4.710937 0-8.53125-3.820313-8.53125-8.535156v-38.910157c0-4.714843 3.820313-8.535156 8.53125-8.535156 4.714844 0 8.535156 3.820313 8.535156 8.535156v38.910157c0 4.714843-3.820312 8.535156-8.535156 8.535156zm0 0"/><path d="m187.75 85.351562c-23.5625 0-42.667969-19.105468-42.667969-42.667968s19.105469-42.667969 42.667969-42.667969 42.667969 19.105469 42.667969 42.667969c-.027344 23.550781-19.113281 42.640625-42.667969 42.667968zm0-68.269531c-10.355469 0-19.6875 6.238281-23.652344 15.804688-3.960937 9.566406-1.769531 20.578125 5.550782 27.898437 7.320312 7.320313 18.332031 9.511719 27.898437 5.550782 9.566406-3.964844 15.804687-13.296876 15.804687-23.652344-.015624-14.132813-11.46875-25.585938-25.601562-25.601563zm0 0"/><path d="m315.75 102.417969c-18.851562 0-34.132812-15.28125-34.132812-34.132813 0-18.851562 15.28125-34.136718 34.132812-34.136718s34.132812 15.285156 34.132812 34.136718c-.019531 18.839844-15.289062 34.109375-34.132812 34.132813zm0-51.199219c-9.425781 0-17.066406 7.640625-17.066406 17.066406 0 9.425782 7.640625 17.066406 17.066406 17.066406s17.066406-7.640624 17.066406-17.066406c-.007812-9.421875-7.644531-17.058594-17.066406-17.066406zm0 0"/><path d="m264.550781 435.21875h-17.066406c-14.132813-.015625-25.585937-11.46875-25.601563-25.601562v-34.132813c.015626-14.132813 11.46875-25.585937 25.601563-25.601563h17.066406c14.132813.015626 25.582031 11.46875 25.597657 25.601563v34.132813c-.015626 14.132812-11.464844 25.585937-25.597657 25.601562zm-17.066406-68.269531c-4.710937.007812-8.527344 3.824219-8.535156 8.535156v34.132813c.007812 4.710937 3.824219 8.527343 8.535156 8.53125h17.066406c4.710938-.003907 8.527344-3.820313 8.53125-8.53125v-34.132813c-.003906-4.710937-3.820312-8.527344-8.53125-8.535156zm0 0"/><path d="m173.652344 435.15625c-6.015625.234375-11.980469-1.167969-17.261719-4.066406-7.628906-4.777344-11.984375-13.394532-11.308594-22.375v-32.332032c-.675781-8.976562 3.679688-17.59375 11.308594-22.375 22.101563-13.3125 68.851563 10.011719 78 14.824219 4.140625 2.210938 5.71875 7.347657 3.535156 11.5-2.1875 4.15625-7.3125 5.765625-11.480469 3.605469-18.6875-9.8125-51.042968-21.488281-61.238281-15.316406-.910156.554687-3.058593 1.851562-3.058593 7.765625v32.332031c0 5.914062 2.148437 7.210938 3.058593 7.765625 10.1875 6.164063 42.558594-5.507813 61.238281-15.316406 4.167969-2.160157 9.292969-.550781 11.480469 3.605469 2.183594 4.152343.605469 9.289062-3.535156 11.5-7.160156 3.765624-37.355469 18.882812-60.738281 18.882812zm0 0"/><path d="m338.378906 435.15625c-23.378906 0-53.574218-15.117188-60.738281-18.890625-4.136719-2.207031-5.714844-7.347656-3.53125-11.5s7.3125-5.761719 11.476563-3.601563c18.6875 9.8125 51.058593 21.464844 61.238281 15.316407.914062-.554688 3.058593-1.851563 3.058593-7.765625v-32.332032c0-5.914062-2.144531-7.210937-3.058593-7.765624-10.199219-6.175782-42.5625 5.5-61.238281 15.316406-4.164063 2.15625-9.292969.546875-11.476563-3.605469s-.605469-9.289063 3.53125-11.5c9.152344-4.816406 55.925781-28.179687 78-14.824219 7.632813 4.78125 11.988281 13.398438 11.308594 22.378906v32.332032c.675781 8.980468-3.675781 17.597656-11.308594 22.375-5.277344 2.894531-11.246094 4.296875-17.261719 4.066406zm0 0"/><path d="m230.410156 512.015625c-3.914062-.003906-7.320312-2.667969-8.273437-6.460937-7.867188-31.480469-48.546875-72.425782-48.953125-72.839844-3.234375-3.347656-3.1875-8.667969.105468-11.960938 3.289063-3.292968 8.613282-3.335937 11.960938-.101562 1.8125 1.804687 44.441406 44.746094 53.445312 80.761718.640626 2.550782.066407 5.253907-1.554687 7.324219-1.617187 2.070313-4.101563 3.28125-6.730469 3.277344zm0 0"/><path d="m281.625 512.015625c-2.628906.003906-5.113281-1.207031-6.734375-3.277344-1.617187-2.070312-2.191406-4.773437-1.554687-7.324219 9.007812-36.011718 51.636718-78.957031 53.449218-80.761718 3.332032-3.335938 8.734375-3.335938 12.066406-.003906 3.332032 3.332031 3.335938 8.734374.003907 12.066406-.414063.410156-41.105469 41.417968-48.960938 72.839844-.949219 3.792968-4.359375 6.457031-8.269531 6.460937zm0 0"/><path d="m256.015625 512.015625c-4.710937 0-8.53125-3.820313-8.53125-8.53125v-76.800781c0-4.714844 3.820313-8.535156 8.53125-8.535156 4.714844 0 8.535156 3.820312 8.535156 8.535156v76.800781c0 4.710937-3.820312 8.53125-8.535156 8.53125zm0 0"/></svg>