<svg height="512pt" viewBox="0 0 512.00018 512" width="512pt" xmlns="http://www.w3.org/2000/svg"><path d="m187.734375 290.851562h136.53125v75.363282h-136.53125zm0 0" fill="#fec108"/><path d="m358.398438 296.363281v.085938c-9.984376 7.042969-21.914063 10.800781-34.132813 10.75h-136.53125c-12.21875.050781-24.148437-3.707031-34.132813-10.75v-.085938c-8.535156-79.617187-17.066406-128 17.066407-159.828125h166.398437c34.132813 31.828125 29.867188 80.210938 21.332032 159.828125zm0 0" fill="#fec108"/><path d="m336.589844 296.363281v.085938c-7.3125 6.816406-16.914063 10.652343-26.914063 10.75h-107.691406c-10-.097657-19.605469-3.929688-26.921875-10.75v-.085938c-6.730469-79.617187-13.460938-128 13.460938-159.828125h131.242187c26.921875 31.828125 23.554687 80.210938 16.824219 159.828125zm0 0" fill="#ffdc00"/><path d="m409.601562 503.464844h93.867188l-.003906-7.59375c.015625-10.925782-1.300782-21.816406-3.921875-32.425782l-7.9375-32.171874c-5.902344-22.890626-22.539063-41.5-44.628907-49.917969l-89.089843-31.488281h-203.773438l-89.089843 31.488281c-22.089844 8.417969-38.726563 27.027343-44.628907 49.917969l-7.9375 32.171874c-2.621093 10.609376-3.9375 21.5-3.921875 32.425782v7.59375zm0 0" fill="#ffdc00"/><path d="m187.734375 477.867188c-4.714844 0-8.535156-3.820313-8.535156-8.535157v-8.53125c0-4.714843 3.820312-8.535156 8.535156-8.535156 4.710937 0 8.53125 3.820313 8.53125 8.535156v8.53125c0 4.714844-3.820313 8.535157-8.53125 8.535157zm0 0" fill="#f29c1f"/><path d="m324.265625 477.867188c-4.710937 0-8.53125-3.820313-8.53125-8.535157v-8.53125c0-4.714843 3.820313-8.535156 8.53125-8.535156 4.714844 0 8.535156 3.820313 8.535156 8.535156v8.53125c0 4.714844-3.820312 8.535157-8.535156 8.535157zm0 0" fill="#f29c1f"/><path d="m332.800781 145.066406c34.132813 31.828125 34.132813 71.679688 25.597657 151.296875v.085938c-8.53125 79.699219 25.601562 207.015625 25.601562 207.015625h51.199219c.886719-40.9375 4.824219-81.753906 11.777343-122.109375 7.851563-53.589844 15.1875-105.132813 5.289063-159.488281-2.984375-16.46875-9.898437-46.421876-18.261719-76.972657l-28.242187-85.160156c-1.34375-2.960937-2.910157-5.816406-4.695313-8.535156-17.066406-25.597657-51.199218-42.664063-93.867187-42.664063-42.664063 0-51.199219 8.53125-51.199219 8.53125s-8.535156-8.53125-51.199219-8.53125c-42.667969 0-76.800781 17.066406-93.867187 42.664063-1.785156 2.71875-3.351563 5.574219-4.695313 8.535156l-28.242187 85.160156c-8.363282 30.550781-15.277344 60.503907-18.261719 76.972657-9.898437 54.355468-2.5625 105.898437 5.289063 159.488281 6.953124 40.355469 10.890624 81.171875 11.777343 122.109375h51.199219s34.132812-127.316406 25.601562-207.015625v-.085938c-8.535156-79.617187-8.535156-119.46875 25.597657-151.296875zm0 0" fill="#783e22"/><path d="m434.003906 144.894531c-.5625.101563-1.132812.15625-1.707031.171875h-352.59375c-.574219-.015625-1.144531-.070312-1.707031-.171875-2.355469-.472656-4.394532-1.925781-5.617188-3.992187-1.21875-2.066406-1.503906-4.554688-.785156-6.84375l20.480469-68.265625c1.054687-3.601563 4.359375-6.070313 8.105469-6.058594h311.640624c3.746094-.011719 7.054688 2.457031 8.105469 6.058594l20.480469 68.265625c.71875 2.289062.433594 4.777344-.785156 6.84375-1.222656 2.066406-3.261719 3.519531-5.617188 3.992187zm0 0" fill="#c81e1e"/><path d="m403.957031 144.894531c-.46875.101563-.945312.15625-1.421875.171875h-293.070312c-.476563-.015625-.953125-.070312-1.421875-.171875-4.40625-1.585937-6.757813-6.378906-5.316407-10.835937l17.023438-68.265625c.570312-3.339844 3.359375-5.84375 6.738281-6.058594h259.027344c3.378906.214844 6.167969 2.71875 6.738281 6.058594l17.023438 68.265625c1.441406 4.457031-.914063 9.253906-5.320313 10.835937zm0 0" fill="#f44335"/><path d="m299.605469 255.464844c-4.703125 14.523437-26.84375 21.660156-38.832031 23.757812-12.011719 2.105469-34.257813 4.0625-43.617188-8 13.980469.84375 28.015625.101563 41.828125-2.210937 14-3.003907 27.621094-7.546875 40.621094-13.546875zm0 0"/><path d="m231.914062 185.300781c-7.402343-4.460937-15.445312-7.761719-23.84375-9.796875-11.230468-3.050781-23.101562-2.8125-34.199218.691406 3.964844-14.445312 38.523437-10.808593 54.417968-3.839843 2.570313.832031 4.554688 2.894531 5.285157 5.5.726562 2.601562.105469 5.398437-1.660157 7.445312zm0 0"/><path d="m230.269531 202.078125c0-10.101563-7.640625-18.289063-17.066406-18.289063s-17.066406 8.1875-17.066406 18.289063c0 10.105469 7.640625 18.292969 17.066406 18.292969s17.066406-8.1875 17.066406-18.292969zm0 0"/><path d="m217.988281 186.207031c-4.402343-1.675781-9.332031.539063-11.007812 4.941407-1.675781 4.40625.535156 9.335937 4.941406 11.011718 4.40625 1.675782 9.335937-.539062 11.011719-4.945312 1.671875-4.402344-.539063-9.332032-4.945313-11.007813zm0 0" fill="#fff"/><path d="m278.917969 187.089844c6.050781-7.96875 14.457031-13.828125 24.027343-16.742188 12.871094-3.433594 26.5625.914063 35.09375 11.140625-.132812-.125.132813-2.847656.085938-3.269531-.140625-1.105469-.4375-2.1875-.886719-3.207031-1.003906-2.179688-2.480469-4.109375-4.320312-5.648438-4.582031-3.71875-10.035157-6.210937-15.84375-7.242187-7.722657-1.746094-15.773438-1.347656-23.28125 1.152344-4.523438 1.5625-8.683594 4.015624-12.238281 7.210937-3.136719 2.871094-7.777344 8.152344-5.761719 12.960937.933593 1.304688 1.976562 2.523438 3.125 3.644532zm0 0"/><path d="m315.605469 202.078125c0-10.101563-7.640625-18.289063-17.066407-18.289063-9.425781 0-17.066406 8.1875-17.066406 18.289063 0 10.105469 7.640625 18.292969 17.066406 18.292969 9.425782 0 17.066407-8.1875 17.066407-18.292969zm0 0"/><path d="m304.761719 191.148438c-1.675781-4.402344-6.601563-6.617188-11.007813-4.941407s-6.617187 6.605469-4.941406 11.011719c1.675781 4.402344 6.601562 6.617188 11.007812 4.941406 4.40625-1.675781 6.617188-6.605468 4.941407-11.011718zm0 0" fill="#fff"/><path d="m435.199219 512h-358.398438c-4.714843 0-8.535156-3.820312-8.535156-8.535156 0-4.710938 3.820313-8.53125 8.535156-8.53125h358.398438c4.714843 0 8.535156 3.820312 8.535156 8.53125 0 4.714844-3.820313 8.535156-8.535156 8.535156zm0 0"/><path d="m357.886719 358.398438h-203.773438c-4.714843 0-8.535156-3.820313-8.535156-8.53125 0-4.714844 3.820313-8.535157 8.535156-8.535157h203.773438c4.714843 0 8.535156 3.820313 8.535156 8.535157 0 4.710937-3.820313 8.53125-8.535156 8.53125zm0 0"/><path d="m324.265625 358.398438h-136.53125c-4.714844 0-8.535156-3.820313-8.535156-8.53125v-42.667969c0-4.710938 3.820312-8.53125 8.535156-8.53125h136.53125c4.714844 0 8.535156 3.820312 8.535156 8.53125v42.667969c0 4.710937-3.820312 8.53125-8.535156 8.53125zm-128-17.066407h119.46875v-25.597656h-119.46875zm0 0"/><path d="m324.265625 315.734375h-136.53125c-13.984375.058594-27.640625-4.246094-39.0625-12.316406-2.488281-1.761719-3.851563-4.71875-3.570313-7.753907.28125-3.035156 2.160157-5.691406 4.929688-6.964843 2.769531-1.277344 6.007812-.976563 8.496094.785156 8.542968 6.023437 18.753906 9.234375 29.207031 9.183594h136.53125c10.453125.050781 20.664063-3.160157 29.207031-9.183594 2.488282-1.761719 5.726563-2.0625 8.496094-.785156 2.769531 1.273437 4.648438 3.929687 4.929688 6.964843.28125 3.035157-1.082032 5.992188-3.570313 7.753907-11.421875 8.070312-25.078125 12.375-39.0625 12.316406zm0 0"/><path d="m102.398438 512h-93.863282c-4.714844 0-8.535156-3.820312-8.535156-8.535156v-7.59375c-.0117188-11.617188 1.390625-23.195313 4.175781-34.480469l7.9375-32.160156c6.589844-25.558594 25.132813-46.351563 49.773438-55.8125 2.835937-1.121094 6.054687-.644531 8.441406 1.25 2.390625 1.894531 3.585937 4.921875 3.136719 7.9375-.445313 3.015625-2.46875 5.5625-5.300782 6.683593-19.503906 7.429688-34.210937 23.828126-39.480468 44.019532l-7.941406 32.183594c-2.378907 9.636718-3.609376 19.519531-3.667969 29.441406h85.324219c4.714843 0 8.535156 3.820312 8.535156 8.53125 0 4.714844-3.820313 8.535156-8.535156 8.535156zm0 0"/><path d="m503.464844 512h-93.863282c-4.714843 0-8.535156-3.820312-8.535156-8.535156 0-4.710938 3.820313-8.53125 8.535156-8.53125h85.332032c-.058594-9.921875-1.289063-19.800782-3.667969-29.433594l-7.9375-32.179688c-5.269531-20.199218-19.976563-36.601562-39.484375-44.03125-2.835938-1.121093-4.855469-3.667968-5.304688-6.683593-.445312-3.019531.75-6.042969 3.140626-7.9375 2.386718-1.894531 5.605468-2.371094 8.441406-1.25 24.640625 9.464843 43.1875 30.261719 49.777344 55.824219l7.9375 32.15625c2.78125 11.28125 4.179687 22.855468 4.164062 34.472656v7.59375c0 4.714844-3.820312 8.535156-8.535156 8.535156zm0 0"/><path d="m256 409.601562c-60.207031 0-103.667969-48.144531-108.425781-53.636718-3.085938-3.5625-2.699219-8.949219.863281-12.035156 3.5625-3.085938 8.953125-2.699219 12.039062.863281 4.230469 4.886719 42.890626 47.742187 95.523438 47.742187s91.292969-42.855468 95.523438-47.742187c2-2.304688 5.074218-3.371094 8.066406-2.792969 2.996094.578125 5.453125 2.707031 6.449218 5.589844 1 2.882812.382813 6.078125-1.613281 8.378906-4.757812 5.488281-48.21875 53.632812-108.425781 53.632812zm0 0"/><path d="m221.867188 477.867188h-76.800782c-4.480468.023437-8.882812-1.144532-12.761718-3.386719-3.992188-2.417969-5.304688-7.589844-2.949219-11.617188 2.359375-4.023437 7.515625-5.410156 11.574219-3.109375 1.261718.707032 2.691406 1.070313 4.136718 1.046875h76.800782c4.710937-.007812 8.527343-3.824219 8.53125-8.535156 0-4.710937 3.820312-8.53125 8.535156-8.53125 4.710937 0 8.53125 3.820313 8.53125 8.53125-.011719 14.132813-11.464844 25.585937-25.597656 25.601563zm0 0"/><path d="m366.933594 477.867188h-76.800782c-14.132812-.015626-25.582031-11.46875-25.597656-25.601563 0-4.710937 3.820313-8.53125 8.53125-8.53125 4.714844 0 8.535156 3.820313 8.535156 8.53125.003907 4.710937 3.820313 8.527344 8.53125 8.535156h76.800782c1.445312.023438 2.875-.339843 4.136718-1.046875 4.058594-2.300781 9.214844-.914062 11.574219 3.109375 2.355469 4.027344 1.042969 9.199219-2.949219 11.617188-3.878906 2.242187-8.28125 3.410156-12.761718 3.386719zm0 0"/><path d="m187.734375 477.867188c-4.714844 0-8.535156-3.820313-8.535156-8.535157v-8.53125c0-4.714843 3.820312-8.535156 8.535156-8.535156 4.710937 0 8.53125 3.820313 8.53125 8.535156v8.53125c0 4.714844-3.820313 8.535157-8.53125 8.535157zm0 0"/><path d="m324.265625 477.867188c-4.710937 0-8.53125-3.820313-8.53125-8.535157v-8.53125c0-4.714843 3.820313-8.535156 8.53125-8.535156 4.714844 0 8.535156 3.820313 8.535156 8.535156v8.53125c0 4.714844-3.820312 8.535157-8.535156 8.535157zm0 0"/><path d="m76.800781 512c-4.714843 0-8.535156-3.820312-8.535156-8.535156-.824219-39.542969-4.585937-78.972656-11.257813-117.960938l-.425781-2.910156c-7.625-52.050781-15.511719-105.886719-5.246093-162.257812 2.773437-15.304688 9.550781-45.269532 18.433593-77.695313.765625-2.984375 3.082031-5.324219 6.058594-6.121094 2.972656-.792969 6.148437.074219 8.304687 2.277344 2.152344 2.203125 2.953126 5.394531 2.09375 8.351563-8.738281 31.925781-15.382812 61.296874-18.097656 76.238281-9.765625 53.621093-2.085937 106.039062 5.339844 156.730469l.425781 2.902343c6.800781 39.808594 10.625 80.070313 11.4375 120.445313 0 2.265625-.898437 4.4375-2.496093 6.035156-1.601563 1.601562-3.773438 2.5-6.035157 2.5zm0 0"/><path d="m106.238281 68.265625c-1.265625.003906-2.515625-.277344-3.65625-.824219-4.253906-2.023437-6.066406-7.113281-4.046875-11.371094 1.53125-3.382812 3.332032-6.640624 5.386719-9.734374 19.308594-28.964844 57.054687-46.335938 100.878906-46.335938 42.871094 0 54.644531 8.449219 57.230469 11.035156 3.234375 3.246094 3.324219 8.46875.207031 11.824219-3.121093 3.355469-8.332031 3.652344-11.808593.667969-.875-.566406-10.839844-6.460938-45.628907-6.460938-38.105469 0-70.542969 14.527344-86.769531 38.867188-1.554688 2.375-2.917969 4.871094-4.082031 7.460937-1.414063 2.976563-4.414063 4.875-7.710938 4.871094zm0 0"/><path d="m128.003906 512c-2.652344 0-5.15625-1.230469-6.773437-3.335938-1.613281-2.105468-2.160157-4.84375-1.472657-7.40625.34375-1.257812 33.621094-126.832031 25.359376-203.957031-8.746094-81.628906-8.808594-123.871093 28.261718-158.472656 2.21875-2.148437 5.421875-2.933594 8.382813-2.050781 2.957031.882812 5.210937 3.292968 5.886719 6.308594.675781 3.011718-.328126 6.15625-2.628907 8.21875-31.589843 29.492187-31.25 66.578124-22.9375 144.179687 8.605469 80.304687-24.429687 204.925781-25.839843 210.191406-1 3.726563-4.378907 6.320313-8.238282 6.324219zm0 0"/><path d="m435.199219 512c-4.710938 0-8.53125-3.820312-8.53125-8.535156.8125-40.375 4.632812-80.636719 11.433593-120.445313l.425782-2.90625c7.425781-50.6875 15.105468-103.105469 5.339844-156.71875-2.714844-14.949219-9.359376-44.320312-18.097657-76.246093-1.160156-4.511719 1.515625-9.121094 6.011719-10.351563 4.492188-1.230469 9.144531 1.371094 10.445312 5.84375 8.878907 32.425781 15.65625 62.390625 18.433594 77.707031 10.265625 56.359375 2.378906 110.191406-5.246094 162.246094l-.425781 2.910156c-6.667969 38.988282-10.429687 78.417969-11.253906 117.960938 0 4.714844-3.820313 8.535156-8.535156 8.535156zm0 0"/><path d="m405.761719 68.265625c-3.296875.003906-6.300781-1.894531-7.714844-4.871094-1.140625-2.542969-2.476563-4.996093-3.996094-7.332031-16.308593-24.46875-48.746093-38.996094-86.851562-38.996094-36.351563 0-45.597657 6.4375-45.6875 6.503906-1.578125 1.566407-3.726563 2.425782-5.953125 2.382813-2.226563-.042969-4.335938-.988281-5.855469-2.613281-3.257813-3.496094-3.140625-8.953125.265625-12.304688 2.585938-2.585937 14.359375-11.035156 57.230469-11.035156 43.824219 0 81.570312 17.371094 100.96875 46.464844 2.019531 3.054687 3.792969 6.269531 5.296875 9.605468 1.257812 2.644532 1.070312 5.746094-.492188 8.222657-1.5625 2.472656-4.285156 3.972656-7.210937 3.972656zm0 0"/><path d="m384 512c-3.859375-.003906-7.238281-2.597656-8.238281-6.324219-1.410157-5.265625-34.445313-129.886719-25.839844-210.191406 8.3125-77.601563 8.652344-114.6875-22.9375-144.179687-3.335937-3.238282-3.46875-8.546876-.296875-11.945313s8.476562-3.636719 11.9375-.53125c37.070312 34.601563 37.007812 76.84375 28.261719 158.472656-8.265625 77.171875 25.023437 202.699219 25.359375 203.957031.6875 2.5625.140625 5.300782-1.472656 7.40625-1.617188 2.105469-4.121094 3.335938-6.773438 3.335938zm0 0"/><path d="m432.261719 153.601562h-352.523438c-5.394531 0-10.472656-2.550781-13.695312-6.878906-3.21875-4.328125-4.203125-9.921875-2.65625-15.089844l20.480469-68.265624c2.136718-7.242188 8.800781-12.199219 16.347656-12.167969h311.570312c7.546875-.035157 14.214844 4.925781 16.347656 12.167969l20.480469 68.265624c1.550781 5.167969.5625 10.761719-2.65625 15.089844-3.222656 4.328125-8.300781 6.878906-13.695312 6.878906zm-332.046875-85.335937-20.476563 68.269531h352.523438l-20.480469-68.269531zm0 0"/></svg>