<svg height="512pt" viewBox="0 0 512.00015 512" width="512pt" xmlns="http://www.w3.org/2000/svg"><path d="m187.734375 293.785156h136.53125v69.496094h-136.53125zm0 0" fill="#fec108"/><path d="m409.601562 503.464844h93.867188l-.003906-7.59375c.015625-10.925782-1.300782-21.816406-3.921875-32.425782l-7.9375-32.171874c-9.203125-33.554688-40.046875-56.558594-74.835938-55.808594h-321.539062c-34.789063-.75-65.632813 22.253906-74.835938 55.808594l-7.9375 32.171874c-2.621093 10.609376-3.9375 21.5-3.921875 32.425782v7.59375zm0 0" fill="#cfd8dc"/><path d="m435.199219 503.464844h-358.398438l28.910157-139.921875c2.957031-8.832031 11.585937-14.488281 20.871093-13.675781h258.890625c9.28125-.8125 17.914063 4.84375 20.871094 13.675781zm0 0" fill="#f5f5f5"/><path d="m384 119.464844v128c.011719 15.847656-6.277344 31.046875-17.484375 42.253906-11.203125 11.203125-26.402344 17.492188-42.25 17.480469h-136.53125c-15.847656.011719-31.046875-6.277344-42.25-17.480469-11.207031-11.207031-17.496094-26.40625-17.484375-42.253906v-128zm0 0" fill="#fec108"/><path d="m358.398438 119.464844v128c0 33.027344-21.367188 59.734375-47.785157 59.734375h-109.226562c-26.417969 0-47.785157-26.707031-47.785157-59.734375v-128zm0 0" fill="#ffdc00"/><path d="m387.414062 136.535156h-262.828124c-5.300782-.015625-10.296876-2.492187-13.523438-6.703125-3.226562-4.210937-4.3125-9.679687-2.945312-14.800781l19.96875-74.839844c4.976562-18.671875 21.890624-31.664062 41.214843-31.65625h173.398438c19.324219-.007812 36.238281 12.984375 41.214843 31.65625l19.96875 74.839844c1.367188 5.121094.28125 10.589844-2.945312 14.800781-3.222656 4.210938-8.21875 6.6875-13.523438 6.703125zm0 0" fill="#783e22"/><path d="m361.742188 136.535156h-211.484376c-4.789062-.765625-9.011718-3.582031-11.558593-7.714844-2.546875-4.128906-3.164063-9.167968-1.691407-13.789062l16.066407-74.839844c3.984375-18.6875 17.644531-31.65625 33.164062-31.65625h139.519531c15.519532 0 29.183594 12.96875 33.164063 31.65625l16.066406 74.839844c1.472657 4.621094.855469 9.65625-1.691406 13.789062-2.542969 4.132813-6.765625 6.949219-11.554687 7.714844zm0 0" fill="#a0522d"/><path d="m392.535156 503.464844h-273.070312s34.136718-51.199219 34.136718-85.332032v-68.265624h34.132813v68.265624h136.53125v-68.265624h34.132813v68.265624c0 34.132813 34.136718 85.332032 34.136718 85.332032zm0 0" fill="#f57c00"/><path d="m296.339844 247.464844c-6.894532 13.496094-28.414063 15.402344-40.167969 15.402344-11.78125 0-33.277344-1.90625-40.171875-15.402344 13.148438 3.242187 26.628906 4.929687 40.171875 5.035156 13.539063-.101562 27.023437-1.792969 40.167969-5.035156zm0 0"/><path d="m233.648438 158.625c-8.109376-2.980469-16.625-4.707031-25.257813-5.121094-11.601563-.875-23.214844 1.601563-33.449219 7.132813 1.167969-14.933594 35.789063-17.882813 52.710938-14.042969 2.683594.332031 5.019531 1.988281 6.226562 4.40625 1.207032 2.421875 1.121094 5.28125-.230468 7.625zm0 0"/><path d="m230.398438 185.011719c0-10.101563-7.640626-18.289063-17.066407-18.289063s-17.066406 8.1875-17.066406 18.289063c0 10.105469 7.640625 18.292969 17.066406 18.292969s17.066407-8.1875 17.066407-18.292969zm0 0"/><path d="m218.117188 169.140625c-4.40625-1.675781-9.332032.535156-11.007813 4.941406s.535156 9.335938 4.941406 11.011719c4.40625 1.671875 9.332031-.539062 11.007813-4.945312 1.675781-4.402344-.535156-9.332032-4.941406-11.007813zm0 0" fill="#fff"/><path d="m278.351562 158.625c8.109376-2.980469 16.625-4.707031 25.257813-5.121094 11.601563-.875 23.214844 1.601563 33.449219 7.132813-1.167969-14.933594-35.789063-17.882813-52.710938-14.042969-2.683594.332031-5.019531 1.988281-6.226562 4.40625-1.207032 2.421875-1.117188 5.28125.230468 7.625zm0 0"/><path d="m315.734375 185.011719c0-10.101563-7.640625-18.289063-17.066406-18.289063s-17.066407 8.1875-17.066407 18.289063c0 10.105469 7.640626 18.292969 17.066407 18.292969s17.066406-8.1875 17.066406-18.292969zm0 0"/><path d="m304.890625 174.082031c-1.675781-4.402343-6.601563-6.617187-11.007813-4.941406s-6.617187 6.605469-4.941406 11.007813c1.675782 4.40625 6.601563 6.621093 11.007813 4.945312s6.617187-6.605469 4.941406-11.011719zm0 0" fill="#fff"/><path d="m435.199219 512h-358.398438c-2.566406 0-4.996093-1.152344-6.617187-3.144531-1.621094-1.988281-2.261719-4.601563-1.742188-7.113281l28.910156-139.921876c3.722657-12.84375 15.882813-21.367187 29.226563-20.488281h258.894531c13.359375-.875 25.527344 7.667969 29.238282 20.535157l28.84375 139.875c.519531 2.511718-.121094 5.125-1.742188 7.113281-1.617188 1.988281-4.046875 3.144531-6.613281 3.144531zm-347.925781-17.066406h337.457031l-26.742188-129.664063c-2.261719-4.738281-7.300781-7.507812-12.515625-6.871093h-258.894531c-5.199219-.632813-10.226563 2.113281-12.503906 6.828124zm0 0"/><path d="m324.265625 358.398438h-136.53125c-4.714844 0-8.535156-3.820313-8.535156-8.53125v-42.667969c0-4.710938 3.820312-8.53125 8.535156-8.53125h136.53125c4.714844 0 8.535156 3.820312 8.535156 8.53125v42.667969c0 4.710937-3.820312 8.53125-8.535156 8.53125zm-128-17.066407h119.46875v-25.597656h-119.46875zm0 0"/><path d="m324.265625 315.734375h-136.53125c-37.6875-.042969-68.222656-30.582031-68.269531-68.269531v-110.929688c0-4.714844 3.824218-8.535156 8.535156-8.535156 4.714844 0 8.535156 3.820312 8.535156 8.535156v110.929688c.027344 28.265625 22.933594 51.171875 51.199219 51.203125h136.53125c28.265625-.03125 51.171875-22.9375 51.199219-51.203125v-110.929688c0-4.714844 3.824218-8.535156 8.535156-8.535156 4.714844 0 8.535156 3.820312 8.535156 8.535156v110.929688c-.046875 37.6875-30.582031 68.226562-68.269531 68.269531zm0 0"/><path d="m102.398438 512h-93.863282c-4.714844 0-8.535156-3.820312-8.535156-8.535156v-7.59375c-.0117188-11.617188 1.390625-23.195313 4.175781-34.480469l7.9375-32.160156c10.019531-37.453125 44.359375-63.191407 83.117188-62.296875h8.023437c4.710938 0 8.53125 3.820312 8.53125 8.53125 0 4.714844-3.820312 8.535156-8.53125 8.535156h-8.023437c-30.898438-.875-58.386719 19.496094-66.550781 49.308594l-7.9375 32.183594c-2.378907 9.636718-3.609376 19.519531-3.667969 29.441406h85.324219c4.714843 0 8.535156 3.820312 8.535156 8.53125 0 4.714844-3.820313 8.535156-8.535156 8.535156zm0 0"/><path d="m503.464844 512h-93.863282c-4.714843 0-8.535156-3.820312-8.535156-8.535156 0-4.710938 3.820313-8.53125 8.535156-8.53125h85.332032c-.058594-9.921875-1.289063-19.800782-3.667969-29.433594l-7.9375-32.179688c-8.160156-29.820312-35.65625-50.195312-66.558594-49.320312h-7.9375c-4.710937 0-8.535156-3.820312-8.535156-8.535156 0-4.710938 3.824219-8.53125 8.535156-8.53125h7.9375c38.761719-.894532 73.105469 24.851562 83.125 62.308594l7.933594 32.15625c2.785156 11.28125 4.183594 22.855468 4.171875 34.472656v7.59375c0 4.714844-3.820312 8.535156-8.535156 8.535156zm0 0"/><path d="m387.386719 145.066406h-262.773438c-7.953125 0-15.453125-3.699218-20.300781-10.003906-4.84375-6.308594-6.480469-14.507812-4.433594-22.191406l19.960938-74.863282c5.996094-22.398437 26.285156-37.9882808 49.472656-38.007812h173.375c23.191406.0195312 43.476562 15.609375 49.472656 38.011719l19.960938 74.859375c2.046875 7.683594.410156 15.882812-4.433594 22.191406-4.847656 6.304688-12.347656 10.003906-20.300781 10.003906zm-218.074219-128c-15.457031.015625-28.984375 10.402344-32.980469 25.335938l-19.960937 74.867187c-.683594 2.5625-.140625 5.296875 1.476562 7.398438 1.613282 2.101562 4.113282 3.332031 6.765625 3.332031h262.773438c2.652343 0 5.152343-1.230469 6.765625-3.332031 1.617187-2.101563 2.160156-4.835938 1.476562-7.398438l-19.960937-74.859375c-3.996094-14.9375-17.519531-25.328125-32.980469-25.34375zm0 0"/><path d="m256 145.066406c-4.710938 0-8.535156-3.820312-8.535156-8.53125v-68.269531c0-4.710937 3.824218-8.53125 8.535156-8.53125 4.714844 0 8.535156 3.820313 8.535156 8.53125v68.269531c0 4.710938-3.820312 8.53125-8.535156 8.53125zm0 0"/><path d="m256 34.132812c-4.710938 0-8.535156-3.820312-8.535156-8.53125v-17.066406c0-4.714844 3.824218-8.535156 8.535156-8.535156 4.714844 0 8.535156 3.820312 8.535156 8.535156v17.066406c0 4.710938-3.820312 8.53125-8.535156 8.53125zm0 0"/><path d="m392.542969 512c-2.859375.003906-5.527344-1.421875-7.109375-3.800781-1.34375-2.011719-30.558594-46.191407-35.003906-81.53125h-188.859376c-4.445312 35.339843-33.660156 79.519531-35.003906 81.53125-2.632812 3.871093-7.894531 4.898437-11.789062 2.300781-3.898438-2.59375-4.972656-7.847656-2.410156-11.765625.324218-.488281 32.699218-49.472656 32.699218-80.601563 0-4.710937 3.820313-8.53125 8.535156-8.53125h204.796876c4.714843 0 8.535156 3.820313 8.535156 8.53125 0 31.128907 32.375 80.113282 32.699218 80.601563 1.746094 2.617187 1.910157 5.980469.425782 8.753906-1.484375 2.773438-4.371094 4.507813-7.515625 4.511719zm0 0"/><path d="m187.734375 426.667969h-34.132813c-4.714843 0-8.535156-3.820313-8.535156-8.535157v-68.265624c0-4.714844 3.820313-8.535157 8.535156-8.535157h34.132813c4.710937 0 8.53125 3.820313 8.53125 8.535157v68.265624c0 4.714844-3.820313 8.535157-8.53125 8.535157zm-25.601563-17.066407h17.066407v-51.203124h-17.066407zm0 0"/><path d="m358.398438 426.667969h-34.132813c-4.710937 0-8.53125-3.820313-8.53125-8.535157v-68.265624c0-4.714844 3.820313-8.535157 8.53125-8.535157h34.132813c4.714843 0 8.535156 3.820313 8.535156 8.535157v68.265624c0 4.714844-3.820313 8.535157-8.535156 8.535157zm-25.597657-17.066407h17.066407v-51.203124h-17.066407zm0 0"/></svg>