<svg height="512pt" viewBox="0 0 512.00069 512" width="512pt" xmlns="http://www.w3.org/2000/svg"><path d="m189.332031 287.265625h136.535157v82.535156h-136.535157zm0 0" fill="#fec108"/><path d="m409.601562 503.46875h93.867188v-7.597656c.011719-8.992188-1.3125-17.933594-3.925781-26.539063l-7.9375-38.058593c-9.203125-33.554688-40.046875-56.554688-74.835938-55.804688h-321.535156c-34.789063-.75-65.632813 22.25-74.839844 55.804688l-7.933593 38.058593c-2.617188 8.605469-3.9375 17.546875-3.925782 26.539063v7.597656zm0 0" fill="#ffdc00"/><path d="m170.667969 460.800781-8.535157 8.53125 8.535157 17.066407v17.070312h-93.867188l28.925781-139.949219c2.945313-8.820312 11.558594-14.46875 20.824219-13.652343h27.050781s0 34.132812 17.066407 51.199218c0 0-25.601563 17.066406-17.066407 34.132813 4.40625 9.320312 10.15625 17.945312 17.066407 25.601562zm0 0" fill="#825a2c"/><path d="m435.199219 503.46875h-93.867188v-17.070312l8.535157-17.066407-8.535157-8.53125c6.910157-7.65625 12.660157-16.28125 17.070313-25.601562 8.53125-17.066407-17.070313-34.132813-17.070313-34.132813 17.070313-17.066406 17.070313-51.199218 17.070313-51.199218h27.046875c9.285156-.816407 17.921875 4.824218 20.910156 13.652343zm0 0" fill="#825a2c"/><path d="m358.402344 435.199219c-4.410156 9.320312-10.160156 17.945312-17.070313 25.601562l8.535157 8.53125-8.535157 17.066407v17.070312h-170.664062v-17.070312l-8.535157-17.066407 8.535157-8.53125c-6.910157-7.65625-12.660157-16.28125-17.066407-25.601562-8.535156-17.066407 17.066407-34.132813 17.066407-34.132813-17.066407-17.066406-17.066407-51.199218-17.066407-51.199218h204.800782s0 34.132812-17.070313 51.199218c0 0 25.601563 17.066406 17.070313 34.132813zm0 0" fill="#fec108"/><path d="m401.066406 110.933594s8.535156 42.667968 34.132813 51.199218c21.121093 8.054688 34.824219 28.605469 34.132812 51.199219 0 0-42.664062-17.066406-34.132812 25.601563 0 0-42.664063-17.066406-51.199219-51.199219l-17.332031-58.402344zm0 0" fill="#c81e1e"/><path d="m221.867188 8.535156h68.265624c4.714844 0 8.535157 3.820313 8.535157 8.53125v34.132813h-85.335938v-34.132813c0-4.710937 3.824219-8.53125 8.535157-8.53125zm0 0" fill="#ffdc00"/><path d="m133.804688 76.800781c9.832031-20.878906 30.851562-34.179687 53.929687-34.132812h136.53125c23.078125-.046875 44.097656 13.253906 53.933594 34.132812l5.800781 51.199219v119.46875c.011719 15.84375-6.277344 31.042969-17.480469 42.25-11.207031 11.203125-26.40625 17.492188-42.253906 17.480469h-136.53125c-15.847656.011719-31.046875-6.277344-42.25-17.480469-11.207031-11.207031-17.496094-26.40625-17.484375-42.25v-119.46875zm0 0" fill="#fec108"/><path d="m158.242188 76.800781c7.644531-20.222656 24.03125-34.132812 43.144531-34.132812h109.226562c19.113281 0 35.5 13.910156 43.144531 34.132812l4.644532 51.199219v119.46875c0 33.023438-21.371094 59.730469-47.789063 59.730469h-109.226562c-26.417969 0-47.785157-26.707031-47.785157-59.730469v-119.46875zm0 0" fill="#ffdc00"/><path d="m281.609375 173.867188c-2.570313-.007813-4.988281-1.203126-6.558594-3.234376l-34.132812-43.148437c-3.019531-3.855469-2.546875-9.390625 1.082031-12.679687 1.707031-1.527344 3.976562-2.273438 6.257812-2.054688 2.28125.214844 4.371094 1.375 5.757813 3.199219l34.136719 43.144531c3.015625 3.859375 2.542968 9.390625-1.085938 12.679688-1.5 1.34375-3.441406 2.089843-5.457031 2.09375zm0 0" fill="#35495e"/><path d="m332.792969 173.867188c-2.015625-.003907-3.960938-.75-5.460938-2.09375-3.628906-3.289063-4.101562-8.820313-1.085937-12.679688l34.132812-43.144531c1.390625-1.824219 3.476563-2.984375 5.757813-3.199219 2.285156-.21875 4.550781.527344 6.261719 2.054688 3.628906 3.289062 4.101562 8.824218 1.082031 12.679687l-34.132813 43.148437c-1.570312 2.03125-3.988281 3.222657-6.554687 3.234376zm0 0" fill="#35495e"/><path d="m128 76.800781h256c9.425781 0 17.066406 7.640625 17.066406 17.066407v17.066406c0 9.425781-7.640625 17.066406-17.066406 17.066406h-256c-9.425781 0-17.066406-7.640625-17.066406-17.066406v-17.066406c0-9.425782 7.640625-17.066407 17.066406-17.066407zm0 0" fill="#c81e1e"/><path d="m153.601562 76.800781h204.800782c9.421875 0 17.066406 7.640625 17.066406 17.066407v17.066406c0 9.425781-7.644531 17.066406-17.066406 17.066406h-204.800782c-9.425781 0-17.066406-7.640625-17.066406-17.066406v-17.066406c0-9.425782 7.640625-17.066407 17.066406-17.066407zm0 0" fill="#f44335"/><path d="m281.601562 162.132812h51.199219c4.710938 0 8.53125 3.820313 8.53125 8.535157v25.597656c0 9.425781-7.640625 17.066406-17.066406 17.066406h-34.132813c-9.425781 0-17.066406-7.640625-17.066406-17.066406v-25.597656c0-4.714844 3.820313-8.535157 8.535156-8.535157zm0 0" fill="#37474f"/><path d="m299.734375 242.667969c-4.703125 14.519531-26.84375 21.65625-38.832031 23.753906-12.011719 2.105469-34.261719 4.0625-43.617188-7.996094 13.980469.839844 28.015625.097657 41.828125-2.214843 14-3.003907 27.621094-7.546876 40.621094-13.542969zm0 0"/><path d="m232.042969 172.5c-7.402344-4.457031-15.441407-7.761719-23.84375-9.796875-11.230469-3.050781-23.101563-2.8125-34.199219.691406 3.964844-14.445312 38.523438-10.808593 54.417969-3.839843 2.570312.832031 4.554687 2.898437 5.285156 5.5.730469 2.605468.105469 5.398437-1.660156 7.445312zm0 0"/><path d="m230.402344 189.28125c0-10.105469-7.644532-18.292969-17.070313-18.292969s-17.066406 8.1875-17.066406 18.292969c0 10.101562 7.640625 18.289062 17.066406 18.289062s17.070313-8.1875 17.070313-18.289062zm0 0"/><path d="m218.117188 173.40625c-4.402344-1.675781-9.332032.539062-11.007813 4.945312-1.675781 4.402344.535156 9.332032 4.941406 11.007813s9.335938-.539063 11.011719-4.941406c1.671875-4.40625-.539062-9.335938-4.945312-11.011719zm0 0" fill="#fff"/><path d="m435.199219 512h-358.398438c-2.566406 0-4.996093-1.152344-6.617187-3.144531-1.621094-1.988281-2.261719-4.601563-1.742188-7.113281l28.910156-139.921876c3.726563-12.84375 15.886719-21.367187 29.230469-20.488281h258.894531c13.363282-.882812 25.535157 7.671875 29.230469 20.542969l28.855469 139.867188c.519531 2.515624-.121094 5.128906-1.742188 7.117187-1.621093 1.988281-4.054687 3.144531-6.621093 3.140625zm-347.925781-17.066406h337.453124l-26.742187-129.664063c-2.257813-4.742187-7.292969-7.511719-12.507813-6.871093h-258.894531c-5.199219-.632813-10.226562 2.109374-12.507812 6.828124zm0 0"/><path d="m324.265625 358.398438h-136.53125c-4.714844 0-8.535156-3.820313-8.535156-8.53125v-42.667969c0-4.710938 3.820312-8.53125 8.535156-8.53125h136.53125c4.714844 0 8.535156 3.820312 8.535156 8.53125v42.667969c0 4.710937-3.820312 8.53125-8.535156 8.53125zm-128-17.066407h119.46875v-25.597656h-119.46875zm0 0"/><path d="m324.265625 315.734375h-136.53125c-37.683594-.042969-68.222656-30.582031-68.265625-68.265625v-119.46875c0-4.710938 3.820312-8.53125 8.53125-8.53125 4.714844 0 8.535156 3.820312 8.535156 8.53125v119.46875c.03125 28.261719 22.933594 51.167969 51.199219 51.199219h136.53125c28.265625-.03125 51.171875-22.9375 51.203125-51.199219v-119.46875c0-4.710938 3.820312-8.53125 8.53125-8.53125 4.714844 0 8.535156 3.820312 8.535156 8.53125v119.46875c-.042968 37.683594-30.582031 68.222656-68.269531 68.265625zm0 0"/><path d="m378.207031 85.332031c-3.300781.003907-6.3125-1.898437-7.722656-4.886719-8.371094-17.941406-26.421875-29.363281-46.21875-29.246093h-136.53125c-19.796875-.117188-37.847656 11.304687-46.21875 29.246093-2.011719 4.261719-7.097656 6.085938-11.359375 4.070313-4.261719-2.011719-6.085938-7.097656-4.074219-11.359375 11.164063-23.9375 35.242188-39.175781 61.652344-39.023438h136.53125c26.410156-.152343 50.488281 15.085938 61.652344 39.023438 1.246093 2.640625 1.058593 5.738281-.507813 8.207031-1.5625 2.46875-4.277344 3.96875-7.203125 3.96875zm0 0"/><path d="m298.667969 51.199219h-85.335938c-4.710937 0-8.53125-3.820313-8.53125-8.53125v-25.601563c.011719-9.421875 7.644531-17.0546872 17.066407-17.066406h68.265624c9.421876.0117188 17.058594 7.644531 17.066407 17.066406v25.601563c0 4.710937-3.820313 8.53125-8.53125 8.53125zm-76.800781-17.066407h68.265624v-17.066406h-68.265624zm0 0"/><path d="m102.402344 512h-93.867188c-4.714844 0-8.535156-3.820312-8.535156-8.53125v-7.597656c-.0273438-9.457032 1.324219-18.871094 4.015625-27.9375l8.023437-38.398438c9.929688-37.585937 44.328126-63.46875 83.195313-62.601562h8.019531c4.710938 0 8.535156 3.820312 8.535156 8.535156 0 4.710938-3.824218 8.53125-8.535156 8.53125h-8.019531c-30.902344-.871094-58.394531 19.496094-66.5625 49.308594l-7.867187 37.765625c-.015626.105469-.199219.859375-.222657.964843-2.257812 7.425782-3.441406 15.132813-3.515625 22.894532h85.335938c4.710937 0 8.53125 3.820312 8.53125 8.535156 0 4.710938-3.820313 8.53125-8.53125 8.53125zm0 0"/><path d="m503.46875 512h-93.867188c-4.714843 0-8.535156-3.820312-8.535156-8.53125 0-4.714844 3.820313-8.535156 8.535156-8.535156h85.332032c-.074219-7.761719-1.257813-15.46875-3.515625-22.894532-.027344-.105468-.207031-.859374-.226563-.964843l-7.933594-38.058594c-8.257812-29.683594-35.691406-49.910156-66.488281-49.015625h-7.9375c-4.710937 0-8.53125-3.820312-8.53125-8.53125 0-4.714844 3.820313-8.535156 8.53125-8.535156h7.9375c38.761719-.890625 73.105469 24.851562 83.125 62.308594l8 38.351562c2.742188 9.171875 4.125 18.703125 4.105469 28.277344v7.597656c0 4.710938-3.820312 8.53125-8.53125 8.53125zm0 0"/><path d="m384 136.535156h-256c-14.132812-.015625-25.585938-11.46875-25.597656-25.601562v-17.066406c.011718-14.132813 11.464844-25.585938 25.597656-25.601563h256c14.132812.015625 25.585938 11.46875 25.601562 25.601563v17.066406c-.015624 14.132812-11.46875 25.585937-25.601562 25.601562zm-256-51.203125c-4.710938.007813-8.527344 3.824219-8.53125 8.535157v17.066406c.003906 4.710937 3.820312 8.527344 8.53125 8.535156h256c4.710938-.007812 8.53125-3.824219 8.535156-8.535156v-17.066406c-.003906-4.710938-3.824218-8.527344-8.535156-8.535157zm0 0"/><path d="m324.265625 221.867188h-34.132813c-14.132812-.015626-25.582031-11.46875-25.597656-25.601563v-25.597656c.007813-9.421875 7.644532-17.058594 17.066406-17.066407h51.199219c9.421875.007813 17.054688 7.644532 17.066407 17.066407v25.597656c-.015626 14.132813-11.46875 25.585937-25.601563 25.601563zm-42.664063-51.199219v25.597656c.003907 4.710937 3.820313 8.53125 8.53125 8.535156h34.132813c4.710937-.003906 8.53125-3.824219 8.535156-8.535156v-25.597656zm0 0"/><path d="m281.601562 170.667969c-2.265624 0-4.4375-.898438-6.035156-2.5l-34.132812-34.132813c-3.234375-3.351562-3.1875-8.671875.105468-11.964844 3.289063-3.289062 8.613282-3.335937 11.960938-.101562l34.132812 34.132812c2.441407 2.441407 3.171876 6.109376 1.851563 9.296876-1.324219 3.1875-4.433594 5.269531-7.882813 5.269531zm0 0"/><path d="m332.800781 170.667969c-3.449219 0-6.5625-2.082031-7.882812-5.269531-1.320313-3.1875-.589844-6.855469 1.847656-9.296876l34.136719-34.132812c3.347656-3.234375 8.667968-3.1875 11.960937.101562 3.292969 3.292969 3.335938 8.613282.105469 11.964844l-34.136719 34.132813c-1.597656 1.601562-3.769531 2.5-6.03125 2.5zm0 0"/><path d="m435.199219 247.46875c-1.082031 0-2.15625-.207031-3.164063-.609375-1.910156-.769531-46.835937-19.125-56.308594-57.054687-.839843-2.992188.015626-6.199219 2.226563-8.378907 2.210937-2.179687 5.433594-2.988281 8.410156-2.105469 2.976563.878907 5.242188 3.308594 5.910157 6.34375 4.625 18.476563 21.484374 31.578126 33.484374 38.804688.386719-6.667969 3.453126-12.898438 8.5-17.269531 7.277344-5.207031 16.417969-7.105469 25.167969-5.226563-2.691406-14.617187-12.945312-26.703125-26.925781-31.746094-29.953125-9.984374-39.414062-55.683593-39.800781-57.621093-.925781-4.621094 2.066406-9.117188 6.6875-10.042969 4.621093-.929688 9.121093 2.066406 10.046875 6.6875 2.132812 10.527344 11.398437 39.097656 28.46875 44.785156 24.632812 9.183594 40.699218 33.019532 39.964844 59.296875 0 2.832031-1.402344 5.480469-3.746094 7.066407-2.347656 1.589843-5.324219 1.910156-7.953125.859374-6.058594-2.378906-16.925781-4.339843-21-.929687-2.71875 2.269531-3.300781 8.4375-1.601563 16.929687.503906 2.507813-.144531 5.109376-1.765625 7.085938-1.621093 1.976562-4.042969 3.125-6.601562 3.125zm0 0"/><path d="m170.667969 512c-4.714844 0-8.535157-3.820312-8.535157-8.53125v-15.054688l-7.632812-15.261718c-1.640625-3.289063-.996094-7.253906 1.601562-9.851563l3-3.003906c-5.035156-6.667969-9.433593-13.789063-13.132812-21.28125-7.558594-15.125 2.316406-29.976563 12.628906-39.3125-8.710937-15.175781-13.371094-32.339844-13.53125-49.835937.003906-4.707032 3.816406-8.523438 8.527344-8.527344h.007812c4.703126.003906 8.515626 3.808594 8.53125 8.515625 0 .308593.25 30.855469 14.566407 45.179687 1.808593 1.804688 2.710937 4.328125 2.457031 6.871094-.25 2.546875-1.628906 4.84375-3.753906 6.261719-.175782.121093-19.070313 13.425781-14.167969 23.214843 4.035156 8.492188 9.25 16.371094 15.492187 23.40625 3.296876 3.339844 3.285157 8.714844-.027343 12.042969l-4.179688 4.183594 5.78125 11.566406c.59375 1.183594.902344 2.492188.898438 3.816407v17.070312c0 4.710938-3.820313 8.53125-8.53125 8.53125zm0 0"/><path d="m341.332031 512c-4.710937 0-8.53125-3.820312-8.53125-8.53125v-17.070312c0-1.324219.308594-2.628907.898438-3.816407l5.785156-11.566406-4.183594-4.179687c-1.597656-1.597657-2.5-3.769532-2.5-6.03125 0-2.265626.902344-4.433594 2.5-6.035157 6.230469-7.027343 11.433594-14.898437 15.46875-23.382812 4.289063-8.574219-10.085937-20.492188-14.164062-23.214844-2.128907-1.417969-3.507813-3.714844-3.757813-6.257813-.253906-2.542968.648438-5.066406 2.457032-6.875 11.945312-11.957031 14.5625-36.660156 14.5625-45.171874 0-4.714844 3.820312-8.535157 8.535156-8.535157 4.710937 0 8.53125 3.820313 8.53125 8.535157-.160156 17.496093-4.820313 34.660156-13.53125 49.835937 10.3125 9.332031 20.191406 24.1875 12.628906 39.3125-3.703125 7.488281-8.097656 14.613281-13.132812 21.277344l3 3.003906c2.597656 2.597656 3.242187 6.566406 1.597656 9.851563l-7.628906 15.265624v15.054688c0 4.710938-3.820313 8.53125-8.535157 8.53125zm0 0"/><path d="m238.933594 418.132812c-4.710938 0-8.53125-3.820312-8.53125-8.53125v-8.535156c0-4.710937 3.820312-8.53125 8.53125-8.53125 4.714844 0 8.535156 3.820313 8.535156 8.53125v8.535156c0 4.710938-3.820312 8.53125-8.535156 8.53125zm0 0"/><path d="m273.066406 418.132812c-4.710937 0-8.53125-3.820312-8.53125-8.53125v-8.535156c0-4.710937 3.820313-8.53125 8.53125-8.53125 4.714844 0 8.535156 3.820313 8.535156 8.53125v8.535156c0 4.710938-3.820312 8.53125-8.535156 8.53125zm0 0"/><path d="m213.332031 443.734375c-4.710937 0-8.53125-3.820313-8.53125-8.535156v-8.53125c0-4.714844 3.820313-8.535157 8.53125-8.535157 4.714844 0 8.535157 3.820313 8.535157 8.535157v8.53125c0 4.714843-3.820313 8.535156-8.535157 8.535156zm0 0"/><path d="m256 452.265625c-4.710938 0-8.53125-3.820313-8.53125-8.53125v-8.535156c0-4.710938 3.820312-8.53125 8.53125-8.53125 4.714844 0 8.535156 3.820312 8.535156 8.53125v8.535156c0 4.710937-3.820312 8.53125-8.535156 8.53125zm0 0"/><path d="m298.667969 443.734375c-4.714844 0-8.535157-3.820313-8.535157-8.535156v-8.53125c0-4.714844 3.820313-8.535157 8.535157-8.535157 4.710937 0 8.53125 3.820313 8.53125 8.535157v8.53125c0 4.714843-3.820313 8.535156-8.53125 8.535156zm0 0"/><path d="m230.402344 477.867188c-4.714844 0-8.535156-3.820313-8.535156-8.535157v-8.53125c0-4.714843 3.820312-8.535156 8.535156-8.535156 4.710937 0 8.53125 3.820313 8.53125 8.535156v8.53125c0 4.714844-3.820313 8.535157-8.53125 8.535157zm0 0"/><path d="m281.601562 477.867188c-4.714843 0-8.535156-3.820313-8.535156-8.535157v-8.53125c0-4.714843 3.820313-8.535156 8.535156-8.535156 4.710938 0 8.53125 3.820313 8.53125 8.535156v8.53125c0 4.714844-3.820312 8.535157-8.53125 8.535157zm0 0"/></svg>