<svg height="512pt" viewBox="0 0 512.00016 512" width="512pt" xmlns="http://www.w3.org/2000/svg"><path d="m119.894531 93.695312c4.4375-48.277343 44.957031-85.207031 93.4375-85.160156h85.335938c48.480469-.046875 89 36.882813 93.4375 85.160156zm0 0" fill="#37474f"/><path d="m392.535156 102.398438v43.007812c-30.125-12.117188-70.742187-16.296875-136.535156-16.296875s-106.410156 4.179687-136.535156 16.296875v-43.007812c0-2.898438.171875-5.800782.429687-8.703126 4.09375-1.875 40.105469-16.894531 136.105469-16.894531s132.011719 15.019531 136.105469 16.894531c.257812 2.902344.429687 5.804688.429687 8.703126zm0 0" fill="#c81e1e"/><path d="m187.734375 283.523438h136.53125v90.023437h-136.53125zm0 0" fill="#fec108"/><path d="m384 139.945312v107.519532c.011719 15.847656-6.277344 31.046875-17.484375 42.253906-11.203125 11.203125-26.402344 17.492188-42.25 17.480469h-136.53125c-15.847656.011719-31.046875-6.277344-42.25-17.480469-11.207031-11.207031-17.496094-26.40625-17.484375-42.253906v-107.519532zm0 0" fill="#fec108"/><path d="m358.398438 139.945312v107.519532c0 33.027344-21.367188 59.734375-47.785157 59.734375h-109.226562c-26.417969 0-47.785157-26.707031-47.785157-59.734375v-107.519532zm0 0" fill="#ffdc00"/><path d="m409.601562 503.464844h93.867188l-.003906-7.59375c.015625-10.925782-1.300782-21.816406-3.921875-32.425782l-7.9375-32.171874c-9.203125-33.554688-40.046875-56.558594-74.835938-55.808594h-321.539062c-34.789063-.75-65.628907 22.253906-74.835938 55.808594l-7.9375 32.171874c-2.621093 10.609376-3.9375 21.5-3.921875 32.425782v7.59375zm0 0" fill="#37474f"/><path d="m256 349.867188c-23.808594 0-47.53125 29.011718-59.734375 46.589843-12.300781-13.136719-21.105469-29.160156-25.597656-46.589843zm0 0" fill="#f5f5f5"/><path d="m341.332031 349.867188c-4.492187 17.429687-13.296875 33.453124-25.597656 46.589843-12.203125-17.578125-35.925781-46.589843-59.734375-46.589843zm0 0" fill="#f5f5f5"/><path d="m435.199219 503.464844h-358.398438l28.925781-139.945313c2.945313-8.820312 11.558594-14.46875 20.824219-13.652343h44.117188c4.492187 17.429687 13.296875 33.453124 25.597656 46.589843 12.90625 14.800781 27.914063 27.625 44.546875 38.058594 2.21875 1.539063 4.519531 2.902344 6.910156 4.355469h.085938c2.644531 1.621094 5.289062 3.242187 8.191406 4.863281 2.558594-1.367187 4.863281-2.816406 7.253906-4.183594.085938 0 .085938 0 .085938-.085937 19.695312-11.375 37.394531-25.90625 52.394531-43.007813 12.300781-13.136719 21.105469-29.160156 25.597656-46.589843h44.117188c9.285156-.816407 17.921875 4.824218 20.90625 13.652343zm0 0" fill="#37474f"/><path d="m392.535156 169.644531c-34.136718-19.203125-93.867187-19.203125-136.535156-19.203125s-102.398438 0-136.535156 19.203125c-31.570313 17.832031-67.242188 9.898438-34.132813-17.070312 10.285157-8.367188 21.800781-15.101563 34.132813-19.964844 30.125-12.117187 70.742187-16.300781 136.535156-16.300781s106.410156 4.183594 136.535156 16.300781c12.332032 4.863281 23.847656 11.597656 34.132813 19.964844 33.109375 26.96875-2.5625 34.902343-34.132813 17.070312zm0 0" fill="#37474f"/><path d="m204.800781 247.464844c-4.714843 0-8.535156-3.820313-8.535156-8.53125 0-4.714844 3.820313-8.535156 8.535156-8.535156 7.660157-1.210938 15.039063-3.796876 21.78125-7.632813 17.828125-8.890625 30.671875-3.191406 35.449219 1.601563 3.304688 3.289062 3.355469 8.617187.121094 11.96875-3.234375 3.355468-8.558594 3.496093-11.964844.3125-.484375-.382813-5.4375-3.875-15.96875 1.382812-9.011719 5.234375-19.046875 8.453125-29.417969 9.433594zm0 0"/><path d="m307.199219 247.464844c-10.371094-.980469-20.40625-4.199219-29.417969-9.433594-10.878906-5.441406-15.792969-1.523438-16.003906-1.355469-3.53125 2.949219-8.742188 2.652344-11.917969-.675781-3.121094-3.269531-3.070313-8.425781.109375-11.632812 4.777344-4.792969 17.621094-10.492188 35.449219-1.601563 6.785156 3.882813 14.230469 6.46875 21.960937 7.632813 4.65625.191406 8.316406 4.046874 8.261719 8.707031-.050781 4.625-3.8125 8.355469-8.441406 8.359375zm0 0"/><path d="m315.734375 396.457031c-16.917969 19.214844-37.148437 35.226563-59.734375 47.277344-22.585938-12.050781-42.816406-28.0625-59.734375-47.277344 12.203125-17.578125 35.925781-46.589843 59.734375-46.589843s47.53125 29.011718 59.734375 46.589843zm0 0" fill="#c81e1e"/><path d="m238.933594 349.867188h34.132812v25.597656c0 9.425781-7.640625 17.070312-17.066406 17.070312s-17.066406-7.644531-17.066406-17.070312zm0 0" fill="#c81e1e"/><path d="m384 401.066406c-.011719 4.707032-3.824219 8.519532-8.535156 8.535156-6.480469.019532-12.839844 1.757813-18.429688 5.03125-2.25 8.472657.652344 17.476563 7.421875 23.042969 2.023438 2.042969 2.886719 4.960938 2.304688 7.773438-.585938 2.816406-2.539063 5.148437-5.203125 6.21875-1.707032.683593-43.179688 17.238281-68.695313 25.773437-11.394531 3.675782-19.292969 14.0625-19.796875 26.023438h-17.066406c.507812-19.292969 13.070312-36.195313 31.402344-42.238282 17.410156-5.800781 43.007812-15.699218 57.257812-21.246093-6.339844-10.332031-7.234375-23.109375-2.386718-34.21875.402343-.8125.917968-1.558594 1.535156-2.21875 6.445312-5.648438 14.445312-9.21875 22.953125-10.242188-.042969-13.574219-2.589844-27.027343-7.507813-39.679687-.574218-1.167969-.867187-2.453125-.855468-3.753906h17.75c5.65625 16.460937 8.316406 33.800781 7.851562 51.199218zm0 0" fill="#7f8c8d"/><path d="m221.183594 463.617188c-1.792969.765624-3.667969 1.535156-5.546875 2.304687-.765625.339844-1.535157.679687-2.304688.9375v7.933594h-.253906c-.960937-.003907-1.914063-.175781-2.816406-.511719-4.4375-1.535156-9.214844-3.242188-13.996094-5.03125-22.355469-8.195312-45.566406-17.496094-45.824219-17.582031-2.664062-1.070313-4.617187-3.402344-5.203125-6.21875-.582031-2.8125.28125-5.730469 2.304688-7.773438 6.761719-5.570312 9.664062-14.570312 7.421875-23.042969-5.589844-3.273437-11.949219-5.011718-18.429688-5.03125-4.707031-.015624-8.523437-3.828124-8.535156-8.535156-.464844-17.398437 2.195312-34.738281 7.851562-51.199218h17.75c.011719 1.300781-.28125 2.585937-.855468 3.753906-4.933594 12.648437-7.480469 26.101562-7.507813 39.679687 8.507813 1.023438 16.507813 4.59375 22.953125 10.242188.617188.660156 1.132813 1.40625 1.535156 2.21875 4.847657 11.109375 3.953126 23.886719-2.386718 34.21875 8.617187 3.410156 21.417968 8.359375 34.046875 12.96875 3.925781 1.535156 7.765625 2.902343 11.433593 4.265625l3.074219 1.023437c2.503907.867188 4.464844 2.859375 5.289063 5.378907zm0 0" fill="#7f8c8d"/><path d="m296.339844 260.265625c-6.894532 13.492187-28.414063 15.402344-40.167969 15.402344-11.78125 0-33.277344-1.910157-40.171875-15.402344 13.148438 3.238281 26.628906 4.929687 40.171875 5.035156 13.539063-.105469 27.023437-1.792969 40.167969-5.035156zm0 0"/><path d="m233.648438 171.425781c-8.109376-2.980469-16.625-4.707031-25.257813-5.121093-11.601563-.875-23.214844 1.601562-33.449219 7.132812 1.167969-14.933594 35.789063-17.882812 52.710938-14.042969 2.683594.332031 5.019531 1.988281 6.226562 4.40625 1.207032 2.417969 1.121094 5.28125-.230468 7.625zm0 0"/><path d="m230.398438 197.8125c0-10.101562-7.640626-18.292969-17.066407-18.292969s-17.066406 8.191407-17.066406 18.292969 7.640625 18.292969 17.066406 18.292969 17.066407-8.191407 17.066407-18.292969zm0 0"/><path d="m218.117188 181.941406c-4.40625-1.675781-9.332032.535156-11.007813 4.941406s.535156 9.335938 4.941406 11.007813c4.40625 1.675781 9.332031-.535156 11.007813-4.941406 1.675781-4.402344-.535156-9.332031-4.941406-11.007813zm0 0" fill="#fff"/><path d="m278.351562 171.425781c8.109376-2.980469 16.625-4.707031 25.257813-5.121093 11.601563-.875 23.214844 1.601562 33.449219 7.132812-1.167969-14.933594-35.789063-17.882812-52.710938-14.042969-2.683594.332031-5.019531 1.988281-6.226562 4.40625-1.207032 2.417969-1.117188 5.28125.230468 7.625zm0 0"/><path d="m315.734375 197.8125c0-10.101562-7.640625-18.292969-17.066406-18.292969s-17.066407 8.191407-17.066407 18.292969 7.640626 18.292969 17.066407 18.292969 17.066406-8.191407 17.066406-18.292969zm0 0"/><path d="m304.890625 186.882812c-1.675781-4.40625-6.605469-6.617187-11.007813-4.941406-4.40625 1.675782-6.617187 6.605469-4.941406 11.007813 1.671875 4.40625 6.601563 6.617187 11.007813 4.945312 4.40625-1.675781 6.617187-6.605469 4.941406-11.011719zm0 0" fill="#fff"/><path d="m435.199219 512h-358.398438c-2.566406 0-4.996093-1.152344-6.617187-3.144531-1.621094-1.988281-2.261719-4.601563-1.742188-7.113281l28.910156-139.929688c3.726563-12.839844 15.886719-21.359375 29.226563-20.480469h258.894531c13.359375-.875 25.527344 7.664063 29.238282 20.527344l28.84375 139.882813c.519531 2.511718-.121094 5.125-1.742188 7.113281-1.617188 1.988281-4.046875 3.144531-6.613281 3.144531zm-347.925781-17.066406h337.457031l-26.742188-129.667969c-2.265625-4.738281-7.304687-7.5-12.515625-6.867187h-258.894531c-5.199219-.632813-10.226563 2.113281-12.503906 6.828124zm0 0"/><path d="m324.265625 358.398438h-136.53125c-4.714844 0-8.535156-3.820313-8.535156-8.53125v-42.667969c0-4.710938 3.820312-8.53125 8.535156-8.53125h136.53125c4.714844 0 8.535156 3.820312 8.535156 8.53125v42.667969c0 4.710937-3.820312 8.53125-8.535156 8.53125zm-128-17.066407h119.46875v-25.597656h-119.46875zm0 0"/><path d="m324.265625 315.734375h-136.53125c-37.6875-.042969-68.222656-30.582031-68.269531-68.269531v-81.917969c0-4.714844 3.824218-8.535156 8.535156-8.535156 4.714844 0 8.535156 3.820312 8.535156 8.535156v81.917969c.027344 28.265625 22.933594 51.171875 51.199219 51.203125h136.53125c28.265625-.03125 51.171875-22.9375 51.199219-51.203125v-81.917969c0-4.714844 3.824218-8.535156 8.535156-8.535156 4.714844 0 8.535156 3.820312 8.535156 8.535156v81.917969c-.046875 37.6875-30.582031 68.226562-68.269531 68.269531zm0 0"/><path d="m102.398438 512h-93.863282c-4.714844 0-8.535156-3.820312-8.535156-8.535156v-7.59375c-.0117188-11.621094 1.390625-23.207032 4.175781-34.492188l7.9375-32.148437c10.019531-37.453125 44.359375-63.1875 83.117188-62.296875h8.023437c4.710938 0 8.53125 3.820312 8.53125 8.53125 0 4.714844-3.820312 8.535156-8.53125 8.535156h-8.023437c-30.898438-.875-58.386719 19.496094-66.550781 49.308594l-7.9375 32.171875c-2.378907 9.636719-3.613282 19.523437-3.671876 29.453125h85.328126c4.714843 0 8.535156 3.820312 8.535156 8.53125 0 4.714844-3.820313 8.535156-8.535156 8.535156zm0 0"/><path d="m503.464844 512h-93.863282c-4.714843 0-8.535156-3.820312-8.535156-8.535156 0-4.710938 3.820313-8.53125 8.535156-8.53125h85.332032c-.058594-9.921875-1.289063-19.800782-3.667969-29.433594l-7.9375-32.183594c-8.160156-29.820312-35.65625-50.191406-66.558594-49.316406h-7.9375c-4.710937 0-8.535156-3.820312-8.535156-8.535156 0-4.710938 3.824219-8.53125 8.535156-8.53125h7.9375c38.761719-.890625 73.105469 24.851562 83.125 62.308594l7.933594 32.15625c2.785156 11.28125 4.183594 22.855468 4.171875 34.472656v7.59375c0 4.714844-3.820312 8.535156-8.535156 8.535156zm0 0"/><path d="m425.144531 187.726562c-12.949219-.488281-25.582031-4.132812-36.800781-10.617187-32.183594-18.152344-90.074219-18.152344-132.34375-18.152344s-100.160156 0-132.339844 18.152344c-20.480468 11.539063-48.285156 15.65625-57.484375 2.15625-4.417969-6.472656-5.609375-17.5 13.769531-33.273437 35.488282-28.882813 78.167969-38.199219 175.480469-38.230469h1.148438c97.3125.035156 139.992187 9.351562 175.480469 38.230469 19.378906 15.773437 18.1875 26.800781 13.769531 33.273437-5.0625 6.078125-12.808594 9.246094-20.679688 8.460937zm-168.601562-45.835937c44.105469 0 104.246093.085937 140.183593 20.351563 10.113282 6.671874 22.328126 9.402343 34.320313 7.664062-2.441406-4.226562-5.773437-7.875-9.765625-10.679688-31.992188-26.042968-72.15625-34.402343-165.28125-34.402343s-133.289062 8.359375-165.28125 34.402343c-3.992188 2.804688-7.324219 6.453126-9.765625 10.679688 11.996094 1.746094 24.210937-.984375 34.320313-7.664062 35.9375-20.265626 96.078124-20.351563 140.183593-20.351563zm0 0"/><path d="m392.535156 141.140625c-4.714844 0-8.535156-3.820313-8.535156-8.53125v-30.210937c-.054688-47.105469-38.226562-85.277344-85.332031-85.332032h-85.335938c-47.105469.054688-85.277343 38.226563-85.332031 85.332032v30.210937c0 4.710937-3.820312 8.53125-8.535156 8.53125-4.710938 0-8.53125-3.820313-8.53125-8.53125v-30.210937c.0625-56.527344 45.871094-102.335938 102.398437-102.398438h85.335938c56.527343.0625 102.335937 45.871094 102.398437 102.398438v30.210937c0 4.710937-3.820312 8.53125-8.53125 8.53125zm0 0"/><path d="m392.105469 102.234375c-1.230469 0-2.445313-.269531-3.5625-.785156-1.429688-.65625-36.164063-16.117188-132.542969-16.117188s-131.113281 15.460938-132.542969 16.117188c-2.777343 1.351562-6.074219 1.09375-8.609375-.671875-2.535156-1.769532-3.917968-4.769532-3.613281-7.847656.308594-3.078126 2.253906-5.746094 5.089844-6.980469 3.9375-1.816407 41.292969-17.683594 139.675781-17.683594s135.738281 15.867187 139.675781 17.683594c3.640625 1.679687 5.621094 5.664062 4.761719 9.578125-.855469 3.917968-4.324219 6.707031-8.332031 6.707031zm0 0"/><path d="m256 452.265625c-1.449219 0-2.878906-.367187-4.144531-1.074219-79.480469-44.15625-89.230469-97.667968-89.601563-99.925781-.554687-3.03125.566406-6.128906 2.933594-8.101563 2.371094-1.972656 5.621094-2.511718 8.5-1.414062 2.882812 1.097656 4.945312 3.667969 5.398438 6.714844.078124.417968 9 46.125 76.917968 85.460937 68.554688-39.667969 76.839844-85.003906 76.917969-85.460937.453125-3.046875 2.519531-5.617188 5.398437-6.714844 2.878907-1.097656 6.128907-.558594 8.5 1.414062 2.371094 1.972657 3.492188 5.070313 2.933594 8.101563-.375 2.257813-10.125 55.765625-89.601562 99.925781-1.269532.707032-2.699219 1.078125-4.152344 1.074219zm0 0"/><path d="m315.742188 404.992188c-2.800782.003906-5.425782-1.367188-7.015626-3.667969-18.949218-27.28125-38.164062-42.925781-52.726562-42.925781s-33.777344 15.644531-52.726562 42.925781c-2.730469 3.742187-7.949219 4.621093-11.757813 1.976562-3.804687-2.640625-4.808594-7.835937-2.257813-11.707031 15.921876-22.925781 40.425782-50.261719 66.742188-50.261719s50.820312 27.335938 66.742188 50.261719c1.808593 2.609375 2.019531 6.003906.550781 8.816406s-4.375 4.578125-7.546875 4.582032zm0 0"/><path d="m256 401.066406c-14.132812-.015625-25.585938-11.46875-25.601562-25.601562v-25.597656c0-4.714844 3.820312-8.535157 8.535156-8.535157h34.132812c4.714844 0 8.535156 3.820313 8.535156 8.535157v25.597656c-.015624 14.132812-11.46875 25.585937-25.601562 25.601562zm-8.535156-42.667968v17.066406c0 4.714844 3.824218 8.535156 8.535156 8.535156 4.714844 0 8.535156-3.820312 8.535156-8.535156v-17.066406zm0 0"/><path d="m204.800781 512c-4.714843 0-8.535156-3.820312-8.535156-8.535156v-34.132813c0-3.671875 2.351563-6.929687 5.835937-8.089843 17.261719-6.328126 33.753907-14.582032 49.164063-24.609376 3.921875-2.5625 9.171875-1.484374 11.769531 2.410157s1.570313 9.15625-2.300781 11.789062c-14.945313 9.730469-30.824219 17.945313-47.402344 24.519531v28.113282c0 4.714844-3.820312 8.535156-8.53125 8.535156zm0 0"/><path d="m264.535156 511.96875h-.066406c-4.683594-.023438-8.464844-3.820312-8.46875-8.503906.515625-19.296875 13.09375-36.191406 31.433594-42.222656 17.363281-5.792969 42.980468-15.675782 57.238281-21.257813-6.34375-10.320313-7.253906-23.085937-2.4375-34.203125.410156-.816406.953125-1.566406 1.597656-2.214844 6.417969-5.691406 14.421875-9.28125 22.9375-10.285156-.050781-13.5625-2.589843-27.003906-7.492187-39.652344-2.015625-4.207031-.277344-9.257812 3.90625-11.332031 4.179687-2.074219 9.253906-.402344 11.382812 3.75 7.039063 17.457031 10.253906 36.214844 9.433594 55.019531 0 4.714844-3.820312 8.535156-8.535156 8.535156-6.480469.015626-12.84375 1.757813-18.429688 5.046876-2.25 8.472656.640625 17.472656 7.398438 23.050781 2.03125 2.027343 2.90625 4.941406 2.328125 7.75-.578125 2.8125-2.527344 5.144531-5.1875 6.210937-1.757813.699219-43.195313 17.257813-68.738281 25.769532-11.386719 3.730468-19.265626 14.132812-19.769532 26.105468-.070312 4.664063-3.867187 8.414063-8.53125 8.433594zm0 0"/><path d="m213.078125 474.792969c-.964844.003906-1.917969-.160157-2.824219-.480469-25.398437-8.917969-59.476562-22.519531-59.820312-22.652344-2.664063-1.0625-4.613282-3.394531-5.191406-6.207031-.578126-2.808594.296874-5.722656 2.324218-7.75 6.75-5.582031 9.640625-14.582031 7.402344-23.050781-5.597656-3.292969-11.96875-5.039063-18.460938-5.050782-4.695312-.027343-8.496093-3.835937-8.507812-8.535156-.820312-18.800781 2.394531-37.5625 9.433594-55.015625 2.117187-4.183593 7.210937-5.875 11.410156-3.789062 4.199219 2.085937 5.929688 7.167969 3.875 11.382812-4.898438 12.644531-7.433594 26.082031-7.488281 39.640625 8.515625 1.007813 16.519531 4.59375 22.9375 10.285156.648437.648438 1.1875 1.398438 1.597656 2.21875 4.8125 11.113282 3.90625 23.871094-2.433594 34.191407 12.042969 4.707031 32.171875 12.476562 48.574219 18.234375 3.917969 1.378906 6.269531 5.382812 5.574219 9.480468-.699219 4.097657-4.246094 7.09375-8.402344 7.097657zm0 0"/></svg>