<svg height="512pt" viewBox="0 0 512.00016 512" width="512pt" xmlns="http://www.w3.org/2000/svg"><path d="m409.601562 503.464844h93.867188l-.003906-7.59375c.015625-10.925782-1.300782-21.816406-3.921875-32.425782l-7.9375-32.171874c-9.203125-33.554688-40.046875-56.558594-74.835938-55.808594h-321.539062c-34.789063-.75-65.628907 22.253906-74.835938 55.808594l-7.9375 32.171874c-2.621093 10.609376-3.9375 21.5-3.921875 32.425782v7.59375zm0 0" fill="#d84315"/><path d="m187.734375 301.460938h136.53125v54.144531h-136.53125zm0 0" fill="#fec108"/><path d="m409.601562 183.464844v-29.863282c-.011718-65.976562-53.492187-119.457031-119.46875-119.46875h-68.265624c-65.976563.011719-119.457032 53.492188-119.46875 119.46875v29.863282zm0 0" fill="#d84315"/><path d="m384 157.867188c0 1.875-.085938 93.355468-.339844 95.230468-2.808594 30.691406-28.574218 54.164063-59.394531 54.101563h-136.53125c-30.949219.03125-56.777344-23.613281-59.476563-54.441407-.171874-1.707031-.257812-93.097656-.257812-94.890624l126.933594-72.535157zm0 0" fill="#fec108"/><path d="m358.398438 157.867188c0 1.875-.066407 93.355468-.269532 95.230468-2.1875 30.378906-22.597656 54.101563-47.515625 54.101563h-109.226562c-24.984375 0-45.464844-23.890625-47.582031-54.441407-.136719-1.707031-.203126-93.097656-.203126-94.890624l101.546876-72.535157zm0 0" fill="#ffdc00"/><path d="m290.132812 76.800781v-51.199219c0-9.425781-7.640624-17.066406-17.066406-17.066406h-34.132812c-9.425782 0-17.066406 7.640625-17.066406 17.066406v51.199219" fill="#f57c00"/><path d="m383.660156 253.097656c.238282-1.867187.355469-3.746094.339844-5.632812v-44.707032c.011719-4.199218-1.519531-8.253906-4.296875-11.402343-49.660156-55.566407-106.964844-79.839844-124.214844-80.421875h-.597656c-17.742187.996094-73.414063 25.34375-122.578125 80.402344-2.785156 3.15625-4.320312 7.226562-4.3125 11.433593v44.695313c0 1.792968.085938 3.585937.257812 5.292968-32.257812 10.835938-67.839843-6.144531-59.992187-37.546874 3.925781-15.871094 19.03125-33.621094 36.523437-50.601563 7.507813-7.253906 15.53125-14.421875 23.210938-21.164063 13.054688-11.519531 25.515625-22.015624 34.132812-30.632812 17.078126-16.15625 37.457032-28.414062 59.734376-35.925781 10.605468-3.902344 21.738281-6.175781 33.023437-6.742188h1.109375c11.617188.613281 23.070312 3.003907 33.960938 7.082031 21.925781 7.503907 41.980468 19.640626 58.796874 35.585938 8.875 8.871094 21.757813 19.710938 35.242188 31.570312 7.253906 6.402344 14.59375 13.058594 21.675781 19.796876.332031.292968.644531.605468.9375.941406 17.238281 16.894531 32.085938 34.304687 36.011719 50.089844 7.765625 31.0625-26.964844 48.042968-58.964844 37.886718zm0 0" fill="#f57c00"/><path d="m346.933594 349.867188v61.320312c-.859375-.019531-1.714844.109375-2.527344.382812-28.667969 8.898438-58.40625 13.886719-88.40625 14.832032-30-.945313-59.738281-5.933594-88.40625-14.832032-.8125-.265624-1.667969-.394531-2.523438-.382812v-61.320312zm0 0" fill="#e6e7e8"/><path d="m435.199219 503.464844h-358.398438l2.816407-13.652344 4.691406-22.527344 21.417968-103.765625c2.945313-8.820312 11.558594-14.46875 20.824219-13.652343h52.648438v54.699218c.726562-.011718 1.449219.101563 2.132812.339844 24.136719 7.921875 49.277344 12.375 74.667969 13.226562 25.390625-.851562 50.53125-5.304687 74.667969-13.226562.683593-.242188 1.40625-.359375 2.132812-.339844v-54.699218h52.648438c9.285156-.816407 17.921875 4.824218 20.90625 13.652343l21.421875 103.851563 4.605468 22.441406zm0 0" fill="#f57c00"/><path d="m336.980469 420.695312c-.429688.25-.886719.449219-1.363281.59375-25.753907 8.359376-52.554688 13.042969-79.617188 13.910157-27.0625-.867188-53.863281-5.550781-79.617188-13.910157-.476562-.144531-.933593-.34375-1.363281-.59375-3.597656-1.800781-5.449219-5.867187-4.4375-9.757812 1.007813-3.894531 4.601563-6.550781 8.617188-6.371094.726562-.011718 1.449219.101563 2.132812.339844 24.136719 7.921875 49.277344 12.375 74.667969 13.226562 25.390625-.851562 50.53125-5.304687 74.667969-13.226562.683593-.242188 1.40625-.359375 2.132812-.339844 4.015625-.179687 7.609375 2.476563 8.617188 6.371094 1.011719 3.890625-.839844 7.957031-4.4375 9.757812zm0 0" fill="#b19046"/><path d="m179.199219 349.867188v59.734374c.023437 4.085938-1.464844 8.035157-4.179688 11.09375-3.203125 3.792969-7.921875 5.980469-12.886719 5.972657h-8.53125c-9.414062-.027344-17.039062-7.652344-17.066406-17.066407v-59.734374zm0 0" fill="#f57c00"/><path d="m375.464844 349.867188v59.734374c-.027344 9.414063-7.652344 17.039063-17.066406 17.066407h-8.53125c-4.964844.007812-9.683594-2.179688-12.886719-5.972657-2.714844-3.058593-4.203125-7.007812-4.179688-11.09375v-59.734374zm0 0" fill="#f57c00"/><path d="m264.535156 469.332031v34.132813h-17.070312v-34.132813c0-4.710937 3.824218-8.53125 8.535156-8.53125 4.714844 0 8.535156 3.820313 8.535156 8.53125zm0 0" fill="#b19046"/><path d="m296.339844 247.464844c-6.894532 13.496094-28.414063 15.402344-40.167969 15.402344-11.78125 0-33.277344-1.90625-40.171875-15.402344 13.148438 3.242187 26.628906 4.929687 40.171875 5.035156 13.539063-.101562 27.023437-1.792969 40.167969-5.035156zm0 0"/><path d="m233.648438 158.625c-8.109376-2.980469-16.625-4.707031-25.257813-5.121094-11.601563-.875-23.214844 1.601563-33.449219 7.132813 1.167969-14.933594 35.789063-17.882813 52.710938-14.042969 2.683594.332031 5.019531 1.988281 6.226562 4.40625 1.207032 2.421875 1.121094 5.28125-.230468 7.625zm0 0"/><path d="m230.398438 185.011719c0-10.101563-7.640626-18.289063-17.066407-18.289063s-17.066406 8.1875-17.066406 18.289063c0 10.105469 7.640625 18.292969 17.066406 18.292969s17.066407-8.1875 17.066407-18.292969zm0 0"/><path d="m218.117188 169.140625c-4.40625-1.675781-9.332032.535156-11.007813 4.941406s.535156 9.335938 4.941406 11.011719c4.40625 1.671875 9.332031-.539062 11.007813-4.945312 1.675781-4.402344-.535156-9.332032-4.941406-11.007813zm0 0" fill="#fff"/><path d="m278.351562 158.625c8.109376-2.980469 16.625-4.707031 25.257813-5.121094 11.601563-.875 23.214844 1.601563 33.449219 7.132813-1.167969-14.933594-35.789063-17.882813-52.710938-14.042969-2.683594.332031-5.019531 1.988281-6.226562 4.40625-1.207032 2.421875-1.117188 5.28125.230468 7.625zm0 0"/><path d="m315.734375 185.011719c0-10.101563-7.640625-18.289063-17.066406-18.289063s-17.066407 8.1875-17.066407 18.289063c0 10.105469 7.640626 18.292969 17.066407 18.292969s17.066406-8.1875 17.066406-18.292969zm0 0"/><path d="m304.890625 174.082031c-1.675781-4.402343-6.601563-6.617187-11.007813-4.941406s-6.617187 6.605469-4.941406 11.007813c1.675782 4.40625 6.601563 6.621093 11.007813 4.945312s6.617187-6.605469 4.941406-11.011719zm0 0" fill="#fff"/><path d="m435.199219 512h-358.398438c-2.566406 0-4.996093-1.152344-6.617187-3.144531-1.621094-1.988281-2.261719-4.601563-1.742188-7.113281l28.910156-139.929688c3.726563-12.839844 15.886719-21.359375 29.226563-20.480469h258.894531c13.359375-.875 25.527344 7.664063 29.238282 20.527344l28.84375 139.882813c.519531 2.511718-.121094 5.125-1.742188 7.113281-1.617188 1.988281-4.046875 3.144531-6.613281 3.144531zm-347.925781-17.066406h337.457031l-26.742188-129.667969c-2.265625-4.738281-7.304687-7.5-12.515625-6.867187h-258.894531c-5.199219-.632813-10.226563 2.113281-12.503906 6.828124zm0 0"/><path d="m324.265625 358.398438h-136.53125c-4.714844 0-8.535156-3.820313-8.535156-8.53125v-42.667969c0-4.710938 3.820312-8.53125 8.535156-8.53125h136.53125c4.714844 0 8.535156 3.820312 8.535156 8.53125v42.667969c0 4.710937-3.820312 8.53125-8.535156 8.53125zm-128-17.066407h119.46875v-25.597656h-119.46875zm0 0"/><path d="m324.265625 315.734375h-136.53125c-35.449219.214844-65.078125-26.914063-67.976563-62.242187-.199218-2.003907-.296874-4.011719-.292968-6.027344 0-4.710938 3.824218-8.53125 8.535156-8.53125 4.714844 0 8.535156 3.820312 8.535156 8.53125-.003906 1.480468.066406 2.957031.210938 4.425781 2.132812 26.535156 24.367187 46.933594 50.988281 46.777344h136.53125c26.449219.175781 48.597656-19.988281 50.894531-46.335938.214844-1.613281.316406-3.238281.304688-4.867187 0-4.710938 3.824218-8.53125 8.535156-8.53125 4.714844 0 8.535156 3.820312 8.535156 8.53125.015625 2.277344-.125 4.546875-.421875 6.800781-3.199219 35.011719-32.691406 61.730469-67.847656 61.46875zm0 0"/><path d="m102.398438 512h-93.863282c-4.714844 0-8.535156-3.820312-8.535156-8.535156v-7.59375c-.0117188-11.621094 1.390625-23.207032 4.175781-34.492188l7.9375-32.148437c10.019531-37.453125 44.359375-63.1875 83.117188-62.296875h8.023437c4.710938 0 8.53125 3.820312 8.53125 8.53125 0 4.714844-3.820312 8.535156-8.53125 8.535156h-8.023437c-30.898438-.875-58.386719 19.496094-66.550781 49.308594l-7.9375 32.171875c-2.378907 9.636719-3.613282 19.523437-3.671876 29.453125h85.328126c4.714843 0 8.535156 3.820312 8.535156 8.53125 0 4.714844-3.820313 8.535156-8.535156 8.535156zm0 0"/><path d="m503.464844 512h-93.863282c-4.714843 0-8.535156-3.820312-8.535156-8.535156 0-4.710938 3.820313-8.53125 8.535156-8.53125h85.332032c-.058594-9.921875-1.289063-19.800782-3.667969-29.433594l-7.9375-32.183594c-8.160156-29.820312-35.65625-50.191406-66.558594-49.316406h-7.9375c-4.710937 0-8.535156-3.820312-8.535156-8.535156 0-4.710938 3.824219-8.53125 8.535156-8.53125h7.9375c38.761719-.890625 73.105469 24.851562 83.125 62.308594l7.933594 32.15625c2.785156 11.28125 4.183594 22.855468 4.171875 34.472656v7.59375c0 4.714844-3.820312 8.535156-8.535156 8.535156zm0 0"/><path d="m102.398438 170.667969c-4.710938 0-8.53125-3.820313-8.53125-8.535157v-8.53125c.078124-70.660156 57.339843-127.921874 128-128 4.710937 0 8.53125 3.820313 8.53125 8.53125 0 4.714844-3.820313 8.535157-8.53125 8.535157-61.238282.066406-110.863282 49.695312-110.933594 110.933593v8.53125c0 4.714844-3.820313 8.535157-8.535156 8.535157zm0 0"/><path d="m409.601562 170.667969c-4.714843 0-8.535156-3.820313-8.535156-8.535157v-8.53125c-.070312-61.238281-49.695312-110.867187-110.933594-110.933593-4.710937 0-8.53125-3.820313-8.53125-8.535157 0-4.710937 3.820313-8.53125 8.53125-8.53125 70.660157.078126 127.921876 57.339844 128 128v8.53125c0 4.714844-3.820312 8.535157-8.53125 8.535157zm0 0"/><path d="m290.132812 85.332031c-4.710937 0-8.53125-3.820312-8.53125-8.53125v-51.199219c-.003906-4.710937-3.824218-8.53125-8.535156-8.535156h-34.132812c-4.710938.003906-8.527344 3.824219-8.535156 8.535156v51.199219c0 4.710938-3.820313 8.53125-8.53125 8.53125-4.714844 0-8.535157-3.820312-8.535157-8.53125v-51.199219c.015625-14.132812 11.46875-25.585937 25.601563-25.601562h34.132812c14.132813.015625 25.585938 11.46875 25.601563 25.601562v51.199219c0 4.710938-3.820313 8.53125-8.535157 8.53125zm0 0"/><path d="m256 119.464844h-.511719c-4.714843 0-8.535156-3.820313-8.535156-8.53125 0-4.714844 3.820313-8.535156 8.535156-8.535156 4.765625-.019532 8.671875 3.773437 8.789063 8.535156.058594 2.234375-.785156 4.402344-2.34375 6.007812-1.558594 1.605469-3.695313 2.515625-5.933594 2.523438zm0 0"/><path d="m108.503906 264.523438c-13.789062.402343-27.238281-4.328126-37.742187-13.273438-10.570313-9.601562-14.753907-24.390625-10.773438-38.109375 3.753907-15.199219 16.109375-32.574219 38.863281-54.65625 8.144532-7.867187 16.851563-15.601563 23.519532-21.460937l9.75-8.53125c9.125-7.957032 17.742187-15.476563 23.980468-21.71875 17.980469-17.085938 39.476563-30.039063 62.984376-37.957032 11.445312-4.199218 23.46875-6.628906 35.648437-7.207031h1.265625c12.574219.613281 24.980469 3.164063 36.777344 7.558594 23.144531 7.914062 44.304687 20.742187 62.015625 37.609375 6.492187 6.492187 15.511719 14.34375 25.054687 22.648437l9.792969 8.550781c7.339844 6.484376 14.757813 13.210938 21.921875 20.027344.519531.480469.9375.890625 1.292969 1.277344 22.566406 22.167969 34.304687 38.785156 38.050781 53.867188 3.9375 13.597656-.132812 28.253906-10.523438 37.867187-16.644531 13.488281-39.101562 17.359375-59.300781 10.21875-3.960937-1.257813-6.441406-5.183594-5.875-9.304687.1875-1.480469.273438-2.96875.257813-4.464844v-44.707032c.011718-2.097656-.746094-4.128906-2.128906-5.707031-48.296876-54.050781-103.328126-77.082031-118.136719-77.59375-12.625.710938-66.1875 21.191407-116.519531 77.558594-1.390626 1.597656-2.15625 3.644531-2.144532 5.757813v44.691406c-.003906 1.480468.066406 2.957031.210938 4.425781.40625 3.96875-1.988282 7.691406-5.769532 8.960937-7.246093 2.425782-14.832031 3.667969-22.472656 3.671876zm284.03125-17.980469c12.632813 2.992187 25.945313.0625 36.15625-7.960938 5.867188-5.398437 8.074219-13.707031 5.65625-21.308593-3.839844-15.433594-21.078125-33.683594-33.707031-46.066407-.160156-.148437-.308594-.316406-.453125-.480469l-.542969-.507812c-6.855469-6.519531-14.113281-13.109375-21.289062-19.433594l-9.714844-8.484375c-9.777344-8.507812-19.007813-16.550781-25.917969-23.457031-15.886718-15.070312-34.847656-26.519531-55.582031-33.5625-10.035156-3.78125-20.589844-6.007812-31.296875-6.605469h-.953125c-10.335937.585938-20.527344 2.699219-30.242187 6.277344-21.070313 7.050781-40.34375 18.617187-56.484376 33.890625-6.640624 6.652344-15.472656 14.359375-24.832031 22.515625l-9.691406 8.484375c-6.546875 5.75-15.054687 13.300781-22.925781 20.90625-20.066406 19.476562-31.242188 34.691406-34.167969 46.507812-2.449219 7.667969-.179687 16.0625 5.800781 21.449219 10.53125 8.136719 24.234375 10.945313 37.117188 7.609375v-43.542968c-.019532-6.3125 2.289062-12.410157 6.488281-17.121094 50.511719-56.570313 108.59375-82.128906 128.464844-83.234375.160156-.007813.914062-.019531 1.070312-.019531 20.378907.683593 79.222657 25.808593 130.574219 83.277343 4.1875 4.703125 6.492188 10.785157 6.472656 17.082031zm0 0"/><path d="m162.132812 307.199219c-4.710937 0-8.53125-3.820313-8.53125-8.53125v-68.269531c0-4.710938 3.820313-8.53125 8.53125-8.53125 4.714844 0 8.535157 3.820312 8.535157 8.53125v68.269531c0 4.710937-3.820313 8.53125-8.535157 8.53125zm0 0"/><path d="m196.265625 315.734375c-4.710937 0-8.53125-3.820313-8.53125-8.535156v-34.132813c0-4.710937 3.820313-8.53125 8.53125-8.53125 4.714844 0 8.535156 3.820313 8.535156 8.53125v34.132813c0 4.714843-3.820312 8.535156-8.535156 8.535156zm0 0"/><path d="m230.398438 315.734375c-4.710938 0-8.53125-3.820313-8.53125-8.535156v-17.066407c0-4.710937 3.820312-8.53125 8.53125-8.53125 4.714843 0 8.535156 3.820313 8.535156 8.53125v17.066407c0 4.714843-3.820313 8.535156-8.535156 8.535156zm0 0"/><path d="m349.867188 307.199219c-4.714844 0-8.535157-3.820313-8.535157-8.53125v-68.269531c0-4.710938 3.820313-8.53125 8.535157-8.53125 4.710937 0 8.53125 3.820312 8.53125 8.53125v68.269531c0 4.710937-3.820313 8.53125-8.53125 8.53125zm0 0"/><path d="m315.734375 315.734375c-4.714844 0-8.535156-3.820313-8.535156-8.535156v-34.132813c0-4.710937 3.820312-8.53125 8.535156-8.53125 4.710937 0 8.53125 3.820313 8.53125 8.53125v34.132813c0 4.714843-3.820313 8.535156-8.53125 8.535156zm0 0"/><path d="m281.601562 315.734375c-4.714843 0-8.535156-3.820313-8.535156-8.535156v-17.066407c0-4.710937 3.820313-8.53125 8.535156-8.53125 4.710938 0 8.53125 3.820313 8.53125 8.53125v17.066407c0 4.714843-3.820312 8.535156-8.53125 8.535156zm0 0"/><path d="m256 435.199219c-27.078125-.859375-53.898438-5.554688-79.660156-13.941407-4.503906-1.390624-7.03125-6.167968-5.640625-10.675781 1.390625-4.503906 6.171875-7.03125 10.675781-5.640625 24.128906 7.890625 49.253906 12.328125 74.625 13.191406 25.371094-.863281 50.496094-5.300781 74.625-13.191406 4.503906-1.390625 9.285156 1.136719 10.675781 5.640625 1.390625 4.507813-1.136719 9.285157-5.640625 10.675781-25.761718 8.386719-52.582031 13.082032-79.660156 13.941407zm0 0"/><path d="m85.332031 494.933594c-3.449219 0-6.558593-2.078125-7.878906-5.269532-1.320313-3.1875-.59375-6.855468 1.847656-9.296874 19.816407-19.921876 37.101563-42.214844 51.460938-66.367188 1.675781-3.632812 5.648437-5.613281 9.554687-4.761719 3.90625.847657 6.699219 4.300781 6.714844 8.296875v.085938c-.003906 1.355468-.324219 2.6875-.941406 3.890625-15.140625 25.878906-33.53125 49.707031-54.722656 70.914062-1.597657 1.605469-3.769532 2.507813-6.035157 2.507813zm0 0"/><path d="m426.667969 494.933594c-2.265625.003906-4.4375-.898438-6.035157-2.5-21.191406-21.207032-39.582031-45.035156-54.722656-70.914063-2.152344-4.191406-.492187-9.335937 3.703125-11.484375 4.191407-2.148437 9.335938-.492187 11.484375 3.703125 15.566406 30.40625 51.242188 66.273438 51.597656 66.632813 2.4375 2.441406 3.167969 6.109375 1.847657 9.292968-1.320313 3.1875-4.425781 5.265626-7.875 5.269532zm0 0"/><path d="m162.132812 435.199219h-8.53125c-14.132812-.015625-25.585937-11.46875-25.601562-25.597657v-59.734374c0-4.714844 3.820312-8.535157 8.535156-8.535157h42.664063c4.714843 0 8.535156 3.820313 8.535156 8.535157v59.734374c-.015625 14.128907-11.46875 25.582032-25.601563 25.597657zm-17.066406-76.800781v51.203124c.003906 4.710938 3.824219 8.527344 8.535156 8.53125h8.53125c4.710938-.003906 8.53125-3.820312 8.535157-8.53125v-51.203124zm0 0"/><path d="m358.398438 435.199219h-8.53125c-14.132813-.015625-25.585938-11.46875-25.601563-25.597657v-59.734374c0-4.714844 3.820313-8.535157 8.535156-8.535157h42.664063c4.714844 0 8.535156 3.820313 8.535156 8.535157v59.734374c-.015625 14.128907-11.46875 25.582032-25.601562 25.597657zm-17.066407-76.800781v51.203124c.003907 4.710938 3.824219 8.527344 8.535157 8.53125h8.53125c4.710937-.003906 8.53125-3.820312 8.535156-8.53125v-51.203124zm0 0"/><path d="m264.535156 384c0 4.714844-3.820312 8.535156-8.535156 8.535156-4.710938 0-8.535156-3.820312-8.535156-8.535156 0-4.710938 3.824218-8.535156 8.535156-8.535156 4.714844 0 8.535156 3.824218 8.535156 8.535156zm0 0"/><path d="m238.933594 392.535156c0 4.710938-3.820313 8.53125-8.535156 8.53125-4.710938 0-8.53125-3.820312-8.53125-8.53125 0-4.714844 3.820312-8.535156 8.53125-8.535156 4.714843 0 8.535156 3.820312 8.535156 8.535156zm0 0"/><path d="m290.132812 392.535156c0 4.710938-3.820312 8.53125-8.53125 8.53125-4.714843 0-8.535156-3.820312-8.535156-8.53125 0-4.714844 3.820313-8.535156 8.535156-8.535156 4.710938 0 8.53125 3.820312 8.53125 8.535156zm0 0"/><path d="m256 512c-4.710938 0-8.535156-3.820312-8.535156-8.535156v-34.132813c0-4.710937 3.824218-8.53125 8.535156-8.53125 4.714844 0 8.535156 3.820313 8.535156 8.53125v34.132813c0 4.714844-3.820312 8.535156-8.535156 8.535156zm0 0"/></svg>