<svg height="512pt" viewBox="0 0 512.00016 512" width="512pt" xmlns="http://www.w3.org/2000/svg"><path d="m435.199219 145.066406h17.066406c9.425781 0 17.066406 7.640625 17.066406 17.066406v34.132813c0 9.425781-7.640625 17.066406-17.066406 17.066406h-392.53125c-9.425781 0-17.066406-7.640625-17.066406-17.066406v-34.132813c0-9.425781 7.640625-17.066406 17.066406-17.066406zm0 0" fill="#f44335"/><path d="m384 230.398438h34.132812c9.414063-.027344 17.039063-7.652344 17.066407-17.066407v-68.265625c-.027344-9.414062-7.652344-17.039062-17.066407-17.066406h-324.265624c-9.414063.027344-17.039063 7.652344-17.066407 17.066406v68.265625c.027344 9.414063 7.652344 17.039063 17.066407 17.066407zm0 0" fill="#c81e1e"/><path d="m187.734375 294.496094h136.53125v68.078125h-136.53125zm0 0" fill="#f29c1f"/><path d="m409.601562 503.464844h93.867188l-.003906-7.59375c.015625-10.925782-1.300782-21.816406-3.921875-32.425782l-7.9375-32.171874c-9.203125-33.554688-40.046875-56.558594-74.835938-55.808594h-321.539062c-34.789063-.75-65.628907 22.253906-74.835938 55.808594l-7.9375 32.171874c-2.621093 10.609376-3.9375 21.5-3.921875 32.425782v7.59375zm0 0" fill="#9d27b0"/><path d="m435.199219 503.464844h-358.398438l26.707031-129.277344 2.21875-10.667969c1.195313-4.90625 4.648438-8.960937 9.304688-10.921875 3.550781-1.851562 7.511719-2.789062 11.519531-2.730468h258.898438c3.984375-.03125 7.925781.84375 11.523437 2.558593v.085938c4.683594 1.988281 8.164063 6.066406 9.382813 11.007812l2.136719 10.582031zm0 0" fill="#6a1b9a"/><path d="m384 102.398438v145.066406c.011719 15.847656-6.277344 31.046875-17.484375 42.253906-11.203125 11.203125-26.402344 17.492188-42.25 17.480469h-136.53125c-15.847656.011719-31.046875-6.277344-42.25-17.480469-11.207031-11.207031-17.496094-26.40625-17.484375-42.253906v-145.066406zm0 0" fill="#fec108"/><path d="m358.398438 102.398438v145.066406c0 33.027344-21.367188 59.734375-47.785157 59.734375h-109.226562c-26.417969 0-47.785157-26.707031-47.785157-59.734375v-145.066406zm0 0" fill="#ffdc00"/><path d="m384 102.398438v85.335937c-34.132812-8.535156-34.132812-34.132813-34.132812-34.132813-25.722657 4.546876-51.878907-5.261718-68.265626-25.601562-51.203124 8.535156-68.269531-25.601562-102.402343-17.066406-34.132813 8.53125-25.597657 76.800781-25.597657 76.800781-25.601562-17.066406-25.601562-51.199219-25.601562-51.199219v-34.136718c.683594-33.109376 30.550781-59.730469 67.328125-59.730469h121.34375c36.777344 0 66.644531 26.621093 67.328125 59.730469zm0 0" fill="#6d4122"/><path d="m349.867188 349.867188c.007812 1.082031-.195313 2.152343-.597657 3.15625-.769531 1.964843-20.054687 48.042968-93.269531 48.042968s-92.5-46.078125-93.269531-48.042968c-.402344-1.003907-.605469-2.074219-.597657-3.15625h18.175782c5.292968 9.128906 24.664062 34.132812 75.691406 34.132812 51.113281 0 70.398438-25.003906 75.777344-34.132812zm0 0" fill="#2c2f38"/><path d="m296.339844 247.464844c-6.894532 13.496094-28.414063 15.402344-40.167969 15.402344-11.78125 0-33.277344-1.90625-40.171875-15.402344 13.148438 3.242187 26.628906 4.929687 40.171875 5.035156 13.539063-.101562 27.023437-1.792969 40.167969-5.035156zm0 0"/><path d="m233.648438 158.625c-8.109376-2.980469-16.625-4.707031-25.257813-5.121094-11.601563-.875-23.214844 1.601563-33.449219 7.132813 1.167969-14.933594 35.789063-17.882813 52.710938-14.042969 2.683594.332031 5.019531 1.988281 6.226562 4.40625 1.207032 2.421875 1.121094 5.28125-.230468 7.625zm0 0"/><path d="m230.398438 185.011719c0-10.101563-7.640626-18.289063-17.066407-18.289063s-17.066406 8.1875-17.066406 18.289063c0 10.105469 7.640625 18.292969 17.066406 18.292969s17.066407-8.1875 17.066407-18.292969zm0 0"/><path d="m218.117188 169.140625c-4.40625-1.675781-9.332032.535156-11.007813 4.941406s.535156 9.335938 4.941406 11.011719c4.40625 1.671875 9.332031-.539062 11.007813-4.945312 1.675781-4.402344-.535156-9.332032-4.941406-11.007813zm0 0" fill="#fff"/><path d="m278.351562 158.625c8.109376-2.980469 16.625-4.707031 25.257813-5.121094 11.601563-.875 23.214844 1.601563 33.449219 7.132813-1.167969-14.933594-35.789063-17.882813-52.710938-14.042969-2.683594.332031-5.019531 1.988281-6.226562 4.40625-1.207032 2.421875-1.117188 5.28125.230468 7.625zm0 0"/><path d="m315.734375 185.011719c0-10.101563-7.640625-18.289063-17.066406-18.289063s-17.066407 8.1875-17.066407 18.289063c0 10.105469 7.640626 18.292969 17.066407 18.292969s17.066406-8.1875 17.066406-18.292969zm0 0"/><path d="m304.890625 174.082031c-1.675781-4.402343-6.601563-6.617187-11.007813-4.941406s-6.617187 6.605469-4.941406 11.007813c1.675782 4.40625 6.601563 6.621093 11.007813 4.945312s6.617187-6.605469 4.941406-11.011719zm0 0" fill="#fff"/><path d="m435.199219 512h-358.398438c-2.566406 0-4.996093-1.152344-6.617187-3.144531-1.621094-1.988281-2.261719-4.601563-1.742188-7.113281l28.910156-139.929688c3.726563-12.839844 15.886719-21.359375 29.226563-20.480469h258.894531c13.359375-.875 25.527344 7.664063 29.238282 20.527344l28.84375 139.882813c.519531 2.511718-.121094 5.125-1.742188 7.113281-1.617188 1.988281-4.046875 3.144531-6.613281 3.144531zm-347.925781-17.066406h337.457031l-26.742188-129.667969c-2.265625-4.738281-7.304687-7.5-12.515625-6.867187h-258.894531c-5.199219-.632813-10.226563 2.113281-12.503906 6.828124zm0 0"/><path d="m324.265625 358.398438h-136.53125c-4.714844 0-8.535156-3.820313-8.535156-8.53125v-42.667969c0-4.710938 3.820312-8.53125 8.535156-8.53125h136.53125c4.714844 0 8.535156 3.820312 8.535156 8.53125v42.667969c0 4.710937-3.820312 8.53125-8.535156 8.53125zm-128-17.066407h119.46875v-25.597656h-119.46875zm0 0"/><path d="m324.265625 315.734375h-136.53125c-37.6875-.042969-68.222656-30.582031-68.269531-68.269531v-119.464844c0-4.710938 3.824218-8.535156 8.535156-8.535156 4.714844 0 8.535156 3.824218 8.535156 8.535156v119.464844c.027344 28.265625 22.933594 51.171875 51.199219 51.203125h136.53125c28.265625-.03125 51.171875-22.9375 51.199219-51.203125v-119.464844c0-4.710938 3.824218-8.535156 8.535156-8.535156 4.714844 0 8.535156 3.824218 8.535156 8.535156v119.464844c-.046875 37.6875-30.582031 68.226562-68.269531 68.269531zm0 0"/><path d="m102.398438 512h-93.863282c-4.714844 0-8.535156-3.820312-8.535156-8.535156v-7.59375c-.0117188-11.621094 1.390625-23.207032 4.175781-34.492188l7.9375-32.148437c10.019531-37.453125 44.359375-63.1875 83.117188-62.296875h8.023437c4.710938 0 8.53125 3.820312 8.53125 8.53125 0 4.714844-3.820312 8.535156-8.53125 8.535156h-8.023437c-30.898438-.875-58.386719 19.496094-66.550781 49.308594l-7.9375 32.171875c-2.378907 9.636719-3.613282 19.523437-3.671876 29.453125h85.328126c4.714843 0 8.535156 3.820312 8.535156 8.53125 0 4.714844-3.820313 8.535156-8.535156 8.535156zm0 0"/><path d="m503.464844 512h-93.863282c-4.714843 0-8.535156-3.820312-8.535156-8.535156 0-4.710938 3.820313-8.53125 8.535156-8.53125h85.332032c-.058594-9.921875-1.289063-19.800782-3.667969-29.433594l-7.9375-32.183594c-8.160156-29.820312-35.65625-50.191406-66.558594-49.316406h-7.9375c-4.710937 0-8.535156-3.820312-8.535156-8.535156 0-4.710938 3.824219-8.53125 8.535156-8.53125h7.9375c38.761719-.890625 73.105469 24.851562 83.125 62.308594l7.933594 32.15625c2.785156 11.28125 4.183594 22.855468 4.171875 34.472656v7.59375c0 4.714844-3.820312 8.535156-8.535156 8.535156zm0 0"/><path d="m128 238.933594h-34.132812c-14.132813-.015625-25.585938-11.46875-25.601563-25.601563v-68.265625c.015625-14.132812 11.46875-25.585937 25.601563-25.601562h34.132812c4.714844 0 8.535156 3.824218 8.535156 8.535156v102.398438c0 4.714843-3.820312 8.535156-8.535156 8.535156zm-34.132812-102.398438c-4.710938.003906-8.53125 3.820313-8.535157 8.53125v68.265625c.003907 4.710938 3.824219 8.53125 8.535157 8.535157h25.597656v-85.332032zm0 0"/><path d="m76.800781 221.867188h-17.066406c-14.132813-.015626-25.585937-11.46875-25.601563-25.601563v-34.132813c.015626-14.132812 11.46875-25.582031 25.601563-25.597656h17.066406c4.710938 0 8.53125 3.820313 8.53125 8.53125v68.265625c0 4.714844-3.820312 8.535157-8.53125 8.535157zm-17.066406-68.265626c-4.710937.003907-8.53125 3.820313-8.535156 8.53125v34.132813c.003906 4.710937 3.824219 8.53125 8.535156 8.535156h8.53125v-51.199219zm0 0"/><path d="m418.132812 238.933594h-34.132812c-4.710938 0-8.535156-3.820313-8.535156-8.535156v-102.398438c0-4.710938 3.824218-8.535156 8.535156-8.535156h34.132812c14.132813.015625 25.585938 11.46875 25.601563 25.601562v68.265625c-.015625 14.132813-11.46875 25.585938-25.601563 25.601563zm-25.597656-17.066406h25.597656c4.710938-.003907 8.53125-3.824219 8.535157-8.535157v-68.265625c-.003907-4.710937-3.824219-8.527344-8.535157-8.53125h-25.597656zm0 0"/><path d="m452.265625 221.867188h-17.066406c-4.710938 0-8.53125-3.820313-8.53125-8.535157v-68.265625c0-4.710937 3.820312-8.53125 8.53125-8.53125h17.066406c14.132813.015625 25.585937 11.464844 25.601563 25.597656v34.132813c-.015626 14.132813-11.46875 25.585937-25.601563 25.601563zm-8.53125-17.066407h8.53125c4.710937-.003906 8.53125-3.824219 8.535156-8.535156v-34.132813c-.003906-4.710937-3.824219-8.527343-8.535156-8.53125h-8.53125zm0 0"/><path d="m418.132812 136.535156c-4.710937 0-8.53125-3.820312-8.53125-8.535156v-34.132812c-.046874-42.394532-34.40625-76.753907-76.800781-76.800782h-153.601562c-42.394531.046875-76.753907 34.40625-76.800781 76.800782v34.132812c0 4.714844-3.820313 8.535156-8.53125 8.535156-4.714844 0-8.535157-3.820312-8.535157-8.535156v-34.132812c.058594-51.816407 42.050781-93.8085942 93.867188-93.867188h153.601562c51.816407.0585938 93.808594 42.050781 93.867188 93.867188v34.132812c0 2.261719-.898438 4.433594-2.5 6.035156-1.601563 1.597656-3.769531 2.5-6.035157 2.5zm0 0"/><path d="m384 136.535156c-4.710938 0-8.535156-3.820312-8.535156-8.535156v-24.382812c0-28.898438-26.390625-52.417969-58.832032-52.417969h-121.265624c-32.441407 0-58.832032 23.519531-58.832032 52.417969v24.382812c0 4.714844-3.820312 8.535156-8.535156 8.535156-4.710938 0-8.535156-3.820312-8.535156-8.535156v-24.382812c0-38.316407 34.050781-69.484376 75.902344-69.484376h121.265624c41.851563 0 75.902344 31.167969 75.902344 69.484376v24.382812c0 4.714844-3.820312 8.535156-8.535156 8.535156zm0 0"/><path d="m384.007812 196.265625c-.699218 0-1.398437-.085937-2.078124-.253906-26.535157-6.632813-35.730469-22.460938-38.914063-32.800781-24.480469 1.769531-48.410156-7.855469-64.839844-26.089844-20.859375 2.28125-41.929687-1.589844-60.617187-11.136719-12.972656-5.613281-23.210938-10.023437-36.289063-6.773437-21.875 5.476562-21.175781 51.699218-19.199219 67.46875.414063 3.308593-1.140624 6.558593-3.980468 8.3125-2.839844 1.757812-6.441406 1.695312-9.21875-.15625-29.070313-19.378907-29.40625-56.71875-29.40625-58.300782-.003906-4.714844 3.8125-8.539062 8.527344-8.542968 4.710937-.003907 8.535156 3.8125 8.542968 8.523437.441406 9.90625 3.058594 19.589844 7.667969 28.367187.710937-23.15625 6.550781-55.636718 32.925781-62.222656 18.691406-4.683594 33.195313 1.589844 47.210938 7.65625 17.121094 9.058594 36.722656 12.308594 55.855468 9.265625 3.144532-.515625 6.3125.753907 8.230469 3.296875 14.34375 17.808594 37.257813 26.382813 59.765625 22.359375 2.507813-.503906 5.105469.144531 7.082032 1.765625 1.976562 1.621094 3.125 4.039063 3.125 6.597656.054687 1.847657 1.304687 19.265626 27.671874 25.855469 4.179688 1.046875 6.921876 5.042969 6.394532 9.316407-.523438 4.273437-4.148438 7.488281-8.457032 7.492187zm0 0"/><path d="m256 85.332031c-4.710938 0-8.535156-3.820312-8.535156-8.53125-.695313-11.902343-8.527344-22.199219-19.8125-26.050781-4.464844-1.503906-6.867188-6.34375-5.363282-10.808594 1.503907-4.46875 6.34375-6.871094 10.8125-5.367187 1.28125.425781 31.433594 10.835937 31.433594 42.226562 0 4.710938-3.820312 8.53125-8.535156 8.53125zm0 0"/><path d="m256 401.066406c-73.203125 0-92.46875-46.066406-93.257812-48.03125-1.140626-2.828125-.6875-6.050781 1.1875-8.453125 1.878906-2.402343 4.894531-3.621093 7.914062-3.195312s5.582031 2.429687 6.722656 5.253906c.6875 1.644531 16.433594 37.359375 77.433594 37.359375 61.097656 0 76.796875-35.839844 77.433594-37.367188 1.765625-4.371093 6.742187-6.480468 11.113281-4.710937 4.367187 1.765625 6.480469 6.742187 4.710937 11.113281-.789062 1.964844-20.054687 48.03125-93.257812 48.03125zm0 0"/><path d="m187.734375 418.125c-2.257813.003906-4.421875-.890625-6.019531-2.484375-7.546875-7.769531-17.414063-12.882813-28.113282-14.574219-25.441406 0-51.203124-14.660156-51.203124-42.667968 0-4.710938 3.820312-8.53125 8.535156-8.53125 4.710937 0 8.53125 3.820312 8.53125 8.53125 0 20.25 22.332031 25.601562 34.136718 25.601562 20.023438 0 38.164063 17.566406 40.164063 19.566406 2.441406 2.441406 3.167969 6.109375 1.847656 9.296875-1.320312 3.183594-4.429687 5.261719-7.878906 5.261719zm0 0"/><path d="m324.269531 418.125c-3.449219.003906-6.5625-2.074219-7.882812-5.261719-1.320313-3.1875-.59375-6.855469 1.847656-9.296875 2-2 20.140625-19.566406 40.164063-19.566406 11.804687 0 34.136718-5.351562 34.136718-25.601562 0-4.710938 3.820313-8.53125 8.53125-8.53125 4.714844 0 8.535156 3.820312 8.535156 8.53125 0 28.007812-25.761718 42.667968-51.203124 42.667968-10.699219 1.691406-20.5625 6.804688-28.109376 14.574219-1.597656 1.59375-3.761718 2.488281-6.019531 2.484375zm0 0"/><path d="m204.800781 477.867188c-3.453125 0-6.5625-2.082032-7.882812-5.269532-1.320313-3.1875-.589844-6.855468 1.847656-9.296875 9.007813-10.121093 14.164063-23.089843 14.566406-36.632812 0-4.714844 3.820313-8.535157 8.535157-8.535157 4.710937 0 8.53125 3.820313 8.53125 8.535157-.445313 18.058593-7.394532 35.351562-19.566407 48.699219-1.597656 1.601562-3.769531 2.503906-6.03125 2.5zm0 0"/><path d="m307.199219 477.867188c-2.261719.003906-4.433594-.898438-6.03125-2.5-12.171875-13.347657-19.121094-30.640626-19.566407-48.699219-.007812-4.714844 3.804688-8.539063 8.519532-8.546875 4.710937-.007813 8.539062 3.808594 8.546875 8.519531.457031 13.539063 5.605469 26.5 14.566406 36.660156 2.4375 2.441407 3.167969 6.109375 1.847656 9.296875-1.320312 3.1875-4.429687 5.269532-7.882812 5.269532zm0 0"/></svg>