<svg height="512pt" viewBox="0 0 512.00016 512" width="512pt" xmlns="http://www.w3.org/2000/svg"><path d="m418.132812 230.398438v-80.042969c-.121093-5.855469-.636718-11.699219-1.535156-17.492188.085938-.085937.085938-.167969 0-.167969-10.34375-71.304687-71.480468-124.191406-143.53125-124.160156h-34.132812c-72.050782-.03125-133.1875 52.855469-143.53125 124.160156-.085938 0-.085938.082032 0 .167969-1.03125 6.863281-1.542969 13.796875-1.535156 20.738281v76.796876zm0 0" fill="#283593"/><path d="m375.464844 230.398438v-80.042969c-.125-5.886719-.4375-11.773438-1.128906-17.492188.0625-.085937.0625-.167969 0-.167969-7.421876-70.230468-51.9375-124.160156-105.761719-124.160156h-25.148438c-53.824219 0-98.339843 53.929688-105.761719 124.160156-.0625 0-.0625.082032 0 .167969-.757812 6.886719-1.136718 13.808594-1.128906 20.738281v76.796876zm0 0" fill="#3f51b5"/><path d="m111.464844 122.132812h282.667968v153.601563h-282.667968zm0 0" fill="#fec108"/><path d="m147.199219 122.132812h211.199219v153.601563h-211.199219zm0 0" fill="#ffdc00"/><path d="m409.601562 503.464844h93.867188l-.003906-7.59375c.015625-10.925782-1.300782-21.816406-3.921875-32.425782l-7.9375-32.171874c-9.203125-33.554688-40.046875-56.558594-74.835938-55.808594h-321.539062c-34.789063-.75-65.628907 22.253906-74.835938 55.808594l-7.9375 32.171874c-2.621093 10.609376-3.9375 21.5-3.921875 32.425782v7.59375zm0 0" fill="#283593"/><path d="m187.734375 293.273438h136.53125v70.519531h-136.53125zm0 0" fill="#fec108"/><path d="m435.199219 503.464844h-358.398438l11.519531-55.636719 5.886719-28.414063 11.519531-55.894531c2.945313-8.820312 11.558594-14.46875 20.824219-13.652343h258.898438c9.285156-.816407 17.921875 4.824218 20.90625 13.652343l11.523437 55.894531 5.886719 28.414063zm0 0" fill="#283593"/><path d="m401.066406 503.464844h-290.132812l9.324218-55.636719 4.765626-28.414063 9.328124-55.894531c1.515626-8.066406 8.652344-13.847656 16.859376-13.652343h209.585937c8.21875-.195313 15.378906 5.578124 16.925781 13.652343l9.324219 55.894531 4.765625 28.414063zm0 0" fill="#3f51b5"/><path d="m187.734375 204.800781h-17.066406c-4.714844 0-8.535157-3.820312-8.535157-8.535156 0-4.710937 3.820313-8.53125 8.535157-8.53125h17.066406c4.710937 0 8.53125 3.820313 8.53125 8.53125 0 4.714844-3.820313 8.535156-8.53125 8.535156zm0 0" fill="#ecf0f1"/><path d="m341.332031 204.800781h-17.066406c-4.710937 0-8.53125-3.820312-8.53125-8.535156 0-4.710937 3.820313-8.53125 8.53125-8.53125h17.066406c4.714844 0 8.535157 3.820313 8.535157 8.53125 0 4.714844-3.820313 8.535156-8.535157 8.535156zm0 0" fill="#ecf0f1"/><path d="m136.535156 349.867188c6.832032 12.558593 15.453125 24.058593 25.597656 34.132812 0 0 52.148438 51.199219 93.867188 51.199219s93.867188-51.199219 93.867188-51.199219c10.144531-10.074219 18.769531-21.574219 25.597656-34.132812h-42.664063s-42.667969 51.199218-76.800781 51.199218-76.800781-51.199218-76.800781-51.199218zm0 0" fill="#f5f5f5"/><path d="m296.339844 230.398438c-6.894532 13.496093-28.414063 15.402343-40.167969 15.402343-11.78125 0-33.277344-1.90625-40.171875-15.402343 13.148438 3.242187 26.628906 4.929687 40.171875 5.035156 13.539063-.105469 27.023437-1.792969 40.167969-5.035156zm0 0"/><path d="m233.648438 145.824219c-8.109376-2.980469-16.625-4.707031-25.257813-5.117188-11.601563-.878906-23.214844 1.597657-33.449219 7.132813 1.167969-14.933594 35.789063-17.886719 52.710938-14.046875 2.683594.335937 5.019531 1.988281 6.226562 4.410156 1.207032 2.417969 1.121094 5.28125-.230468 7.621094zm0 0"/><path d="m230.398438 172.214844c0-10.105469-7.640626-18.292969-17.066407-18.292969s-17.066406 8.1875-17.066406 18.292969c0 10.101562 7.640625 18.289062 17.066406 18.289062s17.066407-8.1875 17.066407-18.289062zm0 0"/><path d="m218.117188 156.339844c-4.402344-1.675782-9.332032.539062-11.007813 4.941406-1.675781 4.40625.535156 9.335938 4.941406 11.011719s9.335938-.539063 11.011719-4.941407c1.671875-4.40625-.539062-9.335937-4.945312-11.011718zm0 0" fill="#fff"/><path d="m278.351562 145.824219c8.109376-2.980469 16.625-4.707031 25.257813-5.117188 11.601563-.878906 23.214844 1.597657 33.449219 7.132813-1.167969-14.933594-35.789063-17.886719-52.710938-14.046875-2.683594.335937-5.019531 1.988281-6.226562 4.410156-1.207032 2.417969-1.117188 5.28125.230468 7.621094zm0 0"/><path d="m315.734375 172.214844c0-10.105469-7.640625-18.292969-17.066406-18.292969s-17.066407 8.1875-17.066407 18.292969c0 10.101562 7.640626 18.289062 17.066407 18.289062s17.066406-8.1875 17.066406-18.289062zm0 0"/><path d="m304.890625 161.28125c-1.675781-4.402344-6.605469-6.617188-11.007813-4.941406-4.40625 1.675781-6.617187 6.605468-4.941406 11.011718 1.671875 4.402344 6.601563 6.617188 11.007813 4.941407s6.617187-6.605469 4.941406-11.011719zm0 0" fill="#fff"/><path d="m366.933594 93.867188h-221.867188c-28.265625.023437-51.175781 22.933593-51.199218 51.199218v85.332032c.003906 42.414062 34.386718 76.796874 76.800781 76.800781h170.664062c42.414063-.003907 76.796875-34.386719 76.800781-76.800781v-85.332032c-.023437-28.265625-22.933593-51.175781-51.199218-51.199218zm17.066406 145.066406c.003906 9.054687-3.59375 17.738281-9.996094 24.136718-6.398437 6.402344-15.082031 10-24.136718 9.996094h-187.734376c-9.054687.003906-17.734374-3.59375-24.136718-9.996094-6.402344-6.398437-10-15.082031-9.996094-24.136718v-85.332032c-.007812-6.792968 2.683594-13.308593 7.488281-18.113281 4.800781-4.804687 11.320313-7.496093 18.113281-7.488281h204.796876c6.792968-.007812 13.3125 2.683594 18.113281 7.488281 4.804687 4.804688 7.496093 11.320313 7.488281 18.113281zm0 0" fill="#f5f5f5"/><path d="m435.199219 512h-358.398438c-2.566406 0-4.996093-1.152344-6.617187-3.144531-1.621094-1.988281-2.261719-4.601563-1.742188-7.113281l28.910156-139.929688c3.726563-12.839844 15.886719-21.359375 29.226563-20.480469h258.894531c13.359375-.875 25.527344 7.664063 29.238282 20.527344l28.84375 139.882813c.519531 2.511718-.121094 5.125-1.742188 7.113281-1.617188 1.988281-4.046875 3.144531-6.613281 3.144531zm-347.925781-17.066406h337.457031l-26.742188-129.667969c-2.265625-4.738281-7.304687-7.5-12.515625-6.867187h-258.894531c-5.199219-.632813-10.226563 2.113281-12.503906 6.828124zm0 0"/><path d="m324.265625 358.398438h-136.53125c-4.714844 0-8.535156-3.820313-8.535156-8.53125v-42.667969c0-4.710938 3.820312-8.53125 8.535156-8.53125h136.53125c4.714844 0 8.535156 3.820312 8.535156 8.53125v42.667969c0 4.710937-3.820312 8.53125-8.535156 8.53125zm-128-17.066407h119.46875v-25.597656h-119.46875zm0 0"/><path d="m324.265625 315.734375h-136.53125c-4.714844 0-8.535156-3.820313-8.535156-8.535156 0-4.710938 3.820312-8.53125 8.535156-8.53125h136.53125c4.714844 0 8.535156 3.820312 8.535156 8.53125 0 4.714843-3.820312 8.535156-8.535156 8.535156zm0 0"/><path d="m384 247.464844c-4.710938 0-8.535156-3.820313-8.535156-8.53125v-59.734375c0-4.710938 3.824218-8.53125 8.535156-8.53125 4.714844 0 8.535156 3.820312 8.535156 8.53125v59.734375c0 4.710937-3.820312 8.53125-8.535156 8.53125zm0 0"/><path d="m128 247.464844c-4.710938 0-8.535156-3.820313-8.535156-8.53125v-59.734375c0-4.710938 3.824218-8.53125 8.535156-8.53125 4.714844 0 8.535156 3.820312 8.535156 8.53125v59.734375c0 4.710937-3.820312 8.53125-8.535156 8.53125zm0 0"/><path d="m102.398438 512h-93.863282c-4.714844 0-8.535156-3.820312-8.535156-8.535156v-7.59375c-.0117188-11.621094 1.390625-23.207032 4.175781-34.492188l7.9375-32.148437c10.019531-37.453125 44.359375-63.1875 83.117188-62.296875h8.023437c4.710938 0 8.53125 3.820312 8.53125 8.53125 0 4.714844-3.820312 8.535156-8.53125 8.535156h-8.023437c-30.898438-.875-58.386719 19.496094-66.550781 49.308594l-7.9375 32.171875c-2.378907 9.636719-3.613282 19.523437-3.671876 29.453125h85.328126c4.714843 0 8.535156 3.820312 8.535156 8.53125 0 4.714844-3.820313 8.535156-8.535156 8.535156zm0 0"/><path d="m503.464844 512h-93.863282c-4.714843 0-8.535156-3.820312-8.535156-8.535156 0-4.710938 3.820313-8.53125 8.535156-8.53125h85.332032c-.058594-9.921875-1.289063-19.800782-3.667969-29.433594l-7.9375-32.183594c-8.160156-29.820312-35.65625-50.191406-66.558594-49.316406h-7.9375c-4.710937 0-8.535156-3.820312-8.535156-8.535156 0-4.710938 3.824219-8.53125 8.535156-8.53125h7.9375c38.761719-.890625 73.105469 24.851562 83.125 62.308594l7.933594 32.15625c2.785156 11.28125 4.183594 22.855468 4.171875 34.472656v7.59375c0 4.714844-3.820312 8.535156-8.535156 8.535156zm0 0"/><path d="m394.753906 294.058594h-.085937c-4.707031-.023438-8.503907-3.851563-8.492188-8.554688s3.828125-8.511718 8.535157-8.511718c4.703124 0 8.519531 3.808593 8.53125 8.511718.011718 4.703125-3.785157 8.53125-8.488282 8.554688zm0 0"/><path d="m418.132812 238.933594c-4.710937 0-8.53125-3.820313-8.53125-8.535156v-80.042969c-.121093-5.394531-.597656-10.773438-1.425781-16.105469-.042969-.265625-.074219-.542969-.09375-.808594-10.175781-66.765625-67.480469-116.15625-135.015625-116.375h-34.132812c-67.535156.21875-124.839844 49.613282-135.015625 116.375-.011719.234375-.042969.476563-.078125.707032-.96875 6.441406-1.449219 12.941406-1.441406 19.453124v76.796876c0 4.714843-3.820313 8.535156-8.53125 8.535156-4.714844 0-8.535157-3.820313-8.535157-8.535156v-76.796876c-.003906-7.050781.496094-14.089843 1.496094-21.070312.007813-.664062.097656-1.328125.265625-1.972656 11.613281-74.941406 76.003906-130.304688 151.839844-130.558594h34.132812c75.835938.253906 140.226563 55.617188 151.839844 130.558594.160156.621094.246094 1.253906.265625 1.894531.867187 5.847656 1.363281 11.746094 1.496094 17.65625v80.289063c0 4.714843-3.820313 8.535156-8.535157 8.535156zm0 0"/><path d="m341.332031 315.734375h-170.664062c-47.105469-.054687-85.28125-38.226563-85.335938-85.335937v-85.332032c.039063-32.972656 26.761719-59.695312 59.734375-59.734375h221.867188c32.972656.039063 59.695312 26.761719 59.734375 59.734375v85.332032c-.054688 47.109374-38.226563 85.28125-85.335938 85.335937zm-196.265625-213.335937c-23.550781.03125-42.636718 19.117187-42.667968 42.667968v85.332032c.042968 37.6875 30.582031 68.226562 68.269531 68.269531h170.664062c37.6875-.042969 68.226563-30.582031 68.269531-68.269531v-85.332032c-.027343-23.550781-19.117187-42.636718-42.667968-42.667968zm204.800782 179.203124h-187.734376c-23.550781-.027343-42.636718-19.117187-42.667968-42.667968v-85.332032c.023437-18.84375 15.292968-34.113281 34.136718-34.136718h204.796876c18.84375.023437 34.113281 15.292968 34.136718 34.136718v85.332032c-.03125 23.550781-19.117187 42.640625-42.667968 42.667968zm-196.265626-145.066406c-9.421874.007813-17.058593 7.644532-17.066406 17.066406v85.332032c.015625 14.132812 11.464844 25.585937 25.597656 25.601562h187.734376c14.132812-.015625 25.585937-11.46875 25.597656-25.601562v-85.332032c-.007813-9.421874-7.644532-17.058593-17.066406-17.066406zm0 0"/><path d="m170.667969 204.800781h-42.667969c-4.710938 0-8.535156-3.820312-8.535156-8.535156 0-4.710937 3.824218-8.53125 8.535156-8.53125h34.132812v-59.734375c0-4.710938 3.820313-8.535156 8.535157-8.535156 4.710937 0 8.53125 3.824218 8.53125 8.535156v68.265625c0 4.714844-3.820313 8.535156-8.53125 8.535156zm0 0"/><path d="m187.734375 204.800781h-17.066406c-4.714844 0-8.535157-3.820312-8.535157-8.535156 0-4.710937 3.820313-8.53125 8.535157-8.53125h17.066406c4.710937 0 8.53125 3.820313 8.53125 8.53125 0 4.714844-3.820313 8.535156-8.53125 8.535156zm0 0"/><path d="m187.734375 238.933594h-59.734375c-4.710938 0-8.535156-3.820313-8.535156-8.535156 0-4.710938 3.824218-8.53125 8.535156-8.53125h59.734375c4.710937 0 8.53125 3.820312 8.53125 8.53125 0 4.714843-3.820313 8.535156-8.53125 8.535156zm0 0"/><path d="m384 204.800781h-42.667969c-4.710937 0-8.53125-3.820312-8.53125-8.535156v-68.265625c0-4.710938 3.820313-8.535156 8.53125-8.535156 4.714844 0 8.535157 3.824218 8.535157 8.535156v59.734375h34.132812c4.714844 0 8.535156 3.820313 8.535156 8.53125 0 4.714844-3.820312 8.535156-8.535156 8.535156zm0 0"/><path d="m341.332031 204.800781h-17.066406c-4.710937 0-8.53125-3.820312-8.53125-8.535156 0-4.710937 3.820313-8.53125 8.53125-8.53125h17.066406c4.714844 0 8.535157 3.820313 8.535157 8.53125 0 4.714844-3.820313 8.535156-8.535157 8.535156zm0 0"/><path d="m384 238.933594h-59.734375c-4.710937 0-8.53125-3.820313-8.53125-8.535156 0-4.710938 3.820313-8.53125 8.53125-8.53125h59.734375c4.714844 0 8.535156 3.820312 8.535156 8.53125 0 4.714843-3.820312 8.535156-8.535156 8.535156zm0 0"/><path d="m256 409.601562c-37.058594 0-78.726562-48.71875-83.355469-54.269531-3.019531-3.617187-2.53125-9 1.089844-12.019531s9-2.53125 12.019531 1.085938c11.175782 13.394531 45.578125 48.136718 70.246094 48.136718s59.070312-34.742187 70.246094-48.136718c3.019531-3.617188 8.402344-4.105469 12.019531-1.085938 3.621094 3.019531 4.109375 8.402344 1.089844 12.019531-4.628907 5.550781-46.296875 54.269531-83.355469 54.269531zm0 0"/><path d="m256 443.734375c-44.691406 0-97.613281-51.449219-99.847656-53.640625-10.816406-10.738281-20-23.003906-27.253906-36.410156-2.03125-4.199219-.308594-9.253906 3.863281-11.34375s9.25-.441406 11.398437 3.703125c6.441406 11.726562 14.527344 22.476562 24.007813 31.925781.441406.433594 50.121093 48.699219 87.832031 48.699219 37.792969 0 87.390625-48.265625 87.886719-48.761719 9.476562-9.410156 17.542969-20.140625 23.945312-31.855469 1.367188-2.726562 4.082031-4.519531 7.125-4.703125s5.953125 1.273438 7.632813 3.816406c1.679687 2.546876 1.875 5.792969.511718 8.519532-7.238281 13.386718-16.402343 25.632812-27.203124 36.351562-2.285157 2.25-55.207032 53.699219-99.898438 53.699219zm0 0"/><path d="m93.867188 443.734375c-3.453126 0-6.5625-2.082031-7.882813-5.269531s-.589844-6.855469 1.847656-9.296875c27.296875-27.300781 87.605469-36.183594 90.160157-36.550781 4.664062-.667969 8.988281 2.574218 9.65625 7.238281.667968 4.667969-2.574219 8.992187-7.238282 9.65625-.570312.078125-57.242187 8.449219-80.511718 31.71875-1.597657 1.605469-3.769532 2.503906-6.03125 2.503906zm0 0"/><path d="m418.132812 443.734375c-2.261718 0-4.433593-.898437-6.03125-2.5-23.320312-23.316406-79.9375-31.644531-80.511718-31.71875-4.664063-.667969-7.90625-4.988281-7.238282-9.65625.667969-4.664063 4.992188-7.90625 9.65625-7.238281 2.554688.367187 62.863282 9.25 90.160157 36.550781 2.4375 2.4375 3.164062 6.109375 1.84375 9.292969-1.320313 3.1875-4.429688 5.265625-7.878907 5.269531zm0 0"/></svg>