<svg height="512pt" viewBox="0 0 512 512.20796" width="512pt" xmlns="http://www.w3.org/2000/svg"><path d="m409.703125 503.464844h93.867187v-7.59375c.015626-10.925782-1.300781-21.816406-3.925781-32.425782l-7.933593-32.171874c-9.207032-33.554688-40.050782-56.558594-74.839844-55.808594h-321.535156c-34.789063-.75-65.632813 22.253906-74.835938 55.808594l-7.9375 32.171874c-2.621094 10.609376-3.941406 21.5-3.925781 32.425782v7.59375zm0 0" fill="#ffdc00"/><path d="m315.835938 8.535156c-76.796876 0-68.265626 25.597656-85.332032 25.597656 0 0-27.136718-12.457031-76.800781 0-34.132813 8.535157-68.265625 34.132813-59.730469 93.867188 0 0-26.539062 33.109375-15.277344 87.722656 2.25 8.152344 5.074219 16.136719 8.449219 23.894532-10.921875 26.28125-27.308593 59.050781-27.308593 59.050781 15.160156-1.46875 29.578124-7.242188 41.558593-16.640625-.449219 5.996094-.390625 12.019531.171875 18.003906 1.167969 17.980469 7.414063 35.261719 18.003906 49.835938l.171876.9375c2.25-.621094 4.574218-.9375 6.910156-.9375h258.902344s49.75-51.199219 49.75-153.601563c0-102.398437-42.667969-187.730469-119.46875-187.730469zm64.855468 258.730469c-8.347656 23.949219-30.957031 39.984375-56.320312 39.933594h-136.535156c-23.863282.035156-45.453126-14.164063-54.867188-36.09375v-.085938c-2.867188-6.585937-4.488281-13.644531-4.78125-20.820312-.070312-.710938-.097656-1.421875-.082031-2.136719v-.082031c16.210937-31.746094 20.90625-70.828125 25.597656-94.378907 8.535156-42.667968 34.132813-59.734374 51.199219-59.734374 17.070312 0 59.734375 25.597656 102.402344 34.132812 41.042968 8.191406 74.238281 71.765625 76.628906 122.199219-.238282 5.816406-1.332032 11.566406-3.242188 17.066406zm0 0" fill="#ffeb3a"/><path d="m341.4375 349.867188h44.117188c9.285156-.816407 17.921874 4.824218 20.90625 13.652343l28.84375 139.945313h-358.402344l28.929687-139.945313c1.824219-6.546875 7.222657-11.480469 13.910157-12.714843 2.25-.621094 4.574218-.9375 6.910156-.9375zm0 0" fill="#bb193b"/><path d="m325.183594 349.867188h35.714844c8.21875-.195313 15.375 5.578124 16.921874 13.652343l23.351563 139.945313h-290.132813l23.417969-139.945313c1.035157-6.03125 5.398438-10.957031 11.257813-12.714843 1.800781-.617188 3.695312-.933594 5.601562-.9375zm0 0" fill="#ef314c"/><path d="m187.835938 298.667969h136.535156v59.730469h-136.535156zm0 0" fill="#fec108"/><path d="m341.4375 349.867188v8.53125c.082031 10.699218-6.28125 20.398437-16.128906 24.578124l-59.734375 24.746094c-6.070313 2.476563-12.871094 2.476563-18.941407 0l-59.734374-24.746094c-9.847657-4.179687-16.210938-13.878906-16.128907-24.578124v-8.53125zm0 0" fill="#ffdc00"/><path d="m383.933594 250.199219c-1.3125 31.917969-27.617188 57.089843-59.5625 57h-136.535156c-32.769532.035156-59.4375-26.367188-59.730469-59.136719v-.082031c16.210937-31.746094 20.90625-70.828125 25.597656-94.378907 8.535156-42.667968 34.132813-59.734374 51.199219-59.734374 17.070312 0 59.734375 25.597656 102.402344 34.132812 41.042968 8.191406 74.238281 71.765625 76.628906 122.199219zm0 0" fill="#fec108"/><path d="m358.503906 250.199219c-.183594 5.769531-1.054687 11.5-2.597656 17.066406-6.496094 23.292969-24.203125 39.933594-45.125 39.933594h-109.390625c-26.320313 0-47.585937-26.367188-47.855469-59.136719v-.082031c12.988282-31.746094 16.75-70.828125 20.507813-94.378907 6.839843-42.667968 27.347656-59.734374 41.023437-59.734374 13.671875 0 47.859375 25.597656 82.042969 34.132812 32.886719 8.191406 59.480469 71.765625 61.394531 122.199219zm0 0" fill="#ffdc00"/><path d="m296.445312 256c-6.894531 13.492188-28.414062 15.402344-40.171874 15.402344-11.78125 0-33.273438-1.910156-40.167969-15.402344 13.148437 3.238281 26.628906 4.929688 40.167969 5.035156 13.542968-.105468 27.023437-1.796875 40.171874-5.035156zm0 0"/><path d="m233.753906 162.890625c-8.109375-2.980469-16.628906-4.707031-25.257812-5.117187-11.605469-.878907-23.214844 1.597656-33.453125 7.132812 1.167969-14.933594 35.789062-17.886719 52.714843-14.046875 2.683594.335937 5.019532 1.988281 6.226563 4.410156 1.203125 2.417969 1.117187 5.28125-.230469 7.621094zm0 0"/><path d="m278.453125 162.890625c8.113281-2.980469 16.628906-4.707031 25.261719-5.117187 11.601562-.878907 23.210937 1.597656 33.449218 7.132812-1.167968-14.933594-35.789062-17.886719-52.714843-14.046875-2.679688.335937-5.019531 1.988281-6.222657 4.410156-1.207031 2.417969-1.121093 5.28125.226563 7.621094zm0 0"/><path d="m186.636719 176.964844s2.429687 10.902344 11.832031 8.777344 11.191406 1.957031 19.292969 1.304687c2.769531-.1875 5.554687-.019531 8.28125.507813 1.9375.449218 3.945312.480468 5.894531.09375 2.699219-.722657 2.46875-3.855469 1.523438-5.894532-3.75-8.082031-14.292969-8.671875-22.011719-7.773437-3.269531.886719-6.597657 1.558593-9.957031 2.007812-3.519532-.976562-6.804688-2.664062-9.644532-4.957031.617188 2.191406.765625 4.488281.433594 6.742188-.976562 1.851562-5.644531-.808594-5.644531-.808594zm0 0"/><path d="m230.503906 193.546875c0-10.101563-7.640625-18.292969-17.066406-18.292969s-17.066406 8.191406-17.066406 18.292969 7.640625 18.292969 17.066406 18.292969 17.066406-8.191406 17.066406-18.292969zm0 0"/><path d="m218.222656 177.671875c-4.40625-1.671875-9.335937.539063-11.011718 4.945313-1.671876 4.402343.539062 9.332031 4.945312 11.007812 4.402344 1.675781 9.332031-.535156 11.007812-4.941406 1.675782-4.40625-.535156-9.335938-4.941406-11.011719zm0 0" fill="#fff"/><path d="m325.566406 176.964844s-2.429687 10.902344-11.832031 8.777344-11.191406 1.957031-19.292969 1.304687c-2.769531-.1875-5.554687-.019531-8.28125.507813-1.9375.449218-3.945312.480468-5.898437.09375-2.699219-.722657-2.464844-3.855469-1.519531-5.894532 3.75-8.082031 14.292968-8.671875 22.011718-7.773437 3.269532.886719 6.597656 1.558593 9.957032 2.007812 3.519531-.976562 6.804687-2.664062 9.644531-4.957031-.617188 2.191406-.765625 4.488281-.433594 6.742188.976563 1.851562 5.644531-.808594 5.644531-.808594zm0 0"/><path d="m315.835938 193.546875c0-10.101563-7.640626-18.292969-17.066407-18.292969s-17.066406 8.191406-17.066406 18.292969 7.640625 18.292969 17.066406 18.292969 17.066407-8.191406 17.066407-18.292969zm0 0"/><path d="m304.992188 182.617188c-1.675782-4.40625-6.605469-6.617188-11.007813-4.945313-4.40625 1.675781-6.617187 6.605469-4.945313 11.011719 1.675782 4.40625 6.605469 6.617187 11.011719 4.941406s6.617188-6.605469 4.941407-11.007812zm0 0" fill="#fff"/><path d="m435.304688 512h-358.402344c-2.5625 0-4.992188-1.152344-6.613282-3.144531-1.621093-1.988281-2.261718-4.601563-1.742187-7.113281l28.90625-139.929688c3.726563-12.839844 15.886719-21.359375 29.230469-20.480469h258.890625c13.363281-.886719 25.535156 7.664063 29.238281 20.535157l28.855469 139.875c.515625 2.511718-.121094 5.128906-1.746094 7.117187-1.621094 1.988281-4.050781 3.140625-6.617187 3.140625zm-347.925782-17.066406h337.449219l-26.742187-129.667969c-2.257813-4.742187-7.296876-7.507813-12.511719-6.867187h-258.890625c-5.199219-.632813-10.226563 2.113281-12.503906 6.828124zm0 0"/><path d="m324.371094 358.398438h-136.535156c-4.710938 0-8.53125-3.820313-8.53125-8.53125v-42.667969c0-4.710938 3.820312-8.53125 8.53125-8.53125h136.535156c4.710937 0 8.53125 3.820312 8.53125 8.53125v42.667969c0 4.710937-3.820313 8.53125-8.53125 8.53125zm-128-17.066407h119.464844v-25.597656h-119.464844zm0 0"/><path d="m102.503906 512h-93.867187c-4.710938 0-8.53125-3.820312-8.53125-8.535156v-7.59375c-.011719-11.625 1.390625-23.207032 4.175781-34.492188l7.933594-32.148437c10.023437-37.453125 44.363281-63.191407 83.121094-62.296875h8.019531c4.714843 0 8.535156 3.820312 8.535156 8.53125 0 4.714844-3.820313 8.535156-8.535156 8.535156h-8.019531c-30.898438-.875-58.386719 19.496094-66.550782 49.308594l-7.941406 32.171875c-2.378906 9.636719-3.609375 19.523437-3.667969 29.453125h85.328125c4.714844 0 8.535156 3.820312 8.535156 8.53125 0 4.714844-3.820312 8.535156-8.535156 8.535156zm0 0"/><path d="m503.570312 512h-93.867187c-4.710937 0-8.53125-3.820312-8.53125-8.535156 0-4.710938 3.820313-8.53125 8.53125-8.53125h85.335937c-.066406-9.925782-1.300781-19.804688-3.675781-29.441406l-7.9375-32.167969c-8.160156-29.820313-35.652343-50.191407-66.554687-49.324219h-7.933594c-4.714844 0-8.535156-3.820312-8.535156-8.535156 0-4.710938 3.820312-8.53125 8.535156-8.53125h7.933594c38.765625-.890625 73.105468 24.851562 83.125 62.308594l7.9375 32.15625c2.78125 11.28125 4.179687 22.855468 4.171875 34.472656v7.59375c0 4.714844-3.820313 8.535156-8.535157 8.535156zm0 0"/><path d="m385.574219 358.398438c-3.429688.003906-6.523438-2.046876-7.859375-5.207032-1.335938-3.15625-.652344-6.808594 1.738281-9.265625.460937-.484375 47.316406-50.34375 47.316406-147.660156 0-123.789063-55.714843-179.199219-110.933593-179.199219-48.851563 0-59.996094 10.308594-67.371094 17.132813-4.535156 5.210937-11.050782 8.285156-17.960938 8.46875-1.226562-.003907-2.4375-.265625-3.550781-.777344-.203125-.089844-25.539063-10.882813-71.179687.511719-28.8125 7.210937-61.453126 27.691406-53.355469 84.386718.332031 2.332032-.3125 4.699219-1.785157 6.539063-1.238281 1.578125-30.648437 40.085937-7.203124 102.601563 1.65625 4.414062-.578126 9.332031-4.992188 10.992187-4.414062 1.65625-9.335938-.578125-10.992188-4.992187-23.339843-62.25-.074218-104.601563 7.628907-116.152344-8.738281-72.898438 43.433593-94.148438 66.558593-99.925782 44.46875-11.117187 72.285157-3.242187 80.15625-.382812 1.167969-.300781 2.28125-1.207031 5.09375-3.808594 11.847657-10.953125 27.703126-21.660156 78.953126-21.660156 76.5625 0 128 78.875 128 196.265625 0 104.660156-50.011719 157.355469-52.136719 159.542969-1.605469 1.660156-3.816407 2.59375-6.125 2.589844zm0 0"/><path d="m324.371094 315.734375h-136.535156c-37.378907-.128906-67.757813-30.199219-68.265626-67.574219-.011718-1.410156.308594-2.804687.933594-4.070312 11.097656-24.84375 18.585938-51.148438 22.238282-78.117188.90625-5.089844 1.75-9.8125 2.589843-14.039062 9.15625-45.757813 37.300781-66.601563 59.570313-66.601563 14.4375 2.105469 28.433594 6.535157 41.457031 13.109375 20.160156 9.015625 41.128906 16.109375 62.621094 21.195313 45.992187 9.175781 80.910156 75.96875 83.476562 130.167969.015625.253906.015625.511718 0 .765624-1.507812 36.484376-31.570312 65.257813-68.085937 65.164063zm-187.679688-65.851563c1.386719 27.265626 23.847656 48.6875 51.144532 48.785157h136.535156c27.226562.089843 49.703125-21.257813 51.019531-48.449219-2.371094-46.777344-33.261719-106.570312-69.757813-113.851562-22.582031-5.277344-44.613281-12.695313-65.792968-22.148438-11.085938-5.433594-22.828125-9.40625-34.9375-11.820312-12.96875 0-35.070313 14.082031-42.835938 52.875-.820312 4.117187-1.640625 8.734374-2.527344 13.703124-3.859374 27.890626-11.546874 55.117188-22.847656 80.90625zm0 0"/><path d="m384.105469 264.535156c-4.714844 0-8.535157-3.824218-8.535157-8.535156 0-1.75-.078124-3.589844-.160156-5.417969-.214844-4.707031 3.429688-8.695312 8.140625-8.90625 4.707031-.214843 8.695313 3.429688 8.90625 8.140625.09375 2.089844.179688 4.179688.179688 6.183594 0 2.261719-.898438 4.433594-2.5 6.035156-1.597657 1.597656-3.769531 2.5-6.03125 2.5zm0 0"/><path d="m59.835938 307.199219c-2.957032 0-5.703126-1.53125-7.257813-4.046875s-1.695313-5.65625-.375-8.300782c.164063-.328124 16.378906-32.808593 27.0625-58.511718 2.777344-6.589844 5.054687-12.515625 6.609375-17.171875 1.492188-4.472657 6.324219-6.886719 10.796875-5.398438 4.46875 1.492188 6.886719 6.324219 5.394531 10.796875-1.714844 5.132813-4.085937 11.316406-7.054687 18.359375-6.136719 14.761719-14.046875 31.683594-19.8125 43.707031 7.570312-2.527343 14.644531-6.347656 20.90625-11.300781 10.308593-8.460937 18.636719-19.085937 24.390625-31.125 1.378906-2.71875 4.101562-4.496093 7.148437-4.660156 3.042969-.167969 5.945313 1.304687 7.613281 3.855469 1.664063 2.554687 1.839844 5.804687.464844 8.523437-6.871094 14.253907-16.792968 26.820313-29.058594 36.816407-13.238281 10.371093-29.152343 16.757812-45.886718 18.40625-.3125.035156-.625.050781-.941406.050781zm0 0"/><path d="m119.578125 358.398438c-2.6875.007812-5.222656-1.257813-6.832031-3.410157-15.128906-21.394531-22.167969-47.46875-19.863282-73.566406.335938-4.703125 4.421876-8.242187 9.121094-7.90625 4.703125.335937 8.242188 4.417969 7.90625 9.121094-2.007812 22 3.832032 44.003906 16.488282 62.109375 1.9375 2.585937 2.25 6.042968.804687 8.933594-1.441406 2.890624-4.394531 4.71875-7.625 4.71875zm0 0"/><path d="m256.105469 418.152344c-4.386719-.003906-8.726563-.875-12.773438-2.5625l-59.730469-24.707032c-13.050781-5.484374-21.492187-18.3125-21.363281-32.464843v-8.550781c0-4.714844 3.820313-8.535157 8.53125-8.535157 4.714844 0 8.535157 3.820313 8.535157 8.535157v8.550781c-.113282 7.246093 4.164062 13.84375 10.824218 16.699219l59.734375 24.707031c3.996094 1.667969 8.492188 1.667969 12.492188 0l59.730469-24.707031c6.660156-2.859376 10.933593-9.453126 10.816406-16.699219v-8.550781c0-4.714844 3.820312-8.535157 8.535156-8.535157 4.710938 0 8.535156 3.820313 8.535156 8.535157v8.550781c.128906 14.152343-8.3125 26.980469-21.359375 32.464843l-59.738281 24.707032c-4.046875 1.6875-8.386719 2.558594-12.769531 2.5625zm0 0"/><path d="m298.773438 512c-3.414063.003906-6.503907-2.03125-7.84375-5.175781l-23.382813-54.558594h-22.882813l-23.382812 54.558594c-1.144531 2.882812-3.765625 4.917969-6.84375 5.3125-3.078125.398437-6.125-.910157-7.964844-3.410157-1.835937-2.5-2.171875-5.800781-.875-8.617187l25.601563-59.734375c1.339843-3.140625 4.425781-5.175781 7.839843-5.175781h34.132813c3.414063 0 6.5 2.035156 7.839844 5.175781l25.601562 59.734375c1.851563 4.328125-.152343 9.339844-4.480469 11.199219-1.058593.457031-2.203124.695312-3.359374.691406zm0 0"/><path d="m153.703125 512c-23.550781-.027344-42.636719-19.113281-42.664063-42.667969 0-4.710937 3.820313-8.53125 8.53125-8.53125 4.714844 0 8.535157 3.820313 8.535157 8.53125.015625 14.132813 11.464843 25.585938 25.597656 25.601563 4.714844 0 8.535156 3.820312 8.535156 8.53125 0 4.714844-3.820312 8.535156-8.535156 8.535156zm0 0"/><path d="m358.503906 512c-4.710937 0-8.53125-3.820312-8.53125-8.535156 0-4.710938 3.820313-8.53125 8.53125-8.53125 14.132813-.015625 25.585938-11.46875 25.601563-25.601563 0-4.710937 3.820312-8.53125 8.53125-8.53125 4.714843 0 8.535156 3.820313 8.535156 8.53125-.027344 23.554688-19.113281 42.640625-42.667969 42.667969zm0 0"/></svg>