<svg height="512pt" viewBox="0 0 512.00007 512" width="512pt" xmlns="http://www.w3.org/2000/svg"><path d="m409.601562 503.464844h93.867188l-.003906-7.59375c.015625-10.925782-1.300782-21.816406-3.921875-32.425782l-7.9375-32.171874c-9.203125-33.554688-40.046875-56.558594-74.835938-55.808594h-321.539062c-34.789063-.75-65.632813 22.253906-74.835938 55.808594l-7.9375 32.171874c-2.621093 10.609376-3.9375 21.5-3.921875 32.425782v7.59375zm0 0" fill="#6a1b9a"/><path d="m435.199219 503.464844h-358.398438l11.433594-55.378906 4.863281-23.296876 10.15625-49.324218 1.707032-8.105469 10.238281-25.597656h132.265625l17.070312-.085938h131.753906l10.835938 25.597657 1.707031 8.191406 10.15625 49.324218 4.777344 23.382813zm0 0" fill="#9d27b0"/><path d="m324.265625 333.867188v169.597656h-136.53125v-169.597656zm0 0" fill="#2c2f38"/><path d="m238.933594 368.894531h34.132812v134.570313h-34.132812zm0 0" fill="#2c2f38"/><path d="m102.398438 290.132812c-34.132813-68.265624-8.53125-68.265624-8.53125-162.132812 0-51.199219 25.597656-119.464844 162.132812-119.464844s162.132812 68.265625 162.132812 119.464844c0 93.867188 25.601563 102.398438-8.53125 162.132812l-10.3125 42.3125-274.84375 3.910157zm0 0" fill="#6d4122"/><path d="m352.9375 299.945312h.085938c19.101562-10.554687 30.964843-30.652343 30.976562-52.480468v-59.730469c0-19.96875-18.585938-24.023437-34.179688-26.902344-7.019531-.761719-13.597656-3.808593-18.722656-8.664062-4.496094-6.371094-7.222656-13.820313-7.890625-21.589844-7.570312-37.988281-54.648437-44-83.503906-29.394531-36.835937 18.648437-57.335937 67.882812-98.667969 76.664062-7.691406 1.765625-13.117187 8.648438-13.035156 16.542969v53.074219c-.011719 21.855468 11.894531 41.976562 31.0625 52.480468l63.871094 29.867188h78.578125zm0 0" fill="#fec108"/><path d="m333.550781 298.867188h.070313c16.359375-13.214844 25.542968-33.363282 24.777344-54.378907v-61.894531c0-20.691406-14.867188-24.886719-27.34375-27.871094-5.949219-.992187-11.300782-4.199218-14.980469-8.980468-3.6875-6.914063-5.84375-14.542969-6.3125-22.367188-6.058594-39.363281-43.71875-45.59375-66.804688-30.457031-29.46875 19.320312-45.867187 70.335937-78.933593 79.4375-6.8125 2.859375-11.019532 9.773437-10.421876 17.140625v54.992187c-.792968 21.039063 8.425782 41.207031 24.847657 54.378907l51.097656 30.945312h62.863281zm0 0" fill="#ffdc00"/><path d="m426.667969 307.199219c-2.753907 4.542969-5.230469 9.246093-7.425781 14.082031l-.085938.085938c-5.476562 11.632812-8.71875 24.199218-9.554688 37.03125 0 9.425781-7.640624 17.066406-17.066406 17.066406-9.425781 0-17.070312-7.640625-17.070312-17.066406-.027344-.683594.03125-1.375.171875-2.046876h-.253907c-1.191406 11.289063-11.007812 19.671876-22.34375 19.082032-11.335937-.589844-20.226562-9.949219-20.238281-21.300782v-4.265624c0 14.136718-11.460937 25.597656-25.601562 25.597656-14.136719 0-25.597657-11.460938-25.597657-25.597656 0 14.136718-11.464843 25.597656-25.601562 25.597656s-25.601562-11.460938-25.601562-25.597656c0 14.136718-11.460938 25.597656-25.597657 25.597656-14.140625 0-25.601562-11.460938-25.601562-25.597656v4.265624c-.011719 11.351563-8.902344 20.710938-20.238281 21.300782-11.335938.589844-21.152344-7.792969-22.34375-19.082032h-.253907c.097657.679688.15625 1.363282.171875 2.046876 0 9.425781-7.644531 17.066406-17.070312 17.066406-9.421875 0-17.066406-7.640625-17.066406-17.066406-.492188-12.839844-3.691407-25.429688-9.386719-36.949219-2.210938-4.929688-4.777344-9.691407-7.679688-14.25 0-9.425781 7.640625-17.066407 17.066407-17.066407 9.425781 0 17.066406 7.640626 17.066406 17.066407 0-9.425781 7.644531-17.066407 17.070312-17.066407 9.425782 0 17.066406 7.640626 17.066406 17.066407.015626 1.089843-.097656 2.179687-.34375 3.242187l.855469.085938c2.675781-12.851563 14.632813-21.597656 27.691407-20.257813 13.058593 1.339844 22.988281 12.335938 22.996093 25.464844 0-14.140625 11.460938-25.601563 25.597657-25.601563 14.140624 0 25.601562 11.460938 25.601562 25.601563 0-14.140625 11.460938-25.601563 25.601562-25.601563 14.136719 0 25.597657 11.460938 25.597657 25.601563.007812-13.128906 9.9375-24.125 22.996093-25.464844 13.058594-1.339843 25.015626 7.40625 27.691407 20.257813l.855469-.085938c-.246094-1.0625-.359376-2.152344-.34375-3.242187 0-9.425781 7.644531-17.066407 17.066406-17.066407 9.425781 0 17.070312 7.640626 17.070312 17.066407 0-9.425781 7.640625-17.066407 17.066406-17.066407 9.425782 0 17.066407 7.640626 17.066407 17.066407zm0 0" fill="#f5f5f5"/><path d="m233.648438 162.890625c-8.109376-2.980469-16.625-4.707031-25.257813-5.117187-11.601563-.878907-23.214844 1.597656-33.449219 7.132812 1.167969-14.933594 35.789063-17.886719 52.710938-14.046875 2.683594.335937 5.019531 1.988281 6.226562 4.410156 1.207032 2.417969 1.121094 5.28125-.230468 7.621094zm0 0"/><path d="m230.398438 189.28125c0-10.105469-7.640626-18.292969-17.066407-18.292969s-17.066406 8.1875-17.066406 18.292969c0 10.101562 7.640625 18.289062 17.066406 18.289062s17.066407-8.1875 17.066407-18.289062zm0 0"/><path d="m218.117188 173.40625c-4.40625-1.675781-9.332032.539062-11.007813 4.945312-1.675781 4.402344.535156 9.332032 4.941406 11.007813s9.335938-.539063 11.007813-4.941406c1.675781-4.40625-.535156-9.335938-4.941406-11.011719zm0 0" fill="#fff"/><path d="m278.351562 162.890625c8.109376-2.980469 16.625-4.707031 25.257813-5.117187 11.601563-.878907 23.214844 1.597656 33.449219 7.132812-1.167969-14.933594-35.789063-17.886719-52.710938-14.046875-2.683594.335937-5.019531 1.988281-6.226562 4.410156-1.207032 2.417969-1.121094 5.28125.230468 7.621094zm0 0"/><path d="m315.734375 189.28125c0-10.105469-7.640625-18.292969-17.066406-18.292969s-17.066407 8.1875-17.066407 18.292969c0 10.101562 7.640626 18.289062 17.066407 18.289062s17.066406-8.1875 17.066406-18.289062zm0 0"/><path d="m304.890625 178.347656c-1.675781-4.402344-6.605469-6.617187-11.007813-4.941406-4.40625 1.675781-6.617187 6.605469-4.941406 11.011719 1.671875 4.402343 6.601563 6.617187 11.007813 4.941406s6.617187-6.605469 4.941406-11.011719zm0 0" fill="#fff"/><path d="m435.199219 512h-358.398438c-2.566406 0-4.996093-1.152344-6.617187-3.144531-1.621094-1.988281-2.261719-4.601563-1.742188-7.113281l28.167969-136.140626c.605469-3.007812 2.777344-5.457031 5.6875-6.421874 2.914063-.960938 6.117187-.285157 8.394531 1.769531 2.277344 2.054687 3.277344 5.171875 2.617188 8.167969l-1.707032 8.105468-24.328124 117.710938h337.460937l-25.960937-125.917969c-.816407-4.546875 2.136718-8.917969 6.65625-9.859375 4.523437-.945312 8.976562 1.882812 10.046874 6.375l28.082032 136.210938c.519531 2.511718-.121094 5.125-1.742188 7.113281-1.621094 1.992187-4.050781 3.144531-6.617187 3.144531zm0 0"/><path d="m102.398438 512h-93.863282c-4.714844 0-8.535156-3.820312-8.535156-8.535156v-7.59375c-.0078125-11.621094 1.394531-23.199219 4.175781-34.484375l7.9375-32.15625c10.023438-37.449219 44.359375-63.183594 83.117188-62.296875h8.023437c4.710938 0 8.53125 3.820312 8.53125 8.53125 0 4.714844-3.820312 8.535156-8.53125 8.535156h-8.023437c-30.898438-.871094-58.390625 19.496094-66.558594 49.308594l-7.9375 32.171875c-2.371094 9.636719-3.605469 19.523437-3.667969 29.453125h85.332032c4.714843 0 8.535156 3.820312 8.535156 8.53125 0 4.714844-3.820313 8.535156-8.535156 8.535156zm0 0"/><path d="m503.464844 512h-93.863282c-4.714843 0-8.535156-3.820312-8.535156-8.535156 0-4.710938 3.820313-8.53125 8.535156-8.53125h85.332032c-.066406-9.921875-1.300782-19.804688-3.675782-29.441406l-7.9375-32.167969c-8.160156-29.820313-35.648437-50.191407-66.550781-49.324219h-7.9375c-4.710937 0-8.535156-3.820312-8.535156-8.535156 0-4.710938 3.824219-8.53125 8.535156-8.53125h7.9375c38.761719-.890625 73.105469 24.851562 83.125 62.308594l7.933594 32.15625c2.78125 11.28125 4.179687 22.855468 4.171875 34.472656v7.59375c0 4.714844-3.820312 8.535156-8.535156 8.535156zm0 0"/><path d="m290.132812 264.535156c-3.34375-.003906-6.378906-1.957031-7.765624-5-8.417969-3.125-17.425782-4.332031-26.367188-3.535156h-34.132812c-4.714844 0-8.535157-3.820312-8.535157-8.535156 0-4.710938 3.820313-8.53125 8.535157-8.53125h34.132812c35.265625 0 42.667969 9.28125 42.667969 17.066406 0 4.710938-3.820313 8.535156-8.535157 8.535156zm0 0"/><path d="m159.050781 308.480469c-1.433593 0-2.839843-.363281-4.097656-1.050781-21.886719-12.011719-35.488281-34.996094-35.488281-59.964844v-53.074219c-.054688-11.914063 8.175781-22.261719 19.792968-24.894531 20.777344-4.40625 36.160157-20.914063 52.449219-38.398438 12.410157-14.996094 27.355469-27.699218 44.15625-37.53125 21.058594-10.410156 45.65625-10.933594 67.140625-1.425781 14.933594 6.890625 25.589844 20.605469 28.574219 36.78125l.410156 2.074219c.5 5.53125 2.378907 10.847656 5.460938 15.464844 3.867187 3.453124 8.757812 5.554687 13.925781 5.984374 14.382812 2.65625 41.160156 7.605469 41.160156 35.289063v59.730469c-.035156 24.921875-13.574218 47.863281-35.367187 59.945312-2.746094 1.527344-6.105469 1.429688-8.757813-.253906-2.648437-1.6875-4.160156-4.691406-3.933594-7.828125.226563-3.132813 2.152344-5.886719 5.015626-7.179687 16.03125-9.167969 25.9375-26.210938 25.972656-44.683594v-59.730469c0-11.46875-8.773438-15.105469-27.199219-18.507813-8.867187-1.109374-17.125-5.09375-23.507813-11.351562-5.3125-6.832031-8.613281-15.015625-9.523437-23.625l-.394531-2c-1.964844-10.925781-9.183594-20.183594-19.296875-24.757812-16.6875-7.171876-35.671875-6.691407-51.976563 1.308593-14.980468 8.960938-28.300781 20.445313-39.375 33.941407-17.375 18.640624-35.351562 37.925781-61.382812 43.457031-3.75.921875-6.359375 4.328125-6.273438 8.191406v53.074219c-.011718 18.742187 10.199219 35.992187 26.632813 45 3.417969 1.875 5.132812 5.832031 4.164062 9.609375-.972656 3.777343-4.382812 6.417969-8.28125 6.410156zm0 0"/><path d="m102.410156 298.667969c-3.238281.003906-6.195312-1.824219-7.644531-4.71875-22.933594-45.875-20.089844-64.097657-15.382813-94.292969 4.035157-23.671875 6.023438-47.644531 5.949219-71.65625 0-47.800781 22.175781-128 170.667969-128s170.667969 80.199219 170.667969 128c-.003907 24.660156 1.976562 49.277344 5.921875 73.617188 4.78125 32.472656 7.660156 52.074218-15.582032 92.75-1.492187 2.679687-4.3125 4.355468-7.382812 4.378906-3.070312.023437-5.917969-1.601563-7.457031-4.261719-1.535157-2.65625-1.527344-5.933594.023437-8.585937 20.316406-35.558594 18.183594-50.046876 13.515625-81.796876-4.078125-25.164062-6.121093-50.613281-6.105469-76.101562 0-72.574219-53.117187-110.933594-153.601562-110.933594s-153.601562 38.359375-153.601562 110.933594c.085937 24.894531-1.976563 49.75-6.15625 74.292969-4.609376 29.539062-6.707032 43.023437 13.789062 84.023437 1.324219 2.644532 1.183594 5.785156-.371094 8.300782-1.550781 2.515624-4.296875 4.046874-7.25 4.050781zm0 0"/><path d="m392.535156 384c-6.894531.003906-13.492187-2.78125-18.300781-7.714844-5.960937 5.382813-13.835937 8.144532-21.855469 7.660156-8.019531-.480468-15.507812-4.167968-20.777344-10.230468-6.632812 6.796875-15.792968 10.519531-25.285156 10.273437-9.492187-.246093-18.449218-4.441406-24.714844-11.570312-6.472656 7.363281-15.800781 11.582031-25.601562 11.582031s-19.128906-4.21875-25.601562-11.582031c-6.265626 7.128906-15.222657 11.324219-24.714844 11.570312-9.492188.246094-18.652344-3.476562-25.285156-10.273437-5.269532 6.0625-12.757813 9.75-20.777344 10.230468-8.019532.484376-15.894532-2.277343-21.855469-7.660156-7.269531 7.449219-18.324219 9.75-27.964844 5.824219s-15.9375-13.300781-15.933593-23.710937c-.464844-11.601563-3.394532-22.972657-8.59375-33.355469-2.03125-4.539063-4.386719-8.921875-7.046876-13.117188-.929687-1.402343-1.421874-3.046875-1.425781-4.726562-.003906-10.097657 5.929688-19.253907 15.148438-23.371094 9.21875-4.121094 19.996093-2.433594 27.515625 4.304687 5.144531-4.613281 11.9375-6.949218 18.832031-6.472656 6.894531.476563 13.300781 3.722656 17.761719 8.996094 6.746094-6.234375 15.726562-9.484375 24.902344-9.011719 9.175781.476563 17.773437 4.636719 23.839843 11.539063 6.46875-7.363282 15.796875-11.582032 25.597657-11.582032 9.804687 0 19.132812 4.21875 25.601562 11.582032 6.46875-7.363282 15.796875-11.582032 25.601562-11.582032 9.800782 0 19.128907 4.21875 25.597657 11.582032 6.066406-6.902344 14.664062-11.0625 23.839843-11.539063 9.175782-.472656 18.15625 2.777344 24.902344 9.011719 4.460938-5.273438 10.867188-8.519531 17.761719-8.996094 6.894531-.476562 13.6875 1.859375 18.832031 6.472656 7.519532-6.738281 18.296875-8.425781 27.515625-4.304687 9.21875 4.117187 15.152344 13.273437 15.148438 23.371094 0 1.605469-.453125 3.179687-1.308594 4.542969-2.546875 4.234374-4.851563 8.609374-6.898437 13.109374-.101563.222657-.21875.441407-.335938.65625-4.851562 10.433594-7.742188 21.675782-8.523438 33.160157-.128906 14.039062-11.558593 25.347656-25.597656 25.332031zm-17.152344-36.179688c2.652344-.003906 5.167969 1.195313 6.832032 3.265626 1.652344 2.042968 2.28125 4.726562 1.707031 7.292968.054687 4.722656 3.886719 8.53125 8.613281 8.554688 4.710938-.003906 8.527344-3.820313 8.53125-8.535156.855469-14.03125 4.351563-27.777344 10.300782-40.515626.132812-.289062.273437-.566406.433593-.839843 2.433594-5.21875 4.683594-9.335938 6.105469-11.800781-.988281-4.222657-4.984375-7.03125-9.292969-6.527344-4.304687.5-7.550781 4.148437-7.546875 8.484375 0 4.714843-3.820312 8.535156-8.53125 8.535156-4.714844 0-8.535156-3.820313-8.535156-8.535156 0-4.710938-3.820312-8.53125-8.535156-8.53125-4.710938 0-8.53125 3.820312-8.53125 8.53125-.015625.390625.011718.777343.085937 1.160156.601563 2.40625.128907 4.960937-1.300781 6.988281-1.429688 2.03125-3.671875 3.339844-6.140625 3.585938l-.855469.085937c-4.34375.425781-8.308594-2.492187-9.191406-6.769531-1.796875-8.558594-9.769531-14.375-18.46875-13.480469s-15.316406 8.21875-15.328125 16.964844c0 4.710937-3.820313 8.53125-8.535156 8.53125-4.710938 0-8.53125-3.820313-8.53125-8.53125 0-9.425781-7.640625-17.066406-17.066407-17.066406-9.425781 0-17.066406 7.640625-17.066406 17.066406 0 4.710937-3.824218 8.53125-8.535156 8.53125s-8.535156-3.820313-8.535156-8.53125c0-9.425781-7.640625-17.066406-17.066406-17.066406-9.425782 0-17.066407 7.640625-17.066407 17.066406 0 4.710937-3.820312 8.53125-8.53125 8.53125-4.714843 0-8.535156-3.820313-8.535156-8.53125-.007813-8.75-6.625-16.078125-15.328125-16.972656-8.703125-.898438-16.675781 4.925781-18.46875 13.488281-.890625 4.269531-4.851562 7.1875-9.195312 6.765625l-.851563-.082031c-2.472656-.246094-4.714844-1.554688-6.140625-3.585938-1.429688-2.03125-1.90625-4.582031-1.300781-6.992187.070312-.378907.101562-.769531.085937-1.15625 0-4.710938-3.820312-8.53125-8.53125-8.53125-4.714844 0-8.535156 3.820312-8.535156 8.53125 0 4.714843-3.820312 8.535156-8.535156 8.535156-4.710938 0-8.53125-3.820313-8.53125-8.535156-.003906-4.3125-3.222656-7.941407-7.503906-8.460938s-8.277344 2.234375-9.3125 6.417969c2.453124 4.128906 4.679687 8.390625 6.664062 12.761719 6.273438 12.601562 9.734375 26.414062 10.152344 40.480469 0 4.714843 3.820312 8.535156 8.53125 8.535156 4.714844 0 8.535156-3.820313 8.535156-8.535156-.011719-.339844-.046875-.679688-.101562-1.015626-.296876-2.425781.457031-4.863281 2.078124-6.691406 1.617188-1.832031 3.945313-2.878906 6.390626-2.875 4.425781-.015625 8.175781 3.265625 8.742187 7.660156.722656 6.769532 6.613281 11.792969 13.414063 11.433594 6.800781-.355468 12.132812-5.96875 12.144531-12.777344v-4.265624c0-4.714844 3.820312-8.535157 8.53125-8.535157 4.714843 0 8.535156 3.820313 8.535156 8.535157 0 9.425781 7.640625 17.066406 17.066406 17.066406s17.066407-7.640625 17.066407-17.066406c0-4.714844 3.820312-8.535157 8.53125-8.535157 4.714843 0 8.535156 3.820313 8.535156 8.535157 0 9.425781 7.640625 17.066406 17.066406 17.066406s17.066406-7.640625 17.066406-17.066406c0-4.714844 3.820313-8.535157 8.535156-8.535157 4.710938 0 8.53125 3.820313 8.53125 8.535157 0 9.425781 7.640626 17.066406 17.066407 17.066406s17.066406-7.640625 17.066406-17.066406c0-4.714844 3.820313-8.535157 8.535156-8.535157 4.710938 0 8.53125 3.820313 8.53125 8.535157v4.265624c.011719 6.808594 5.34375 12.421876 12.144531 12.777344 6.800782.359375 12.691407-4.664062 13.414063-11.433594.453125-4.351562 4.117187-7.65625 8.492187-7.65625zm0 0"/><path d="m324.265625 512h-136.53125c-4.714844 0-8.535156-3.820312-8.535156-8.535156v-134.566406c0-4.710938 3.820312-8.53125 8.535156-8.53125 4.710937 0 8.53125 3.820312 8.53125 8.53125v126.035156h119.46875v-126.035156c0-4.710938 3.820313-8.53125 8.53125-8.53125 4.714844 0 8.535156 3.820312 8.535156 8.53125v134.566406c0 4.714844-3.820312 8.535156-8.535156 8.535156zm0 0"/><path d="m273.066406 512h-34.132812c-4.714844 0-8.535156-3.820312-8.535156-8.535156v-134.566406c0-4.710938 3.820312-8.53125 8.535156-8.53125 4.710937 0 8.53125 3.820312 8.53125 8.53125v126.035156h17.070312v-126.035156c0-4.710938 3.820313-8.53125 8.53125-8.53125 4.714844 0 8.535156 3.820312 8.535156 8.53125v134.566406c0 4.714844-3.820312 8.535156-8.535156 8.535156zm0 0"/><path d="m187.734375 460.800781h-.125c-14.1875 1.03125-28.207031-3.578125-39.015625-12.824219-1.09375-1.125-2.058594-2.199218-3.035156-3.285156-1.402344-1.644531-2.910156-3.195312-4.515625-4.640625-5.75-4.253906-13.007813-5.933593-20.042969-4.632812-9.367188.851562-18.214844 4.675781-25.257812 10.90625-3.457032 3.203125-8.855469 3-12.058594-.457031-3.207032-3.457032-3-8.855469.457031-12.058594 9.746094-8.789063 22.082031-14.183594 35.15625-15.375 11.691406-1.878906 23.632813 1.273437 32.875 8.675781 2.164063 1.929687 4.203125 3.996094 6.097656 6.191406.816407.917969 1.636719 1.824219 2.484375 2.699219 7.769532 5.839844 17.425782 8.59375 27.105469 7.734375 4.710937.035156 8.503906 3.882813 8.46875 8.59375-.035156 4.714844-3.882813 8.507813-8.59375 8.472656zm0 0"/><path d="m324.265625 460.800781c-4.710937.035157-8.558594-3.757812-8.59375-8.472656-.035156-4.710937 3.757813-8.558594 8.46875-8.59375 9.726563.863281 19.425781-1.925781 27.203125-7.824219.757812-.785156 1.574219-1.691406 2.386719-2.609375 1.902343-2.199219 3.941406-4.269531 6.109375-6.199219 9.246094-7.386718 21.179687-10.53125 32.863281-8.667968 13.074219 1.191406 25.410156 6.585937 35.160156 15.375 3.453125 3.203125 3.660157 8.605468.453125 12.0625-3.203125 3.453125-8.605468 3.660156-12.058594.453125-7.046874-6.234375-15.898437-10.054688-25.269531-10.90625-7.027343-1.3125-14.28125.363281-20.023437 4.625-1.609375 1.445312-3.121094 3-4.523438 4.648437-.976562 1.085938-1.941406 2.160156-2.941406 3.191406-10.816406 9.304688-24.878906 13.945313-39.109375 12.917969zm0 0"/></svg>