<svg height="512pt" viewBox="0 0 512.00007 512" width="512pt" xmlns="http://www.w3.org/2000/svg"><path d="m409.601562 503.464844h93.867188l-.003906-7.59375c.015625-10.925782-1.300782-21.816406-3.921875-32.425782l-7.9375-32.171874c-9.203125-33.554688-40.046875-56.558594-74.835938-55.808594h-321.539062c-34.789063-.75-65.632813 22.253906-74.835938 55.808594l-7.9375 32.171874c-2.621093 10.609376-3.9375 21.5-3.921875 32.425782v7.59375zm0 0" fill="#3f51b5"/><path d="m187.734375 292.890625h136.53125v71.289063h-136.53125zm0 0" fill="#fec108"/><path d="m128 238.933594s-42.667969-17.066406-42.667969-93.867188c0-76.800781 53.492188-136.53125 145.066407-136.53125 47.457031 0 81.363281 7.988282 119.46875 34.132813 35.429687 24.304687 76.800781 42.664062 76.800781 102.398437 0 76.800782-41.625 93.867188-41.625 93.867188" fill="#6d4122"/><path d="m384 195.25v52.214844c0 32.992187-26.742188 59.734375-59.734375 59.734375h-136.53125c-32.992187 0-59.734375-26.742188-59.734375-59.734375v-59.730469c0-17.066406 17.066406-42.667969 85.332031-51.199219 68.269531-8.535156 85.335938-42.667968 85.335938-42.667968 10.335937 31.300781 33.578125 56.683593 63.851562 69.726562 12.902344 5.238281 21.378907 17.730469 21.480469 31.65625zm0 0" fill="#fec108"/><path d="m358.398438 195.25v52.214844c0 32.992187-21.394532 59.734375-47.785157 59.734375h-109.226562c-26.390625 0-47.785157-26.742188-47.785157-59.734375v-59.730469c0-17.066406 13.652344-42.667969 68.265626-51.199219 54.613281-8.535156 68.265624-42.667968 68.265624-42.667968s10.707032 48.683593 51.082032 69.726562c11.089844 6.613281 17.679687 18.753906 17.183594 31.65625zm0 0" fill="#ffdc00"/><path d="m168.105469 146.859375c-3.933594 5.203125-6.035157 11.566406-5.972657 18.089844v28.5c-.75 14.90625 10.699219 27.613281 25.601563 28.417969h32.765625c5.449219-.023438 10.722656-1.921876 14.933594-5.375 4.46875-3.632813 7.714844-8.546876 9.300781-14.082032 1.210937-5.246094 5.882813-8.960937 11.265625-8.960937s10.054688 3.714843 11.265625 8.960937c2.851563 11.152344 12.726563 19.078125 24.234375 19.457032h32.765625c14.902344-.804688 26.351563-13.511719 25.601563-28.417969v-28.5c.027343-2.714844-.347657-5.417969-1.109376-8.019531l-27.136718-20.394532h-108.289063zm0 0" fill="#00bcd4"/><path d="m256 452.265625v51.199219h-179.199219l28.925781-139.945313c2.945313-8.820312 11.558594-14.46875 20.824219-13.652343h1.449219c8.535156 59.734374 42.667969 51.199218 76.800781 51.199218 1.109375 0 2.132813.085938 3.15625.171875 1.023438.085938 2.046875.253907 3.074219.425781.9375.171876 1.960938.425782 2.898438.683594.984374.261719 1.953124.574219 2.902343.9375 1.769531.65625 3.480469 1.457032 5.121094 2.390625.796875.402344 1.566406.859375 2.304687 1.363281 1.023438.683594 2.046876 1.367188 2.898438 2.050782.835938.574218 1.632812 1.203125 2.390625 1.875 2.324219 1.929687 4.496094 4.042968 6.484375 6.316406 1.28125 1.449219 2.5625 3.070312 3.753906 4.605469 2.816406 3.722656 5.382813 7.628906 7.679688 11.691406.515625.855469.941406 1.707031 1.367187 2.476563 1.109375 2.132812 2.132813 4.179687 2.988281 5.972656.339844.765625.679688 1.535156.9375 2.21875.308594.542968.566407 1.113281.765626 1.707031.9375 2.058594 1.761718 4.167969 2.476562 6.3125zm0 0" fill="#0377bc"/><path d="m384 349.867188c-8.535156 59.734374-42.667969 51.199218-76.800781 51.199218-20.222657 0-34.386719 17.921875-42.664063 32.511719-3.386718 5.96875-6.242187 12.222656-8.535156 18.6875-2.292969-6.464844-5.148438-12.71875-8.535156-18.6875-8.277344-14.589844-22.441406-32.511719-42.664063-32.511719-34.132812 0-68.265625 8.535156-76.800781-51.199218h76.800781c15.332031 7.65625 29.660157 17.171874 42.664063 28.332031 4.554687 3.527343 7.605468 8.648437 8.535156 14.335937.929688-5.6875 3.980469-10.808594 8.535156-14.335937 13.003906-11.160157 27.332032-20.675781 42.664063-28.332031zm0 0" fill="#02a9f4"/><path d="m307.199219 349.867188s-51.199219 25.597656-51.199219 42.667968c0-17.070312-51.199219-42.667968-51.199219-42.667968zm0 0" fill="#ffdc00"/><path d="m435.199219 503.464844h-179.199219v-51.199219c1.207031-3.484375 2.605469-6.902344 4.179688-10.238281.855468-1.792969 1.878906-3.839844 2.988281-5.972656.425781-.769532.9375-1.621094 1.367187-2.476563 2.296875-4.0625 4.863282-7.96875 7.679688-11.691406 1.191406-1.535157 2.472656-3.15625 3.753906-4.605469 1.988281-2.277344 4.15625-4.386719 6.484375-6.316406.757813-.671875 1.558594-1.300782 2.390625-1.875.910156-.761719 1.878906-1.445313 2.898438-2.050782.738281-.503906 1.507812-.960937 2.304687-1.363281 1.648437-.917969 3.359375-1.714843 5.121094-2.390625.949219-.363281 1.917969-.675781 2.902343-.9375.9375-.257812 1.960938-.511718 2.898438-.683594 1.027344-.171874 2.050781-.339843 3.074219-.425781 1.023437-.085937 2.132812-.171875 3.15625-.171875 34.132812 0 68.265625 8.535156 76.800781-51.199218h1.449219c9.285156-.816407 17.921875 4.824218 20.90625 13.652343zm0 0" fill="#0377bc"/><path d="m196.265625 179.199219c-3.449219 0-6.558594-2.078125-7.882813-5.265625-1.320312-3.191406-.589843-6.859375 1.851563-9.300782l34.132813-34.132812c3.347656-3.234375 8.671874-3.1875 11.960937.105469 3.292969 3.289062 3.339844 8.613281.105469 11.960937l-34.132813 34.132813c-1.597656 1.605469-3.769531 2.503906-6.035156 2.5zm0 0" fill="#e6e7e8"/><path d="m247.464844 170.667969c-3.449219-.003907-6.558594-2.082031-7.878906-5.269531-1.320313-3.1875-.59375-6.859376 1.847656-9.296876l25.601562-25.601562c3.347656-3.234375 8.667969-3.1875 11.960938.105469 3.292968 3.289062 3.335937 8.613281.105468 11.960937l-25.601562 25.601563c-1.597656 1.601562-3.769531 2.5-6.035156 2.5zm0 0" fill="#e6e7e8"/><path d="m296.339844 251.734375c-6.894532 13.492187-28.414063 15.398437-40.167969 15.398437-11.78125 0-33.277344-1.90625-40.171875-15.398437 13.148438 3.238281 26.628906 4.925781 40.171875 5.035156 13.539063-.105469 27.023437-1.796875 40.167969-5.035156zm0 0"/><path d="m233.648438 162.890625c-8.109376-2.980469-16.625-4.707031-25.257813-5.117187-11.601563-.878907-23.214844 1.597656-33.449219 7.132812 1.167969-14.933594 35.789063-17.886719 52.710938-14.046875 2.683594.335937 5.019531 1.988281 6.226562 4.410156 1.207032 2.417969 1.121094 5.28125-.230468 7.621094zm0 0"/><path d="m230.398438 189.28125c0-10.105469-7.640626-18.292969-17.066407-18.292969s-17.066406 8.1875-17.066406 18.292969c0 10.101562 7.640625 18.289062 17.066406 18.289062s17.066407-8.1875 17.066407-18.289062zm0 0"/><path d="m218.117188 173.40625c-4.40625-1.675781-9.332032.539062-11.007813 4.945312-1.675781 4.402344.535156 9.332032 4.941406 11.007813s9.335938-.539063 11.007813-4.941406c1.675781-4.40625-.535156-9.335938-4.941406-11.011719zm0 0" fill="#fff"/><path d="m278.351562 162.890625c8.109376-2.980469 16.625-4.707031 25.257813-5.117187 11.601563-.878907 23.214844 1.597656 33.449219 7.132812-1.167969-14.933594-35.789063-17.886719-52.710938-14.046875-2.683594.335937-5.019531 1.988281-6.226562 4.410156-1.207032 2.417969-1.121094 5.28125.230468 7.621094zm0 0"/><path d="m315.734375 189.28125c0-10.105469-7.640625-18.292969-17.066406-18.292969s-17.066407 8.1875-17.066407 18.292969c0 10.101562 7.640626 18.289062 17.066407 18.289062s17.066406-8.1875 17.066406-18.289062zm0 0"/><path d="m304.890625 178.347656c-1.675781-4.402344-6.605469-6.617187-11.007813-4.941406-4.40625 1.675781-6.617187 6.605469-4.941406 11.011719 1.671875 4.402343 6.601563 6.617187 11.007813 4.941406s6.617187-6.605469 4.941406-11.011719zm0 0" fill="#fff"/><path d="m435.199219 512h-358.398438c-2.566406 0-4.996093-1.152344-6.617187-3.144531-1.621094-1.988281-2.261719-4.601563-1.742188-7.113281l28.910156-139.929688c3.726563-12.839844 15.886719-21.359375 29.230469-20.480469h258.894531c13.359376-.882812 25.53125 7.667969 29.230469 20.535157l28.855469 139.875c.519531 2.511718-.121094 5.128906-1.742188 7.117187-1.621093 1.988281-4.054687 3.140625-6.621093 3.140625zm-347.925781-17.066406h337.453124l-26.742187-129.667969c-2.257813-4.742187-7.296875-7.507813-12.507813-6.867187h-258.894531c-5.199219-.632813-10.226562 2.109374-12.507812 6.828124zm0 0"/><path d="m324.265625 358.398438h-136.53125c-4.714844 0-8.535156-3.820313-8.535156-8.53125v-42.667969c0-4.710938 3.820312-8.53125 8.535156-8.53125h136.53125c4.714844 0 8.535156 3.820312 8.535156 8.53125v42.667969c0 4.710937-3.820312 8.53125-8.535156 8.53125zm-128-17.066407h119.46875v-25.597656h-119.46875zm0 0"/><path d="m324.265625 315.734375h-136.53125c-37.6875-.042969-68.222656-30.582031-68.269531-68.269531v-59.730469c0-11.277344 6.695312-48.898437 92.808594-59.667969 62.109374-7.765625 78.644531-37.800781 78.800781-38.097656 1.625-3.109375 4.980469-4.910156 8.464843-4.546875 3.488282.359375 6.402344 2.8125 7.351563 6.1875 9.746094 28.703125 31.128906 51.976563 58.910156 64.105469 16.09375 6.550781 26.648438 22.160156 26.734375 39.535156v52.214844c-.046875 37.6875-30.582031 68.226562-68.269531 68.269531zm-28.125-205.050781c-12.023437 11.957031-36.40625 28.648437-81.75 34.316406-57.40625 7.175781-77.855469 26.785156-77.855469 42.734375v59.730469c.027344 28.265625 22.933594 51.171875 51.199219 51.203125h136.53125c28.265625-.03125 51.171875-22.9375 51.199219-51.203125v-52.214844c-.097656-10.480469-6.507813-19.871094-16.230469-23.78125-27.8125-11.78125-50.285156-33.429688-63.09375-60.785156zm0 0"/><path d="m102.398438 512h-93.863282c-4.714844 0-8.535156-3.820312-8.535156-8.535156v-7.59375c-.0078125-11.621094 1.394531-23.199219 4.175781-34.484375l7.9375-32.15625c10.023438-37.449219 44.359375-63.183594 83.117188-62.296875h8.023437c4.710938 0 8.53125 3.820312 8.53125 8.53125 0 4.714844-3.820312 8.535156-8.53125 8.535156h-8.023437c-30.898438-.871094-58.390625 19.496094-66.558594 49.308594l-7.9375 32.171875c-2.371094 9.636719-3.605469 19.523437-3.667969 29.453125h85.332032c4.714843 0 8.535156 3.820312 8.535156 8.53125 0 4.714844-3.820313 8.535156-8.535156 8.535156zm0 0"/><path d="m503.464844 512h-93.863282c-4.714843 0-8.535156-3.820312-8.535156-8.535156 0-4.710938 3.820313-8.53125 8.535156-8.53125h85.332032c-.066406-9.921875-1.300782-19.804688-3.675782-29.441406l-7.9375-32.167969c-8.160156-29.820313-35.648437-50.191407-66.550781-49.324219h-7.9375c-4.710937 0-8.535156-3.820312-8.535156-8.535156 0-4.710938 3.824219-8.53125 8.535156-8.53125h7.9375c38.761719-.890625 73.105469 24.851562 83.125 62.308594l7.933594 32.15625c2.78125 11.28125 4.179687 22.855468 4.171875 34.472656v7.59375c0 4.714844-3.820312 8.535156-8.535156 8.535156zm0 0"/><path d="m128 247.464844c-1.085938.003906-2.160156-.203125-3.167969-.605469-1.964843-.785156-48.03125-20.152344-48.03125-101.792969 0-86.765625 61.722657-145.066406 153.597657-145.066406 52.070312 0 86.917968 9.992188 124.292968 35.632812 4.402344 3.007813 8.882813 5.933594 13.375 8.859376 31.464844 20.492187 67.132813 43.714843 67.132813 100.574218 0 81.582032-45.007813 100.976563-46.925781 101.757813-4.359376 1.785156-9.339844-.300781-11.125-4.660157-1.785157-4.359374.300781-9.339843 4.660156-11.125 1.398437-.613281 36.324218-16.605468 36.324218-85.972656 0-47.597656-28.84375-66.390625-59.382812-86.273437-4.597656-2.996094-9.199219-6-13.707031-9.089844-34.6875-23.796875-65.757813-32.636719-114.644531-32.636719-81.664063 0-136.53125 51.441406-136.53125 128 0 70.207032 36.933593 85.792969 37.300781 85.941406 3.800781 1.519532 5.988281 5.519532 5.214843 9.539063-.773437 4.015625-4.289062 6.921875-8.382812 6.917969zm0 0"/><path d="m321.621094 145.066406h-108.289063c-4.710937 0-8.53125-3.820312-8.53125-8.53125 0-4.714844 3.820313-8.535156 8.53125-8.535156h108.289063c4.714844 0 8.535156 3.820312 8.535156 8.535156 0 4.710938-3.820312 8.53125-8.535156 8.53125zm0 0"/><path d="m324.265625 230.398438h-32.765625c-15.316406-.320313-28.554688-10.769532-32.429688-25.589844-.304687-1.472656-1.609374-2.519532-3.113281-2.503906-1.503906.015624-2.785156 1.09375-3.0625 2.570312-2.0625 7.195312-6.300781 13.578125-12.128906 18.273438-5.722656 4.664062-12.878906 7.226562-20.265625 7.25h-32.765625c-19.605469-.828126-34.859375-17.339844-34.132813-36.949219v-28.5c-.054687-8.410157 2.675782-16.605469 7.757813-23.308594 1.835937-2.496094 4.878906-3.800781 7.949219-3.410156 3.074218.390625 5.691406 2.414062 6.84375 5.289062s.65625 6.148438-1.292969 8.554688c-2.773437 3.714843-4.246094 8.238281-4.191406 12.875v28.5c-.707031 10.179687 6.898437 19.039062 17.066406 19.882812h32.765625c3.484375-.019531 6.855469-1.242187 9.542969-3.457031 3.136719-2.535156 5.40625-5.984375 6.5-9.867188 2.277343-8.867187 10.261719-15.074218 19.421875-15.089843 9.15625-.015625 17.164062 6.164062 19.46875 15.023437 1.769531 7.546875 8.324218 13.007813 16.066406 13.390625h32.765625c10.167969-.84375 17.773437-9.703125 17.066406-19.882812v-28.5c.027344-1.886719-.226562-3.769531-.75-5.582031-.9375-2.941407-.214843-6.160157 1.890625-8.417969 2.105469-2.257813 5.265625-3.199219 8.265625-2.46875 2.996094.734375 5.367188 3.027343 6.195313 6 1 3.398437 1.492187 6.925781 1.464844 10.46875v28.5c.726562 19.609375-14.527344 36.121093-34.132813 36.949219zm0 0"/><path d="m256 401.066406c-4.710938 0-8.535156-3.820312-8.535156-8.53125 0-6.058594-22.589844-23.09375-46.480469-35.035156-2.726563-1.363281-4.519531-4.078125-4.703125-7.121094-.183594-3.042968 1.273438-5.953125 3.816406-7.632812 2.542969-1.679688 5.792969-1.875 8.519532-.511719 17.480468 8.160156 33.488281 19.15625 47.382812 32.539063 13.894531-13.382813 29.902344-24.378907 47.382812-32.539063 2.726563-1.363281 5.976563-1.167969 8.519532.511719 2.542968 1.679687 4 4.589844 3.816406 7.632812-.183594 3.042969-1.976562 5.757813-4.703125 7.121094-23.890625 11.957031-46.480469 28.984375-46.480469 35.035156 0 4.710938-3.824218 8.53125-8.535156 8.53125zm0 0"/><path d="m256 460.800781c-3.667969-.003906-6.921875-2.347656-8.089844-5.824219-4.242187-12.617187-20.25-45.375-43.109375-45.375-3.75 0-7.5.105469-11.210937.207032-30.730469.910156-65.390625 1.816406-74.039063-58.734375-.667969-4.664063 2.574219-8.988281 7.238281-9.65625 4.667969-.667969 8.988282 2.574219 9.65625 7.242187 6.492188 45.496094 26.453126 44.914063 56.664063 44.089844 3.875-.109375 7.78125-.214844 11.691406-.214844 39.824219 0 58.515625 54.707032 59.289063 57.03125.859375 2.601563.421875 5.457032-1.179688 7.679688-1.601562 2.222656-4.171875 3.542968-6.910156 3.554687zm0 0"/><path d="m256 512c-4.710938 0-8.535156-3.820312-8.535156-8.535156v-51.199219c.003906-.917969.152344-1.828125.445312-2.699219.773438-2.324218 19.464844-57.03125 59.289063-57.03125 3.910156 0 7.816406.105469 11.691406.214844 30.191406.839844 50.167969 1.402344 56.660156-44.089844.433594-3.019531 2.441407-5.578125 5.273438-6.714844 2.828125-1.132812 6.046875-.671874 8.445312 1.210938 2.398438 1.882812 3.609375 4.902344 3.179688 7.917969-8.660157 60.566406-43.417969 59.632812-74.042969 58.734375-3.707031-.101563-7.453125-.207032-11.207031-.207032-24.707031 0-39.949219 36.992188-42.664063 44.164063v49.699219c0 4.714844-3.824218 8.535156-8.535156 8.535156zm0 0"/><path d="m119.476562 136.515625c-3.449218 0-6.558593-2.074219-7.878906-5.257813-1.324218-3.183593-.597656-6.847656 1.835938-9.289062 1.125-1.128906 28.140625-27.636719 81.433594-36.519531 46.324218-7.722657 62.449218-30.28125 62.609374-30.515625 2.675782-3.851563 7.945313-4.839844 11.835938-2.226563 3.878906 2.613281 4.917969 7.867188 2.324219 11.761719-.785157 1.171875-19.742188 28.78125-73.964844 37.8125-26.578125 3.570312-51.605469 14.585938-72.183594 31.777344-1.601562 1.578125-3.765625 2.460937-6.011719 2.457031zm0 0"/></svg>