<svg height="512pt" viewBox="0 0 512 512.01238" width="512pt" xmlns="http://www.w3.org/2000/svg"><path d="m409.605469 503.464844h93.867187v-7.59375c.015625-10.925782-1.300781-21.816406-3.925781-32.425782l-7.933594-32.171874c-9.207031-33.554688-40.050781-56.558594-74.839843-55.808594h-321.535157c-34.789062-.75-65.632812 22.253906-74.835937 55.808594l-7.9375 32.171874c-2.621094 10.609376-3.941406 21.5-3.925782 32.425782v7.59375zm0 0" fill="#ffdc00"/><path d="m435.207031 503.464844h-34.132812c-6.4375-22.351563-18.140625-42.839844-34.132813-59.730469 0 17.066406-25.601562 34.132813-25.601562 34.132813 5.574218 7.367187 8.570312 16.363281 8.53125 25.597656h-179.199219c17.066406 0 17.066406-25.597656 25.601563-34.132813 8.53125-8.53125 51.199218 8.535157 76.800781 0 25.597656-8.53125 8.53125-17.066406 8.53125-17.066406 15.796875-.449219 30.917969-6.496094 42.667969-17.066406 17.066406-17.066407 0-42.664063 0-42.664063l-.855469-1.707031c7.125-3.605469 13.273437-8.875 17.921875-15.363281 42.667968 8.535156 44.117187-25.597656 44.117187-25.597656 9.285157-.816407 17.921875 4.824218 20.90625 13.652343zm0 0" fill="#783e22"/><path d="m323.417969 390.828125.855469 1.707031s17.066406 25.597656 0 42.664063c-11.75 10.570312-26.871094 16.617187-42.667969 17.066406 0 0 17.066406 8.535156-8.53125 17.066406-25.601563 8.535157-68.269531-8.53125-76.800781 0-8.535157 8.535157-8.535157 34.132813-25.601563 34.132813h-93.867187l28.929687-139.945313c2.945313-8.820312 11.558594-14.46875 20.820313-13.652343h258.902343s-1.449219 34.132812-44.117187 25.597656c-4.648438 6.488281-10.796875 11.757812-17.921875 15.363281zm0 0" fill="#91562d"/><path d="m401.074219 503.464844h-51.203125c.039062-9.234375-2.957032-18.230469-8.53125-25.597656 0 0 25.601562-17.066407 25.601562-34.132813 15.992188 16.890625 27.695313 37.378906 34.132813 59.730469zm0 0" fill="#91562d"/><path d="m409.605469 298.667969s20.054687 51.199219-24.148438 51.199219c0 0-1.449219 34.132812-44.117187 25.597656-4.648438 6.488281-10.796875 11.757812-17.921875 15.363281-7.667969 3.925781-16.609375 4.542969-24.746094 1.707031 0 0-8.53125 25.597656-42.664063 25.597656-34.136718 0-42.667968-25.597656-42.667968-25.597656-25.601563 8.53125-42.667969-17.070312-42.667969-17.070312-42.664063 8.535156-44.117187-25.597656-44.117187-25.597656-44.203126 0-24.148438-51.199219-24.148438-51.199219-34.132812-8.535157-34.132812-59.734375-8.535156-85.335938 25.601562-25.597656 8.535156-85.332031 25.601562-145.066406 17.066406-59.730469 51.199219-59.730469 76.800782-59.730469 25.597656 0 42.667968 8.53125 59.734374 8.53125 17.066407 0 34.132813-8.53125 59.730469-8.53125 25.601563 0 59.734375 0 76.800781 59.730469 17.066407 59.734375 0 119.46875 25.601563 145.066406 25.597656 25.601563 25.597656 76.800781-8.535156 85.335938zm0 0" fill="#37474f"/><path d="m379.535156 298.667969s16.128906 51.199219-19.421875 51.199219c0 0-1.167969 34.132812-35.480469 25.597656-3.511718 6.199218-8.453124 11.464844-14.410156 15.363281-5.917968 3.902344-13.40625 4.542969-19.902344 1.707031-4.511718 15.183594-18.472656 25.597656-34.3125 25.597656-15.84375 0-29.800781-10.414062-34.316406-25.597656-20.585937 8.53125-34.3125-17.070312-34.3125-17.070312-34.3125 8.535156-35.480468-25.597656-35.480468-25.597656-35.546876 0-19.421876-51.199219-19.421876-51.199219-27.449218-8.535157-27.449218-59.734375-6.863281-85.335938 20.589844-25.597656 6.863281-85.332031 20.589844-145.066406 13.726563-59.730469 41.175781-59.730469 61.765625-59.730469 20.585938 0 34.3125 8.53125 48.039062 8.53125 13.722657 0 27.449219-8.53125 48.042969-8.53125 20.589844 0 48.035157 0 61.761719 59.730469 13.726562 59.734375 0 119.46875 20.589844 145.066406 20.585937 25.601563 20.582031 76.800781-6.867188 85.335938zm0 0" fill="#607d8b"/><path d="m150.527344 156.246094c-.046875.460937-.085938.914062-.125 1.363281-1.519532 17.550781-7.015625 51.898437 11.738281 61.746094 17.066406 8.960937 25.597656-8.960938 51.199219-8.960938 25.601562 0 25.601562 8.960938 42.667968 8.960938 17.066407 0 17.066407-8.960938 42.664063-8.960938 25.601563 0 34.132813 17.929688 51.199219 8.960938 17.070312-8.964844 8.535156-62.746094 8.535156-62.746094-25.601562-8.957031-68.265625-44.816406-68.265625-44.816406-1.46875 9.34375-4.34375 18.410156-8.535156 26.890625-19.265625-9.160156-34.460938-25.125-42.664063-44.816406-15.035156 5.628906-25.160156 19.808593-25.601562 35.855468 0 0-17.066406-17.929687-34.132813-17.929687-20.78125 0-26.976562 26.902343-28.679687 44.453125zm0 0" fill="#ffdc00"/><path d="m233.65625 145.824219c-8.109375-2.980469-16.628906-4.707031-25.257812-5.117188-11.605469-.878906-23.214844 1.597657-33.453126 7.132813 1.167969-14.933594 35.789063-17.886719 52.714844-14.046875 2.683594.335937 5.019532 1.988281 6.226563 4.410156 1.203125 2.417969 1.117187 5.28125-.230469 7.621094zm0 0"/><path d="m230.40625 172.214844c0-10.105469-7.640625-18.292969-17.066406-18.292969-9.425782 0-17.066406 8.1875-17.066406 18.292969 0 10.101562 7.640624 18.289062 17.066406 18.289062 9.425781 0 17.066406-8.1875 17.066406-18.289062zm0 0"/><path d="m218.125 156.339844c-4.40625-1.675782-9.335938.539062-11.011719 4.941406-1.671875 4.40625.539063 9.335938 4.945313 11.011719 4.402344 1.675781 9.332031-.539063 11.007812-4.941407 1.675782-4.40625-.535156-9.335937-4.941406-11.011718zm0 0" fill="#fff"/><path d="m278.355469 145.824219c8.113281-2.980469 16.628906-4.707031 25.261719-5.117188 11.601562-.878906 23.210937 1.597657 33.449218 7.132813-1.167968-14.933594-35.789062-17.886719-52.714844-14.046875-2.679687.335937-5.019531 1.988281-6.222656 4.410156-1.207031 2.417969-1.121094 5.28125.226563 7.621094zm0 0"/><path d="m315.738281 172.214844c0-10.105469-7.640625-18.292969-17.066406-18.292969s-17.066406 8.1875-17.066406 18.292969c0 10.101562 7.640625 18.289062 17.066406 18.289062s17.066406-8.1875 17.066406-18.289062zm0 0"/><path d="m304.898438 161.28125c-1.675782-4.402344-6.605469-6.617188-11.011719-4.941406-4.402344 1.675781-6.617188 6.605468-4.941407 11.011718 1.675782 4.402344 6.605469 6.617188 11.011719 4.941407 4.402344-1.675781 6.617188-6.605469 4.941407-11.011719zm0 0" fill="#fff"/><path d="m435.207031 512h-358.402343c-2.5625 0-4.992188-1.152344-6.613282-3.144531-1.621094-1.988281-2.261718-4.601563-1.742187-7.113281l28.925781-139.945313c3.6875-12.847656 15.847656-21.371094 29.179688-20.464844 4.714843 0 8.535156 3.820313 8.535156 8.535157 0 4.710937-3.820313 8.53125-8.535156 8.53125-5.164063-.644532-10.167969 2.070312-12.445313 6.75l-26.824219 129.785156h337.449219l-26.726563-129.691406c-2.300781-4.71875-7.335937-7.464844-12.550781-6.84375-4.714843 0-8.535156-3.820313-8.535156-8.53125 0-4.714844 3.820313-8.535157 8.535156-8.535157 13.339844-.859375 25.492188 7.636719 29.269531 20.460938l28.84375 139.945312c.519532 2.515625-.121093 5.128907-1.742187 7.121094-1.621094 1.988281-4.054687 3.140625-6.621094 3.140625zm0 0"/><path d="m102.40625 512h-93.867188c-4.710937 0-8.5312495-3.820312-8.5312495-8.535156v-7.59375c-.01171875-11.625 1.3906255-23.207032 4.1718755-34.492188l7.9375-32.148437c10.023437-37.453125 44.363281-63.191407 83.121093-62.296875h8.019531c4.714844 0 8.535157 3.820312 8.535157 8.53125 0 4.714844-3.820313 8.535156-8.535157 8.535156h-8.019531c-30.898437-.875-58.386719 19.496094-66.550781 49.308594l-7.941406 32.171875c-2.378906 9.636719-3.609375 19.523437-3.667969 29.453125h85.328125c4.710938 0 8.535156 3.820312 8.535156 8.53125 0 4.714844-3.824218 8.535156-8.535156 8.535156zm0 0"/><path d="m503.472656 512h-93.867187c-4.710938 0-8.53125-3.820312-8.53125-8.535156 0-4.710938 3.820312-8.53125 8.53125-8.53125h85.335937c-.058594-9.921875-1.292968-19.800782-3.671875-29.433594l-7.933593-32.183594c-8.164063-29.820312-35.65625-50.191406-66.5625-49.316406h-7.933594c-4.714844 0-8.535156-3.820312-8.535156-8.535156 0-4.710938 3.820312-8.53125 8.535156-8.53125h7.933594c38.765624-.890625 73.109374 24.851562 83.125 62.308594l7.9375 32.15625c2.785156 11.28125 4.183593 22.855468 4.171874 34.472656v7.59375c0 4.714844-3.820312 8.535156-8.535156 8.535156zm0 0"/><path d="m171.503906 230.398438c-4.664062-.042969-9.242187-1.238282-13.332031-3.480469-22.054687-11.585938-18.753906-44.824219-16.78125-64.691407l.644531-6.800781c3.265625-33.640625 16.46875-52.167969 37.167969-52.167969 10.28125.578126 20.152344 4.21875 28.347656 10.449219 5.257813-12.847656 15.597657-22.941406 28.566407-27.890625 2.179687-.761718 4.570312-.613281 6.632812.417969 2.066406 1.03125 3.625 2.851563 4.324219 5.050781 6.152343 14.671875 16.835937 26.992188 30.492187 35.164063 2.042969-4.664063 3.40625-9.601563 4.039063-14.65625 0-3.316407 1.921875-6.332031 4.929687-7.734375 3.007813-1.402344 6.550782-.933594 9.09375 1.199218.414063.351563 41.773438 34.957032 65.59375 43.292969 2.96875 1.035157 5.125 3.621094 5.613282 6.722657 2.222656 14.035156 7.871093 60.671874-12.992188 71.644531-10.246094 5-22.355469 4.296875-31.953125-1.851563-7.152344-3.832031-15.105469-5.9375-23.21875-6.140625-7.835937-.375-15.644531 1.15625-22.757813 4.464844-12.59375 6-27.222656 6-39.816406 0-7.113281-3.308594-14.921875-4.839844-22.757812-4.464844-8.113282.203125-16.066406 2.308594-23.21875 6.144531-5.738282 3.121094-12.097656 4.9375-18.617188 5.328126zm7.703125-110.074219c-14.996093 0-19.109375 25.699219-20.183593 36.75v.027343l-.644532 6.808594c-1.546875 15.582032-4.136718 41.65625 7.730469 47.890625 5.320313 2.792969 8.503906 1.609375 16.914063-2.25 9.367187-4.890625 19.75-7.523437 30.316406-7.691406 10.152344-.378906 20.25 1.621094 29.488281 5.847656 8.292969 4.15625 18.0625 4.15625 26.355469 0 9.238281-4.226562 19.339844-6.226562 29.488281-5.847656 10.570313.167969 20.953125 2.800781 30.320313 7.691406 8.421874 3.847657 11.601562 5.035157 16.914062 2.25 6.183594-3.242187 7.46875-27.550781 4.75-49.074219-19.644531-9.816406-38.140625-21.773437-55.15625-35.660156-1.769531 5.207032-3.835938 10.308594-6.191406 15.285156-.992188 2.09375-2.800782 3.695313-5.003906 4.429688-2.203126.734375-4.609376.539062-6.664063-.539062-17.941406-9.023438-32.800781-23.164063-42.695313-40.632813-8.164062 5.304687-13.085937 14.378906-13.074218 24.113281-.003906 3.484375-2.125 6.617188-5.359375 7.914063-3.234375 1.292969-6.933594.496093-9.34375-2.019531-4.078125-4.25-17.054688-15.292969-27.960938-15.292969zm0 0"/><path d="m256.007812 426.667969c-19.015624 1.136719-37.136718-8.179688-47.277343-24.300781-15.984375 1.535156-31.664063-5.097657-41.691407-17.640626-12.214843 2.480469-24.914062-.210937-35.070312-7.433593-6.125-4.953125-10.519531-11.714844-12.5625-19.320313-9.625-.683594-18.441406-5.632812-24.039062-13.492187-8.71875-12.773438-6.207032-30.292969-3.535157-40.605469-11.335937-5.714844-19.585937-16.125-22.554687-28.46875-5.910156-24.382812 1.097656-50.09375 18.5625-68.105469 12.023437-12.027343 12.886718-36.015625 13.875-63.800781-.023438-26.152344 3.183594-52.210938 9.558594-77.574219 18.828124-65.925781 58.648437-65.925781 85-65.925781 12.761718.222656 25.453124 1.941406 37.816406 5.121094 7.160156 1.921875 14.507812 3.066406 21.917968 3.414062 7.40625-.347656 14.753907-1.492187 21.914063-3.414062 12.363281-3.179688 25.054687-4.898438 37.816406-5.121094 26.351563 0 66.171875 0 85.003907 65.925781 6.371093 25.363281 9.582031 51.421875 9.558593 77.574219.992188 27.785156 1.851563 51.773438 13.875 63.800781 17.464844 18.011719 24.472657 43.722657 18.5625 68.109375-2.96875 12.339844-11.21875 22.75-22.554687 28.464844 2.671875 10.316406 5.183594 27.832031-3.539063 40.609375-5.597656 7.859375-14.414062 12.804687-24.039062 13.488281-2.042969 7.605469-6.441407 14.367188-12.566407 19.316406-10.15625 7.230469-22.855468 9.921876-35.070312 7.433594-10.058594 12.5-25.710938 19.128906-41.6875 17.652344-10.144531 16.117188-28.265625 25.425781-47.273438 24.292969zm-42.667968-42.667969c3.671875 0 6.933594 2.347656 8.09375 5.832031.269531.738281 7.371094 19.769531 34.574218 19.769531 27.660157 0 34.503907-19.570312 34.570313-19.769531.710937-2.148437 2.25-3.925781 4.277344-4.9375 2.023437-1.011719 4.371093-1.175781 6.515625-.453125 18.96875 6.285156 32.335937-12.917968 32.890625-13.738281 1.941406-2.832031 5.378906-4.242187 8.753906-3.601563 8.882813 2.800782 18.542969 1.621094 26.492187-3.242187 4.214844-3.664063 6.878907-8.796875 7.445313-14.355469.195313-4.570312 3.953125-8.171875 8.523437-8.171875 12.628907 0 15.964844-4.855469 17.058594-6.457031 6.222656-9.074219 1.324219-27.410156-.882812-33.117188-.882813-2.28125-.746094-4.835937.378906-7.007812 1.125-2.175781 3.128906-3.761719 5.503906-4.359375 9.425782-2.472656 16.667969-10.019531 18.753906-19.539063 4.265626-18.457031-1.066406-37.816406-14.183593-51.484374-16.773438-16.777344-17.742188-43.875-18.859375-75.25.039062-24.773438-2.953125-49.460938-8.90625-73.507813-15.304688-53.542969-43.617188-53.542969-68.601563-53.542969-11.5.230469-22.9375 1.808594-34.074219 4.699219-8.382812 2.230469-16.988281 3.515625-25.65625 3.835937-8.671874-.320312-17.277343-1.605468-25.660156-3.835937-11.136718-2.890625-22.570312-4.46875-34.074218-4.699219-24.984376 0-53.296876 0-68.597657 53.542969-5.949219 24.046875-8.941406 48.734375-8.90625 73.507813-1.121093 31.375-2.085937 58.472656-18.859375 75.25-13.117187 13.664062-18.453125 33.027343-14.1875 51.480468 2.085938 9.519532 9.328125 17.066406 18.753906 19.542969 2.375.59375 4.378907 2.179687 5.503907 4.355469 1.125 2.175781 1.265625 4.726562.378906 7.007812-2.207031 5.710938-7.101563 24.042969-.882813 33.117188 1.097657 1.601562 4.425782 6.460937 17.058594 6.460937 4.570313 0 8.328125 3.597657 8.527344 8.164063.5625 5.617187 3.277344 10.796875 7.574219 14.460937 7.933593 4.761719 17.527343 5.90625 26.359375 3.140625 3.394531-.6875 6.863281.75 8.777344 3.632813.53125.792969 13.855468 20.035156 32.867187 13.710937.871094-.292968 1.78125-.441406 2.699219-.441406zm0 0"/><path d="m298.671875 273.066406c-8.222656-.171875-16.351563-1.765625-24.03125-4.707031-5.941406-2.347656-12.25-3.640625-18.632813-3.824219-6.386718.183594-12.691406 1.476563-18.636718 3.824219-7.679688 2.941406-15.808594 4.535156-24.03125 4.707031-35.851563 0-46.859375-9.191406-48.699219-11.035156-2.25-2.132812-3.164063-5.320312-2.386719-8.324219.777344-3 3.121094-5.34375 6.121094-6.121093 3.003906-.777344 6.191406.132812 8.328125 2.382812v-.011719c.078125 0 8.609375 6.042969 36.636719 6.042969 6.386718-.183594 12.691406-1.476562 18.632812-3.824219 7.679688-2.941406 15.8125-4.535156 24.035156-4.710937 8.222657.175781 16.351563 1.769531 24.03125 4.710937 5.941407 2.347657 12.246094 3.640625 18.632813 3.824219 28.628906 0 36.917969-6.308594 36.996094-6.375 1.589843-1.574219 3.742187-2.441406 5.980469-2.410156 2.234374.03125 4.363281.960937 5.90625 2.582031 3.285156 3.445313 3.203124 8.886719-.183594 12.230469-1.839844 1.847656-12.847656 11.039062-48.699219 11.039062zm0 0"/><path d="m170.671875 512c-4.710937 0-8.53125-3.820312-8.53125-8.535156 0-4.710938 3.820313-8.53125 8.53125-8.53125 4.257813 0 6.464844-3.875 10.535156-14.773438 1.800781-6.191406 4.878907-11.933594 9.03125-16.859375 7.050781-7.042969 19.515625-5.257812 36.757813-2.765625 14.160156 2.023438 31.773437 4.574219 43.375.707032 2.015625-.652344 3.980468-1.4375 5.890625-2.351563-2.542969-2.09375-3.664063-5.457031-2.882813-8.65625.917969-3.804687 4.316406-6.484375 8.226563-6.5 13.53125-.464844 26.480469-5.613281 36.632812-14.566406 11.980469-11.984375-.933593-31.703125-1.066406-31.902344-1.722656-2.535156-1.953125-5.800781-.601563-8.554687 1.347657-2.753907 4.074219-4.570313 7.136719-4.761719 3.0625-.1875 5.988281 1.28125 7.664063 3.851562 7.25 10.867188 16.347656 36.023438-1.066406 53.433594-9.582032 9.132813-21.589844 15.328125-34.589844 17.839844-.003906.285156-.011719.574219-.035156.867187-.707032 9.957032-11.703126 14.75-19.90625 17.484375-15.433594 5.164063-34.4375 2.414063-51.210938 0-7.507812-1.632812-15.210938-2.167969-22.871094-1.59375-1.863281 3.261719-3.371094 6.710938-4.496094 10.292969-3.847656 10.308594-9.65625 25.875-26.523437 25.875zm0 0"/><path d="m401.0625 512c-3.910156-.003906-7.320312-2.667969-8.269531-6.464844-4.511719-16.28125-12.191407-31.507812-22.601563-44.808594-4.644531 7.242188-10.445312 13.671876-17.175781 19.027344 3.46875 7.429688 5.304687 15.515625 5.390625 23.710938.003906 3.050781-1.617188 5.871094-4.257812 7.398437-2.636719 1.527344-5.890626 1.53125-8.53125.011719-2.644532-1.519531-4.273438-4.335938-4.277344-7.382812.082031-7-2.027344-13.851563-6.035156-19.59375-1.800782-1.804688-2.703126-4.324219-2.453126-6.867188.25-2.539062 1.625-4.835938 3.746094-6.257812 7.117188-4.773438 21.808594-17.652344 21.808594-27.039063 0-3.453125 2.078125-6.5625 5.269531-7.882813 3.1875-1.320312 6.855469-.589843 9.296875 1.847657 17.109375 17.972656 29.59375 39.832031 36.378906 63.699219.628907 2.550781.054688 5.25-1.5625 7.320312-1.617187 2.066406-4.097656 3.277344-6.726562 3.28125zm0 0"/></svg>