<svg height="512pt" viewBox="0 0 512 512.00019" width="512pt" xmlns="http://www.w3.org/2000/svg"><path d="m409.601562 503.46875h93.867188v-7.597656c.011719-10.925782-1.304688-21.816406-3.925781-32.425782l-7.9375-32.171874c-9.203125-33.554688-40.046875-56.558594-74.835938-55.804688h-321.539062c-34.789063-.753906-65.628907 22.25-74.835938 55.804688l-7.9375 32.171874c-2.621093 10.609376-3.9375 21.5-3.921875 32.425782v7.597656zm0 0" fill="#f44335"/><path d="m187.734375 290.132812h136.53125v76.800782h-136.53125zm0 0" fill="#f29c1f"/><path d="m412.074219 264.535156s6.914062 51.199219-13.824219 51.199219c-13.566406 0-18.261719-25.257813-19.882812-42.921875 3.71875-7.933594 5.640624-16.585938 5.632812-25.34375v-34.136719c-6.832031-12.558593-15.457031-24.054687-25.601562-34.132812-17.066407-17.066407-8.53125-51.199219-42.664063-59.730469-34.132813-8.535156-42.667969 8.53125-59.734375 8.53125s-25.601562-17.066406-59.734375-8.53125c-34.132813 8.53125-25.597656 42.664062-42.664063 59.730469-10.144531 10.078125-18.769531 21.574219-25.601562 34.132812v34.136719c-.007812 8.757812 1.914062 17.410156 5.632812 25.34375-1.621093 17.664062-6.316406 42.921875-19.882812 42.921875-20.738281 0-13.824219-51.199219-13.824219-51.199219s-20.820312-17.066406-13.910156-59.734375c0 0-20.734375-42.667969 0-68.265625 0 0-6.910156-68.269531 41.644531-85.335937 0 0 5.800782-17.578125 35.582032-30.207031l15.957031 55.808593c25.324219-4.941406 51.011719-7.792969 76.800781-8.535156 25.789062.742187 51.476562 3.59375 76.800781 8.535156l15.957031-55.808593c29.78125 12.628906 35.582032 30.207031 35.582032 30.207031 48.554687 17.066406 41.644531 85.335937 41.644531 85.335937 20.734375 25.597656 0 68.265625 0 68.265625 6.910156 42.667969-13.910156 59.734375-13.910156 59.734375zm0 0" fill="#783e22"/><path d="m349.867188 10.667969-1.109376 4.90625-14.054687 61.433593c-1.011719 4.554688-5.515625 7.4375-10.078125 6.449219-22.535156-5.148437-45.519531-8.09375-68.625-8.789062-23.105469.695312-46.089844 3.640625-68.625 8.789062-4.558594.988281-9.0625-1.890625-10.078125-6.445312l-14.054687-61.4375-1.109376-4.90625c29.417969 11.789062 62.703126 8.785156 89.539063-8.074219 2.679687-1.539062 5.976563-1.539062 8.65625 0 26.835937 16.859375 60.121094 19.863281 89.539063 8.074219zm0 0" fill="#ffeb3a"/><path d="m375.46875 349.867188-19.910156 51.199218h-199.117188l-19.90625-51.199218zm0 0" fill="#ffdc00"/><path d="m358.398438 435.199219-31.527344 68.269531h-141.742188l-31.527344-68.269531zm0 0" fill="#ffdc00"/><path d="m384 213.332031v34.136719c.007812 15.84375-6.28125 31.039062-17.484375 42.246094-11.207031 11.203125-26.402344 17.492187-42.25 17.484375h-136.53125c-15.84375.007812-31.042969-6.28125-42.246094-17.484375-11.207031-11.207032-17.496093-26.402344-17.488281-42.246094v-34.136719c6.832031-12.558593 15.457031-24.054687 25.601562-34.132812 17.066407-17.066407 8.53125-51.199219 42.664063-59.730469 34.132813-8.535156 42.667969 8.53125 59.734375 8.53125s25.601562-17.066406 59.734375-8.53125c34.132813 8.53125 25.597656 42.664062 42.664063 59.730469 10.144531 10.078125 18.769531 21.574219 25.601562 34.132812zm0 0" fill="#fec108"/><path d="m358.398438 213.332031v34.136719c.027343 8.648438-1.5 17.230469-4.503907 25.34375-5.792969 19.398438-23.074219 33.128906-43.28125 34.386719h-109.226562c-20.207031-1.257813-37.488281-14.988281-43.28125-34.386719-3.003907-8.113281-4.53125-16.695312-4.503907-25.34375v-34.136719c5.289063-12.230469 12.175782-23.707031 20.480469-34.132812 13.652344-17.066407 6.824219-51.199219 34.132813-59.730469 27.304687-8.535156 34.132812 8.53125 47.785156 8.53125s20.480469-17.066406 47.785156-8.53125c27.308594 8.53125 20.480469 42.664062 34.136719 59.730469 8.300781 10.425781 15.1875 21.902343 20.476563 34.132812zm0 0" fill="#ffdc00"/><path d="m366.933594 401.066406-14.753906 34.132813h-192.359376l-14.753906-34.132813zm0 0" fill="#607d8b"/><path d="m204.800781 503.46875h-128l28.925781-139.949219c2.945313-8.820312 11.558594-14.46875 20.824219-13.652343h27.050781l17.066407 51.199218 11.347656 34.132813zm0 0" fill="#c81e1e"/><path d="m435.199219 503.46875h-128l22.785156-68.269531 11.347656-34.132813 17.066407-51.199218h27.050781c9.285156-.816407 17.921875 4.824218 20.910156 13.652343zm0 0" fill="#c81e1e"/><path d="m296.339844 256c-6.894532 13.492188-28.414063 15.402344-40.167969 15.402344-11.78125 0-33.277344-1.910156-40.171875-15.402344 13.148438 3.238281 26.628906 4.929688 40.171875 5.035156 13.539063-.105468 27.023437-1.792968 40.167969-5.035156zm0 0"/><path d="m233.648438 162.890625c-8.109376-2.980469-16.625-4.707031-25.257813-5.117187-11.601563-.878907-23.214844 1.597656-33.449219 7.132812 1.167969-14.933594 35.789063-17.886719 52.710938-14.046875 2.683594.335937 5.019531 1.988281 6.226562 4.410156 1.207032 2.417969 1.121094 5.28125-.230468 7.621094zm0 0"/><path d="m278.351562 162.890625c8.109376-2.980469 16.625-4.707031 25.257813-5.117187 11.601563-.878907 23.214844 1.597656 33.449219 7.132812-1.164063-14.933594-35.789063-17.886719-52.710938-14.046875-2.683594.335937-5.019531 1.988281-6.226562 4.410156-1.203125 2.417969-1.117188 5.28125.230468 7.621094zm0 0"/><path d="m186.535156 176.964844s2.429688 10.90625 11.828125 8.777344c9.402344-2.125 11.195313 1.957031 19.292969 1.304687 2.769531-.1875 5.554688-.019531 8.28125.507813 1.9375.449218 3.949219.480468 5.898438.09375 2.699218-.722657 2.464843-3.855469 1.519531-5.894532-3.746094-8.082031-14.292969-8.671875-22.007813-7.773437-3.273437.886719-6.601562 1.558593-9.960937 2.007812-3.519531-.976562-6.800781-2.664062-9.640625-4.957031.613281 2.191406.761718 4.488281.433594 6.742188-.976563 1.851562-5.644532-.808594-5.644532-.808594zm0 0"/><path d="m230.398438 193.546875c0-10.101563-7.640626-18.292969-17.066407-18.292969s-17.066406 8.191406-17.066406 18.292969 7.640625 18.292969 17.066406 18.292969 17.066407-8.191406 17.066407-18.292969zm0 0"/><path d="m218.117188 177.671875c-4.402344-1.671875-9.332032.539063-11.007813 4.945313-1.675781 4.402343.535156 9.332031 4.941406 11.007812s9.335938-.535156 11.011719-4.941406c1.671875-4.40625-.539062-9.335938-4.945312-11.011719zm0 0" fill="#fff"/><path d="m325.460938 176.964844s-2.429688 10.90625-11.828126 8.777344c-9.402343-2.125-11.195312 1.957031-19.292968 1.304687-2.773438-.1875-5.554688-.019531-8.285156.507813-1.933594.449218-3.945313.480468-5.894532.09375-2.699218-.722657-2.46875-3.855469-1.523437-5.894532 3.75-8.082031 14.296875-8.671875 22.011719-7.773437 3.273437.886719 6.597656 1.558593 9.960937 2.007812 3.519531-.976562 6.800781-2.664062 9.640625-4.957031-.613281 2.191406-.761719 4.488281-.433594 6.742188.980469 1.851562 5.644532-.808594 5.644532-.808594zm0 0"/><path d="m315.730469 193.546875c0-10.101563-7.640625-18.292969-17.066407-18.292969-9.425781 0-17.066406 8.191406-17.066406 18.292969s7.640625 18.292969 17.066406 18.292969c9.425782 0 17.066407-8.191406 17.066407-18.292969zm0 0"/><path d="m304.890625 182.617188c-1.675781-4.40625-6.605469-6.617188-11.011719-4.941407-4.40625 1.671875-6.617187 6.601563-4.941406 11.007813s6.605469 6.617187 11.007812 4.941406c4.40625-1.675781 6.617188-6.605469 4.945313-11.007812zm0 0" fill="#fff"/><path d="m435.199219 512h-358.398438c-2.566406 0-4.996093-1.152344-6.617187-3.144531-1.621094-1.988281-2.261719-4.601563-1.742188-7.113281l28.910156-139.929688c3.726563-12.839844 15.886719-21.359375 29.226563-20.480469h258.894531c13.359375-.886719 25.535156 7.664063 29.234375 20.535157l28.855469 139.875c.519531 2.515624-.121094 5.128906-1.742188 7.117187-1.621093 1.988281-4.054687 3.140625-6.621093 3.140625zm-347.925781-17.066406h337.453124l-26.742187-129.667969c-2.257813-4.742187-7.300781-7.507813-12.511719-6.867187h-258.894531c-5.199219-.632813-10.226563 2.113281-12.503906 6.828124zm0 0"/><path d="m324.265625 358.398438h-136.53125c-4.714844 0-8.535156-3.820313-8.535156-8.53125v-42.667969c0-4.710938 3.820312-8.53125 8.535156-8.53125h136.53125c4.714844 0 8.535156 3.820312 8.535156 8.53125v42.667969c0 4.710937-3.820312 8.53125-8.535156 8.53125zm-128-17.066407h119.46875v-25.597656h-119.46875zm0 0"/><path d="m324.265625 315.734375h-136.53125c-37.6875-.042969-68.222656-30.582031-68.265625-68.265625v-34.136719c-.003906-1.324219.304688-2.628906.898438-3.816406 7.234374-13.382813 16.398437-25.632813 27.199218-36.351563 4.902344-6.121093 8.316406-13.296874 9.980469-20.957031 4.816406-15.402343 10.8125-34.5625 36.648437-41.015625 16.128907-4.785156 33.472657-3.234375 48.496094 4.332032 4.113282 2.230468 8.644532 3.570312 13.308594 3.945312 4.664062-.371094 9.199219-1.714844 13.3125-3.945312 15.023438-7.5625 32.367188-9.113282 48.496094-4.332032 25.835937 6.457032 31.828125 25.617188 36.648437 41.015625 1.664063 7.664063 5.078125 14.835938 9.976563 20.960938 10.800781 10.71875 19.964844 22.964843 27.199218 36.351562.59375 1.183594.902344 2.488281.902344 3.8125v34.136719c-.046875 37.683594-30.582031 68.222656-68.269531 68.265625zm-187.730469-100.257813v31.992188c.03125 28.261719 22.933594 51.167969 51.199219 51.199219h136.53125c28.265625-.03125 51.171875-22.9375 51.203125-51.199219v-31.984375c-6.335938-11.058594-14.101562-21.230469-23.101562-30.25-6.976563-7.988281-11.859376-17.582031-14.203126-27.925781-4.4375-14.207032-7.953124-25.425782-24.5-29.566406-12.453124-3.847657-25.921874-2.625-37.476562 3.40625-6.253906 3.25-13.144531 5.089843-20.1875 5.386718-7.042969-.296875-13.933594-2.136718-20.1875-5.386718-11.550781-6.035157-25.023438-7.257813-37.476562-3.40625-16.546876 4.140624-20.054688 15.359374-24.5 29.566406-2.34375 10.34375-7.226563 19.9375-14.203126 27.925781-9.007812 9.011719-16.773437 19.179687-23.097656 30.242187zm0 0"/><path d="m102.398438 512h-93.863282c-4.714844 0-8.535156-3.820312-8.535156-8.53125v-7.597656c-.0117188-11.621094 1.390625-23.207032 4.175781-34.492188l7.9375-32.148437c10.019531-37.453125 44.359375-63.1875 83.117188-62.296875h8.023437c4.710938 0 8.53125 3.820312 8.53125 8.535156 0 4.710938-3.820312 8.53125-8.53125 8.53125h-8.023437c-30.898438-.871094-58.386719 19.496094-66.550781 49.308594l-7.9375 32.171875c-2.378907 9.636719-3.613282 19.523437-3.671876 29.453125h85.328126c4.714843 0 8.535156 3.820312 8.535156 8.535156 0 4.710938-3.820313 8.53125-8.535156 8.53125zm0 0"/><path d="m503.46875 512h-93.867188c-4.714843 0-8.535156-3.820312-8.535156-8.53125 0-4.714844 3.820313-8.535156 8.535156-8.535156h85.332032c-.066406-9.921875-1.300782-19.804688-3.675782-29.441406l-7.9375-32.167969c-8.160156-29.820313-35.648437-50.191407-66.550781-49.324219h-7.9375c-4.710937 0-8.535156-3.820312-8.535156-8.53125 0-4.714844 3.824219-8.535156 8.535156-8.535156h7.9375c38.761719-.890625 73.105469 24.851562 83.125 62.308594l7.933594 32.15625c2.78125 11.28125 4.179687 22.855468 4.171875 34.472656v7.597656c0 4.710938-3.820312 8.53125-8.53125 8.53125zm0 0"/><path d="m169.128906 27.734375h-.082031c-4.707031-.023437-8.503906-3.851563-8.492187-8.554687.011718-4.707032 3.828124-8.511719 8.535156-8.511719 4.703125 0 8.519531 3.804687 8.53125 8.511719.011718 4.703124-3.785156 8.53125-8.492188 8.554687zm0 0"/><path d="m113.75 324.265625c-5.648438.050781-11.023438-2.417969-14.667969-6.734375-10.601562-12.125-9.246093-38.679688-8.097656-49.988281-6.382813-7.46875-18.671875-26.824219-13.78125-61.535157-4.265625-9.898437-17.804687-46.214843.074219-72.03125-.765625-14.679687-.679688-71.007812 44.082031-89.5 8.863281-14.570312 22.476563-25.640624 38.546875-31.34375 4.339844-1.839843 9.351562.1875 11.191406 4.527344 1.84375 4.339844-.183594 9.347656-4.523437 11.191406-25.253907 10.707032-30.644531 24.582032-30.863281 25.164063-.890626 2.425781-2.800782 4.335937-5.222657 5.234375-41.570312 14.609375-36.042969 75.816406-35.980469 76.429688.21875 2.238281-.449218 4.476562-1.863281 6.226562-16.84375 20.800781.863281 58.78125 1.046875 59.15625.765625 1.585938 1.027344 3.363281.75 5.101562-5.960937 36.78125 10.722656 51.625 10.890625 51.765626 2.289063 1.875 3.441407 4.800781 3.050781 7.734374-1.710937 12.800782-1.769531 34.558594 3.550782 40.640626.40625.59375 1.097656.933593 1.816406.894531 2.660156 0 8.945312-8.597657 11.386719-35.175781.226562-3.078126 2.097656-5.792969 4.890625-7.101563 2.796875-1.308594 6.082031-1.007813 8.589844.789063 2.511718 1.800781 3.851562 4.8125 3.511718 7.878906-3.082031 33.628906-12.632812 50.675781-28.378906 50.675781zm0 0"/><path d="m398.25 324.265625c-15.746094 0-25.292969-17.046875-28.378906-50.675781-.339844-3.066406 1-6.078125 3.511718-7.878906 2.507813-1.796876 5.792969-2.097657 8.589844-.789063 2.792969 1.308594 4.664063 4.023437 4.890625 7.101563 2.441407 26.578124 8.722657 35.175781 11.386719 35.175781.71875.039062 1.410156-.296875 1.816406-.890625 5.34375-6.109375 5.277344-27.859375 3.550782-40.632813-.394532-2.933593.761718-5.863281 3.050781-7.742187.609375-.527344 16.839843-15.09375 10.890625-51.765625-.273438-1.730469-.015625-3.503907.742187-5.085938.183594-.382812 18.082031-38.148437 1.050781-59.183593-1.410156-1.746094-2.078124-3.980469-1.859374-6.214844.058593-.617188 5.59375-61.824219-35.980469-76.433594-2.496094-.875-4.445313-2.863281-5.273438-5.375-.171875-.441406-5.558593-14.316406-30.8125-25.023438-4.339843-1.84375-6.367187-6.851562-4.523437-11.191406 1.839844-4.34375 6.851562-6.367187 11.191406-4.527344 16.070312 5.703126 29.683594 16.773438 38.546875 31.339844 44.769531 18.492188 44.851563 74.828125 44.078125 89.5 17.882812 25.820313 4.339844 62.132813.085938 72.035156 4.890624 34.707032-7.402344 54.066407-13.785157 61.53125 1.140625 11.308594 2.5 37.867188-8.097656 49.992188-3.648437 4.3125-9.023437 6.78125-14.671875 6.734375zm0 0"/><path d="m179.191406 85.332031c-3.804687-.003906-7.148437-2.53125-8.191406-6.191406l-17.066406-59.730469c-.894532-3.132812.070312-6.5 2.488281-8.679687 2.414063-2.183594 5.863281-2.796875 8.886719-1.589844 28.914062 8.800781 60.132812 5.839844 86.875-8.238281 2.402344-1.203125 5.230468-1.203125 7.632812 0 26.714844 14.183594 57.976563 17.148437 86.878906 8.238281 3.023438-1.207031 6.472657-.59375 8.886719 1.589844 2.417969 2.179687 3.382813 5.546875 2.488281 8.679687l-17.066406 59.730469c-1.199218 4.289063-5.511718 6.921875-9.875 6.027344-24.773437-4.820313-49.902344-7.617188-75.128906-8.367188-25.226562.746094-50.351562 3.542969-75.125 8.363281-.554688.113282-1.117188.167969-1.683594.167969zm76.808594-25.597656c23.730469.542969 47.378906 2.972656 70.726562 7.257813l10.820313-37.859376c-27.679687 4.890626-56.191406.996094-81.546875-11.128906-25.355469 12.121094-53.867188 16.011719-81.546875 11.125l10.820313 37.859375c23.347656-4.285156 46.996093-6.710937 70.726562-7.253906zm0 0"/><path d="m204.800781 512c-3.671875 0-6.933593-2.347656-8.097656-5.832031l-51.199219-153.601563c-1.492187-4.46875.925782-9.304687 5.394532-10.796875 4.472656-1.488281 9.304687.925781 10.796874 5.398438l51.199219 153.597656c.863281 2.605469.425781 5.460937-1.175781 7.6875-1.605469 2.222656-4.175781 3.542969-6.917969 3.546875zm0 0"/><path d="m307.199219 512c-2.742188-.003906-5.3125-1.324219-6.917969-3.546875-1.601562-2.226563-2.039062-5.082031-1.175781-7.6875l51.199219-153.597656c.964843-2.894531 3.398437-5.050781 6.386718-5.660157 2.984375-.613281 6.074219.417969 8.09375 2.699219 2.023438 2.28125 2.675782 5.46875 1.710938 8.359375l-51.199219 153.601563c-1.164063 3.484375-4.425781 5.832031-8.097656 5.832031zm0 0"/><path d="m329.984375 443.734375h-147.96875c-4.710937 0-8.53125-3.820313-8.53125-8.535156 0-4.710938 3.820313-8.53125 8.53125-8.53125h147.96875c4.710937 0 8.53125 3.820312 8.53125 8.53125 0 4.714843-3.820313 8.535156-8.53125 8.535156zm0 0"/><path d="m341.332031 409.601562h-170.664062c-4.714844 0-8.535157-3.820312-8.535157-8.535156 0-4.710937 3.820313-8.53125 8.535157-8.53125h170.664062c4.714844 0 8.535157 3.820313 8.535157 8.53125 0 4.714844-3.820313 8.535156-8.535157 8.535156zm0 0"/></svg>