<svg height="512pt" viewBox="0 0 512.00007 512" width="512pt" xmlns="http://www.w3.org/2000/svg"><path d="m503.464844 495.871094.003906 7.59375h-494.933594v-7.59375c-.015625-10.925782 1.300782-21.816406 3.921875-32.425782l7.9375-32.171874c9.203125-33.554688 40.046875-56.558594 74.835938-55.808594h321.539062c34.789063-.75 65.632813 22.253906 74.835938 55.808594l7.9375 32.171874c2.621093 10.609376 3.9375 21.5 3.921875 32.425782zm0 0" fill="#bb193b"/><path d="m119.464844 349.867188c-85.332032 0-93.863282-59.734376-93.863282-59.734376 68.265626-25.597656 42.664063-153.597656 59.730469-204.800781 17.066407-51.199219 71.402344-40.40625 76.800781-51.199219 8.535157-17.066406 59.734376-25.597656 119.46875-25.597656 59.730469 0 145.066407 34.132813 162.132813 128 17.066406 93.863282 8.53125 136.53125 42.664063 153.597656 0 0-5.585938 59.734376-100.925782 59.734376" fill="#783e22"/><path d="m144.75 349.867188c-69.53125 0-76.484375-59.734376-76.484375-59.734376 55.625-25.597656 34.765625-153.597656 48.671875-204.800781 13.90625-51.199219 58.179688-40.40625 62.578125-51.199219 6.953125-17.066406 48.671875-25.597656 97.34375-25.597656s118.203125 34.132813 132.109375 128c13.90625 93.863282 6.953125 136.53125 34.765625 153.597656 0 0-4.554687 59.734376-82.238281 59.734376" fill="#a0522d"/><path d="m341.332031 349.867188h44.117188c9.285156-.816407 17.921875 4.824218 20.90625 13.652343l2.476562 11.945313 26.367188 128h-358.398438l26.453125-128 2.472656-11.945313c2.945313-8.820312 11.558594-14.46875 20.824219-13.652343zm0 0" fill="#ef314c"/><path d="m187.734375 298.667969h136.53125v59.730469h-136.53125zm0 0" fill="#fec108"/><path d="m384 204.800781v42.664063c.011719 15.847656-6.277344 31.046875-17.484375 42.253906-11.203125 11.203125-26.402344 17.492188-42.25 17.480469h-136.53125c-15.847656.011719-31.046875-6.277344-42.25-17.480469-11.207031-11.207031-17.496094-26.40625-17.484375-42.253906v-17.066406c17.066406-17.066407 25.601562-51.199219 34.132812-76.796876 8.535157-25.601562 26.367188-57.175781 59.734376-68.269531 25.597656-8.53125 119.464843 51.203125 128 68.269531 8.328124 18.914063 19.878906 36.234376 34.132812 51.199219zm0 0" fill="#fec108"/><path d="m358.398438 204.800781v42.664063c0 33.027344-21.367188 59.734375-47.785157 59.734375h-109.226562c-26.417969 0-47.785157-26.707031-47.785157-59.734375v-17.066406c13.652344-17.066407 20.476563-51.199219 27.304688-76.796876 6.828125-25.601562 21.09375-57.175781 47.789062-68.269531 20.476563-8.53125 95.570313 51.203125 102.398438 68.269531 6.382812 18.382813 15.597656 35.65625 27.304688 51.199219zm0 0" fill="#ffdc00"/><path d="m341.332031 349.867188s-8.53125 34.132812-42.664062 34.132812c-34.132813 0-42.667969 17.066406-42.667969 17.066406s-8.535156-17.066406-42.667969-17.066406c-34.132812 0-42.664062-34.132812-42.664062-34.132812zm0 0" fill="#ffdc00"/><path d="m264.535156 435.199219v68.265625h-17.070312v-68.265625c0-4.710938 3.824218-8.53125 8.535156-8.53125s8.535156 3.820312 8.535156 8.53125zm0 0" fill="#bdc3c7"/><path d="m247.464844 401.066406h17.070312c4.710938 0 8.53125 3.820313 8.53125 8.535156v17.066407c0 4.710937-3.820312 8.53125-8.53125 8.53125h-17.070312c-4.710938 0-8.53125-3.820313-8.53125-8.53125v-17.066407c0-4.714843 3.820312-8.535156 8.53125-8.535156zm0 0" fill="#ffeb3a"/><path d="m230.398438 185.011719c0-10.101563-7.640626-18.289063-17.066407-18.289063s-17.066406 8.1875-17.066406 18.289063c0 10.105469 7.640625 18.292969 17.066406 18.292969s17.066407-8.1875 17.066407-18.292969zm0 0"/><path d="m218.117188 169.140625c-4.40625-1.675781-9.332032.535156-11.007813 4.941406s.535156 9.335938 4.941406 11.011719c4.40625 1.671875 9.332031-.539062 11.007813-4.945312 1.675781-4.402344-.535156-9.332032-4.941406-11.007813zm0 0" fill="#fff"/><path d="m315.730469 185.011719c0-10.101563-7.640625-18.289063-17.066407-18.289063-9.425781 0-17.066406 8.1875-17.066406 18.289063 0 10.105469 7.640625 18.292969 17.066406 18.292969 9.425782 0 17.066407-8.1875 17.066407-18.292969zm0 0"/><path d="m304.894531 174.085938c-1.675781-4.40625-6.601562-6.617188-11.007812-4.941407s-6.617188 6.605469-4.941407 11.007813c1.675782 4.40625 6.601563 6.617187 11.007813 4.941406 4.40625-1.671875 6.617187-6.601562 4.941406-11.007812zm0 0" fill="#fff"/><path d="m353.109375 147.710938c-12.289063-12.800782-62.632813 3.414062-71.339844 7-3.507812 1.316406-6.878906 2.976562-10.0625 4.953124-2.628906 1.664063-5.683593 2.523438-8.796875 2.46875h-13.820312c-3.109375.054688-6.164063-.804687-8.792969-2.46875-3.183594-1.976562-6.558594-3.636718-10.066406-4.953124-8.707031-3.585938-59.050781-19.800782-71.339844-7-8.019531 8.191406-5.972656 27.476562-.085937 41.472656 7.367187 19.714844 26.230468 32.757812 47.273437 32.683594 12.261719.402343 23.875-5.480469 30.808594-15.601563 4.367187-6.234375 11.488281-9.960937 19.101562-10h.023438c7.613281.039063 14.734375 3.765625 19.101562 10 6.933594 10.121094 18.546875 16.003906 30.808594 15.601563 21.042969.074218 39.90625-12.96875 47.273437-32.683594 5.886719-13.996094 7.933594-33.28125-.085937-41.472656zm-147.03125 57.089843c-12.058594.289063-23.242187-6.292969-28.839844-16.980469-5.097656-8.332031-7.316406-18.105468-6.316406-27.820312 10.070313-2.390625 49.75 7.425781 59.394531 13.484375-.597656 8.191406-4.011718 31.316406-24.238281 31.316406zm128.683594-16.980469c-5.597657 10.6875-16.777344 17.269532-28.839844 16.980469-20.054687 0-23.554687-23.125-24.152344-31.316406 9.558594-6.058594 48.8125-15.875 59.136719-13.484375 1.109375 9.699219-1.054688 19.488281-6.144531 27.820312zm0 0" fill="#bb193b"/><path d="m435.199219 512h-358.398438c-2.566406 0-4.996093-1.152344-6.617187-3.144531-1.621094-1.988281-2.261719-4.601563-1.742188-7.113281l28.910156-139.929688c3.726563-12.839844 15.886719-21.359375 29.230469-20.480469h258.894531c13.359376-.882812 25.53125 7.667969 29.230469 20.535157l28.855469 139.875c.519531 2.511718-.121094 5.128906-1.742188 7.117187-1.621093 1.988281-4.054687 3.140625-6.621093 3.140625zm-347.925781-17.066406h337.453124l-26.742187-129.667969c-2.257813-4.742187-7.296875-7.507813-12.507813-6.867187h-258.894531c-5.199219-.632813-10.226562 2.109374-12.507812 6.828124zm0 0"/><path d="m324.265625 358.398438h-136.53125c-4.714844 0-8.535156-3.820313-8.535156-8.53125v-42.667969c0-4.710938 3.820312-8.53125 8.535156-8.53125h136.53125c4.714844 0 8.535156 3.820312 8.535156 8.53125v42.667969c0 4.710937-3.820312 8.53125-8.535156 8.53125zm-128-17.066407h119.46875v-25.597656h-119.46875zm0 0"/><path d="m324.265625 315.734375h-136.53125c-37.6875-.042969-68.222656-30.582031-68.269531-68.269531v-17.066406c0-4.710938 3.824218-8.53125 8.535156-8.53125s8.535156 3.820312 8.535156 8.53125v17.066406c.027344 28.265625 22.933594 51.171875 51.199219 51.203125h136.53125c28.265625-.03125 51.171875-22.9375 51.199219-51.203125v-42.664063c0-4.714843 3.824218-8.535156 8.535156-8.535156s8.535156 3.820313 8.535156 8.535156v42.664063c-.046875 37.6875-30.582031 68.226562-68.269531 68.269531zm0 0"/><path d="m102.398438 512h-93.863282c-4.714844 0-8.535156-3.820312-8.535156-8.535156v-7.59375c-.0078125-11.621094 1.394531-23.199219 4.175781-34.484375l7.9375-32.15625c10.023438-37.449219 44.359375-63.183594 83.117188-62.296875h8.023437c4.710938 0 8.53125 3.820312 8.53125 8.53125 0 4.714844-3.820312 8.535156-8.53125 8.535156h-8.023437c-30.898438-.871094-58.390625 19.496094-66.558594 49.308594l-7.9375 32.171875c-2.371094 9.636719-3.605469 19.523437-3.667969 29.453125h85.332032c4.714843 0 8.535156 3.820312 8.535156 8.53125 0 4.714844-3.820313 8.535156-8.535156 8.535156zm0 0"/><path d="m503.464844 512h-93.863282c-4.714843 0-8.535156-3.820312-8.535156-8.535156 0-4.710938 3.820313-8.53125 8.535156-8.53125h85.332032c-.066406-9.921875-1.300782-19.804688-3.675782-29.441406l-7.9375-32.167969c-8.160156-29.820313-35.648437-50.191407-66.550781-49.324219h-7.9375c-4.710937 0-8.535156-3.820312-8.535156-8.535156 0-4.710938 3.824219-8.53125 8.535156-8.53125h7.9375c38.761719-.890625 73.105469 24.851562 83.125 62.308594l7.933594 32.15625c2.78125 11.28125 4.179687 22.855468 4.171875 34.472656v7.59375c0 4.714844-3.820312 8.535156-8.535156 8.535156zm0 0"/><path d="m290.132812 273.066406h-34.132812c-42.183594 0-42.667969-24.558594-42.667969-25.601562 0-4.710938 3.820313-8.53125 8.535157-8.53125 4.710937 0 8.53125 3.820312 8.53125 8.53125.402343 2.648437 6.292968 8.535156 25.601562 8.535156h34.132812c4.714844 0 8.535157 3.820312 8.535157 8.535156 0 4.710938-3.820313 8.53125-8.535157 8.53125zm0 0"/><path d="m385.476562 358.398438c-4.714843 0-8.535156-3.820313-8.535156-8.53125 0-4.714844 3.820313-8.535157 8.535156-8.535157 70.414063 0 87.355469-33.691406 91.296876-46.898437-22.757813-14.96875-26.046876-42.433594-31.257813-85.84375-2.28125-19.050782-5.132813-42.769532-10.175781-70.535156-15.113282-83.121094-90.289063-120.988282-153.738282-120.988282-74.394531 0-107.636718 12.492188-111.835937 20.882813-3.550781 7.09375-11.957031 8.757812-22.597656 10.867187-18.375 3.640625-43.542969 8.632813-53.742188 39.21875-4.957031 21.082032-7.410156 42.675782-7.308593 64.332032-2.441407 53.609374-5.460938 119.707031-50.449219 142.648437 4.75 13.859375 22.445312 46.316406 83.796875 46.316406 4.714844 0 8.535156 3.820313 8.535156 8.535157 0 4.710937-3.820312 8.53125-8.535156 8.53125-91.671875 0-102.214844-66.386719-102.3125-67.058594-.570313-3.964844 1.699218-7.789063 5.449218-9.199219 41.214844-15.449219 44.007813-76.597656 46.46875-130.558594-.113281-23.230469 2.632813-46.386719 8.171876-68.949219 13.328124-39.992187 46.683593-46.609374 66.609374-50.558593 3.796876-.605469 7.539063-1.527344 11.183594-2.75 15.082032-26.441407 93.316406-29.324219 126.566406-29.324219 70.308594 0 153.664063 42.25 170.523438 135.007812 5.140625 28.265626 8.019531 52.265626 10.332031 71.558594 5.632813 46.957032 8.683594 66.402344 27.761719 75.933594 3.144531 1.574219 5.003906 4.921875 4.679688 8.425781-.066407.675781-7.5 67.472657-109.421876 67.472657zm0 0"/><path d="m128 238.933594c-3.449219 0-6.5625-2.078125-7.882812-5.269532-1.320313-3.1875-.589844-6.855468 1.851562-9.296874 12.824219-12.824219 20.796875-38.050782 27.839844-60.308594 1.433594-4.542969 2.832031-8.960938 4.234375-13.160156 7.273437-21.824219 25.40625-60.421876 65.125-73.65625 30.546875-10.226563 128.03125 51.941406 138.332031 72.539062 7.921875 18.09375 18.929688 34.667969 32.53125 48.984375 3.234375 3.347656 3.191406 8.667969-.101562 11.960937-3.292969 3.292969-8.613282 3.335938-11.960938.105469-14.917969-15.601562-27.011719-33.675781-35.734375-53.421875-2.550781-5.089844-23.324219-22.324218-54.234375-40.15625-33.949219-19.59375-56.699219-26.027344-63.433594-23.835937-32.675781 10.894531-48.066406 44.070312-54.339844 62.875-1.367187 4.117187-2.742187 8.449219-4.152343 12.902343-7.625 24.125-16.265625 51.464844-32.042969 67.234376-1.59375 1.601562-3.765625 2.503906-6.03125 2.503906zm0 0"/><path d="m256.050781 409.492188-.226562-.007813c-3.144531-.039063-6.011719-1.804687-7.457031-4.601563-.191407-.316406-7.390626-12.347656-35.035157-12.347656-24.226562-.402344-45.144531-17.074218-50.941406-40.601562-1.117187-4.558594 1.660156-9.164063 6.214844-10.304688 4.554687-1.136718 9.175781 1.621094 10.332031 6.171875.296875 1.089844 7.519531 27.664063 34.394531 27.664063 15.289063-.984375 30.425781 3.539062 42.667969 12.75 12.242188-9.210938 27.378906-13.734375 42.667969-12.75 26.875 0 34.097656-26.574219 34.398437-27.707032 1.25-4.453124 5.820313-7.097656 10.304688-5.96875 4.484375 1.132813 7.25 5.632813 6.238281 10.144532-5.800781 23.527344-26.714844 40.195312-50.941406 40.601562-27.644531 0-34.84375 12.03125-35.144531 12.546875-1.53125 2.691407-4.375 4.367188-7.472657 4.410157zm0 0"/><path d="m179.199219 512h-8.53125c-28.265625-.03125-51.171875-22.9375-51.203125-51.199219 0-4.714843 3.824218-8.535156 8.535156-8.535156s8.535156 3.820313 8.535156 8.535156c.015625 18.84375 15.289063 34.113281 34.132813 34.132813h8.53125c4.714843 0 8.535156 3.820312 8.535156 8.53125 0 4.714844-3.820313 8.535156-8.535156 8.535156zm0 0"/><path d="m341.332031 512h-8.53125c-4.714843 0-8.535156-3.820312-8.535156-8.535156 0-4.710938 3.820313-8.53125 8.535156-8.53125h8.53125c18.84375-.019532 34.117188-15.289063 34.132813-34.132813 0-4.714843 3.824218-8.535156 8.535156-8.535156s8.535156 3.820313 8.535156 8.535156c-.03125 28.261719-22.9375 51.167969-51.203125 51.199219zm0 0"/><path d="m256 512c-4.710938 0-8.535156-3.820312-8.535156-8.535156v-68.265625c0-4.710938 3.824218-8.53125 8.535156-8.53125s8.535156 3.820312 8.535156 8.53125v68.265625c0 4.714844-3.824218 8.535156-8.535156 8.535156zm0 0"/><path d="m264.535156 443.734375h-17.070312c-9.417969-.015625-17.050782-7.648437-17.066406-17.066406v-17.066407c.015624-9.421874 7.648437-17.054687 17.066406-17.066406h17.070312c9.417969.011719 17.050782 7.644532 17.066406 17.066406v17.066407c-.015624 9.417969-7.648437 17.050781-17.066406 17.066406zm-17.070312-34.132813v17.066407h17.085937l-.015625-17.066407zm0 0"/></svg>