<svg height="512pt" viewBox="0 0 512.00007 512" width="512pt" xmlns="http://www.w3.org/2000/svg"><path d="m187.734375 290.132812h136.53125v76.800782h-136.53125zm0 0" fill="#fec108"/><path d="m503.464844 495.871094.003906 7.59375h-494.933594v-7.59375c-.015625-10.929688 1.300782-21.816406 3.921875-32.425782l7.9375-32.171874c9.203125-33.558594 40.046875-56.558594 74.835938-55.808594h321.539062c34.789063-.75 65.632813 22.25 74.835938 55.808594l7.9375 32.171874c2.621093 10.609376 3.9375 21.496094 3.921875 32.425782zm0 0" fill="#f44335"/><path d="m435.199219 503.464844h-358.398438l26.453125-128 2.472656-11.945313c2.945313-8.820312 11.558594-14.46875 20.824219-13.652343h52.648438c18.96875 5.789062 36.953125 14.421874 53.335937 25.597656 9.75 6.539062 17.796875 15.316406 23.464844 25.601562 5.667969-10.285156 13.714844-19.0625 23.464844-25.601562 16.382812-11.175782 34.367187-19.808594 53.335937-25.597656h52.648438c9.285156-.816407 17.921875 4.824218 20.90625 13.652343l2.476562 11.945313zm0 0" fill="#c81e1e"/><path d="m332.800781 349.867188s-59.734375 17.066406-76.800781 51.199218c-17.066406-34.132812-76.800781-51.199218-76.800781-51.199218zm0 0" fill="#ffdc00"/><path d="m397.398438 122.195312c59.136718-73.128906-21.933594-113.664062-21.933594-113.664062 5.035156 34.988281-7.59375 52.394531-18.855469 60.84375h-201.21875c-11.261719-8.449219-23.890625-25.855469-18.855469-60.84375 0 0-81.070312 40.535156-21.933594 113.664062zm0 0" fill="#f5f5f5"/><path d="m128.597656 255.144531c3.761719 29.785157 29.117188 52.101563 59.136719 52.054688h136.53125c30.019531.046875 55.375-22.269531 59.136719-52.054688l-33.535156-178.34375h-204.800782zm0 0" fill="#fec108"/><path d="m153.601562 255.144531c2.949219 29.355469 23.042969 52.054688 47.527344 52.054688h109.742188c24.484375 0 44.578125-22.699219 47.527344-52.054688v-178.34375h-196.265626zm0 0" fill="#ffdc00"/><path d="m256 42.664062c204.800781 0 145.066406 213.335938 145.066406 213.335938s-59.734375 0-51.199218-17.066406c8.53125-17.066406 25.597656-110.933594-25.601563-110.933594s-68.265625 25.597656-68.265625 25.597656-17.066406-25.597656-68.265625-25.597656-34.132813 93.867188-25.601563 110.933594c8.535157 17.066406-51.199218 17.066406-51.199218 17.066406s-59.734375-213.335938 145.066406-213.335938zm0 0" fill="#c81e1e"/><path d="m299.734375 242.664062c-4.707031 14.523438-26.84375 21.660157-38.832031 23.757813-12.015625 2.105469-34.261719 4.0625-43.617188-8 13.980469.84375 28.011719.101563 41.828125-2.210937 14-3.003907 27.621094-7.546876 40.621094-13.546876zm0 0"/><path d="m232.042969 172.5c-7.402344-4.460938-15.445313-7.765625-23.84375-9.796875-11.230469-3.050781-23.101563-2.8125-34.199219.691406 3.964844-14.445312 38.523438-10.808593 54.417969-3.839843 2.570312.832031 4.554687 2.894531 5.285156 5.5.726563 2.601562.105469 5.398437-1.660156 7.445312zm0 0"/><path d="m230.398438 189.277344c0-10.101563-7.640626-18.289063-17.066407-18.289063s-17.066406 8.1875-17.066406 18.289063c0 10.105468 7.640625 18.292968 17.066406 18.292968s17.066407-8.1875 17.066407-18.292968zm0 0"/><path d="m218.117188 173.40625c-4.40625-1.675781-9.332032.539062-11.007813 4.941406-1.675781 4.40625.535156 9.335938 4.941406 11.011719s9.335938-.539063 11.007813-4.945313c1.675781-4.402343-.535156-9.332031-4.941406-11.007812zm0 0" fill="#fff"/><path d="m279.046875 174.289062c6.050781-7.96875 14.457031-13.828124 24.027344-16.742187 12.871093-3.433594 26.5625.914063 35.09375 11.140625-.132813-.125.132812-2.847656.085937-3.269531-.140625-1.109375-.4375-2.1875-.886718-3.207031-1.003907-2.179688-2.480469-4.109376-4.320313-5.648438-4.582031-3.71875-10.035156-6.210938-15.84375-7.242188-7.722656-1.746093-15.773437-1.347656-23.28125 1.152344-4.523437 1.5625-8.683594 4.011719-12.238281 7.210938-3.136719 2.871094-7.777344 8.152344-5.761719 12.960937.933594 1.304688 1.976563 2.523438 3.125 3.644531zm0 0"/><path d="m315.734375 189.277344c0-10.101563-7.640625-18.289063-17.066406-18.289063s-17.066407 8.1875-17.066407 18.289063c0 10.105468 7.640626 18.292968 17.066407 18.292968s17.066406-8.1875 17.066406-18.292968zm0 0"/><path d="m304.890625 178.347656c-1.675781-4.40625-6.605469-6.617187-11.007813-4.941406-4.40625 1.675781-6.617187 6.605469-4.941406 11.007812 1.671875 4.40625 6.601563 6.617188 11.007813 4.945313 4.40625-1.675781 6.617187-6.605469 4.941406-11.011719zm0 0" fill="#fff"/><path d="m435.199219 512h-358.398438c-2.566406 0-4.996093-1.15625-6.617187-3.144531s-2.261719-4.601563-1.742188-7.113281l28.910156-139.929688c3.726563-12.84375 15.886719-21.359375 29.230469-20.480469h258.894531c13.359376-.882812 25.53125 7.664063 29.230469 20.535157l28.855469 139.875c.519531 2.511718-.121094 5.125-1.742188 7.117187-1.621093 1.988281-4.054687 3.140625-6.621093 3.140625zm-347.925781-17.066406h337.453124l-26.742187-129.667969c-2.257813-4.742187-7.296875-7.507813-12.507813-6.867187h-258.894531c-5.199219-.632813-10.226562 2.109374-12.507812 6.828124zm0 0"/><path d="m324.265625 358.398438h-136.53125c-4.714844 0-8.535156-3.820313-8.535156-8.53125v-42.667969c0-4.714844 3.820312-8.535157 8.535156-8.535157h136.53125c4.714844 0 8.535156 3.820313 8.535156 8.535157v42.667969c0 4.710937-3.820312 8.53125-8.535156 8.53125zm-128-17.066407h119.46875v-25.597656h-119.46875zm0 0"/><path d="m324.265625 315.734375h-136.53125c-34.304687-.003906-63.257813-25.5-67.601563-59.527344-.519531-4.640625 2.789063-8.839843 7.421876-9.417969 4.636718-.578124 8.875 2.675782 9.511718 7.300782 3.265625 25.492187 24.96875 44.582031 50.667969 44.574218h136.53125c25.699219.007813 47.402344-19.082031 50.667969-44.574218.34375-3.054688 2.300781-5.691406 5.128906-6.898438 2.828125-1.207031 6.085938-.796875 8.53125 1.066406 2.441406 1.867188 3.695312 4.902344 3.273438 7.949219-4.34375 34.027344-33.296876 59.523438-67.601563 59.527344zm0 0"/><path d="m102.398438 512h-93.863282c-4.714844 0-8.535156-3.820312-8.535156-8.535156v-7.59375c-.0078125-11.621094 1.394531-23.199219 4.175781-34.484375l7.9375-32.15625c10.023438-37.449219 44.359375-63.1875 83.117188-62.296875h8.023437c4.710938 0 8.53125 3.820312 8.53125 8.53125 0 4.714844-3.820312 8.535156-8.53125 8.535156h-8.023437c-30.898438-.871094-58.390625 19.492188-66.558594 49.308594l-7.9375 32.167968c-2.371094 9.640626-3.605469 19.527344-3.667969 29.457032h85.332032c4.714843 0 8.535156 3.820312 8.535156 8.53125 0 4.714844-3.820313 8.535156-8.535156 8.535156zm0 0"/><path d="m503.464844 512h-93.863282c-4.714843 0-8.535156-3.820312-8.535156-8.535156 0-4.710938 3.820313-8.53125 8.535156-8.53125h85.332032c-.066406-9.925782-1.300782-19.804688-3.675782-29.441406l-7.9375-32.171876c-8.160156-29.816406-35.648437-50.191406-66.550781-49.320312h-7.9375c-4.710937 0-8.535156-3.820312-8.535156-8.535156 0-4.710938 3.824219-8.53125 8.535156-8.53125h7.9375c38.761719-.890625 73.105469 24.851562 83.125 62.308594l7.933594 32.15625c2.78125 11.28125 4.179687 22.855468 4.171875 34.472656v7.59375c0 4.714844-3.820312 8.535156-8.535156 8.535156zm0 0"/><path d="m401.066406 264.53125c-14.78125 0-50.074218-1.457031-58.433594-14.988281-2.714843-4.386719-2.867187-9.894531-.398437-14.421875 6.214844-12.433594 15.414063-65.300782 1.347656-88.066406-3.914062-6.894532-11.398437-10.972657-19.316406-10.523438-45.347656 0-60.589844 20.992188-61.222656 21.886719-1.652344 2.289062-4.296875 3.65625-7.117188 3.671875-2.816406-.015625-5.445312-1.421875-7.027343-3.753906-.574219-.8125-15.816407-21.804688-61.164063-21.804688-7.914063-.449219-15.402344 3.625-19.316406 10.519531-14.066407 22.765625-4.867188 75.632813 1.347656 88.0625 2.472656 4.53125 2.316406 10.039063-.398437 14.425781-8.359376 13.535157-43.652344 14.992188-58.433594 14.992188-3.824219 0-7.183594-2.546875-8.21875-6.226562-1.191406-4.242188-28.507813-104.621094 21.328125-170.320313 27.097656-35.734375 71.5-53.851563 131.957031-53.851563s104.859375 18.117188 131.957031 53.84375c49.835938 65.703126 22.519531 166.078126 21.328125 170.316407-1.03125 3.6875-4.390625 6.238281-8.21875 6.238281zm-42.890625-23.234375c11.613281 4.136719 23.871094 6.183594 36.199219 6.042969 4.925781-22.414063 17.976562-99.023438-20.058594-149.097656-23.707031-31.21875-63.515625-47.042969-118.316406-47.042969s-94.609375 15.824219-118.316406 47.042969c-38.023438 50.066406-24.984375 126.671874-20.058594 149.097656 12.328125.132812 24.582031-1.910156 36.199219-6.042969-7.523438-17.171875-18.117188-73.789063.078125-103.214844 7.035156-11.914062 20-19.046875 33.832031-18.617187 37.433594 0 58.40625 13 68.265625 21.71875 9.859375-8.71875 30.832031-21.71875 68.265625-21.71875 13.832031-.429688 26.796875 6.703125 33.835937 18.617187 18.207032 29.457031 7.574219 86.171875.074219 103.214844zm0 0"/><path d="m114.609375 130.730469c-2.582031.003906-5.023437-1.160157-6.644531-3.167969-19.523438-24.140625-26.941406-47.820312-22.046875-70.390625 7.90625-36.457031 45.214843-55.484375 46.796875-56.273437 2.84375-1.417969 6.234375-1.140626 8.808594.71875 2.574218 1.855468 3.90625 4.988281 3.457031 8.132812-3.496094 24.296875 1.878906 42.558594 15.53125 52.796875 2.4375 1.832031 3.71875 4.820313 3.351562 7.847656-.363281 3.027344-2.316406 5.628907-5.121093 6.828125-2.800782 1.199219-6.03125.808594-8.46875-1.019531-15.597657-12.207031-24.320313-31.207031-23.410157-50.992187-11.882812 8.816406-20.441406 21.386718-24.292969 35.675781-3.699218 17.238281 2.585938 36.066406 18.660157 55.949219 2.066406 2.554687 2.480469 6.070312 1.066406 9.035156-1.414063 2.96875-4.40625 4.859375-7.691406 4.863281zm0 0"/><path d="m397.390625 130.730469c-3.285156-.003907-6.277344-1.894531-7.691406-4.863281-1.414063-2.964844-1-6.480469 1.066406-9.039063 16.109375-19.921875 22.375-38.78125 18.632813-56.039063-3.835938-14.273437-12.390626-26.832031-24.265626-35.632812.929688 19.800781-7.792968 38.828125-23.40625 51.046875-3.769531 2.828125-9.117187 2.0625-11.945312-1.707031-2.828125-3.769532-2.0625-9.121094 1.707031-11.949219 13.652344-10.238281 19.027344-28.5 15.523438-52.796875-.445313-3.144531.886719-6.277344 3.460937-8.136719 2.574219-1.855469 5.96875-2.132812 8.8125-.714843 1.582032.792968 38.890625 19.816406 46.796875 56.277343 4.894531 22.566407-2.523437 46.25-22.046875 70.390625-1.621094 2.003906-4.066406 3.167969-6.644531 3.164063zm0 0"/><path d="m256 409.597656c-3.230469 0-6.1875-1.824218-7.632812-4.714844-15.167969-30.34375-70.949219-46.648437-71.515626-46.816406-4.492187-1.328125-7.070312-6.027344-5.785156-10.53125 1.289063-4.5 5.964844-7.125 10.476563-5.878906 2.304687.660156 50.699219 14.777344 74.457031 43.925781 23.761719-29.148437 72.160156-43.265625 74.460938-43.925781 4.511718-1.246094 9.1875 1.378906 10.472656 5.878906 1.289062 4.503906-1.289063 9.203125-5.78125 10.53125-.566406.167969-56.347656 16.472656-71.515625 46.816406-1.445313 2.890626-4.402344 4.71875-7.636719 4.714844zm0 0"/><path d="m256 512c-4.710938 0-8.535156-3.820312-8.535156-8.535156v-68.265625c0-4.714844 3.824218-8.535157 8.535156-8.535157s8.535156 3.820313 8.535156 8.535157v68.265625c0 4.714844-3.824218 8.535156-8.535156 8.535156zm0 0"/><path d="m187.734375 401.066406c-2.222656.003906-4.359375-.863281-5.953125-2.417968-5.609375-4.316407-12.578125-6.488282-19.648438-6.117188-4.710937 0-8.53125-3.820312-8.53125-8.53125 0-4.714844 3.820313-8.535156 8.53125-8.535156 11.566407-.5 22.886719 3.449218 31.632813 11.035156 2.441406 2.441406 3.171875 6.109375 1.851563 9.296875-1.320313 3.1875-4.433594 5.269531-7.882813 5.269531zm0 0"/><path d="m324.300781 400.992188c-3.4375.007812-6.542969-2.054688-7.867187-5.222657-1.328125-3.171875-.617188-6.828125 1.800781-9.269531 8.746094-7.585938 20.066406-11.535156 31.632813-11.035156 4.710937 0 8.53125 3.820312 8.53125 8.535156 0 4.710938-3.820313 8.53125-8.53125 8.53125-7.078126-.378906-14.058594 1.796875-19.667969 6.136719-1.597657 1.496093-3.707031 2.324219-5.898438 2.324219zm0 0"/></svg>