<svg height="512pt" viewBox="0 0 512 512.00285" width="512pt" xmlns="http://www.w3.org/2000/svg"><path d="m187.734375 290.136719h136.535156v76.800781h-136.535156zm0 0" fill="#fec108"/><path d="m503.46875 495.875v7.59375h-494.933594v-7.59375c-.015625-10.929688 1.300782-21.816406 3.925782-32.425781l7.933593-32.171875c9.207031-33.558594 40.050781-56.558594 74.839844-55.808594h322.21875c34.558594-.5 65.070313 22.460938 74.152344 55.808594l7.9375 32.171875c2.621093 10.609375 3.941406 21.496093 3.925781 32.425781zm0 0" fill="#ffdc00"/><path d="m435.203125 503.46875h-358.402344l26.453125-128 2.476563-11.945312c2.945312-8.820313 11.558593-14.46875 20.820312-13.652344h214.785157l-90.199219 101.375-1.195313 1.363281 56.492188 42.15625 1.195312-1.367187 101.886719-114.601563 1.878906 9.132813.253907 1.277343zm0 0" fill="#02a9f4"/><path d="m409.515625 378.796875-101.886719 114.601563-1.195312 1.367187-56.492188-42.15625 1.195313-1.363281 90.199219-101.375h44.117187c9.28125-.816406 17.917969 4.824218 20.90625 13.652344l.765625 3.582031zm0 0" fill="#3f51b5"/><path d="m307.203125 503.214844v.253906h-102.402344c.023438-22.71875 14.988281-42.71875 36.78125-49.152344 2.734375-.796875 5.53125-1.367187 8.359375-1.707031 2.011719-.242187 4.035156-.355469 6.058594-.339844 1.878906 0 3.671875.085938 5.460938.257813 19.042968 2.042968 35.34375 14.558594 42.242187 32.425781 1.257813 3.164063 2.171875 6.453125 2.730469 9.8125.515625 2.785156.773437 5.613281.769531 8.449219zm0 0" fill="#ffeb3a"/><path d="m384 213.335938v34.132812c.011719 15.847656-6.277344 31.046875-17.480469 42.25-11.207031 11.207031-26.40625 17.496094-42.25 17.484375h-136.535156c-15.84375.011719-31.046875-6.277344-42.25-17.484375-11.203125-11.203125-17.496094-26.402344-17.484375-42.25v-34.132812c0-42.667969 51.203125-51.199219 85.335938-76.800782 20.980468-14.558594 46.589843-20.878906 71.933593-17.75 21.976563 22.851563 46.582031 43.015625 73.300781 60.078125 16.984376 8.617188 25.429688 34.472657 25.429688 34.472657zm0 0" fill="#fec108"/><path d="m358.402344 213.335938v34.132812c0 33.023438-21.367188 59.734375-47.789063 59.734375h-109.226562c-26.417969 0-47.785157-26.710937-47.785157-59.734375v-34.132812c0-42.667969 40.960938-51.199219 68.265626-76.800782 15.542968-14.261718 36.675781-20.777344 57.550781-17.75 17.039062 22.328125 36.730469 42.5 58.640625 60.078125 13.585937 8.617188 20.34375 34.472657 20.34375 34.472657zm0 0" fill="#ffdc00"/><path d="m285.269531 118.785156c-25.34375-3.128906-50.953125 3.191406-71.933593 17.75-34.132813 25.601563-85.335938 34.132813-85.335938 76.800782v34.132812c-18.941406-12.628906-37.886719-43.859375-46.335938-83.457031v-.082031c-1.523437-6.734376-2.691406-13.539063-3.496093-20.394532-.890625-7.992187-1.347657-16.027344-1.367188-24.066406-.300781-18.972656 4.628907-37.660156 14.25-54.015625 4.179688-6.976563 9.257813-13.375 15.105469-19.027344 15.394531-15.042969 34.851562-25.246093 55.980469-29.355469 26.84375-4.5 54.386719 1.617188 76.796875 17.066407l.597656.085937c-.910156 5.066406-.765625 10.265625.425781 15.273438 2.261719 9.488281 6.066407 18.542968 11.265625 26.792968 2.644532 4.4375 5.71875 8.875 9.046875 13.398438 7.65625 10.261719 16.011719 19.984375 25 29.097656zm0 0" fill="#02a9f4"/><path d="m430.847656 138.070312c-2.011718 32.097657-12.589844 63.066407-30.632812 89.6875-4.796875 7.046876-10.222656 13.644532-16.214844 19.710938v-34.132812s-8.445312-25.855469-25.429688-34.472657c-26.71875-17.0625-51.324218-37.226562-73.300781-60.078125-21.671875-22.269531-40.703125-47.273437-45.3125-69.289062-1.191406-5.007813-1.335937-10.207032-.425781-15.273438 6.484375-34.476562 70.058594-26.882812 85.164062-19.199218 0 0 84.90625-6.488282 101.972657 70.3125 3.886719 17.292968 5.292969 35.046874 4.179687 52.734374zm0 0" fill="#0377bc"/><g fill="#805333"><path d="m351.402344 349.871094-89 100.007812c-1.601563 1.863282-3.945313 2.925782-6.402344 2.902344-1.738281.003906-3.4375-.535156-4.863281-1.535156-.253907-.171875-29.011719 18.347656-29.269531 18.089844-3.582032-3.15625 24.664062-27.222657 27.734374-30.804688l78.847657-88.660156zm0 0"/><path d="m411.394531 387.929688-92.503906 104.105468c-1.707031 1.960938-9.300781 11.433594-11.6875 11.433594-1.707031 0 1.875-9.042969.425781-10.070312-.277344-.171876-.535156-.371094-.769531-.59375-1.699219-1.496094-2.734375-3.601563-2.878906-5.859376-.140625-2.257812.617187-4.476562 2.113281-6.175781l101.03125-113.664062 2.390625 11.691406zm0 0"/><path d="m315.734375 503.46875h-17.066406c.007812-2.199219-.164063-4.398438-.511719-6.570312v-.171876c0-.167968-.085938-.253906-.085938-.425781v-.171875c.011719-.09375-.019531-.1875-.085937-.253906-.539063-3.339844-1.546875-6.582031-2.984375-9.644531-5.921875-13.730469-18.691406-23.285157-33.539062-25.085938h-.082032c-1.78125-.246093-3.578125-.359375-5.378906-.339843-1.652344-.003907-3.304688.082031-4.949219.253906h-.167969c-.171874 0-.34375.085937-.511718.085937-21.222656 2.808594-37.070313 20.917969-37.035156 42.324219h-17.066407c-.058593-28.941406 20.726563-53.722656 49.234375-58.707031 1.109375-.257813 2.21875-.429688 3.414063-.597657 2.347656-.320312 4.714843-.460937 7.082031-.429687.601562-.011719 1.199219.015625 1.792969.085937 3.503906.046876 6.988281.445313 10.410156 1.195313 18.359375 3.757813 33.863281 15.96875 41.8125 32.9375 1.425781 2.890625 2.542969 5.921875 3.328125 9.046875.683594 2.058594 1.199219 4.171875 1.539062 6.316406.257813 1.378906.429688 2.777344.511719 4.179688.242188 1.980468.355469 3.976562.339844 5.972656zm0 0"/></g><path d="m296.34375 275.671875c-6.890625-13.496094-28.414062-15.402344-40.171875-15.402344-11.78125 0-33.273437 1.90625-40.171875 15.402344 13.148438-3.238281 26.632812-4.929687 40.171875-5.035156 13.542969.105469 27.023437 1.792969 40.171875 5.035156zm0 0"/><path d="m233.652344 175.695312c-8.113282-2.980468-16.628906-4.707031-25.261719-5.121093-11.601563-.875-23.210937 1.601562-33.449219 7.132812 1.167969-14.933593 35.789063-17.882812 52.714844-14.042969 2.679688.332032 5.019531 1.988282 6.222656 4.40625 1.207032 2.417969 1.121094 5.28125-.226562 7.625zm0 0"/><path d="m230.402344 202.082031c0-10.101562-7.640625-18.292969-17.066406-18.292969-9.425782 0-17.066407 8.191407-17.066407 18.292969 0 10.101563 7.640625 18.292969 17.066407 18.292969 9.425781 0 17.066406-8.191406 17.066406-18.292969zm0 0"/><path d="m218.121094 186.210938c-4.40625-1.675782-9.335938.535156-11.011719 4.941406s.539063 9.332031 4.941406 11.007812c4.40625 1.675782 9.335938-.535156 11.011719-4.941406s-.539062-9.332031-4.941406-11.007812zm0 0" fill="#fff"/><path d="m278.351562 175.695312c8.109376-2.980468 16.628907-4.707031 25.257813-5.121093 11.605469-.875 23.214844 1.601562 33.453125 7.132812-1.167969-14.933593-35.789062-17.882812-52.714844-14.042969-2.683594.332032-5.019531 1.988282-6.226562 4.40625-1.203125 2.417969-1.117188 5.28125.230468 7.625zm0 0"/><path d="m315.734375 202.082031c0-10.101562-7.640625-18.292969-17.066406-18.292969s-17.066407 8.191407-17.066407 18.292969c0 10.101563 7.640626 18.292969 17.066407 18.292969s17.066406-8.191406 17.066406-18.292969zm0 0"/><path d="m304.894531 191.152344c-1.675781-4.40625-6.605469-6.617188-11.011719-4.941406-4.402343 1.675781-6.617187 6.601562-4.941406 11.007812 1.675782 4.40625 6.605469 6.617188 11.007813 4.941406 4.40625-1.675781 6.621093-6.601562 4.945312-11.007812zm0 0" fill="#fff"/><path d="m435.203125 512.003906h-358.402344c-2.566406 0-4.996093-1.15625-6.617187-3.144531s-2.257813-4.601563-1.742188-7.113281l28.910156-139.929688c3.726563-12.84375 15.886719-21.359375 29.230469-20.480468h258.890625c13.359375-.878907 25.527344 7.664062 29.242188 20.527343l28.839844 139.882813c.519531 2.511718-.117188 5.125-1.738282 7.113281s-4.050781 3.144531-6.613281 3.144531zm-347.925781-17.066406h337.453125l-26.742188-129.667969c-2.265625-4.738281-7.300781-7.503906-12.515625-6.867187h-258.890625c-5.199219-.632813-10.226562 2.109375-12.503906 6.828125zm0 0"/><path d="m324.269531 358.402344h-136.535156c-4.710937 0-8.53125-3.820313-8.53125-8.53125v-42.667969c0-4.714844 3.820313-8.535156 8.53125-8.535156h136.535156c4.710938 0 8.53125 3.820312 8.53125 8.535156v42.667969c0 4.710937-3.820312 8.53125-8.53125 8.53125zm-128-17.066406h119.464844v-25.601563h-119.464844zm0 0"/><path d="m324.269531 315.734375h-136.535156c-37.683594-.042969-68.222656-30.582031-68.265625-68.265625v-34.132812c0-35.070313 28.738281-50.082032 56.53125-64.597657 11.226562-5.480469 21.996094-11.84375 32.214844-19.027343 22.714844-15.878907 50.503906-22.792969 78.011718-19.410157 1.960938.222657 3.78125 1.113281 5.160157 2.527344 21.347656 22.15625 45.191406 41.761719 71.058593 58.421875 19.890626 10.101562 29.277344 38.242188 29.667969 39.433594.28125.859375.421875 1.753906.421875 2.652344v34.132812c-.042968 37.683594-30.582031 68.222656-68.265625 68.265625zm-51.53125-189.097656c-19.421875-.386719-38.453125 5.476562-54.285156 16.734375-10.945313 7.746094-22.5 14.601562-34.546875 20.488281-25.421875 13.277344-47.371094 24.742187-47.371094 49.476563v34.132812c.03125 28.265625 22.9375 51.167969 51.199219 51.199219h136.535156c28.261719-.03125 51.167969-22.933594 51.199219-51.199219v-32.691406c-2.582031-7.082032-10.15625-22.925782-20.757812-28.308594-26.722657-16.851562-51.34375-36.824219-73.351563-59.488281-2.433594-.203125-5.351563-.34375-8.621094-.34375zm0 0"/><path d="m102.402344 512.003906h-93.867188c-4.714844 0-8.535156-3.820312-8.535156-8.535156v-7.59375c-.0078125-11.625 1.390625-23.207031 4.175781-34.492188l7.9375-32.148437c10.019531-37.453125 44.359375-63.191406 83.121094-62.296875h8.019531c4.714844 0 8.535156 3.820312 8.535156 8.53125 0 4.714844-3.820312 8.535156-8.535156 8.535156h-8.019531c-30.898437-.875-58.390625 19.492188-66.550781 49.308594l-7.941406 32.167969c-2.378907 9.640625-3.609376 19.527343-3.667969 29.457031h85.328125c4.710937 0 8.53125 3.820312 8.53125 8.53125 0 4.714844-3.820313 8.535156-8.53125 8.535156zm0 0"/><path d="m503.46875 512.003906h-93.867188c-4.714843 0-8.535156-3.820312-8.535156-8.535156 0-4.710938 3.820313-8.53125 8.535156-8.53125h85.332032c-.058594-9.921875-1.289063-19.800781-3.667969-29.433594l-7.9375-32.183594c-8.160156-29.820312-35.65625-50.191406-66.558594-49.316406h-7.9375c-4.710937 0-8.53125-3.820312-8.53125-8.535156 0-4.710938 3.820313-8.53125 8.53125-8.53125h7.9375c38.765625-.890625 73.105469 24.851562 83.125 62.308594l7.9375 32.15625c2.78125 11.28125 4.183594 22.855468 4.167969 34.472656v7.59375c0 4.714844-3.820312 8.535156-8.53125 8.535156zm0 0"/><path d="m384 256.003906c-3.449219 0-6.5625-2.078125-7.882812-5.265625-1.324219-3.191406-.59375-6.859375 1.847656-9.300781 5.621094-5.699219 10.714844-11.898438 15.21875-18.519531 26.734375-39.84375 35.835937-88.953125 25.15625-135.730469-5.171875-27.394531-25.140625-49.644531-51.816406-57.734375-13.257813-4.4375-27.207032-6.445313-41.179688-5.925781-1.558594.125-3.125-.183594-4.515625-.898438-9.132813-4.644531-42.734375-9.730468-61.625-.417968-5.796875 2.355468-10.03125 7.453124-11.285156 13.582031-.691407 3.976562-.554688 8.054687.402343 11.976562 3.625 17.332031 18.519532 39.839844 43.074219 65.066407 3.25 3.382812 3.15625 8.757812-.207031 12.027343-3.363281 3.273438-8.734375 3.214844-12.027344-.128906-27.191406-27.941406-43.191406-52.671875-47.550781-73.488281-1.4375-6.179688-1.578125-12.589844-.417969-18.828125 2.265625-11.332031 9.902344-20.851563 20.472656-25.523438 22.757813-11.179687 59.5625-6.8398435 74.730469-.476562 14.457031-.40625 91.816407 1.5 108.601563 77.066406 11.691406 51.402344 1.652344 105.347656-27.742188 149.101563-5.09375 7.476562-10.855468 14.476562-17.214844 20.917968-1.601562 1.601563-3.773437 2.5-6.039062 2.5zm0 0"/><path d="m127.992188 256.003906c-1.679688 0-3.324219-.5-4.722657-1.433594-27.335937-18.21875-55-70.476562-55-135.101562-.484375-54.496094 38.511719-101.347656 92.191407-110.761719 29.226562-5.046875 59.265624 1.636719 83.59375 18.601563 3.675781 2.855468 4.386718 8.128906 1.597656 11.855468-2.789063 3.726563-8.050782 4.53125-11.828125 1.804688-20.496094-13.929688-45.550781-19.488281-70.015625-15.53125-36.199219 7.242188-78.472656 36.207031-78.472656 94.03125 0 55.902344 24.097656 105.367188 47.398437 120.902344 3.128906 2.085937 4.523437 5.976562 3.433594 9.574218-1.09375 3.601563-4.414063 6.0625-8.175781 6.058594zm0 0"/><path d="m80.300781 165.464844c-3.429687 0-6.527343-2.054688-7.859375-5.214844-1.335937-3.160156-.648437-6.808594 1.742188-9.269531 47.960937-48.242188 113.316406-75.160157 181.34375-74.691407h1.277344c3.050781.007813 5.863281 1.640626 7.382812 4.285157s1.511719 5.894531-.019531 8.53125-4.351563 4.257812-7.398438 4.253906c-.414062.023437-.828125.023437-1.238281 0-63.421875-.492187-124.371094 24.566406-169.113281 69.519531-1.605469 1.652344-3.8125 2.585938-6.117188 2.585938zm0 0"/><path d="m179.210938 68.269531c-.628907 0-1.25-.066406-1.863282-.199219-25.808594-6.433593-52.6875-7.300781-78.855468-2.550781-4.605469 1-9.148438-1.925781-10.148438-6.535156-1-4.605469 1.925781-9.148437 6.53125-10.148437 28.578125-5.371094 57.976562-4.492188 86.179688 2.566406 4.257812.9375 7.121093 4.929687 6.648437 9.261718-.472656 4.332032-4.136719 7.609376-8.492187 7.605469zm0 0"/><path d="m427.53125 171.609375c-3.191406 0-6.117188-1.777344-7.589844-4.609375-19.875-37.5-45.535156-71.632812-76.03125-101.148438-3.378906-3.289062-3.449218-8.695312-.160156-12.074218 3.289062-3.375 8.691406-3.449219 12.070312-.160156 31.796876 30.800781 58.550782 66.414062 79.28125 105.53125 1.363282 2.644531 1.253907 5.808593-.292968 8.355468-1.542969 2.542969-4.300782 4.097656-7.277344 4.105469zm0 0"/><path d="m332.800781 119.46875c-2.261719.003906-4.433593-.894531-6.03125-2.5-17.617187-18.449219-32.519531-39.308594-44.269531-61.953125-1.417969-2.730469-1.257812-6.019531.425781-8.597656 1.683594-2.578125 4.628907-4.050781 7.703125-3.851563 3.070313.199219 5.800782 2.042969 7.132813 4.816406 10.972656 20.976563 24.792969 40.332032 41.074219 57.515626 2.441406 2.441406 3.175781 6.113281 1.851562 9.300781-1.320312 3.191406-4.433594 5.273437-7.886719 5.269531zm0 0"/><path d="m307.203125 512.003906c-4.714844 0-8.535156-3.820312-8.535156-8.535156.007812-2.402344-.203125-4.800781-.628907-7.167969-3.421874-20.535156-21.21875-35.5625-42.039062-35.496093-1.652344-.019532-3.304688.070312-4.949219.265624-21.511719 2.511719-37.726562 20.742188-37.714843 42.398438 0 4.714844-3.820313 8.535156-8.535157 8.535156-4.710937 0-8.53125-3.820312-8.53125-8.535156-.027343-30.273438 22.613281-55.773438 52.675781-59.332031 2.34375-.285157 4.699219-.417969 7.054688-.402344 29.113281-.089844 54.015625 20.902344 58.847656 49.609375.597656 3.34375.894532 6.730469.886719 10.125 0 2.265625-.898437 4.433594-2.5 6.035156-1.597656 1.601563-3.769531 2.5-6.03125 2.5zm0 0"/><path d="m249.941406 461.144531c-3.359375 0-6.40625-1.976562-7.78125-5.042969-1.375-3.066406-.824218-6.65625 1.410156-9.164062l91.394532-102.742188c3.132812-3.519531 8.527344-3.835937 12.050781-.699218 3.519531 3.132812 3.832031 8.527344.699219 12.046875l-91.390625 102.742187c-1.621094 1.824219-3.945313 2.863282-6.382813 2.859375zm0 0"/><path d="m306.433594 503.304688c-3.359375-.003907-6.40625-1.976563-7.78125-5.039063-1.375-3.066406-.824219-6.652344 1.40625-9.164063l103.082031-115.972656c3.148437-3.445312 8.476563-3.71875 11.964844-.621094 3.488281 3.097657 3.839843 8.421876.792969 11.953126l-103.082032 115.976562c-1.617187 1.824219-3.941406 2.871094-6.382812 2.867188zm0 0"/></svg>