<svg height="512pt" viewBox="0 0 512.00016 512" width="512pt" xmlns="http://www.w3.org/2000/svg"><path d="m503.464844 495.871094.003906 7.59375h-494.933594v-7.59375c-.015625-10.925782 1.300782-21.816406 3.921875-32.425782l7.9375-32.171874c9.207031-33.554688 40.046875-56.558594 74.835938-55.808594h321.539062c34.789063-.75 65.632813 22.253906 74.835938 55.808594l7.9375 32.171874c2.621093 10.609376 3.9375 21.5 3.921875 32.425782zm0 0" fill="#3f51b5"/><path d="m435.199219 503.464844h-358.398438l26.453125-128 2.472656-11.945313c2.945313-8.820312 11.558594-14.46875 20.824219-13.652343h258.898438c9.285156-.816407 17.921875 4.824218 20.90625 13.652343l2.476562 11.945313zm0 0" fill="#02a9f4"/><path d="m358.398438 460.800781-25.597657 42.664063h-153.601562l-25.597657-42.664063 34.132813-34.132812h136.53125zm0 0" fill="#ffdc00"/><path d="m384 247.464844v-76.796875c.039062-6.089844-.648438-12.164063-2.046875-18.09375-5.890625-23.464844-27.222656-38.3125-49.496094-44.796875-15.328125-4.21875-31.21875-6.03125-47.101562-5.378906-11.308594-.375-21.789063 5.898437-26.796875 16.042968-2.558594 5.546875-2.558594 26.625-19.625 35.160156-22.441406 11.261719-34.132813 0-34.132813 0s15.617188-22.273437 1.535157-40.707031v-.082031c-.511719-.683594-1.023438-1.28125-1.535157-1.878906-6.648437-7.691406-16.886719-11.269532-26.878906-9.386719-12.925781 2.429687-24.484375 9.574219-32.429687 20.054687-10.964844 14.042969-17.101563 31.25-17.492188 49.066407v76.796875c-34.132812-8.53125-34.132812-85.332032-34.132812-145.066406 0-59.730469 68.265624-93.863282 162.132812-93.863282s96.597656 35.070313 119.464844 42.664063c51.203125 17.066406 59.734375 119.46875 8.535156 196.265625zm0 0" fill="#37474f"/><path d="m187.734375 307.199219h136.53125v42.667969h-136.53125zm0 0" fill="#dfc49c"/><path d="m384 170.667969v76.796875c.011719 15.847656-6.277344 31.046875-17.484375 42.253906-11.203125 11.203125-26.402344 17.492188-42.25 17.480469h-136.53125c-15.847656.011719-31.046875-6.277344-42.25-17.480469-11.207031-11.207031-17.496094-26.40625-17.484375-42.253906v-76.796875c.390625-17.816407 6.527344-35.023438 17.492188-49.066407 13.738281-17.835937 42.070312-30.039062 59.308593-10.667968 16.726563 18.773437 0 42.667968 0 42.667968s11.691407 11.261719 34.132813 0c17.066406-8.535156 17.066406-29.613281 19.625-35.160156 5.007812-10.144531 15.488281-16.417968 26.796875-16.042968 15.882812-.652344 31.773437 1.160156 47.101562 5.378906 22.273438 6.484375 43.605469 21.332031 49.496094 44.796875 1.398437 5.929687 2.085937 12.003906 2.046875 18.09375zm0 0" fill="#ffe0b2"/><path d="m365.738281 465.152344-22.953125 38.3125h-18.519531c.015625-1.527344.425781-3.027344 1.195313-4.351563l22.1875-36.949219-26.878907-26.964843h-129.539062l-26.878907 26.964843 22.1875 36.949219c.769532 1.324219 1.183594 2.824219 1.195313 4.351563h-18.519531l-22.953125-38.3125c-1.964844-3.363282-1.441407-7.625 1.28125-10.410156l34.132812-34.132813c1.625-1.574219 3.796875-2.460937 6.058594-2.476563h136.53125c2.261719.015626 4.433594.902344 6.058594 2.476563l34.132812 34.132813c2.722657 2.785156 3.246094 7.046874 1.28125 10.410156zm0 0" fill="#e64c3c"/><path d="m317.011719 426.667969v27.183593c.011719 1.460938-.726563 2.824219-1.957031 3.609376-1.230469.789062-2.78125.886718-4.101563.257812-16.257813-7.773438-61.46875-26.164062-89.085937-5.453125-26.796876 20.09375 32.511718 42.921875 74.582031 51.199219h-108.714844c-13.007813-24.957032-9.636719-55.304688 8.53125-76.796875 2.5625-3.160157 5.378906 2.558593 8.191406 0 3.410157-3.097657 7.03125-5.949219 10.839844-8.535157h58.453125zm0 0" fill="#c81e1e"/><path d="m299.734375 238.398438c-4.707031 14.523437-26.84375 21.660156-38.832031 23.757812-12.015625 2.105469-34.261719 4.0625-43.617188-8 13.980469.84375 28.011719.101562 41.828125-2.210938 14-3.003906 27.621094-7.546874 40.621094-13.546874zm0 0"/><path d="m232.042969 168.234375c-7.402344-4.460937-15.445313-7.765625-23.84375-9.796875-11.230469-3.050781-23.101563-2.8125-34.199219.691406 3.964844-14.445312 38.523438-10.808594 54.417969-3.839844 2.570312.832032 4.554687 2.894532 5.285156 5.5.726563 2.601563.105469 5.398438-1.660156 7.445313zm0 0"/><path d="m230.398438 185.011719c0-10.101563-7.640626-18.289063-17.066407-18.289063s-17.066406 8.1875-17.066406 18.289063c0 10.105469 7.640625 18.292969 17.066406 18.292969s17.066407-8.1875 17.066407-18.292969zm0 0"/><path d="m218.117188 169.140625c-4.40625-1.675781-9.332032.535156-11.007813 4.941406s.535156 9.335938 4.941406 11.011719c4.40625 1.671875 9.332031-.539062 11.007813-4.945312 1.675781-4.402344-.535156-9.332032-4.941406-11.007813zm0 0" fill="#fff"/><path d="m279.046875 170.023438c6.050781-7.96875 14.457031-13.828126 24.027344-16.742188 12.871093-3.433594 26.5625.914062 35.09375 11.140625-.132813-.128906.132812-2.847656.085937-3.273437-.140625-1.105469-.4375-2.183594-.886718-3.203126-1.003907-2.179687-2.480469-4.109374-4.320313-5.648437-4.582031-3.71875-10.035156-6.210937-15.84375-7.242187-7.722656-1.746094-15.773437-1.347657-23.28125 1.152343-4.523437 1.5625-8.683594 4.011719-12.238281 7.210938-3.136719 2.871093-7.777344 8.152343-5.761719 12.960937.933594 1.304688 1.976563 2.523438 3.125 3.644532zm0 0"/><path d="m315.734375 185.011719c0-10.101563-7.640625-18.289063-17.066406-18.289063s-17.066407 8.1875-17.066407 18.289063c0 10.105469 7.640626 18.292969 17.066407 18.292969s17.066406-8.1875 17.066406-18.292969zm0 0"/><path d="m304.890625 174.082031c-1.675781-4.402343-6.601563-6.617187-11.007813-4.941406s-6.617187 6.605469-4.941406 11.007813c1.675782 4.40625 6.601563 6.621093 11.007813 4.945312s6.617187-6.605469 4.941406-11.011719zm0 0" fill="#fff"/><path d="m435.199219 512h-358.398438c-2.566406 0-4.996093-1.152344-6.617187-3.144531-1.621094-1.988281-2.261719-4.601563-1.742188-7.113281l28.910156-139.929688c3.726563-12.839844 15.886719-21.359375 29.226563-20.480469h258.894531c13.359375-.875 25.527344 7.664063 29.238282 20.527344l28.84375 139.882813c.519531 2.511718-.121094 5.125-1.742188 7.113281-1.617188 1.988281-4.046875 3.144531-6.613281 3.144531zm-347.925781-17.066406h337.457031l-26.742188-129.667969c-2.265625-4.738281-7.304687-7.5-12.515625-6.867187h-258.894531c-5.199219-.632813-10.226563 2.113281-12.503906 6.828124zm0 0"/><path d="m324.265625 358.398438h-136.53125c-4.714844 0-8.535156-3.820313-8.535156-8.53125v-42.667969c0-4.710938 3.820312-8.53125 8.535156-8.53125h136.53125c4.714844 0 8.535156 3.820312 8.535156 8.53125v42.667969c0 4.710937-3.820312 8.53125-8.535156 8.53125zm-128-17.066407h119.46875v-25.597656h-119.46875zm0 0"/><path d="m324.265625 315.734375h-136.53125c-37.6875-.042969-68.222656-30.582031-68.269531-68.269531v-76.796875c.363281-19.710938 7.128906-38.769531 19.28125-54.292969 10.253906-13.65625 25.835937-22.308594 42.851562-23.789062 11.285156-.566407 22.199219 4.113281 29.574219 12.675781 10.46875 12.453125 12.578125 29.921875 5.375 44.507812 6.4375.78125 12.953125-.550781 18.5625-3.800781 7.859375-5.292969 12.84375-13.917969 13.503906-23.375.453125-2.644531 1.1875-5.234375 2.191407-7.722656 6.285156-13.125 19.683593-21.34375 34.234374-20.992188 16.78125-.679687 33.566407 1.242188 49.761719 5.691406 28.820313 8.390626 49.523438 27.421876 55.421875 50.933594 1.582032 6.601563 2.359375 13.371094 2.3125 20.164063v76.796875c-.046875 37.6875-30.582031 68.226562-68.269531 68.269531zm-141.207031-206.109375c-.285156 0-.566406.007812-.855469.015625-11.9375 1.300781-22.792969 7.523437-29.949219 17.167969-9.796875 12.5625-15.308594 27.933594-15.71875 43.859375v76.796875c.027344 28.265625 22.933594 51.171875 51.199219 51.203125h136.53125c28.265625-.03125 51.171875-22.9375 51.199219-51.203125v-76.796875c.046875-5.414063-.558594-10.808594-1.804688-16.078125-4.394531-17.5-20.6875-31.957032-43.585937-38.625-14.445313-3.96875-29.421875-5.671875-44.390625-5.039063-8.109375-.527343-15.746094 3.851563-19.386719 11.117188-.421875 1.363281-.757813 2.75-.996094 4.15625-1.574219 14.578125-9.929687 27.5625-22.546875 35.035156-27.5625 13.789063-43.226562-.859375-43.878906-1.492187-3.019531-2.914063-3.472656-7.59375-1.066406-11.035157.5-.722656 12.574218-18.671875.621094-32.097656-3.832032-4.5-9.464844-7.058594-15.371094-6.984375zm0 0"/><path d="m102.398438 512h-93.863282c-4.714844 0-8.535156-3.820312-8.535156-8.535156v-7.59375c-.0117188-11.621094 1.390625-23.207032 4.175781-34.492188l7.9375-32.148437c10.019531-37.453125 44.359375-63.1875 83.117188-62.296875h8.023437c4.710938 0 8.53125 3.820312 8.53125 8.53125 0 4.714844-3.820312 8.535156-8.53125 8.535156h-8.023437c-30.898438-.875-58.386719 19.496094-66.550781 49.308594l-7.9375 32.171875c-2.378907 9.636719-3.613282 19.523437-3.671876 29.453125h85.328126c4.714843 0 8.535156 3.820312 8.535156 8.53125 0 4.714844-3.820313 8.535156-8.535156 8.535156zm0 0"/><path d="m503.464844 512h-93.863282c-4.714843 0-8.535156-3.820312-8.535156-8.535156 0-4.710938 3.820313-8.53125 8.535156-8.53125h85.332032c-.058594-9.921875-1.289063-19.800782-3.667969-29.433594l-7.9375-32.183594c-8.160156-29.820312-35.65625-50.191406-66.558594-49.316406h-7.9375c-4.710937 0-8.535156-3.820312-8.535156-8.535156 0-4.710938 3.824219-8.53125 8.535156-8.53125h7.9375c38.761719-.890625 73.105469 24.851562 83.125 62.308594l7.933594 32.15625c2.785156 11.28125 4.183594 22.855468 4.171875 34.472656v7.59375c0 4.714844-3.820312 8.535156-8.535156 8.535156zm0 0"/><path d="m128.007812 256c-.699218 0-1.398437-.085938-2.078124-.257812-40.597657-10.140626-40.597657-86.226563-40.597657-153.34375 0-62.207032 66.992188-102.398438 170.667969-102.398438 70.75 0 93.261719 20.035156 108.160156 33.292969 3.976563 4.160156 8.738282 7.492187 14.007813 9.8125 18.972656 6.328125 33.347656 22.34375 41.578125 46.324219 16.234375 47.308593 4.722656 112.726562-28.644532 162.773437-1.679687 2.570313-4.605468 4.039063-7.667968 3.851563-3.0625-.191407-5.785156-2.007813-7.136719-4.761719-1.351563-2.753907-1.121094-6.019531.601563-8.554688 30.089843-45.132812 41.070312-105.898437 26.707031-147.765625-4.488281-13.085937-13.484375-29.882812-30.839844-35.675781-7.511719-2.960937-14.308594-7.476563-19.953125-13.25-13.742188-12.230469-32.554688-28.980469-96.8125-28.980469-93.308594 0-153.601562 33.492188-153.601562 85.332032 0 51.71875 0 129.867187 27.671874 136.789062 4.179688 1.046875 6.921876 5.042969 6.394532 9.320312-.523438 4.273438-4.148438 7.484376-8.457032 7.492188zm0 0"/><path d="m204.800781 119.464844c-2.265625.003906-4.4375-.894532-6.035156-2.5-17.59375-17.589844-23.804687-39.90625-16.210937-58.246094 6.6875-15.601562 22.359374-25.402344 39.3125-24.585938 4.710937 0 8.53125 3.820313 8.53125 8.535157 0 4.710937-3.820313 8.53125-8.53125 8.53125-10.023438-.753907-19.445313 4.863281-23.546876 14.042969-3.839843 9.28125-2.570312 24.574218 12.511719 39.65625 2.441407 2.441406 3.171875 6.113281 1.851563 9.300781-1.320313 3.1875-4.433594 5.265625-7.882813 5.265625zm0 0"/><path d="m332.792969 512c-3.074219-.003906-5.910157-1.660156-7.421875-4.332031-1.511719-2.675781-1.46875-5.957031.113281-8.59375l22.167969-36.949219-26.917969-26.925781h-129.46875l-26.917969 26.925781 22.167969 36.949219c2.382813 4.039062 1.0625 9.242187-2.957031 11.65625-4.019532 2.414062-9.234375 1.128906-11.675782-2.875l-25.597656-42.664063c-2.019531-3.355468-1.492187-7.65625 1.277344-10.425781l34.132812-34.132813c1.601563-1.601562 3.773438-2.5 6.039063-2.5h136.53125c2.265625 0 4.433594.902344 6.035156 2.5l34.132813 34.132813c2.769531 2.769531 3.296875 7.070313 1.28125 10.425781l-25.601563 42.667969c-1.542969 2.570313-4.324219 4.144531-7.320312 4.140625zm0 0"/></svg>