<svg height="512pt" viewBox="0 0 512.00012 512" width="512pt" xmlns="http://www.w3.org/2000/svg"><path d="m187.734375 256h136.53125v93.867188h-136.53125zm0 0" fill="#f44335"/><path d="m221.867188 8.535156h68.265624c4.714844 0 8.535157 3.820313 8.535157 8.53125v42.667969h-85.335938v-42.667969c0-4.710937 3.820313-8.53125 8.535157-8.53125zm0 0" fill="#f44335"/><path d="m384 102.398438v119.46875c.039062 19.585937-9.566406 37.9375-25.683594 49.066406-4.59375 3.257812-9.660156 5.789062-15.019531 7.507812-6.125 2.097656-12.554687 3.164063-19.03125 3.160156h-136.53125c-6.476563.003907-12.90625-1.0625-19.03125-3.160156-5.359375-1.71875-10.425781-4.25-15.019531-7.507812-16.117188-11.128906-25.722656-29.480469-25.683594-49.066406v-119.46875c-.015625-19.667969 9.65625-38.082032 25.855469-49.234376 4.613281-3.148437 9.640625-5.644531 14.933593-7.425781 6.109376-2.035156 12.503907-3.070312 18.945313-3.070312h136.53125c6.441406 0 12.835937 1.035156 18.945313 3.070312 5.292968 1.78125 10.320312 4.277344 14.933593 7.425781 16.199219 11.152344 25.871094 29.566407 25.855469 49.234376zm0 0" fill="#c81e1e"/><path d="m273.066406 153.601562s17.066406-51.203124 59.734375-68.269531c0 0 17.066407 17.066407 17.066407 68.269531 0 51.199219-68.265626 59.730469-76.800782 0zm0 0" fill="#f5f5f5"/><path d="m238.933594 153.601562s-17.066406-51.203124-59.734375-68.269531c0 0-17.066407 17.066407-17.066407 68.269531 0 51.199219 68.265626 59.730469 76.800782 0zm0 0" fill="#f5f5f5"/><path d="m409.601562 503.464844h93.867188l-.003906-7.59375c.015625-10.925782-1.300782-21.816406-3.921875-32.425782l-7.9375-57.769531c-9.203125-33.558593-40.046875-56.558593-74.835938-55.808593h-321.539062c-34.789063-.75-65.632813 22.25-74.835938 55.808593l-7.9375 57.769531c-2.621093 10.609376-3.9375 21.5-3.921875 32.425782v7.59375zm0 0" fill="#02a9f4"/><path d="m435.199219 503.464844h-358.398438l6.058594-34.644532 3.242187-18.6875 4.4375-25.257812 3.070313-17.75 4.269531-24.492188 2.984375-16.722656v-.085937l4.863281-27.902344c2.945313-8.824219 11.558594-14.46875 20.824219-13.65625h258.898438c9.285156-.8125 17.921875 4.828125 20.90625 13.65625l4.867187 27.988281 2.898438 16.808594 4.269531 24.40625 3.15625 17.75 4.351563 25.257812 3.242187 18.773438zm0 0" fill="#c81e1e"/><path d="m435.199219 512h-358.398438c-2.519531 0-4.914062-1.113281-6.535156-3.042969-1.621094-1.925781-2.308594-4.472656-1.875-6.957031l28.910156-165.523438c3.640625-12.960937 15.847657-21.609374 29.28125-20.742187h258.894531c13.359376-.882813 25.53125 7.664063 29.230469 20.53125l28.902344 165.734375c.433594 2.484375-.253906 5.03125-1.875 6.957031-1.621094 1.929688-4.015625 3.042969-6.535156 3.042969zm-348.246094-17.066406h338.101563l-27.121094-155.523438c-2.359375-4.597656-7.332032-7.234375-12.457032-6.609375h-258.894531c-5.199219-.636719-10.226562 2.109375-12.507812 6.824219zm0 0"/><path d="m324.265625 332.800781h-136.53125c-4.714844 0-8.535156-3.820312-8.535156-8.535156v-42.664063c0-4.714843 3.820312-8.535156 8.535156-8.535156h136.53125c4.714844 0 8.535156 3.820313 8.535156 8.535156v42.664063c0 4.714844-3.820312 8.535156-8.535156 8.535156zm-128-17.066406h119.46875v-25.601563h-119.46875zm0 0"/><path d="m324.265625 290.132812h-136.53125c-37.6875-.042968-68.222656-30.582031-68.269531-68.265624v-119.46875c.046875-37.683594 30.582031-68.222657 68.269531-68.265626h136.53125c37.6875.042969 68.222656 30.582032 68.269531 68.265626v119.46875c-.046875 37.683593-30.582031 68.222656-68.269531 68.265624zm-136.53125-238.933593c-28.265625.03125-51.171875 22.9375-51.199219 51.199219v119.46875c.027344 28.261718 22.933594 51.167968 51.199219 51.199218h136.53125c28.265625-.03125 51.171875-22.9375 51.199219-51.199218v-119.46875c-.027344-28.261719-22.933594-51.167969-51.199219-51.199219zm0 0"/><path d="m298.667969 51.199219h-85.335938c-4.710937 0-8.53125-3.820313-8.53125-8.53125v-25.601563c.011719-9.421875 7.644531-17.0546872 17.066407-17.066406h68.265624c9.421876.0117188 17.054688 7.644531 17.066407 17.066406v25.601563c0 4.710937-3.820313 8.53125-8.53125 8.53125zm-76.800781-17.066407h68.265624v-17.066406h-68.265624zm0 0"/><path d="m102.398438 512h-93.863282c-4.714844 0-8.535156-3.820312-8.535156-8.535156v-7.59375c-.0078125-11.464844 1.355469-22.890625 4.066406-34.03125l7.875-57.328125c.035156-.292969.09375-.585938.171875-.871094 10.019531-37.453125 44.359375-63.195313 83.117188-62.308594h8.023437c4.710938 0 8.53125 3.820313 8.53125 8.535157 0 4.710937-3.820312 8.53125-8.53125 8.53125h-8.023437c-30.734375-.851563-58.121094 19.296874-66.449219 48.898437l-7.875 57.304687c-.035156.300782-.09375.597657-.171875.890626-2.371094 9.636718-3.605469 19.515624-3.667969 29.441406h85.332032c4.714843 0 8.535156 3.820312 8.535156 8.53125 0 4.714844-3.820313 8.535156-8.535156 8.535156zm0 0"/><path d="m503.464844 512h-93.863282c-4.714843 0-8.535156-3.820312-8.535156-8.535156 0-4.710938 3.820313-8.53125 8.535156-8.53125h85.332032c-.066406-9.921875-1.300782-19.804688-3.675782-29.441406-.078124-.292969-.132812-.589844-.171874-.890626l-7.867188-57.304687c-8.328125-29.601563-35.714844-49.75-66.449219-48.898437h-7.9375c-4.710937 0-8.535156-3.820313-8.535156-8.53125 0-4.714844 3.824219-8.535157 8.535156-8.535157h7.9375c38.761719-.886719 73.105469 24.855469 83.125 62.308594.078125.289063.132813.582031.171875.875l7.871094 57.328125c2.710938 11.136719 4.074219 22.5625 4.0625 34.027344v7.59375c0 4.714844-3.820312 8.535156-8.535156 8.535156zm0 0"/><path d="m312.582031 203.792969c-20.882812 0-43.074219-14.792969-47.964843-48.984375-.1875-1.3125-.0625-2.648438.359374-3.90625.742188-2.242188 18.839844-55.167969 64.65625-73.492188 3.171876-1.257812 6.785157-.515625 9.199219 1.890625 2 2 19.566407 21.097657 19.566407 74.300781 1.609374 25.476563-17.28125 47.636719-42.691407 50.082032-1.039062.074218-2.082031.109375-3.125.109375zm-30.742187-49.339844c4.355468 25.152344 20.335937 33.042969 32.652344 32.207031 16.492187-1.808594 28.460937-16.546875 26.839843-33.058594 0-32.316406-7.140625-49.894531-11.457031-57.558593-30.066406 15.515625-44.824219 50.046875-48.035156 58.410156zm0 0"/><path d="m199.417969 203.792969c-1.042969 0-2.085938-.035157-3.125-.109375-25.410157-2.445313-44.300781-24.605469-42.691407-50.082032 0-53.203124 17.566407-72.300781 19.566407-74.300781 2.414062-2.40625 6.027343-3.148437 9.199219-1.890625 45.816406 18.324219 63.914062 71.25 64.65625 73.488282.421874 1.257812.546874 2.597656.359374 3.910156-4.882812 34.191406-27.089843 48.984375-47.964843 48.984375zm-17.300781-107.75c-4.28125 7.605469-11.449219 25.183593-11.449219 57.558593-1.617188 16.507813 10.347656 31.25 26.839843 33.054688 12.25.84375 28.292969-7.054688 32.652344-32.1875-3.234375-8.367188-18.101562-42.953125-48.042968-58.425781zm0 0"/><path d="m273.066406 213.332031h-34.132812c-2.859375.003907-5.527344-1.425781-7.109375-3.808593l-13.734375-20.648438c-1.6875-2.539062-1.894532-5.78125-.539063-8.511719 1.351563-2.730469 4.058594-4.53125 7.097657-4.726562 3.042968-.191407 5.957031 1.25 7.644531 3.789062l11.214843 16.839844h24.984376l11.214843-16.839844c1.6875-2.535156 4.601563-3.980469 7.644531-3.785156 3.039063.191406 5.746094 1.992187 7.097657 4.722656 1.355469 2.730469 1.148437 5.976563-.539063 8.511719l-13.734375 20.652344c-1.582031 2.378906-4.25 3.808594-7.109375 3.804687zm0 0"/><path d="m196.265625 256c-.917969 0-1.828125-.148438-2.699219-.441406l-25.601562-8.535156c-1.253906-.414063-2.394532-1.121094-3.332032-2.058594l-42.664062-42.664063c-3.234375-3.347656-3.1875-8.671875.101562-11.964843 3.292969-3.289063 8.613282-3.335938 11.960938-.101563l41.242188 41.242187 23.691406 7.898438c3.964844 1.328125 6.382812 5.332031 5.714844 9.460938-.671876 4.125-4.230469 7.160156-8.414063 7.164062zm0 0"/><path d="m315.734375 256c-4.183594-.003906-7.742187-3.039062-8.414063-7.164062-.667968-4.128907 1.75-8.132813 5.714844-9.460938l23.691406-7.898438 41.242188-41.242187c3.347656-3.234375 8.667969-3.1875 11.960938.101563 3.292968 3.292968 3.335937 8.617187.101562 11.964843l-42.664062 42.664063c-.9375.9375-2.078126 1.644531-3.332032 2.058594l-25.601562 8.535156c-.871094.292968-1.78125.441406-2.699219.441406zm0 0"/><path d="m213.332031 119.464844c-4.09375.007812-7.613281-2.894532-8.386719-6.914063-.777343-4.019531 1.410157-8.023437 5.210938-9.542969 19.527344-7.824218 37.308594-20.320312 37.308594-26.207031 0-4.714843 3.824218-8.535156 8.535156-8.535156s8.535156 3.820313 8.535156 8.535156c0 21.199219-36.769531 37.546875-48.035156 42.058594-1.007812.402344-2.082031.609375-3.167969.605469zm0 0"/><path d="m298.667969 119.464844c-1.085938.003906-2.160157-.203125-3.167969-.605469-11.265625-4.511719-48.035156-20.859375-48.035156-42.058594 0-4.714843 3.824218-8.535156 8.535156-8.535156s8.535156 3.820313 8.535156 8.535156c0 5.886719 17.78125 18.382813 37.308594 26.207031 3.800781 1.519532 5.988281 5.523438 5.210938 9.542969-.773438 4.019531-4.292969 6.921875-8.386719 6.914063zm0 0"/><path d="m221.875 290.132812c-.625 0-1.246094-.066406-1.859375-.199218-4.597656-1.023438-7.5-5.582032-6.484375-10.183594l17.066406-76.800781c1.023438-4.601563 5.582032-7.503907 10.183594-6.484375 4.601562 1.023437 7.503906 5.582031 6.484375 10.183594l-17.066406 76.800781c-.871094 3.902343-4.328125 6.675781-8.324219 6.683593zm0 0"/><path d="m290.125 290.132812c-3.996094-.007812-7.453125-2.78125-8.324219-6.683593l-17.066406-76.800781c-1.023437-4.601563 1.878906-9.160157 6.480469-10.183594 4.605468-1.019532 9.164062 1.882812 10.183594 6.484375l17.070312 76.800781c1.015625 4.601562-1.886719 9.160156-6.488281 10.183594-.609375.132812-1.230469.199218-1.855469.199218zm0 0"/><path d="m162.132812 281.601562c-4.710937 0-8.53125-3.820312-8.53125-8.535156 0-18.292968 23.597657-73.882812 26.289063-80.160156 1.148437-2.882812 3.765625-4.914062 6.84375-5.3125 3.078125-.394531 6.128906.914062 7.964844 3.414062 1.835937 2.5 2.171875 5.800782.875 8.617188-9.625 22.476562-24.90625 62.292969-24.90625 73.441406 0 4.714844-3.820313 8.535156-8.535157 8.535156zm0 0"/><path d="m349.867188 281.601562c-4.714844 0-8.535157-3.820312-8.535157-8.535156 0-11.148437-15.28125-50.964844-24.90625-73.441406-1.707031-4.296875.320313-9.171875 4.570313-10.996094 4.25-1.820312 9.179687.078125 11.113281 4.277344 2.691406 6.277344 26.289063 61.867188 26.289063 80.160156 0 4.714844-3.820313 8.535156-8.53125 8.535156zm0 0"/><path d="m256 128c-4.710938 0-8.535156-3.820312-8.535156-8.535156v-76.796875c0-4.714844 3.824218-8.535157 8.535156-8.535157s8.535156 3.820313 8.535156 8.535157v76.796875c0 4.714844-3.824218 8.535156-8.535156 8.535156zm0 0"/><path d="m179.199219 93.867188c-4.679688 0-8.484375-3.769532-8.53125-8.449219-1.265625-10.855469-6.445313-20.875-14.566407-28.183594-3.234374-3.347656-3.1875-8.671875.101563-11.964844 3.292969-3.289062 8.613281-3.335937 11.964844-.101562 11.332031 10.457031 18.320312 24.792969 19.566406 40.164062 0 4.714844-3.820313 8.535157-8.535156 8.535157zm0 0"/><path d="m332.800781 93.816406h-.101562c-4.664063-.027344-8.433594-3.816406-8.433594-8.484375 1.246094-15.371093 8.234375-29.707031 19.566406-40.164062 2.144531-2.21875 5.316407-3.109375 8.300781-2.328125 2.984376.78125 5.3125 3.109375 6.09375 6.09375s-.109374 6.15625-2.328124 8.300781c-8.128907 7.304687-13.308594 17.332031-14.566407 28.191406-.101562 4.644531-3.882812 8.367188-8.53125 8.390625zm0 0"/><path d="m409.601562 384c-2.222656.003906-4.359374-.863281-5.953124-2.417969-11.835938-8.160156-27.484376-8.152343-39.316407.019531-3.371093 3.171876-8.644531 3.125-11.964843-.101562-11.839844-8.082031-27.433594-8.039062-39.234376.101562-3.375 3.171876-8.644531 3.125-11.964843-.101562-5.601563-4.265625-12.535157-6.40625-19.566407-6.035156-7.082031-.378906-14.0625 1.796875-19.667968 6.136718-3.375 3.171876-8.648438 3.125-11.964844-.101562-5.601562-4.265625-12.539062-6.40625-19.570312-6.035156-7.078126-.378906-14.058594 1.796875-19.664063 6.136718-3.375 3.171876-8.648437 3.125-11.96875-.101562-5.601563-4.265625-12.535156-6.40625-19.566406-6.035156-7.078125-.378906-14.058594 1.796875-19.664063 6.136718-3.375 3.171876-8.648437 3.125-11.96875-.101562-5.601562-4.265625-12.535156-6.40625-19.566406-6.035156-7.078125-.378906-14.058594 1.796875-19.667969 6.136718-3.40625 3.191407-8.742187 3.082032-12.015625-.25-3.25-3.316406-3.226562-8.628906.050782-11.917968 8.746093-7.585938 20.066406-11.535156 31.632812-11.035156 8.96875-.15625 17.8125 2.109374 25.601562 6.558593 15.945313-8.742187 35.253907-8.742187 51.199219 0 15.945313-8.742187 35.253907-8.742187 51.199219 0 15.945312-8.742187 35.253906-8.742187 51.199219 0 15.949219-8.742187 35.253906-8.742187 51.199219 0 7.789062-4.449219 16.632812-6.714843 25.601562-6.558593 11.566406-.5 22.886719 3.449218 31.632812 11.035156 2.441407 2.441406 3.167969 6.109375 1.847657 9.296875-1.320313 3.191406-4.429688 5.269531-7.878907 5.269531zm0 0"/><path d="m418.125 425.582031c-1.964844 0-3.871094-.679687-5.390625-1.921875-6.445313-4.09375-14.007813-6.0625-21.625-5.632812-7.625-.4375-15.195313 1.539062-21.632813 5.648437-3.199218 2.511719-7.710937 2.476563-10.867187-.089843-6.433594-4.042969-13.960937-5.984376-21.542969-5.5625-7.628906-.4375-15.199218 1.539062-21.640625 5.652343-3.199219 2.511719-7.710937 2.472657-10.867187-.09375-6.429688-4.039062-13.953125-5.980469-21.535156-5.558593-7.625-.4375-15.199219 1.539062-21.640626 5.652343-3.199218 2.511719-7.710937 2.472657-10.867187-.09375-6.429687-4.039062-13.957031-5.980469-21.539063-5.558593-7.628906-.4375-15.195312 1.542968-21.632812 5.652343-3.199219 2.511719-7.710938 2.472657-10.867188-.09375-6.433593-4.039062-13.960937-5.980469-21.542968-5.558593-7.628906-.4375-15.199219 1.539062-21.640625 5.652343-3.199219 2.511719-7.710938 2.472657-10.867188-.09375-6.429687-4.039062-13.953125-5.980469-21.535156-5.558593-7.628906-.4375-15.199219 1.539062-21.640625 5.652343-3.667969 2.890625-8.980469 2.316407-11.945312-1.292969-2.957032-3.582031-2.472657-8.878906 1.082031-11.867187 9.453125-6.753906 20.90625-10.121094 32.511719-9.554687 9.359374-.1875 18.628906 1.886718 27.015624 6.046874 8.390626-4.160156 17.664063-6.234374 27.027344-6.046874 9.363282-.1875 18.632813 1.886718 27.023438 6.046874 8.386718-4.160156 17.65625-6.234374 27.015625-6.046874 9.363281-.1875 18.636719 1.886718 27.027343 6.046874 17.109376-8.066406 36.929688-8.066406 54.039063 0 17.117187-8.066406 36.9375-8.066406 54.050781 0 8.390625-4.160156 17.65625-6.234374 27.015625-6.046874 11.605469-.566407 23.0625 2.800781 32.515625 9.554687 2.746094 2.308594 3.753906 6.085937 2.527344 9.457031-1.230469 3.371094-4.433594 5.613282-8.019531 5.609375zm0 0"/><path d="m426.667969 469.332031c-2.070313.003907-4.070313-.75-5.625-2.113281-6.683594-4.613281-14.710938-6.871094-22.816407-6.417969-8.117187-.457031-16.148437 1.800781-22.835937 6.425781-3.277344 2.773438-8.089844 2.738282-11.324219-.085937-6.671875-4.566406-14.664062-6.792969-22.734375-6.339844-8.109375-.460937-16.144531 1.800781-22.824219 6.425781-3.277343 2.773438-8.089843 2.738282-11.324218-.085937-6.675782-4.5625-14.671875-6.789063-22.742188-6.339844-8.109375-.457031-16.144531 1.804688-22.824218 6.425781-3.277344 2.773438-8.089844 2.738282-11.324219-.085937-6.671875-4.5625-14.664063-6.789063-22.734375-6.339844-8.113282-.457031-16.148438 1.800781-22.832032 6.425781-3.277343 2.773438-8.089843 2.738282-11.328124-.085937-6.667969-4.566406-14.660157-6.792969-22.730469-6.339844-8.113281-.460937-16.144531 1.800781-22.828125 6.425781-3.273438 2.773438-8.089844 2.738282-11.324219-.085937-6.675781-4.5625-14.667969-6.789063-22.742187-6.339844-8.109376-.457031-16.140626 1.804688-22.824219 6.425781-3.566407 3.019532-8.890625 2.636719-11.992188-.859374-3.082031-3.480469-2.785156-8.796876.667969-11.910157 9.753906-7.507812 21.855469-11.308593 34.148438-10.722656 9.910156-.199219 19.707031 2.144531 28.453124 6.808594 8.742188-4.664063 18.535157-7.007813 28.441407-6.808594 9.90625-.199219 19.695312 2.144531 28.441406 6.808594 8.746094-4.664063 18.539063-7.007813 28.449219-6.808594 9.90625-.195313 19.699218 2.148437 28.441406 6.808594 17.878906-9.078125 39.015625-9.078125 56.890625 0 17.875-9.078125 39.011719-9.078125 56.882813 0 8.746093-4.664063 18.542968-7.007813 28.453124-6.808594 12.292969-.585937 24.394532 3.214844 34.148438 10.722656 2.625 2.363281 3.523438 6.101563 2.257812 9.398438-1.265624 3.300781-4.433593 5.476562-7.964843 5.476562zm0 0"/><path d="m136.542969 512c-.378907 0-.757813-.023438-1.132813-.074219-4.671875-.621093-7.957031-4.914062-7.335937-9.582031.167969-1.28125 17.183593-128.726562 25.644531-179.476562.453125-3.050782 2.515625-5.617188 5.398438-6.714844 2.878906-1.097656 6.128906-.558594 8.5 1.414062 2.367187 1.972656 3.488281 5.070313 2.933593 8.101563-8.417969 50.480469-25.394531 177.648437-25.558593 178.921875-.5625 4.238281-4.175782 7.40625-8.449219 7.410156zm0 0"/><path d="m196.273438 512c-.167969 0-.339844-.007812-.511719-.015625-4.703125-.277344-8.289063-4.316406-8.015625-9.019531.351562-5.957032 8.675781-146.257813 17.308594-180.765625 1.160156-4.550781 5.777343-7.308594 10.332031-6.167969 4.554687 1.136719 7.335937 5.742188 6.21875 10.300781-8.242188 32.976563-16.742188 176.191407-16.824219 177.632813-.265625 4.507812-3.992188 8.027344-8.507812 8.035156zm0 0"/><path d="m375.457031 512c-4.273437-.003906-7.882812-3.171875-8.445312-7.410156-.171875-1.273438-17.152344-128.441406-25.558594-178.921875-.558594-3.03125.5625-6.128907 2.933594-8.101563 2.371093-1.972656 5.617187-2.511718 8.5-1.414062 2.878906 1.097656 4.945312 3.664062 5.398437 6.714844 8.457032 50.75 25.476563 178.191406 25.640625 179.476562.621094 4.667969-2.660156 8.960938-7.332031 9.582031-.375.050781-.757812.074219-1.136719.074219zm0 0"/><path d="m315.726562 512c-4.515624-.003906-8.246093-3.527344-8.507812-8.035156-.085938-1.441406-8.585938-144.65625-16.828125-177.632813-1.117187-4.558593 1.664063-9.164062 6.21875-10.300781 4.554687-1.140625 9.171875 1.617188 10.332031 6.167969 8.632813 34.507812 16.957032 174.808593 17.308594 180.765625.273438 4.703125-3.3125 8.742187-8.015625 9.019531-.167969.007813-.34375.015625-.507813.015625zm0 0"/><path d="m256 512c-4.710938 0-8.535156-3.820312-8.535156-8.535156v-179.199219c0-4.710937 3.824218-8.53125 8.535156-8.53125s8.535156 3.820313 8.535156 8.53125v179.199219c0 4.714844-3.824218 8.535156-8.535156 8.535156zm0 0"/></svg>