<svg height="503pt" viewBox="0 0 503 503.91613" width="503pt" xmlns="http://www.w3.org/2000/svg"><path d="m185.332031 310.558594h134.296875v92.328125h-134.296875zm0 0" fill="#fec108"/><path d="m378.382812 134.296875v142.6875c.011719 15.585937-6.175781 30.535156-17.199218 41.558594-11.019532 11.019531-25.96875 17.207031-41.554688 17.195312h-134.296875c-15.585937.011719-30.535156-6.175781-41.558593-17.195312-11.019532-11.023438-17.207032-25.972657-17.195313-41.558594v-142.6875zm0 0" fill="#fec108"/><path d="m353.199219 134.296875v142.6875c0 32.480469-21.015625 58.753906-47 58.753906h-107.4375c-25.984375 0-47.003907-26.273437-47.003907-58.753906v-142.6875zm0 0" fill="#ffdc00"/><path d="m160.152344 8.394531h184.65625c18.542968 0 33.574218 15.03125 33.574218 33.574219v117.507812h-251.804687v-117.507812c0-18.542969 15.03125-33.574219 33.574219-33.574219zm0 0" fill="#4527a0"/><path d="m403.386719 495.214844h79.570312c6.460938 0 13.175781 2.265625 12.925781-6.046875-.671874-20.140625-15.023437-43.644531-27.867187-58.25-14.25-17.210938-35.238281-27.429688-57.578125-28.03125h-316.089844c-22.339844.601562-43.328125 10.820312-57.578125 28.03125-12.84375 14.605469-27.195312 38.109375-27.867187 58.25-.253906 8.3125 6.460937 6.046875 12.925781 6.046875zm0 0" fill="#673ab7"/><path d="m428.742188 495.214844h-352.523438l28.433594-104.054688c2.910156-8.691406 11.398437-14.253906 20.53125-13.457031h254.644531c9.132813-.796875 17.621094 4.765625 20.53125 13.457031zm0 0" fill="#4527a0"/><path d="m336.414062 377.703125s-5.203124 13.851563-10.910156 33.742187l-11.082031 48.683594c-1.984375 11.59375-3.050781 23.324219-3.1875 35.085938h-117.507813c-.140624-11.761719-1.207031-23.492188-3.191406-35.085938l-11.078125-48.683594c-5.707031-19.890624-10.910156-33.742187-10.910156-33.742187zm0 0" fill="#f5f5f5"/><path d="m101.398438 142.6875h302.164062c4.632812 0 8.390625 3.757812 8.390625 8.394531v16.785157c0 4.636718-3.757813 8.394531-8.390625 8.394531h-302.164062c-4.636719 0-8.394532-3.757813-8.394532-8.394531v-16.785157c0-4.636719 3.757813-8.394531 8.394532-8.394531zm0 0" fill="#673ab7"/><path d="m277.660156 419.671875c17.191406-4.015625 34.640625-6.820313 52.226563-8.394531 14.921875 0 14.921875 25.183594 14.921875 25.183594s0 25.179687-14.921875 25.179687c-17.585938-1.574219-35.035157-4.378906-52.226563-8.394531h-50.359375c-17.191406 4.015625-34.644531 6.820312-52.226562 8.394531-14.921875 0-14.921875-25.179687-14.921875-25.179687s0-25.183594 14.921875-25.183594c17.582031 1.574218 35.035156 4.378906 52.226562 8.394531zm0 0" fill="#f44335"/><path d="m235.691406 411.277344h33.574219c4.636719 0 8.394531 3.757812 8.394531 8.394531v33.574219c0 4.636718-3.757812 8.394531-8.394531 8.394531h-33.574219c-4.632812 0-8.390625-3.757813-8.390625-8.394531v-33.574219c0-4.636719 3.757813-8.394531 8.390625-8.394531zm0 0" fill="#c81e1e"/><path d="m292.160156 285.378906c-6.78125 13.269532-27.949218 15.148438-39.511718 15.148438-11.589844 0-32.730469-1.878906-39.511719-15.148438 12.929687 3.183594 26.191406 4.847656 39.511719 4.949219 13.316406-.101563 26.578124-1.765625 39.511718-4.949219zm0 0"/><path d="m230.496094 197.992188c-7.976563-2.933594-16.355469-4.632813-24.84375-5.035157-11.414063-.863281-22.835938 1.570313-32.902344 7.015625 1.148438-14.6875 35.199219-17.59375 51.847656-13.816406 2.640625.328125 4.9375 1.957031 6.125 4.335938 1.183594 2.378906 1.097656 5.195312-.226562 7.5zm0 0"/><path d="m227.300781 223.945312c0-9.933593-7.515625-17.992187-16.789062-17.992187-9.269531 0-16.785157 8.058594-16.785157 17.992187 0 9.9375 7.515626 17.992188 16.785157 17.992188 9.273437 0 16.789062-8.054688 16.789062-17.992188zm0 0"/><path d="m215.21875 208.335938c-4.332031-1.648438-9.183594.527343-10.828125 4.859374-1.648437 4.332032.527344 9.179688 4.859375 10.828126 4.332031 1.648437 9.179688-.527344 10.828125-4.859376 1.648437-4.332031-.527344-9.183593-4.859375-10.828124zm0 0" fill="#fff"/><path d="m274.464844 197.992188c7.976562-2.933594 16.355468-4.632813 24.84375-5.035157 11.414062-.863281 22.832031 1.570313 32.902344 7.015625-1.148438-14.6875-35.203126-17.59375-51.851563-13.816406-2.636719.328125-4.933594 1.957031-6.121094 4.335938-1.1875 2.378906-1.101562 5.195312.226563 7.5zm0 0"/><path d="m311.234375 223.945312c0-9.933593-7.515625-17.992187-16.789063-17.992187-9.269531 0-16.785156 8.058594-16.785156 17.992187 0 9.9375 7.515625 17.992188 16.785156 17.992188 9.273438 0 16.789063-8.054688 16.789063-17.992188zm0 0"/><path d="m300.570312 213.195312c-1.648437-4.332031-6.496093-6.507812-10.828124-4.859374-4.335938 1.648437-6.511719 6.496093-4.863282 10.828124 1.648438 4.332032 6.496094 6.507813 10.828125 4.859376 4.335938-1.644532 6.511719-6.496094 4.863281-10.828126zm0 0" fill="#fff"/><path d="m428.742188 503.605469h-352.523438c-2.617188 0-5.085938-1.222657-6.671875-3.300781-1.585937-2.078126-2.117187-4.78125-1.425781-7.304688l28.433594-104.058594c3.828124-12.394531 15.6875-20.527344 28.628906-19.628906h254.648437c13.140625-.871094 25.113281 7.539062 28.753907 20.195312l28.253906 103.5c.691406 2.523438.164062 5.226563-1.425782 7.304688-1.589843 2.078125-4.054687 3.296875-6.671874 3.292969zm-341.53125-16.785157h330.535156l-25.488282-93.460937c-2.042968-4.933594-7.121093-7.902344-12.425781-7.261719h-254.648437c-5.113282-.625-10.058594 2.074219-12.300782 6.714844zm0 0"/><path d="m319.628906 386.097656h-134.296875c-4.636719 0-8.394531-3.757812-8.394531-8.394531v-41.964844c0-4.636719 3.757812-8.394531 8.394531-8.394531h134.296875c4.632813 0 8.390625 3.757812 8.390625 8.394531v41.964844c0 4.636719-3.757812 8.394531-8.390625 8.394531zm-125.902344-16.785156h117.507813v-25.179688h-117.507813zm0 0"/><path d="m319.628906 344.132812h-134.296875c-37.066406-.042968-67.105469-30.082031-67.148437-67.148437v-100.722656c0-4.636719 3.757812-8.394531 8.394531-8.394531s8.394531 3.757812 8.394531 8.394531v100.722656c.03125 27.800781 22.558594 50.328125 50.359375 50.359375h134.296875c27.800782-.03125 50.328125-22.558594 50.359375-50.359375v-100.722656c0-4.636719 3.757813-8.394531 8.394531-8.394531 4.632813 0 8.390626 3.757812 8.390626 8.394531v100.722656c-.042969 37.066406-30.078126 67.105469-67.144532 67.148437zm0 0"/><path d="m15.292969 503.886719c-3.953125.253906-7.839844-1.09375-10.789063-3.738281-2.898437-2.988282-4.355468-7.085938-3.992187-11.230469.746093-22.589844 15.960937-47.632813 29.953125-63.539063 15.785156-19.097656 39.109375-30.375 63.882812-30.886718h7.132813c4.636719 0 8.394531 3.757812 8.394531 8.394531 0 4.632812-3.757812 8.390625-8.394531 8.390625h-7.132813c-19.9375.550781-38.652344 9.742187-51.28125 25.183594-13.074218 14.136718-21.945312 31.640624-25.613281 50.546874l.335937-.023437c1.320313-.085937 2.679688-.167969 4.03125-.167969h79.578126c4.636718 0 8.394531 3.757813 8.394531 8.390625 0 4.636719-3.757813 8.394531-8.394531 8.394531h-79.570313c-.992187 0-2 .066407-2.96875.132813-1.101563.070313-2.304687.152344-3.566406.152344zm0 0"/><path d="m489.488281 503.886719c-1.253906 0-2.460937-.085938-3.558593-.148438-.972657-.066406-1.976563-.132812-2.972657-.132812h-79.5625c-4.636719 0-8.394531-3.757813-8.394531-8.390625 0-4.636719 3.757812-8.394532 8.394531-8.394532h79.570313c1.351562 0 2.710937.082032 4.027344.167969l.285156.015625c-3.65625-18.898437-12.511719-36.402344-25.570313-50.542968-12.621093-15.441407-31.332031-24.632813-51.269531-25.183594h-7.132812c-4.636719 0-8.394532-3.757813-8.394532-8.390625 0-4.636719 3.757813-8.394531 8.394532-8.394531h7.132812c24.769531.515624 48.089844 11.792968 63.875 30.886718 13.984375 15.902344 29.210938 40.941406 29.949219 63.515625.375 4.152344-1.078125 8.261719-3.984375 11.253907-2.945313 2.648437-6.835938 3.992187-10.789063 3.738281zm0 0"/><path d="m403.5625 184.65625h-302.164062c-9.265626-.011719-16.773438-7.519531-16.789063-16.789062v-16.785157c.015625-9.265625 7.523437-16.773437 16.789063-16.785156h302.164062c9.265625.011719 16.773438 7.519531 16.785156 16.785156v16.785157c-.011718 9.269531-7.519531 16.777343-16.785156 16.789062zm-302.164062-33.574219v16.785157h302.179687l-.015625-16.785157zm0 0"/><path d="m378.382812 151.082031h-251.804687c-4.636719 0-8.394531-3.757812-8.394531-8.394531v-100.71875c.027344-23.167969 18.800781-41.9414062 41.96875-41.96875h184.65625c23.164062.0273438 41.9375 18.800781 41.964844 41.96875v100.71875c0 4.636719-3.757813 8.394531-8.390626 8.394531zm-243.410156-16.785156h235.015625v-92.328125c-.015625-13.902344-11.28125-25.167969-25.179687-25.183594h-184.65625c-13.902344.015625-25.164063 11.28125-25.179688 25.183594zm0 0"/><path d="m269.265625 470.03125h-33.574219c-9.265625-.011719-16.773437-7.519531-16.785156-16.785156v-33.574219c.011719-9.265625 7.519531-16.773437 16.785156-16.785156h33.574219c9.265625.011719 16.773437 7.519531 16.789063 16.785156v33.574219c-.015626 9.265625-7.523438 16.773437-16.789063 16.785156zm-33.574219-50.359375v33.574219h33.59375l-.019531-33.574219zm0 0"/><path d="m175.070312 470.03125c-18.402343 0-23.3125-21.105469-23.3125-33.570312 0-12.46875 4.910157-33.574219 23.3125-33.574219 18.210938 1.546875 36.28125 4.421875 54.074219 8.597656 2.925781.65625 5.277344 2.828125 6.171875 5.691406.890625 2.863281.1875 5.984375-1.84375 8.1875-2.035156 2.203125-5.089844 3.15625-8.015625 2.496094-16.574219-3.941406-33.414062-6.679687-50.386719-8.1875-4.648437 0-6.523437 11.84375-6.523437 16.789063.023437 4.925781 1.941406 16.785156 6.523437 16.785156 16.96875-1.507813 33.808594-4.246094 50.386719-8.1875 4.519531-1.019532 9.011719 1.820312 10.03125 6.34375 1.019531 4.523437-1.824219 9.015625-6.34375 10.03125-17.792969 4.175781-35.867187 7.050781-54.074219 8.597656zm0 0"/><path d="m329.890625 470.03125c-18.210937-1.546875-36.285156-4.421875-54.078125-8.597656-4.523438-1.015625-7.363281-5.507813-6.34375-10.03125 1.019531-4.523438 5.511719-7.363282 10.03125-6.34375 16.578125 3.941406 33.417969 6.679687 50.390625 8.1875 4.648437 0 6.523437-11.84375 6.523437-16.785156-.023437-4.929688-1.941406-16.789063-6.523437-16.789063-16.972656 1.507813-33.8125 4.246094-50.386719 8.1875-4.523437 1.019531-9.015625-1.820313-10.03125-6.34375-1.019531-4.523437 1.820313-9.015625 6.34375-10.03125 17.792969-4.175781 35.863282-7.050781 54.074219-8.597656 18.398437 0 23.308594 21.105469 23.308594 33.574219 0 12.464843-4.910157 33.570312-23.308594 33.570312zm0 0"/><path d="m193.726562 503.605469c-4.636718 0-8.394531-3.757813-8.394531-8.390625-.136719-11.3125-1.167969-22.59375-3.082031-33.742188-.738281-4.578125 2.375-8.886718 6.949219-9.625 4.578125-.738281 8.886719 2.375 9.625 6.953125 2.054687 12.03125 3.15625 24.207031 3.292969 36.414063 0 4.632812-3.757813 8.390625-8.390626 8.390625zm0 0"/><path d="m179.457031 419.839844c-3.746093 0-7.035156-2.480469-8.066406-6.082032-5.53125-19.285156-10.648437-32.957031-10.703125-33.097656-1.632812-4.339844.566406-9.179687 4.910156-10.8125 4.339844-1.628906 9.179688.570313 10.808594 4.910156.214844.574219 5.386719 14.394532 11.117188 34.378907.722656 2.53125.214843 5.253906-1.371094 7.359375-1.582032 2.101562-4.0625 3.339844-6.695313 3.34375zm0 0"/><path d="m311.234375 503.605469c-4.636719 0-8.394531-3.757813-8.394531-8.390625.136718-12.210938 1.238281-24.386719 3.296875-36.421875.738281-4.574219 5.046875-7.6875 9.621093-6.949219 4.578126.738281 7.6875 5.046875 6.953126 9.625-1.914063 11.148438-2.945313 22.433594-3.082032 33.746094 0 4.632812-3.757812 8.390625-8.394531 8.390625zm0 0"/><path d="m325.503906 419.839844c-2.632812-.003906-5.113281-1.242188-6.699218-3.34375-1.585938-2.105469-2.089844-4.828125-1.367188-7.359375 5.730469-19.984375 10.902344-33.804688 11.113281-34.378907 1.632813-4.339843 6.472657-6.539062 10.8125-4.910156 4.339844 1.632813 6.539063 6.472656 4.910157 10.8125-.058594.140625-5.171876 13.8125-10.707032 33.097656-1.027344 3.601563-4.320312 6.082032-8.0625 6.082032zm0 0"/></svg>