<svg height="512pt" viewBox="0 -1 512.00007 512" width="512pt" xmlns="http://www.w3.org/2000/svg"><path d="m128 246.460938c-102.398438-119.46875-25.601562-153.601563-25.601562-153.601563 7.765624-23.210937 16.386718-57.34375 43.863281-64.253906 7.546875-1.636719 15.382812-1.34375 22.785156.851562.765625.171875 9.898437 3.925781 10.152344 3.667969 25.601562-25.597656 42.667969-17.066406 42.667969-17.066406 4.457031-4.652344 10.621093-7.28125 17.066406-7.28125 6.445312 0 12.609375 2.628906 17.066406 7.28125 4.457031-4.652344 10.621094-7.28125 17.066406-7.28125 6.445313 0 12.609375 2.628906 17.066406 7.28125 0 0 17.066407-8.53125 42.667969 17.066406 20.328125-10.613281 45.410157-3.40625 57 16.386719 5.296875 7.875 9.570313 16.390625 12.714844 25.34375 1.625 4.523437 2.21875 15.785156 7.085937 18.003906.253907.085937 76.628907 34.304687-25.601562 153.601563zm0 0" fill="#fec108"/><path d="m147.523438 246.460938c-86.777344-119.46875-21.691407-153.601563-21.691407-153.601563 6.578125-23.210937 13.882813-57.34375 37.167969-64.253906 6.378906-1.640625 13.101562-1.34375 19.308594.851562.652344.171875 8.390625 3.925781 8.605468 3.667969 21.695313-25.597656 36.15625-17.066406 36.15625-17.066406 3.414063-4.550782 8.773438-7.234375 14.464844-7.234375s11.050782 2.683593 14.464844 7.234375c3.414062-4.550782 8.773438-7.234375 14.464844-7.234375s11.050781 2.683593 14.464844 7.234375c0 0 14.460937-8.53125 36.15625 17.066406 18.800781-10.496094 36.738281-3.582031 48.308593 16.386719 4.542969 8.007812 8.160157 16.511719 10.773438 25.34375 1.375 4.523437 1.878906 15.785156 6.003906 18.003906.214844.085937 64.9375 34.304687-21.695313 153.601563zm0 0" fill="#ffdc00"/><path d="m187.734375 280.59375h136.53125v93.867188h-136.53125zm0 0" fill="#dfc49c"/><path d="m409.601562 502.460938h93.867188l-.003906-7.59375c.015625-10.929688-1.300782-21.820313-3.921875-32.429688l-7.9375-32.167969c-9.203125-33.558593-40.046875-56.558593-74.835938-55.808593h-321.539062c-34.789063-.75-65.632813 22.25-74.835938 55.808593l-7.9375 32.167969c-2.621093 10.609375-3.9375 21.5-3.921875 32.429688v7.59375zm0 0" fill="#ffe0b2"/><path d="m435.199219 502.460938h-358.398438l28.910157-139.921876c2.957031-8.835937 11.585937-14.492187 20.871093-13.679687h258.890625c9.28125-.8125 17.914063 4.84375 20.871094 13.679687zm0 0" fill="#02a9f4"/><path d="m384 203.792969v42.667969c.011719 15.84375-6.277344 31.046874-17.484375 42.25-11.203125 11.203124-26.402344 17.492187-42.25 17.484374h-136.53125c-15.847656.007813-31.046875-6.28125-42.25-17.484374-11.207031-11.203126-17.496094-26.40625-17.484375-42.25v-42.667969s25.601562-17.066407 25.601562-42.667969c0-25.597656 0-59.730469 42.664063-59.730469 34.132813 0 25.601563-8.535156 59.734375-8.535156s25.601562 8.535156 59.734375 8.535156c42.664063 0 42.664063 34.132813 42.664063 59.730469 0 25.601562 25.601562 42.667969 25.601562 42.667969zm0 0" fill="#ffe0b2"/><path d="m221.867188 459.792969c0 23.566406-19.101563 42.667969-42.667969 42.667969-23.5625 0-42.664063-19.101563-42.664063-42.667969 0-23.5625 19.101563-42.667969 42.664063-42.667969 23.566406 0 42.667969 19.105469 42.667969 42.667969zm0 0" fill="#67b9cc"/><path d="m213.332031 459.792969c0 18.851562-15.28125 34.132812-34.132812 34.132812-18.851563 0-34.132813-15.28125-34.132813-34.132812 0-18.851563 15.28125-34.132813 34.132813-34.132813 18.851562 0 34.132812 15.28125 34.132812 34.132813zm0 0" fill="#0377bc"/><path d="m375.464844 459.792969c0 23.566406-19.101563 42.667969-42.664063 42.667969-23.566406 0-42.667969-19.101563-42.667969-42.667969 0-23.5625 19.101563-42.667969 42.667969-42.667969 23.5625 0 42.664063 19.105469 42.664063 42.667969zm0 0" fill="#67b9cc"/><path d="m366.933594 459.792969c0 18.851562-15.28125 34.132812-34.132813 34.132812-18.851562 0-34.132812-15.28125-34.132812-34.132812 0-18.851563 15.28125-34.132813 34.132812-34.132813 18.851563 0 34.132813 15.28125 34.132813 34.132813zm0 0" fill="#0377bc"/><path d="m196.265625 459.792969c0 9.425781-7.640625 17.066406-17.066406 17.066406s-17.066407-7.640625-17.066407-17.066406 7.640626-17.066407 17.066407-17.066407 17.066406 7.640626 17.066406 17.066407zm0 0" fill="#fff"/><path d="m349.867188 459.792969c0 9.425781-7.640626 17.066406-17.066407 17.066406s-17.066406-7.640625-17.066406-17.066406 7.640625-17.066407 17.066406-17.066407 17.066407 7.640626 17.066407 17.066407zm0 0" fill="#fff"/><path d="m299.734375 258.457031c-4.707031-14.523437-26.84375-21.65625-38.832031-23.757812-12.015625-2.101563-34.261719-4.058594-43.617188 8 13.980469-.839844 28.011719-.097657 41.828125 2.214843 14 3.003907 27.621094 7.546876 40.621094 13.542969zm0 0"/><path d="m232.042969 158.695312c-7.402344-4.460937-15.445313-7.765624-23.84375-9.796874-11.230469-3.054688-23.101563-2.8125-34.199219.6875 3.964844-14.441407 38.523438-10.804688 54.417969-3.839844 2.570312.832031 4.554687 2.898437 5.285156 5.503906.726563 2.601562.105469 5.398438-1.660156 7.445312zm0 0"/><path d="m230.398438 175.472656c0-10.101562-7.640626-18.292968-17.066407-18.292968s-17.066406 8.191406-17.066406 18.292968c0 10.101563 7.640625 18.292969 17.066406 18.292969s17.066407-8.191406 17.066407-18.292969zm0 0"/><path d="m218.117188 159.601562c-4.40625-1.675781-9.332032.535157-11.007813 4.941407s.535156 9.332031 4.941406 11.007812 9.332031-.535156 11.007813-4.941406c1.675781-4.40625-.535156-9.332031-4.941406-11.007813zm0 0" fill="#fff"/><path d="m279.046875 160.484375c6.050781-7.96875 14.457031-13.828125 24.027344-16.742187 12.871093-3.433594 26.5625.914062 35.09375 11.140624-.132813-.128906.132812-2.847656.085937-3.273437-.140625-1.105469-.4375-2.183594-.886718-3.203125-1.003907-2.179688-2.480469-4.109375-4.320313-5.648438-4.582031-3.71875-10.035156-6.214843-15.84375-7.246093-7.722656-1.746094-15.773437-1.347657-23.28125 1.152343-4.523437 1.5625-8.683594 4.015626-12.238281 7.214844-3.136719 2.871094-7.777344 8.152344-5.761719 12.960938.933594 1.304687 1.976563 2.523437 3.125 3.644531zm0 0"/><path d="m315.734375 175.472656c0-10.101562-7.640625-18.292968-17.066406-18.292968s-17.066407 8.191406-17.066407 18.292968c0 10.101563 7.640626 18.292969 17.066407 18.292969s17.066406-8.191406 17.066406-18.292969zm0 0"/><path d="m304.890625 164.542969c-1.675781-4.40625-6.601563-6.617188-11.007813-4.941407-4.40625 1.675782-6.617187 6.601563-4.941406 11.007813 1.675782 4.40625 6.601563 6.617187 11.007813 4.941406s6.617187-6.601562 4.941406-11.007812zm0 0" fill="#fff"/><path d="m435.199219 510.992188h-358.398438c-2.566406 0-4.996093-1.152344-6.617187-3.140626-1.621094-1.988281-2.261719-4.601562-1.742188-7.117187l28.910156-139.925781c3.726563-12.84375 15.886719-21.363282 29.230469-20.480469h258.894531c13.359376-.886719 25.53125 7.664063 29.230469 20.53125l28.855469 139.875c.519531 2.515625-.121094 5.128906-1.742188 7.117187-1.621093 1.988282-4.054687 3.144532-6.621093 3.140626zm-347.925781-17.066407h337.453124l-26.742187-129.664062c-2.257813-4.742188-7.296875-7.507813-12.507813-6.867188h-258.894531c-5.199219-.636719-10.226562 2.109375-12.507812 6.824219zm0 0"/><path d="m324.265625 357.394531h-136.53125c-4.714844 0-8.535156-3.820312-8.535156-8.535156v-42.664063c0-4.714843 3.820312-8.535156 8.535156-8.535156h136.53125c4.714844 0 8.535156 3.820313 8.535156 8.535156v42.664063c0 4.714844-3.820312 8.535156-8.535156 8.535156zm-128-17.066406h119.46875v-25.601563h-119.46875zm0 0"/><path d="m324.265625 314.726562h-136.53125c-37.6875-.042968-68.222656-30.582031-68.269531-68.265624v-42.667969c.003906-2.851563 1.429687-5.515625 3.800781-7.097657.203125-.136718 21.800781-14.960937 21.800781-35.570312 0-25.53125 0-68.265625 51.199219-68.265625 9.21875.492187 18.445313-.808594 27.167969-3.824219 10.453125-3.636718 21.507812-5.234375 32.566406-4.707031 11.058594-.527344 22.113281 1.070313 32.566406 4.707031 8.722656 3.015625 17.949219 4.316406 27.167969 3.824219 51.199219 0 51.199219 42.734375 51.199219 68.265625 0 20.609375 21.597656 35.433594 21.816406 35.585938 2.355469 1.589843 3.773438 4.242187 3.785156 7.082031v42.667969c-.046875 37.683593-30.582031 68.222656-68.269531 68.265624zm-187.730469-106.683593v38.417969c.027344 28.261718 22.933594 51.167968 51.199219 51.199218h136.53125c28.265625-.03125 51.171875-22.9375 51.199219-51.199218v-38.417969c-7.972656-6.433594-25.597656-23.339844-25.597656-46.917969 0-30.921875-2.375-51.199219-34.132813-51.199219-11.058594.527344-22.113281-1.070312-32.566406-4.707031-8.726563-3.015625-17.949219-4.316406-27.167969-3.824219-9.21875-.492187-18.441406.808594-27.167969 3.824219-10.453125 3.636719-21.507812 5.234375-32.566406 4.707031-31.757813 0-34.132813 20.277344-34.132813 51.199219 0 23.578125-17.625 40.484375-25.597656 46.917969zm0 0"/><path d="m102.398438 510.992188h-93.863282c-4.714844 0-8.535156-3.820313-8.535156-8.53125v-7.59375c-.0078125-11.621094 1.394531-23.203126 4.175781-34.484376l7.9375-32.160156c10.023438-37.449218 44.359375-63.183594 83.117188-62.296875h8.023437c4.710938 0 8.53125 3.820313 8.53125 8.535157 0 4.710937-3.820312 8.53125-8.53125 8.53125h-8.023437c-30.898438-.871094-58.390625 19.496093-66.558594 49.308593l-7.9375 32.171875c-2.371094 9.640625-3.605469 19.527344-3.667969 29.453125h85.332032c4.714843 0 8.535156 3.820313 8.535156 8.535157 0 4.710937-3.820313 8.53125-8.535156 8.53125zm0 0"/><path d="m503.464844 510.992188h-93.863282c-4.714843 0-8.535156-3.820313-8.535156-8.53125 0-4.714844 3.820313-8.535157 8.535156-8.535157h85.332032c-.066406-9.921875-1.300782-19.804687-3.675782-29.4375l-7.9375-32.171875c-8.160156-29.820312-35.648437-50.191406-66.550781-49.324218h-7.9375c-4.710937 0-8.535156-3.820313-8.535156-8.53125 0-4.714844 3.824219-8.535157 8.535156-8.535157h7.9375c38.761719-.886719 73.105469 24.851563 83.125 62.308594l7.933594 32.160156c2.78125 11.277344 4.179687 22.855469 4.171875 34.472657v7.59375c0 4.710937-3.820312 8.53125-8.535156 8.53125zm0 0"/><path d="m128 254.992188c-2.492188.003906-4.859375-1.085938-6.476562-2.984376-43.1875-50.382812-61.230469-92.988281-53.640626-126.65625 3.535157-15.996093 13.453126-29.855468 27.460938-38.359374l.988281-3.039063c7.660157-23.691406 18.152344-56.148437 47.816407-63.617187 8.953124-2 18.265624-1.699219 27.070312.875.347656.089843 2.007812.683593 4.015625 1.457031.582031.226562 1.207031.46875 1.832031.699219 19.273438-17.460938 34.609375-18.191407 42.660156-16.773438 10.519532-8.277344 25.179688-8.8125 36.273438-1.324219 11.09375-7.488281 25.753906-6.953125 36.273438 1.324219 8.035156-1.417969 23.242187-.699219 42.375 16.515625 23.214843-8.777344 49.386718.3125 62.160156 21.589844 5.753906 8.488281 10.390625 17.679687 13.800781 27.351562.625 2 1.128906 4.035157 1.5 6.097657.425781 2.527343 1.09375 5.007812 1.984375 7.410156 15.355469 8.335937 26.328125 22.9375 30.066406 40.011718 7.476563 33.621094-10.582031 76.164063-53.683594 126.441407-3.078124 3.515625-8.414062 3.898437-11.964843.859375-3.550781-3.042969-3.992188-8.375-.988281-11.957032 48.96875-57.132812 54.226562-92.140624 50.019531-111.457031-2.511719-12.324219-10.378907-22.894531-21.46875-28.832031-7.507813-3.425781-9.339844-12.464844-10.683594-19.074219-.222656-1.300781-.515625-2.585937-.882813-3.851562-2.929687-8.253907-6.890624-16.109375-11.789062-23.371094-9.207031-16.296875-29.730469-22.28125-46.257812-13.492187-3.257813 1.550781-7.144532.878906-9.695313-1.675782-20.265625-20.265625-32.574219-15.542968-33.082031-15.339844-3.257813 1.347657-7.003906.675782-9.582032-1.726562-2.804687-3.171875-6.835937-4.988281-11.070312-4.976562-4.234375.007812-8.257812 1.839843-11.046875 5.027343-3.355469 3.246094-8.691406 3.226563-12.015625-.050781-2.792969-3.167969-6.8125-4.984375-11.035156-4.984375s-8.242188 1.816406-11.035156 4.984375c-2.597657 2.59375-6.5625 3.234375-9.847657 1.597656-.234375-.082031-12.558593-4.777344-32.816406 15.46875-4.050781 4.058594-7.332031 2.800782-16.101563-.558594-1.222656-.464843-2.257812-.867187-2.683593-1.007812-5.894531-1.738281-12.128907-1.984375-18.140625-.710938-20.492188 5.15625-28.941406 31.308594-35.742188 52.316407l-2.074218 6.359375c-.753907 2.273437-2.433594 4.125-4.625 5.097656-11.0625 5.933594-18.910157 16.488281-21.40625 28.792969-4.210938 19.316406 1.046874 54.324219 50.015624 111.457031 2.167969 2.53125 2.664063 6.089844 1.273438 9.117188-1.390625 3.027343-4.417969 4.96875-7.75 4.96875zm0 0"/><path d="m162.132812 306.195312c-4.710937 0-8.53125-3.824218-8.53125-8.535156v-59.734375c0-4.710937 3.820313-8.53125 8.53125-8.53125 4.714844 0 8.535157 3.820313 8.535157 8.53125v59.734375c0 4.710938-3.820313 8.535156-8.535157 8.535156zm0 0"/><path d="m196.265625 314.726562c-4.710937 0-8.53125-3.820312-8.53125-8.53125v-34.136718c0-4.710938 3.820313-8.53125 8.53125-8.53125 4.714844 0 8.535156 3.820312 8.535156 8.53125v34.136718c0 4.710938-3.820312 8.53125-8.535156 8.53125zm0 0"/><path d="m230.398438 314.726562c-4.710938 0-8.53125-3.820312-8.53125-8.53125v-25.601562c0-4.714844 3.820312-8.535156 8.53125-8.535156 4.714843 0 8.535156 3.820312 8.535156 8.535156v25.601562c0 4.710938-3.820313 8.53125-8.535156 8.53125zm0 0"/><path d="m349.867188 306.195312c-4.714844 0-8.535157-3.824218-8.535157-8.535156v-59.734375c0-4.710937 3.820313-8.53125 8.535157-8.53125 4.710937 0 8.53125 3.820313 8.53125 8.53125v59.734375c0 4.710938-3.820313 8.535156-8.53125 8.535156zm0 0"/><path d="m315.734375 314.726562c-4.714844 0-8.535156-3.820312-8.535156-8.53125v-34.136718c0-4.710938 3.820312-8.53125 8.535156-8.53125 4.710937 0 8.53125 3.820312 8.53125 8.53125v34.136718c0 4.710938-3.820313 8.53125-8.53125 8.53125zm0 0"/><path d="m281.601562 314.726562c-4.714843 0-8.535156-3.820312-8.535156-8.53125v-25.601562c0-4.714844 3.820313-8.535156 8.535156-8.535156 4.710938 0 8.53125 3.820312 8.53125 8.535156v25.601562c0 4.710938-3.820312 8.53125-8.53125 8.53125zm0 0"/><path d="m179.199219 510.992188c-28.277344 0-51.199219-22.921876-51.199219-51.199219 0-28.277344 22.921875-51.199219 51.199219-51.199219 28.277343 0 51.199219 22.921875 51.199219 51.199219-.03125 28.265625-22.933594 51.167969-51.199219 51.199219zm0-85.332032c-18.851563 0-34.132813 15.28125-34.132813 34.132813 0 18.851562 15.28125 34.132812 34.132813 34.132812 18.851562 0 34.132812-15.28125 34.132812-34.132812-.015625-18.84375-15.289062-34.113281-34.132812-34.132813zm0 0"/><path d="m332.800781 510.992188c-28.277343 0-51.199219-22.921876-51.199219-51.199219 0-28.277344 22.921876-51.199219 51.199219-51.199219 28.277344 0 51.199219 22.921875 51.199219 51.199219-.03125 28.265625-22.9375 51.167969-51.199219 51.199219zm0-85.332032c-18.851562 0-34.132812 15.28125-34.132812 34.132813 0 18.851562 15.28125 34.132812 34.132812 34.132812 18.851563 0 34.132813-15.28125 34.132813-34.132812-.019532-18.84375-15.289063-34.113281-34.132813-34.132813zm0 0"/><path d="m256 417.125c-4.710938 0-8.535156-3.820312-8.535156-8.53125 0-12.058594-33.347656-17.066406-51.199219-17.066406-4.710937 0-8.53125-3.820313-8.53125-8.535156 0-4.710938 3.820313-8.53125 8.53125-8.53125 5.359375 0 42.632813.566406 59.734375 15.785156 17.101562-15.21875 54.375-15.785156 59.734375-15.785156 4.710937-.003907 8.535156 3.816406 8.535156 8.527343.003907 4.714844-3.816406 8.535157-8.527343 8.539063-21.464844.023437-51.207032 5.964844-51.207032 17.066406 0 4.710938-3.824218 8.53125-8.535156 8.53125zm0 0"/></svg>