<svg height="512pt" viewBox="0 0 512.00007 512" width="512pt" xmlns="http://www.w3.org/2000/svg"><path d="m503.464844 495.871094.003906 7.59375h-494.933594v-7.59375c-.015625-10.925782 1.300782-21.816406 3.921875-32.425782l7.9375-23.636718c9.207031-33.558594 40.046875-56.558594 74.835938-55.808594h321.539062c34.789063-.75 65.632813 22.25 74.835938 55.808594l7.9375 23.636718c2.621093 10.609376 3.9375 21.5 3.921875 32.425782zm0 0" fill="#283593"/><path d="m435.199219 503.464844h-358.398438l26.28125-119.464844 2.644531-11.945312c2.945313-8.820313 11.558594-14.46875 20.824219-13.65625h61.523438l5.035156 17.066406 2.476563 8.535156 9.554687 32.425781 28.417969-32.425781 22.441406-25.601562 22.441406 25.601562 28.417969 32.425781 9.558594-32.425781 2.472656-8.535156 5.035156-17.066406h61.523438c9.285156-.8125 17.921875 4.828124 20.90625 13.65625l2.648437 11.945312zm0 0" fill="#283593"/><path d="m298.667969 503.464844h-76.800781l-34.132813-128 51.199219-8.53125h59.734375l25.597656 42.667968zm0 0" fill="#f5f5f5"/><path d="m187.734375 298.667969h136.53125v76.796875h-136.53125zm0 0" fill="#fec108"/><path d="m384 247.464844v8.535156c.011719 15.847656-6.277344 31.046875-17.484375 42.25-11.203125 11.207031-26.402344 17.496094-42.25 17.484375h-136.53125c-15.847656.011719-31.046875-6.277344-42.25-17.484375-11.207031-11.203125-17.496094-26.402344-17.484375-42.25v-170.667969h256zm0 0" fill="#fec108"/><path d="m358.398438 247.464844v8.535156c0 33.023438-21.367188 59.734375-47.785157 59.734375h-109.226562c-26.417969 0-47.785157-26.710937-47.785157-59.734375v-170.667969h204.796876zm0 0" fill="#ffdc00"/><path d="m418.132812 68.265625v162.132813c0 9.425781-7.640624 17.066406-17.066406 17.066406h-17.066406c-9.425781 0-17.066406-7.640625-17.066406-17.066406v-76.796876c0-28.277343-22.921875-51.203124-51.199219-51.203124h-119.46875c-28.277344 0-51.199219 22.925781-51.199219 51.203124v76.796876c0 9.425781-7.640625 17.066406-17.066406 17.066406h-17.066406c-9.425782 0-17.066406-7.640625-17.066406-17.066406v-153.597657c0-9.425781 7.640624-17.066406 17.066406-17.066406h76.800781c4.710937 0 8.53125-3.820313 8.53125-8.535156v-34.132813c0-4.710937 3.820313-8.53125 8.535156-8.53125h102.398438c4.714843 0 8.535156 3.820313 8.535156 8.53125v25.601563c0 4.710937 3.820313 8.53125 8.53125 8.53125h76.800781c9.425782 0 17.066406 7.640625 17.066406 17.066406zm0 0" fill="#91562d"/><path d="m230.742188 387.242188c1.566406 8.007812 8.566406 13.792968 16.722656 13.824218h17.070312c8.15625-.03125 15.15625-5.816406 16.722656-13.824218l.34375-28.84375h-51.203124zm0 0" fill="#c81e1e"/><path d="m290.132812 503.464844h-68.265624l4.09375-16.296875 21.503906-86.101563h17.070312l21.503906 86.101563zm0 0" fill="#c81e1e"/><path d="m256 358.398438-50.859375 58.027343-12.03125-40.960937-5.035156-17.066406zm0 0" fill="#f5f5f5"/><path d="m323.925781 358.398438-5.035156 17.066406-12.03125 40.960937-50.859375-58.027343zm0 0" fill="#f5f5f5"/><path d="m230.398438 503.464844h-22.441407l-68.09375-52.988282c-2.347656-1.789062-3.609375-4.660156-3.328125-7.597656.335938-2.890625 2.097656-5.417968 4.691406-6.738281l6.484376-3.246094-17.234376-17.234375c-2.292968-2.308594-3.085937-5.710937-2.050781-8.789062l7.59375-22.871094 8.535157-25.601562h17.578124c-.007812.925781-.152343 1.847656-.425781 2.730468l-7.679687 22.871094-7.765625 23.296875 21.929687 21.84375c1.910156 1.96875 2.792969 4.714844 2.390625 7.425781-.445312 2.695313-2.160156 5.011719-4.609375 6.226563l-4.949218 2.476562 45.226562 35.242188-28.414062-96.511719-6.828126-23.210938c-.238281-.773437-.351562-1.578124-.339843-2.390624h17.066406v-1.191407l.339844 1.191407 5.035156 17.066406 2.476563 8.535156 9.554687 32.425781v.085938l20.820313 70.65625 4.097656 13.910156c.246094.773437.359375 1.578125.339844 2.386719zm0 0" fill="#606060"/><path d="m381.527344 415.660156-17.238282 17.234375 6.484376 3.246094c2.59375 1.320313 4.355468 3.847656 4.691406 6.738281.28125 2.9375-.980469 5.808594-3.324219 7.597656l-68.097656 52.988282h-22.441407c-.019531-.808594.09375-1.613282.339844-2.386719l4.097656-13.910156 20.820313-70.65625v-.085938l9.558594-32.425781 2.472656-8.535156 5.035156-17.066406.339844-1.191407v1.191407h17.066406c.015625.8125-.101562 1.617187-.339843 2.390624l-6.828126 23.210938-28.414062 96.511719 45.226562-35.242188-4.949218-2.476562c-2.449219-1.214844-4.164063-3.53125-4.609375-6.226563-.402344-2.710937.480469-5.457031 2.390625-7.425781l21.929687-21.84375-7.765625-23.296875-7.679687-22.871094c-.273438-.882812-.417969-1.804687-.425781-2.730468h17.578124l8.535157 25.601562 7.59375 22.871094c1.035156 3.078125.242187 6.480468-2.046875 8.789062zm0 0" fill="#606060"/><path d="m299.734375 238.398438c-4.707031 14.523437-26.84375 21.660156-38.832031 23.757812-12.015625 2.105469-34.261719 4.0625-43.617188-8 13.980469.84375 28.011719.101562 41.828125-2.210938 14-3.003906 27.621094-7.546874 40.621094-13.546874zm0 0"/><path d="m232.042969 168.234375c-7.402344-4.460937-15.445313-7.765625-23.84375-9.796875-11.230469-3.050781-23.101563-2.8125-34.199219.691406 3.964844-14.445312 38.523438-10.808594 54.417969-3.84375 2.570312.835938 4.554687 2.898438 5.285156 5.503906.726563 2.601563.105469 5.398438-1.660156 7.445313zm0 0"/><path d="m230.398438 185.011719c0-10.101563-7.640626-18.289063-17.066407-18.289063s-17.066406 8.1875-17.066406 18.289063c0 10.105469 7.640625 18.292969 17.066406 18.292969s17.066407-8.1875 17.066407-18.292969zm0 0"/><path d="m218.117188 169.140625c-4.40625-1.675781-9.332032.535156-11.007813 4.941406s.535156 9.335938 4.941406 11.011719c4.40625 1.671875 9.332031-.539062 11.007813-4.945312 1.675781-4.402344-.535156-9.332032-4.941406-11.007813zm0 0" fill="#fff"/><path d="m279.046875 170.023438c6.050781-7.96875 14.457031-13.828126 24.027344-16.742188 12.871093-3.433594 26.5625.914062 35.09375 11.140625-.132813-.128906.132812-2.847656.085937-3.273437-.140625-1.105469-.4375-2.183594-.886718-3.203126-1.003907-2.179687-2.480469-4.109374-4.320313-5.648437-4.582031-3.71875-10.035156-6.210937-15.84375-7.242187-7.722656-1.746094-15.773437-1.347657-23.28125 1.152343-4.523437 1.5625-8.683594 4.011719-12.238281 7.210938-3.136719 2.871093-7.777344 8.152343-5.761719 12.960937.933594 1.304688 1.976563 2.523438 3.125 3.644532zm0 0"/><path d="m315.734375 185.011719c0-10.101563-7.640625-18.289063-17.066406-18.289063s-17.066407 8.1875-17.066407 18.289063c0 10.105469 7.640626 18.292969 17.066407 18.292969s17.066406-8.1875 17.066406-18.292969zm0 0"/><path d="m304.890625 174.082031c-1.675781-4.402343-6.601563-6.617187-11.007813-4.941406s-6.617187 6.605469-4.941406 11.007813c1.675782 4.40625 6.601563 6.621093 11.007813 4.945312s6.617187-6.605469 4.941406-11.011719zm0 0" fill="#fff"/><path d="m435.199219 512h-358.398438c-2.585937 0-5.03125-1.171875-6.652343-3.1875-1.617188-2.015625-2.238282-4.652344-1.683594-7.179688l28.910156-131.390624c3.761719-12.792969 15.898438-21.261719 29.203125-20.375h258.894531c13.359375-.878907 25.527344 7.664062 29.238282 20.523437l28.824218 131.242187c.554688 2.527344-.066406 5.167969-1.683594 7.179688-1.621093 2.015625-4.066406 3.1875-6.652343 3.1875zm-347.78125-17.066406h337.167969l-26.574219-121.023438c-2.226563-4.800781-7.289063-7.617187-12.539063-6.976562h-258.894531c-5.199219-.632813-10.226563 2.109375-12.503906 6.828125zm0 0"/><path d="m324.265625 366.933594h-136.53125c-4.714844 0-8.535156-3.820313-8.535156-8.535156v-42.664063c0-4.714844 3.820312-8.535156 8.535156-8.535156h136.53125c4.714844 0 8.535156 3.820312 8.535156 8.535156v42.664063c0 4.714843-3.820312 8.535156-8.535156 8.535156zm-128-17.066406h119.46875v-25.601563h-119.46875zm0 0"/><path d="m324.265625 324.265625h-136.53125c-37.6875-.042969-68.222656-30.582031-68.269531-68.265625v-8.535156c0-4.710938 3.824218-8.53125 8.535156-8.53125 4.714844 0 8.535156 3.820312 8.535156 8.53125v8.535156c.027344 28.265625 22.933594 51.167969 51.199219 51.199219h136.53125c28.265625-.03125 51.171875-22.933594 51.199219-51.199219v-8.535156c0-4.710938 3.824218-8.53125 8.535156-8.53125 4.714844 0 8.535156 3.820312 8.535156 8.53125v8.535156c-.046875 37.683594-30.582031 68.222656-68.269531 68.265625zm0 0"/><path d="m102.398438 512h-93.863282c-4.714844 0-8.535156-3.820312-8.535156-8.535156v-7.59375c-.0117188-11.621094 1.390625-23.207032 4.175781-34.492188l8.132813-24.289062c10.191406-37.160156 44.402344-62.585938 82.921875-61.625h8.023437c4.710938 0 8.53125 3.824218 8.53125 8.535156s-3.820312 8.535156-8.53125 8.535156h-8.023437c-30.898438-.875-58.386719 19.492188-66.550781 49.304688l-8.136719 24.320312c-2.257813 9.425782-3.421875 19.082032-3.472657 28.773438h85.328126c4.714843 0 8.535156 3.820312 8.535156 8.53125 0 4.714844-3.820313 8.535156-8.535156 8.535156zm0 0"/><path d="m503.464844 512h-93.863282c-4.714843 0-8.535156-3.820312-8.535156-8.535156 0-4.710938 3.820313-8.53125 8.535156-8.53125h85.332032c-.058594-9.921875-1.289063-19.800782-3.667969-29.433594l-7.742187-22.976562c-7.992188-30.109376-35.613282-50.796876-66.753907-49.988282h-7.9375c-4.710937 0-8.535156-3.824218-8.535156-8.535156s3.824219-8.535156 8.535156-8.535156h7.9375c38.761719-.890625 73.105469 24.851562 83.125 62.3125l7.738281 22.949218c2.902344 11.488282 4.371094 23.292969 4.367188 35.144532v7.59375c0 4.714844-3.820312 8.535156-8.535156 8.535156zm0 0"/><path d="m401.066406 256h-17.066406c-14.132812-.015625-25.585938-11.46875-25.601562-25.601562v-76.796876c-.027344-23.554687-19.113282-42.640624-42.664063-42.667968h-119.46875c-23.550781.027344-42.636719 19.113281-42.664063 42.667968v76.796876c-.015624 14.132812-11.46875 25.585937-25.601562 25.601562h-17.066406c-14.132813-.015625-25.585938-11.46875-25.601563-25.601562v-153.597657c.015625-14.132812 11.46875-25.585937 25.601563-25.601562h76.800781v-34.132813c.011719-9.421875 7.644531-17.0546872 17.066406-17.066406h102.398438c9.421875.0117188 17.058593 7.644531 17.066406 17.066406v25.601563h76.800781c14.132813.015625 25.585938 11.464843 25.601563 25.597656v162.132813c-.015625 14.132812-11.46875 25.585937-25.601563 25.601562zm-204.800781-162.132812h119.46875c32.972656.039062 59.695313 26.757812 59.730469 59.734374v76.796876c.007812 4.710937 3.824218 8.53125 8.535156 8.535156h17.066406c4.710938-.003906 8.53125-3.824219 8.535156-8.535156v-162.132813c-.003906-4.710937-3.824218-8.527344-8.535156-8.53125h-76.800781c-9.421875-.011719-17.054687-7.648437-17.066406-17.066406v-25.601563h-102.398438v34.132813c-.011719 9.421875-7.644531 17.058593-17.066406 17.066406h-76.800781c-4.710938.003906-8.527344 3.824219-8.535156 8.535156v153.597657c.007812 4.710937 3.824218 8.53125 8.535156 8.535156h17.066406c4.710938-.003906 8.527344-3.824219 8.535156-8.535156v-76.796876c.035156-32.976562 26.757813-59.695312 59.730469-59.734374zm0 0"/><path d="m221.867188 512c-1.898438.003906-3.742188-.628906-5.238282-1.800781l-76.800781-59.730469c-2.3125-1.800781-3.539063-4.660156-3.25-7.578125.285156-2.914063 2.050781-5.480469 4.671875-6.789063l6.480469-3.242187-17.230469-17.226563c-2.285156-2.285156-3.085938-5.667968-2.0625-8.734374l17.066406-51.199219c1.492188-4.46875 6.324219-6.886719 10.796875-5.394531 4.46875 1.492187 6.886719 6.324218 5.394531 10.796874l-15.398437 46.195313 21.871094 21.875c1.9375 1.9375 2.828125 4.691406 2.386719 7.398437-.4375 2.710938-2.152344 5.039063-4.605469 6.265626l-4.960938 2.476562 45.222657 35.175781-35.199219-119.675781c-.863281-2.925781-.097657-6.089844 2.007812-8.296875 2.101563-2.207031 5.222657-3.125 8.1875-2.40625 2.960938.714844 5.316407 2.960937 6.179688 5.886719l42.664062 145.066406c.757813 2.578125.253907 5.363281-1.355469 7.515625-1.609374 2.152344-4.140624 3.417969-6.828124 3.421875zm0 0"/><path d="m290.132812 512c-2.6875 0-5.21875-1.269531-6.832031-3.421875-1.609375-2.152344-2.113281-4.9375-1.355469-7.519531l42.667969-145.066406c.859375-2.925782 3.214844-5.167969 6.179688-5.886719 2.960937-.71875 6.082031.199219 8.1875 2.40625 2.101562 2.210937 2.867187 5.371093 2.007812 8.296875l-35.199219 119.675781 45.21875-35.175781-4.957031-2.476563c-2.453125-1.226562-4.167969-3.554687-4.609375-6.261719-.4375-2.710937.449219-5.460937 2.390625-7.402343l21.871094-21.871094-15.398437-46.191406c-1.492188-4.472657.925781-9.304688 5.394531-10.796875 4.472656-1.492188 9.304687.925781 10.796875 5.394531l17.066406 51.203125c1.023438 3.066406.222656 6.445312-2.0625 8.730469l-17.230469 17.226562 6.480469 3.242188c2.621094 1.3125 4.386719 3.875 4.671875 6.792969.289063 2.914062-.9375 5.773437-3.25 7.574218l-76.800781 59.734375c-1.496094 1.164063-3.339844 1.796875-5.238282 1.792969zm0 0"/><path d="m313.519531 432.640625c-2.460937.003906-4.804687-1.058594-6.421875-2.917969l-51.097656-58.363281-51.097656 58.367187c-1.980469 2.382813-5.097656 3.5-8.140625 2.925782-3.046875-.578125-5.539063-2.757813-6.515625-5.699219-.972656-2.941406-.28125-6.179687 1.816406-8.460937l57.515625-65.707032c1.660156-1.777344 3.984375-2.785156 6.417969-2.785156s4.761718 1.007812 6.421875 2.785156l57.515625 65.707032c2.203125 2.519531 2.726562 6.09375 1.347656 9.140624-1.382812 3.050782-4.417969 5.007813-7.765625 5.011719zm0 0"/><path d="m264.535156 409.601562h-17.070312c-12.234375-.039062-22.738282-8.710937-25.097656-20.71875-.585938-2.992187.46875-6.070312 2.765624-8.074218 2.296876-2.003906 5.488282-2.628906 8.375-1.640625 2.882813.988281 5.023438 3.441406 5.609376 6.433593.773437 4.003907 4.269531 6.90625 8.347656 6.933594h17.070312c4.078125-.027344 7.574219-2.929687 8.347656-6.933594.585938-2.992187 2.726563-5.445312 5.609376-6.433593 2.886718-.988281 6.078124-.363281 8.375 1.640625 2.296874 2.003906 3.351562 5.082031 2.765624 8.074218-2.359374 12.007813-12.863281 20.679688-25.097656 20.71875zm0 0"/><path d="m290.132812 512h-68.265624c-2.628907 0-5.109376-1.210938-6.722657-3.28125-1.617187-2.070312-2.191406-4.769531-1.554687-7.320312l25.597656-102.398438c1.035156-4.148438 4.980469-6.890625 9.226562-6.414062 4.25.472656 7.492188 4.019531 7.585938 8.292968.09375-4.273437 3.335938-7.820312 7.585938-8.292968 4.246093-.476563 8.191406 2.265624 9.226562 6.414062l25.597656 102.398438c.636719 2.550781.0625 5.25-1.554687 7.320312-1.613281 2.070312-4.09375 3.28125-6.722657 3.28125zm-57.335937-17.066406h46.40625l-22.945313-91.800782c-.15625-.617187-.242187-1.253906-.257812-1.890624-.015625.636718-.101562 1.273437-.257812 1.890624zm0 0"/></svg>