<svg height="512pt" viewBox="0 0 512 512.00002" width="512pt" xmlns="http://www.w3.org/2000/svg"><path d="m347.050781 183.039062c-29.933593 27.359376-64.113281 49.664063-101.207031 66.050782-30.742188-24.378906-56.03125-54.933594-74.238281-89.6875v-.085938c4.351562-12.203125 25.171875-61.4375 88.917969-105.386718 59.902343 53.675781 80.042968 105.558593 86.527343 129.109374zm0 0" fill="#009688"/><path d="m240.105469 163.679688c0-15.847657-11.984375-28.695313-26.773438-28.695313-14.785156 0-26.773437 12.847656-26.773437 28.695313 0 15.847656 11.988281 28.695312 26.773437 28.695312 14.789063 0 26.773438-12.847656 26.773438-28.695312zm0 0"/><path d="m325.710938 163.679688c0-16.007813-12.109376-28.984376-27.042969-28.984376-14.9375 0-27.046875 12.976563-27.046875 28.984376 0 16.007812 12.109375 28.984374 27.046875 28.984374 14.933593 0 27.042969-12.976562 27.042969-28.984374zm0 0"/><path d="m409.601562 503.464844h93.863282v-7.59375c0-10.921875-11.859375-90.195313-11.859375-90.195313-9.203125-33.558593-40.046875-56.558593-74.835938-55.808593h-321.539062c-34.789063-.75-65.632813 22.25-74.835938 55.808593 0 0-11.859375 79.273438-11.859375 90.195313v7.59375zm0 0" fill="#545c60"/><path d="m418.816406 409.515625-.683594.085937c-3.5-.257812-6.996093-.597656-10.410156-.941406-3.414062-.339844-6.828125-.765625-10.15625-1.277344-2.644531-.34375-5.289062-.769531-7.847656-1.195312-2.132812-.34375-4.269531-.769531-6.316406-1.195312-2.046875-.339844-4.011719-.769532-6.058594-1.195313-2.902344-.597656-5.71875-1.28125-8.53125-1.960937-3.074219-.769532-6.058594-1.539063-8.960938-2.390626-2.644531-.683593-5.292968-1.449218-7.851562-2.304687-3.15625-.9375-6.316406-1.960937-9.386719-3.070313 2.21875-2.304687 4.351563-4.609374 6.316407-6.828124 2.472656-2.730469 4.691406-5.460938 6.824218-8.105469 1.28125-1.535157 2.476563-3.074219 3.585938-4.609375 3.242187-4.179688 6.058594-8.277344 8.53125-12.117188.171875-.253906.34375-.511718.425781-.683594 2.21875-3.410156 4.097656-6.65625 5.804687-9.726562.851563-1.535156 1.621094-3.070312 2.390626-4.523438 3.289062-6.402343 6-13.082031 8.105468-19.96875.214844-.582031.386719-1.179687.511719-1.789062.257813-.941406.339844-1.453125.339844-1.453125 2.847656-.039063 5.679687.425781 8.363281 1.367187 6.078125 1.558594 10.863281 6.242188 12.542969 12.289063l11.011719 63.058594zm0 0" fill="#cfd8dc"/><path d="m426.238281 452.265625c-6.738281 0-13.308593-.167969-19.710937-.425781-2.386719-.171875-4.777344-.253906-7.167969-.425782-6.65625-.425781-13.226563-1.023437-19.539063-1.792968-1.792968-.171875-3.585937-.339844-5.378906-.597656-2.472656-.339844-4.863281-.683594-7.253906-1.023438-2.8125-.425781-5.628906-.851562-8.359375-1.367188-2.648437-.511718-5.292969-.9375-7.9375-1.535156-.683594-.167968-1.367187-.253906-2.046875-.425781h-.085938c-2.988281-.597656-5.886718-1.28125-8.703124-1.960937-1.757813-.335938-3.496094-.765626-5.207032-1.28125-5.121094-1.28125-10.070312-2.644532-14.847656-4.183594-1.449219-.425782-2.902344-.851563-4.265625-1.363282-2.132813-.597656-4.183594-1.367187-6.230469-2.046874-3.5-1.195313-6.828125-2.476563-10.15625-3.757813 2.902344-1.960937 5.71875-3.921875 8.449219-5.972656 2.816406-2.046875 5.460937-4.007813 8.023437-6.058594.417969-.285156.816407-.597656 1.191407-.9375 1.878906-1.449219 3.757812-2.988281 5.546875-4.4375 5.035156-4.265625 9.730468-8.449219 13.996094-12.628906 2.132812-2.046875 4.097656-4.011719 5.972656-5.972657h.085937c3.070313 1.109376 6.230469 2.132813 9.386719 3.070313 2.558594.855469 5.207031 1.621094 7.851562 2.304687 2.984376.851563 5.886719 1.621094 8.960938 2.390626 2.8125.679687 5.628906 1.363281 8.53125 1.960937 2.046875.425781 4.011719.855469 6.058594 1.195313 2.046875.425781 4.183594.851562 6.316406 1.195312 2.558594.425781 5.203125.851562 7.847656 1.195312 1.621094.253907 3.328125.511719 5.035156.679688 1.707032.257812 3.414063.429688 5.121094.597656 3.414063.34375 6.910156.683594 10.410156.941406l.683594-.085937 1.449219 8.277344 4.523437 25.941406zm0 0" fill="#9e9e9e"/><path d="m435.199219 503.464844h-162.132813c9.714844-3.636719 19.15625-7.972656 28.246094-12.96875 1.792969-.9375 3.582031-1.960938 5.289062-2.988282 9.152344-5.207031 17.90625-11.085937 26.199219-17.578124 1.449219-1.109376 2.816407-2.21875 4.179688-3.328126 5.460937-4.351562 10.242187-8.617187 14.507812-12.714843 2.644531-2.472657 5.121094-4.949219 7.339844-7.253907 2.730469.515626 5.546875.941407 8.359375 1.367188 2.390625.339844 4.78125.683594 7.253906 1.023438 1.792969.257812 3.585938.425781 5.378906.597656 6.3125.769531 12.882813 1.367187 19.539063 1.792968 2.390625.171876 4.78125.253907 7.167969.425782 6.402344.257812 12.972656.425781 19.710937.425781l1.453125 8.363281zm0 0" fill="#9e9e9e"/><path d="m358.828125 446.632812c-2.21875 2.304688-4.695313 4.78125-7.339844 7.253907-4.265625 4.097656-9.046875 8.363281-14.507812 12.714843-1.363281 1.109376-2.730469 2.21875-4.179688 3.328126-8.292969 6.492187-17.046875 12.371093-26.199219 17.578124-1.707031 1.027344-3.496093 2.050782-5.289062 2.988282-9.089844 4.996094-18.53125 9.332031-28.246094 12.96875h-179.199218c6.058593-.9375 12.03125-1.960938 17.835937-3.070313 4.265625-.769531 8.53125-1.621093 12.628906-2.472656.890625-.121094 1.773438-.292969 2.644531-.515625.605469-.101562 1.203126-.242188 1.792969-.425781 2.898438-.511719 5.714844-1.195313 8.53125-1.792969 4.609375-1.023438 9.214844-2.132812 13.652344-3.15625 3.925781-.9375 7.765625-1.960938 11.523437-2.902344 4.519532-1.191406 8.871094-2.386718 13.226563-3.667968 3.328125-.9375 6.570313-1.875 9.726563-2.902344 3.328124-.9375 6.570312-2.046875 9.8125-3.15625 2.644531-.851563 5.292968-1.707032 7.851562-2.644532 2.304688-.683593 4.523438-1.449218 6.742188-2.304687 2.898437-1.023437 5.628906-2.046875 8.363281-3.070313 2.472656-.941406 4.863281-1.878906 7.25-2.816406 3.074219-1.195312 6.144531-2.476562 9.046875-3.753906 3.753906-1.539062 7.339844-3.160156 10.921875-4.78125 2.988281-1.363281 5.972656-2.730469 8.875-4.179688 2.816406-1.28125 5.546875-2.644531 8.191406-4.097656 2.816406-1.363281 5.460937-2.816406 8.109375-4.265625 1.449219-.769531 2.898438-1.535156 4.351562-2.390625 3.070313-1.707031 5.972657-3.414062 8.875-5.117187 2.8125-1.707031 5.628907-3.5 8.359376-5.207031 2.476562-1.535157 4.867187-3.070313 7.167968-4.695313 3.328125 1.28125 6.65625 2.5625 10.15625 3.757813l3.070313 1.023437 3.074219 1.023437c7.765624 2.558594 15.871093 4.863282 24.40625 6.828126 2.816406.679687 5.714843 1.363281 8.703124 1.960937h.085938c.671875.183594 1.355469.324219 2.046875.425781 1.792969.429688 3.585937.769532 5.375 1.023438zm0 0" fill="#cfd8dc"/><path d="m385.449219 324.265625s-.082031.511719-.339844 1.453125c-.125.609375-.296875 1.207031-.511719 1.789062-2.105468 6.886719-4.816406 13.566407-8.105468 19.96875-.769532 1.453126-1.539063 2.988282-2.390626 4.523438-1.707031 3.070312-3.585937 6.316406-5.804687 9.726562-.082031.171876-.253906.429688-.425781.683594-2.472656 3.839844-5.289063 7.9375-8.53125 12.117188-1.109375 1.535156-2.304688 3.074218-3.585938 4.609375-2.132812 2.644531-4.351562 5.375-6.824218 8.105469-1.964844 2.21875-4.097657 4.523437-6.316407 6.828124h-.085937c-1.875 1.960938-3.839844 3.925782-5.972656 5.972657-4.265626 4.179687-8.960938 8.363281-13.996094 12.628906-1.789063 1.449219-3.667969 2.988281-5.546875 4.4375-.375.339844-.773438.652344-1.191407.9375-2.5625 2.050781-5.207031 4.011719-8.023437 6.058594-2.730469 2.050781-5.546875 4.011719-8.449219 5.972656-2.300781 1.625-4.691406 3.160156-7.167968 4.695313-2.730469 1.707031-5.546876 3.5-8.359376 5.207031-2.902343 1.703125-5.804687 3.410156-8.875 5.117187-1.453124.855469-2.902343 1.621094-4.351562 2.390625-2.648438 1.449219-5.292969 2.902344-8.109375 4.265625-2.644531 1.453125-5.375 2.816406-8.191406 4.097656-2.902344 1.449219-5.886719 2.816407-8.875 4.179688-3.582031 1.621094-7.167969 3.242188-10.921875 4.78125-2.902344 1.277344-5.972656 2.558594-9.046875 3.753906-2.386719.9375-4.777344 1.875-7.25 2.816406-2.734375 1.023438-5.464844 2.046876-8.363281 3.070313-2.21875.769531-4.4375 1.535156-6.742188 2.304687-2.558594.9375-5.207031 1.792969-7.851562 2.644532-3.242188 1.109375-6.484376 2.21875-9.8125 3.15625-3.15625 1.027344-6.398438 1.964844-9.726563 2.902344-4.355469 1.28125-8.707031 2.476562-13.226563 3.667968-3.757812.941406-7.597656 1.964844-11.523437 2.902344-4.4375 1.023438-9.042969 2.132812-13.652344 3.15625-2.816406.597656-5.632812 1.28125-8.53125 1.792969-.589843.183593-1.1875.324219-1.792969.425781-.871093.222656-1.753906.394531-2.644531.515625-4.097656.851563-8.363281 1.703125-12.628906 2.472656-5.804687 1.109375-11.777344 2.132813-17.835937 3.070313h-17.066407l7.507813-42.921875 1.453125-8.363281c16.46875-2.984376 32-6.484376 46.589843-10.238282 3.074219-.851562 6.144532-1.621094 9.132813-2.476562 2.730469-.765625 5.460937-1.535156 8.105469-2.386719 13.054687-3.753906 25.429687-7.851563 36.949218-12.117187 3.582032-1.367188 6.996094-2.644532 10.410157-4.011719 1.707031-.683594 3.414062-1.363281 5.035156-2.046875.9375-.34375 1.792969-.769532 2.730469-1.195313 1.449218-.597656 2.816406-1.195312 4.179687-1.707031.203125-.144531.4375-.234375.683594-.257812 9.046875-3.839844 17.578125-7.761719 25.515625-11.859376.253906-.085937.511719-.257812.769531-.339843 2.644531-1.367188 5.203125-2.648438 7.761719-4.011719 2.5625-1.367188 5.121094-2.730469 7.511719-4.097656 1.109375-.597656 2.132812-1.195313 3.242187-1.789063l1.792969-1.027343c4.09375-2.300782 8.105469-4.691407 11.945313-6.996094 5.289062-3.328125 10.324218-6.570313 15.019531-9.726563 2.644531-1.792969 5.203125-3.585937 7.679687-5.378906 2.304688-1.703125 4.609375-3.328125 6.742188-5.03125 1.023437-.769531 2.132812-1.621094 3.070312-2.304687.769532-.597657 1.449219-1.195313 2.132813-1.707032 5.460937-4.265625 10.328125-8.363281 14.507812-12.117187 1.449219-1.28125 2.730469-2.476563 4.011719-3.671875 3.753906-3.496094 6.996094-6.738282 9.640625-9.46875.941406-.941406 1.707031-1.792969 2.476563-2.648438.21875-.175781.417968-.375.597656-.597656.253906-.253906.425781-.511719.679687-.765625.3125-.320313.597657-.664063.855469-1.023437.421875-.40625.820312-.832032 1.195312-1.28125 3.15625-3.582032 4.605469-5.632813 4.605469-5.632813zm0 0" fill="#f5f5f5"/><path d="m341.332031 324.265625s-1.449219 2.050781-4.605469 5.632813c-.375.449218-.773437.875-1.195312 1.28125-.257812.359374-.542969.703124-.855469 1.023437-.253906.253906-.425781.511719-.679687.765625-.179688.222656-.378906.421875-.597656.597656-.769532.855469-1.535157 1.707032-2.476563 2.648438-2.644531 2.730468-5.886719 5.972656-9.640625 9.46875-1.28125 1.195312-2.5625 2.390625-4.011719 3.671875-4.179687 3.753906-9.046875 7.851562-14.507812 12.117187-.683594.511719-1.363281 1.109375-2.132813 1.707032-.9375.683593-2.046875 1.535156-3.070312 2.304687-2.132813 1.703125-4.4375 3.328125-6.742188 5.03125-2.730468-1.621094-5.460937-3.15625-8.023437-4.777344-8.546875-5.210937-16.808594-10.878906-24.746094-16.980469-1.277344-.9375-2.558594-1.878906-3.667969-2.816406-1.109375-.851562-2.21875-1.707031-3.15625-2.558594-1.367187-1.109374-2.730468-2.21875-3.925781-3.246093-3.753906-3.15625-6.828125-5.972657-9.300781-8.273438-1.453125-1.28125-2.648438-2.476562-3.671875-3.5-.679688-.683593-1.195313-1.28125-1.707031-1.707031-.597657-.597656-1.023438-1.109375-1.363282-1.449219-.121094-.164062-.261718-.308593-.425781-.429687-.085937-.167969-.171875-.167969-.257813-.253906-.042968-.09375-.101562-.179688-.171874-.257813zm0 0" fill="#cfd8dc"/><path d="m290.816406 370.515625c-2.476562 1.792969-5.035156 3.585937-7.679687 5.378906-4.695313 3.15625-9.730469 6.398438-15.019531 9.726563-3.839844 2.304687-7.851563 4.695312-11.945313 6.996094l-1.792969 1.027343c-1.109375.59375-2.132812 1.191407-3.242187 1.789063-2.390625 1.367187-4.949219 2.730468-7.511719 4.097656-2.644531-1.878906-5.117188-3.839844-7.507812-5.71875-24.300782-18.257812-43.824219-42.117188-56.917969-69.546875h51.199219c.070312.078125.128906.164063.171874.257813.25.203124.476563.433593.683594.683593.339844.339844.765625.851563 1.363282 1.449219.511718.425781 1.027343 1.023438 1.707031 1.707031 1.023437 1.023438 2.21875 2.21875 3.671875 3.5 2.472656 2.300781 5.546875 5.117188 9.300781 8.273438 1.195313 1.027343 2.558594 2.136719 3.925781 3.246093.9375.851563 2.046875 1.707032 3.15625 2.558594 1.109375.9375 2.390625 1.878906 3.667969 2.816406 7.9375 6.101563 16.199219 11.769532 24.746094 16.980469 2.5625 1.621094 5.292969 3.15625 8.023437 4.777344zm0 0" fill="#9e9e9e"/><path d="m243.625 399.53125c-2.558594 1.363281-5.117188 2.644531-7.761719 4.011719-.257812.082031-.515625.253906-.769531.339843-7.9375 4.097657-16.46875 8.019532-25.515625 11.859376-.246094.023437-.480469.113281-.683594.257812-1.363281.511719-2.730469 1.109375-4.179687 1.707031-.9375.425781-1.792969.851563-2.730469 1.195313-1.621094.683594-3.328125 1.363281-5.035156 2.046875-3.328125-1.792969-6.570313-3.582031-9.558594-5.460938h-.082031c-1.792969-1.109375-3.5-2.21875-5.207032-3.328125-1.707031-1.023437-3.328124-2.21875-4.949218-3.328125-3.242188-2.304687-6.230469-4.523437-9.046875-6.910156-1.449219-1.109375-2.816407-2.304687-4.179688-3.5-1.367187-1.109375-2.644531-2.304687-3.925781-3.5-3.585938-3.328125-6.828125-6.65625-9.8125-9.984375-.257812-.339844-.597656-.679688-.769531-.9375-1.023438-1.109375-1.960938-2.21875-2.816407-3.328125-3.742187-4.523437-7.191406-9.285156-10.324218-14.25-.675782-.964844-1.300782-1.960937-1.878906-2.988281-3.992188-6.703125-7.363282-13.757813-10.066407-21.078125-.511719-1.363281-.941406-2.644531-1.367187-3.839844-.984375-2.878906-1.8125-5.8125-2.472656-8.789063-.15625-.472656-.269532-.957031-.34375-1.449218-.257813-1.011719-.457032-2.035156-.597657-3.070313 2.28125-.625 4.636719-.9375 7-.941406h52.648438c13.09375 27.429687 32.617187 51.289063 56.917969 69.546875 2.390624 1.878906 4.863281 3.839844 7.507812 5.71875zm0 0" fill="#f5f5f5"/><path d="m196.949219 420.949219c-3.414063 1.367187-6.828125 2.644531-10.410157 4.011719-11.519531 4.265624-23.894531 8.363281-36.949218 12.117187-2.644532.851563-5.375 1.621094-8.105469 2.386719-2.988281.855468-6.058594 1.625-9.132813 2.476562-14.589843 3.753906-30.121093 7.253906-46.589843 10.238282l1.535156-8.957032 9.128906-52.226562 2.644531-14.761719 6.65625-38.3125c.8125-3.535156 2.875-6.65625 5.804688-8.792969 2.355469-1.875 5.09375-3.210937 8.019531-3.921875.140625 1.035157.339844 2.058594.597657 3.070313.082031.492187.199218.976562.34375 1.449218.660156 2.976563 1.488281 5.910157 2.472656 8.789063.34375 1.195313.855468 2.476563 1.367187 3.839844 2.703125 7.320312 6.074219 14.375 10.066407 21.078125.597656.941406 1.195312 1.964844 1.878906 2.988281 3.132812 4.964844 6.582031 9.726563 10.324218 14.25.855469 1.109375 1.792969 2.21875 2.816407 3.328125.171875.257812.511719.597656.769531.9375 3.09375 3.496094 6.371094 6.828125 9.8125 9.984375 1.28125 1.195313 2.558594 2.390625 3.925781 3.5 1.28125 1.195313 2.730469 2.390625 4.179688 3.5 2.816406 2.386719 5.804687 4.605469 9.046875 6.910156 1.621094 1.109375 3.242187 2.304688 4.949218 3.328125 1.707032 1.109375 3.328126 2.21875 5.121094 3.328125.085938.085938.085938 0 .167969 0h.171875c1.449219.9375 2.902344 1.878907 4.4375 2.730469 1.621094.9375 3.242188 1.792969 4.949219 2.730469zm0 0" fill="#cfd8dc"/><path d="m187.734375 281.601562h136.53125v42.664063h-136.53125zm0 0" fill="#545c60"/><path d="m213.332031 42.667969c-5.21875 3.945312-10.207031 8.1875-14.933593 12.714843-1.621094 1.535157-3.242188 3.070313-4.863282 4.691407-1.023437 1.023437-2.132812 2.046875-3.070312 3.15625-5.375 5.378906-10.496094 11.09375-15.277344 16.726562-1.449219 1.621094-2.8125 3.328125-4.179688 4.949219-1.449218 1.792969-2.902343 3.667969-4.351562 5.375-2.902344 3.671875-5.546875 7.085938-7.9375 10.242188-.339844.425781-.597656.765624-.765625 1.023437-.941406 1.195313-1.707031 2.304687-2.476563 3.328125-2.386718 3.15625-4.351562 5.972656-5.972656 8.191406-1.28125-3.070312-2.472656-6.230468-3.753906-9.472656-1.28125-3.496094-2.644531-6.996094-3.839844-10.582031-.769531-2.046875-1.453125-4.179688-2.21875-6.3125-1.023437-3.242188-2.132812-6.484375-3.15625-9.898438l-2.21875-1.023437c1.234375-2.523438 2.660156-4.949219 4.265625-7.253906 11.089844-16.226563 29.496094-25.910157 49.152344-25.855469zm0 0" fill="#9e9e9e"/><path d="m245.84375 249.089844c-3.070312 1.363281-6.058594 2.644531-8.957031 3.839844h-.085938c-.769531.339843-1.453125.59375-2.21875.9375-1.367187.511718-2.730469 1.023437-4.011719 1.535156-4.09375 1.621094-8.019531 3.074218-11.777343 4.351562-2.046875.683594-4.007813 1.367188-5.972657 2.046875-2.816406.941407-5.632812 1.792969-8.277343 2.5625-.765625-.597656-3.496094-2.816406-7.933594-6.914062-26.515625-25.847657-49.574219-55.019531-68.609375-86.78125v-68.269531c.003906-5.714844.808594-11.402344 2.390625-16.894532 1.003906-3.355468 2.316406-6.613281 3.925781-9.726562l2.21875 1.023437c1.023438 3.414063 2.132813 6.65625 3.15625 9.898438.765625 2.132812 1.449219 4.265625 2.21875 6.3125 1.195313 3.585937 2.558594 7.085937 3.839844 10.582031 1.28125 3.242188 2.472656 6.402344 3.753906 9.472656 1.109375 2.644532 2.132813 5.289063 3.242188 7.851563 4.351562 10.238281 8.875 19.710937 13.570312 28.585937 1.703125 3.414063 3.496094 6.65625 5.289063 9.8125v.085938c1.363281 2.476562 2.816406 4.949218 4.179687 7.339844 2.902344 4.949218 5.71875 9.554687 8.621094 13.992187l3.070312 4.609375c0 .085938.085938.171875.171876.257812 1.449218 2.21875 2.902343 4.351563 4.4375 6.398438 1.109374 1.621094 2.21875 3.242188 3.414062 4.777344.851562 1.195312 1.789062 2.476562 2.730469 3.671875 3.925781 5.117187 7.765625 9.898437 11.433593 14.25 1.023438 1.195312 2.046876 2.304687 3.070313 3.414062 1.621094 1.875 3.246094 3.667969 4.867187 5.375l.765626.769531c1.367187 1.535157 2.730468 2.898438 4.097656 4.351563 5.800781 5.800781 11.179687 10.578125 15.699218 14.421875l.085938.082031c1.367188 1.195313 2.730469 2.21875 3.925781 3.160157.429688.375.886719.714843 1.367188 1.023437.851562.683594 1.535156 1.277344 2.300781 1.792969zm0 0" fill="#cfd8dc"/><path d="m204.542969 264.363281c-3.496094 1.023438-6.910157 1.960938-10.066407 2.730469-1.625.425781-3.246093.769531-4.867187 1.195312-.339844.085938-.765625.167969-1.109375.253907-5.203125 1.195312-9.640625 2.050781-13.480469 2.730469-.21875.089843-.449219.144531-.683593.171874-3.667969.597657-6.65625 1.023438-8.703126 1.28125-.597656.085938-1.195312.085938-1.621093.167969-.257813 0-.34375.085938-.511719.085938-.230469-.019531-.464844.011719-.683594.085937h-.597656v2.730469h-.085938l-1.023437-.511719c-2.503906-1.242187-4.925781-2.636718-7.253906-4.179687-16.214844-11.140625-25.890625-29.566407-25.855469-49.238281v-51.199219c19.035156 31.761719 42.09375 60.933593 68.609375 86.78125 4.4375 4.097656 7.167969 6.316406 7.933594 6.914062zm0 0" fill="#9e9e9e"/><path d="m384 145.066406v51.199219c-34.132812 51.199219-119.464844 85.335937-119.464844 85.335937h-76.800781c-4.511719.015626-9.007813-.5-13.398437-1.539062-3.925782-.855469-7.734376-2.171875-11.347657-3.925781-.257812-.082031-.511719-.253907-.769531-.339844v-2.730469h.597656c.21875-.074218.453125-.105468.683594-.085937.167969 0 .253906-.085938.511719-.085938.425781-.082031 1.023437-.082031 1.621093-.167969 2.046876-.257812 5.035157-.683593 8.703126-1.28125.234374-.027343.464843-.082031.683593-.171874 3.839844-.679688 8.277344-1.535157 13.480469-2.730469.34375-.085938.769531-.167969 1.109375-.253907 1.621094-.425781 3.242187-.769531 4.867187-1.195312 3.15625-.769531 6.570313-1.707031 10.066407-2.730469 2.644531-.769531 5.460937-1.621093 8.277343-2.5625 2.476563-.851562 5.035157-1.703125 7.59375-2.644531 2.136719-.679688 4.4375-1.535156 6.742188-2.472656.441406-.105469.867188-.246094 1.28125-.425782.683594-.257812 1.363281-.515624 2.132812-.855468h.085938c1.28125-.511719 2.558594-1.023438 3.925781-1.535156.765625-.34375 1.449219-.597657 2.21875-.9375h.085938c2.898437-1.195313 5.886719-2.476563 8.957031-3.839844 2.5625-1.109375 5.121094-2.304688 7.765625-3.5l.511719-.257813c2.390625-1.109375 4.867187-2.300781 7.339844-3.582031.644531-.277344 1.269531-.59375 1.878906-.9375 4.949218-2.390625 9.898437-5.035156 14.933594-7.9375 19.597656-11.085938 38.160156-23.910156 55.464843-38.316406.421875-.3125.820313-.652344 1.195313-1.023438 1.878906-1.535156 3.839844-3.15625 5.71875-4.863281 2.132812-1.792969 4.265625-3.671875 6.398437-5.632813 2.304688-2.132812 4.691407-4.265624 6.996094-6.484374 1.539063-1.449219 3.074219-2.902344 4.609375-4.4375 1.195312-1.195313 2.390625-2.304688 3.5-3.5 1.621094-1.621094 3.15625-3.242188 4.691406-4.863282.613282-.523437 1.183594-1.09375 1.707032-1.707031.511718-.597656 1.023437-1.195313 1.621093-1.789063 1.964844-2.050781 3.925781-4.097656 5.804688-6.230468.167969-.171875.339843-.425782.511719-.597656.324218-.269532.613281-.585938.851562-.9375.085938 0 .085938 0 .085938-.085938.277343-.261719.535156-.550781.769531-.855469.167969-.167969.339843-.253906.425781-.425781l.253906-.253906c.367188-.378906.707032-.777344 1.023438-1.195313.367187-.347656.707031-.71875 1.027344-1.109375.164062-.148437.308593-.320312.425781-.511718.363281-.351563.703125-.722657 1.023437-1.109376v-.085937c.585938-.558594 1.125-1.15625 1.621094-1.792969zm0 0" fill="#f5f5f5"/><path d="m384 196.265625v25.601563c.011719 15.84375-6.277344 31.046874-17.484375 42.25-11.203125 11.203124-26.402344 17.496093-42.25 17.484374h-59.730469s85.332032-34.136718 119.464844-85.335937zm0 0" fill="#9e9e9e"/><path d="m298.667969 17.066406v25.601563h-85.335938v-25.601563c.015625-4.707031 3.828125-8.519531 8.535157-8.53125h68.265624c4.707032.011719 8.519532 3.824219 8.535157 8.53125zm0 0" fill="#9e9e9e"/><path d="m375.980469 154.027344c-1.878907 2.132812-3.839844 4.179687-5.804688 6.230468-1.109375 1.191407-2.21875 2.300782-3.328125 3.496094-1.535156 1.621094-3.070312 3.242188-4.691406 4.863282-1.109375 1.195312-2.304688 2.304687-3.5 3.5-1.535156 1.535156-3.070312 2.988281-4.609375 4.4375-2.304687 2.21875-4.691406 4.351562-6.996094 6.484374-.085937-.425781-.257812-.765624-.339843-1.195312-.105469-.464844-.246094-.921875-.429688-1.363281-.425781-1.449219-.851562-2.902344-1.363281-4.523438 0-.085937 0-.085937-.085938-.171875-.160156-.609375-.359375-1.207031-.597656-1.789062-4.960937-14.707032-11.425781-28.859375-19.285156-42.242188-1.023438-1.792968-2.132813-3.667968-3.328125-5.546875-.308594-.585937-.652344-1.15625-1.023438-1.707031-6.734375-10.90625-14.203125-21.339844-22.359375-31.230469-2.21875-2.730469-4.4375-5.375-6.910156-8.191406-1.792969-2.046875-3.585937-4.097656-5.546875-6.230469-.851562-.851562-1.621094-1.792968-2.558594-2.730468-2.21875-2.390626-4.523437-4.777344-6.914062-7.167969-.203125-.25-.433594-.476563-.683594-.683594-1.042969-1.144531-2.15625-2.226563-3.328125-3.242187-1.449219-1.535157-2.984375-2.984376-4.605469-4.4375-.261718-.304688-.550781-.589844-.855468-.851563-2.046876-1.964844-4.179688-3.839844-6.3125-5.804687-2.132813-1.960938-4.351563-3.839844-6.570313-5.800782-2.132813-1.792968-4.269531-3.671875-6.488281-5.460937h59.734375s5.035156 5.035156 12.375 13.738281c.765625.851562 1.535156 1.707031 2.304687 2.730469 5.460938 6.570312 12.03125 14.847656 18.773438 24.574219 1.875 2.730468 3.839844 5.632812 5.714844 8.535156 8.988281 13.6875 16.648437 28.203125 22.871093 43.347656 1.195313 2.988281 2.304688 5.972656 3.328125 8.960938.085938.085937.085938.171874.167969.339843 0 0 .085937.085938 0 .085938l1.027344 3.074219c.167969.597656.425781 1.191406.59375 1.789062.089843.378906.203125.75.34375 1.109375.253906.855469.511719 1.792969.765625 2.648437zm0 0" fill="#cfd8dc"/><path d="m384 102.398438v42.667968c-.496094.636719-1.035156 1.234375-1.621094 1.792969v.085937c-.320312.386719-.660156.757813-1.023437 1.109376-.117188.191406-.261719.363281-.425781.511718-.320313.390625-.660157.761719-1.027344 1.109375-.316406.417969-.65625.816407-1.023438 1.195313l-.253906.253906c-.085938.171875-.257812.257812-.425781.425781-.234375.304688-.492188.59375-.769531.855469 0 .085938 0 .085938-.085938.085938-.238281.351562-.527344.667968-.851562.9375-.171876.171874-.34375.425781-.511719.597656l-.515625-.425782c-.253906-.855468-.511719-1.792968-.765625-2.648437-.085938-.339844-.257813-.765625-.34375-1.109375-.160157-.609375-.359375-1.207031-.59375-1.789062l-1.027344-3.074219c.085937 0 0-.085938 0-.085938-.082031-.167969-.082031-.253906-.167969-.339843-1.023437-2.984376-2.132812-5.972657-3.328125-8.960938-6.222656-15.144531-13.882812-29.660156-22.871093-43.347656-1.875-2.988282-3.839844-5.804688-5.714844-8.535156-6.742188-9.726563-13.3125-18.003907-18.773438-24.574219-.769531-.9375-1.539062-1.878907-2.304687-2.730469-7.339844-8.703125-12.375-13.738281-12.375-13.738281h17.066406c15.847656-.011719 31.046875 6.277343 42.25 17.480469 11.207031 11.207031 17.496094 26.40625 17.484375 42.25zm0 0" fill="#9e9e9e"/><path d="m260.523438 53.929688c-2.476563 1.707031-4.863282 3.414062-7.167969 5.121093-.511719.425781-1.109375.769531-1.621094 1.28125-2.390625 1.707031-4.695313 3.410157-6.914063 5.203125-7.804687 6.09375-15.242187 12.648438-22.269531 19.628906-2.136719 2.046876-4.183593 4.09375-6.230469 6.144532-3.925781 4.09375-7.507812 8.105468-10.753906 12.03125-1.191406 1.363281-2.21875 2.644531-3.242187 3.925781-1.109375 1.363281-2.046875 2.644531-2.984375 3.839844-.566406.609375-1.078125 1.265625-1.539063 1.960937-4.644531 6.144532-8.976562 12.527344-12.96875 19.113282-.9375 1.621093-1.792969 3.160156-2.644531 4.609374-2.644531 4.609376-4.78125 8.789063-6.402344 12.375-.339844.679688-.597656 1.277344-.851562 1.875-.339844.769532-.597656 1.453126-.855469 2.050782-.226563.371094-.398437.773437-.511719 1.191406-.851562 2.050781-1.535156 3.757812-1.960937 5.035156-1.792969-3.15625-3.585938-6.398437-5.289063-9.8125-4.695312-8.875-9.21875-18.347656-13.570312-28.585937-1.109375-2.5625-2.132813-5.207031-3.242188-7.851563 1.621094-2.21875 3.585938-5.035156 5.972656-8.191406.769532-1.023438 1.535157-2.132812 2.476563-3.328125.167969-.253906.425781-.597656.765625-1.023437 2.304688-3.15625 5.035156-6.570313 7.9375-10.242188 1.449219-1.707031 2.902344-3.582031 4.351562-5.375 1.367188-1.621094 2.816407-3.242188 4.179688-4.949219 4.78125-5.632812 9.902344-11.347656 15.277344-16.726562 1.023437-1.109375 2.046875-2.132813 3.070312-3.15625 1.535156-1.535157 3.15625-3.15625 4.863282-4.691407 4.726562-4.527343 9.714843-8.769531 14.933593-12.714843h34.132813c2.21875 1.789062 4.355468 3.667969 6.488281 5.460937 2.21875 1.960938 4.4375 3.839844 6.570313 5.800782zm0 0" fill="#f5f5f5"/><path d="m141.484375 439.464844c-15.175781-16.878906-28.292969-35.496094-39.085937-55.464844zm0 0" fill="#f9eab0"/><g fill="#7f6e5d"><path d="m384 136.535156v21.417969c-10.082031 11.289063-20.765625 22.027344-32 32.167969-30.316406 27.617187-64.859375 50.203125-102.316406 66.902344-13.292969 5.886718-26.945313 10.929687-40.871094 15.105468-.085938 0-.085938.085938-.171875.085938h-.085937c-.851563.253906-1.707032.511718-2.476563.679687-10.410156 3.085938-21.015625 5.480469-31.742187 7.167969-3.925782-.855469-7.734376-2.171875-11.347657-3.925781-.257812-.082031-.511719-.253907-.769531-.339844h-.085938l-1.023437-.511719c-2.503906-1.242187-4.925781-2.636718-7.253906-4.179687.800781-3.664063 3.9375-6.347657 7.679687-6.570313 8.542969-.929687 17.007813-2.441406 25.34375-4.523437 2.988282-.683594 6.230469-1.535157 9.730469-2.5625 3.070313-.765625 6.3125-1.707031 9.726563-2.730469 6.996093-2.21875 14.761718-4.863281 22.953124-8.105469 2.902344-1.109375 5.804688-2.304687 8.875-3.582031 2.902344-1.28125 5.804688-2.5625 8.789063-3.925781 32.824219-15.097657 63.269531-34.902344 90.371094-58.796875 2.300781-2.046875 4.605469-4.09375 6.910156-6.3125 2.304687-2.050782 4.523437-4.183594 6.828125-6.402344 5.035156-4.863281 10.066406-9.980469 15.101562-15.359375v-.085937c2.21875-2.386719 4.4375-4.691407 6.570313-7.167969v-.085938c1.621094-1.789062 3.246094-3.582031 4.78125-5.375.515625-.601562 1.117187-1.117187 1.792969-1.535156 1.390625-.925781 3.019531-1.429687 4.691406-1.449219zm0 0"/><path d="m384 187.734375v22.78125c-27.390625 33.878906-73.386719 59.050781-98.558594 71.085937h-29.441406c.042969-3.484374 2.15625-6.605468 5.375-7.9375.855469-.339843 83.285156-33.792968 115.542969-82.089843 1.566406-2.390625 4.226562-3.832031 7.082031-3.839844zm0 0"/><path d="m351.914062 190.039062c-.78125.53125-1.648437.933594-2.558593 1.191407-.746094.238281-1.523438.355469-2.304688.34375-2.457031.019531-4.796875-1.042969-6.398437-2.902344-.828125-.96875-1.441406-2.105469-1.792969-3.328125-.425781-1.621094-.9375-3.242188-1.535156-5.035156-7.765625-25.171875-27.648438-69.121094-77.484375-115.457032-1.621094-1.449218-3.328125-2.984374-5.035156-4.519531-.511719-.429687-.9375-.855469-1.449219-1.28125-2.132813-1.960937-4.351563-3.925781-6.570313-5.71875-1.539062-1.449219-3.160156-2.730469-4.78125-4.09375-1.957031-1.617187-3.085937-4.03125-3.070312-6.570312h21.757812c1.707032 1.535156 3.414063 2.984375 5.035156 4.519531.191407.117188.363282.261719.511719.429688.171875.085937.171875.167968.257813.253906 51.542968 46.167968 74.496094 91.136718 84.566406 119.722656 1.195312 3.160156 2.132812 6.230469 2.984375 8.960938.429687 1.449218.855469 2.816406 1.195313 4.179687 1.019531 3.496094-.324219 7.25-3.328126 9.304687zm0 0"/><path d="m384 153.683594c.011719 3.808594-2.546875 7.140625-6.230469 8.109375-.742187.238281-1.519531.351562-2.304687.339843-1.925782.003907-3.796875-.660156-5.289063-1.875-1.414062-1.097656-2.433593-2.625-2.902343-4.355468-.339844-1.191406-.765626-2.472656-1.109376-3.667969-17.320312-55.382813-64.511718-102.996094-65.023437-103.507813-1.589844-1.613281-2.480469-3.792968-2.472656-6.058593h20.308593c25.699219 27.867187 46.140626 60.160156 60.332032 95.316406 1.105468 2.988281 2.132812 5.972656 3.070312 8.960937.425782 1.449219.851563 2.898438 1.28125 4.351563.242188.769531.359375 1.578125.339844 2.386719zm0 0"/><path d="m252.671875 254.207031c-.792969 1.097657-1.851563 1.976563-3.070313 2.5625-1.167968.570313-2.457031.863281-3.757812.851563-1.847656.023437-3.652344-.578125-5.117188-1.707032-1.195312-.851562-2.476562-1.875-3.839843-2.984374h-.085938c-2.304687-1.792969-4.78125-3.925782-7.511719-6.316407-26.214843-23.535156-48.132812-51.460937-64.765624-82.515625-.304688-.425781-.5625-.886718-.769532-1.367187-8.316406-14.730469-15.613281-30.011719-21.84375-45.738281-.085937-.257813-.257812-.511719-.34375-.769532-3.921875-9.640625-7.679687-19.964844-11.175781-30.71875 1.003906-3.355468 2.316406-6.613281 3.925781-9.726562 1.234375-2.523438 2.660156-4.949219 4.265625-7.253906 2.878907.71875 5.175781 2.882812 6.058594 5.714843 2.304687 7.253907 4.691406 14.253907 7.167969 21.078125 1.195312 3.242188 2.390625 6.484375 3.667968 9.558594.597657 1.707031 1.28125 3.328125 1.964844 4.949219l1.789063 4.351562c3.585937 8.875 7.511719 17.410157 11.691406 25.601563 1.535156 3.15625 3.15625 6.3125 4.863281 9.386718 1.027344 2.046876 2.136719 4.09375 3.246094 6.058594.59375 1.109375 1.277344 2.300782 1.960938 3.410156 16.621093 30.808594 39.015624 58.128907 65.960937 80.472657 1.453125 1.191406 2.730469 2.21875 4.011719 3.15625 1.15625.863281 2.066406 2.007812 2.644531 3.328125 1.28125 2.828125.921875 6.128906-.9375 8.617187zm0 0"/><path d="m211.625 269.652344c-.824219 1.035156-1.839844 1.902344-2.984375 2.5625-.085937-.085938-.085937 0-.085937 0-.851563.253906-1.707032.511718-2.476563.679687-.410156.140625-.84375.199219-1.277344.171875-1.84375-.015625-3.636719-.613281-5.121093-1.707031-.253907-.253906-2.132813-1.621094-5.203126-4.265625-1.964843-1.792969-4.523437-4.097656-7.597656-7.082031-22.261718-22.257813-42.007812-46.898438-58.878906-73.472657v-24.40625c2.949219-.003906 5.691406 1.511719 7.253906 4.011719 19.355469 32.757813 43.292969 62.585938 71.082032 88.574219 2.304687 1.964844 3.5 2.902344 3.585937 2.988281 1.355469 1.039063 2.367187 2.46875 2.898437 4.09375.984376 2.648438.53125 5.617188-1.195312 7.851563zm0 0"/><path d="m171.605469 167.890625c-2.257813.011719-4.429688-.878906-6.03125-2.472656-1.601563-1.59375-2.5-3.757813-2.503907-6.019531v-.082032c0-.976562.167969-1.949218.496094-2.867187 5.113282-14.324219 26.867188-64.566407 92.113282-109.542969 3.878906-2.570312 9.101562-1.5625 11.742187 2.269531s1.726563 9.074219-2.058594 11.78125c-62.128906 42.835938-82.089843 91.148438-85.640625 101.007813-1.140625 3.523437-4.414062 5.914062-8.117187 5.925781zm0 0"/><path d="m221.867188 42.667969c-.019532 2.679687-1.277344 5.203125-3.414063 6.824219-22.496094 18.867187-42.40625 40.617187-59.222656 64.683593-1.109375 1.535157-1.960938 2.816407-2.730469 3.839844-.960938 1.292969-2.257812 2.296875-3.753906 2.902344-1.023438.4375-2.125.671875-3.242188.683593-3.175781.023438-6.105468-1.71875-7.59375-4.523437-.128906-.277344-.242187-.5625-.34375-.855469-1.058594-2.6875-.707031-5.730468.941406-8.105468.9375-1.363282 2.046876-2.816407 3.242188-4.523438 1.707031-2.386719 3.753906-5.203125 6.058594-8.191406v-.085938c14.195312-19.097656 30.261718-36.738281 47.957031-52.648437zm0 0"/><path d="m349.867188 324.265625c0 1.808594-.566407 3.570313-1.621094 5.035156-15.089844 18.484375-32.761719 34.695313-52.480469 48.128907-.214844.226562-.476563.402343-.769531.511718-15.09375 10.804688-30.917969 20.554688-47.359375 29.183594-.085938 0-.171875 0-.171875.085938-15.089844 7.949218-30.617188 15.046874-46.503906 21.246093-.566407.328125-1.167969.585938-1.792969.769531-17.84375 7.015626-36.042969 13.082032-54.527344 18.175782-.515625.222656-1.0625.367187-1.621094.425781-18.347656 5.121094-37.121093 9.472656-55.722656 12.714844-.5.140625-1.019531.199219-1.535156.171875-.492188.027344-.980469-.03125-1.453125-.171875l1.453125-8.363281 1.535156-8.957032c13.054687-2.390625 26.027344-5.292968 38.910156-8.535156 3.074219-.765625 6.144531-1.535156 9.132813-2.390625h.085937c.339844-.082031.59375-.167969.851563-.253906.9375-.257813 1.960937-.511719 2.902344-.769531 1.789062-.511719 3.414062-1.023438 5.117187-1.535157h.085937c11.351563-3.242187 22.273438-6.742187 32.855469-10.582031h.085938c3.328125-1.195312 6.65625-2.386719 9.898437-3.667969.085938.085938.085938 0 .167969 0h.085937c2.132813-.855469 4.183594-1.621093 6.316407-2.476562 1.277343-.511719 2.472656-.9375 3.667969-1.535157h.085937c10.410156-4.179687 20.480469-8.703124 30.207031-13.398437 2.816406-1.449219 5.632813-2.8125 8.363282-4.265625 1.195312-.597656 2.304687-1.195312 3.5-1.792969 1.621093-.851562 3.15625-1.703125 4.777343-2.644531 10.835938-5.886719 21.164063-12.03125 30.71875-18.34375 2.648438-1.707031 5.207031-3.5 7.679688-5.292969 1.027343-.683593 2.050781-1.363281 3.074219-2.132812 1.535156-1.109375 2.984374-2.21875 4.4375-3.328125 14.570312-10.53125 27.957031-22.605469 39.933593-36.011719zm0 0"/><path d="m393.8125 325.632812v.253907c-6.53125 23.964843-18.738281 46.003906-35.582031 64.257812-2.050781 2.304688-4.097657 4.609375-6.230469 6.996094-2.132812 2.304687-4.351562 4.523437-6.65625 6.828125-8.59375 8.503906-17.746094 16.429688-27.390625 23.722656-2.730469 2.046875-5.546875 4.09375-8.449219 6.144532-2.816406 1.960937-5.71875 3.925781-8.703125 5.886718-37.292969 24.492188-89.175781 47.785156-161.367187 63.742188h-54.101563c-.011719-4.195313 3.027344-7.777344 7.167969-8.445313 95.488281-15.359375 159.402344-43.351562 201.898438-72.277343 14.777343-10.03125 28.550781-21.460938 41.132812-34.132813.308594-.292969.59375-.605469.851562-.941406 18.238282-17.660157 32.039063-39.386719 40.277344-63.402344h8.789063c2.847656-.039063 5.679687.425781 8.363281 1.367187zm0 0"/><path d="m420.265625 417.792969c-.683594.242187-1.40625.359375-2.132813.339843h-.597656c-24.554687-1.730468-48.800781-6.488281-72.191406-14.164062-1.878906-.597656-3.753906-1.195312-5.632812-1.878906-1.203126-.414063-2.289063-1.117188-3.15625-2.046875-2.402344-2.242188-3.210938-5.714844-2.046876-8.789063.421876-1.269531 1.152344-2.414062 2.132813-3.328125 2.3125-2.222656 5.679687-2.949219 8.703125-1.878906 1.195312.429687 2.390625.855469 3.585938 1.195313 3.070312 1.023437 6.140624 2.046874 9.300781 2.902343 19.269531 5.695313 39.09375 9.328125 59.136719 10.835938l1.449218 8.535156zm0 0"/><path d="m298.238281 374.785156c-.617187 1.054688-1.460937 1.957032-2.472656 2.644532-.214844.226562-.476563.402343-.769531.511718-1.265625.742188-2.710938 1.125-4.179688 1.109375-1.496094.007813-2.964844-.375-4.265625-1.109375-1.195312-.683594-2.304687-1.367187-3.414062-2.046875-2.730469-1.621093-5.460938-3.242187-8.023438-4.863281-18.722656-11.472656-35.902343-25.292969-51.113281-41.132812-1.378906-1.550782-2.136719-3.554688-2.132812-5.632813h20.566406c14.546875 13.769531 30.605468 25.851563 47.871094 36.011719 1.535156.9375 3.15625 1.878906 4.777343 2.816406 1.019531.566406 1.875 1.390625 2.476563 2.390625 2.085937 2.675781 2.355468 6.347656.679687 9.300781zm0 0"/><path d="m427.691406 460.628906c-.476562.105469-.964844.160156-1.453125.171875-21.574219.058594-43.121093-1.625-64.425781-5.035156-1.535156-.257813-2.984375-.511719-4.4375-.769531-1.960938-.339844-3.925781-.679688-5.886719-1.109375-3.414062-.597657-6.828125-1.363281-10.242187-2.132813-13.746094-3.054687-27.261719-7.074218-40.445313-12.03125-1.535156-.511718-2.988281-1.109375-4.523437-1.707031-2.128906-.78125-3.851563-2.394531-4.769532-4.472656-.914062-2.074219-.949218-4.433594-.09375-6.535157.628907-1.621093 1.730469-3.015624 3.15625-4.011718 2.320313-1.554688 5.253907-1.875 7.851563-.851563 1.792969.683594 3.582031 1.363281 5.375 1.960938 3.328125 1.28125 6.742187 2.476562 10.15625 3.585937 13.800781 4.457032 27.882813 7.992188 42.152344 10.582032.203125-.007813.40625.019531.597656.082031 21.179687 3.535156 42.613281 5.335937 64.085937 5.378906l1.449219 8.53125zm0 0"/><path d="m250.539062 404.566406c-.753906 1.070313-1.746093 1.945313-2.902343 2.558594-.085938 0-.171875 0-.171875.085938-1.210938.535156-2.515625.824218-3.839844.851562-1.804688.003906-3.566406-.566406-5.03125-1.621094-1.195312-.851562-2.304688-1.707031-3.5-2.558594-2.558594-1.960937-5.035156-3.925781-7.339844-5.804687-24.101562-18.800781-43.453125-43.003906-56.488281-70.652344-.40625-1.003906-.609375-2.078125-.597656-3.160156h17.917969c13.5 25.605469 32.570312 47.855469 55.808593 65.109375 1.367188 1.109375 2.816407 2.21875 4.265625 3.242188 1.003906.769531 1.84375 1.726562 2.476563 2.816406 1.519531 2.917968 1.289062 6.4375-.597657 9.132812zm0 0"/><path d="m204.457031 424.960938c-1.085937 2.101562-3.003906 3.648437-5.289062 4.265624-.726563.175782-1.472657.261719-2.21875.257813-1.402344-.007813-2.777344-.359375-4.011719-1.027344-2.21875-1.109375-4.265625-2.300781-6.398438-3.496093-3.242187-1.878907-6.316406-3.839844-9.300781-5.804688-32.933593-20.152344-56.554687-52.515625-65.707031-90.027344 2.355469-1.875 5.09375-3.210937 8.019531-3.921875 2.28125-.625 4.636719-.9375 7-.941406h1.535157c1.707031 9.898437 12.628906 55.636719 69.375 87.210937 1.109374.683594 2.304687 1.367188 3.5 1.964844 1.753906.886719 3.097656 2.414063 3.753906 4.265625 1.066406 2.320313.972656 5.011719-.257813 7.253907zm0 0"/><path d="m147.113281 445.867188c-.730469.652343-1.566406 1.171874-2.472656 1.535156-.515625.222656-1.0625.367187-1.621094.425781-.5.140625-1.019531.199219-1.535156.171875-2.457031.023438-4.800781-1.039062-6.402344-2.902344-.9375-1.023437-1.875-2.132812-2.730469-3.15625-2.132812-2.476562-4.179687-4.863281-6.144531-7.253906-11.234375-13.625-21.203125-28.25-29.78125-43.691406l2.644531-14.761719c4.105469-1.808594 8.910157-.082031 10.925782 3.925781 9.652344 17.6875 21.152344 34.308594 34.300781 49.578125h.085937c1.109376 1.367188 2.304688 2.730469 3.5 4.097657.84375.910156 1.433594 2.027343 1.707032 3.242187.96875 3.160156 0 6.597656-2.476563 8.789063zm0 0"/><path d="m367.1875 448c-.238281 1.703125-1.015625 3.289062-2.21875 4.523438-1.023438 1.023437-2.046875 2.132812-3.15625 3.242187-19.480469 19.601563-42.160156 35.734375-67.070312 47.699219h-30.207032c.039063-3.550782 2.234375-6.726563 5.542969-8.019532 26.277344-9.925781 50.425781-24.753906 71.167969-43.691406h.085937c2.648438-2.386718 5.121094-4.777344 7.425781-7.082031h.085938c1.363281-1.363281 2.644531-2.644531 3.839844-3.925781 1.804687-1.894532 4.394531-2.839844 6.996094-2.558594.148437-.007812.292968.023438.425781.085938.203125-.007813.40625.019531.597656.082031 0 0 0-.082031.085937 0 1.496094.292969 2.867188 1.039062 3.925782 2.136719 2.039062 1.921874 2.972656 4.746093 2.472656 7.507812zm0 0"/></g><path d="m233.648438 141.558594c-8.109376-2.980469-16.625-4.707032-25.257813-5.121094-11.601563-.875-23.214844 1.601562-33.449219 7.132812 1.167969-14.933593 35.789063-17.882812 52.710938-14.042968 2.683594.332031 5.019531 1.988281 6.226562 4.40625 1.207032 2.421875 1.121094 5.28125-.230468 7.625zm0 0"/><path d="m230.398438 163.679688c0-10.101563-7.640626-18.292969-17.066407-18.292969s-17.066406 8.191406-17.066406 18.292969c0 10.101562 7.640625 18.292968 17.066406 18.292968s17.066407-8.191406 17.066407-18.292968zm0 0" fill="#02a9f4"/><path d="m218.117188 147.808594c-4.40625-1.675782-9.332032.535156-11.007813 4.941406s.535156 9.332031 4.941406 11.007812c4.40625 1.675782 9.332031-.535156 11.007813-4.941406 1.675781-4.40625-.535156-9.332031-4.941406-11.007812zm0 0" fill="#fff"/><path d="m278.351562 141.558594c8.109376-2.980469 16.625-4.707032 25.257813-5.121094 11.601563-.875 23.214844 1.601562 33.449219 7.132812-1.167969-14.933593-35.789063-17.882812-52.710938-14.042968-2.683594.332031-5.019531 1.988281-6.226562 4.40625-1.207032 2.421875-1.121094 5.28125.230468 7.625zm0 0"/><path d="m315.734375 163.679688c0-10.101563-7.640625-18.292969-17.066406-18.292969s-17.066407 8.191406-17.066407 18.292969c0 10.101562 7.640626 18.292968 17.066407 18.292968s17.066406-8.191406 17.066406-18.292968zm0 0" fill="#02a9f4"/><path d="m304.890625 152.75c-1.675781-4.40625-6.605469-6.617188-11.007813-4.941406-4.40625 1.675781-6.617187 6.601562-4.941406 11.007812 1.671875 4.40625 6.601563 6.617188 11.007813 4.941406 4.40625-1.675781 6.617187-6.601562 4.941406-11.007812zm0 0" fill="#fff"/><path d="m435.199219 512h-358.398438c-2.519531 0-4.914062-1.113281-6.535156-3.042969-1.621094-1.925781-2.304687-4.476562-1.871094-6.957031l28.910157-165.523438c3.632812-12.960937 15.84375-21.609374 29.273437-20.742187h258.894531c13.355469-.878906 25.527344 7.660156 29.238282 20.523437l28.898437 165.742188c.433594 2.484375-.253906 5.03125-1.875 6.957031-1.621094 1.929688-4.015625 3.042969-6.535156 3.042969zm-348.246094-17.066406h338.097656l-27.113281-155.523438c-2.367188-4.59375-7.339844-7.230468-12.464844-6.609375h-258.894531c-5.199219-.636719-10.226563 2.109375-12.503906 6.824219zm0 0"/><path d="m324.265625 332.800781h-136.53125c-4.714844 0-8.535156-3.820312-8.535156-8.535156v-42.664063c0-4.714843 3.820312-8.535156 8.535156-8.535156h136.53125c4.714844 0 8.535156 3.820313 8.535156 8.535156v42.664063c0 4.714844-3.820312 8.535156-8.535156 8.535156zm-128-17.066406h119.46875v-25.601563h-119.46875zm0 0"/><path d="m324.265625 290.132812h-136.53125c-37.6875-.042968-68.222656-30.582031-68.269531-68.265624v-119.46875c.046875-37.683594 30.582031-68.222657 68.269531-68.265626h136.53125c37.6875.042969 68.222656 30.582032 68.269531 68.265626v119.46875c-.046875 37.683593-30.582031 68.222656-68.269531 68.265624zm-136.53125-238.933593c-28.265625.03125-51.171875 22.9375-51.199219 51.199219v119.46875c.027344 28.261718 22.933594 51.167968 51.199219 51.199218h136.53125c28.265625-.03125 51.171875-22.9375 51.199219-51.199218v-119.46875c-.027344-28.261719-22.933594-51.167969-51.199219-51.199219zm0 0"/><path d="m298.667969 51.199219h-85.335938c-4.710937 0-8.53125-3.820313-8.53125-8.53125v-25.601563c.011719-9.421875 7.644531-17.0546872 17.066407-17.066406h68.265624c9.421876.0117188 17.054688 7.644531 17.066407 17.066406v25.601563c0 4.710937-3.820313 8.53125-8.53125 8.53125zm-76.800781-17.066407h68.265624v-17.066406h-68.265624zm0 0"/><path d="m102.398438 512h-93.863282c-4.714844 0-8.535156-3.820312-8.535156-8.535156v-7.59375c0-11.234375 10.734375-83.285156 11.957031-91.464844 9.777344-37.792969 44.25-63.902344 83.273438-63.074219h8.023437c4.710938 0 8.53125 3.820313 8.53125 8.535157 0 4.710937-3.820312 8.53125-8.53125 8.53125h-8.023437c-30.898438-.871094-58.386719 19.496093-66.550781 49.308593-4.417969 29.769531-11.125 77.167969-11.589844 87.226563h85.308594c4.714843 0 8.535156 3.820312 8.535156 8.53125 0 4.714844-3.820313 8.535156-8.535156 8.535156zm0 0"/><path d="m503.464844 512h-93.863282c-4.714843 0-8.535156-3.820312-8.535156-8.535156 0-4.710938 3.820313-8.53125 8.535156-8.53125h85.308594c-.464844-10.058594-7.179687-57.484375-11.742187-87.992188-8.414063-29.472656-35.765625-49.46875-66.398438-48.542968h-7.9375c-4.710937 0-8.535156-3.820313-8.535156-8.53125 0-4.714844 3.824219-8.535157 8.535156-8.535157h7.9375c38.761719-.890625 73.105469 24.851563 83.125 62.308594 1.371094 8.949219 12.105469 81 12.105469 92.230469v7.59375c0 4.714844-3.820312 8.535156-8.535156 8.535156zm0 0"/><path d="m162.125 281.601562c-4.578125-.019531-8.328125-3.652343-8.492188-8.226562-.164062-4.578125 3.3125-8.46875 7.878907-8.816406 1.164062-.09375 117.347656-9.941406 216.007812-125.042969 3.101563-3.429687 8.371094-3.769531 11.882813-.761719 3.511718 3.007813 3.992187 8.269532 1.078125 11.859375-103.53125 120.785157-222.714844 130.605469-227.738281 130.960938-.207032.015625-.414063.027343-.617188.027343zm0 0"/><path d="m264.539062 290.132812c-4.09375.003907-7.617187-2.898437-8.390624-6.917968-.777344-4.019532 1.414062-8.023438 5.214843-9.539063.828125-.335937 83.292969-33.785156 115.539063-82.140625 1.679687-2.570312 4.605468-4.039062 7.667968-3.851562s5.785157 2.003906 7.136719 4.757812c1.351563 2.753906 1.121094 6.023438-.605469 8.558594-35.199218 52.800781-119.8125 87.089844-123.390624 88.523438-1.007813.40625-2.085938.613281-3.171876.609374zm0 0"/><path d="m347.046875 191.574219c-3.839844-.003907-7.203125-2.566407-8.226563-6.269531-6.785156-24.664063-26.730468-73.707032-83.996093-125.011719-4.105469-3.699219-8.378907-7.375-12.8125-11.066407-2.433594-1.921874-3.636719-5.011718-3.136719-8.070312.496094-3.0625 2.617188-5.613281 5.535156-6.660156 2.921875-1.050782 6.179688-.429688 8.511719 1.613281 4.605469 3.824219 9.042969 7.652344 13.304687 11.484375 60.503907 54.207031 81.761719 106.707031 89.054688 133.179688.703125 2.570312.167969 5.320312-1.445312 7.4375-1.617188 2.121093-4.125 3.363281-6.789063 3.363281zm0 0"/><path d="m375.464844 162.132812c-3.808594-.003906-7.152344-2.527343-8.199219-6.191406-16.273437-56.941406-65.601563-106.742187-66.097656-107.242187-3.234375-3.347657-3.1875-8.671875.101562-11.960938 3.292969-3.292969 8.617188-3.339843 11.964844-.105469 2.152344 2.148438 52.964844 53.46875 70.4375 114.625 1.292969 4.53125-1.332031 9.253907-5.859375 10.550782-.765625.214844-1.554688.320312-2.347656.324218zm0 0"/><path d="m245.835938 257.621094c-1.835938 0-3.621094-.589844-5.09375-1.691406-31.71875-25.101563-57.8125-56.578126-76.601563-92.398438-8.539063-15.257812-16.074219-31.054688-22.558594-47.292969-4.726562-11.566406-9.179687-24-13.195312-36.90625-.992188-2.9375-.3125-6.179687 1.769531-8.472656s5.246094-3.277344 8.261719-2.570313c3.015625.707032 5.414062 2.996094 6.261719 5.972657 3.875 12.433593 8.152343 24.402343 12.722656 35.566406 6.21875 15.585937 13.445312 30.75 21.640625 45.394531 17.613281 33.722656 42.109375 63.371094 71.90625 87.03125 2.949219 2.199219 4.160156 6.042969 2.996093 9.535156-1.160156 3.492188-4.429687 5.84375-8.109374 5.839844zm0 0"/><path d="m204.789062 273.066406c-1.84375 0-3.636718-.597656-5.109374-1.707031-1.445313-1.082031-35.898438-27.339844-78.917969-96.164063-2.496094-4-1.285157-9.265624 2.714843-11.761718 3.996094-2.5 9.261719-1.285156 11.761719 2.710937 41.105469 65.78125 74.363281 91.324219 74.695313 91.574219 2.921875 2.214844 4.105468 6.046875 2.941406 9.523438-1.164062 3.476562-4.421875 5.820312-8.085938 5.824218zm0 0"/><path d="m171.605469 167.890625c-2.257813.011719-4.429688-.878906-6.03125-2.472656-1.601563-1.59375-2.5-3.757813-2.503907-6.019531v-.082032c0-.976562.167969-1.949218.496094-2.867187 5.113282-14.324219 26.867188-64.566407 92.113282-109.542969 3.878906-2.570312 9.101562-1.5625 11.742187 2.269531s1.726563 9.074219-2.058594 11.78125c-62.128906 42.835938-82.089843 91.148438-85.640625 101.007813-1.140625 3.523437-4.414062 5.914062-8.117187 5.925781zm0 0"/><path d="m149.496094 121.601562c-3.1875-.003906-6.109375-1.78125-7.574219-4.613281s-1.226563-6.242187.609375-8.847656c10.417969-14.757813 37.675781-51.347656 65.691406-72.308594 3.773438-2.824219 9.121094-2.050781 11.945313 1.722657 2.824219 3.773437 2.050781 9.121093-1.722657 11.945312-26.792968 20.054688-54.207031 57.492188-61.96875 68.492188-1.601562 2.265624-4.207031 3.609374-6.980468 3.609374zm0 0"/><path d="m85.75 460.714844c-4.417969 0-8.105469-3.375-8.496094-7.777344s2.640625-8.375 6.992188-9.15625c18.386718-3.308594 36.878906-7.535156 54.953125-12.542969 18.511719-5.117187 36.738281-11.199219 54.609375-18.226562 15.652344-6.144531 30.949218-13.164063 45.816406-21.023438 16.039062-8.382812 31.476562-17.871093 46.199219-28.390625 18.203125-12.445312 34.570312-27.382812 48.621093-44.375 2.78125-3.804687 8.121094-4.636718 11.925782-1.855468 3.808594 2.78125 4.636718 8.121093 1.859375 11.925781-15.050781 18.503906-32.710938 34.722656-52.425781 48.148437-15.363282 10.980469-31.46875 20.886719-48.195313 29.644532-15.425781 8.144531-31.296875 15.425781-47.53125 21.804687-18.425781 7.246094-37.222656 13.519531-56.304687 18.792969-18.597657 5.160156-37.601563 9.492187-56.503907 12.902344-.5.085937-1.011719.128906-1.519531.128906zm0 0"/><path d="m93.855469 512c-4.449219-.003906-8.144531-3.425781-8.5-7.859375-.351563-4.433594 2.761719-8.390625 7.152343-9.097656 254.53125-41.050781 284.332032-171.160157 284.601563-172.46875.980469-4.558594 5.441406-7.488281 10.015625-6.570313 4.574219.914063 7.566406 5.332032 6.714844 9.921875-1.152344 5.816407-31.296875 142.847657-298.613282 185.964844-.453124.074219-.914062.109375-1.371093.109375zm0 0"/><path d="m418.140625 418.132812c-.207031 0-.417969-.007812-.628906-.023437-26.523438-1.878906-52.683594-7.253906-77.800781-15.992187-2.960938-.945313-5.175782-3.421876-5.78125-6.46875-.605469-3.046876.496093-6.183594 2.871093-8.1875 2.375-2.003907 5.652344-2.554688 8.550781-1.445313 23.699219 8.234375 48.382813 13.304687 73.40625 15.074219 4.566407.351562 8.042969 4.242187 7.878907 8.820312-.164063 4.574219-3.914063 8.207032-8.496094 8.222656zm0 0"/><path d="m290.808594 379.050781c-1.484375 0-2.945313-.386719-4.234375-1.125-23.117188-12.800781-44.203125-28.976562-62.554688-47.992187-3.046875-3.527344-2.695312-8.851563.789063-11.953125 3.484375-3.097657 8.8125-2.828125 11.960937.613281 17.175781 17.578125 36.808594 32.570312 58.289063 44.515625 3.359375 1.921875 5.007812 5.867187 4.007812 9.605469-.996094 3.742187-4.386718 6.34375-8.257812 6.335937zm0 0"/><path d="m426.238281 460.800781c-23.089843.078125-46.140625-1.851562-68.898437-5.769531-20.875-3.640625-41.335938-9.335938-61.089844-17-2.875-1.082031-4.949219-3.625-5.425781-6.660156-.472657-3.035156.71875-6.09375 3.121093-8.003906 2.40625-1.910157 5.652344-2.382813 8.503907-1.234376 18.707031 7.257813 38.085937 12.648438 57.855469 16.101563 21.777343 3.738281 43.839843 5.578125 65.933593 5.5 4.714844 0 8.535157 3.820313 8.535157 8.53125 0 4.714844-3.820313 8.535156-8.535157 8.535156zm0 0"/><path d="m243.617188 408.0625c-1.800782 0-3.554688-.570312-5.007813-1.632812-28.988281-19.96875-52.210937-47.21875-67.335937-79.003907-1.605469-4.34375.546874-9.175781 4.847656-10.890625 4.300781-1.710937 9.183594.316406 11.003906 4.574219 14.078125 28.691406 35.253906 53.3125 61.515625 71.523437 2.988281 2.175782 4.238281 6.027344 3.09375 9.542969s-4.421875 5.894531-8.117187 5.890625zm0 0"/><path d="m196.941406 429.484375c-1.390625 0-2.757812-.339844-3.984375-.992187-67.652343-35.808594-80.027343-91.152344-81.824219-101.875-.777343-4.648438 2.359376-9.046876 7.007813-9.824219 4.648437-.78125 9.046875 2.359375 9.824219 7.007812 1.5625 9.339844 12.421875 57.558594 72.976562 89.609375 3.46875 1.832032 5.234375 5.792969 4.289063 9.601563-.945313 3.804687-4.367188 6.476562-8.289063 6.472656zm0 0"/><path d="m141.488281 448c-2.445312.007812-4.773437-1.042969-6.386719-2.875-15.683593-17.425781-29.226562-36.664062-40.335937-57.308594-2.109375-4.214844-.402344-9.339844 3.8125-11.453125 4.214844-2.109375 9.339844-.402343 11.449219 3.8125 10.484375 19.289063 23.183594 37.289063 37.839844 53.632813 2.226562 2.511718 2.769531 6.09375 1.394531 9.15625s-4.417969 5.03125-7.773438 5.035156zm0 0"/><path d="m273.066406 512c-4.128906.003906-7.667968-2.949219-8.402344-7.007812-.738281-4.0625 1.535157-8.070313 5.402344-9.515626 31.25-11.902343 59.464844-30.605468 82.601563-54.75 2.09375-2.28125 5.257812-3.253906 8.265625-2.535156 3.011718.71875 5.398437 3.007813 6.238281 5.988282.839844 2.976562 0 6.179687-2.195313 8.363281-24.90625 25.980469-55.273437 46.105469-88.910156 58.914062-.960937.359375-1.976562.542969-3 .542969zm0 0"/></svg>