<svg height="512pt" viewBox="0 0 512 512" width="512pt" xmlns="http://www.w3.org/2000/svg"><path d="m187.734375 315.734375h136.53125v76.800781h-136.53125zm0 0" fill="#fec108"/><path d="m503.464844 495.871094v7.59375h-494.929688v-7.59375c2.359375-13.429688 6.339844-26.523438 11.859375-38.996094 9.203125-33.558594 40.046875-56.558594 74.835938-55.808594h321.539062c34.789063-.75 65.632813 22.25 74.835938 55.808594 5.519531 12.472656 9.5 25.566406 11.859375 38.996094zm0 0" fill="#ffdc00"/><path d="m341.332031 375.464844-19.199219 25.601562-8.960937 11.945313-5.117187 6.828125c-.085938 0-.171876.085937-.257813.085937-1.875.511719-3.839844 1.109375-5.972656 1.535157-2.132813.597656-4.4375 1.109374-6.828125 1.535156-3.328125.683594-6.910156 1.28125-10.664063 1.792968-1.539062.171876-3.160156.425782-4.78125.597657-2.386719.257812-4.777343.511719-7.335937.683593-.941406.085938-1.964844.167969-2.988282.167969-1.699218.175781-3.410156.261719-5.121093.257813-.820313.074218-1.648438.101562-2.472657.085937-1.878906.085938-3.753906.085938-5.632812.085938s-3.753906 0-5.632812-.085938c-.824219.015625-1.652344-.011719-2.472657-.085937-1.710937.003906-3.421875-.082032-5.121093-.257813-1.023438 0-2.046876-.082031-2.988282-.167969-2.558594-.171874-4.949218-.425781-7.335937-.683593-1.621094-.171875-3.242188-.425781-4.78125-.597657-3.753907-.511718-7.335938-1.109374-10.664063-1.792968-2.390625-.425782-4.695312-.9375-6.828125-1.535156h-.171875c-2.046875-.511719-4.007812-1.023438-5.800781-1.535157h-.171875l-.085938-.085937-5.117187-6.828125-8.960937-11.945313-19.199219-25.601562zm0 0" fill="#ffdc00"/><path d="m221.867188 443.734375v59.730469h-145.066407l25.941407-102.398438 2.984374-11.945312c2.945313-8.820313 11.558594-14.46875 20.824219-13.65625h18.515625c0 1.878906 0 3.671875.085938 5.464844 0 1.277343.085937 2.558593.085937 3.753906.167969 2.730468.339844 5.289062.511719 7.851562.171875 1.277344.253906 2.558594.425781 3.753906.171875 1.621094.339844 3.242188.597657 4.777344.425781 3.070313.851562 5.972656 1.449218 8.789063.855469 4.183593 1.792969 8.191406 2.816406 11.863281.34375 1.191406.683594 2.386719 1.023438 3.582031l.769531 2.304688c.0625.382812.175781.757812.339844 1.109375.511719 1.621094 1.109375 3.15625 1.707031 4.609375 1.53125 4.121093 3.328125 8.140625 5.378906 12.03125.253907.511719.511719.9375.765626 1.449219 1.96875 3.671874 4.222656 7.179687 6.742187 10.496093.085937.171875.253906.34375.339844.511719.308593.320312.59375.664062.855469 1.023438 1.023437 1.28125 1.707031 1.964843 1.707031 1.964843.117187-.140625.261719-.253906.425781-.34375.5625-.632812 1.191406-1.207031 1.875-1.703125 2.742188-2.339844 5.75-4.347656 8.960938-5.976562 1.109374-.511719 2.21875-1.109375 3.328124-1.621094 2.96875-1.28125 6.019532-2.363281 9.132813-3.242188 1.363281-.425781 2.816406-.765624 4.179687-1.109374 1.195313-.339844 2.390626-.597657 3.5-.851563.851563-.171875 1.707032-.34375 2.558594-.429687 1.28125-.253907 2.476563-.425782 3.667969-.679688.574219-.011719 1.144531-.070312 1.707031-.171875.597656-.085937 1.109375-.171875 1.707032-.257813 3.371093-.398437 6.761718-.625 10.15625-.679687zm0 0" fill="#283593"/><path d="m221.867188 443.734375c-3.394532.054687-6.785157.28125-10.15625.679687-.511719.085938-1.109376.171876-1.707032.257813-.5625.101563-1.132812.160156-1.707031.171875-1.191406.167969-2.386719.425781-3.667969.679688-.851562.085937-1.707031.257812-2.558594.429687-1.195312.253906-2.304687.511719-3.5.851563-1.363281.257812-2.730468.683593-4.179687 1.109374-3.113281.878907-6.164063 1.960938-9.132813 3.242188-1.109374.511719-2.21875 1.023438-3.328124 1.621094-3.210938 1.628906-6.21875 3.636718-8.960938 5.976562-.683594.496094-1.3125 1.070313-1.875 1.703125-.164062.089844-.308594.203125-.425781.34375 0 0-.683594-.683593-1.707031-1.964843-.300782-.324219-.585938-.667969-.855469-1.023438-.085938-.167969-.253907-.339844-.339844-.511719-2.519531-3.316406-4.773437-6.824219-6.742187-10.496093-.253907-.425782-.511719-.9375-.765626-1.449219-2.050781-3.890625-3.847656-7.910157-5.378906-12.03125-.597656-1.453125-1.109375-2.988281-1.707031-4.609375-.164063-.351563-.277344-.726563-.339844-1.109375l-.769531-2.304688c-.339844-1.195312-.679688-2.390625-1.023438-3.582031-.210937-.644531-.378906-1.300781-.511718-1.964844-.851563-3.15625-1.621094-6.484375-2.304688-9.898437-.597656-2.816407-1.023437-5.71875-1.449218-8.789063-.257813-1.535156-.425782-3.15625-.597657-4.777344-.171875-1.195312-.253906-2.476562-.425781-3.753906-.171875-2.5625-.34375-5.121094-.511719-7.851562 0-1.195313-.085937-2.476563-.085937-3.753906-.085938-1.792969-.085938-3.585938-.085938-5.464844h25.601563l19.199219 25.601562 8.960937 11.945313 5.117187 6.828125.085938.085937 7.679688 10.238281.425781.511719v.085938l3.5 4.695312zm0 0" fill="#3f51b5"/><path d="m435.199219 503.464844h-145.066407v-59.730469c3.394532.054687 6.785157.28125 10.15625.679687 15.058594 1.039063 29.410157 6.769532 41.042969 16.386719 0 0 18.175781-18.175781 23.894531-59.734375 1.179688-8.480468 1.75-17.035156 1.707032-25.601562h18.515625c9.285156-.8125 17.921875 4.828125 20.90625 13.65625l2.988281 11.945312zm0 0" fill="#283593"/><path d="m366.933594 375.464844c0 1.878906 0 3.671875-.085938 5.464844 0 1.277343-.085937 2.558593-.085937 3.753906-.167969 2.730468-.339844 5.289062-.511719 7.851562-.171875 1.277344-.253906 2.558594-.425781 3.753906-.171875 1.621094-.339844 3.242188-.597657 4.777344-.425781 3.070313-.851562 5.972656-1.449218 8.789063-.710938 4.003906-1.652344 7.964843-2.816406 11.863281-.34375 1.191406-.683594 2.386719-1.023438 3.582031-.011719.066407-.039062.125-.085938.171875-.34375 1.109375-.683593 2.21875-1.023437 3.242188-.597656 1.621094-1.109375 3.15625-1.707031 4.609375-1.53125 4.121093-3.328125 8.140625-5.378906 12.03125-.359376.730469-.757813 1.441406-1.191407 2.132812-1.796875 3.324219-3.820312 6.515625-6.058593 9.558594l-.257813.253906c-.085937.171875-.253906.34375-.339844.511719-.269531.355469-.554687.699219-.855469 1.023438-1.023437 1.28125-1.707031 1.964843-1.707031 1.964843-1.027343-1.058593-2.140625-2.027343-3.328125-2.902343-2.457031-1.980469-5.117187-3.695313-7.933594-5.121094-1.109374-.597656-2.21875-1.109375-3.328124-1.621094-2.96875-1.28125-6.019532-2.363281-9.132813-3.242188-1.449219-.425781-2.816406-.851562-4.179687-1.109374-1.195313-.339844-2.304688-.597657-3.5-.851563-.851563-.171875-1.707032-.34375-2.558594-.429687-.925782-.238282-1.867188-.40625-2.816406-.511719-.339844-.082031-.769532-.082031-1.109376-.167969-1.109374-.171875-2.132812-.34375-3.15625-.429688-3.371093-.398437-6.761718-.625-10.15625-.679687l6.230469-8.277344 3.5-4.695312v-.085938l8.191407-10.835937 5.117187-6.828125 8.960937-11.945313 19.199219-25.601562zm0 0" fill="#3f51b5"/><path d="m304.128906 93.867188h20.136719c15.847656-.011719 31.046875 6.277343 42.25 17.480468 11.207031 11.207032 17.496094 26.40625 17.484375 42.253906v119.464844c.011719 15.847656-6.277344 31.046875-17.484375 42.25-11.203125 11.207032-26.402344 17.496094-42.25 17.484375h-136.53125c-15.847656.011719-31.046875-6.277343-42.25-17.484375-11.207031-11.203125-17.496094-26.402344-17.484375-42.25v-119.464844c-.011719-15.847656 6.277344-31.046874 17.484375-42.253906 11.203125-11.203125 26.402344-17.492187 42.25-17.480468zm0 0" fill="#fec108"/><path d="m294.503906 93.867188h16.109375c26.417969 0 47.785157 26.707031 47.785157 59.734374v119.464844c0 33.023438-21.367188 59.734375-47.785157 59.734375h-109.226562c-26.417969 0-47.785157-26.710937-47.785157-59.734375v-119.464844c0-33.027343 21.367188-59.734374 47.785157-59.734374zm0 0" fill="#ffdc00"/><path d="m256 8.535156c24.046875 0 60.773438 71.839844 48.097656 85.332032-16.03125 17.066406-40.082031 51.199218-48.097656 51.199218s-32.066406-34.132812-48.097656-51.199218c-12.675782-13.492188 24.050781-85.332032 48.097656-85.332032zm0 0" fill="#e91e63"/><path d="m308.054688 419.839844-8.191407 10.835937v.085938l-3.5 4.695312-6.230469 8.277344v59.730469h-68.265624v-59.730469l-6.230469-8.277344-3.5-4.695312v-.085938l-8.191407-10.835937c.085938 0 .171876.085937.257813.085937 1.792969.511719 3.753906 1.023438 5.800781 1.535157h.171875c2.132813.597656 4.4375 1.109374 6.828125 1.535156 3.328125.683594 6.910156 1.28125 10.664063 1.792968 1.539062.171876 3.160156.425782 4.78125.597657 2.386719.257812 4.777343.511719 7.335937.683593.941406.085938 1.964844.167969 2.988282.167969 1.699218.175781 3.410156.261719 5.121093.257813.820313.074218 1.648438.101562 2.472657.085937 1.878906.085938 3.753906.085938 5.632812.085938s3.753906 0 5.632812-.085938c.824219.015625 1.652344-.011719 2.472657-.085937 1.710937.003906 3.421875-.082032 5.121093-.257813 1.023438 0 2.046876-.082031 2.988282-.167969 2.558594-.171874 4.949218-.425781 7.335937-.683593 1.621094-.171875 3.242188-.425781 4.78125-.597657 3.753907-.511718 7.335938-1.109374 10.664063-1.792968 2.390625-.425782 4.695312-.9375 6.828125-1.535156 2.132812-.425782 4.097656-1.023438 5.972656-1.535157.085937 0 .171875-.085937.257813-.085937zm0 0" fill="#f5f5f5"/><g fill="#95a5a5"><path d="m230.398438 443.734375v59.730469h-17.066407v-56.914063l-1.621093-2.136719-5.886719-7.847656-8.703125-11.691406c-.304688-.335938-.5625-.707031-.769532-1.109375l-17.152343-22.699219-15.359375-20.480468c-1.09375-1.484376-1.6875-3.277344-1.707032-5.121094h19.199219l19.203125 25.601562 8.359375 11.265625.085938.082031 8.023437 10.582032 7.421875 9.984375 3.5 4.695312c1.585938 1.617188 2.472657 3.792969 2.472657 6.058594zm0 0"/><path d="m349.867188 375.464844c-.019532 1.84375-.613282 3.636718-1.707032 5.121094l-15.359375 20.480468-17.152343 22.699219c-.207032.402344-.464844.773437-.769532 1.109375l-8.703125 11.691406-5.886719 7.847656-1.621093 2.136719v56.914063h-17.066407v-59.730469c0-2.265625.886719-4.441406 2.472657-6.058594l3.5-4.695312 7.421875-9.984375 8.023437-10.582032.085938-.082031 8.359375-11.265625 19.203125-25.601562zm0 0"/><path d="m256 435.199219c-18.398438.199219-36.730469-2.214844-54.449219-7.167969-2.929687-.855469-5.175781-3.207031-5.898437-6.171875-.722656-2.960937.191406-6.082031 2.398437-8.191406 2.203125-2.105469 5.363281-2.875 8.292969-2.019531 16.160156 4.496093 32.878906 6.679687 49.65625 6.484374 16.777344.195313 33.496094-1.988281 49.65625-6.484374 4.527344-1.324219 9.265625 1.269531 10.589844 5.796874 1.324218 4.523438-1.269532 9.261719-5.796875 10.585938-17.71875 4.953125-36.050781 7.367188-54.449219 7.167969zm0 0"/></g><path d="m299.734375 251.199219c-4.707031 14.523437-26.84375 21.660156-38.832031 23.757812-12.015625 2.101563-34.261719 4.0625-43.617188-8 13.980469.84375 28.011719.101563 41.828125-2.214843 14-3.003907 27.621094-7.542969 40.621094-13.542969zm0 0"/><path d="m232.042969 181.035156c-7.402344-4.460937-15.445313-7.765625-23.84375-9.796875-11.230469-3.054687-23.101563-2.8125-34.199219.6875 3.964844-14.441406 38.523438-10.804687 54.417969-3.839843 2.570312.832031 4.554687 2.898437 5.285156 5.503906.726563 2.601562.105469 5.398437-1.660156 7.445312zm0 0"/><path d="m230.398438 197.8125c0-10.101562-7.640626-18.292969-17.066407-18.292969s-17.066406 8.191407-17.066406 18.292969 7.640625 18.292969 17.066406 18.292969 17.066407-8.191407 17.066407-18.292969zm0 0"/><path d="m218.117188 181.941406c-4.40625-1.675781-9.332032.535156-11.007813 4.941406s.535156 9.335938 4.941406 11.007813c4.40625 1.675781 9.332031-.535156 11.007813-4.941406 1.675781-4.402344-.535156-9.332031-4.941406-11.007813zm0 0" fill="#fff"/><path d="m279.046875 182.824219c6.050781-7.96875 14.457031-13.828125 24.027344-16.742188 12.871093-3.433593 26.5625.914063 35.09375 11.140625-.132813-.128906.132812-2.847656.085937-3.273437-.140625-1.105469-.4375-2.183594-.886718-3.203125-1.003907-2.179688-2.480469-4.109375-4.324219-5.648438-4.578125-3.71875-10.03125-6.214844-15.839844-7.246094-7.722656-1.746093-15.773437-1.347656-23.28125 1.15625-4.523437 1.558594-8.683594 4.011719-12.238281 7.210938-3.136719 2.871094-7.777344 8.152344-5.761719 12.960938.933594 1.304687 1.976563 2.523437 3.125 3.644531zm0 0"/><path d="m315.734375 197.8125c0-10.101562-7.640625-18.292969-17.066406-18.292969s-17.066407 8.191407-17.066407 18.292969 7.640626 18.292969 17.066407 18.292969 17.066406-8.191407 17.066406-18.292969zm0 0"/><path d="m304.890625 186.882812c-1.675781-4.40625-6.605469-6.617187-11.007813-4.941406-4.40625 1.675782-6.617187 6.605469-4.941406 11.007813 1.671875 4.40625 6.601563 6.617187 11.007813 4.941406 4.40625-1.671875 6.617187-6.601563 4.941406-11.007813zm0 0" fill="#fff"/><path d="m435.199219 512h-358.398438c-2.632812 0-5.117187-1.210938-6.738281-3.289062-1.617188-2.078126-2.183594-4.785157-1.539062-7.335938l28.910156-114.324219c3.84375-12.675781 15.929687-21.019531 29.144531-20.117187h258.894531c13.359375-.886719 25.535156 7.664062 29.234375 20.53125l28.769531 113.910156c.644532 2.550781.078126 5.257812-1.539062 7.335938-1.621094 2.078124-4.105469 3.289062-6.738281 3.289062zm-347.441407-17.066406h336.484376l-26.175782-103.699219c-2.125-4.941406-7.257812-7.890625-12.59375-7.234375h-258.894531c-5.199219-.632812-10.226563 2.109375-12.503906 6.828125zm0 0"/><path d="m324.265625 384h-136.53125c-4.714844 0-8.535156-3.820312-8.535156-8.535156v-42.664063c0-4.714843 3.820312-8.535156 8.535156-8.535156h136.53125c4.714844 0 8.535156 3.820313 8.535156 8.535156v42.664063c0 4.714844-3.820312 8.535156-8.535156 8.535156zm-128-17.066406h119.46875v-25.601563h-119.46875zm0 0"/><path d="m324.265625 341.332031h-136.53125c-37.6875-.042969-68.222656-30.582031-68.269531-68.265625v-119.464844c.046875-37.6875 30.582031-68.226562 68.269531-68.269531h20.136719c4.714844 0 8.535156 3.820313 8.535156 8.535157 0 4.710937-3.820312 8.53125-8.535156 8.53125h-20.136719c-28.265625.03125-51.171875 22.9375-51.199219 51.203124v119.464844c.027344 28.265625 22.933594 51.167969 51.199219 51.199219h136.53125c28.265625-.03125 51.171875-22.933594 51.199219-51.199219v-119.464844c-.027344-28.265624-22.933594-51.171874-51.199219-51.203124h-20.136719c-4.714844 0-8.535156-3.820313-8.535156-8.53125 0-4.714844 3.820312-8.535157 8.535156-8.535157h20.136719c37.6875.042969 68.222656 30.582031 68.269531 68.269531v119.464844c-.046875 37.683594-30.582031 68.222656-68.269531 68.265625zm0 0"/><path d="m102.398438 512h-93.863282c-4.714844 0-8.535156-3.820312-8.535156-8.535156v-7.59375c2.136719-14.402344 6.269531-28.441406 12.273438-41.707032 10.28125-37.117187 44.457031-62.507812 82.957031-61.628906h8.023437c4.710938 0 8.53125 3.820313 8.53125 8.53125 0 4.714844-3.820312 8.535156-8.53125 8.535156h-8.023437c-30.898438-.875-58.386719 19.492188-66.550781 49.304688-.105469.4375-.25.867188-.425782 1.28125-4.972656 11.140625-8.710937 22.792969-11.144531 34.746094h85.289063c4.714843 0 8.535156 3.820312 8.535156 8.53125 0 4.714844-3.820313 8.535156-8.535156 8.535156zm0 0"/><path d="m503.464844 512h-93.863282c-4.714843 0-8.535156-3.820312-8.535156-8.535156 0-4.710938 3.820313-8.53125 8.535156-8.53125h85.289063c-2.429687-11.953125-6.164063-23.605469-11.136719-34.742188-.179687-.414062-.320312-.839844-.425781-1.28125-8.167969-29.8125-35.660156-50.183594-66.558594-49.308594h-7.9375c-4.710937 0-8.535156-3.820312-8.535156-8.535156 0-4.710937 3.824219-8.53125 8.535156-8.53125h7.9375c38.5-.875 72.675781 24.515625 82.957031 61.632813 6.003907 13.265625 10.136719 27.300781 12.273438 41.703125v7.59375c0 4.714844-3.820312 8.535156-8.535156 8.535156zm0 0"/><path d="m256 153.601562c-8.570312 0-16.921875-9.175781-36.882812-33.46875-6.042969-7.347656-12.285157-14.941406-17.433594-20.425781-9.386719-9.988281-3.53125-30.199219 3.042968-45.390625 8.128907-18.78125 29.300782-54.316406 51.273438-54.316406s43.144531 35.535156 51.273438 54.316406c6.574218 15.1875 12.429687 35.402344 3.042968 45.390625-5.148437 5.484375-11.390625 13.078125-17.433594 20.425781-19.960937 24.292969-28.3125 33.46875-36.882812 33.46875zm0-136.535156c-5.429688 0-16.675781 9.765625-27.664062 28.433594-12.761719 21.675781-15.933594 39.339844-14.054688 42.726562 5.378906 5.691407 11.800781 13.507813 18.019531 21.074219 7.242188 9.398438 15.164063 18.25 23.699219 26.492188 8.535156-8.242188 16.457031-17.097657 23.699219-26.492188 6.21875-7.566406 12.640625-15.382812 18.175781-21.277343 1.722656-3.179688-1.449219-20.847657-14.210938-42.523438-10.988281-18.667969-22.234374-28.433594-27.664062-28.433594zm0 0"/><path d="m221.867188 512c-4.714844 0-8.535157-3.820312-8.535157-8.535156v-56.890625l-49.492187-65.988281c-1.828125-2.4375-2.21875-5.667969-1.019532-8.472657 1.195313-2.800781 3.800782-4.753906 6.824219-5.117187 3.027344-.367188 6.019531.910156 7.847657 3.351562l51.199218 68.265625c1.113282 1.476563 1.710938 3.273438 1.707032 5.121094v59.730469c0 4.714844-3.820313 8.535156-8.53125 8.535156zm0 0"/><path d="m170.667969 469.332031c-2.265625.003907-4.4375-.894531-6.035157-2.5-1.148437-1.148437-28.097656-28.816406-28.097656-91.367187 0-4.710938 3.820313-8.53125 8.53125-8.53125 4.714844 0 8.535156 3.820312 8.535156 8.53125-1.074218 25.683594 5.363282 51.125 18.515626 73.210937 15.15625-8.675781 32.285156-13.3125 49.75-13.476562 4.710937-.003907 8.535156 3.816406 8.539062 8.527343.003906 4.714844-3.8125 8.535157-8.527344 8.539063-.308594 0-30.859375.25-45.179687 14.566406-1.597657 1.605469-3.769531 2.503907-6.03125 2.5zm0 0"/><path d="m290.132812 512c-4.710937 0-8.53125-3.820312-8.53125-8.535156v-59.730469c-.003906-1.847656.59375-3.644531 1.707032-5.121094l51.199218-68.265625c1.828126-2.441406 4.820313-3.71875 7.847657-3.351562 3.023437.363281 5.628906 2.316406 6.824219 5.117187 1.199218 2.804688.808593 6.035157-1.019532 8.472657l-49.492187 65.988281v56.890625c0 4.714844-3.820313 8.535156-8.535157 8.535156zm0 0"/><path d="m341.332031 469.332031c-2.261719.003907-4.433593-.894531-6.03125-2.5-11.949219-11.949219-36.65625-14.566406-45.167969-14.566406-4.710937 0-8.53125-3.820313-8.53125-8.53125 0-4.714844 3.820313-8.535156 8.53125-8.535156 17.464844.164062 34.597657 4.804687 49.753907 13.484375 13.148437-22.09375 19.582031-47.53125 18.511719-73.21875 0-4.710938 3.820312-8.53125 8.535156-8.53125 4.710937 0 8.53125 3.820312 8.53125 8.53125 0 62.550781-26.949219 90.21875-28.097656 91.367187-1.597657 1.605469-3.769532 2.503907-6.035157 2.5zm0 0"/><path d="m256 435.199219c-18.398438.199219-36.730469-2.214844-54.449219-7.167969-2.929687-.855469-5.175781-3.207031-5.898437-6.171875-.722656-2.960937.191406-6.082031 2.398437-8.191406 2.203125-2.105469 5.363281-2.875 8.292969-2.019531 16.160156 4.496093 32.878906 6.679687 49.65625 6.484374 16.777344.195313 33.496094-1.988281 49.65625-6.484374 4.527344-1.324219 9.265625 1.269531 10.589844 5.796874 1.324218 4.523438-1.269532 9.261719-5.796875 10.585938-17.71875 4.953125-36.050781 7.367188-54.449219 7.167969zm0 0"/></svg>