<svg height="512pt" viewBox="0 0 512 512.00014" width="512pt" xmlns="http://www.w3.org/2000/svg"><path d="m503.464844 495.871094.003906 7.597656h-494.933594v-7.597656c-.015625-10.925782 1.300782-21.816406 3.921875-32.425782l7.9375-23.636718c9.207031-33.558594 40.046875-56.558594 74.835938-55.808594h321.539062c34.789063-.75 65.632813 22.25 74.835938 55.808594l7.9375 23.636718c2.621093 10.609376 3.9375 21.5 3.921875 32.425782zm0 0" fill="#00838f"/><path d="m187.734375 298.667969h136.53125v76.800781h-136.53125zm0 0" fill="#fec108"/><path d="m384 213.332031s11.070312-7.601562 25.601562-51.199219c8.53125-25.597656 8.53125-51.199218 0-68.265624-12.070312-24.136719-34.136718-34.132813-42.667968-59.734376-11 .613282-20.800782 7.148438-25.601563 17.066407 0 0 0-25.597657-34.132812-25.597657-18.59375.882813-36.851563-5.203124-51.199219-17.066406-19.390625 5.726563-39.511719 8.601563-59.734375 8.53125-34.132813 0-42.664063 25.601563-42.664063 25.601563-4.429687-4.871094-10.515624-7.914063-17.066406-8.535157 0 25.601563-22.066406 27.066407-34.136718 51.199219-8.53125 17.066407-17.066407 34.136719 0 76.800781 17.066406 42.667969 25.601562 51.199219 25.601562 51.199219zm0 0" fill="#91562d"/><path d="m139.179688 142.675781c-.597657 1.027344-1.023438 2.050781-1.535157 2.988281-6.457031 13.5625-9.757812 28.414063-9.644531 43.433594v66.902344c-.011719 15.847656 6.277344 31.046875 17.484375 42.25 11.203125 11.207031 26.402344 17.496094 42.25 17.484375h136.53125c15.847656.011719 31.046875-6.277344 42.25-17.484375 11.207031-11.203125 17.496094-26.402344 17.484375-42.25v-66.902344c.113281-15.019531-3.183594-29.871094-9.640625-43.433594-.515625-.9375-.941406-1.960937-1.539063-2.988281zm0 0" fill="#fec108"/><path d="m162.542969 142.675781c-.476563 1.027344-.820313 2.050781-1.230469 2.988281-5.222656 13.878907-7.835938 28.605469-7.710938 43.433594v66.902344c0 33.023438 21.367188 59.734375 47.785157 59.734375h109.226562c26.417969 0 47.785157-26.710937 47.785157-59.734375v-66.902344c.125-14.828125-2.488282-29.554687-7.710938-43.433594-.410156-.9375-.753906-1.960937-1.230469-2.988281zm0 0" fill="#ffdc00"/><path d="m435.199219 503.46875h-358.398438l26.28125-119.46875 2.644531-11.945312c2.945313-8.820313 11.558594-14.46875 20.824219-13.65625h258.898438c9.285156-.8125 17.921875 4.828124 20.910156 13.65625l2.644531 11.945312zm0 0" fill="#00bcd4"/><path d="m300.289062 93.867188h66.644532c4.707031.011718 8.519531 3.824218 8.53125 8.53125v34.136718c-.027344 4.699219-3.832032 8.5-8.53125 8.53125h-221.867188c-4.699218-.03125-8.5-3.832031-8.53125-8.53125v-34.136718c.011719-4.707032 3.824219-8.519532 8.53125-8.53125zm0 0" fill="#607d8b"/><path d="m307.199219 119.46875c0 28.273438-22.921875 51.199219-51.199219 51.199219s-51.199219-22.925781-51.199219-51.199219c0-28.277344 22.921875-51.203125 51.199219-51.203125s51.199219 22.925781 51.199219 51.203125zm0 0" fill="#f5f5f5"/><path d="m273.066406 119.46875c0 9.421875-7.640625 17.066406-17.066406 17.066406s-17.066406-7.644531-17.066406-17.066406c0-9.425781 7.640625-17.070312 17.066406-17.070312s17.066406 7.644531 17.066406 17.070312zm0 0" fill="#ffeb3a"/><path d="m307.199219 358.398438-18.089844 25.601562-28.160156 39.9375-4.949219 6.996094-4.949219-6.996094-28.160156-39.9375-18.089844-25.601562zm0 0" fill="#ffdc00"/><path d="m315.734375 358.398438c-.011719 1.765624-.546875 3.492187-1.535156 4.949218l-14.59375 20.652344-35.070313 49.75-1.539062 2.132812c-1.617188 2.25-4.222656 3.585938-6.996094 3.585938s-5.378906-1.335938-6.996094-3.585938l-1.539062-2.132812-35.070313-49.75-14.589843-20.652344c-.992188-1.457031-1.527344-3.183594-1.539063-4.949218h19.03125l18.003906 25.601562 22.699219 32.171875 22.699219-32.171875 18.003906-25.601562zm0 0" fill="#e6e7e8"/><path d="m296.339844 264.535156c-6.894532 13.492188-28.414063 15.398438-40.167969 15.398438-11.78125 0-33.277344-1.90625-40.171875-15.398438 13.148438 3.238282 26.628906 4.925782 40.171875 5.03125 13.539063-.101562 27.023437-1.792968 40.167969-5.03125zm0 0"/><path d="m233.648438 175.691406c-8.109376-2.980468-16.625-4.707031-25.257813-5.121094-11.601563-.875-23.214844 1.601563-33.449219 7.136719 1.167969-14.933593 35.789063-17.886719 52.710938-14.046875 2.683594.332032 5.019531 1.988282 6.226562 4.40625 1.207032 2.421875 1.121094 5.28125-.230468 7.625zm0 0"/><path d="m230.398438 202.078125c0-10.101563-7.640626-18.289063-17.066407-18.289063s-17.066406 8.1875-17.066406 18.289063c0 10.105469 7.640625 18.292969 17.066406 18.292969s17.066407-8.1875 17.066407-18.292969zm0 0"/><path d="m218.125 186.203125c-4.40625-1.675781-9.335938.535156-11.011719 4.941406s.539063 9.335938 4.941407 11.011719c4.40625 1.671875 9.335937-.539062 11.011718-4.945312 1.675782-4.402344-.539062-9.332032-4.941406-11.007813zm0 0" fill="#fff"/><path d="m278.351562 175.691406c8.109376-2.980468 16.625-4.707031 25.257813-5.121094 11.601563-.875 23.214844 1.601563 33.449219 7.136719-1.164063-14.933593-35.789063-17.886719-52.710938-14.046875-2.683594.332032-5.019531 1.988282-6.226562 4.40625-1.207032 2.421875-1.117188 5.28125.230468 7.625zm0 0"/><path d="m315.734375 202.078125c0-10.101563-7.640625-18.289063-17.066406-18.289063s-17.066407 8.1875-17.066407 18.289063c0 10.105469 7.640626 18.292969 17.066407 18.292969s17.066406-8.1875 17.066406-18.292969zm0 0"/><path d="m304.890625 191.148438c-1.675781-4.402344-6.601563-6.617188-11.007813-4.941407s-6.617187 6.605469-4.941406 11.007813c1.675782 4.40625 6.601563 6.621094 11.007813 4.945312 4.40625-1.675781 6.617187-6.605468 4.941406-11.011718zm0 0" fill="#fff"/><path d="m435.199219 512h-358.398438c-2.585937 0-5.03125-1.171875-6.652343-3.1875-1.617188-2.015625-2.238282-4.652344-1.683594-7.179688l28.910156-131.390624c3.761719-12.792969 15.902344-21.261719 29.207031-20.375h258.894531c13.359376-.882813 25.53125 7.664062 29.230469 20.53125l28.828125 131.234374c.554688 2.527344-.066406 5.164063-1.683594 7.179688-1.621093 2.015625-4.066406 3.1875-6.652343 3.1875zm-347.78125-17.066406h337.171875l-26.582032-121.023438c-2.21875-4.804687-7.28125-7.621094-12.53125-6.976562h-258.894531c-5.199219-.636719-10.226562 2.109375-12.507812 6.828125zm0 0"/><path d="m324.265625 366.933594h-136.53125c-4.714844 0-8.535156-3.820313-8.535156-8.535156v-42.664063c0-4.714844 3.820312-8.535156 8.535156-8.535156h136.53125c4.714844 0 8.535156 3.820312 8.535156 8.535156v42.664063c0 4.714843-3.820312 8.535156-8.535156 8.535156zm-128-17.066406h119.46875v-25.601563h-119.46875zm0 0"/><path d="m324.265625 324.265625h-136.53125c-37.6875-.042969-68.222656-30.582031-68.269531-68.265625v-66.902344c0-4.710937 3.824218-8.53125 8.535156-8.53125 4.714844 0 8.535156 3.820313 8.535156 8.53125v66.902344c.03125 28.265625 22.933594 51.167969 51.199219 51.199219h136.53125c28.265625-.03125 51.171875-22.933594 51.199219-51.199219v-66.902344c0-4.710937 3.824218-8.53125 8.535156-8.53125 4.714844 0 8.535156 3.820313 8.535156 8.53125v66.902344c-.046875 37.683594-30.582031 68.222656-68.269531 68.265625zm0 0"/><path d="m102.398438 512h-93.863282c-4.714844 0-8.535156-3.820312-8.535156-8.53125v-7.597656c-.0078125-11.621094 1.394531-23.199219 4.175781-34.484375l8.125-24.296875c10.199219-37.160156 44.410157-62.582032 82.929688-61.621094h8.023437c4.710938 0 8.53125 3.820312 8.53125 8.53125 0 4.714844-3.820312 8.535156-8.53125 8.535156h-8.023437c-30.898438-.875-58.390625 19.492188-66.558594 49.304688l-8.125 24.320312c-2.257813 9.425782-3.425781 19.082032-3.480469 28.773438h85.332032c4.714843 0 8.535156 3.820312 8.535156 8.535156 0 4.710938-3.820313 8.53125-8.535156 8.53125zm0 0"/><path d="m503.464844 512h-93.863282c-4.714843 0-8.535156-3.820312-8.535156-8.53125 0-4.714844 3.820313-8.535156 8.535156-8.535156h85.332032c-.066406-9.921875-1.300782-19.804688-3.675782-29.441406l-7.742187-22.964844c-7.988281-30.109375-35.605469-50.796875-66.746094-49.992188h-7.9375c-4.710937 0-8.535156-3.820312-8.535156-8.535156 0-4.710938 3.824219-8.53125 8.535156-8.53125h7.9375c38.761719-.890625 73.105469 24.851562 83.125 62.308594l7.742188 22.949218c2.894531 11.488282 4.359375 23.292969 4.363281 35.144532v7.597656c0 4.710938-3.820312 8.53125-8.535156 8.53125zm0 0"/><path d="m256 439.46875c-2.773438-.003906-5.371094-1.347656-6.976562-3.609375l-51.199219-72.535156c-1.773438-2.492188-2.078125-5.742188-.796875-8.519531 1.277344-2.777344 3.941406-4.660157 6.988281-4.933594 3.046875-.273438 6.003906 1.101562 7.757813 3.605468l44.226562 62.65625 44.226562-62.65625c2.726563-3.832031 8.039063-4.738281 11.878907-2.027343 3.84375 2.714843 4.769531 8.023437 2.070312 11.875l-51.199219 72.535156c-1.605468 2.261719-4.203124 3.605469-6.976562 3.609375zm0 0"/><path d="m256 512c-4.710938 0-8.535156-3.820312-8.535156-8.53125v-72.535156c0-4.714844 3.824218-8.535156 8.535156-8.535156 4.714844 0 8.535156 3.820312 8.535156 8.535156v72.535156c0 4.710938-3.820312 8.53125-8.535156 8.53125zm0 0"/><path d="m273.066406 471.699219h-17.066406c-4.710938 0-8.535156-3.820313-8.535156-8.53125 0-4.714844 3.824218-8.535157 8.535156-8.535157h17.066406c4.714844 0 8.535156 3.820313 8.535156 8.535157 0 4.710937-3.820312 8.53125-8.535156 8.53125zm0 0"/><path d="m384 197.632812c-4.710938 0-8.535156-3.820312-8.535156-8.535156.128906-13.734375-2.875-27.316406-8.789063-39.714844-.089843-.152343-.363281-.707031-.640625-1.277343-.191406-.382813-.375-.773438-.597656-1.164063-1.523438-2.640625-1.523438-5.894531 0-8.535156 1.527344-2.640625 4.34375-4.269531 7.394531-4.269531 3.046875.003906 5.863281 1.628906 7.390625 4.269531.433594.75.808594 1.5 1.15625 2.234375l.46875.917969c7.148438 14.820312 10.804688 31.085937 10.6875 47.539062 0 4.714844-3.820312 8.535156-8.535156 8.535156zm0 0"/><path d="m128 197.632812c-4.710938 0-8.535156-3.820312-8.535156-8.535156-.128906-16.308594 3.460937-32.433594 10.496094-47.148437l.667968-1.308594c.351563-.730469.726563-1.480469 1.160156-2.230469 1.523438-2.644531 4.339844-4.269531 7.390626-4.269531 3.046874 0 5.867187 1.625 7.390624 4.265625 1.523438 2.640625 1.523438 5.894531 0 8.535156-.222656.390625-.40625.785156-.597656 1.167969-.273437.566406-.550781 1.125-.839844 1.667969-5.796874 12.289062-8.734374 25.734375-8.597656 39.320312 0 4.714844-3.820312 8.535156-8.535156 8.535156zm0 0"/><path d="m384.007812 221.867188c-3.667968.007812-6.933593-2.335938-8.101562-5.8125-1.171875-3.480469.015625-7.316407 2.945312-9.53125.648438-.582032 10.191407-9.707032 22.65625-47.089844 7.726563-23.191406 7.910157-46.859375.460938-61.75-5.042969-9.167969-11.421875-17.527344-18.933594-24.808594-8.738281-8.425781-15.992187-18.265625-21.460937-29.097656-5.535157 1.910156-10.074219 5.960937-12.609375 11.242187-1.769532 3.539063-5.742188 5.398438-9.59375 4.488281-3.851563-.910156-6.574219-4.347656-6.570313-8.308593-.085937-2.75-1.707031-17.066407-25.601562-17.066407-18.984375.492188-37.621094-5.167968-53.132813-16.128906-18.855468 5.035156-38.285156 7.589844-57.800781 7.597656-27.664063 0-34.507813 19.566407-34.574219 19.765626-.933594 2.804687-3.253906 4.929687-6.132812 5.609374-2.878906.675782-5.902344-.183593-7.992188-2.277343-1.195312-1.203125-2.511718-2.28125-3.925781-3.214844-3.203125 9.714844-9.300781 18.214844-17.472656 24.367187-6.609375 5.296876-12.09375 11.855469-16.136719 19.300782-8.238281 16.472656-15.347656 30.707031.292969 69.8125 15.632812 39.09375 23.554687 48.144531 23.875 48.511718 3.113281 3.445313 2.9375 8.742188-.398438 11.972657-3.308593 3.203125-8.570312 3.164062-11.832031-.085938-1.636719-1.632812-10.625-11.90625-27.492188-54.066406-18.492187-46.222656-8.511718-66.171875.289063-83.78125 4.980469-9.359375 11.769531-17.632813 19.976563-24.34375 8.265624-7.445313 13.257812-11.945313 13.257812-23.039063 0-4.710937 3.820312-8.53125 8.535156-8.53125 5.074219.25 10.007813 1.738282 14.375 4.339844 10.53125-14.339844 27.589844-22.390625 45.355469-21.40625 19.300781.054688 38.511719-2.671875 57.035156-8.09375 3.066407-1.027344 6.449219-.230468 8.730469 2.058594 12.757812 10.238281 28.835938 15.425781 45.167969 14.566406 14.527343-1.339844 28.6875 5.070313 37.269531 16.867188 6.433594-5.050782 14.289062-7.964844 22.464844-8.332032 3.671875-.003906 6.933594 2.347657 8.089844 5.832032 4.511718 11.335937 11.511718 21.511718 20.480468 29.78125 8.65625 8.460937 15.984375 18.183594 21.734375 28.832031 9.542969 19.078125 9.707031 47.035156.457031 74.785156-14.691406 44.074219-26.617187 53.992188-28.859374 55.53125-1.417969.984375-3.101563 1.507813-4.828126 1.503907zm0 0"/><path d="m256 179.199219c-32.988281 0-59.734375-26.742188-59.734375-59.730469 0-32.992188 26.746094-59.734375 59.734375-59.734375s59.734375 26.742187 59.734375 59.734375c-.039063 32.972656-26.761719 59.691406-59.734375 59.730469zm0-102.398438c-23.5625 0-42.667969 19.101563-42.667969 42.667969 0 23.5625 19.105469 42.664062 42.667969 42.664062s42.667969-19.101562 42.667969-42.664062c-.027344-23.554688-19.113281-42.640625-42.667969-42.667969zm0 0"/><path d="m211.710938 153.601562h-66.644532c-9.414062-.027343-17.039062-7.652343-17.066406-17.066406v-34.136718c.011719-9.417969 7.644531-17.050782 17.066406-17.066407h66.644532c4.714843 0 8.535156 3.820313 8.535156 8.535157 0 4.710937-3.820313 8.53125-8.535156 8.53125h-66.644532v34.136718h66.644532c4.714843 0 8.535156 3.820313 8.535156 8.53125 0 4.714844-3.820313 8.535156-8.535156 8.535156zm0 0"/><path d="m366.933594 153.601562h-66.644532c-4.714843 0-8.535156-3.820312-8.535156-8.535156 0-4.710937 3.820313-8.53125 8.535156-8.53125h66.644532v-34.136718h-66.644532c-4.714843 0-8.535156-3.820313-8.535156-8.53125 0-4.714844 3.820313-8.535157 8.535156-8.535157h66.644532c9.421875.015625 17.054687 7.648438 17.066406 17.066407v34.136718c-.027344 9.414063-7.652344 17.039063-17.066406 17.066406zm0 0"/><path d="m256 145.066406c-14.136719 0-25.601562-11.460937-25.601562-25.597656 0-14.140625 11.464843-25.601562 25.601562-25.601562s25.601562 11.460937 25.601562 25.601562c-.015624 14.128906-11.46875 25.582031-25.601562 25.597656zm0-34.132812c-4.710938 0-8.535156 3.820312-8.535156 8.535156 0 4.710938 3.824218 8.53125 8.535156 8.53125 4.714844 0 8.535156-3.820312 8.535156-8.53125-.003906-4.714844-3.824218-8.53125-8.535156-8.535156zm0 0"/></svg>