<svg height="512pt" viewBox="0 0 512 512.00014" width="512pt" xmlns="http://www.w3.org/2000/svg"><path d="m187.734375 290.132812h136.53125v102.402344h-136.53125zm0 0" fill="#fec108"/><path d="m384 213.332031s11.070312-7.601562 25.601562-51.199219c8.53125-25.597656 8.53125-51.199218 0-68.265624-12.070312-24.136719-34.136718-34.132813-42.667968-59.734376-11 .613282-20.800782 7.148438-25.601563 17.066407 0 0 0-25.597657-34.132812-25.597657-18.59375.882813-36.851563-5.203124-51.199219-17.066406-19.390625 5.726563-39.511719 8.601563-59.734375 8.53125-34.132813 0-42.664063 25.601563-42.664063 25.601563-4.429687-4.871094-10.515624-7.914063-17.066406-8.535157 0 25.601563-22.066406 27.066407-34.136718 51.199219-8.53125 17.066407-17.066407 34.136719 0 76.800781 17.066406 42.667969 25.601562 51.199219 25.601562 51.199219zm0 0" fill="#624421"/><path d="m384 189.097656c.113281-15.019531-3.183594-29.871094-9.640625-43.433594-8.109375-16.640624-21.675781-36.609374-41.558594-43.265624-25.601562-8.53125-42.667969 8.535156-76.800781 8.535156s-51.199219-17.066406-76.800781-8.535156c-19.882813 6.65625-33.449219 26.625-41.554688 43.265624-6.457031 13.5625-9.757812 28.414063-9.644531 43.433594v58.371094c-.011719 15.84375 6.277344 31.042969 17.484375 42.25 11.203125 11.203125 26.402344 17.492188 42.25 17.480469h136.53125c15.847656.011719 31.046875-6.277344 42.25-17.480469 11.207031-11.207031 17.496094-26.40625 17.484375-42.25zm0 0" fill="#fec108"/><path d="m358.398438 189.097656c.125-14.828125-2.488282-29.554687-7.710938-43.433594-6.488281-16.640624-17.339844-36.609374-33.246094-43.265624-20.480468-8.53125-34.132812 8.535156-61.441406 8.535156-27.304688 0-40.960938-17.066406-61.441406-8.535156-15.90625 6.65625-26.757813 26.625-33.246094 43.265624-5.222656 13.878907-7.835938 28.605469-7.710938 43.433594v58.371094c0 33.023438 21.367188 59.730469 47.785157 59.730469h109.226562c26.417969 0 47.785157-26.707031 47.785157-59.730469zm0 0" fill="#ffdc00"/><path d="m503.464844 495.871094.003906 7.597656h-494.933594v-7.597656c-.015625-10.925782 1.300782-21.816406 3.921875-32.425782l7.9375-32.171874c9.207031-33.554688 40.046875-56.558594 74.835938-55.804688h321.539062c34.789063-.753906 65.632813 22.25 74.835938 55.804688l7.9375 32.171874c2.621093 10.609376 3.9375 21.5 3.921875 32.425782zm0 0" fill="#00838f"/><path d="m435.199219 503.46875h-358.398438l25.855469-128 .597656-3.160156 2.472656-12.203125c.960938-4.3125 3.683594-8.027344 7.511719-10.238281h285.523438c3.828125 2.230468 6.570312 5.929687 7.597656 10.238281l2.472656 12.203125.597657 3.160156zm0 0" fill="#00bcd4"/><path d="m204.800781 349.867188 51.199219 76.800781 51.199219-76.800781" fill="#ffdc00"/><path d="m179.199219 477.867188c-4.710938 0-8.53125-3.820313-8.53125-8.535157 0-4.710937 3.820312-8.53125 8.53125-8.53125 4.710937-.003906 8.53125-3.824219 8.535156-8.535156v-17.066406c-.011719-9.421875-7.644531-17.054688-17.066406-17.066407h-17.066407c-9.421874.011719-17.058593 7.644532-17.066406 17.066407v17.066406c.003906 4.710937 3.820313 8.53125 8.53125 8.535156 4.714844 0 8.535156 3.820313 8.535156 8.53125 0 4.714844-3.820312 8.535157-8.535156 8.535157-14.132812-.015626-25.585937-11.46875-25.601562-25.601563v-17.066406c.023437-18.84375 15.292968-34.113281 34.136718-34.132813h17.066407c18.84375.019532 34.113281 15.289063 34.132812 34.132813v17.066406c-.015625 14.132813-11.46875 25.585937-25.601562 25.601563zm0 0" fill="#e6e7e8"/><path d="m358.398438 349.867188v68.265624c0 4.714844-3.820313 8.535157-8.53125 8.535157-4.714844 0-8.535157-3.820313-8.535157-8.535157v-68.265624zm0 0" fill="#67b9cc"/><path d="m349.867188 477.867188c-18.851563 0-34.132813-15.28125-34.132813-34.132813s15.28125-34.132813 34.132813-34.132813c18.851562 0 34.132812 15.28125 34.132812 34.132813-.019531 18.84375-15.289062 34.113281-34.132812 34.132813zm0-51.199219c-9.425782 0-17.066407 7.640625-17.066407 17.066406s7.640625 17.066406 17.066407 17.066406c9.425781 0 17.066406-7.640625 17.066406-17.066406-.011719-9.421875-7.644532-17.058594-17.066406-17.066406zm0 0" fill="#e6e7e8"/><path d="m264.535156 418.132812v85.335938h-17.070312v-85.335938c0-4.710937 3.824218-8.53125 8.535156-8.53125 4.714844 0 8.535156 3.820313 8.535156 8.53125zm0 0" fill="#e6e7e8"/><path d="m187.734375 213.332031h136.53125v51.203125c0 18.851563-15.28125 34.132813-34.132813 34.132813h-68.265624c-18.851563 0-34.132813-15.28125-34.132813-34.132813zm0 0" fill="#00bcd4"/><path d="m233.648438 154.359375c-8.109376-2.980469-16.625-4.707031-25.257813-5.121094-11.601563-.875-23.214844 1.601563-33.449219 7.132813 1.167969-14.933594 35.789063-17.882813 52.710938-14.042969 2.683594.332031 5.019531 1.988281 6.226562 4.40625 1.207032 2.417969 1.121094 5.28125-.230468 7.625zm0 0"/><path d="m230.398438 180.746094c0-10.101563-7.640626-18.292969-17.066407-18.292969s-17.066406 8.191406-17.066406 18.292969c0 10.101562 7.640625 18.292968 17.066406 18.292968s17.066407-8.191406 17.066407-18.292968zm0 0"/><path d="m218.117188 164.875c-4.402344-1.675781-9.332032.535156-11.007813 4.941406s.535156 9.335938 4.941406 11.007813c4.40625 1.675781 9.335938-.535157 11.007813-4.941407 1.675781-4.402343-.535156-9.332031-4.941406-11.007812zm0 0" fill="#fff"/><path d="m278.351562 154.359375c8.109376-2.980469 16.625-4.707031 25.257813-5.121094 11.601563-.875 23.214844 1.601563 33.449219 7.132813-1.164063-14.933594-35.789063-17.882813-52.710938-14.042969-2.683594.332031-5.019531 1.988281-6.226562 4.40625-1.207032 2.417969-1.117188 5.28125.230468 7.625zm0 0"/><path d="m315.734375 180.746094c0-10.101563-7.640625-18.292969-17.066406-18.292969s-17.066407 8.191406-17.066407 18.292969c0 10.101562 7.640626 18.292968 17.066407 18.292968s17.066406-8.191406 17.066406-18.292968zm0 0"/><path d="m304.890625 169.816406c-1.675781-4.40625-6.605469-6.617187-11.007813-4.941406-4.40625 1.675781-6.617187 6.601562-4.941406 11.007812 1.671875 4.40625 6.601563 6.617188 11.007813 4.941407s6.617187-6.601563 4.941406-11.007813zm0 0" fill="#fff"/><path d="m435.199219 512h-358.398438c-2.566406 0-4.996093-1.152344-6.617187-3.144531-1.621094-1.988281-2.261719-4.601563-1.742188-7.113281l28.929688-139.957032c.753906-3.066406 2.296875-5.878906 4.472656-8.160156 7.082031-7.949219 17.269531-12.433594 27.914062-12.292969h252.410157c10.664062-.140625 20.867187 4.335938 27.988281 12.277344 2.191406 2.277344 3.761719 5.085937 4.550781 8.148437l28.855469 139.984376c.519531 2.515624-.121094 5.128906-1.742188 7.117187-1.621093 1.988281-4.054687 3.140625-6.621093 3.140625zm-347.925781-17.066406h337.460937l-26.601563-129.066406c-.253906-.355469-.527343-.699219-.816406-1.023438-3.882812-4.234375-9.40625-6.582031-15.148437-6.445312h-252.410157c-5.695312-.136719-11.171874 2.195312-15.019531 6.402343-.273437.316407-.53125.648438-.773437.992188zm26.832031-129.820313-.03125.148438zm0 0"/><path d="m324.265625 358.398438h-136.53125c-4.714844 0-8.535156-3.820313-8.535156-8.53125v-42.667969c0-4.710938 3.820312-8.53125 8.535156-8.53125h136.53125c4.714844 0 8.535156 3.820312 8.535156 8.53125v42.667969c0 4.710937-3.820312 8.53125-8.535156 8.53125zm-128-17.066407h119.46875v-25.597656h-119.46875zm0 0"/><path d="m102.398438 512h-93.863282c-4.714844 0-8.535156-3.820312-8.535156-8.53125v-7.597656c-.0078125-11.621094 1.394531-23.199219 4.175781-34.484375l7.9375-32.15625c10.023438-37.449219 44.359375-63.183594 83.117188-62.296875h8.023437c4.710938 0 8.53125 3.820312 8.53125 8.535156 0 4.710938-3.820312 8.53125-8.53125 8.53125h-8.023437c-30.898438-.871094-58.390625 19.496094-66.558594 49.308594l-7.9375 32.171875c-2.371094 9.640625-3.605469 19.523437-3.667969 29.453125h85.332032c4.714843 0 8.535156 3.820312 8.535156 8.535156 0 4.710938-3.820313 8.53125-8.535156 8.53125zm0 0"/><path d="m503.464844 512h-93.863282c-4.714843 0-8.535156-3.820312-8.535156-8.53125 0-4.714844 3.820313-8.535156 8.535156-8.535156h85.332032c-.066406-9.921875-1.300782-19.804688-3.675782-29.441406l-7.9375-32.167969c-8.160156-29.820313-35.648437-50.191407-66.550781-49.324219h-7.9375c-4.710937 0-8.535156-3.820312-8.535156-8.53125 0-4.714844 3.824219-8.535156 8.535156-8.535156h7.9375c38.761719-.890625 73.105469 24.851562 83.125 62.308594l7.933594 32.15625c2.78125 11.28125 4.179687 22.855468 4.171875 34.472656v7.597656c0 4.710938-3.820312 8.53125-8.535156 8.53125zm0 0"/><path d="m256 435.199219c-2.851562 0-5.515625-1.425781-7.101562-3.800781l-51.199219-76.796876c-1.722657-2.539062-1.953125-5.804687-.601563-8.558593 1.347656-2.753907 4.074219-4.570313 7.136719-4.757813 3.058594-.1875 5.988281 1.28125 7.664063 3.847656l44.101562 66.152344 44.101562-66.152344c2.632813-3.871093 7.894532-4.898437 11.789063-2.300781 3.894531 2.597657 4.972656 7.847657 2.410156 11.769531l-51.199219 76.796876c-1.585937 2.375-4.25 3.800781-7.101562 3.800781zm0 0"/><path d="m256 512c-4.710938 0-8.535156-3.820312-8.535156-8.53125v-76.800781c0-4.714844 3.824218-8.535157 8.535156-8.535157 4.714844 0 8.535156 3.820313 8.535156 8.535157v76.800781c0 4.710938-3.820312 8.53125-8.535156 8.53125zm0 0"/><path d="m273.066406 469.332031h-17.066406c-4.710938 0-8.535156-3.820312-8.535156-8.53125 0-4.714843 3.824218-8.535156 8.535156-8.535156h17.066406c4.714844 0 8.535156 3.820313 8.535156 8.535156 0 4.710938-3.820312 8.53125-8.535156 8.53125zm0 0"/><path d="m162.132812 418.132812c-4.710937 0-8.53125-3.820312-8.53125-8.53125v-59.734374c0-4.714844 3.820313-8.535157 8.53125-8.535157 4.714844 0 8.535157 3.820313 8.535157 8.535157v59.734374c0 4.710938-3.820313 8.53125-8.535157 8.53125zm0 0"/><path d="m179.199219 477.867188c-4.710938 0-8.53125-3.820313-8.53125-8.535157 0-4.710937 3.820312-8.53125 8.53125-8.53125 4.710937-.003906 8.53125-3.824219 8.535156-8.535156v-17.066406c-.011719-9.417969-7.648437-17.054688-17.066406-17.066407h-17.066407c-9.421874.011719-17.054687 7.648438-17.066406 17.066407v17.066406c0 4.710937 3.820313 8.53125 8.53125 8.535156 4.714844 0 8.535156 3.820313 8.535156 8.53125 0 4.714844-3.820312 8.535157-8.535156 8.535157-14.132812-.015626-25.585937-11.46875-25.601562-25.601563v-17.066406c.019531-18.84375 15.292968-34.113281 34.136718-34.132813h17.066407c18.84375.019532 34.113281 15.289063 34.132812 34.132813v17.066406c-.015625 14.132813-11.46875 25.585937-25.601562 25.601563zm0 0"/><path d="m349.867188 477.867188c-18.851563 0-34.132813-15.28125-34.132813-34.132813s15.28125-34.132813 34.132813-34.132813c18.851562 0 34.132812 15.28125 34.132812 34.132813-.019531 18.84375-15.289062 34.113281-34.132812 34.132813zm0-51.199219c-9.425782 0-17.066407 7.640625-17.066407 17.066406s7.640625 17.066406 17.066407 17.066406c9.425781 0 17.066406-7.640625 17.066406-17.066406-.011719-9.421875-7.644532-17.054687-17.066406-17.066406zm0 0"/><path d="m349.867188 426.667969c-4.714844 0-8.535157-3.820313-8.535157-8.535157v-68.265624c0-4.714844 3.820313-8.535157 8.535157-8.535157 4.710937 0 8.53125 3.820313 8.53125 8.535157v68.265624c0 4.714844-3.820313 8.535157-8.53125 8.535157zm0 0"/><path d="m324.265625 315.734375h-136.53125c-37.6875-.042969-68.222656-30.582031-68.269531-68.265625v-58.371094c0-4.710937 3.824218-8.53125 8.535156-8.53125 4.714844 0 8.535156 3.820313 8.535156 8.53125v58.371094c.03125 28.261719 22.933594 51.167969 51.199219 51.199219h136.53125c28.265625-.03125 51.171875-22.9375 51.199219-51.199219v-58.371094c0-4.710937 3.824218-8.53125 8.535156-8.53125 4.714844 0 8.535156 3.820313 8.535156 8.53125v58.371094c-.046875 37.683594-30.582031 68.222656-68.269531 68.265625zm0 0"/><path d="m384.007812 221.867188c-3.667968.007812-6.933593-2.335938-8.101562-5.8125-1.171875-3.480469.015625-7.316407 2.945312-9.53125.648438-.582032 10.191407-9.707032 22.65625-47.089844 7.726563-23.191406 7.910157-46.859375.460938-61.75-5.042969-9.167969-11.421875-17.527344-18.933594-24.808594-8.738281-8.425781-15.992187-18.265625-21.460937-29.097656-5.535157 1.910156-10.074219 5.960937-12.609375 11.242187-1.769532 3.539063-5.742188 5.398438-9.59375 4.488281-3.851563-.910156-6.574219-4.347656-6.570313-8.308593-.085937-2.75-1.707031-17.066407-25.601562-17.066407-18.984375.492188-37.621094-5.167968-53.132813-16.128906-18.855468 5.035156-38.285156 7.589844-57.800781 7.597656-27.664063 0-34.507813 19.566407-34.574219 19.765626-.933594 2.804687-3.253906 4.929687-6.132812 5.609374-2.878906.675782-5.902344-.183593-7.992188-2.277343-1.195312-1.203125-2.511718-2.28125-3.925781-3.214844-3.203125 9.714844-9.300781 18.214844-17.472656 24.367187-6.609375 5.296876-12.09375 11.855469-16.136719 19.300782-8.238281 16.472656-15.347656 30.707031.292969 69.8125 15.632812 39.09375 23.554687 48.144531 23.875 48.511718 3.113281 3.445313 2.9375 8.742188-.398438 11.972657-3.308593 3.203125-8.570312 3.164062-11.832031-.085938-1.636719-1.632812-10.625-11.90625-27.492188-54.066406-18.492187-46.222656-8.511718-66.171875.289063-83.78125 4.980469-9.359375 11.769531-17.632813 19.976563-24.34375 8.265624-7.445313 13.257812-11.945313 13.257812-23.039063 0-4.710937 3.820312-8.53125 8.535156-8.53125 5.074219.25 10.007813 1.738282 14.375 4.339844 10.53125-14.339844 27.589844-22.390625 45.355469-21.40625 19.300781.054688 38.511719-2.671875 57.035156-8.09375 3.066407-1.027344 6.449219-.230468 8.730469 2.058594 12.757812 10.238281 28.835938 15.425781 45.167969 14.566406 14.527343-1.339844 28.6875 5.070313 37.269531 16.867188 6.433594-5.050782 14.289062-7.964844 22.464844-8.332032 3.671875-.003906 6.933594 2.347657 8.089844 5.832032 4.511718 11.335937 11.511718 21.511718 20.480468 29.78125 8.65625 8.460937 15.984375 18.183594 21.734375 28.832031 9.542969 19.078125 9.707031 47.035156.457031 74.785156-14.691406 44.074219-26.617187 53.992188-28.859374 55.53125-1.417969.984375-3.101563 1.507813-4.828126 1.503907zm0 0"/><path d="m384 197.632812c-4.710938 0-8.535156-3.820312-8.535156-8.535156.128906-13.734375-2.875-27.316406-8.789063-39.714844-7.066406-14.507812-19.164062-33.058593-36.582031-38.894531-11.890625-3.972656-21.398438-1.289062-34.574219 2.410157-12.78125 4.113281-26.097656 6.324218-39.519531 6.570312-13.421875-.246094-26.738281-2.460938-39.515625-6.574219-13.183594-3.691406-22.699219-6.347656-34.585937-2.40625-17.40625 5.832031-29.507813 24.382813-36.582032 38.917969-5.90625 12.390625-8.910156 25.964844-8.78125 39.691406 0 4.714844-3.820312 8.535156-8.535156 8.535156-4.710938 0-8.535156-3.820312-8.535156-8.535156-.128906-16.308594 3.460937-32.433594 10.496094-47.148437 8.527343-17.492188 23.5-39.933594 46.535156-47.640625 14.703125-4.167969 30.367187-3.40625 44.601562 2.167968 11.28125 3.664063 23.042969 5.660157 34.902344 5.921876 11.863281-.261719 23.621094-2.257813 34.910156-5.921876 14.226563-5.574218 29.886719-6.335937 44.589844-2.167968 23.039062 7.707031 38.015625 30.148437 46.53125 47.617187 7.039062 14.722657 10.632812 30.855469 10.503906 47.171875 0 4.714844-3.820312 8.535156-8.535156 8.535156zm0 0"/><path d="m290.132812 315.734375h-68.265624c-23.554688-.027344-42.640626-19.113281-42.667969-42.667969v-51.199218c0-4.714844 3.820312-8.535157 8.535156-8.535157h136.53125c4.714844 0 8.535156 3.820313 8.535156 8.535157v51.199218c-.027343 23.554688-19.113281 42.640625-42.667969 42.667969zm-93.867187-85.335937v42.667968c.015625 14.132813 11.46875 25.585938 25.601563 25.601563h68.265624c14.132813-.015625 25.585938-11.46875 25.601563-25.601563v-42.667968zm0 0"/><path d="m187.734375 281.601562c-1.15625 0-2.300781-.234374-3.359375-.695312l-59.734375-25.597656c-3.136719-1.34375-5.175781-4.429688-5.175781-7.839844 0-3.414062 2.039062-6.5 5.175781-7.84375l59.734375-25.597656c2.816406-1.296875 6.117188-.964844 8.617188.875 2.5 1.835937 3.808593 4.886718 3.414062 7.960937-.394531 3.078125-2.429688 5.699219-5.3125 6.84375l-41.425781 17.761719 41.425781 17.757812c3.71875 1.597657 5.804688 5.589844 4.992188 9.554688s-4.304688 6.816406-8.351563 6.820312zm0 0"/><path d="m324.265625 281.601562c-4.046875-.003906-7.535156-2.855468-8.351563-6.820312-.8125-3.964844 1.273438-7.957031 4.992188-9.554688l41.425781-17.757812-41.425781-17.761719c-4.199219-1.933593-6.097656-6.859375-4.277344-11.109375 1.824219-4.253906 6.699219-6.28125 10.996094-4.570312l59.734375 25.597656c3.136719 1.34375 5.175781 4.429688 5.175781 7.84375 0 3.410156-2.039062 6.496094-5.175781 7.839844l-59.734375 25.597656c-1.058594.460938-2.203125.695312-3.359375.695312zm0 0"/></svg>