<svg height="512pt" viewBox="0 0 512.00012 512" width="512pt" xmlns="http://www.w3.org/2000/svg"><path d="m187.734375 264.535156h136.53125v76.796875h-136.53125zm0 0" fill="#fec108"/><path d="m503.464844 495.871094.003906 7.59375h-494.933594v-7.59375c-.015625-10.925782 1.300782-21.816406 3.921875-32.425782l7.9375-57.769531c9.203125-33.558593 40.046875-56.558593 74.835938-55.808593h321.539062c34.789063-.75 65.632813 22.25 74.835938 55.808593l7.9375 57.769531c2.621093 10.609376 3.9375 21.5 3.921875 32.425782zm0 0" fill="#607d8b"/><path d="m366.933594 324.265625h18.515625c9.285156-.8125 17.921875 4.828125 20.90625 13.65625l2.050781 11.945313 26.792969 153.597656h-358.398438l26.878907-153.597656 2.046874-11.945313c2.945313-8.824219 11.558594-14.46875 20.824219-13.65625zm0 0" fill="#37474f"/><path d="m366.933594 324.265625v17.066406c-.023438 28.269531-22.933594 51.179688-51.199219 51.203125h-119.46875c-28.265625-.023437-51.175781-22.933594-51.199219-51.203125v-17.066406zm0 0" fill="#37474f"/><path d="m221.867188 324.265625h68.265624v68.269531h-68.265624zm0 0" fill="#fff"/><path d="m187.734375 42.667969h136.53125c32.992187 0 59.734375 26.742187 59.734375 59.730469v119.46875c0 32.988281-26.742188 59.734374-59.734375 59.734374h-136.53125c-32.992187 0-59.734375-26.746093-59.734375-59.734374v-119.46875c0-32.988282 26.742188-59.730469 59.734375-59.730469zm0 0" fill="#fec108"/><path d="m310.613281 42.667969h-109.226562c-26.390625 0-47.785157 26.742187-47.785157 59.730469v119.46875c0 32.988281 21.394532 59.734374 47.785157 59.734374h109.226562c26.390625 0 47.785157-26.746093 47.785157-59.734374v-119.46875c0-32.988282-21.394532-59.730469-47.785157-59.730469zm0 0" fill="#ffdc00"/><path d="m221.867188 8.535156h68.265624c4.714844 0 8.535157 3.820313 8.535157 8.53125v25.601563h-85.335938v-25.601563c0-4.710937 3.820313-8.53125 8.535157-8.53125zm0 0" fill="#fec108"/><path d="m296.339844 209.066406c-6.894532 13.492188-28.414063 15.402344-40.167969 15.402344-11.78125 0-33.277344-1.910156-40.171875-15.402344 13.148438 3.238282 26.628906 4.929688 40.171875 5.035156 13.539063-.105468 27.023437-1.792968 40.167969-5.035156zm0 0"/><path d="m233.648438 120.226562c-8.109376-2.984374-16.625-4.710937-25.257813-5.121093-11.601563-.875-23.214844 1.597656-33.449219 7.132812 1.167969-14.933593 35.789063-17.886719 52.710938-14.046875 2.683594.335938 5.019531 1.992188 6.226562 4.410156 1.207032 2.417969 1.121094 5.28125-.230468 7.625zm0 0"/><path d="m230.398438 146.613281c0-10.101562-7.640626-18.292969-17.066407-18.292969s-17.066406 8.191407-17.066406 18.292969c0 10.101563 7.640625 18.292969 17.066406 18.292969s17.066407-8.191406 17.066407-18.292969zm0 0"/><path d="m218.117188 130.742188c-4.402344-1.675782-9.332032.535156-11.007813 4.941406s.535156 9.332031 4.941406 11.007812c4.40625 1.675782 9.335938-.535156 11.007813-4.941406 1.675781-4.40625-.535156-9.332031-4.941406-11.007812zm0 0" fill="#fff"/><path d="m278.351562 120.226562c8.109376-2.984374 16.625-4.710937 25.257813-5.121093 11.601563-.875 23.214844 1.597656 33.449219 7.132812-1.167969-14.933593-35.789063-17.886719-52.710938-14.046875-2.683594.335938-5.019531 1.992188-6.226562 4.410156-1.207032 2.417969-1.121094 5.28125.230468 7.625zm0 0"/><path d="m315.734375 146.613281c0-10.101562-7.640625-18.292969-17.066406-18.292969s-17.066407 8.191407-17.066407 18.292969c0 10.101563 7.640626 18.292969 17.066407 18.292969s17.066406-8.191406 17.066406-18.292969zm0 0"/><path d="m304.890625 135.683594c-1.675781-4.40625-6.605469-6.617188-11.007813-4.945313-4.40625 1.675781-6.617187 6.605469-4.941406 11.011719 1.671875 4.40625 6.601563 6.617188 11.007813 4.941406 4.40625-1.675781 6.617187-6.605468 4.941406-11.007812zm0 0" fill="#fff"/><path d="m435.199219 512h-358.398438c-2.519531 0-4.914062-1.113281-6.535156-3.042969-1.621094-1.925781-2.308594-4.472656-1.875-6.957031l28.910156-165.523438c3.640625-12.960937 15.847657-21.609374 29.28125-20.742187h258.894531c13.359376-.882813 25.53125 7.664063 29.230469 20.53125l28.902344 165.734375c.433594 2.484375-.253906 5.03125-1.875 6.957031-1.621094 1.929688-4.015625 3.042969-6.535156 3.042969zm-348.246094-17.066406h338.101563l-27.121094-155.523438c-2.359375-4.597656-7.332032-7.234375-12.457032-6.609375h-258.894531c-5.199219-.636719-10.226562 2.109375-12.507812 6.824219zm0 0"/><path d="m324.265625 332.800781h-136.53125c-4.714844 0-8.535156-3.820312-8.535156-8.535156v-42.664063c0-4.714843 3.820312-8.535156 8.535156-8.535156h136.53125c4.714844 0 8.535156 3.820313 8.535156 8.535156v42.664063c0 4.714844-3.820312 8.535156-8.535156 8.535156zm-128-17.066406h119.46875v-25.601563h-119.46875zm0 0"/><path d="m324.265625 290.132812h-136.53125c-37.6875-.042968-68.222656-30.582031-68.269531-68.265624v-119.46875c.046875-37.683594 30.582031-68.222657 68.269531-68.265626h136.53125c37.6875.042969 68.222656 30.582032 68.269531 68.265626v119.46875c-.046875 37.683593-30.582031 68.222656-68.269531 68.265624zm-136.53125-238.933593c-28.265625.03125-51.171875 22.9375-51.199219 51.199219v119.46875c.027344 28.261718 22.933594 51.167968 51.199219 51.199218h136.53125c28.265625-.03125 51.171875-22.9375 51.199219-51.199218v-119.46875c-.027344-28.261719-22.933594-51.167969-51.199219-51.199219zm0 0"/><path d="m298.667969 51.199219h-85.335938c-4.710937 0-8.53125-3.820313-8.53125-8.53125v-25.601563c.011719-9.421875 7.644531-17.0546872 17.066407-17.066406h68.265624c9.421876.0117188 17.054688 7.644531 17.066407 17.066406v25.601563c0 4.710937-3.820313 8.53125-8.53125 8.53125zm-76.800781-17.066407h68.265624v-17.066406h-68.265624zm0 0"/><path d="m102.398438 512h-93.863282c-4.714844 0-8.535156-3.820312-8.535156-8.535156v-7.59375c-.0078125-11.464844 1.355469-22.890625 4.066406-34.03125l7.875-57.328125c.035156-.292969.09375-.585938.171875-.871094 10.019531-37.453125 44.359375-63.195313 83.117188-62.308594h8.023437c4.710938 0 8.53125 3.820313 8.53125 8.535157 0 4.710937-3.820312 8.53125-8.53125 8.53125h-8.023437c-30.734375-.851563-58.121094 19.296874-66.449219 48.898437l-7.875 57.304687c-.035156.300782-.09375.597657-.171875.890626-2.371094 9.636718-3.605469 19.515624-3.667969 29.441406h85.332032c4.714843 0 8.535156 3.820312 8.535156 8.53125 0 4.714844-3.820313 8.535156-8.535156 8.535156zm0 0"/><path d="m503.464844 512h-93.863282c-4.714843 0-8.535156-3.820312-8.535156-8.535156 0-4.710938 3.820313-8.53125 8.535156-8.53125h85.332032c-.066406-9.921875-1.300782-19.804688-3.675782-29.441406-.078124-.292969-.132812-.589844-.171874-.890626l-7.867188-57.304687c-8.328125-29.601563-35.714844-49.75-66.449219-48.898437h-7.9375c-4.710937 0-8.535156-3.820313-8.535156-8.53125 0-4.714844 3.824219-8.535157 8.535156-8.535157h7.9375c38.761719-.886719 73.105469 24.855469 83.125 62.308594.078125.289063.132813.582031.171875.875l7.871094 57.328125c2.710938 11.136719 4.074219 22.5625 4.0625 34.027344v7.59375c0 4.714844-3.820312 8.535156-8.535156 8.535156zm0 0"/><path d="m315.734375 401.066406h-119.46875c-32.972656-.039062-59.691406-26.761718-59.730469-59.734375v-17.066406c0-4.710937 3.820313-8.53125 8.53125-8.53125h221.867188c4.710937 0 8.53125 3.820313 8.53125 8.53125v17.066406c-.039063 32.972657-26.757813 59.695313-59.730469 59.734375zm-162.132813-68.265625v8.53125c.027344 23.554688 19.113282 42.640625 42.664063 42.667969h119.46875c23.550781-.027344 42.636719-19.113281 42.664063-42.667969v-8.53125zm0 0"/><path d="m290.132812 401.066406h-68.265624c-4.714844 0-8.535157-3.820312-8.535157-8.53125v-68.269531c0-4.710937 3.820313-8.53125 8.535157-8.53125h68.265624c4.714844 0 8.535157 3.820313 8.535157 8.53125v68.269531c0 4.710938-3.820313 8.53125-8.535157 8.53125zm-59.734374-17.066406h51.203124v-51.199219h-51.203124zm0 0"/><path d="m256 512c-4.710938 0-8.535156-3.820312-8.535156-8.535156v-76.796875c0-4.714844 3.824218-8.535157 8.535156-8.535157s8.535156 3.820313 8.535156 8.535157v76.796875c0 4.714844-3.824218 8.535156-8.535156 8.535156zm0 0"/><path d="m281.601562 460.800781h-51.203124c-4.710938 0-8.53125-3.820312-8.53125-8.535156 0-4.710937 3.820312-8.53125 8.53125-8.53125h51.203124c4.710938 0 8.53125 3.820313 8.53125 8.53125 0 4.714844-3.820312 8.535156-8.53125 8.535156zm0 0"/></svg>